G04 #@! TF.GenerationSoftware,KiCad,Pcbnew,(5.1.5-0-10_14)*
G04 #@! TF.CreationDate,2020-01-18T13:45:36+01:00*
G04 #@! TF.ProjectId,ErnoCCC,45726e6f-4343-4432-9e6b-696361645f70,rev?*
G04 #@! TF.SameCoordinates,Original*
G04 #@! TF.FileFunction,Paste,Bot*
G04 #@! TF.FilePolarity,Positive*
%FSLAX46Y46*%
G04 Gerber Fmt 4.6, Leading zero omitted, Abs format (unit mm)*
G04 Created by KiCad (PCBNEW (5.1.5-0-10_14)) date 2020-01-18 13:45:36*
%MOMM*%
%LPD*%
G04 APERTURE LIST*
%ADD10C,0.050000*%
G04 APERTURE END LIST*
D10*
G36*
X102933032Y-63510325D02*
G01*
X102670807Y-64159353D01*
X101558186Y-63709825D01*
X101820411Y-63060797D01*
X102933032Y-63510325D01*
G37*
G36*
X99224297Y-62011899D02*
G01*
X98962072Y-62660927D01*
X97849451Y-62211399D01*
X98111676Y-61562371D01*
X99224297Y-62011899D01*
G37*
G36*
X98503629Y-63795615D02*
G01*
X98241404Y-64444643D01*
X97128783Y-63995115D01*
X97391008Y-63346087D01*
X98503629Y-63795615D01*
G37*
G36*
X102212364Y-65294041D02*
G01*
X101950139Y-65943069D01*
X100837518Y-65493541D01*
X101099743Y-64844513D01*
X102212364Y-65294041D01*
G37*
G36*
X98397968Y-60889675D02*
G01*
X98660193Y-60240647D01*
X99772814Y-60690175D01*
X99510589Y-61339203D01*
X98397968Y-60889675D01*
G37*
G36*
X102106703Y-62388101D02*
G01*
X102368928Y-61739073D01*
X103481549Y-62188601D01*
X103219324Y-62837629D01*
X102106703Y-62388101D01*
G37*
G36*
X102827371Y-60604385D02*
G01*
X103089596Y-59955357D01*
X104202217Y-60404885D01*
X103939992Y-61053913D01*
X102827371Y-60604385D01*
G37*
G36*
X99118636Y-59105959D02*
G01*
X99380861Y-58456931D01*
X100493482Y-58906459D01*
X100231257Y-59555487D01*
X99118636Y-59105959D01*
G37*
G36*
X131374261Y-59700751D02*
G01*
X131398634Y-59703555D01*
X131422615Y-59708735D01*
X131445972Y-59716240D01*
X131468482Y-59725998D01*
X131489927Y-59737915D01*
X131510100Y-59751878D01*
X131528808Y-59767750D01*
X131545870Y-59785380D01*
X131561122Y-59804597D01*
X131574416Y-59825216D01*
X131986916Y-60539686D01*
X131998126Y-60561509D01*
X132007142Y-60584326D01*
X132013879Y-60607917D01*
X132018271Y-60632054D01*
X132020276Y-60656506D01*
X132019875Y-60681037D01*
X132017071Y-60705410D01*
X132011891Y-60729391D01*
X132004387Y-60752748D01*
X131994628Y-60775258D01*
X131982711Y-60796703D01*
X131968748Y-60816876D01*
X131952876Y-60835584D01*
X131935247Y-60852646D01*
X131916030Y-60867898D01*
X131895410Y-60881192D01*
X131202590Y-61281192D01*
X131180767Y-61292402D01*
X131157950Y-61301419D01*
X131134359Y-61308155D01*
X131110222Y-61312547D01*
X131085770Y-61314552D01*
X131061239Y-61314151D01*
X131036866Y-61311347D01*
X131012885Y-61306167D01*
X130989528Y-61298662D01*
X130967018Y-61288904D01*
X130945573Y-61276987D01*
X130925400Y-61263024D01*
X130906692Y-61247152D01*
X130889630Y-61229522D01*
X130874378Y-61210305D01*
X130861084Y-61189686D01*
X130448584Y-60475216D01*
X130437374Y-60453393D01*
X130428358Y-60430576D01*
X130421621Y-60406985D01*
X130417229Y-60382848D01*
X130415224Y-60358396D01*
X130415625Y-60333865D01*
X130418429Y-60309492D01*
X130423609Y-60285511D01*
X130431113Y-60262154D01*
X130440872Y-60239644D01*
X130452789Y-60218199D01*
X130466752Y-60198026D01*
X130482624Y-60179318D01*
X130500253Y-60162256D01*
X130519470Y-60147004D01*
X130540090Y-60133710D01*
X131232910Y-59733710D01*
X131254733Y-59722500D01*
X131277550Y-59713483D01*
X131301141Y-59706747D01*
X131325278Y-59702355D01*
X131349730Y-59700350D01*
X131374261Y-59700751D01*
G37*
G36*
X132336761Y-61367849D02*
G01*
X132361134Y-61370653D01*
X132385115Y-61375833D01*
X132408472Y-61383338D01*
X132430982Y-61393096D01*
X132452427Y-61405013D01*
X132472600Y-61418976D01*
X132491308Y-61434848D01*
X132508370Y-61452478D01*
X132523622Y-61471695D01*
X132536916Y-61492314D01*
X132949416Y-62206784D01*
X132960626Y-62228607D01*
X132969642Y-62251424D01*
X132976379Y-62275015D01*
X132980771Y-62299152D01*
X132982776Y-62323604D01*
X132982375Y-62348135D01*
X132979571Y-62372508D01*
X132974391Y-62396489D01*
X132966887Y-62419846D01*
X132957128Y-62442356D01*
X132945211Y-62463801D01*
X132931248Y-62483974D01*
X132915376Y-62502682D01*
X132897747Y-62519744D01*
X132878530Y-62534996D01*
X132857910Y-62548290D01*
X132165090Y-62948290D01*
X132143267Y-62959500D01*
X132120450Y-62968517D01*
X132096859Y-62975253D01*
X132072722Y-62979645D01*
X132048270Y-62981650D01*
X132023739Y-62981249D01*
X131999366Y-62978445D01*
X131975385Y-62973265D01*
X131952028Y-62965760D01*
X131929518Y-62956002D01*
X131908073Y-62944085D01*
X131887900Y-62930122D01*
X131869192Y-62914250D01*
X131852130Y-62896620D01*
X131836878Y-62877403D01*
X131823584Y-62856784D01*
X131411084Y-62142314D01*
X131399874Y-62120491D01*
X131390858Y-62097674D01*
X131384121Y-62074083D01*
X131379729Y-62049946D01*
X131377724Y-62025494D01*
X131378125Y-62000963D01*
X131380929Y-61976590D01*
X131386109Y-61952609D01*
X131393613Y-61929252D01*
X131403372Y-61906742D01*
X131415289Y-61885297D01*
X131429252Y-61865124D01*
X131445124Y-61846416D01*
X131462753Y-61829354D01*
X131481970Y-61814102D01*
X131502590Y-61800808D01*
X132195410Y-61400808D01*
X132217233Y-61389598D01*
X132240050Y-61380581D01*
X132263641Y-61373845D01*
X132287778Y-61369453D01*
X132312230Y-61367448D01*
X132336761Y-61367849D01*
G37*
M02*
