G04 #@! TF.GenerationSoftware,KiCad,Pcbnew,(5.1.5-0-10_14)*
G04 #@! TF.CreationDate,2020-01-18T13:45:36+01:00*
G04 #@! TF.ProjectId,ErnoCCC,45726e6f-4343-4432-9e6b-696361645f70,rev?*
G04 #@! TF.SameCoordinates,Original*
G04 #@! TF.FileFunction,Legend,Bot*
G04 #@! TF.FilePolarity,Positive*
%FSLAX46Y46*%
G04 Gerber Fmt 4.6, Leading zero omitted, Abs format (unit mm)*
G04 Created by KiCad (PCBNEW (5.1.5-0-10_14)) date 2020-01-18 13:45:36*
%MOMM*%
%LPD*%
G04 APERTURE LIST*
%ADD10C,0.200000*%
%ADD11C,0.150000*%
%ADD12C,0.100000*%
%ADD13C,0.120000*%
G04 APERTURE END LIST*
D10*
X100774476Y-66246380D02*
X100774476Y-66627333D01*
X100679238Y-66627333D02*
X100679238Y-66246380D01*
X100584000Y-66151142D02*
X100584000Y-66722571D01*
X100488761Y-66627333D02*
X100488761Y-66246380D01*
X100393523Y-66246380D02*
X100393523Y-66627333D01*
X100774476Y-66532095D02*
X100584000Y-66722571D01*
X100393523Y-66532095D01*
X100774476Y-66341619D02*
X100584000Y-66151142D01*
X100393523Y-66341619D01*
X100774476Y-66246380D02*
X100584000Y-66151142D01*
X100393523Y-66246380D01*
X100298285Y-66436857D01*
X100393523Y-66627333D01*
X100584000Y-66722571D01*
X100774476Y-66627333D01*
X100869714Y-66436857D01*
X100774476Y-66246380D01*
D11*
X203092976Y-30982142D02*
X203140595Y-31029761D01*
X203283452Y-31077380D01*
X203378690Y-31077380D01*
X203521547Y-31029761D01*
X203616785Y-30934523D01*
X203664404Y-30839285D01*
X203712023Y-30648809D01*
X203712023Y-30505952D01*
X203664404Y-30315476D01*
X203616785Y-30220238D01*
X203521547Y-30125000D01*
X203378690Y-30077380D01*
X203283452Y-30077380D01*
X203140595Y-30125000D01*
X203092976Y-30172619D01*
X202235833Y-30410714D02*
X202235833Y-31077380D01*
X202664404Y-30410714D02*
X202664404Y-30934523D01*
X202616785Y-31029761D01*
X202521547Y-31077380D01*
X202378690Y-31077380D01*
X202283452Y-31029761D01*
X202235833Y-30982142D01*
X201902500Y-30410714D02*
X201521547Y-30410714D01*
X201759642Y-30077380D02*
X201759642Y-30934523D01*
X201712023Y-31029761D01*
X201616785Y-31077380D01*
X201521547Y-31077380D01*
X200473928Y-30029761D02*
X201331071Y-31315476D01*
X200188214Y-31029761D02*
X200045357Y-31077380D01*
X199807261Y-31077380D01*
X199712023Y-31029761D01*
X199664404Y-30982142D01*
X199616785Y-30886904D01*
X199616785Y-30791666D01*
X199664404Y-30696428D01*
X199712023Y-30648809D01*
X199807261Y-30601190D01*
X199997738Y-30553571D01*
X200092976Y-30505952D01*
X200140595Y-30458333D01*
X200188214Y-30363095D01*
X200188214Y-30267857D01*
X200140595Y-30172619D01*
X200092976Y-30125000D01*
X199997738Y-30077380D01*
X199759642Y-30077380D01*
X199616785Y-30125000D01*
X199188214Y-31077380D02*
X199188214Y-30077380D01*
X198759642Y-31077380D02*
X198759642Y-30553571D01*
X198807261Y-30458333D01*
X198902500Y-30410714D01*
X199045357Y-30410714D01*
X199140595Y-30458333D01*
X199188214Y-30505952D01*
X198140595Y-31077380D02*
X198235833Y-31029761D01*
X198283452Y-30982142D01*
X198331071Y-30886904D01*
X198331071Y-30601190D01*
X198283452Y-30505952D01*
X198235833Y-30458333D01*
X198140595Y-30410714D01*
X197997738Y-30410714D01*
X197902500Y-30458333D01*
X197854880Y-30505952D01*
X197807261Y-30601190D01*
X197807261Y-30886904D01*
X197854880Y-30982142D01*
X197902500Y-31029761D01*
X197997738Y-31077380D01*
X198140595Y-31077380D01*
X197378690Y-31077380D02*
X197378690Y-30410714D01*
X197378690Y-30601190D02*
X197331071Y-30505952D01*
X197283452Y-30458333D01*
X197188214Y-30410714D01*
X197092976Y-30410714D01*
X196902500Y-30410714D02*
X196521547Y-30410714D01*
X196759642Y-30077380D02*
X196759642Y-30934523D01*
X196712023Y-31029761D01*
X196616785Y-31077380D01*
X196521547Y-31077380D01*
X195807261Y-31029761D02*
X195902500Y-31077380D01*
X196092976Y-31077380D01*
X196188214Y-31029761D01*
X196235833Y-30934523D01*
X196235833Y-30553571D01*
X196188214Y-30458333D01*
X196092976Y-30410714D01*
X195902500Y-30410714D01*
X195807261Y-30458333D01*
X195759642Y-30553571D01*
X195759642Y-30648809D01*
X196235833Y-30744047D01*
X195331071Y-30410714D02*
X195331071Y-31077380D01*
X195331071Y-30505952D02*
X195283452Y-30458333D01*
X195188214Y-30410714D01*
X195045357Y-30410714D01*
X194950119Y-30458333D01*
X194902500Y-30553571D01*
X194902500Y-31077380D01*
X203664404Y-32727380D02*
X203664404Y-31727380D01*
X203664404Y-32108333D02*
X203569166Y-32060714D01*
X203378690Y-32060714D01*
X203283452Y-32108333D01*
X203235833Y-32155952D01*
X203188214Y-32251190D01*
X203188214Y-32536904D01*
X203235833Y-32632142D01*
X203283452Y-32679761D01*
X203378690Y-32727380D01*
X203569166Y-32727380D01*
X203664404Y-32679761D01*
X202616785Y-32727380D02*
X202712023Y-32679761D01*
X202759642Y-32632142D01*
X202807261Y-32536904D01*
X202807261Y-32251190D01*
X202759642Y-32155952D01*
X202712023Y-32108333D01*
X202616785Y-32060714D01*
X202473928Y-32060714D01*
X202378690Y-32108333D01*
X202331071Y-32155952D01*
X202283452Y-32251190D01*
X202283452Y-32536904D01*
X202331071Y-32632142D01*
X202378690Y-32679761D01*
X202473928Y-32727380D01*
X202616785Y-32727380D01*
X201997738Y-32060714D02*
X201616785Y-32060714D01*
X201854880Y-31727380D02*
X201854880Y-32584523D01*
X201807261Y-32679761D01*
X201712023Y-32727380D01*
X201616785Y-32727380D01*
X201283452Y-32727380D02*
X201283452Y-31727380D01*
X200854880Y-32727380D02*
X200854880Y-32203571D01*
X200902500Y-32108333D01*
X200997738Y-32060714D01*
X201140595Y-32060714D01*
X201235833Y-32108333D01*
X201283452Y-32155952D01*
X199331071Y-31727380D02*
X199331071Y-32441666D01*
X199378690Y-32584523D01*
X199473928Y-32679761D01*
X199616785Y-32727380D01*
X199712023Y-32727380D01*
X198426309Y-32060714D02*
X198426309Y-32727380D01*
X198854880Y-32060714D02*
X198854880Y-32584523D01*
X198807261Y-32679761D01*
X198712023Y-32727380D01*
X198569166Y-32727380D01*
X198473928Y-32679761D01*
X198426309Y-32632142D01*
X197950119Y-32727380D02*
X197950119Y-32060714D01*
X197950119Y-32155952D02*
X197902500Y-32108333D01*
X197807261Y-32060714D01*
X197664404Y-32060714D01*
X197569166Y-32108333D01*
X197521547Y-32203571D01*
X197521547Y-32727380D01*
X197521547Y-32203571D02*
X197473928Y-32108333D01*
X197378690Y-32060714D01*
X197235833Y-32060714D01*
X197140595Y-32108333D01*
X197092976Y-32203571D01*
X197092976Y-32727380D01*
X196616785Y-32060714D02*
X196616785Y-33060714D01*
X196616785Y-32108333D02*
X196521547Y-32060714D01*
X196331071Y-32060714D01*
X196235833Y-32108333D01*
X196188214Y-32155952D01*
X196140595Y-32251190D01*
X196140595Y-32536904D01*
X196188214Y-32632142D01*
X196235833Y-32679761D01*
X196331071Y-32727380D01*
X196521547Y-32727380D01*
X196616785Y-32679761D01*
X195331071Y-32679761D02*
X195426309Y-32727380D01*
X195616785Y-32727380D01*
X195712023Y-32679761D01*
X195759642Y-32584523D01*
X195759642Y-32203571D01*
X195712023Y-32108333D01*
X195616785Y-32060714D01*
X195426309Y-32060714D01*
X195331071Y-32108333D01*
X195283452Y-32203571D01*
X195283452Y-32298809D01*
X195759642Y-32394047D01*
X194854880Y-32727380D02*
X194854880Y-32060714D01*
X194854880Y-32251190D02*
X194807261Y-32155952D01*
X194759642Y-32108333D01*
X194664404Y-32060714D01*
X194569166Y-32060714D01*
X194283452Y-32679761D02*
X194188214Y-32727380D01*
X193997738Y-32727380D01*
X193902500Y-32679761D01*
X193854880Y-32584523D01*
X193854880Y-32536904D01*
X193902500Y-32441666D01*
X193997738Y-32394047D01*
X194140595Y-32394047D01*
X194235833Y-32346428D01*
X194283452Y-32251190D01*
X194283452Y-32203571D01*
X194235833Y-32108333D01*
X194140595Y-32060714D01*
X193997738Y-32060714D01*
X193902500Y-32108333D01*
X203807261Y-33710714D02*
X203426309Y-33710714D01*
X203664404Y-33377380D02*
X203664404Y-34234523D01*
X203616785Y-34329761D01*
X203521547Y-34377380D01*
X203426309Y-34377380D01*
X202950119Y-34377380D02*
X203045357Y-34329761D01*
X203092976Y-34282142D01*
X203140595Y-34186904D01*
X203140595Y-33901190D01*
X203092976Y-33805952D01*
X203045357Y-33758333D01*
X202950119Y-33710714D01*
X202807261Y-33710714D01*
X202712023Y-33758333D01*
X202664404Y-33805952D01*
X202616785Y-33901190D01*
X202616785Y-34186904D01*
X202664404Y-34282142D01*
X202712023Y-34329761D01*
X202807261Y-34377380D01*
X202950119Y-34377380D01*
X201473928Y-34329761D02*
X201378690Y-34377380D01*
X201188214Y-34377380D01*
X201092976Y-34329761D01*
X201045357Y-34234523D01*
X201045357Y-34186904D01*
X201092976Y-34091666D01*
X201188214Y-34044047D01*
X201331071Y-34044047D01*
X201426309Y-33996428D01*
X201473928Y-33901190D01*
X201473928Y-33853571D01*
X201426309Y-33758333D01*
X201331071Y-33710714D01*
X201188214Y-33710714D01*
X201092976Y-33758333D01*
X200712023Y-33710714D02*
X200521547Y-34377380D01*
X200331071Y-33901190D01*
X200140595Y-34377380D01*
X199950119Y-33710714D01*
X199140595Y-34377380D02*
X199140595Y-33853571D01*
X199188214Y-33758333D01*
X199283452Y-33710714D01*
X199473928Y-33710714D01*
X199569166Y-33758333D01*
X199140595Y-34329761D02*
X199235833Y-34377380D01*
X199473928Y-34377380D01*
X199569166Y-34329761D01*
X199616785Y-34234523D01*
X199616785Y-34139285D01*
X199569166Y-34044047D01*
X199473928Y-33996428D01*
X199235833Y-33996428D01*
X199140595Y-33948809D01*
X198664404Y-33710714D02*
X198664404Y-34710714D01*
X198664404Y-33758333D02*
X198569166Y-33710714D01*
X198378690Y-33710714D01*
X198283452Y-33758333D01*
X198235833Y-33805952D01*
X198188214Y-33901190D01*
X198188214Y-34186904D01*
X198235833Y-34282142D01*
X198283452Y-34329761D01*
X198378690Y-34377380D01*
X198569166Y-34377380D01*
X198664404Y-34329761D01*
X196997738Y-34377380D02*
X196997738Y-33377380D01*
X196759642Y-33377380D01*
X196616785Y-33425000D01*
X196521547Y-33520238D01*
X196473928Y-33615476D01*
X196426309Y-33805952D01*
X196426309Y-33948809D01*
X196473928Y-34139285D01*
X196521547Y-34234523D01*
X196616785Y-34329761D01*
X196759642Y-34377380D01*
X196997738Y-34377380D01*
X195997738Y-34377380D02*
X195997738Y-33710714D01*
X195997738Y-33377380D02*
X196045357Y-33425000D01*
X195997738Y-33472619D01*
X195950119Y-33425000D01*
X195997738Y-33377380D01*
X195997738Y-33472619D01*
X195569166Y-34329761D02*
X195473928Y-34377380D01*
X195283452Y-34377380D01*
X195188214Y-34329761D01*
X195140595Y-34234523D01*
X195140595Y-34186904D01*
X195188214Y-34091666D01*
X195283452Y-34044047D01*
X195426309Y-34044047D01*
X195521547Y-33996428D01*
X195569166Y-33901190D01*
X195569166Y-33853571D01*
X195521547Y-33758333D01*
X195426309Y-33710714D01*
X195283452Y-33710714D01*
X195188214Y-33758333D01*
X194712023Y-33710714D02*
X194712023Y-34710714D01*
X194712023Y-33758333D02*
X194616785Y-33710714D01*
X194426309Y-33710714D01*
X194331071Y-33758333D01*
X194283452Y-33805952D01*
X194235833Y-33901190D01*
X194235833Y-34186904D01*
X194283452Y-34282142D01*
X194331071Y-34329761D01*
X194426309Y-34377380D01*
X194616785Y-34377380D01*
X194712023Y-34329761D01*
X193664404Y-34377380D02*
X193759642Y-34329761D01*
X193807261Y-34234523D01*
X193807261Y-33377380D01*
X192854880Y-34377380D02*
X192854880Y-33853571D01*
X192902500Y-33758333D01*
X192997738Y-33710714D01*
X193188214Y-33710714D01*
X193283452Y-33758333D01*
X192854880Y-34329761D02*
X192950119Y-34377380D01*
X193188214Y-34377380D01*
X193283452Y-34329761D01*
X193331071Y-34234523D01*
X193331071Y-34139285D01*
X193283452Y-34044047D01*
X193188214Y-33996428D01*
X192950119Y-33996428D01*
X192854880Y-33948809D01*
X192473928Y-33710714D02*
X192235833Y-34377380D01*
X191997738Y-33710714D02*
X192235833Y-34377380D01*
X192331071Y-34615476D01*
X192378690Y-34663095D01*
X192473928Y-34710714D01*
X203664404Y-35360714D02*
X203664404Y-36360714D01*
X203664404Y-35408333D02*
X203569166Y-35360714D01*
X203378690Y-35360714D01*
X203283452Y-35408333D01*
X203235833Y-35455952D01*
X203188214Y-35551190D01*
X203188214Y-35836904D01*
X203235833Y-35932142D01*
X203283452Y-35979761D01*
X203378690Y-36027380D01*
X203569166Y-36027380D01*
X203664404Y-35979761D01*
X202616785Y-36027380D02*
X202712023Y-35979761D01*
X202759642Y-35932142D01*
X202807261Y-35836904D01*
X202807261Y-35551190D01*
X202759642Y-35455952D01*
X202712023Y-35408333D01*
X202616785Y-35360714D01*
X202473928Y-35360714D01*
X202378690Y-35408333D01*
X202331071Y-35455952D01*
X202283452Y-35551190D01*
X202283452Y-35836904D01*
X202331071Y-35932142D01*
X202378690Y-35979761D01*
X202473928Y-36027380D01*
X202616785Y-36027380D01*
X201712023Y-36027380D02*
X201807261Y-35979761D01*
X201854880Y-35884523D01*
X201854880Y-35027380D01*
X200902500Y-36027380D02*
X200902500Y-35503571D01*
X200950119Y-35408333D01*
X201045357Y-35360714D01*
X201235833Y-35360714D01*
X201331071Y-35408333D01*
X200902500Y-35979761D02*
X200997738Y-36027380D01*
X201235833Y-36027380D01*
X201331071Y-35979761D01*
X201378690Y-35884523D01*
X201378690Y-35789285D01*
X201331071Y-35694047D01*
X201235833Y-35646428D01*
X200997738Y-35646428D01*
X200902500Y-35598809D01*
X200426309Y-36027380D02*
X200426309Y-35360714D01*
X200426309Y-35551190D02*
X200378690Y-35455952D01*
X200331071Y-35408333D01*
X200235833Y-35360714D01*
X200140595Y-35360714D01*
X199807261Y-36027380D02*
X199807261Y-35360714D01*
X199807261Y-35027380D02*
X199854880Y-35075000D01*
X199807261Y-35122619D01*
X199759642Y-35075000D01*
X199807261Y-35027380D01*
X199807261Y-35122619D01*
X199473928Y-35360714D02*
X199092976Y-35360714D01*
X199331071Y-35027380D02*
X199331071Y-35884523D01*
X199283452Y-35979761D01*
X199188214Y-36027380D01*
X199092976Y-36027380D01*
X198854880Y-35360714D02*
X198616785Y-36027380D01*
X198378690Y-35360714D02*
X198616785Y-36027380D01*
X198712023Y-36265476D01*
X198759642Y-36313095D01*
X198854880Y-36360714D01*
X131203238Y-34867904D02*
X131203238Y-35439333D01*
X131241333Y-35553619D01*
X131317523Y-35629809D01*
X131431809Y-35667904D01*
X131508000Y-35667904D01*
X130441333Y-35667904D02*
X130822285Y-35667904D01*
X130822285Y-34867904D01*
X129717523Y-35591714D02*
X129755619Y-35629809D01*
X129869904Y-35667904D01*
X129946095Y-35667904D01*
X130060380Y-35629809D01*
X130136571Y-35553619D01*
X130174666Y-35477428D01*
X130212761Y-35325047D01*
X130212761Y-35210761D01*
X130174666Y-35058380D01*
X130136571Y-34982190D01*
X130060380Y-34906000D01*
X129946095Y-34867904D01*
X129869904Y-34867904D01*
X129755619Y-34906000D01*
X129717523Y-34944095D01*
X129146095Y-34867904D02*
X129146095Y-35439333D01*
X129184190Y-35553619D01*
X129260380Y-35629809D01*
X129374666Y-35667904D01*
X129450857Y-35667904D01*
X128384190Y-35667904D02*
X128765142Y-35667904D01*
X128765142Y-34867904D01*
X127660380Y-35591714D02*
X127698476Y-35629809D01*
X127812761Y-35667904D01*
X127888952Y-35667904D01*
X128003238Y-35629809D01*
X128079428Y-35553619D01*
X128117523Y-35477428D01*
X128155619Y-35325047D01*
X128155619Y-35210761D01*
X128117523Y-35058380D01*
X128079428Y-34982190D01*
X128003238Y-34906000D01*
X127888952Y-34867904D01*
X127812761Y-34867904D01*
X127698476Y-34906000D01*
X127660380Y-34944095D01*
X127088952Y-34867904D02*
X127088952Y-35439333D01*
X127127047Y-35553619D01*
X127203238Y-35629809D01*
X127317523Y-35667904D01*
X127393714Y-35667904D01*
X126327047Y-35667904D02*
X126708000Y-35667904D01*
X126708000Y-34867904D01*
X125603238Y-35591714D02*
X125641333Y-35629809D01*
X125755619Y-35667904D01*
X125831809Y-35667904D01*
X125946095Y-35629809D01*
X126022285Y-35553619D01*
X126060380Y-35477428D01*
X126098476Y-35325047D01*
X126098476Y-35210761D01*
X126060380Y-35058380D01*
X126022285Y-34982190D01*
X125946095Y-34906000D01*
X125831809Y-34867904D01*
X125755619Y-34867904D01*
X125641333Y-34906000D01*
X125603238Y-34944095D01*
X125031809Y-34867904D02*
X125031809Y-35439333D01*
X125069904Y-35553619D01*
X125146095Y-35629809D01*
X125260380Y-35667904D01*
X125336571Y-35667904D01*
X124269904Y-35667904D02*
X124650857Y-35667904D01*
X124650857Y-34867904D01*
X123546095Y-35591714D02*
X123584190Y-35629809D01*
X123698476Y-35667904D01*
X123774666Y-35667904D01*
X123888952Y-35629809D01*
X123965142Y-35553619D01*
X124003238Y-35477428D01*
X124041333Y-35325047D01*
X124041333Y-35210761D01*
X124003238Y-35058380D01*
X123965142Y-34982190D01*
X123888952Y-34906000D01*
X123774666Y-34867904D01*
X123698476Y-34867904D01*
X123584190Y-34906000D01*
X123546095Y-34944095D01*
D12*
G36*
X89034400Y-93066400D02*
G01*
X78595000Y-74803800D01*
X81008000Y-73610000D01*
X83548000Y-72771800D01*
X89034400Y-93066400D01*
G37*
X89034400Y-93066400D02*
X78595000Y-74803800D01*
X81008000Y-73610000D01*
X83548000Y-72771800D01*
X89034400Y-93066400D01*
G36*
X89009000Y-93041000D02*
G01*
X70848000Y-82500000D01*
X72321200Y-80214000D01*
X74150000Y-78182000D01*
X89009000Y-93041000D01*
G37*
X89009000Y-93041000D02*
X70848000Y-82500000D01*
X72321200Y-80214000D01*
X74150000Y-78182000D01*
X89009000Y-93041000D01*
G36*
X89034400Y-93015600D02*
G01*
X67976021Y-93041000D01*
X68104800Y-90335901D01*
X68663600Y-87630800D01*
X89034400Y-93015600D01*
G37*
X89034400Y-93015600D02*
X67976021Y-93041000D01*
X68104800Y-90335901D01*
X68663600Y-87630800D01*
X89034400Y-93015600D01*
G36*
X70721000Y-103455000D02*
G01*
X69527200Y-101042000D01*
X68689000Y-98502000D01*
X88983600Y-93015600D01*
X70721000Y-103455000D01*
G37*
X70721000Y-103455000D02*
X69527200Y-101042000D01*
X68689000Y-98502000D01*
X88983600Y-93015600D01*
X70721000Y-103455000D01*
G36*
X78468000Y-111202000D02*
G01*
X76182000Y-109728800D01*
X74150000Y-107900000D01*
X89009000Y-93041000D01*
X78468000Y-111202000D01*
G37*
X78468000Y-111202000D02*
X76182000Y-109728800D01*
X74150000Y-107900000D01*
X89009000Y-93041000D01*
X78468000Y-111202000D01*
G36*
X99423000Y-111329000D02*
G01*
X97010000Y-112522800D01*
X94470000Y-113361000D01*
X88983600Y-93066400D01*
X99423000Y-111329000D01*
G37*
X99423000Y-111329000D02*
X97010000Y-112522800D01*
X94470000Y-113361000D01*
X88983600Y-93066400D01*
X99423000Y-111329000D01*
G36*
X107170000Y-103582000D02*
G01*
X105696800Y-105868000D01*
X103868000Y-107900000D01*
X89009000Y-93041000D01*
X107170000Y-103582000D01*
G37*
X107170000Y-103582000D02*
X105696800Y-105868000D01*
X103868000Y-107900000D01*
X89009000Y-93041000D01*
X107170000Y-103582000D01*
G36*
X109913200Y-95746099D02*
G01*
X109354400Y-98451200D01*
X88983600Y-93066400D01*
X110041979Y-93041000D01*
X109913200Y-95746099D01*
G37*
X109913200Y-95746099D02*
X109354400Y-98451200D01*
X88983600Y-93066400D01*
X110041979Y-93041000D01*
X109913200Y-95746099D01*
G36*
X108490800Y-85040000D02*
G01*
X109329000Y-87580000D01*
X89034400Y-93066400D01*
X107297000Y-82627000D01*
X108490800Y-85040000D01*
G37*
X108490800Y-85040000D02*
X109329000Y-87580000D01*
X89034400Y-93066400D01*
X107297000Y-82627000D01*
X108490800Y-85040000D01*
G36*
X101836000Y-76353200D02*
G01*
X103868000Y-78182000D01*
X89009000Y-93041000D01*
X99550000Y-74880000D01*
X101836000Y-76353200D01*
G37*
X101836000Y-76353200D02*
X103868000Y-78182000D01*
X89009000Y-93041000D01*
X99550000Y-74880000D01*
X101836000Y-76353200D01*
G36*
X91714099Y-72136800D02*
G01*
X94419200Y-72695600D01*
X89034400Y-93066400D01*
X89009000Y-72008021D01*
X91714099Y-72136800D01*
G37*
X91714099Y-72136800D02*
X94419200Y-72695600D01*
X89034400Y-93066400D01*
X89009000Y-72008021D01*
X91714099Y-72136800D01*
G36*
X89009000Y-114073979D02*
G01*
X86303901Y-113945200D01*
X83598800Y-113386400D01*
X88983600Y-93015600D01*
X89009000Y-114073979D01*
G37*
X89009000Y-114073979D02*
X86303901Y-113945200D01*
X83598800Y-113386400D01*
X88983600Y-93015600D01*
X89009000Y-114073979D01*
D11*
X100924789Y-64209753D02*
X99070421Y-63460540D01*
X100775798Y-65438622D02*
X101843301Y-62800195D01*
X100112915Y-65744580D02*
X100775798Y-65438622D01*
X98125960Y-64941798D02*
X100112915Y-65744580D01*
X99391456Y-61809586D02*
X98125960Y-64941798D01*
X101843301Y-62800195D02*
X99391456Y-61809586D01*
X100406211Y-60190247D02*
X102260579Y-60939460D01*
X100555202Y-58961378D02*
X99487699Y-61599805D01*
X101218085Y-58655420D02*
X100555202Y-58961378D01*
X103205040Y-59458202D02*
X101218085Y-58655420D01*
X101939544Y-62590414D02*
X103205040Y-59458202D01*
X99487699Y-61599805D02*
X101939544Y-62590414D01*
D13*
X209250000Y-30589000D02*
G75*
G03X208550000Y-31289000I0J-700000D01*
G01*
X210550000Y-31289000D02*
G75*
G03X209850000Y-30589000I-700000J0D01*
G01*
X209850000Y-34689000D02*
G75*
G03X210550000Y-33989000I0J700000D01*
G01*
X208550000Y-33989000D02*
G75*
G03X209250000Y-34689000I700000J0D01*
G01*
X208550000Y-31239000D02*
X208550000Y-34039000D01*
X209250000Y-34689000D02*
X209850000Y-34689000D01*
X210550000Y-34039000D02*
X210550000Y-31239000D01*
X209850000Y-30589000D02*
X209250000Y-30589000D01*
X210750000Y-31439000D02*
X211050000Y-31139000D01*
X211050000Y-31139000D02*
X211050000Y-31739000D01*
X210750000Y-31439000D02*
X211050000Y-31739000D01*
X205948000Y-30589000D02*
G75*
G03X205248000Y-31289000I0J-700000D01*
G01*
X207248000Y-31289000D02*
G75*
G03X206548000Y-30589000I-700000J0D01*
G01*
X206548000Y-34689000D02*
G75*
G03X207248000Y-33989000I0J700000D01*
G01*
X205248000Y-33989000D02*
G75*
G03X205948000Y-34689000I700000J0D01*
G01*
X205248000Y-31239000D02*
X205248000Y-34039000D01*
X205948000Y-34689000D02*
X206548000Y-34689000D01*
X207248000Y-34039000D02*
X207248000Y-31239000D01*
X206548000Y-30589000D02*
X205948000Y-30589000D01*
X207448000Y-31439000D02*
X207748000Y-31139000D01*
X207748000Y-31139000D02*
X207748000Y-31739000D01*
X207448000Y-31439000D02*
X207748000Y-31739000D01*
X211727000Y-49230000D02*
G75*
G03X211027000Y-48530000I-700000J0D01*
G01*
X211027000Y-50530000D02*
G75*
G03X211727000Y-49830000I0J700000D01*
G01*
X207627000Y-49830000D02*
G75*
G03X208327000Y-50530000I700000J0D01*
G01*
X208327000Y-48530000D02*
G75*
G03X207627000Y-49230000I0J-700000D01*
G01*
X211077000Y-48530000D02*
X208277000Y-48530000D01*
X207627000Y-49230000D02*
X207627000Y-49830000D01*
X208277000Y-50530000D02*
X211077000Y-50530000D01*
X211727000Y-49830000D02*
X211727000Y-49230000D01*
X210877000Y-50730000D02*
X211177000Y-51030000D01*
X211177000Y-51030000D02*
X210577000Y-51030000D01*
X210877000Y-50730000D02*
X210577000Y-51030000D01*
X211727000Y-52786000D02*
G75*
G03X211027000Y-52086000I-700000J0D01*
G01*
X211027000Y-54086000D02*
G75*
G03X211727000Y-53386000I0J700000D01*
G01*
X207627000Y-53386000D02*
G75*
G03X208327000Y-54086000I700000J0D01*
G01*
X208327000Y-52086000D02*
G75*
G03X207627000Y-52786000I0J-700000D01*
G01*
X211077000Y-52086000D02*
X208277000Y-52086000D01*
X207627000Y-52786000D02*
X207627000Y-53386000D01*
X208277000Y-54086000D02*
X211077000Y-54086000D01*
X211727000Y-53386000D02*
X211727000Y-52786000D01*
X210877000Y-54286000D02*
X211177000Y-54586000D01*
X211177000Y-54586000D02*
X210577000Y-54586000D01*
X210877000Y-54286000D02*
X210577000Y-54586000D01*
X131853417Y-63428458D02*
X130410917Y-60929975D01*
X133429583Y-62518458D02*
X131853417Y-63428458D01*
X131987083Y-60019975D02*
X133429583Y-62518458D01*
X198650000Y-28130000D02*
X198650000Y-25470000D01*
X206330000Y-28130000D02*
X198650000Y-28130000D01*
X206330000Y-25470000D02*
X198650000Y-25470000D01*
X206330000Y-28130000D02*
X206330000Y-25470000D01*
X207600000Y-28130000D02*
X208930000Y-28130000D01*
X208930000Y-28130000D02*
X208930000Y-26800000D01*
X193006000Y-52997000D02*
X197506000Y-52997000D01*
X191756000Y-56997000D02*
X191756000Y-55497000D01*
X197506000Y-59497000D02*
X193006000Y-59497000D01*
X198756000Y-55497000D02*
X198756000Y-56997000D01*
D11*
X104543567Y-65224671D02*
X104240314Y-65975248D01*
X104160486Y-66045713D01*
X104098496Y-66072026D01*
X103992354Y-66080501D01*
X103815748Y-66009147D01*
X103745283Y-65929319D01*
X103718969Y-65867329D01*
X103710495Y-65761187D01*
X104013748Y-65010610D01*
X102711957Y-65563187D02*
X103241777Y-65777248D01*
X102976867Y-65670217D02*
X103351473Y-64743033D01*
X103386261Y-64911165D01*
X103438888Y-65035145D01*
X103509353Y-65114974D01*
X106012567Y-62005671D02*
X105709314Y-62756248D01*
X105629486Y-62826713D01*
X105567496Y-62853026D01*
X105461354Y-62861501D01*
X105284748Y-62790147D01*
X105214283Y-62710319D01*
X105187969Y-62648329D01*
X105179495Y-62542187D01*
X105482748Y-61791610D01*
X105049706Y-61719367D02*
X105023393Y-61657377D01*
X104952928Y-61577549D01*
X104732170Y-61488357D01*
X104626029Y-61496831D01*
X104564039Y-61523145D01*
X104484210Y-61593609D01*
X104448533Y-61681913D01*
X104439170Y-61832206D01*
X104754928Y-62576086D01*
X104180957Y-62344187D01*
X210383333Y-35139380D02*
X210383333Y-35853666D01*
X210430952Y-35996523D01*
X210526190Y-36091761D01*
X210669047Y-36139380D01*
X210764285Y-36139380D01*
X209907142Y-36139380D02*
X209907142Y-35139380D01*
X209526190Y-35139380D01*
X209430952Y-35187000D01*
X209383333Y-35234619D01*
X209335714Y-35329857D01*
X209335714Y-35472714D01*
X209383333Y-35567952D01*
X209430952Y-35615571D01*
X209526190Y-35663190D01*
X209907142Y-35663190D01*
X208478571Y-35139380D02*
X208669047Y-35139380D01*
X208764285Y-35187000D01*
X208811904Y-35234619D01*
X208907142Y-35377476D01*
X208954761Y-35567952D01*
X208954761Y-35948904D01*
X208907142Y-36044142D01*
X208859523Y-36091761D01*
X208764285Y-36139380D01*
X208573809Y-36139380D01*
X208478571Y-36091761D01*
X208430952Y-36044142D01*
X208383333Y-35948904D01*
X208383333Y-35710809D01*
X208430952Y-35615571D01*
X208478571Y-35567952D01*
X208573809Y-35520333D01*
X208764285Y-35520333D01*
X208859523Y-35567952D01*
X208907142Y-35615571D01*
X208954761Y-35710809D01*
X207081333Y-35139380D02*
X207081333Y-35853666D01*
X207128952Y-35996523D01*
X207224190Y-36091761D01*
X207367047Y-36139380D01*
X207462285Y-36139380D01*
X206605142Y-36139380D02*
X206605142Y-35139380D01*
X206224190Y-35139380D01*
X206128952Y-35187000D01*
X206081333Y-35234619D01*
X206033714Y-35329857D01*
X206033714Y-35472714D01*
X206081333Y-35567952D01*
X206128952Y-35615571D01*
X206224190Y-35663190D01*
X206605142Y-35663190D01*
X205128952Y-35139380D02*
X205605142Y-35139380D01*
X205652761Y-35615571D01*
X205605142Y-35567952D01*
X205509904Y-35520333D01*
X205271809Y-35520333D01*
X205176571Y-35567952D01*
X205128952Y-35615571D01*
X205081333Y-35710809D01*
X205081333Y-35948904D01*
X205128952Y-36044142D01*
X205176571Y-36091761D01*
X205271809Y-36139380D01*
X205509904Y-36139380D01*
X205605142Y-36091761D01*
X205652761Y-36044142D01*
X206700333Y-48982380D02*
X206700333Y-49696666D01*
X206747952Y-49839523D01*
X206843190Y-49934761D01*
X206986047Y-49982380D01*
X207081285Y-49982380D01*
X206224142Y-49982380D02*
X206224142Y-48982380D01*
X205843190Y-48982380D01*
X205747952Y-49030000D01*
X205700333Y-49077619D01*
X205652714Y-49172857D01*
X205652714Y-49315714D01*
X205700333Y-49410952D01*
X205747952Y-49458571D01*
X205843190Y-49506190D01*
X206224142Y-49506190D01*
X204795571Y-49315714D02*
X204795571Y-49982380D01*
X205033666Y-48934761D02*
X205271761Y-49649047D01*
X204652714Y-49649047D01*
X206700333Y-52538380D02*
X206700333Y-53252666D01*
X206747952Y-53395523D01*
X206843190Y-53490761D01*
X206986047Y-53538380D01*
X207081285Y-53538380D01*
X206224142Y-53538380D02*
X206224142Y-52538380D01*
X205843190Y-52538380D01*
X205747952Y-52586000D01*
X205700333Y-52633619D01*
X205652714Y-52728857D01*
X205652714Y-52871714D01*
X205700333Y-52966952D01*
X205747952Y-53014571D01*
X205843190Y-53062190D01*
X206224142Y-53062190D01*
X205319380Y-52538380D02*
X204700333Y-52538380D01*
X205033666Y-52919333D01*
X204890809Y-52919333D01*
X204795571Y-52966952D01*
X204747952Y-53014571D01*
X204700333Y-53109809D01*
X204700333Y-53347904D01*
X204747952Y-53443142D01*
X204795571Y-53490761D01*
X204890809Y-53538380D01*
X205176523Y-53538380D01*
X205271761Y-53490761D01*
X205319380Y-53443142D01*
X130028515Y-59352397D02*
X130894540Y-58852397D01*
X130775493Y-58646201D01*
X130662825Y-58546292D01*
X130532727Y-58511433D01*
X130426439Y-58517813D01*
X130237672Y-58571811D01*
X130113954Y-58643240D01*
X129972807Y-58779717D01*
X129914138Y-58868576D01*
X129879278Y-58998673D01*
X129909467Y-59146201D01*
X130028515Y-59352397D01*
X129266610Y-58032739D02*
X129552324Y-58527611D01*
X129409467Y-58280175D02*
X130275493Y-57780175D01*
X130199394Y-57934083D01*
X130164534Y-58064180D01*
X130170914Y-58170468D01*
X129823112Y-56996629D02*
X129775493Y-56914150D01*
X129686634Y-56855481D01*
X129621586Y-56838051D01*
X129515297Y-56844431D01*
X129326531Y-56898430D01*
X129120334Y-57017477D01*
X128979186Y-57153955D01*
X128920517Y-57242813D01*
X128903088Y-57307862D01*
X128909467Y-57414150D01*
X128957086Y-57496629D01*
X129045945Y-57555298D01*
X129110994Y-57572727D01*
X129217282Y-57566348D01*
X129406048Y-57512349D01*
X129612245Y-57393301D01*
X129753393Y-57256824D01*
X129812062Y-57167965D01*
X129829492Y-57102917D01*
X129823112Y-56996629D01*
X210382380Y-26061904D02*
X209382380Y-26061904D01*
X209382380Y-26300000D01*
X209430000Y-26442857D01*
X209525238Y-26538095D01*
X209620476Y-26585714D01*
X209810952Y-26633333D01*
X209953809Y-26633333D01*
X210144285Y-26585714D01*
X210239523Y-26538095D01*
X210334761Y-26442857D01*
X210382380Y-26300000D01*
X210382380Y-26061904D01*
X209382380Y-26966666D02*
X209382380Y-27633333D01*
X210382380Y-27204761D01*
X196589333Y-60901761D02*
X196446476Y-60949380D01*
X196208380Y-60949380D01*
X196113142Y-60901761D01*
X196065523Y-60854142D01*
X196017904Y-60758904D01*
X196017904Y-60663666D01*
X196065523Y-60568428D01*
X196113142Y-60520809D01*
X196208380Y-60473190D01*
X196398857Y-60425571D01*
X196494095Y-60377952D01*
X196541714Y-60330333D01*
X196589333Y-60235095D01*
X196589333Y-60139857D01*
X196541714Y-60044619D01*
X196494095Y-59997000D01*
X196398857Y-59949380D01*
X196160761Y-59949380D01*
X196017904Y-59997000D01*
X195684571Y-59949380D02*
X195446476Y-60949380D01*
X195256000Y-60235095D01*
X195065523Y-60949380D01*
X194827428Y-59949380D01*
X193922666Y-60949380D02*
X194494095Y-60949380D01*
X194208380Y-60949380D02*
X194208380Y-59949380D01*
X194303619Y-60092238D01*
X194398857Y-60187476D01*
X194494095Y-60235095D01*
M02*
