G04 #@! TF.GenerationSoftware,KiCad,Pcbnew,(5.1.5-0-10_14)*
G04 #@! TF.CreationDate,2020-01-18T13:45:36+01:00*
G04 #@! TF.ProjectId,ErnoCCC,45726e6f-4343-4432-9e6b-696361645f70,rev?*
G04 #@! TF.SameCoordinates,Original*
G04 #@! TF.FileFunction,Profile,NP*
%FSLAX46Y46*%
G04 Gerber Fmt 4.6, Leading zero omitted, Abs format (unit mm)*
G04 Created by KiCad (PCBNEW (5.1.5-0-10_14)) date 2020-01-18 13:45:36*
%MOMM*%
%LPD*%
G04 APERTURE LIST*
%ADD10C,0.050000*%
G04 APERTURE END LIST*
D10*
X218100000Y-25200000D02*
G75*
G02X219100000Y-26200000I0J-1000000D01*
G01*
X190800000Y-26200000D02*
G75*
G02X191800000Y-25200000I1000000J0D01*
G01*
X94900000Y-25200000D02*
G75*
G02X95900000Y-26200000I0J-1000000D01*
G01*
X63200000Y-26200000D02*
G75*
G02X64200000Y-25200000I1000000J0D01*
G01*
X64200000Y-67300000D02*
G75*
G02X63200000Y-66300000I0J1000000D01*
G01*
X115300000Y-121100000D02*
G75*
G02X114300000Y-120100000I0J1000000D01*
G01*
X224600000Y-120100000D02*
G75*
G02X223600000Y-121100000I-1000000J0D01*
G01*
X210600000Y-121100000D02*
G75*
G02X209600000Y-120100000I0J1000000D01*
G01*
X155100000Y-34800000D02*
G75*
G02X156100000Y-33800000I1000000J0D01*
G01*
X131400000Y-33800000D02*
G75*
G02X132400000Y-34800000I0J-1000000D01*
G01*
X209300000Y-73300000D02*
X209311000Y-74511000D01*
X206513000Y-72390000D02*
X208411000Y-72411000D01*
X210200000Y-75400000D02*
G75*
G02X209311000Y-74511000I0J889000D01*
G01*
X208411000Y-72411000D02*
G75*
G02X209300000Y-73300000I0J-889000D01*
G01*
X90855800Y-67706400D02*
X90855800Y-71536400D01*
X87376000Y-67706400D02*
X87376000Y-71536400D01*
X91262200Y-71942800D02*
G75*
G02X90855800Y-71536400I0J406400D01*
G01*
X87376000Y-71536400D02*
G75*
G02X86969600Y-71942800I-406400J0D01*
G01*
X90855800Y-67706400D02*
G75*
G02X91262200Y-67300000I406400J0D01*
G01*
X86969600Y-67300000D02*
G75*
G02X87376000Y-67706400I0J-406400D01*
G01*
X110439200Y-94945200D02*
X113893600Y-94945200D01*
X113893600Y-91186000D02*
X110464600Y-91186000D01*
X110464600Y-91186000D02*
G75*
G02X110058200Y-90779600I0J406400D01*
G01*
X110028326Y-95300876D02*
G75*
G02X110436660Y-94945200I403254J-50724D01*
G01*
X113893600Y-94945200D02*
G75*
G02X114300000Y-95351600I0J-406400D01*
G01*
X114300000Y-90779600D02*
G75*
G02X113893600Y-91186000I-406400J0D01*
G01*
X206306400Y-93306400D02*
X209194400Y-93218000D01*
X206298800Y-96875600D02*
X209194400Y-96875600D01*
X206306400Y-93306400D02*
G75*
G02X205900000Y-92900000I0J406400D01*
G01*
X205899361Y-97207105D02*
G75*
G02X206298800Y-96875600I399439J-74895D01*
G01*
X209194400Y-96875600D02*
G75*
G02X209600800Y-97282000I0J-406400D01*
G01*
X209600800Y-92811600D02*
G75*
G02X209194400Y-93218000I-406400J0D01*
G01*
X168808400Y-99646200D02*
X170205400Y-99644200D01*
X168808400Y-103200200D02*
X170205400Y-103200200D01*
X168402000Y-103606600D02*
G75*
G02X168808400Y-103200200I406400J0D01*
G01*
X168808400Y-99646200D02*
G75*
G02X168400000Y-99237800I0J408400D01*
G01*
X170205400Y-103200146D02*
G75*
G02X170611800Y-103600000I0J-406454D01*
G01*
X170611800Y-99237800D02*
G75*
G02X170205400Y-99644200I-406400J0D01*
G01*
X168400000Y-91500000D02*
G75*
G02X169300000Y-90600000I900000J0D01*
G01*
X208697468Y-82495702D02*
G75*
G02X209600000Y-83000000I303893J-515899D01*
G01*
X168401874Y-103606600D02*
X168400000Y-115100000D01*
X205901874Y-115114000D02*
X205900000Y-121100000D01*
X209600000Y-115100000D02*
X209600000Y-120100000D01*
X170611800Y-92913200D02*
X170611800Y-99237800D01*
X180000000Y-103600000D02*
X170611800Y-103600000D01*
X180000000Y-121100000D02*
X180000000Y-103600000D01*
X205899361Y-97207105D02*
X205901874Y-115114000D01*
X205900000Y-92900000D02*
X170611800Y-92913200D01*
X205900000Y-121100000D02*
X180000000Y-121100000D01*
X199900000Y-95300000D02*
X187300000Y-95300000D01*
X187300000Y-95300000D02*
X187300000Y-118600000D01*
X199900000Y-118600000D02*
X187300000Y-118600000D01*
X199900000Y-95300000D02*
X199900000Y-118600000D01*
X209600000Y-97282000D02*
X209600000Y-115100000D01*
X209600800Y-92811600D02*
X209600000Y-83000000D01*
X224600000Y-69400000D02*
X224600000Y-120100000D01*
X210600000Y-121100000D02*
X223600000Y-121100000D01*
X218313000Y-61976000D02*
G75*
G02X219202000Y-62865000I0J-889000D01*
G01*
X205624000Y-62865000D02*
G75*
G02X206513000Y-61976000I889000J0D01*
G01*
X206513000Y-72390000D02*
G75*
G02X205624000Y-71501000I0J889000D01*
G01*
X219200068Y-74511000D02*
G75*
G02X218300000Y-75400000I-889068J0D01*
G01*
X205624000Y-71501000D02*
X205624000Y-62865000D01*
X218300000Y-75400000D02*
X210200000Y-75400000D01*
X219202000Y-62865000D02*
X219200000Y-74511000D01*
X206513000Y-61976000D02*
X218313000Y-61976000D01*
X159766000Y-46736000D02*
X154700950Y-46733153D01*
X159766000Y-42672000D02*
X155100000Y-42672000D01*
X159766000Y-42672000D02*
G75*
G02X159766000Y-46736000I0J-2032000D01*
G01*
X114300000Y-90779600D02*
X114300000Y-82600000D01*
X91261834Y-71946210D02*
G75*
G02X110058200Y-90779600I-2261834J-21053790D01*
G01*
X110029352Y-95300989D02*
G75*
G02X86969600Y-71942800I-21029352J2300989D01*
G01*
X99000000Y-67300000D02*
X91262200Y-67300000D01*
X154700950Y-46733153D02*
G75*
G02X132400000Y-43750000I-10950950J2983153D01*
G01*
X168400000Y-115100000D02*
X162400000Y-121100000D01*
X63200000Y-40900000D02*
X63200000Y-26200000D01*
X65200000Y-40900000D02*
X63200000Y-40900000D01*
X65200000Y-47900000D02*
X65200000Y-40900000D01*
X63200000Y-47900000D02*
X65200000Y-47900000D01*
X63200000Y-66300000D02*
X63200000Y-47900000D01*
X86969600Y-67300000D02*
X64200000Y-67300000D01*
X114300000Y-82600000D02*
X99000000Y-67300000D01*
X114300000Y-120100000D02*
X114300000Y-95351600D01*
X162400000Y-121100000D02*
X115300000Y-121100000D01*
X168400000Y-91500000D02*
X168400000Y-99237800D01*
X203400000Y-90600000D02*
X169300000Y-90600000D01*
X208697468Y-82495702D02*
X203400000Y-90600000D01*
X224600000Y-48500000D02*
X224600000Y-69400000D01*
X222600000Y-48500000D02*
X224600000Y-48500000D01*
X222600000Y-41500000D02*
X222600000Y-48500000D01*
X224600000Y-41500000D02*
X222600000Y-41500000D01*
X224600000Y-38100000D02*
X224600000Y-41500000D01*
X221100000Y-38100000D02*
X224600000Y-38100000D01*
X219100000Y-38100000D02*
X221100000Y-38100000D01*
X219100000Y-26200000D02*
X219100000Y-38100000D01*
X191800000Y-25200000D02*
X218100000Y-25200000D01*
X190800000Y-33800000D02*
X190800000Y-26200000D01*
X156100000Y-33800000D02*
X190800000Y-33800000D01*
X155100000Y-42672000D02*
X155100000Y-34800000D01*
X132400000Y-34800000D02*
X132400000Y-43750000D01*
X95900000Y-33800000D02*
X131400000Y-33800000D01*
X95900000Y-26200000D02*
X95900000Y-33800000D01*
X64200000Y-25200000D02*
X94900000Y-25200000D01*
M02*
