M48
INCH,TZ
T1C0.0079
T2C0.0157
T3C0.0197
T4C0.0276
T5C0.0315
T6C0.0394
T7C0.0433
T8C0.0598
T9C0.1063
T10C0.0197
T11C0.1260
T12C0.1457
%
G90
G05
T1
X61792Y-24555
X61792Y-25106
X62343Y-24555
X62343Y-25106
X62894Y-24555
X62894Y-25106
T2
X37800Y-25200
X37800Y-25600
X40200Y-23000
X40400Y-26600
X41600Y-18300
X41700Y-22300
X43600Y-18000
X43993Y-20380
X44593Y-17291
X45193Y-19780
X45200Y-18400
X45939Y-34200
X46193Y-15000
X46193Y-21580
X46193Y-23380
X46200Y-30400
X46593Y-17780
X46773Y-34327
X46793Y-17291
X46900Y-30400
X47273Y-34827
X48593Y-20780
X48900Y-34700
X49193Y-18915
X49593Y-32580
X49999Y-35180
X50000Y-19200
X50393Y-35180
X50500Y-27200
X50529Y-39433
X50569Y-34498
X50600Y-19000
X50900Y-27400
X51193Y-32580
X51550Y-37450
X51700Y-34100
X51769Y-33677
X51821Y-42885
X51900Y-41800
X52000Y-28300
X52066Y-37164
X52175Y-34521
X52265Y-35892
X52363Y-35508
X52487Y-38660
X52514Y-33932
X52636Y-37151
X52641Y-33555
X52664Y-37900
X52857Y-35840
X53000Y-37000
X53047Y-38444
X53338Y-37206
X53347Y-28595
X53399Y-43211
X53442Y-34949
X53500Y-39600
X53593Y-32580
X53601Y-38813
X53700Y-40200
X53740Y-35206
X53850Y-35650
X53900Y-29000
X53900Y-33900
X53950Y-24700
X53985Y-26394
X54015Y-36568
X54015Y-25088
X54284Y-31400
X54453Y-27733
X54500Y-43000
X54600Y-42600
X54700Y-41550
X54702Y-36398
X54728Y-28015
X54815Y-41000
X54988Y-33934
X55050Y-36100
X55083Y-30100
X55100Y-32800
X55200Y-41950
X55393Y-33380
X55393Y-33380
X55638Y-39935
X55757Y-38484
X55904Y-34092
X55950Y-42350
X56250Y-31900
X56550Y-31450
X56600Y-36013
X56750Y-29200
X56750Y-44300
X56793Y-32780
X57250Y-32350
X57593Y-33915
X59850Y-35100
X60100Y-26500
X60950Y-33550
X61800Y-44900
X62200Y-26700
X62300Y-41850
X65400Y-34950
X66100Y-31600
X66732Y-34269
X67900Y-33200
X68699Y-30105
X69350Y-31500
X69500Y-32200
X75900Y-20400
X75900Y-22100
X78800Y-19900
X80100Y-21400
X81500Y-21500
X81600Y-18600
X81800Y-12700
X82500Y-18500
X82550Y-21450
X83108Y-12789
T3
X34246Y-36630
X34479Y-36067
X34479Y-37194
X35043Y-35833
X35043Y-37428
X35607Y-36067
X35607Y-37194
X35840Y-36630
T4
X71593Y-34080
X67593Y-34080
X62450Y-34600
X62450Y-33450
X62450Y-31150
X62450Y-30000
X62450Y-32300
T5
X57900Y-36600
X57900Y-37600
X57900Y-38600
T6
X57402Y-23110
X62843Y-23080
X63713Y-22201
X64543Y-21380
X69254Y-27241
X70150Y-29406
X70304Y-26191
X70643Y-25380
X71143Y-28880
X72493Y-28880
X76743Y-33080
X85400Y-31750
X85400Y-32750
X85400Y-33750
X85400Y-34750
X85400Y-35750
X85400Y-36750
X85400Y-37750
X50993Y-25380
X50993Y-26380
X51993Y-25380
X51993Y-26380
X52993Y-25380
X52993Y-26380
X69543Y-34080
X57850Y-45800
X58850Y-45800
X59850Y-45800
X60850Y-45800
X27950Y-20010
X27950Y-21010
X27950Y-22010
X27950Y-23010
X27950Y-24010
X27950Y-25010
X63893Y-37780
X63893Y-38780
X63893Y-39780
X78900Y-10551
X79900Y-10551
X80900Y-10551
X81900Y-10551
X85390Y-20600
X85390Y-21600
X85390Y-22600
X85390Y-23600
T7
X46393Y-43400
X47393Y-43400
X48393Y-43400
X49393Y-43400
X50393Y-43400
X51393Y-43400
X52393Y-43400
X75593Y-21259
X75593Y-23030
X78152Y-21259
X78152Y-23030
T8
X78993Y-25480
X78993Y-27480
X84493Y-44700
X86493Y-44700
X77593Y-17280
X77593Y-19280
T9
X35043Y-36630
T10
X45070Y-35938
X45070Y-36275
X45070Y-36625
X45070Y-36975
X45070Y-37330
X81173Y-36916
X81173Y-37266
X81173Y-37616
X81173Y-37971
X34388Y-26390
X34725Y-26390
X35075Y-26390
X35425Y-26390
X35780Y-26390
X82600Y-36718
X82600Y-37055
X82600Y-37405
X82600Y-37755
X82600Y-38110
X34400Y-28410
X34750Y-28390
X35085Y-28380
X35430Y-28390
X35750Y-28410
X43280Y-35950
X43280Y-37300
X43300Y-36300
X43300Y-36980
X43310Y-36635
X66220Y-39250
X66220Y-39605
X66220Y-39955
X66220Y-40305
X66220Y-40642
X67055Y-39391
X67055Y-39746
X67055Y-40096
X67055Y-40446
T11
X40100Y-21400
X84094Y-40669
X52800Y-23700
X72300Y-21200
T12
X68858Y-38307
T0
M30
