G04 #@! TF.GenerationSoftware,KiCad,Pcbnew,(5.1.5-0-10_14)*
G04 #@! TF.CreationDate,2020-02-25T16:39:45+01:00*
G04 #@! TF.ProjectId,ErnoCCC,45726e6f-4343-4432-9e6b-696361645f70,rev?*
G04 #@! TF.SameCoordinates,Original*
G04 #@! TF.FileFunction,Paste,Top*
G04 #@! TF.FilePolarity,Positive*
%FSLAX46Y46*%
G04 Gerber Fmt 4.6, Leading zero omitted, Abs format (unit mm)*
G04 Created by KiCad (PCBNEW (5.1.5-0-10_14)) date 2020-02-25 16:39:45*
%MOMM*%
%LPD*%
G04 APERTURE LIST*
%ADD10C,0.010000*%
%ADD11R,2.500000X2.300000*%
%ADD12C,0.050000*%
%ADD13R,0.650000X1.060000*%
%ADD14R,0.650000X1.220000*%
%ADD15R,1.600000X0.550000*%
%ADD16R,0.550000X1.600000*%
%ADD17R,2.750000X3.050000*%
%ADD18R,1.200000X2.200000*%
%ADD19R,1.000000X1.500000*%
%ADD20R,3.600000X2.700000*%
%ADD21R,0.600000X2.000000*%
%ADD22R,0.800000X0.900000*%
%ADD23R,1.900000X2.400000*%
G04 APERTURE END LIST*
D10*
X234700000Y-71100000D02*
G75*
G03X234700000Y-71100000I-3000000J0D01*
G01*
X55200000Y-121100000D02*
G75*
G03X55200000Y-121100000I-3000000J0D01*
G01*
X55200000Y-25200000D02*
G75*
G03X55200000Y-25200000I-3000000J0D01*
G01*
D11*
X116983400Y-68275200D03*
X112683400Y-68275200D03*
D12*
G36*
X207979504Y-57240204D02*
G01*
X208003773Y-57243804D01*
X208027571Y-57249765D01*
X208050671Y-57258030D01*
X208072849Y-57268520D01*
X208093893Y-57281133D01*
X208113598Y-57295747D01*
X208131777Y-57312223D01*
X208148253Y-57330402D01*
X208162867Y-57350107D01*
X208175480Y-57371151D01*
X208185970Y-57393329D01*
X208194235Y-57416429D01*
X208200196Y-57440227D01*
X208203796Y-57464496D01*
X208205000Y-57489000D01*
X208205000Y-58589000D01*
X208203796Y-58613504D01*
X208200196Y-58637773D01*
X208194235Y-58661571D01*
X208185970Y-58684671D01*
X208175480Y-58706849D01*
X208162867Y-58727893D01*
X208148253Y-58747598D01*
X208131777Y-58765777D01*
X208113598Y-58782253D01*
X208093893Y-58796867D01*
X208072849Y-58809480D01*
X208050671Y-58819970D01*
X208027571Y-58828235D01*
X208003773Y-58834196D01*
X207979504Y-58837796D01*
X207955000Y-58839000D01*
X205855000Y-58839000D01*
X205830496Y-58837796D01*
X205806227Y-58834196D01*
X205782429Y-58828235D01*
X205759329Y-58819970D01*
X205737151Y-58809480D01*
X205716107Y-58796867D01*
X205696402Y-58782253D01*
X205678223Y-58765777D01*
X205661747Y-58747598D01*
X205647133Y-58727893D01*
X205634520Y-58706849D01*
X205624030Y-58684671D01*
X205615765Y-58661571D01*
X205609804Y-58637773D01*
X205606204Y-58613504D01*
X205605000Y-58589000D01*
X205605000Y-57489000D01*
X205606204Y-57464496D01*
X205609804Y-57440227D01*
X205615765Y-57416429D01*
X205624030Y-57393329D01*
X205634520Y-57371151D01*
X205647133Y-57350107D01*
X205661747Y-57330402D01*
X205678223Y-57312223D01*
X205696402Y-57295747D01*
X205716107Y-57281133D01*
X205737151Y-57268520D01*
X205759329Y-57258030D01*
X205782429Y-57249765D01*
X205806227Y-57243804D01*
X205830496Y-57240204D01*
X205855000Y-57239000D01*
X207955000Y-57239000D01*
X207979504Y-57240204D01*
G37*
G36*
X204379504Y-57240204D02*
G01*
X204403773Y-57243804D01*
X204427571Y-57249765D01*
X204450671Y-57258030D01*
X204472849Y-57268520D01*
X204493893Y-57281133D01*
X204513598Y-57295747D01*
X204531777Y-57312223D01*
X204548253Y-57330402D01*
X204562867Y-57350107D01*
X204575480Y-57371151D01*
X204585970Y-57393329D01*
X204594235Y-57416429D01*
X204600196Y-57440227D01*
X204603796Y-57464496D01*
X204605000Y-57489000D01*
X204605000Y-58589000D01*
X204603796Y-58613504D01*
X204600196Y-58637773D01*
X204594235Y-58661571D01*
X204585970Y-58684671D01*
X204575480Y-58706849D01*
X204562867Y-58727893D01*
X204548253Y-58747598D01*
X204531777Y-58765777D01*
X204513598Y-58782253D01*
X204493893Y-58796867D01*
X204472849Y-58809480D01*
X204450671Y-58819970D01*
X204427571Y-58828235D01*
X204403773Y-58834196D01*
X204379504Y-58837796D01*
X204355000Y-58839000D01*
X202255000Y-58839000D01*
X202230496Y-58837796D01*
X202206227Y-58834196D01*
X202182429Y-58828235D01*
X202159329Y-58819970D01*
X202137151Y-58809480D01*
X202116107Y-58796867D01*
X202096402Y-58782253D01*
X202078223Y-58765777D01*
X202061747Y-58747598D01*
X202047133Y-58727893D01*
X202034520Y-58706849D01*
X202024030Y-58684671D01*
X202015765Y-58661571D01*
X202009804Y-58637773D01*
X202006204Y-58613504D01*
X202005000Y-58589000D01*
X202005000Y-57489000D01*
X202006204Y-57464496D01*
X202009804Y-57440227D01*
X202015765Y-57416429D01*
X202024030Y-57393329D01*
X202034520Y-57371151D01*
X202047133Y-57350107D01*
X202061747Y-57330402D01*
X202078223Y-57312223D01*
X202096402Y-57295747D01*
X202116107Y-57281133D01*
X202137151Y-57268520D01*
X202159329Y-57258030D01*
X202182429Y-57249765D01*
X202206227Y-57243804D01*
X202230496Y-57240204D01*
X202255000Y-57239000D01*
X204355000Y-57239000D01*
X204379504Y-57240204D01*
G37*
G36*
X183976504Y-80989204D02*
G01*
X184000773Y-80992804D01*
X184024571Y-80998765D01*
X184047671Y-81007030D01*
X184069849Y-81017520D01*
X184090893Y-81030133D01*
X184110598Y-81044747D01*
X184128777Y-81061223D01*
X184145253Y-81079402D01*
X184159867Y-81099107D01*
X184172480Y-81120151D01*
X184182970Y-81142329D01*
X184191235Y-81165429D01*
X184197196Y-81189227D01*
X184200796Y-81213496D01*
X184202000Y-81238000D01*
X184202000Y-82338000D01*
X184200796Y-82362504D01*
X184197196Y-82386773D01*
X184191235Y-82410571D01*
X184182970Y-82433671D01*
X184172480Y-82455849D01*
X184159867Y-82476893D01*
X184145253Y-82496598D01*
X184128777Y-82514777D01*
X184110598Y-82531253D01*
X184090893Y-82545867D01*
X184069849Y-82558480D01*
X184047671Y-82568970D01*
X184024571Y-82577235D01*
X184000773Y-82583196D01*
X183976504Y-82586796D01*
X183952000Y-82588000D01*
X181852000Y-82588000D01*
X181827496Y-82586796D01*
X181803227Y-82583196D01*
X181779429Y-82577235D01*
X181756329Y-82568970D01*
X181734151Y-82558480D01*
X181713107Y-82545867D01*
X181693402Y-82531253D01*
X181675223Y-82514777D01*
X181658747Y-82496598D01*
X181644133Y-82476893D01*
X181631520Y-82455849D01*
X181621030Y-82433671D01*
X181612765Y-82410571D01*
X181606804Y-82386773D01*
X181603204Y-82362504D01*
X181602000Y-82338000D01*
X181602000Y-81238000D01*
X181603204Y-81213496D01*
X181606804Y-81189227D01*
X181612765Y-81165429D01*
X181621030Y-81142329D01*
X181631520Y-81120151D01*
X181644133Y-81099107D01*
X181658747Y-81079402D01*
X181675223Y-81061223D01*
X181693402Y-81044747D01*
X181713107Y-81030133D01*
X181734151Y-81017520D01*
X181756329Y-81007030D01*
X181779429Y-80998765D01*
X181803227Y-80992804D01*
X181827496Y-80989204D01*
X181852000Y-80988000D01*
X183952000Y-80988000D01*
X183976504Y-80989204D01*
G37*
G36*
X180376504Y-80989204D02*
G01*
X180400773Y-80992804D01*
X180424571Y-80998765D01*
X180447671Y-81007030D01*
X180469849Y-81017520D01*
X180490893Y-81030133D01*
X180510598Y-81044747D01*
X180528777Y-81061223D01*
X180545253Y-81079402D01*
X180559867Y-81099107D01*
X180572480Y-81120151D01*
X180582970Y-81142329D01*
X180591235Y-81165429D01*
X180597196Y-81189227D01*
X180600796Y-81213496D01*
X180602000Y-81238000D01*
X180602000Y-82338000D01*
X180600796Y-82362504D01*
X180597196Y-82386773D01*
X180591235Y-82410571D01*
X180582970Y-82433671D01*
X180572480Y-82455849D01*
X180559867Y-82476893D01*
X180545253Y-82496598D01*
X180528777Y-82514777D01*
X180510598Y-82531253D01*
X180490893Y-82545867D01*
X180469849Y-82558480D01*
X180447671Y-82568970D01*
X180424571Y-82577235D01*
X180400773Y-82583196D01*
X180376504Y-82586796D01*
X180352000Y-82588000D01*
X178252000Y-82588000D01*
X178227496Y-82586796D01*
X178203227Y-82583196D01*
X178179429Y-82577235D01*
X178156329Y-82568970D01*
X178134151Y-82558480D01*
X178113107Y-82545867D01*
X178093402Y-82531253D01*
X178075223Y-82514777D01*
X178058747Y-82496598D01*
X178044133Y-82476893D01*
X178031520Y-82455849D01*
X178021030Y-82433671D01*
X178012765Y-82410571D01*
X178006804Y-82386773D01*
X178003204Y-82362504D01*
X178002000Y-82338000D01*
X178002000Y-81238000D01*
X178003204Y-81213496D01*
X178006804Y-81189227D01*
X178012765Y-81165429D01*
X178021030Y-81142329D01*
X178031520Y-81120151D01*
X178044133Y-81099107D01*
X178058747Y-81079402D01*
X178075223Y-81061223D01*
X178093402Y-81044747D01*
X178113107Y-81030133D01*
X178134151Y-81017520D01*
X178156329Y-81007030D01*
X178179429Y-80998765D01*
X178203227Y-80992804D01*
X178227496Y-80989204D01*
X178252000Y-80988000D01*
X180352000Y-80988000D01*
X180376504Y-80989204D01*
G37*
G36*
X127440504Y-98319204D02*
G01*
X127464773Y-98322804D01*
X127488571Y-98328765D01*
X127511671Y-98337030D01*
X127533849Y-98347520D01*
X127554893Y-98360133D01*
X127574598Y-98374747D01*
X127592777Y-98391223D01*
X127609253Y-98409402D01*
X127623867Y-98429107D01*
X127636480Y-98450151D01*
X127646970Y-98472329D01*
X127655235Y-98495429D01*
X127661196Y-98519227D01*
X127664796Y-98543496D01*
X127666000Y-98568000D01*
X127666000Y-100568000D01*
X127664796Y-100592504D01*
X127661196Y-100616773D01*
X127655235Y-100640571D01*
X127646970Y-100663671D01*
X127636480Y-100685849D01*
X127623867Y-100706893D01*
X127609253Y-100726598D01*
X127592777Y-100744777D01*
X127574598Y-100761253D01*
X127554893Y-100775867D01*
X127533849Y-100788480D01*
X127511671Y-100798970D01*
X127488571Y-100807235D01*
X127464773Y-100813196D01*
X127440504Y-100816796D01*
X127416000Y-100818000D01*
X123916000Y-100818000D01*
X123891496Y-100816796D01*
X123867227Y-100813196D01*
X123843429Y-100807235D01*
X123820329Y-100798970D01*
X123798151Y-100788480D01*
X123777107Y-100775867D01*
X123757402Y-100761253D01*
X123739223Y-100744777D01*
X123722747Y-100726598D01*
X123708133Y-100706893D01*
X123695520Y-100685849D01*
X123685030Y-100663671D01*
X123676765Y-100640571D01*
X123670804Y-100616773D01*
X123667204Y-100592504D01*
X123666000Y-100568000D01*
X123666000Y-98568000D01*
X123667204Y-98543496D01*
X123670804Y-98519227D01*
X123676765Y-98495429D01*
X123685030Y-98472329D01*
X123695520Y-98450151D01*
X123708133Y-98429107D01*
X123722747Y-98409402D01*
X123739223Y-98391223D01*
X123757402Y-98374747D01*
X123777107Y-98360133D01*
X123798151Y-98347520D01*
X123820329Y-98337030D01*
X123843429Y-98328765D01*
X123867227Y-98322804D01*
X123891496Y-98319204D01*
X123916000Y-98318000D01*
X127416000Y-98318000D01*
X127440504Y-98319204D01*
G37*
G36*
X119440504Y-98319204D02*
G01*
X119464773Y-98322804D01*
X119488571Y-98328765D01*
X119511671Y-98337030D01*
X119533849Y-98347520D01*
X119554893Y-98360133D01*
X119574598Y-98374747D01*
X119592777Y-98391223D01*
X119609253Y-98409402D01*
X119623867Y-98429107D01*
X119636480Y-98450151D01*
X119646970Y-98472329D01*
X119655235Y-98495429D01*
X119661196Y-98519227D01*
X119664796Y-98543496D01*
X119666000Y-98568000D01*
X119666000Y-100568000D01*
X119664796Y-100592504D01*
X119661196Y-100616773D01*
X119655235Y-100640571D01*
X119646970Y-100663671D01*
X119636480Y-100685849D01*
X119623867Y-100706893D01*
X119609253Y-100726598D01*
X119592777Y-100744777D01*
X119574598Y-100761253D01*
X119554893Y-100775867D01*
X119533849Y-100788480D01*
X119511671Y-100798970D01*
X119488571Y-100807235D01*
X119464773Y-100813196D01*
X119440504Y-100816796D01*
X119416000Y-100818000D01*
X115916000Y-100818000D01*
X115891496Y-100816796D01*
X115867227Y-100813196D01*
X115843429Y-100807235D01*
X115820329Y-100798970D01*
X115798151Y-100788480D01*
X115777107Y-100775867D01*
X115757402Y-100761253D01*
X115739223Y-100744777D01*
X115722747Y-100726598D01*
X115708133Y-100706893D01*
X115695520Y-100685849D01*
X115685030Y-100663671D01*
X115676765Y-100640571D01*
X115670804Y-100616773D01*
X115667204Y-100592504D01*
X115666000Y-100568000D01*
X115666000Y-98568000D01*
X115667204Y-98543496D01*
X115670804Y-98519227D01*
X115676765Y-98495429D01*
X115685030Y-98472329D01*
X115695520Y-98450151D01*
X115708133Y-98429107D01*
X115722747Y-98409402D01*
X115739223Y-98391223D01*
X115757402Y-98374747D01*
X115777107Y-98360133D01*
X115798151Y-98347520D01*
X115820329Y-98337030D01*
X115843429Y-98328765D01*
X115867227Y-98322804D01*
X115891496Y-98319204D01*
X115916000Y-98318000D01*
X119416000Y-98318000D01*
X119440504Y-98319204D01*
G37*
G36*
X148525142Y-104203174D02*
G01*
X148548803Y-104206684D01*
X148572007Y-104212496D01*
X148594529Y-104220554D01*
X148616153Y-104230782D01*
X148636670Y-104243079D01*
X148655883Y-104257329D01*
X148673607Y-104273393D01*
X148689671Y-104291117D01*
X148703921Y-104310330D01*
X148716218Y-104330847D01*
X148726446Y-104352471D01*
X148734504Y-104374993D01*
X148740316Y-104398197D01*
X148743826Y-104421858D01*
X148745000Y-104445750D01*
X148745000Y-105358250D01*
X148743826Y-105382142D01*
X148740316Y-105405803D01*
X148734504Y-105429007D01*
X148726446Y-105451529D01*
X148716218Y-105473153D01*
X148703921Y-105493670D01*
X148689671Y-105512883D01*
X148673607Y-105530607D01*
X148655883Y-105546671D01*
X148636670Y-105560921D01*
X148616153Y-105573218D01*
X148594529Y-105583446D01*
X148572007Y-105591504D01*
X148548803Y-105597316D01*
X148525142Y-105600826D01*
X148501250Y-105602000D01*
X148013750Y-105602000D01*
X147989858Y-105600826D01*
X147966197Y-105597316D01*
X147942993Y-105591504D01*
X147920471Y-105583446D01*
X147898847Y-105573218D01*
X147878330Y-105560921D01*
X147859117Y-105546671D01*
X147841393Y-105530607D01*
X147825329Y-105512883D01*
X147811079Y-105493670D01*
X147798782Y-105473153D01*
X147788554Y-105451529D01*
X147780496Y-105429007D01*
X147774684Y-105405803D01*
X147771174Y-105382142D01*
X147770000Y-105358250D01*
X147770000Y-104445750D01*
X147771174Y-104421858D01*
X147774684Y-104398197D01*
X147780496Y-104374993D01*
X147788554Y-104352471D01*
X147798782Y-104330847D01*
X147811079Y-104310330D01*
X147825329Y-104291117D01*
X147841393Y-104273393D01*
X147859117Y-104257329D01*
X147878330Y-104243079D01*
X147898847Y-104230782D01*
X147920471Y-104220554D01*
X147942993Y-104212496D01*
X147966197Y-104206684D01*
X147989858Y-104203174D01*
X148013750Y-104202000D01*
X148501250Y-104202000D01*
X148525142Y-104203174D01*
G37*
G36*
X146650142Y-104203174D02*
G01*
X146673803Y-104206684D01*
X146697007Y-104212496D01*
X146719529Y-104220554D01*
X146741153Y-104230782D01*
X146761670Y-104243079D01*
X146780883Y-104257329D01*
X146798607Y-104273393D01*
X146814671Y-104291117D01*
X146828921Y-104310330D01*
X146841218Y-104330847D01*
X146851446Y-104352471D01*
X146859504Y-104374993D01*
X146865316Y-104398197D01*
X146868826Y-104421858D01*
X146870000Y-104445750D01*
X146870000Y-105358250D01*
X146868826Y-105382142D01*
X146865316Y-105405803D01*
X146859504Y-105429007D01*
X146851446Y-105451529D01*
X146841218Y-105473153D01*
X146828921Y-105493670D01*
X146814671Y-105512883D01*
X146798607Y-105530607D01*
X146780883Y-105546671D01*
X146761670Y-105560921D01*
X146741153Y-105573218D01*
X146719529Y-105583446D01*
X146697007Y-105591504D01*
X146673803Y-105597316D01*
X146650142Y-105600826D01*
X146626250Y-105602000D01*
X146138750Y-105602000D01*
X146114858Y-105600826D01*
X146091197Y-105597316D01*
X146067993Y-105591504D01*
X146045471Y-105583446D01*
X146023847Y-105573218D01*
X146003330Y-105560921D01*
X145984117Y-105546671D01*
X145966393Y-105530607D01*
X145950329Y-105512883D01*
X145936079Y-105493670D01*
X145923782Y-105473153D01*
X145913554Y-105451529D01*
X145905496Y-105429007D01*
X145899684Y-105405803D01*
X145896174Y-105382142D01*
X145895000Y-105358250D01*
X145895000Y-104445750D01*
X145896174Y-104421858D01*
X145899684Y-104398197D01*
X145905496Y-104374993D01*
X145913554Y-104352471D01*
X145923782Y-104330847D01*
X145936079Y-104310330D01*
X145950329Y-104291117D01*
X145966393Y-104273393D01*
X145984117Y-104257329D01*
X146003330Y-104243079D01*
X146023847Y-104230782D01*
X146045471Y-104220554D01*
X146067993Y-104212496D01*
X146091197Y-104206684D01*
X146114858Y-104203174D01*
X146138750Y-104202000D01*
X146626250Y-104202000D01*
X146650142Y-104203174D01*
G37*
G36*
X131156142Y-104203174D02*
G01*
X131179803Y-104206684D01*
X131203007Y-104212496D01*
X131225529Y-104220554D01*
X131247153Y-104230782D01*
X131267670Y-104243079D01*
X131286883Y-104257329D01*
X131304607Y-104273393D01*
X131320671Y-104291117D01*
X131334921Y-104310330D01*
X131347218Y-104330847D01*
X131357446Y-104352471D01*
X131365504Y-104374993D01*
X131371316Y-104398197D01*
X131374826Y-104421858D01*
X131376000Y-104445750D01*
X131376000Y-105358250D01*
X131374826Y-105382142D01*
X131371316Y-105405803D01*
X131365504Y-105429007D01*
X131357446Y-105451529D01*
X131347218Y-105473153D01*
X131334921Y-105493670D01*
X131320671Y-105512883D01*
X131304607Y-105530607D01*
X131286883Y-105546671D01*
X131267670Y-105560921D01*
X131247153Y-105573218D01*
X131225529Y-105583446D01*
X131203007Y-105591504D01*
X131179803Y-105597316D01*
X131156142Y-105600826D01*
X131132250Y-105602000D01*
X130644750Y-105602000D01*
X130620858Y-105600826D01*
X130597197Y-105597316D01*
X130573993Y-105591504D01*
X130551471Y-105583446D01*
X130529847Y-105573218D01*
X130509330Y-105560921D01*
X130490117Y-105546671D01*
X130472393Y-105530607D01*
X130456329Y-105512883D01*
X130442079Y-105493670D01*
X130429782Y-105473153D01*
X130419554Y-105451529D01*
X130411496Y-105429007D01*
X130405684Y-105405803D01*
X130402174Y-105382142D01*
X130401000Y-105358250D01*
X130401000Y-104445750D01*
X130402174Y-104421858D01*
X130405684Y-104398197D01*
X130411496Y-104374993D01*
X130419554Y-104352471D01*
X130429782Y-104330847D01*
X130442079Y-104310330D01*
X130456329Y-104291117D01*
X130472393Y-104273393D01*
X130490117Y-104257329D01*
X130509330Y-104243079D01*
X130529847Y-104230782D01*
X130551471Y-104220554D01*
X130573993Y-104212496D01*
X130597197Y-104206684D01*
X130620858Y-104203174D01*
X130644750Y-104202000D01*
X131132250Y-104202000D01*
X131156142Y-104203174D01*
G37*
G36*
X133031142Y-104203174D02*
G01*
X133054803Y-104206684D01*
X133078007Y-104212496D01*
X133100529Y-104220554D01*
X133122153Y-104230782D01*
X133142670Y-104243079D01*
X133161883Y-104257329D01*
X133179607Y-104273393D01*
X133195671Y-104291117D01*
X133209921Y-104310330D01*
X133222218Y-104330847D01*
X133232446Y-104352471D01*
X133240504Y-104374993D01*
X133246316Y-104398197D01*
X133249826Y-104421858D01*
X133251000Y-104445750D01*
X133251000Y-105358250D01*
X133249826Y-105382142D01*
X133246316Y-105405803D01*
X133240504Y-105429007D01*
X133232446Y-105451529D01*
X133222218Y-105473153D01*
X133209921Y-105493670D01*
X133195671Y-105512883D01*
X133179607Y-105530607D01*
X133161883Y-105546671D01*
X133142670Y-105560921D01*
X133122153Y-105573218D01*
X133100529Y-105583446D01*
X133078007Y-105591504D01*
X133054803Y-105597316D01*
X133031142Y-105600826D01*
X133007250Y-105602000D01*
X132519750Y-105602000D01*
X132495858Y-105600826D01*
X132472197Y-105597316D01*
X132448993Y-105591504D01*
X132426471Y-105583446D01*
X132404847Y-105573218D01*
X132384330Y-105560921D01*
X132365117Y-105546671D01*
X132347393Y-105530607D01*
X132331329Y-105512883D01*
X132317079Y-105493670D01*
X132304782Y-105473153D01*
X132294554Y-105451529D01*
X132286496Y-105429007D01*
X132280684Y-105405803D01*
X132277174Y-105382142D01*
X132276000Y-105358250D01*
X132276000Y-104445750D01*
X132277174Y-104421858D01*
X132280684Y-104398197D01*
X132286496Y-104374993D01*
X132294554Y-104352471D01*
X132304782Y-104330847D01*
X132317079Y-104310330D01*
X132331329Y-104291117D01*
X132347393Y-104273393D01*
X132365117Y-104257329D01*
X132384330Y-104243079D01*
X132404847Y-104230782D01*
X132426471Y-104220554D01*
X132448993Y-104212496D01*
X132472197Y-104206684D01*
X132495858Y-104203174D01*
X132519750Y-104202000D01*
X133007250Y-104202000D01*
X133031142Y-104203174D01*
G37*
G36*
X142937142Y-95567174D02*
G01*
X142960803Y-95570684D01*
X142984007Y-95576496D01*
X143006529Y-95584554D01*
X143028153Y-95594782D01*
X143048670Y-95607079D01*
X143067883Y-95621329D01*
X143085607Y-95637393D01*
X143101671Y-95655117D01*
X143115921Y-95674330D01*
X143128218Y-95694847D01*
X143138446Y-95716471D01*
X143146504Y-95738993D01*
X143152316Y-95762197D01*
X143155826Y-95785858D01*
X143157000Y-95809750D01*
X143157000Y-96722250D01*
X143155826Y-96746142D01*
X143152316Y-96769803D01*
X143146504Y-96793007D01*
X143138446Y-96815529D01*
X143128218Y-96837153D01*
X143115921Y-96857670D01*
X143101671Y-96876883D01*
X143085607Y-96894607D01*
X143067883Y-96910671D01*
X143048670Y-96924921D01*
X143028153Y-96937218D01*
X143006529Y-96947446D01*
X142984007Y-96955504D01*
X142960803Y-96961316D01*
X142937142Y-96964826D01*
X142913250Y-96966000D01*
X142425750Y-96966000D01*
X142401858Y-96964826D01*
X142378197Y-96961316D01*
X142354993Y-96955504D01*
X142332471Y-96947446D01*
X142310847Y-96937218D01*
X142290330Y-96924921D01*
X142271117Y-96910671D01*
X142253393Y-96894607D01*
X142237329Y-96876883D01*
X142223079Y-96857670D01*
X142210782Y-96837153D01*
X142200554Y-96815529D01*
X142192496Y-96793007D01*
X142186684Y-96769803D01*
X142183174Y-96746142D01*
X142182000Y-96722250D01*
X142182000Y-95809750D01*
X142183174Y-95785858D01*
X142186684Y-95762197D01*
X142192496Y-95738993D01*
X142200554Y-95716471D01*
X142210782Y-95694847D01*
X142223079Y-95674330D01*
X142237329Y-95655117D01*
X142253393Y-95637393D01*
X142271117Y-95621329D01*
X142290330Y-95607079D01*
X142310847Y-95594782D01*
X142332471Y-95584554D01*
X142354993Y-95576496D01*
X142378197Y-95570684D01*
X142401858Y-95567174D01*
X142425750Y-95566000D01*
X142913250Y-95566000D01*
X142937142Y-95567174D01*
G37*
G36*
X141062142Y-95567174D02*
G01*
X141085803Y-95570684D01*
X141109007Y-95576496D01*
X141131529Y-95584554D01*
X141153153Y-95594782D01*
X141173670Y-95607079D01*
X141192883Y-95621329D01*
X141210607Y-95637393D01*
X141226671Y-95655117D01*
X141240921Y-95674330D01*
X141253218Y-95694847D01*
X141263446Y-95716471D01*
X141271504Y-95738993D01*
X141277316Y-95762197D01*
X141280826Y-95785858D01*
X141282000Y-95809750D01*
X141282000Y-96722250D01*
X141280826Y-96746142D01*
X141277316Y-96769803D01*
X141271504Y-96793007D01*
X141263446Y-96815529D01*
X141253218Y-96837153D01*
X141240921Y-96857670D01*
X141226671Y-96876883D01*
X141210607Y-96894607D01*
X141192883Y-96910671D01*
X141173670Y-96924921D01*
X141153153Y-96937218D01*
X141131529Y-96947446D01*
X141109007Y-96955504D01*
X141085803Y-96961316D01*
X141062142Y-96964826D01*
X141038250Y-96966000D01*
X140550750Y-96966000D01*
X140526858Y-96964826D01*
X140503197Y-96961316D01*
X140479993Y-96955504D01*
X140457471Y-96947446D01*
X140435847Y-96937218D01*
X140415330Y-96924921D01*
X140396117Y-96910671D01*
X140378393Y-96894607D01*
X140362329Y-96876883D01*
X140348079Y-96857670D01*
X140335782Y-96837153D01*
X140325554Y-96815529D01*
X140317496Y-96793007D01*
X140311684Y-96769803D01*
X140308174Y-96746142D01*
X140307000Y-96722250D01*
X140307000Y-95809750D01*
X140308174Y-95785858D01*
X140311684Y-95762197D01*
X140317496Y-95738993D01*
X140325554Y-95716471D01*
X140335782Y-95694847D01*
X140348079Y-95674330D01*
X140362329Y-95655117D01*
X140378393Y-95637393D01*
X140396117Y-95621329D01*
X140415330Y-95607079D01*
X140435847Y-95594782D01*
X140457471Y-95584554D01*
X140479993Y-95576496D01*
X140503197Y-95570684D01*
X140526858Y-95567174D01*
X140550750Y-95566000D01*
X141038250Y-95566000D01*
X141062142Y-95567174D01*
G37*
D13*
X133604000Y-99230000D03*
X132654000Y-99230000D03*
X134554000Y-99230000D03*
X134554000Y-101430000D03*
X133604000Y-101430000D03*
X132654000Y-101430000D03*
D14*
X140396000Y-101640000D03*
X138496000Y-101640000D03*
X138496000Y-99020000D03*
X139446000Y-99020000D03*
X140396000Y-99020000D03*
D12*
G36*
X138365142Y-104203174D02*
G01*
X138388803Y-104206684D01*
X138412007Y-104212496D01*
X138434529Y-104220554D01*
X138456153Y-104230782D01*
X138476670Y-104243079D01*
X138495883Y-104257329D01*
X138513607Y-104273393D01*
X138529671Y-104291117D01*
X138543921Y-104310330D01*
X138556218Y-104330847D01*
X138566446Y-104352471D01*
X138574504Y-104374993D01*
X138580316Y-104398197D01*
X138583826Y-104421858D01*
X138585000Y-104445750D01*
X138585000Y-105358250D01*
X138583826Y-105382142D01*
X138580316Y-105405803D01*
X138574504Y-105429007D01*
X138566446Y-105451529D01*
X138556218Y-105473153D01*
X138543921Y-105493670D01*
X138529671Y-105512883D01*
X138513607Y-105530607D01*
X138495883Y-105546671D01*
X138476670Y-105560921D01*
X138456153Y-105573218D01*
X138434529Y-105583446D01*
X138412007Y-105591504D01*
X138388803Y-105597316D01*
X138365142Y-105600826D01*
X138341250Y-105602000D01*
X137853750Y-105602000D01*
X137829858Y-105600826D01*
X137806197Y-105597316D01*
X137782993Y-105591504D01*
X137760471Y-105583446D01*
X137738847Y-105573218D01*
X137718330Y-105560921D01*
X137699117Y-105546671D01*
X137681393Y-105530607D01*
X137665329Y-105512883D01*
X137651079Y-105493670D01*
X137638782Y-105473153D01*
X137628554Y-105451529D01*
X137620496Y-105429007D01*
X137614684Y-105405803D01*
X137611174Y-105382142D01*
X137610000Y-105358250D01*
X137610000Y-104445750D01*
X137611174Y-104421858D01*
X137614684Y-104398197D01*
X137620496Y-104374993D01*
X137628554Y-104352471D01*
X137638782Y-104330847D01*
X137651079Y-104310330D01*
X137665329Y-104291117D01*
X137681393Y-104273393D01*
X137699117Y-104257329D01*
X137718330Y-104243079D01*
X137738847Y-104230782D01*
X137760471Y-104220554D01*
X137782993Y-104212496D01*
X137806197Y-104206684D01*
X137829858Y-104203174D01*
X137853750Y-104202000D01*
X138341250Y-104202000D01*
X138365142Y-104203174D01*
G37*
G36*
X136490142Y-104203174D02*
G01*
X136513803Y-104206684D01*
X136537007Y-104212496D01*
X136559529Y-104220554D01*
X136581153Y-104230782D01*
X136601670Y-104243079D01*
X136620883Y-104257329D01*
X136638607Y-104273393D01*
X136654671Y-104291117D01*
X136668921Y-104310330D01*
X136681218Y-104330847D01*
X136691446Y-104352471D01*
X136699504Y-104374993D01*
X136705316Y-104398197D01*
X136708826Y-104421858D01*
X136710000Y-104445750D01*
X136710000Y-105358250D01*
X136708826Y-105382142D01*
X136705316Y-105405803D01*
X136699504Y-105429007D01*
X136691446Y-105451529D01*
X136681218Y-105473153D01*
X136668921Y-105493670D01*
X136654671Y-105512883D01*
X136638607Y-105530607D01*
X136620883Y-105546671D01*
X136601670Y-105560921D01*
X136581153Y-105573218D01*
X136559529Y-105583446D01*
X136537007Y-105591504D01*
X136513803Y-105597316D01*
X136490142Y-105600826D01*
X136466250Y-105602000D01*
X135978750Y-105602000D01*
X135954858Y-105600826D01*
X135931197Y-105597316D01*
X135907993Y-105591504D01*
X135885471Y-105583446D01*
X135863847Y-105573218D01*
X135843330Y-105560921D01*
X135824117Y-105546671D01*
X135806393Y-105530607D01*
X135790329Y-105512883D01*
X135776079Y-105493670D01*
X135763782Y-105473153D01*
X135753554Y-105451529D01*
X135745496Y-105429007D01*
X135739684Y-105405803D01*
X135736174Y-105382142D01*
X135735000Y-105358250D01*
X135735000Y-104445750D01*
X135736174Y-104421858D01*
X135739684Y-104398197D01*
X135745496Y-104374993D01*
X135753554Y-104352471D01*
X135763782Y-104330847D01*
X135776079Y-104310330D01*
X135790329Y-104291117D01*
X135806393Y-104273393D01*
X135824117Y-104257329D01*
X135843330Y-104243079D01*
X135863847Y-104230782D01*
X135885471Y-104220554D01*
X135907993Y-104212496D01*
X135931197Y-104206684D01*
X135954858Y-104203174D01*
X135978750Y-104202000D01*
X136466250Y-104202000D01*
X136490142Y-104203174D01*
G37*
G36*
X143445142Y-104203174D02*
G01*
X143468803Y-104206684D01*
X143492007Y-104212496D01*
X143514529Y-104220554D01*
X143536153Y-104230782D01*
X143556670Y-104243079D01*
X143575883Y-104257329D01*
X143593607Y-104273393D01*
X143609671Y-104291117D01*
X143623921Y-104310330D01*
X143636218Y-104330847D01*
X143646446Y-104352471D01*
X143654504Y-104374993D01*
X143660316Y-104398197D01*
X143663826Y-104421858D01*
X143665000Y-104445750D01*
X143665000Y-105358250D01*
X143663826Y-105382142D01*
X143660316Y-105405803D01*
X143654504Y-105429007D01*
X143646446Y-105451529D01*
X143636218Y-105473153D01*
X143623921Y-105493670D01*
X143609671Y-105512883D01*
X143593607Y-105530607D01*
X143575883Y-105546671D01*
X143556670Y-105560921D01*
X143536153Y-105573218D01*
X143514529Y-105583446D01*
X143492007Y-105591504D01*
X143468803Y-105597316D01*
X143445142Y-105600826D01*
X143421250Y-105602000D01*
X142933750Y-105602000D01*
X142909858Y-105600826D01*
X142886197Y-105597316D01*
X142862993Y-105591504D01*
X142840471Y-105583446D01*
X142818847Y-105573218D01*
X142798330Y-105560921D01*
X142779117Y-105546671D01*
X142761393Y-105530607D01*
X142745329Y-105512883D01*
X142731079Y-105493670D01*
X142718782Y-105473153D01*
X142708554Y-105451529D01*
X142700496Y-105429007D01*
X142694684Y-105405803D01*
X142691174Y-105382142D01*
X142690000Y-105358250D01*
X142690000Y-104445750D01*
X142691174Y-104421858D01*
X142694684Y-104398197D01*
X142700496Y-104374993D01*
X142708554Y-104352471D01*
X142718782Y-104330847D01*
X142731079Y-104310330D01*
X142745329Y-104291117D01*
X142761393Y-104273393D01*
X142779117Y-104257329D01*
X142798330Y-104243079D01*
X142818847Y-104230782D01*
X142840471Y-104220554D01*
X142862993Y-104212496D01*
X142886197Y-104206684D01*
X142909858Y-104203174D01*
X142933750Y-104202000D01*
X143421250Y-104202000D01*
X143445142Y-104203174D01*
G37*
G36*
X141570142Y-104203174D02*
G01*
X141593803Y-104206684D01*
X141617007Y-104212496D01*
X141639529Y-104220554D01*
X141661153Y-104230782D01*
X141681670Y-104243079D01*
X141700883Y-104257329D01*
X141718607Y-104273393D01*
X141734671Y-104291117D01*
X141748921Y-104310330D01*
X141761218Y-104330847D01*
X141771446Y-104352471D01*
X141779504Y-104374993D01*
X141785316Y-104398197D01*
X141788826Y-104421858D01*
X141790000Y-104445750D01*
X141790000Y-105358250D01*
X141788826Y-105382142D01*
X141785316Y-105405803D01*
X141779504Y-105429007D01*
X141771446Y-105451529D01*
X141761218Y-105473153D01*
X141748921Y-105493670D01*
X141734671Y-105512883D01*
X141718607Y-105530607D01*
X141700883Y-105546671D01*
X141681670Y-105560921D01*
X141661153Y-105573218D01*
X141639529Y-105583446D01*
X141617007Y-105591504D01*
X141593803Y-105597316D01*
X141570142Y-105600826D01*
X141546250Y-105602000D01*
X141058750Y-105602000D01*
X141034858Y-105600826D01*
X141011197Y-105597316D01*
X140987993Y-105591504D01*
X140965471Y-105583446D01*
X140943847Y-105573218D01*
X140923330Y-105560921D01*
X140904117Y-105546671D01*
X140886393Y-105530607D01*
X140870329Y-105512883D01*
X140856079Y-105493670D01*
X140843782Y-105473153D01*
X140833554Y-105451529D01*
X140825496Y-105429007D01*
X140819684Y-105405803D01*
X140816174Y-105382142D01*
X140815000Y-105358250D01*
X140815000Y-104445750D01*
X140816174Y-104421858D01*
X140819684Y-104398197D01*
X140825496Y-104374993D01*
X140833554Y-104352471D01*
X140843782Y-104330847D01*
X140856079Y-104310330D01*
X140870329Y-104291117D01*
X140886393Y-104273393D01*
X140904117Y-104257329D01*
X140923330Y-104243079D01*
X140943847Y-104230782D01*
X140965471Y-104220554D01*
X140987993Y-104212496D01*
X141011197Y-104206684D01*
X141034858Y-104203174D01*
X141058750Y-104202000D01*
X141546250Y-104202000D01*
X141570142Y-104203174D01*
G37*
D15*
X138344000Y-85542000D03*
X138344000Y-86342000D03*
X138344000Y-87142000D03*
X138344000Y-87942000D03*
X138344000Y-88742000D03*
X138344000Y-89542000D03*
X138344000Y-90342000D03*
X138344000Y-91142000D03*
D16*
X136894000Y-92592000D03*
X136094000Y-92592000D03*
X135294000Y-92592000D03*
X134494000Y-92592000D03*
X133694000Y-92592000D03*
X132894000Y-92592000D03*
X132094000Y-92592000D03*
X131294000Y-92592000D03*
D15*
X129844000Y-91142000D03*
X129844000Y-90342000D03*
X129844000Y-89542000D03*
X129844000Y-88742000D03*
X129844000Y-87942000D03*
X129844000Y-87142000D03*
X129844000Y-86342000D03*
X129844000Y-85542000D03*
D16*
X131294000Y-84092000D03*
X132094000Y-84092000D03*
X132894000Y-84092000D03*
X133694000Y-84092000D03*
X134494000Y-84092000D03*
X135294000Y-84092000D03*
X136094000Y-84092000D03*
X136894000Y-84092000D03*
D17*
X188467000Y-83737000D03*
X191517000Y-87087000D03*
X191517000Y-83737000D03*
X188467000Y-87087000D03*
D18*
X187712000Y-79112000D03*
X192272000Y-79112000D03*
D12*
G36*
X195648504Y-66011204D02*
G01*
X195672773Y-66014804D01*
X195696571Y-66020765D01*
X195719671Y-66029030D01*
X195741849Y-66039520D01*
X195762893Y-66052133D01*
X195782598Y-66066747D01*
X195800777Y-66083223D01*
X195817253Y-66101402D01*
X195831867Y-66121107D01*
X195844480Y-66142151D01*
X195854970Y-66164329D01*
X195863235Y-66187429D01*
X195869196Y-66211227D01*
X195872796Y-66235496D01*
X195874000Y-66260000D01*
X195874000Y-68260000D01*
X195872796Y-68284504D01*
X195869196Y-68308773D01*
X195863235Y-68332571D01*
X195854970Y-68355671D01*
X195844480Y-68377849D01*
X195831867Y-68398893D01*
X195817253Y-68418598D01*
X195800777Y-68436777D01*
X195782598Y-68453253D01*
X195762893Y-68467867D01*
X195741849Y-68480480D01*
X195719671Y-68490970D01*
X195696571Y-68499235D01*
X195672773Y-68505196D01*
X195648504Y-68508796D01*
X195624000Y-68510000D01*
X191724000Y-68510000D01*
X191699496Y-68508796D01*
X191675227Y-68505196D01*
X191651429Y-68499235D01*
X191628329Y-68490970D01*
X191606151Y-68480480D01*
X191585107Y-68467867D01*
X191565402Y-68453253D01*
X191547223Y-68436777D01*
X191530747Y-68418598D01*
X191516133Y-68398893D01*
X191503520Y-68377849D01*
X191493030Y-68355671D01*
X191484765Y-68332571D01*
X191478804Y-68308773D01*
X191475204Y-68284504D01*
X191474000Y-68260000D01*
X191474000Y-66260000D01*
X191475204Y-66235496D01*
X191478804Y-66211227D01*
X191484765Y-66187429D01*
X191493030Y-66164329D01*
X191503520Y-66142151D01*
X191516133Y-66121107D01*
X191530747Y-66101402D01*
X191547223Y-66083223D01*
X191565402Y-66066747D01*
X191585107Y-66052133D01*
X191606151Y-66039520D01*
X191628329Y-66029030D01*
X191651429Y-66020765D01*
X191675227Y-66014804D01*
X191699496Y-66011204D01*
X191724000Y-66010000D01*
X195624000Y-66010000D01*
X195648504Y-66011204D01*
G37*
G36*
X188248504Y-66011204D02*
G01*
X188272773Y-66014804D01*
X188296571Y-66020765D01*
X188319671Y-66029030D01*
X188341849Y-66039520D01*
X188362893Y-66052133D01*
X188382598Y-66066747D01*
X188400777Y-66083223D01*
X188417253Y-66101402D01*
X188431867Y-66121107D01*
X188444480Y-66142151D01*
X188454970Y-66164329D01*
X188463235Y-66187429D01*
X188469196Y-66211227D01*
X188472796Y-66235496D01*
X188474000Y-66260000D01*
X188474000Y-68260000D01*
X188472796Y-68284504D01*
X188469196Y-68308773D01*
X188463235Y-68332571D01*
X188454970Y-68355671D01*
X188444480Y-68377849D01*
X188431867Y-68398893D01*
X188417253Y-68418598D01*
X188400777Y-68436777D01*
X188382598Y-68453253D01*
X188362893Y-68467867D01*
X188341849Y-68480480D01*
X188319671Y-68490970D01*
X188296571Y-68499235D01*
X188272773Y-68505196D01*
X188248504Y-68508796D01*
X188224000Y-68510000D01*
X184324000Y-68510000D01*
X184299496Y-68508796D01*
X184275227Y-68505196D01*
X184251429Y-68499235D01*
X184228329Y-68490970D01*
X184206151Y-68480480D01*
X184185107Y-68467867D01*
X184165402Y-68453253D01*
X184147223Y-68436777D01*
X184130747Y-68418598D01*
X184116133Y-68398893D01*
X184103520Y-68377849D01*
X184093030Y-68355671D01*
X184084765Y-68332571D01*
X184078804Y-68308773D01*
X184075204Y-68284504D01*
X184074000Y-68260000D01*
X184074000Y-66260000D01*
X184075204Y-66235496D01*
X184078804Y-66211227D01*
X184084765Y-66187429D01*
X184093030Y-66164329D01*
X184103520Y-66142151D01*
X184116133Y-66121107D01*
X184130747Y-66101402D01*
X184147223Y-66083223D01*
X184165402Y-66066747D01*
X184185107Y-66052133D01*
X184206151Y-66039520D01*
X184228329Y-66029030D01*
X184251429Y-66020765D01*
X184275227Y-66014804D01*
X184299496Y-66011204D01*
X184324000Y-66010000D01*
X188224000Y-66010000D01*
X188248504Y-66011204D01*
G37*
G36*
X207450504Y-77745204D02*
G01*
X207474773Y-77748804D01*
X207498571Y-77754765D01*
X207521671Y-77763030D01*
X207543849Y-77773520D01*
X207564893Y-77786133D01*
X207584598Y-77800747D01*
X207602777Y-77817223D01*
X207619253Y-77835402D01*
X207633867Y-77855107D01*
X207646480Y-77876151D01*
X207656970Y-77898329D01*
X207665235Y-77921429D01*
X207671196Y-77945227D01*
X207674796Y-77969496D01*
X207676000Y-77994000D01*
X207676000Y-79994000D01*
X207674796Y-80018504D01*
X207671196Y-80042773D01*
X207665235Y-80066571D01*
X207656970Y-80089671D01*
X207646480Y-80111849D01*
X207633867Y-80132893D01*
X207619253Y-80152598D01*
X207602777Y-80170777D01*
X207584598Y-80187253D01*
X207564893Y-80201867D01*
X207543849Y-80214480D01*
X207521671Y-80224970D01*
X207498571Y-80233235D01*
X207474773Y-80239196D01*
X207450504Y-80242796D01*
X207426000Y-80244000D01*
X203926000Y-80244000D01*
X203901496Y-80242796D01*
X203877227Y-80239196D01*
X203853429Y-80233235D01*
X203830329Y-80224970D01*
X203808151Y-80214480D01*
X203787107Y-80201867D01*
X203767402Y-80187253D01*
X203749223Y-80170777D01*
X203732747Y-80152598D01*
X203718133Y-80132893D01*
X203705520Y-80111849D01*
X203695030Y-80089671D01*
X203686765Y-80066571D01*
X203680804Y-80042773D01*
X203677204Y-80018504D01*
X203676000Y-79994000D01*
X203676000Y-77994000D01*
X203677204Y-77969496D01*
X203680804Y-77945227D01*
X203686765Y-77921429D01*
X203695030Y-77898329D01*
X203705520Y-77876151D01*
X203718133Y-77855107D01*
X203732747Y-77835402D01*
X203749223Y-77817223D01*
X203767402Y-77800747D01*
X203787107Y-77786133D01*
X203808151Y-77773520D01*
X203830329Y-77763030D01*
X203853429Y-77754765D01*
X203877227Y-77748804D01*
X203901496Y-77745204D01*
X203926000Y-77744000D01*
X207426000Y-77744000D01*
X207450504Y-77745204D01*
G37*
G36*
X199450504Y-77745204D02*
G01*
X199474773Y-77748804D01*
X199498571Y-77754765D01*
X199521671Y-77763030D01*
X199543849Y-77773520D01*
X199564893Y-77786133D01*
X199584598Y-77800747D01*
X199602777Y-77817223D01*
X199619253Y-77835402D01*
X199633867Y-77855107D01*
X199646480Y-77876151D01*
X199656970Y-77898329D01*
X199665235Y-77921429D01*
X199671196Y-77945227D01*
X199674796Y-77969496D01*
X199676000Y-77994000D01*
X199676000Y-79994000D01*
X199674796Y-80018504D01*
X199671196Y-80042773D01*
X199665235Y-80066571D01*
X199656970Y-80089671D01*
X199646480Y-80111849D01*
X199633867Y-80132893D01*
X199619253Y-80152598D01*
X199602777Y-80170777D01*
X199584598Y-80187253D01*
X199564893Y-80201867D01*
X199543849Y-80214480D01*
X199521671Y-80224970D01*
X199498571Y-80233235D01*
X199474773Y-80239196D01*
X199450504Y-80242796D01*
X199426000Y-80244000D01*
X195926000Y-80244000D01*
X195901496Y-80242796D01*
X195877227Y-80239196D01*
X195853429Y-80233235D01*
X195830329Y-80224970D01*
X195808151Y-80214480D01*
X195787107Y-80201867D01*
X195767402Y-80187253D01*
X195749223Y-80170777D01*
X195732747Y-80152598D01*
X195718133Y-80132893D01*
X195705520Y-80111849D01*
X195695030Y-80089671D01*
X195686765Y-80066571D01*
X195680804Y-80042773D01*
X195677204Y-80018504D01*
X195676000Y-79994000D01*
X195676000Y-77994000D01*
X195677204Y-77969496D01*
X195680804Y-77945227D01*
X195686765Y-77921429D01*
X195695030Y-77898329D01*
X195705520Y-77876151D01*
X195718133Y-77855107D01*
X195732747Y-77835402D01*
X195749223Y-77817223D01*
X195767402Y-77800747D01*
X195787107Y-77786133D01*
X195808151Y-77773520D01*
X195830329Y-77763030D01*
X195853429Y-77754765D01*
X195877227Y-77748804D01*
X195901496Y-77745204D01*
X195926000Y-77744000D01*
X199426000Y-77744000D01*
X199450504Y-77745204D01*
G37*
D11*
X169282000Y-52147000D03*
X173582000Y-52147000D03*
D19*
X220218000Y-100566001D03*
X220218000Y-106189999D03*
X222758000Y-100566001D03*
X222758000Y-106189999D03*
D12*
G36*
X156610703Y-59619722D02*
G01*
X156625264Y-59621882D01*
X156639543Y-59625459D01*
X156653403Y-59630418D01*
X156666710Y-59636712D01*
X156679336Y-59644280D01*
X156691159Y-59653048D01*
X156702066Y-59662934D01*
X156711952Y-59673841D01*
X156720720Y-59685664D01*
X156728288Y-59698290D01*
X156734582Y-59711597D01*
X156739541Y-59725457D01*
X156743118Y-59739736D01*
X156745278Y-59754297D01*
X156746000Y-59769000D01*
X156746000Y-61419000D01*
X156745278Y-61433703D01*
X156743118Y-61448264D01*
X156739541Y-61462543D01*
X156734582Y-61476403D01*
X156728288Y-61489710D01*
X156720720Y-61502336D01*
X156711952Y-61514159D01*
X156702066Y-61525066D01*
X156691159Y-61534952D01*
X156679336Y-61543720D01*
X156666710Y-61551288D01*
X156653403Y-61557582D01*
X156639543Y-61562541D01*
X156625264Y-61566118D01*
X156610703Y-61568278D01*
X156596000Y-61569000D01*
X156296000Y-61569000D01*
X156281297Y-61568278D01*
X156266736Y-61566118D01*
X156252457Y-61562541D01*
X156238597Y-61557582D01*
X156225290Y-61551288D01*
X156212664Y-61543720D01*
X156200841Y-61534952D01*
X156189934Y-61525066D01*
X156180048Y-61514159D01*
X156171280Y-61502336D01*
X156163712Y-61489710D01*
X156157418Y-61476403D01*
X156152459Y-61462543D01*
X156148882Y-61448264D01*
X156146722Y-61433703D01*
X156146000Y-61419000D01*
X156146000Y-59769000D01*
X156146722Y-59754297D01*
X156148882Y-59739736D01*
X156152459Y-59725457D01*
X156157418Y-59711597D01*
X156163712Y-59698290D01*
X156171280Y-59685664D01*
X156180048Y-59673841D01*
X156189934Y-59662934D01*
X156200841Y-59653048D01*
X156212664Y-59644280D01*
X156225290Y-59636712D01*
X156238597Y-59630418D01*
X156252457Y-59625459D01*
X156266736Y-59621882D01*
X156281297Y-59619722D01*
X156296000Y-59619000D01*
X156596000Y-59619000D01*
X156610703Y-59619722D01*
G37*
G36*
X157880703Y-59619722D02*
G01*
X157895264Y-59621882D01*
X157909543Y-59625459D01*
X157923403Y-59630418D01*
X157936710Y-59636712D01*
X157949336Y-59644280D01*
X157961159Y-59653048D01*
X157972066Y-59662934D01*
X157981952Y-59673841D01*
X157990720Y-59685664D01*
X157998288Y-59698290D01*
X158004582Y-59711597D01*
X158009541Y-59725457D01*
X158013118Y-59739736D01*
X158015278Y-59754297D01*
X158016000Y-59769000D01*
X158016000Y-61419000D01*
X158015278Y-61433703D01*
X158013118Y-61448264D01*
X158009541Y-61462543D01*
X158004582Y-61476403D01*
X157998288Y-61489710D01*
X157990720Y-61502336D01*
X157981952Y-61514159D01*
X157972066Y-61525066D01*
X157961159Y-61534952D01*
X157949336Y-61543720D01*
X157936710Y-61551288D01*
X157923403Y-61557582D01*
X157909543Y-61562541D01*
X157895264Y-61566118D01*
X157880703Y-61568278D01*
X157866000Y-61569000D01*
X157566000Y-61569000D01*
X157551297Y-61568278D01*
X157536736Y-61566118D01*
X157522457Y-61562541D01*
X157508597Y-61557582D01*
X157495290Y-61551288D01*
X157482664Y-61543720D01*
X157470841Y-61534952D01*
X157459934Y-61525066D01*
X157450048Y-61514159D01*
X157441280Y-61502336D01*
X157433712Y-61489710D01*
X157427418Y-61476403D01*
X157422459Y-61462543D01*
X157418882Y-61448264D01*
X157416722Y-61433703D01*
X157416000Y-61419000D01*
X157416000Y-59769000D01*
X157416722Y-59754297D01*
X157418882Y-59739736D01*
X157422459Y-59725457D01*
X157427418Y-59711597D01*
X157433712Y-59698290D01*
X157441280Y-59685664D01*
X157450048Y-59673841D01*
X157459934Y-59662934D01*
X157470841Y-59653048D01*
X157482664Y-59644280D01*
X157495290Y-59636712D01*
X157508597Y-59630418D01*
X157522457Y-59625459D01*
X157536736Y-59621882D01*
X157551297Y-59619722D01*
X157566000Y-59619000D01*
X157866000Y-59619000D01*
X157880703Y-59619722D01*
G37*
G36*
X159150703Y-59619722D02*
G01*
X159165264Y-59621882D01*
X159179543Y-59625459D01*
X159193403Y-59630418D01*
X159206710Y-59636712D01*
X159219336Y-59644280D01*
X159231159Y-59653048D01*
X159242066Y-59662934D01*
X159251952Y-59673841D01*
X159260720Y-59685664D01*
X159268288Y-59698290D01*
X159274582Y-59711597D01*
X159279541Y-59725457D01*
X159283118Y-59739736D01*
X159285278Y-59754297D01*
X159286000Y-59769000D01*
X159286000Y-61419000D01*
X159285278Y-61433703D01*
X159283118Y-61448264D01*
X159279541Y-61462543D01*
X159274582Y-61476403D01*
X159268288Y-61489710D01*
X159260720Y-61502336D01*
X159251952Y-61514159D01*
X159242066Y-61525066D01*
X159231159Y-61534952D01*
X159219336Y-61543720D01*
X159206710Y-61551288D01*
X159193403Y-61557582D01*
X159179543Y-61562541D01*
X159165264Y-61566118D01*
X159150703Y-61568278D01*
X159136000Y-61569000D01*
X158836000Y-61569000D01*
X158821297Y-61568278D01*
X158806736Y-61566118D01*
X158792457Y-61562541D01*
X158778597Y-61557582D01*
X158765290Y-61551288D01*
X158752664Y-61543720D01*
X158740841Y-61534952D01*
X158729934Y-61525066D01*
X158720048Y-61514159D01*
X158711280Y-61502336D01*
X158703712Y-61489710D01*
X158697418Y-61476403D01*
X158692459Y-61462543D01*
X158688882Y-61448264D01*
X158686722Y-61433703D01*
X158686000Y-61419000D01*
X158686000Y-59769000D01*
X158686722Y-59754297D01*
X158688882Y-59739736D01*
X158692459Y-59725457D01*
X158697418Y-59711597D01*
X158703712Y-59698290D01*
X158711280Y-59685664D01*
X158720048Y-59673841D01*
X158729934Y-59662934D01*
X158740841Y-59653048D01*
X158752664Y-59644280D01*
X158765290Y-59636712D01*
X158778597Y-59630418D01*
X158792457Y-59625459D01*
X158806736Y-59621882D01*
X158821297Y-59619722D01*
X158836000Y-59619000D01*
X159136000Y-59619000D01*
X159150703Y-59619722D01*
G37*
G36*
X160420703Y-59619722D02*
G01*
X160435264Y-59621882D01*
X160449543Y-59625459D01*
X160463403Y-59630418D01*
X160476710Y-59636712D01*
X160489336Y-59644280D01*
X160501159Y-59653048D01*
X160512066Y-59662934D01*
X160521952Y-59673841D01*
X160530720Y-59685664D01*
X160538288Y-59698290D01*
X160544582Y-59711597D01*
X160549541Y-59725457D01*
X160553118Y-59739736D01*
X160555278Y-59754297D01*
X160556000Y-59769000D01*
X160556000Y-61419000D01*
X160555278Y-61433703D01*
X160553118Y-61448264D01*
X160549541Y-61462543D01*
X160544582Y-61476403D01*
X160538288Y-61489710D01*
X160530720Y-61502336D01*
X160521952Y-61514159D01*
X160512066Y-61525066D01*
X160501159Y-61534952D01*
X160489336Y-61543720D01*
X160476710Y-61551288D01*
X160463403Y-61557582D01*
X160449543Y-61562541D01*
X160435264Y-61566118D01*
X160420703Y-61568278D01*
X160406000Y-61569000D01*
X160106000Y-61569000D01*
X160091297Y-61568278D01*
X160076736Y-61566118D01*
X160062457Y-61562541D01*
X160048597Y-61557582D01*
X160035290Y-61551288D01*
X160022664Y-61543720D01*
X160010841Y-61534952D01*
X159999934Y-61525066D01*
X159990048Y-61514159D01*
X159981280Y-61502336D01*
X159973712Y-61489710D01*
X159967418Y-61476403D01*
X159962459Y-61462543D01*
X159958882Y-61448264D01*
X159956722Y-61433703D01*
X159956000Y-61419000D01*
X159956000Y-59769000D01*
X159956722Y-59754297D01*
X159958882Y-59739736D01*
X159962459Y-59725457D01*
X159967418Y-59711597D01*
X159973712Y-59698290D01*
X159981280Y-59685664D01*
X159990048Y-59673841D01*
X159999934Y-59662934D01*
X160010841Y-59653048D01*
X160022664Y-59644280D01*
X160035290Y-59636712D01*
X160048597Y-59630418D01*
X160062457Y-59625459D01*
X160076736Y-59621882D01*
X160091297Y-59619722D01*
X160106000Y-59619000D01*
X160406000Y-59619000D01*
X160420703Y-59619722D01*
G37*
G36*
X160420703Y-64569722D02*
G01*
X160435264Y-64571882D01*
X160449543Y-64575459D01*
X160463403Y-64580418D01*
X160476710Y-64586712D01*
X160489336Y-64594280D01*
X160501159Y-64603048D01*
X160512066Y-64612934D01*
X160521952Y-64623841D01*
X160530720Y-64635664D01*
X160538288Y-64648290D01*
X160544582Y-64661597D01*
X160549541Y-64675457D01*
X160553118Y-64689736D01*
X160555278Y-64704297D01*
X160556000Y-64719000D01*
X160556000Y-66369000D01*
X160555278Y-66383703D01*
X160553118Y-66398264D01*
X160549541Y-66412543D01*
X160544582Y-66426403D01*
X160538288Y-66439710D01*
X160530720Y-66452336D01*
X160521952Y-66464159D01*
X160512066Y-66475066D01*
X160501159Y-66484952D01*
X160489336Y-66493720D01*
X160476710Y-66501288D01*
X160463403Y-66507582D01*
X160449543Y-66512541D01*
X160435264Y-66516118D01*
X160420703Y-66518278D01*
X160406000Y-66519000D01*
X160106000Y-66519000D01*
X160091297Y-66518278D01*
X160076736Y-66516118D01*
X160062457Y-66512541D01*
X160048597Y-66507582D01*
X160035290Y-66501288D01*
X160022664Y-66493720D01*
X160010841Y-66484952D01*
X159999934Y-66475066D01*
X159990048Y-66464159D01*
X159981280Y-66452336D01*
X159973712Y-66439710D01*
X159967418Y-66426403D01*
X159962459Y-66412543D01*
X159958882Y-66398264D01*
X159956722Y-66383703D01*
X159956000Y-66369000D01*
X159956000Y-64719000D01*
X159956722Y-64704297D01*
X159958882Y-64689736D01*
X159962459Y-64675457D01*
X159967418Y-64661597D01*
X159973712Y-64648290D01*
X159981280Y-64635664D01*
X159990048Y-64623841D01*
X159999934Y-64612934D01*
X160010841Y-64603048D01*
X160022664Y-64594280D01*
X160035290Y-64586712D01*
X160048597Y-64580418D01*
X160062457Y-64575459D01*
X160076736Y-64571882D01*
X160091297Y-64569722D01*
X160106000Y-64569000D01*
X160406000Y-64569000D01*
X160420703Y-64569722D01*
G37*
G36*
X159150703Y-64569722D02*
G01*
X159165264Y-64571882D01*
X159179543Y-64575459D01*
X159193403Y-64580418D01*
X159206710Y-64586712D01*
X159219336Y-64594280D01*
X159231159Y-64603048D01*
X159242066Y-64612934D01*
X159251952Y-64623841D01*
X159260720Y-64635664D01*
X159268288Y-64648290D01*
X159274582Y-64661597D01*
X159279541Y-64675457D01*
X159283118Y-64689736D01*
X159285278Y-64704297D01*
X159286000Y-64719000D01*
X159286000Y-66369000D01*
X159285278Y-66383703D01*
X159283118Y-66398264D01*
X159279541Y-66412543D01*
X159274582Y-66426403D01*
X159268288Y-66439710D01*
X159260720Y-66452336D01*
X159251952Y-66464159D01*
X159242066Y-66475066D01*
X159231159Y-66484952D01*
X159219336Y-66493720D01*
X159206710Y-66501288D01*
X159193403Y-66507582D01*
X159179543Y-66512541D01*
X159165264Y-66516118D01*
X159150703Y-66518278D01*
X159136000Y-66519000D01*
X158836000Y-66519000D01*
X158821297Y-66518278D01*
X158806736Y-66516118D01*
X158792457Y-66512541D01*
X158778597Y-66507582D01*
X158765290Y-66501288D01*
X158752664Y-66493720D01*
X158740841Y-66484952D01*
X158729934Y-66475066D01*
X158720048Y-66464159D01*
X158711280Y-66452336D01*
X158703712Y-66439710D01*
X158697418Y-66426403D01*
X158692459Y-66412543D01*
X158688882Y-66398264D01*
X158686722Y-66383703D01*
X158686000Y-66369000D01*
X158686000Y-64719000D01*
X158686722Y-64704297D01*
X158688882Y-64689736D01*
X158692459Y-64675457D01*
X158697418Y-64661597D01*
X158703712Y-64648290D01*
X158711280Y-64635664D01*
X158720048Y-64623841D01*
X158729934Y-64612934D01*
X158740841Y-64603048D01*
X158752664Y-64594280D01*
X158765290Y-64586712D01*
X158778597Y-64580418D01*
X158792457Y-64575459D01*
X158806736Y-64571882D01*
X158821297Y-64569722D01*
X158836000Y-64569000D01*
X159136000Y-64569000D01*
X159150703Y-64569722D01*
G37*
G36*
X157880703Y-64569722D02*
G01*
X157895264Y-64571882D01*
X157909543Y-64575459D01*
X157923403Y-64580418D01*
X157936710Y-64586712D01*
X157949336Y-64594280D01*
X157961159Y-64603048D01*
X157972066Y-64612934D01*
X157981952Y-64623841D01*
X157990720Y-64635664D01*
X157998288Y-64648290D01*
X158004582Y-64661597D01*
X158009541Y-64675457D01*
X158013118Y-64689736D01*
X158015278Y-64704297D01*
X158016000Y-64719000D01*
X158016000Y-66369000D01*
X158015278Y-66383703D01*
X158013118Y-66398264D01*
X158009541Y-66412543D01*
X158004582Y-66426403D01*
X157998288Y-66439710D01*
X157990720Y-66452336D01*
X157981952Y-66464159D01*
X157972066Y-66475066D01*
X157961159Y-66484952D01*
X157949336Y-66493720D01*
X157936710Y-66501288D01*
X157923403Y-66507582D01*
X157909543Y-66512541D01*
X157895264Y-66516118D01*
X157880703Y-66518278D01*
X157866000Y-66519000D01*
X157566000Y-66519000D01*
X157551297Y-66518278D01*
X157536736Y-66516118D01*
X157522457Y-66512541D01*
X157508597Y-66507582D01*
X157495290Y-66501288D01*
X157482664Y-66493720D01*
X157470841Y-66484952D01*
X157459934Y-66475066D01*
X157450048Y-66464159D01*
X157441280Y-66452336D01*
X157433712Y-66439710D01*
X157427418Y-66426403D01*
X157422459Y-66412543D01*
X157418882Y-66398264D01*
X157416722Y-66383703D01*
X157416000Y-66369000D01*
X157416000Y-64719000D01*
X157416722Y-64704297D01*
X157418882Y-64689736D01*
X157422459Y-64675457D01*
X157427418Y-64661597D01*
X157433712Y-64648290D01*
X157441280Y-64635664D01*
X157450048Y-64623841D01*
X157459934Y-64612934D01*
X157470841Y-64603048D01*
X157482664Y-64594280D01*
X157495290Y-64586712D01*
X157508597Y-64580418D01*
X157522457Y-64575459D01*
X157536736Y-64571882D01*
X157551297Y-64569722D01*
X157566000Y-64569000D01*
X157866000Y-64569000D01*
X157880703Y-64569722D01*
G37*
G36*
X156610703Y-64569722D02*
G01*
X156625264Y-64571882D01*
X156639543Y-64575459D01*
X156653403Y-64580418D01*
X156666710Y-64586712D01*
X156679336Y-64594280D01*
X156691159Y-64603048D01*
X156702066Y-64612934D01*
X156711952Y-64623841D01*
X156720720Y-64635664D01*
X156728288Y-64648290D01*
X156734582Y-64661597D01*
X156739541Y-64675457D01*
X156743118Y-64689736D01*
X156745278Y-64704297D01*
X156746000Y-64719000D01*
X156746000Y-66369000D01*
X156745278Y-66383703D01*
X156743118Y-66398264D01*
X156739541Y-66412543D01*
X156734582Y-66426403D01*
X156728288Y-66439710D01*
X156720720Y-66452336D01*
X156711952Y-66464159D01*
X156702066Y-66475066D01*
X156691159Y-66484952D01*
X156679336Y-66493720D01*
X156666710Y-66501288D01*
X156653403Y-66507582D01*
X156639543Y-66512541D01*
X156625264Y-66516118D01*
X156610703Y-66518278D01*
X156596000Y-66519000D01*
X156296000Y-66519000D01*
X156281297Y-66518278D01*
X156266736Y-66516118D01*
X156252457Y-66512541D01*
X156238597Y-66507582D01*
X156225290Y-66501288D01*
X156212664Y-66493720D01*
X156200841Y-66484952D01*
X156189934Y-66475066D01*
X156180048Y-66464159D01*
X156171280Y-66452336D01*
X156163712Y-66439710D01*
X156157418Y-66426403D01*
X156152459Y-66412543D01*
X156148882Y-66398264D01*
X156146722Y-66383703D01*
X156146000Y-66369000D01*
X156146000Y-64719000D01*
X156146722Y-64704297D01*
X156148882Y-64689736D01*
X156152459Y-64675457D01*
X156157418Y-64661597D01*
X156163712Y-64648290D01*
X156171280Y-64635664D01*
X156180048Y-64623841D01*
X156189934Y-64612934D01*
X156200841Y-64603048D01*
X156212664Y-64594280D01*
X156225290Y-64586712D01*
X156238597Y-64580418D01*
X156252457Y-64575459D01*
X156266736Y-64571882D01*
X156281297Y-64569722D01*
X156296000Y-64569000D01*
X156596000Y-64569000D01*
X156610703Y-64569722D01*
G37*
G36*
X159870504Y-61965204D02*
G01*
X159894773Y-61968804D01*
X159918571Y-61974765D01*
X159941671Y-61983030D01*
X159963849Y-61993520D01*
X159984893Y-62006133D01*
X160004598Y-62020747D01*
X160022777Y-62037223D01*
X160039253Y-62055402D01*
X160053867Y-62075107D01*
X160066480Y-62096151D01*
X160076970Y-62118329D01*
X160085235Y-62141429D01*
X160091196Y-62165227D01*
X160094796Y-62189496D01*
X160096000Y-62214000D01*
X160096000Y-62724000D01*
X160094796Y-62748504D01*
X160091196Y-62772773D01*
X160085235Y-62796571D01*
X160076970Y-62819671D01*
X160066480Y-62841849D01*
X160053867Y-62862893D01*
X160039253Y-62882598D01*
X160022777Y-62900777D01*
X160004598Y-62917253D01*
X159984893Y-62931867D01*
X159963849Y-62944480D01*
X159941671Y-62954970D01*
X159918571Y-62963235D01*
X159894773Y-62969196D01*
X159870504Y-62972796D01*
X159846000Y-62974000D01*
X158756000Y-62974000D01*
X158731496Y-62972796D01*
X158707227Y-62969196D01*
X158683429Y-62963235D01*
X158660329Y-62954970D01*
X158638151Y-62944480D01*
X158617107Y-62931867D01*
X158597402Y-62917253D01*
X158579223Y-62900777D01*
X158562747Y-62882598D01*
X158548133Y-62862893D01*
X158535520Y-62841849D01*
X158525030Y-62819671D01*
X158516765Y-62796571D01*
X158510804Y-62772773D01*
X158507204Y-62748504D01*
X158506000Y-62724000D01*
X158506000Y-62214000D01*
X158507204Y-62189496D01*
X158510804Y-62165227D01*
X158516765Y-62141429D01*
X158525030Y-62118329D01*
X158535520Y-62096151D01*
X158548133Y-62075107D01*
X158562747Y-62055402D01*
X158579223Y-62037223D01*
X158597402Y-62020747D01*
X158617107Y-62006133D01*
X158638151Y-61993520D01*
X158660329Y-61983030D01*
X158683429Y-61974765D01*
X158707227Y-61968804D01*
X158731496Y-61965204D01*
X158756000Y-61964000D01*
X159846000Y-61964000D01*
X159870504Y-61965204D01*
G37*
G36*
X157970504Y-61965204D02*
G01*
X157994773Y-61968804D01*
X158018571Y-61974765D01*
X158041671Y-61983030D01*
X158063849Y-61993520D01*
X158084893Y-62006133D01*
X158104598Y-62020747D01*
X158122777Y-62037223D01*
X158139253Y-62055402D01*
X158153867Y-62075107D01*
X158166480Y-62096151D01*
X158176970Y-62118329D01*
X158185235Y-62141429D01*
X158191196Y-62165227D01*
X158194796Y-62189496D01*
X158196000Y-62214000D01*
X158196000Y-62724000D01*
X158194796Y-62748504D01*
X158191196Y-62772773D01*
X158185235Y-62796571D01*
X158176970Y-62819671D01*
X158166480Y-62841849D01*
X158153867Y-62862893D01*
X158139253Y-62882598D01*
X158122777Y-62900777D01*
X158104598Y-62917253D01*
X158084893Y-62931867D01*
X158063849Y-62944480D01*
X158041671Y-62954970D01*
X158018571Y-62963235D01*
X157994773Y-62969196D01*
X157970504Y-62972796D01*
X157946000Y-62974000D01*
X156856000Y-62974000D01*
X156831496Y-62972796D01*
X156807227Y-62969196D01*
X156783429Y-62963235D01*
X156760329Y-62954970D01*
X156738151Y-62944480D01*
X156717107Y-62931867D01*
X156697402Y-62917253D01*
X156679223Y-62900777D01*
X156662747Y-62882598D01*
X156648133Y-62862893D01*
X156635520Y-62841849D01*
X156625030Y-62819671D01*
X156616765Y-62796571D01*
X156610804Y-62772773D01*
X156607204Y-62748504D01*
X156606000Y-62724000D01*
X156606000Y-62214000D01*
X156607204Y-62189496D01*
X156610804Y-62165227D01*
X156616765Y-62141429D01*
X156625030Y-62118329D01*
X156635520Y-62096151D01*
X156648133Y-62075107D01*
X156662747Y-62055402D01*
X156679223Y-62037223D01*
X156697402Y-62020747D01*
X156717107Y-62006133D01*
X156738151Y-61993520D01*
X156760329Y-61983030D01*
X156783429Y-61974765D01*
X156807227Y-61968804D01*
X156831496Y-61965204D01*
X156856000Y-61964000D01*
X157946000Y-61964000D01*
X157970504Y-61965204D01*
G37*
G36*
X159870504Y-63165204D02*
G01*
X159894773Y-63168804D01*
X159918571Y-63174765D01*
X159941671Y-63183030D01*
X159963849Y-63193520D01*
X159984893Y-63206133D01*
X160004598Y-63220747D01*
X160022777Y-63237223D01*
X160039253Y-63255402D01*
X160053867Y-63275107D01*
X160066480Y-63296151D01*
X160076970Y-63318329D01*
X160085235Y-63341429D01*
X160091196Y-63365227D01*
X160094796Y-63389496D01*
X160096000Y-63414000D01*
X160096000Y-63924000D01*
X160094796Y-63948504D01*
X160091196Y-63972773D01*
X160085235Y-63996571D01*
X160076970Y-64019671D01*
X160066480Y-64041849D01*
X160053867Y-64062893D01*
X160039253Y-64082598D01*
X160022777Y-64100777D01*
X160004598Y-64117253D01*
X159984893Y-64131867D01*
X159963849Y-64144480D01*
X159941671Y-64154970D01*
X159918571Y-64163235D01*
X159894773Y-64169196D01*
X159870504Y-64172796D01*
X159846000Y-64174000D01*
X158756000Y-64174000D01*
X158731496Y-64172796D01*
X158707227Y-64169196D01*
X158683429Y-64163235D01*
X158660329Y-64154970D01*
X158638151Y-64144480D01*
X158617107Y-64131867D01*
X158597402Y-64117253D01*
X158579223Y-64100777D01*
X158562747Y-64082598D01*
X158548133Y-64062893D01*
X158535520Y-64041849D01*
X158525030Y-64019671D01*
X158516765Y-63996571D01*
X158510804Y-63972773D01*
X158507204Y-63948504D01*
X158506000Y-63924000D01*
X158506000Y-63414000D01*
X158507204Y-63389496D01*
X158510804Y-63365227D01*
X158516765Y-63341429D01*
X158525030Y-63318329D01*
X158535520Y-63296151D01*
X158548133Y-63275107D01*
X158562747Y-63255402D01*
X158579223Y-63237223D01*
X158597402Y-63220747D01*
X158617107Y-63206133D01*
X158638151Y-63193520D01*
X158660329Y-63183030D01*
X158683429Y-63174765D01*
X158707227Y-63168804D01*
X158731496Y-63165204D01*
X158756000Y-63164000D01*
X159846000Y-63164000D01*
X159870504Y-63165204D01*
G37*
G36*
X157970504Y-63165204D02*
G01*
X157994773Y-63168804D01*
X158018571Y-63174765D01*
X158041671Y-63183030D01*
X158063849Y-63193520D01*
X158084893Y-63206133D01*
X158104598Y-63220747D01*
X158122777Y-63237223D01*
X158139253Y-63255402D01*
X158153867Y-63275107D01*
X158166480Y-63296151D01*
X158176970Y-63318329D01*
X158185235Y-63341429D01*
X158191196Y-63365227D01*
X158194796Y-63389496D01*
X158196000Y-63414000D01*
X158196000Y-63924000D01*
X158194796Y-63948504D01*
X158191196Y-63972773D01*
X158185235Y-63996571D01*
X158176970Y-64019671D01*
X158166480Y-64041849D01*
X158153867Y-64062893D01*
X158139253Y-64082598D01*
X158122777Y-64100777D01*
X158104598Y-64117253D01*
X158084893Y-64131867D01*
X158063849Y-64144480D01*
X158041671Y-64154970D01*
X158018571Y-64163235D01*
X157994773Y-64169196D01*
X157970504Y-64172796D01*
X157946000Y-64174000D01*
X156856000Y-64174000D01*
X156831496Y-64172796D01*
X156807227Y-64169196D01*
X156783429Y-64163235D01*
X156760329Y-64154970D01*
X156738151Y-64144480D01*
X156717107Y-64131867D01*
X156697402Y-64117253D01*
X156679223Y-64100777D01*
X156662747Y-64082598D01*
X156648133Y-64062893D01*
X156635520Y-64041849D01*
X156625030Y-64019671D01*
X156616765Y-63996571D01*
X156610804Y-63972773D01*
X156607204Y-63948504D01*
X156606000Y-63924000D01*
X156606000Y-63414000D01*
X156607204Y-63389496D01*
X156610804Y-63365227D01*
X156616765Y-63341429D01*
X156625030Y-63318329D01*
X156635520Y-63296151D01*
X156648133Y-63275107D01*
X156662747Y-63255402D01*
X156679223Y-63237223D01*
X156697402Y-63220747D01*
X156717107Y-63206133D01*
X156738151Y-63193520D01*
X156760329Y-63183030D01*
X156783429Y-63174765D01*
X156807227Y-63168804D01*
X156831496Y-63165204D01*
X156856000Y-63164000D01*
X157946000Y-63164000D01*
X157970504Y-63165204D01*
G37*
G36*
X175071504Y-59775204D02*
G01*
X175095773Y-59778804D01*
X175119571Y-59784765D01*
X175142671Y-59793030D01*
X175164849Y-59803520D01*
X175185893Y-59816133D01*
X175205598Y-59830747D01*
X175223777Y-59847223D01*
X175240253Y-59865402D01*
X175254867Y-59885107D01*
X175267480Y-59906151D01*
X175277970Y-59928329D01*
X175286235Y-59951429D01*
X175292196Y-59975227D01*
X175295796Y-59999496D01*
X175297000Y-60024000D01*
X175297000Y-60774000D01*
X175295796Y-60798504D01*
X175292196Y-60822773D01*
X175286235Y-60846571D01*
X175277970Y-60869671D01*
X175267480Y-60891849D01*
X175254867Y-60912893D01*
X175240253Y-60932598D01*
X175223777Y-60950777D01*
X175205598Y-60967253D01*
X175185893Y-60981867D01*
X175164849Y-60994480D01*
X175142671Y-61004970D01*
X175119571Y-61013235D01*
X175095773Y-61019196D01*
X175071504Y-61022796D01*
X175047000Y-61024000D01*
X172897000Y-61024000D01*
X172872496Y-61022796D01*
X172848227Y-61019196D01*
X172824429Y-61013235D01*
X172801329Y-61004970D01*
X172779151Y-60994480D01*
X172758107Y-60981867D01*
X172738402Y-60967253D01*
X172720223Y-60950777D01*
X172703747Y-60932598D01*
X172689133Y-60912893D01*
X172676520Y-60891849D01*
X172666030Y-60869671D01*
X172657765Y-60846571D01*
X172651804Y-60822773D01*
X172648204Y-60798504D01*
X172647000Y-60774000D01*
X172647000Y-60024000D01*
X172648204Y-59999496D01*
X172651804Y-59975227D01*
X172657765Y-59951429D01*
X172666030Y-59928329D01*
X172676520Y-59906151D01*
X172689133Y-59885107D01*
X172703747Y-59865402D01*
X172720223Y-59847223D01*
X172738402Y-59830747D01*
X172758107Y-59816133D01*
X172779151Y-59803520D01*
X172801329Y-59793030D01*
X172824429Y-59784765D01*
X172848227Y-59778804D01*
X172872496Y-59775204D01*
X172897000Y-59774000D01*
X175047000Y-59774000D01*
X175071504Y-59775204D01*
G37*
G36*
X175071504Y-62575204D02*
G01*
X175095773Y-62578804D01*
X175119571Y-62584765D01*
X175142671Y-62593030D01*
X175164849Y-62603520D01*
X175185893Y-62616133D01*
X175205598Y-62630747D01*
X175223777Y-62647223D01*
X175240253Y-62665402D01*
X175254867Y-62685107D01*
X175267480Y-62706151D01*
X175277970Y-62728329D01*
X175286235Y-62751429D01*
X175292196Y-62775227D01*
X175295796Y-62799496D01*
X175297000Y-62824000D01*
X175297000Y-63574000D01*
X175295796Y-63598504D01*
X175292196Y-63622773D01*
X175286235Y-63646571D01*
X175277970Y-63669671D01*
X175267480Y-63691849D01*
X175254867Y-63712893D01*
X175240253Y-63732598D01*
X175223777Y-63750777D01*
X175205598Y-63767253D01*
X175185893Y-63781867D01*
X175164849Y-63794480D01*
X175142671Y-63804970D01*
X175119571Y-63813235D01*
X175095773Y-63819196D01*
X175071504Y-63822796D01*
X175047000Y-63824000D01*
X172897000Y-63824000D01*
X172872496Y-63822796D01*
X172848227Y-63819196D01*
X172824429Y-63813235D01*
X172801329Y-63804970D01*
X172779151Y-63794480D01*
X172758107Y-63781867D01*
X172738402Y-63767253D01*
X172720223Y-63750777D01*
X172703747Y-63732598D01*
X172689133Y-63712893D01*
X172676520Y-63691849D01*
X172666030Y-63669671D01*
X172657765Y-63646571D01*
X172651804Y-63622773D01*
X172648204Y-63598504D01*
X172647000Y-63574000D01*
X172647000Y-62824000D01*
X172648204Y-62799496D01*
X172651804Y-62775227D01*
X172657765Y-62751429D01*
X172666030Y-62728329D01*
X172676520Y-62706151D01*
X172689133Y-62685107D01*
X172703747Y-62665402D01*
X172720223Y-62647223D01*
X172738402Y-62630747D01*
X172758107Y-62616133D01*
X172779151Y-62603520D01*
X172801329Y-62593030D01*
X172824429Y-62584765D01*
X172848227Y-62578804D01*
X172872496Y-62575204D01*
X172897000Y-62574000D01*
X175047000Y-62574000D01*
X175071504Y-62575204D01*
G37*
G36*
X168721504Y-59775204D02*
G01*
X168745773Y-59778804D01*
X168769571Y-59784765D01*
X168792671Y-59793030D01*
X168814849Y-59803520D01*
X168835893Y-59816133D01*
X168855598Y-59830747D01*
X168873777Y-59847223D01*
X168890253Y-59865402D01*
X168904867Y-59885107D01*
X168917480Y-59906151D01*
X168927970Y-59928329D01*
X168936235Y-59951429D01*
X168942196Y-59975227D01*
X168945796Y-59999496D01*
X168947000Y-60024000D01*
X168947000Y-60774000D01*
X168945796Y-60798504D01*
X168942196Y-60822773D01*
X168936235Y-60846571D01*
X168927970Y-60869671D01*
X168917480Y-60891849D01*
X168904867Y-60912893D01*
X168890253Y-60932598D01*
X168873777Y-60950777D01*
X168855598Y-60967253D01*
X168835893Y-60981867D01*
X168814849Y-60994480D01*
X168792671Y-61004970D01*
X168769571Y-61013235D01*
X168745773Y-61019196D01*
X168721504Y-61022796D01*
X168697000Y-61024000D01*
X166547000Y-61024000D01*
X166522496Y-61022796D01*
X166498227Y-61019196D01*
X166474429Y-61013235D01*
X166451329Y-61004970D01*
X166429151Y-60994480D01*
X166408107Y-60981867D01*
X166388402Y-60967253D01*
X166370223Y-60950777D01*
X166353747Y-60932598D01*
X166339133Y-60912893D01*
X166326520Y-60891849D01*
X166316030Y-60869671D01*
X166307765Y-60846571D01*
X166301804Y-60822773D01*
X166298204Y-60798504D01*
X166297000Y-60774000D01*
X166297000Y-60024000D01*
X166298204Y-59999496D01*
X166301804Y-59975227D01*
X166307765Y-59951429D01*
X166316030Y-59928329D01*
X166326520Y-59906151D01*
X166339133Y-59885107D01*
X166353747Y-59865402D01*
X166370223Y-59847223D01*
X166388402Y-59830747D01*
X166408107Y-59816133D01*
X166429151Y-59803520D01*
X166451329Y-59793030D01*
X166474429Y-59784765D01*
X166498227Y-59778804D01*
X166522496Y-59775204D01*
X166547000Y-59774000D01*
X168697000Y-59774000D01*
X168721504Y-59775204D01*
G37*
G36*
X168721504Y-62575204D02*
G01*
X168745773Y-62578804D01*
X168769571Y-62584765D01*
X168792671Y-62593030D01*
X168814849Y-62603520D01*
X168835893Y-62616133D01*
X168855598Y-62630747D01*
X168873777Y-62647223D01*
X168890253Y-62665402D01*
X168904867Y-62685107D01*
X168917480Y-62706151D01*
X168927970Y-62728329D01*
X168936235Y-62751429D01*
X168942196Y-62775227D01*
X168945796Y-62799496D01*
X168947000Y-62824000D01*
X168947000Y-63574000D01*
X168945796Y-63598504D01*
X168942196Y-63622773D01*
X168936235Y-63646571D01*
X168927970Y-63669671D01*
X168917480Y-63691849D01*
X168904867Y-63712893D01*
X168890253Y-63732598D01*
X168873777Y-63750777D01*
X168855598Y-63767253D01*
X168835893Y-63781867D01*
X168814849Y-63794480D01*
X168792671Y-63804970D01*
X168769571Y-63813235D01*
X168745773Y-63819196D01*
X168721504Y-63822796D01*
X168697000Y-63824000D01*
X166547000Y-63824000D01*
X166522496Y-63822796D01*
X166498227Y-63819196D01*
X166474429Y-63813235D01*
X166451329Y-63804970D01*
X166429151Y-63794480D01*
X166408107Y-63781867D01*
X166388402Y-63767253D01*
X166370223Y-63750777D01*
X166353747Y-63732598D01*
X166339133Y-63712893D01*
X166326520Y-63691849D01*
X166316030Y-63669671D01*
X166307765Y-63646571D01*
X166301804Y-63622773D01*
X166298204Y-63598504D01*
X166297000Y-63574000D01*
X166297000Y-62824000D01*
X166298204Y-62799496D01*
X166301804Y-62775227D01*
X166307765Y-62751429D01*
X166316030Y-62728329D01*
X166326520Y-62706151D01*
X166339133Y-62685107D01*
X166353747Y-62665402D01*
X166370223Y-62647223D01*
X166388402Y-62630747D01*
X166408107Y-62616133D01*
X166429151Y-62603520D01*
X166451329Y-62593030D01*
X166474429Y-62584765D01*
X166498227Y-62578804D01*
X166522496Y-62575204D01*
X166547000Y-62574000D01*
X168697000Y-62574000D01*
X168721504Y-62575204D01*
G37*
D20*
X145270000Y-70140000D03*
X145270000Y-61840000D03*
D12*
G36*
X158540142Y-50940174D02*
G01*
X158563803Y-50943684D01*
X158587007Y-50949496D01*
X158609529Y-50957554D01*
X158631153Y-50967782D01*
X158651670Y-50980079D01*
X158670883Y-50994329D01*
X158688607Y-51010393D01*
X158704671Y-51028117D01*
X158718921Y-51047330D01*
X158731218Y-51067847D01*
X158741446Y-51089471D01*
X158749504Y-51111993D01*
X158755316Y-51135197D01*
X158758826Y-51158858D01*
X158760000Y-51182750D01*
X158760000Y-52095250D01*
X158758826Y-52119142D01*
X158755316Y-52142803D01*
X158749504Y-52166007D01*
X158741446Y-52188529D01*
X158731218Y-52210153D01*
X158718921Y-52230670D01*
X158704671Y-52249883D01*
X158688607Y-52267607D01*
X158670883Y-52283671D01*
X158651670Y-52297921D01*
X158631153Y-52310218D01*
X158609529Y-52320446D01*
X158587007Y-52328504D01*
X158563803Y-52334316D01*
X158540142Y-52337826D01*
X158516250Y-52339000D01*
X158028750Y-52339000D01*
X158004858Y-52337826D01*
X157981197Y-52334316D01*
X157957993Y-52328504D01*
X157935471Y-52320446D01*
X157913847Y-52310218D01*
X157893330Y-52297921D01*
X157874117Y-52283671D01*
X157856393Y-52267607D01*
X157840329Y-52249883D01*
X157826079Y-52230670D01*
X157813782Y-52210153D01*
X157803554Y-52188529D01*
X157795496Y-52166007D01*
X157789684Y-52142803D01*
X157786174Y-52119142D01*
X157785000Y-52095250D01*
X157785000Y-51182750D01*
X157786174Y-51158858D01*
X157789684Y-51135197D01*
X157795496Y-51111993D01*
X157803554Y-51089471D01*
X157813782Y-51067847D01*
X157826079Y-51047330D01*
X157840329Y-51028117D01*
X157856393Y-51010393D01*
X157874117Y-50994329D01*
X157893330Y-50980079D01*
X157913847Y-50967782D01*
X157935471Y-50957554D01*
X157957993Y-50949496D01*
X157981197Y-50943684D01*
X158004858Y-50940174D01*
X158028750Y-50939000D01*
X158516250Y-50939000D01*
X158540142Y-50940174D01*
G37*
G36*
X156665142Y-50940174D02*
G01*
X156688803Y-50943684D01*
X156712007Y-50949496D01*
X156734529Y-50957554D01*
X156756153Y-50967782D01*
X156776670Y-50980079D01*
X156795883Y-50994329D01*
X156813607Y-51010393D01*
X156829671Y-51028117D01*
X156843921Y-51047330D01*
X156856218Y-51067847D01*
X156866446Y-51089471D01*
X156874504Y-51111993D01*
X156880316Y-51135197D01*
X156883826Y-51158858D01*
X156885000Y-51182750D01*
X156885000Y-52095250D01*
X156883826Y-52119142D01*
X156880316Y-52142803D01*
X156874504Y-52166007D01*
X156866446Y-52188529D01*
X156856218Y-52210153D01*
X156843921Y-52230670D01*
X156829671Y-52249883D01*
X156813607Y-52267607D01*
X156795883Y-52283671D01*
X156776670Y-52297921D01*
X156756153Y-52310218D01*
X156734529Y-52320446D01*
X156712007Y-52328504D01*
X156688803Y-52334316D01*
X156665142Y-52337826D01*
X156641250Y-52339000D01*
X156153750Y-52339000D01*
X156129858Y-52337826D01*
X156106197Y-52334316D01*
X156082993Y-52328504D01*
X156060471Y-52320446D01*
X156038847Y-52310218D01*
X156018330Y-52297921D01*
X155999117Y-52283671D01*
X155981393Y-52267607D01*
X155965329Y-52249883D01*
X155951079Y-52230670D01*
X155938782Y-52210153D01*
X155928554Y-52188529D01*
X155920496Y-52166007D01*
X155914684Y-52142803D01*
X155911174Y-52119142D01*
X155910000Y-52095250D01*
X155910000Y-51182750D01*
X155911174Y-51158858D01*
X155914684Y-51135197D01*
X155920496Y-51111993D01*
X155928554Y-51089471D01*
X155938782Y-51067847D01*
X155951079Y-51047330D01*
X155965329Y-51028117D01*
X155981393Y-51010393D01*
X155999117Y-50994329D01*
X156018330Y-50980079D01*
X156038847Y-50967782D01*
X156060471Y-50957554D01*
X156082993Y-50949496D01*
X156106197Y-50943684D01*
X156129858Y-50940174D01*
X156153750Y-50939000D01*
X156641250Y-50939000D01*
X156665142Y-50940174D01*
G37*
D21*
X124206000Y-90430000D03*
X124206000Y-84830000D03*
X121666000Y-90430000D03*
X121666000Y-84830000D03*
X119126000Y-90430000D03*
X119126000Y-84830000D03*
X116586000Y-90430000D03*
X116586000Y-84830000D03*
X116586000Y-74924000D03*
X116586000Y-80524000D03*
X119126000Y-74924000D03*
X119126000Y-80524000D03*
X121666000Y-74924000D03*
X121666000Y-80524000D03*
X124206000Y-74924000D03*
X124206000Y-80524000D03*
D12*
G36*
X137603142Y-95567174D02*
G01*
X137626803Y-95570684D01*
X137650007Y-95576496D01*
X137672529Y-95584554D01*
X137694153Y-95594782D01*
X137714670Y-95607079D01*
X137733883Y-95621329D01*
X137751607Y-95637393D01*
X137767671Y-95655117D01*
X137781921Y-95674330D01*
X137794218Y-95694847D01*
X137804446Y-95716471D01*
X137812504Y-95738993D01*
X137818316Y-95762197D01*
X137821826Y-95785858D01*
X137823000Y-95809750D01*
X137823000Y-96722250D01*
X137821826Y-96746142D01*
X137818316Y-96769803D01*
X137812504Y-96793007D01*
X137804446Y-96815529D01*
X137794218Y-96837153D01*
X137781921Y-96857670D01*
X137767671Y-96876883D01*
X137751607Y-96894607D01*
X137733883Y-96910671D01*
X137714670Y-96924921D01*
X137694153Y-96937218D01*
X137672529Y-96947446D01*
X137650007Y-96955504D01*
X137626803Y-96961316D01*
X137603142Y-96964826D01*
X137579250Y-96966000D01*
X137091750Y-96966000D01*
X137067858Y-96964826D01*
X137044197Y-96961316D01*
X137020993Y-96955504D01*
X136998471Y-96947446D01*
X136976847Y-96937218D01*
X136956330Y-96924921D01*
X136937117Y-96910671D01*
X136919393Y-96894607D01*
X136903329Y-96876883D01*
X136889079Y-96857670D01*
X136876782Y-96837153D01*
X136866554Y-96815529D01*
X136858496Y-96793007D01*
X136852684Y-96769803D01*
X136849174Y-96746142D01*
X136848000Y-96722250D01*
X136848000Y-95809750D01*
X136849174Y-95785858D01*
X136852684Y-95762197D01*
X136858496Y-95738993D01*
X136866554Y-95716471D01*
X136876782Y-95694847D01*
X136889079Y-95674330D01*
X136903329Y-95655117D01*
X136919393Y-95637393D01*
X136937117Y-95621329D01*
X136956330Y-95607079D01*
X136976847Y-95594782D01*
X136998471Y-95584554D01*
X137020993Y-95576496D01*
X137044197Y-95570684D01*
X137067858Y-95567174D01*
X137091750Y-95566000D01*
X137579250Y-95566000D01*
X137603142Y-95567174D01*
G37*
G36*
X135728142Y-95567174D02*
G01*
X135751803Y-95570684D01*
X135775007Y-95576496D01*
X135797529Y-95584554D01*
X135819153Y-95594782D01*
X135839670Y-95607079D01*
X135858883Y-95621329D01*
X135876607Y-95637393D01*
X135892671Y-95655117D01*
X135906921Y-95674330D01*
X135919218Y-95694847D01*
X135929446Y-95716471D01*
X135937504Y-95738993D01*
X135943316Y-95762197D01*
X135946826Y-95785858D01*
X135948000Y-95809750D01*
X135948000Y-96722250D01*
X135946826Y-96746142D01*
X135943316Y-96769803D01*
X135937504Y-96793007D01*
X135929446Y-96815529D01*
X135919218Y-96837153D01*
X135906921Y-96857670D01*
X135892671Y-96876883D01*
X135876607Y-96894607D01*
X135858883Y-96910671D01*
X135839670Y-96924921D01*
X135819153Y-96937218D01*
X135797529Y-96947446D01*
X135775007Y-96955504D01*
X135751803Y-96961316D01*
X135728142Y-96964826D01*
X135704250Y-96966000D01*
X135216750Y-96966000D01*
X135192858Y-96964826D01*
X135169197Y-96961316D01*
X135145993Y-96955504D01*
X135123471Y-96947446D01*
X135101847Y-96937218D01*
X135081330Y-96924921D01*
X135062117Y-96910671D01*
X135044393Y-96894607D01*
X135028329Y-96876883D01*
X135014079Y-96857670D01*
X135001782Y-96837153D01*
X134991554Y-96815529D01*
X134983496Y-96793007D01*
X134977684Y-96769803D01*
X134974174Y-96746142D01*
X134973000Y-96722250D01*
X134973000Y-95809750D01*
X134974174Y-95785858D01*
X134977684Y-95762197D01*
X134983496Y-95738993D01*
X134991554Y-95716471D01*
X135001782Y-95694847D01*
X135014079Y-95674330D01*
X135028329Y-95655117D01*
X135044393Y-95637393D01*
X135062117Y-95621329D01*
X135081330Y-95607079D01*
X135101847Y-95594782D01*
X135123471Y-95584554D01*
X135145993Y-95576496D01*
X135169197Y-95570684D01*
X135192858Y-95567174D01*
X135216750Y-95566000D01*
X135704250Y-95566000D01*
X135728142Y-95567174D01*
G37*
G36*
X115644142Y-47511174D02*
G01*
X115667803Y-47514684D01*
X115691007Y-47520496D01*
X115713529Y-47528554D01*
X115735153Y-47538782D01*
X115755670Y-47551079D01*
X115774883Y-47565329D01*
X115792607Y-47581393D01*
X115808671Y-47599117D01*
X115822921Y-47618330D01*
X115835218Y-47638847D01*
X115845446Y-47660471D01*
X115853504Y-47682993D01*
X115859316Y-47706197D01*
X115862826Y-47729858D01*
X115864000Y-47753750D01*
X115864000Y-48666250D01*
X115862826Y-48690142D01*
X115859316Y-48713803D01*
X115853504Y-48737007D01*
X115845446Y-48759529D01*
X115835218Y-48781153D01*
X115822921Y-48801670D01*
X115808671Y-48820883D01*
X115792607Y-48838607D01*
X115774883Y-48854671D01*
X115755670Y-48868921D01*
X115735153Y-48881218D01*
X115713529Y-48891446D01*
X115691007Y-48899504D01*
X115667803Y-48905316D01*
X115644142Y-48908826D01*
X115620250Y-48910000D01*
X115132750Y-48910000D01*
X115108858Y-48908826D01*
X115085197Y-48905316D01*
X115061993Y-48899504D01*
X115039471Y-48891446D01*
X115017847Y-48881218D01*
X114997330Y-48868921D01*
X114978117Y-48854671D01*
X114960393Y-48838607D01*
X114944329Y-48820883D01*
X114930079Y-48801670D01*
X114917782Y-48781153D01*
X114907554Y-48759529D01*
X114899496Y-48737007D01*
X114893684Y-48713803D01*
X114890174Y-48690142D01*
X114889000Y-48666250D01*
X114889000Y-47753750D01*
X114890174Y-47729858D01*
X114893684Y-47706197D01*
X114899496Y-47682993D01*
X114907554Y-47660471D01*
X114917782Y-47638847D01*
X114930079Y-47618330D01*
X114944329Y-47599117D01*
X114960393Y-47581393D01*
X114978117Y-47565329D01*
X114997330Y-47551079D01*
X115017847Y-47538782D01*
X115039471Y-47528554D01*
X115061993Y-47520496D01*
X115085197Y-47514684D01*
X115108858Y-47511174D01*
X115132750Y-47510000D01*
X115620250Y-47510000D01*
X115644142Y-47511174D01*
G37*
G36*
X117519142Y-47511174D02*
G01*
X117542803Y-47514684D01*
X117566007Y-47520496D01*
X117588529Y-47528554D01*
X117610153Y-47538782D01*
X117630670Y-47551079D01*
X117649883Y-47565329D01*
X117667607Y-47581393D01*
X117683671Y-47599117D01*
X117697921Y-47618330D01*
X117710218Y-47638847D01*
X117720446Y-47660471D01*
X117728504Y-47682993D01*
X117734316Y-47706197D01*
X117737826Y-47729858D01*
X117739000Y-47753750D01*
X117739000Y-48666250D01*
X117737826Y-48690142D01*
X117734316Y-48713803D01*
X117728504Y-48737007D01*
X117720446Y-48759529D01*
X117710218Y-48781153D01*
X117697921Y-48801670D01*
X117683671Y-48820883D01*
X117667607Y-48838607D01*
X117649883Y-48854671D01*
X117630670Y-48868921D01*
X117610153Y-48881218D01*
X117588529Y-48891446D01*
X117566007Y-48899504D01*
X117542803Y-48905316D01*
X117519142Y-48908826D01*
X117495250Y-48910000D01*
X117007750Y-48910000D01*
X116983858Y-48908826D01*
X116960197Y-48905316D01*
X116936993Y-48899504D01*
X116914471Y-48891446D01*
X116892847Y-48881218D01*
X116872330Y-48868921D01*
X116853117Y-48854671D01*
X116835393Y-48838607D01*
X116819329Y-48820883D01*
X116805079Y-48801670D01*
X116792782Y-48781153D01*
X116782554Y-48759529D01*
X116774496Y-48737007D01*
X116768684Y-48713803D01*
X116765174Y-48690142D01*
X116764000Y-48666250D01*
X116764000Y-47753750D01*
X116765174Y-47729858D01*
X116768684Y-47706197D01*
X116774496Y-47682993D01*
X116782554Y-47660471D01*
X116792782Y-47638847D01*
X116805079Y-47618330D01*
X116819329Y-47599117D01*
X116835393Y-47581393D01*
X116853117Y-47565329D01*
X116872330Y-47551079D01*
X116892847Y-47538782D01*
X116914471Y-47528554D01*
X116936993Y-47520496D01*
X116960197Y-47514684D01*
X116983858Y-47511174D01*
X117007750Y-47510000D01*
X117495250Y-47510000D01*
X117519142Y-47511174D01*
G37*
G36*
X210284142Y-49884174D02*
G01*
X210307803Y-49887684D01*
X210331007Y-49893496D01*
X210353529Y-49901554D01*
X210375153Y-49911782D01*
X210395670Y-49924079D01*
X210414883Y-49938329D01*
X210432607Y-49954393D01*
X210448671Y-49972117D01*
X210462921Y-49991330D01*
X210475218Y-50011847D01*
X210485446Y-50033471D01*
X210493504Y-50055993D01*
X210499316Y-50079197D01*
X210502826Y-50102858D01*
X210504000Y-50126750D01*
X210504000Y-50614250D01*
X210502826Y-50638142D01*
X210499316Y-50661803D01*
X210493504Y-50685007D01*
X210485446Y-50707529D01*
X210475218Y-50729153D01*
X210462921Y-50749670D01*
X210448671Y-50768883D01*
X210432607Y-50786607D01*
X210414883Y-50802671D01*
X210395670Y-50816921D01*
X210375153Y-50829218D01*
X210353529Y-50839446D01*
X210331007Y-50847504D01*
X210307803Y-50853316D01*
X210284142Y-50856826D01*
X210260250Y-50858000D01*
X209347750Y-50858000D01*
X209323858Y-50856826D01*
X209300197Y-50853316D01*
X209276993Y-50847504D01*
X209254471Y-50839446D01*
X209232847Y-50829218D01*
X209212330Y-50816921D01*
X209193117Y-50802671D01*
X209175393Y-50786607D01*
X209159329Y-50768883D01*
X209145079Y-50749670D01*
X209132782Y-50729153D01*
X209122554Y-50707529D01*
X209114496Y-50685007D01*
X209108684Y-50661803D01*
X209105174Y-50638142D01*
X209104000Y-50614250D01*
X209104000Y-50126750D01*
X209105174Y-50102858D01*
X209108684Y-50079197D01*
X209114496Y-50055993D01*
X209122554Y-50033471D01*
X209132782Y-50011847D01*
X209145079Y-49991330D01*
X209159329Y-49972117D01*
X209175393Y-49954393D01*
X209193117Y-49938329D01*
X209212330Y-49924079D01*
X209232847Y-49911782D01*
X209254471Y-49901554D01*
X209276993Y-49893496D01*
X209300197Y-49887684D01*
X209323858Y-49884174D01*
X209347750Y-49883000D01*
X210260250Y-49883000D01*
X210284142Y-49884174D01*
G37*
G36*
X210284142Y-51759174D02*
G01*
X210307803Y-51762684D01*
X210331007Y-51768496D01*
X210353529Y-51776554D01*
X210375153Y-51786782D01*
X210395670Y-51799079D01*
X210414883Y-51813329D01*
X210432607Y-51829393D01*
X210448671Y-51847117D01*
X210462921Y-51866330D01*
X210475218Y-51886847D01*
X210485446Y-51908471D01*
X210493504Y-51930993D01*
X210499316Y-51954197D01*
X210502826Y-51977858D01*
X210504000Y-52001750D01*
X210504000Y-52489250D01*
X210502826Y-52513142D01*
X210499316Y-52536803D01*
X210493504Y-52560007D01*
X210485446Y-52582529D01*
X210475218Y-52604153D01*
X210462921Y-52624670D01*
X210448671Y-52643883D01*
X210432607Y-52661607D01*
X210414883Y-52677671D01*
X210395670Y-52691921D01*
X210375153Y-52704218D01*
X210353529Y-52714446D01*
X210331007Y-52722504D01*
X210307803Y-52728316D01*
X210284142Y-52731826D01*
X210260250Y-52733000D01*
X209347750Y-52733000D01*
X209323858Y-52731826D01*
X209300197Y-52728316D01*
X209276993Y-52722504D01*
X209254471Y-52714446D01*
X209232847Y-52704218D01*
X209212330Y-52691921D01*
X209193117Y-52677671D01*
X209175393Y-52661607D01*
X209159329Y-52643883D01*
X209145079Y-52624670D01*
X209132782Y-52604153D01*
X209122554Y-52582529D01*
X209114496Y-52560007D01*
X209108684Y-52536803D01*
X209105174Y-52513142D01*
X209104000Y-52489250D01*
X209104000Y-52001750D01*
X209105174Y-51977858D01*
X209108684Y-51954197D01*
X209114496Y-51930993D01*
X209122554Y-51908471D01*
X209132782Y-51886847D01*
X209145079Y-51866330D01*
X209159329Y-51847117D01*
X209175393Y-51829393D01*
X209193117Y-51813329D01*
X209212330Y-51799079D01*
X209232847Y-51786782D01*
X209254471Y-51776554D01*
X209276993Y-51768496D01*
X209300197Y-51762684D01*
X209323858Y-51759174D01*
X209347750Y-51758000D01*
X210260250Y-51758000D01*
X210284142Y-51759174D01*
G37*
G36*
X207102142Y-30416174D02*
G01*
X207125803Y-30419684D01*
X207149007Y-30425496D01*
X207171529Y-30433554D01*
X207193153Y-30443782D01*
X207213670Y-30456079D01*
X207232883Y-30470329D01*
X207250607Y-30486393D01*
X207266671Y-30504117D01*
X207280921Y-30523330D01*
X207293218Y-30543847D01*
X207303446Y-30565471D01*
X207311504Y-30587993D01*
X207317316Y-30611197D01*
X207320826Y-30634858D01*
X207322000Y-30658750D01*
X207322000Y-31571250D01*
X207320826Y-31595142D01*
X207317316Y-31618803D01*
X207311504Y-31642007D01*
X207303446Y-31664529D01*
X207293218Y-31686153D01*
X207280921Y-31706670D01*
X207266671Y-31725883D01*
X207250607Y-31743607D01*
X207232883Y-31759671D01*
X207213670Y-31773921D01*
X207193153Y-31786218D01*
X207171529Y-31796446D01*
X207149007Y-31804504D01*
X207125803Y-31810316D01*
X207102142Y-31813826D01*
X207078250Y-31815000D01*
X206590750Y-31815000D01*
X206566858Y-31813826D01*
X206543197Y-31810316D01*
X206519993Y-31804504D01*
X206497471Y-31796446D01*
X206475847Y-31786218D01*
X206455330Y-31773921D01*
X206436117Y-31759671D01*
X206418393Y-31743607D01*
X206402329Y-31725883D01*
X206388079Y-31706670D01*
X206375782Y-31686153D01*
X206365554Y-31664529D01*
X206357496Y-31642007D01*
X206351684Y-31618803D01*
X206348174Y-31595142D01*
X206347000Y-31571250D01*
X206347000Y-30658750D01*
X206348174Y-30634858D01*
X206351684Y-30611197D01*
X206357496Y-30587993D01*
X206365554Y-30565471D01*
X206375782Y-30543847D01*
X206388079Y-30523330D01*
X206402329Y-30504117D01*
X206418393Y-30486393D01*
X206436117Y-30470329D01*
X206455330Y-30456079D01*
X206475847Y-30443782D01*
X206497471Y-30433554D01*
X206519993Y-30425496D01*
X206543197Y-30419684D01*
X206566858Y-30416174D01*
X206590750Y-30415000D01*
X207078250Y-30415000D01*
X207102142Y-30416174D01*
G37*
G36*
X208977142Y-30416174D02*
G01*
X209000803Y-30419684D01*
X209024007Y-30425496D01*
X209046529Y-30433554D01*
X209068153Y-30443782D01*
X209088670Y-30456079D01*
X209107883Y-30470329D01*
X209125607Y-30486393D01*
X209141671Y-30504117D01*
X209155921Y-30523330D01*
X209168218Y-30543847D01*
X209178446Y-30565471D01*
X209186504Y-30587993D01*
X209192316Y-30611197D01*
X209195826Y-30634858D01*
X209197000Y-30658750D01*
X209197000Y-31571250D01*
X209195826Y-31595142D01*
X209192316Y-31618803D01*
X209186504Y-31642007D01*
X209178446Y-31664529D01*
X209168218Y-31686153D01*
X209155921Y-31706670D01*
X209141671Y-31725883D01*
X209125607Y-31743607D01*
X209107883Y-31759671D01*
X209088670Y-31773921D01*
X209068153Y-31786218D01*
X209046529Y-31796446D01*
X209024007Y-31804504D01*
X209000803Y-31810316D01*
X208977142Y-31813826D01*
X208953250Y-31815000D01*
X208465750Y-31815000D01*
X208441858Y-31813826D01*
X208418197Y-31810316D01*
X208394993Y-31804504D01*
X208372471Y-31796446D01*
X208350847Y-31786218D01*
X208330330Y-31773921D01*
X208311117Y-31759671D01*
X208293393Y-31743607D01*
X208277329Y-31725883D01*
X208263079Y-31706670D01*
X208250782Y-31686153D01*
X208240554Y-31664529D01*
X208232496Y-31642007D01*
X208226684Y-31618803D01*
X208223174Y-31595142D01*
X208222000Y-31571250D01*
X208222000Y-30658750D01*
X208223174Y-30634858D01*
X208226684Y-30611197D01*
X208232496Y-30587993D01*
X208240554Y-30565471D01*
X208250782Y-30543847D01*
X208263079Y-30523330D01*
X208277329Y-30504117D01*
X208293393Y-30486393D01*
X208311117Y-30470329D01*
X208330330Y-30456079D01*
X208350847Y-30443782D01*
X208372471Y-30433554D01*
X208394993Y-30425496D01*
X208418197Y-30419684D01*
X208441858Y-30416174D01*
X208465750Y-30415000D01*
X208953250Y-30415000D01*
X208977142Y-30416174D01*
G37*
G36*
X189322142Y-73977174D02*
G01*
X189345803Y-73980684D01*
X189369007Y-73986496D01*
X189391529Y-73994554D01*
X189413153Y-74004782D01*
X189433670Y-74017079D01*
X189452883Y-74031329D01*
X189470607Y-74047393D01*
X189486671Y-74065117D01*
X189500921Y-74084330D01*
X189513218Y-74104847D01*
X189523446Y-74126471D01*
X189531504Y-74148993D01*
X189537316Y-74172197D01*
X189540826Y-74195858D01*
X189542000Y-74219750D01*
X189542000Y-75132250D01*
X189540826Y-75156142D01*
X189537316Y-75179803D01*
X189531504Y-75203007D01*
X189523446Y-75225529D01*
X189513218Y-75247153D01*
X189500921Y-75267670D01*
X189486671Y-75286883D01*
X189470607Y-75304607D01*
X189452883Y-75320671D01*
X189433670Y-75334921D01*
X189413153Y-75347218D01*
X189391529Y-75357446D01*
X189369007Y-75365504D01*
X189345803Y-75371316D01*
X189322142Y-75374826D01*
X189298250Y-75376000D01*
X188810750Y-75376000D01*
X188786858Y-75374826D01*
X188763197Y-75371316D01*
X188739993Y-75365504D01*
X188717471Y-75357446D01*
X188695847Y-75347218D01*
X188675330Y-75334921D01*
X188656117Y-75320671D01*
X188638393Y-75304607D01*
X188622329Y-75286883D01*
X188608079Y-75267670D01*
X188595782Y-75247153D01*
X188585554Y-75225529D01*
X188577496Y-75203007D01*
X188571684Y-75179803D01*
X188568174Y-75156142D01*
X188567000Y-75132250D01*
X188567000Y-74219750D01*
X188568174Y-74195858D01*
X188571684Y-74172197D01*
X188577496Y-74148993D01*
X188585554Y-74126471D01*
X188595782Y-74104847D01*
X188608079Y-74084330D01*
X188622329Y-74065117D01*
X188638393Y-74047393D01*
X188656117Y-74031329D01*
X188675330Y-74017079D01*
X188695847Y-74004782D01*
X188717471Y-73994554D01*
X188739993Y-73986496D01*
X188763197Y-73980684D01*
X188786858Y-73977174D01*
X188810750Y-73976000D01*
X189298250Y-73976000D01*
X189322142Y-73977174D01*
G37*
G36*
X191197142Y-73977174D02*
G01*
X191220803Y-73980684D01*
X191244007Y-73986496D01*
X191266529Y-73994554D01*
X191288153Y-74004782D01*
X191308670Y-74017079D01*
X191327883Y-74031329D01*
X191345607Y-74047393D01*
X191361671Y-74065117D01*
X191375921Y-74084330D01*
X191388218Y-74104847D01*
X191398446Y-74126471D01*
X191406504Y-74148993D01*
X191412316Y-74172197D01*
X191415826Y-74195858D01*
X191417000Y-74219750D01*
X191417000Y-75132250D01*
X191415826Y-75156142D01*
X191412316Y-75179803D01*
X191406504Y-75203007D01*
X191398446Y-75225529D01*
X191388218Y-75247153D01*
X191375921Y-75267670D01*
X191361671Y-75286883D01*
X191345607Y-75304607D01*
X191327883Y-75320671D01*
X191308670Y-75334921D01*
X191288153Y-75347218D01*
X191266529Y-75357446D01*
X191244007Y-75365504D01*
X191220803Y-75371316D01*
X191197142Y-75374826D01*
X191173250Y-75376000D01*
X190685750Y-75376000D01*
X190661858Y-75374826D01*
X190638197Y-75371316D01*
X190614993Y-75365504D01*
X190592471Y-75357446D01*
X190570847Y-75347218D01*
X190550330Y-75334921D01*
X190531117Y-75320671D01*
X190513393Y-75304607D01*
X190497329Y-75286883D01*
X190483079Y-75267670D01*
X190470782Y-75247153D01*
X190460554Y-75225529D01*
X190452496Y-75203007D01*
X190446684Y-75179803D01*
X190443174Y-75156142D01*
X190442000Y-75132250D01*
X190442000Y-74219750D01*
X190443174Y-74195858D01*
X190446684Y-74172197D01*
X190452496Y-74148993D01*
X190460554Y-74126471D01*
X190470782Y-74104847D01*
X190483079Y-74084330D01*
X190497329Y-74065117D01*
X190513393Y-74047393D01*
X190531117Y-74031329D01*
X190550330Y-74017079D01*
X190570847Y-74004782D01*
X190592471Y-73994554D01*
X190614993Y-73986496D01*
X190638197Y-73980684D01*
X190661858Y-73977174D01*
X190685750Y-73976000D01*
X191173250Y-73976000D01*
X191197142Y-73977174D01*
G37*
G36*
X133424142Y-72911174D02*
G01*
X133447803Y-72914684D01*
X133471007Y-72920496D01*
X133493529Y-72928554D01*
X133515153Y-72938782D01*
X133535670Y-72951079D01*
X133554883Y-72965329D01*
X133572607Y-72981393D01*
X133588671Y-72999117D01*
X133602921Y-73018330D01*
X133615218Y-73038847D01*
X133625446Y-73060471D01*
X133633504Y-73082993D01*
X133639316Y-73106197D01*
X133642826Y-73129858D01*
X133644000Y-73153750D01*
X133644000Y-74066250D01*
X133642826Y-74090142D01*
X133639316Y-74113803D01*
X133633504Y-74137007D01*
X133625446Y-74159529D01*
X133615218Y-74181153D01*
X133602921Y-74201670D01*
X133588671Y-74220883D01*
X133572607Y-74238607D01*
X133554883Y-74254671D01*
X133535670Y-74268921D01*
X133515153Y-74281218D01*
X133493529Y-74291446D01*
X133471007Y-74299504D01*
X133447803Y-74305316D01*
X133424142Y-74308826D01*
X133400250Y-74310000D01*
X132912750Y-74310000D01*
X132888858Y-74308826D01*
X132865197Y-74305316D01*
X132841993Y-74299504D01*
X132819471Y-74291446D01*
X132797847Y-74281218D01*
X132777330Y-74268921D01*
X132758117Y-74254671D01*
X132740393Y-74238607D01*
X132724329Y-74220883D01*
X132710079Y-74201670D01*
X132697782Y-74181153D01*
X132687554Y-74159529D01*
X132679496Y-74137007D01*
X132673684Y-74113803D01*
X132670174Y-74090142D01*
X132669000Y-74066250D01*
X132669000Y-73153750D01*
X132670174Y-73129858D01*
X132673684Y-73106197D01*
X132679496Y-73082993D01*
X132687554Y-73060471D01*
X132697782Y-73038847D01*
X132710079Y-73018330D01*
X132724329Y-72999117D01*
X132740393Y-72981393D01*
X132758117Y-72965329D01*
X132777330Y-72951079D01*
X132797847Y-72938782D01*
X132819471Y-72928554D01*
X132841993Y-72920496D01*
X132865197Y-72914684D01*
X132888858Y-72911174D01*
X132912750Y-72910000D01*
X133400250Y-72910000D01*
X133424142Y-72911174D01*
G37*
G36*
X135299142Y-72911174D02*
G01*
X135322803Y-72914684D01*
X135346007Y-72920496D01*
X135368529Y-72928554D01*
X135390153Y-72938782D01*
X135410670Y-72951079D01*
X135429883Y-72965329D01*
X135447607Y-72981393D01*
X135463671Y-72999117D01*
X135477921Y-73018330D01*
X135490218Y-73038847D01*
X135500446Y-73060471D01*
X135508504Y-73082993D01*
X135514316Y-73106197D01*
X135517826Y-73129858D01*
X135519000Y-73153750D01*
X135519000Y-74066250D01*
X135517826Y-74090142D01*
X135514316Y-74113803D01*
X135508504Y-74137007D01*
X135500446Y-74159529D01*
X135490218Y-74181153D01*
X135477921Y-74201670D01*
X135463671Y-74220883D01*
X135447607Y-74238607D01*
X135429883Y-74254671D01*
X135410670Y-74268921D01*
X135390153Y-74281218D01*
X135368529Y-74291446D01*
X135346007Y-74299504D01*
X135322803Y-74305316D01*
X135299142Y-74308826D01*
X135275250Y-74310000D01*
X134787750Y-74310000D01*
X134763858Y-74308826D01*
X134740197Y-74305316D01*
X134716993Y-74299504D01*
X134694471Y-74291446D01*
X134672847Y-74281218D01*
X134652330Y-74268921D01*
X134633117Y-74254671D01*
X134615393Y-74238607D01*
X134599329Y-74220883D01*
X134585079Y-74201670D01*
X134572782Y-74181153D01*
X134562554Y-74159529D01*
X134554496Y-74137007D01*
X134548684Y-74113803D01*
X134545174Y-74090142D01*
X134544000Y-74066250D01*
X134544000Y-73153750D01*
X134545174Y-73129858D01*
X134548684Y-73106197D01*
X134554496Y-73082993D01*
X134562554Y-73060471D01*
X134572782Y-73038847D01*
X134585079Y-73018330D01*
X134599329Y-72999117D01*
X134615393Y-72981393D01*
X134633117Y-72965329D01*
X134652330Y-72951079D01*
X134672847Y-72938782D01*
X134694471Y-72928554D01*
X134716993Y-72920496D01*
X134740197Y-72914684D01*
X134763858Y-72911174D01*
X134787750Y-72910000D01*
X135275250Y-72910000D01*
X135299142Y-72911174D01*
G37*
G36*
X129360142Y-72911174D02*
G01*
X129383803Y-72914684D01*
X129407007Y-72920496D01*
X129429529Y-72928554D01*
X129451153Y-72938782D01*
X129471670Y-72951079D01*
X129490883Y-72965329D01*
X129508607Y-72981393D01*
X129524671Y-72999117D01*
X129538921Y-73018330D01*
X129551218Y-73038847D01*
X129561446Y-73060471D01*
X129569504Y-73082993D01*
X129575316Y-73106197D01*
X129578826Y-73129858D01*
X129580000Y-73153750D01*
X129580000Y-74066250D01*
X129578826Y-74090142D01*
X129575316Y-74113803D01*
X129569504Y-74137007D01*
X129561446Y-74159529D01*
X129551218Y-74181153D01*
X129538921Y-74201670D01*
X129524671Y-74220883D01*
X129508607Y-74238607D01*
X129490883Y-74254671D01*
X129471670Y-74268921D01*
X129451153Y-74281218D01*
X129429529Y-74291446D01*
X129407007Y-74299504D01*
X129383803Y-74305316D01*
X129360142Y-74308826D01*
X129336250Y-74310000D01*
X128848750Y-74310000D01*
X128824858Y-74308826D01*
X128801197Y-74305316D01*
X128777993Y-74299504D01*
X128755471Y-74291446D01*
X128733847Y-74281218D01*
X128713330Y-74268921D01*
X128694117Y-74254671D01*
X128676393Y-74238607D01*
X128660329Y-74220883D01*
X128646079Y-74201670D01*
X128633782Y-74181153D01*
X128623554Y-74159529D01*
X128615496Y-74137007D01*
X128609684Y-74113803D01*
X128606174Y-74090142D01*
X128605000Y-74066250D01*
X128605000Y-73153750D01*
X128606174Y-73129858D01*
X128609684Y-73106197D01*
X128615496Y-73082993D01*
X128623554Y-73060471D01*
X128633782Y-73038847D01*
X128646079Y-73018330D01*
X128660329Y-72999117D01*
X128676393Y-72981393D01*
X128694117Y-72965329D01*
X128713330Y-72951079D01*
X128733847Y-72938782D01*
X128755471Y-72928554D01*
X128777993Y-72920496D01*
X128801197Y-72914684D01*
X128824858Y-72911174D01*
X128848750Y-72910000D01*
X129336250Y-72910000D01*
X129360142Y-72911174D01*
G37*
G36*
X131235142Y-72911174D02*
G01*
X131258803Y-72914684D01*
X131282007Y-72920496D01*
X131304529Y-72928554D01*
X131326153Y-72938782D01*
X131346670Y-72951079D01*
X131365883Y-72965329D01*
X131383607Y-72981393D01*
X131399671Y-72999117D01*
X131413921Y-73018330D01*
X131426218Y-73038847D01*
X131436446Y-73060471D01*
X131444504Y-73082993D01*
X131450316Y-73106197D01*
X131453826Y-73129858D01*
X131455000Y-73153750D01*
X131455000Y-74066250D01*
X131453826Y-74090142D01*
X131450316Y-74113803D01*
X131444504Y-74137007D01*
X131436446Y-74159529D01*
X131426218Y-74181153D01*
X131413921Y-74201670D01*
X131399671Y-74220883D01*
X131383607Y-74238607D01*
X131365883Y-74254671D01*
X131346670Y-74268921D01*
X131326153Y-74281218D01*
X131304529Y-74291446D01*
X131282007Y-74299504D01*
X131258803Y-74305316D01*
X131235142Y-74308826D01*
X131211250Y-74310000D01*
X130723750Y-74310000D01*
X130699858Y-74308826D01*
X130676197Y-74305316D01*
X130652993Y-74299504D01*
X130630471Y-74291446D01*
X130608847Y-74281218D01*
X130588330Y-74268921D01*
X130569117Y-74254671D01*
X130551393Y-74238607D01*
X130535329Y-74220883D01*
X130521079Y-74201670D01*
X130508782Y-74181153D01*
X130498554Y-74159529D01*
X130490496Y-74137007D01*
X130484684Y-74113803D01*
X130481174Y-74090142D01*
X130480000Y-74066250D01*
X130480000Y-73153750D01*
X130481174Y-73129858D01*
X130484684Y-73106197D01*
X130490496Y-73082993D01*
X130498554Y-73060471D01*
X130508782Y-73038847D01*
X130521079Y-73018330D01*
X130535329Y-72999117D01*
X130551393Y-72981393D01*
X130569117Y-72965329D01*
X130588330Y-72951079D01*
X130608847Y-72938782D01*
X130630471Y-72928554D01*
X130652993Y-72920496D01*
X130676197Y-72914684D01*
X130699858Y-72911174D01*
X130723750Y-72910000D01*
X131211250Y-72910000D01*
X131235142Y-72911174D01*
G37*
G36*
X125296142Y-40907174D02*
G01*
X125319803Y-40910684D01*
X125343007Y-40916496D01*
X125365529Y-40924554D01*
X125387153Y-40934782D01*
X125407670Y-40947079D01*
X125426883Y-40961329D01*
X125444607Y-40977393D01*
X125460671Y-40995117D01*
X125474921Y-41014330D01*
X125487218Y-41034847D01*
X125497446Y-41056471D01*
X125505504Y-41078993D01*
X125511316Y-41102197D01*
X125514826Y-41125858D01*
X125516000Y-41149750D01*
X125516000Y-42062250D01*
X125514826Y-42086142D01*
X125511316Y-42109803D01*
X125505504Y-42133007D01*
X125497446Y-42155529D01*
X125487218Y-42177153D01*
X125474921Y-42197670D01*
X125460671Y-42216883D01*
X125444607Y-42234607D01*
X125426883Y-42250671D01*
X125407670Y-42264921D01*
X125387153Y-42277218D01*
X125365529Y-42287446D01*
X125343007Y-42295504D01*
X125319803Y-42301316D01*
X125296142Y-42304826D01*
X125272250Y-42306000D01*
X124784750Y-42306000D01*
X124760858Y-42304826D01*
X124737197Y-42301316D01*
X124713993Y-42295504D01*
X124691471Y-42287446D01*
X124669847Y-42277218D01*
X124649330Y-42264921D01*
X124630117Y-42250671D01*
X124612393Y-42234607D01*
X124596329Y-42216883D01*
X124582079Y-42197670D01*
X124569782Y-42177153D01*
X124559554Y-42155529D01*
X124551496Y-42133007D01*
X124545684Y-42109803D01*
X124542174Y-42086142D01*
X124541000Y-42062250D01*
X124541000Y-41149750D01*
X124542174Y-41125858D01*
X124545684Y-41102197D01*
X124551496Y-41078993D01*
X124559554Y-41056471D01*
X124569782Y-41034847D01*
X124582079Y-41014330D01*
X124596329Y-40995117D01*
X124612393Y-40977393D01*
X124630117Y-40961329D01*
X124649330Y-40947079D01*
X124669847Y-40934782D01*
X124691471Y-40924554D01*
X124713993Y-40916496D01*
X124737197Y-40910684D01*
X124760858Y-40907174D01*
X124784750Y-40906000D01*
X125272250Y-40906000D01*
X125296142Y-40907174D01*
G37*
G36*
X127171142Y-40907174D02*
G01*
X127194803Y-40910684D01*
X127218007Y-40916496D01*
X127240529Y-40924554D01*
X127262153Y-40934782D01*
X127282670Y-40947079D01*
X127301883Y-40961329D01*
X127319607Y-40977393D01*
X127335671Y-40995117D01*
X127349921Y-41014330D01*
X127362218Y-41034847D01*
X127372446Y-41056471D01*
X127380504Y-41078993D01*
X127386316Y-41102197D01*
X127389826Y-41125858D01*
X127391000Y-41149750D01*
X127391000Y-42062250D01*
X127389826Y-42086142D01*
X127386316Y-42109803D01*
X127380504Y-42133007D01*
X127372446Y-42155529D01*
X127362218Y-42177153D01*
X127349921Y-42197670D01*
X127335671Y-42216883D01*
X127319607Y-42234607D01*
X127301883Y-42250671D01*
X127282670Y-42264921D01*
X127262153Y-42277218D01*
X127240529Y-42287446D01*
X127218007Y-42295504D01*
X127194803Y-42301316D01*
X127171142Y-42304826D01*
X127147250Y-42306000D01*
X126659750Y-42306000D01*
X126635858Y-42304826D01*
X126612197Y-42301316D01*
X126588993Y-42295504D01*
X126566471Y-42287446D01*
X126544847Y-42277218D01*
X126524330Y-42264921D01*
X126505117Y-42250671D01*
X126487393Y-42234607D01*
X126471329Y-42216883D01*
X126457079Y-42197670D01*
X126444782Y-42177153D01*
X126434554Y-42155529D01*
X126426496Y-42133007D01*
X126420684Y-42109803D01*
X126417174Y-42086142D01*
X126416000Y-42062250D01*
X126416000Y-41149750D01*
X126417174Y-41125858D01*
X126420684Y-41102197D01*
X126426496Y-41078993D01*
X126434554Y-41056471D01*
X126444782Y-41034847D01*
X126457079Y-41014330D01*
X126471329Y-40995117D01*
X126487393Y-40977393D01*
X126505117Y-40961329D01*
X126524330Y-40947079D01*
X126544847Y-40934782D01*
X126566471Y-40924554D01*
X126588993Y-40916496D01*
X126612197Y-40910684D01*
X126635858Y-40907174D01*
X126659750Y-40906000D01*
X127147250Y-40906000D01*
X127171142Y-40907174D01*
G37*
G36*
X124788142Y-54623174D02*
G01*
X124811803Y-54626684D01*
X124835007Y-54632496D01*
X124857529Y-54640554D01*
X124879153Y-54650782D01*
X124899670Y-54663079D01*
X124918883Y-54677329D01*
X124936607Y-54693393D01*
X124952671Y-54711117D01*
X124966921Y-54730330D01*
X124979218Y-54750847D01*
X124989446Y-54772471D01*
X124997504Y-54794993D01*
X125003316Y-54818197D01*
X125006826Y-54841858D01*
X125008000Y-54865750D01*
X125008000Y-55778250D01*
X125006826Y-55802142D01*
X125003316Y-55825803D01*
X124997504Y-55849007D01*
X124989446Y-55871529D01*
X124979218Y-55893153D01*
X124966921Y-55913670D01*
X124952671Y-55932883D01*
X124936607Y-55950607D01*
X124918883Y-55966671D01*
X124899670Y-55980921D01*
X124879153Y-55993218D01*
X124857529Y-56003446D01*
X124835007Y-56011504D01*
X124811803Y-56017316D01*
X124788142Y-56020826D01*
X124764250Y-56022000D01*
X124276750Y-56022000D01*
X124252858Y-56020826D01*
X124229197Y-56017316D01*
X124205993Y-56011504D01*
X124183471Y-56003446D01*
X124161847Y-55993218D01*
X124141330Y-55980921D01*
X124122117Y-55966671D01*
X124104393Y-55950607D01*
X124088329Y-55932883D01*
X124074079Y-55913670D01*
X124061782Y-55893153D01*
X124051554Y-55871529D01*
X124043496Y-55849007D01*
X124037684Y-55825803D01*
X124034174Y-55802142D01*
X124033000Y-55778250D01*
X124033000Y-54865750D01*
X124034174Y-54841858D01*
X124037684Y-54818197D01*
X124043496Y-54794993D01*
X124051554Y-54772471D01*
X124061782Y-54750847D01*
X124074079Y-54730330D01*
X124088329Y-54711117D01*
X124104393Y-54693393D01*
X124122117Y-54677329D01*
X124141330Y-54663079D01*
X124161847Y-54650782D01*
X124183471Y-54640554D01*
X124205993Y-54632496D01*
X124229197Y-54626684D01*
X124252858Y-54623174D01*
X124276750Y-54622000D01*
X124764250Y-54622000D01*
X124788142Y-54623174D01*
G37*
G36*
X126663142Y-54623174D02*
G01*
X126686803Y-54626684D01*
X126710007Y-54632496D01*
X126732529Y-54640554D01*
X126754153Y-54650782D01*
X126774670Y-54663079D01*
X126793883Y-54677329D01*
X126811607Y-54693393D01*
X126827671Y-54711117D01*
X126841921Y-54730330D01*
X126854218Y-54750847D01*
X126864446Y-54772471D01*
X126872504Y-54794993D01*
X126878316Y-54818197D01*
X126881826Y-54841858D01*
X126883000Y-54865750D01*
X126883000Y-55778250D01*
X126881826Y-55802142D01*
X126878316Y-55825803D01*
X126872504Y-55849007D01*
X126864446Y-55871529D01*
X126854218Y-55893153D01*
X126841921Y-55913670D01*
X126827671Y-55932883D01*
X126811607Y-55950607D01*
X126793883Y-55966671D01*
X126774670Y-55980921D01*
X126754153Y-55993218D01*
X126732529Y-56003446D01*
X126710007Y-56011504D01*
X126686803Y-56017316D01*
X126663142Y-56020826D01*
X126639250Y-56022000D01*
X126151750Y-56022000D01*
X126127858Y-56020826D01*
X126104197Y-56017316D01*
X126080993Y-56011504D01*
X126058471Y-56003446D01*
X126036847Y-55993218D01*
X126016330Y-55980921D01*
X125997117Y-55966671D01*
X125979393Y-55950607D01*
X125963329Y-55932883D01*
X125949079Y-55913670D01*
X125936782Y-55893153D01*
X125926554Y-55871529D01*
X125918496Y-55849007D01*
X125912684Y-55825803D01*
X125909174Y-55802142D01*
X125908000Y-55778250D01*
X125908000Y-54865750D01*
X125909174Y-54841858D01*
X125912684Y-54818197D01*
X125918496Y-54794993D01*
X125926554Y-54772471D01*
X125936782Y-54750847D01*
X125949079Y-54730330D01*
X125963329Y-54711117D01*
X125979393Y-54693393D01*
X125997117Y-54677329D01*
X126016330Y-54663079D01*
X126036847Y-54650782D01*
X126058471Y-54640554D01*
X126080993Y-54632496D01*
X126104197Y-54626684D01*
X126127858Y-54623174D01*
X126151750Y-54622000D01*
X126639250Y-54622000D01*
X126663142Y-54623174D01*
G37*
G36*
X142351504Y-109791204D02*
G01*
X142375773Y-109794804D01*
X142399571Y-109800765D01*
X142422671Y-109809030D01*
X142444849Y-109819520D01*
X142465893Y-109832133D01*
X142485598Y-109846747D01*
X142503777Y-109863223D01*
X142520253Y-109881402D01*
X142534867Y-109901107D01*
X142547480Y-109922151D01*
X142557970Y-109944329D01*
X142566235Y-109967429D01*
X142572196Y-109991227D01*
X142575796Y-110015496D01*
X142577000Y-110040000D01*
X142577000Y-110840000D01*
X142575796Y-110864504D01*
X142572196Y-110888773D01*
X142566235Y-110912571D01*
X142557970Y-110935671D01*
X142547480Y-110957849D01*
X142534867Y-110978893D01*
X142520253Y-110998598D01*
X142503777Y-111016777D01*
X142485598Y-111033253D01*
X142465893Y-111047867D01*
X142444849Y-111060480D01*
X142422671Y-111070970D01*
X142399571Y-111079235D01*
X142375773Y-111085196D01*
X142351504Y-111088796D01*
X142327000Y-111090000D01*
X141502000Y-111090000D01*
X141477496Y-111088796D01*
X141453227Y-111085196D01*
X141429429Y-111079235D01*
X141406329Y-111070970D01*
X141384151Y-111060480D01*
X141363107Y-111047867D01*
X141343402Y-111033253D01*
X141325223Y-111016777D01*
X141308747Y-110998598D01*
X141294133Y-110978893D01*
X141281520Y-110957849D01*
X141271030Y-110935671D01*
X141262765Y-110912571D01*
X141256804Y-110888773D01*
X141253204Y-110864504D01*
X141252000Y-110840000D01*
X141252000Y-110040000D01*
X141253204Y-110015496D01*
X141256804Y-109991227D01*
X141262765Y-109967429D01*
X141271030Y-109944329D01*
X141281520Y-109922151D01*
X141294133Y-109901107D01*
X141308747Y-109881402D01*
X141325223Y-109863223D01*
X141343402Y-109846747D01*
X141363107Y-109832133D01*
X141384151Y-109819520D01*
X141406329Y-109809030D01*
X141429429Y-109800765D01*
X141453227Y-109794804D01*
X141477496Y-109791204D01*
X141502000Y-109790000D01*
X142327000Y-109790000D01*
X142351504Y-109791204D01*
G37*
G36*
X140426504Y-109791204D02*
G01*
X140450773Y-109794804D01*
X140474571Y-109800765D01*
X140497671Y-109809030D01*
X140519849Y-109819520D01*
X140540893Y-109832133D01*
X140560598Y-109846747D01*
X140578777Y-109863223D01*
X140595253Y-109881402D01*
X140609867Y-109901107D01*
X140622480Y-109922151D01*
X140632970Y-109944329D01*
X140641235Y-109967429D01*
X140647196Y-109991227D01*
X140650796Y-110015496D01*
X140652000Y-110040000D01*
X140652000Y-110840000D01*
X140650796Y-110864504D01*
X140647196Y-110888773D01*
X140641235Y-110912571D01*
X140632970Y-110935671D01*
X140622480Y-110957849D01*
X140609867Y-110978893D01*
X140595253Y-110998598D01*
X140578777Y-111016777D01*
X140560598Y-111033253D01*
X140540893Y-111047867D01*
X140519849Y-111060480D01*
X140497671Y-111070970D01*
X140474571Y-111079235D01*
X140450773Y-111085196D01*
X140426504Y-111088796D01*
X140402000Y-111090000D01*
X139577000Y-111090000D01*
X139552496Y-111088796D01*
X139528227Y-111085196D01*
X139504429Y-111079235D01*
X139481329Y-111070970D01*
X139459151Y-111060480D01*
X139438107Y-111047867D01*
X139418402Y-111033253D01*
X139400223Y-111016777D01*
X139383747Y-110998598D01*
X139369133Y-110978893D01*
X139356520Y-110957849D01*
X139346030Y-110935671D01*
X139337765Y-110912571D01*
X139331804Y-110888773D01*
X139328204Y-110864504D01*
X139327000Y-110840000D01*
X139327000Y-110040000D01*
X139328204Y-110015496D01*
X139331804Y-109991227D01*
X139337765Y-109967429D01*
X139346030Y-109944329D01*
X139356520Y-109922151D01*
X139369133Y-109901107D01*
X139383747Y-109881402D01*
X139400223Y-109863223D01*
X139418402Y-109846747D01*
X139438107Y-109832133D01*
X139459151Y-109819520D01*
X139481329Y-109809030D01*
X139504429Y-109800765D01*
X139528227Y-109794804D01*
X139552496Y-109791204D01*
X139577000Y-109790000D01*
X140402000Y-109790000D01*
X140426504Y-109791204D01*
G37*
G36*
X145252504Y-109791204D02*
G01*
X145276773Y-109794804D01*
X145300571Y-109800765D01*
X145323671Y-109809030D01*
X145345849Y-109819520D01*
X145366893Y-109832133D01*
X145386598Y-109846747D01*
X145404777Y-109863223D01*
X145421253Y-109881402D01*
X145435867Y-109901107D01*
X145448480Y-109922151D01*
X145458970Y-109944329D01*
X145467235Y-109967429D01*
X145473196Y-109991227D01*
X145476796Y-110015496D01*
X145478000Y-110040000D01*
X145478000Y-110840000D01*
X145476796Y-110864504D01*
X145473196Y-110888773D01*
X145467235Y-110912571D01*
X145458970Y-110935671D01*
X145448480Y-110957849D01*
X145435867Y-110978893D01*
X145421253Y-110998598D01*
X145404777Y-111016777D01*
X145386598Y-111033253D01*
X145366893Y-111047867D01*
X145345849Y-111060480D01*
X145323671Y-111070970D01*
X145300571Y-111079235D01*
X145276773Y-111085196D01*
X145252504Y-111088796D01*
X145228000Y-111090000D01*
X144403000Y-111090000D01*
X144378496Y-111088796D01*
X144354227Y-111085196D01*
X144330429Y-111079235D01*
X144307329Y-111070970D01*
X144285151Y-111060480D01*
X144264107Y-111047867D01*
X144244402Y-111033253D01*
X144226223Y-111016777D01*
X144209747Y-110998598D01*
X144195133Y-110978893D01*
X144182520Y-110957849D01*
X144172030Y-110935671D01*
X144163765Y-110912571D01*
X144157804Y-110888773D01*
X144154204Y-110864504D01*
X144153000Y-110840000D01*
X144153000Y-110040000D01*
X144154204Y-110015496D01*
X144157804Y-109991227D01*
X144163765Y-109967429D01*
X144172030Y-109944329D01*
X144182520Y-109922151D01*
X144195133Y-109901107D01*
X144209747Y-109881402D01*
X144226223Y-109863223D01*
X144244402Y-109846747D01*
X144264107Y-109832133D01*
X144285151Y-109819520D01*
X144307329Y-109809030D01*
X144330429Y-109800765D01*
X144354227Y-109794804D01*
X144378496Y-109791204D01*
X144403000Y-109790000D01*
X145228000Y-109790000D01*
X145252504Y-109791204D01*
G37*
G36*
X147177504Y-109791204D02*
G01*
X147201773Y-109794804D01*
X147225571Y-109800765D01*
X147248671Y-109809030D01*
X147270849Y-109819520D01*
X147291893Y-109832133D01*
X147311598Y-109846747D01*
X147329777Y-109863223D01*
X147346253Y-109881402D01*
X147360867Y-109901107D01*
X147373480Y-109922151D01*
X147383970Y-109944329D01*
X147392235Y-109967429D01*
X147398196Y-109991227D01*
X147401796Y-110015496D01*
X147403000Y-110040000D01*
X147403000Y-110840000D01*
X147401796Y-110864504D01*
X147398196Y-110888773D01*
X147392235Y-110912571D01*
X147383970Y-110935671D01*
X147373480Y-110957849D01*
X147360867Y-110978893D01*
X147346253Y-110998598D01*
X147329777Y-111016777D01*
X147311598Y-111033253D01*
X147291893Y-111047867D01*
X147270849Y-111060480D01*
X147248671Y-111070970D01*
X147225571Y-111079235D01*
X147201773Y-111085196D01*
X147177504Y-111088796D01*
X147153000Y-111090000D01*
X146328000Y-111090000D01*
X146303496Y-111088796D01*
X146279227Y-111085196D01*
X146255429Y-111079235D01*
X146232329Y-111070970D01*
X146210151Y-111060480D01*
X146189107Y-111047867D01*
X146169402Y-111033253D01*
X146151223Y-111016777D01*
X146134747Y-110998598D01*
X146120133Y-110978893D01*
X146107520Y-110957849D01*
X146097030Y-110935671D01*
X146088765Y-110912571D01*
X146082804Y-110888773D01*
X146079204Y-110864504D01*
X146078000Y-110840000D01*
X146078000Y-110040000D01*
X146079204Y-110015496D01*
X146082804Y-109991227D01*
X146088765Y-109967429D01*
X146097030Y-109944329D01*
X146107520Y-109922151D01*
X146120133Y-109901107D01*
X146134747Y-109881402D01*
X146151223Y-109863223D01*
X146169402Y-109846747D01*
X146189107Y-109832133D01*
X146210151Y-109819520D01*
X146232329Y-109809030D01*
X146255429Y-109800765D01*
X146279227Y-109794804D01*
X146303496Y-109791204D01*
X146328000Y-109790000D01*
X147153000Y-109790000D01*
X147177504Y-109791204D01*
G37*
G36*
X152003504Y-109791204D02*
G01*
X152027773Y-109794804D01*
X152051571Y-109800765D01*
X152074671Y-109809030D01*
X152096849Y-109819520D01*
X152117893Y-109832133D01*
X152137598Y-109846747D01*
X152155777Y-109863223D01*
X152172253Y-109881402D01*
X152186867Y-109901107D01*
X152199480Y-109922151D01*
X152209970Y-109944329D01*
X152218235Y-109967429D01*
X152224196Y-109991227D01*
X152227796Y-110015496D01*
X152229000Y-110040000D01*
X152229000Y-110840000D01*
X152227796Y-110864504D01*
X152224196Y-110888773D01*
X152218235Y-110912571D01*
X152209970Y-110935671D01*
X152199480Y-110957849D01*
X152186867Y-110978893D01*
X152172253Y-110998598D01*
X152155777Y-111016777D01*
X152137598Y-111033253D01*
X152117893Y-111047867D01*
X152096849Y-111060480D01*
X152074671Y-111070970D01*
X152051571Y-111079235D01*
X152027773Y-111085196D01*
X152003504Y-111088796D01*
X151979000Y-111090000D01*
X151154000Y-111090000D01*
X151129496Y-111088796D01*
X151105227Y-111085196D01*
X151081429Y-111079235D01*
X151058329Y-111070970D01*
X151036151Y-111060480D01*
X151015107Y-111047867D01*
X150995402Y-111033253D01*
X150977223Y-111016777D01*
X150960747Y-110998598D01*
X150946133Y-110978893D01*
X150933520Y-110957849D01*
X150923030Y-110935671D01*
X150914765Y-110912571D01*
X150908804Y-110888773D01*
X150905204Y-110864504D01*
X150904000Y-110840000D01*
X150904000Y-110040000D01*
X150905204Y-110015496D01*
X150908804Y-109991227D01*
X150914765Y-109967429D01*
X150923030Y-109944329D01*
X150933520Y-109922151D01*
X150946133Y-109901107D01*
X150960747Y-109881402D01*
X150977223Y-109863223D01*
X150995402Y-109846747D01*
X151015107Y-109832133D01*
X151036151Y-109819520D01*
X151058329Y-109809030D01*
X151081429Y-109800765D01*
X151105227Y-109794804D01*
X151129496Y-109791204D01*
X151154000Y-109790000D01*
X151979000Y-109790000D01*
X152003504Y-109791204D01*
G37*
G36*
X150078504Y-109791204D02*
G01*
X150102773Y-109794804D01*
X150126571Y-109800765D01*
X150149671Y-109809030D01*
X150171849Y-109819520D01*
X150192893Y-109832133D01*
X150212598Y-109846747D01*
X150230777Y-109863223D01*
X150247253Y-109881402D01*
X150261867Y-109901107D01*
X150274480Y-109922151D01*
X150284970Y-109944329D01*
X150293235Y-109967429D01*
X150299196Y-109991227D01*
X150302796Y-110015496D01*
X150304000Y-110040000D01*
X150304000Y-110840000D01*
X150302796Y-110864504D01*
X150299196Y-110888773D01*
X150293235Y-110912571D01*
X150284970Y-110935671D01*
X150274480Y-110957849D01*
X150261867Y-110978893D01*
X150247253Y-110998598D01*
X150230777Y-111016777D01*
X150212598Y-111033253D01*
X150192893Y-111047867D01*
X150171849Y-111060480D01*
X150149671Y-111070970D01*
X150126571Y-111079235D01*
X150102773Y-111085196D01*
X150078504Y-111088796D01*
X150054000Y-111090000D01*
X149229000Y-111090000D01*
X149204496Y-111088796D01*
X149180227Y-111085196D01*
X149156429Y-111079235D01*
X149133329Y-111070970D01*
X149111151Y-111060480D01*
X149090107Y-111047867D01*
X149070402Y-111033253D01*
X149052223Y-111016777D01*
X149035747Y-110998598D01*
X149021133Y-110978893D01*
X149008520Y-110957849D01*
X148998030Y-110935671D01*
X148989765Y-110912571D01*
X148983804Y-110888773D01*
X148980204Y-110864504D01*
X148979000Y-110840000D01*
X148979000Y-110040000D01*
X148980204Y-110015496D01*
X148983804Y-109991227D01*
X148989765Y-109967429D01*
X148998030Y-109944329D01*
X149008520Y-109922151D01*
X149021133Y-109901107D01*
X149035747Y-109881402D01*
X149052223Y-109863223D01*
X149070402Y-109846747D01*
X149090107Y-109832133D01*
X149111151Y-109819520D01*
X149133329Y-109809030D01*
X149156429Y-109800765D01*
X149180227Y-109794804D01*
X149204496Y-109791204D01*
X149229000Y-109790000D01*
X150054000Y-109790000D01*
X150078504Y-109791204D01*
G37*
G36*
X154904504Y-109791204D02*
G01*
X154928773Y-109794804D01*
X154952571Y-109800765D01*
X154975671Y-109809030D01*
X154997849Y-109819520D01*
X155018893Y-109832133D01*
X155038598Y-109846747D01*
X155056777Y-109863223D01*
X155073253Y-109881402D01*
X155087867Y-109901107D01*
X155100480Y-109922151D01*
X155110970Y-109944329D01*
X155119235Y-109967429D01*
X155125196Y-109991227D01*
X155128796Y-110015496D01*
X155130000Y-110040000D01*
X155130000Y-110840000D01*
X155128796Y-110864504D01*
X155125196Y-110888773D01*
X155119235Y-110912571D01*
X155110970Y-110935671D01*
X155100480Y-110957849D01*
X155087867Y-110978893D01*
X155073253Y-110998598D01*
X155056777Y-111016777D01*
X155038598Y-111033253D01*
X155018893Y-111047867D01*
X154997849Y-111060480D01*
X154975671Y-111070970D01*
X154952571Y-111079235D01*
X154928773Y-111085196D01*
X154904504Y-111088796D01*
X154880000Y-111090000D01*
X154055000Y-111090000D01*
X154030496Y-111088796D01*
X154006227Y-111085196D01*
X153982429Y-111079235D01*
X153959329Y-111070970D01*
X153937151Y-111060480D01*
X153916107Y-111047867D01*
X153896402Y-111033253D01*
X153878223Y-111016777D01*
X153861747Y-110998598D01*
X153847133Y-110978893D01*
X153834520Y-110957849D01*
X153824030Y-110935671D01*
X153815765Y-110912571D01*
X153809804Y-110888773D01*
X153806204Y-110864504D01*
X153805000Y-110840000D01*
X153805000Y-110040000D01*
X153806204Y-110015496D01*
X153809804Y-109991227D01*
X153815765Y-109967429D01*
X153824030Y-109944329D01*
X153834520Y-109922151D01*
X153847133Y-109901107D01*
X153861747Y-109881402D01*
X153878223Y-109863223D01*
X153896402Y-109846747D01*
X153916107Y-109832133D01*
X153937151Y-109819520D01*
X153959329Y-109809030D01*
X153982429Y-109800765D01*
X154006227Y-109794804D01*
X154030496Y-109791204D01*
X154055000Y-109790000D01*
X154880000Y-109790000D01*
X154904504Y-109791204D01*
G37*
G36*
X156829504Y-109791204D02*
G01*
X156853773Y-109794804D01*
X156877571Y-109800765D01*
X156900671Y-109809030D01*
X156922849Y-109819520D01*
X156943893Y-109832133D01*
X156963598Y-109846747D01*
X156981777Y-109863223D01*
X156998253Y-109881402D01*
X157012867Y-109901107D01*
X157025480Y-109922151D01*
X157035970Y-109944329D01*
X157044235Y-109967429D01*
X157050196Y-109991227D01*
X157053796Y-110015496D01*
X157055000Y-110040000D01*
X157055000Y-110840000D01*
X157053796Y-110864504D01*
X157050196Y-110888773D01*
X157044235Y-110912571D01*
X157035970Y-110935671D01*
X157025480Y-110957849D01*
X157012867Y-110978893D01*
X156998253Y-110998598D01*
X156981777Y-111016777D01*
X156963598Y-111033253D01*
X156943893Y-111047867D01*
X156922849Y-111060480D01*
X156900671Y-111070970D01*
X156877571Y-111079235D01*
X156853773Y-111085196D01*
X156829504Y-111088796D01*
X156805000Y-111090000D01*
X155980000Y-111090000D01*
X155955496Y-111088796D01*
X155931227Y-111085196D01*
X155907429Y-111079235D01*
X155884329Y-111070970D01*
X155862151Y-111060480D01*
X155841107Y-111047867D01*
X155821402Y-111033253D01*
X155803223Y-111016777D01*
X155786747Y-110998598D01*
X155772133Y-110978893D01*
X155759520Y-110957849D01*
X155749030Y-110935671D01*
X155740765Y-110912571D01*
X155734804Y-110888773D01*
X155731204Y-110864504D01*
X155730000Y-110840000D01*
X155730000Y-110040000D01*
X155731204Y-110015496D01*
X155734804Y-109991227D01*
X155740765Y-109967429D01*
X155749030Y-109944329D01*
X155759520Y-109922151D01*
X155772133Y-109901107D01*
X155786747Y-109881402D01*
X155803223Y-109863223D01*
X155821402Y-109846747D01*
X155841107Y-109832133D01*
X155862151Y-109819520D01*
X155884329Y-109809030D01*
X155907429Y-109800765D01*
X155931227Y-109794804D01*
X155955496Y-109791204D01*
X155980000Y-109790000D01*
X156805000Y-109790000D01*
X156829504Y-109791204D01*
G37*
G36*
X161655504Y-109791204D02*
G01*
X161679773Y-109794804D01*
X161703571Y-109800765D01*
X161726671Y-109809030D01*
X161748849Y-109819520D01*
X161769893Y-109832133D01*
X161789598Y-109846747D01*
X161807777Y-109863223D01*
X161824253Y-109881402D01*
X161838867Y-109901107D01*
X161851480Y-109922151D01*
X161861970Y-109944329D01*
X161870235Y-109967429D01*
X161876196Y-109991227D01*
X161879796Y-110015496D01*
X161881000Y-110040000D01*
X161881000Y-110840000D01*
X161879796Y-110864504D01*
X161876196Y-110888773D01*
X161870235Y-110912571D01*
X161861970Y-110935671D01*
X161851480Y-110957849D01*
X161838867Y-110978893D01*
X161824253Y-110998598D01*
X161807777Y-111016777D01*
X161789598Y-111033253D01*
X161769893Y-111047867D01*
X161748849Y-111060480D01*
X161726671Y-111070970D01*
X161703571Y-111079235D01*
X161679773Y-111085196D01*
X161655504Y-111088796D01*
X161631000Y-111090000D01*
X160806000Y-111090000D01*
X160781496Y-111088796D01*
X160757227Y-111085196D01*
X160733429Y-111079235D01*
X160710329Y-111070970D01*
X160688151Y-111060480D01*
X160667107Y-111047867D01*
X160647402Y-111033253D01*
X160629223Y-111016777D01*
X160612747Y-110998598D01*
X160598133Y-110978893D01*
X160585520Y-110957849D01*
X160575030Y-110935671D01*
X160566765Y-110912571D01*
X160560804Y-110888773D01*
X160557204Y-110864504D01*
X160556000Y-110840000D01*
X160556000Y-110040000D01*
X160557204Y-110015496D01*
X160560804Y-109991227D01*
X160566765Y-109967429D01*
X160575030Y-109944329D01*
X160585520Y-109922151D01*
X160598133Y-109901107D01*
X160612747Y-109881402D01*
X160629223Y-109863223D01*
X160647402Y-109846747D01*
X160667107Y-109832133D01*
X160688151Y-109819520D01*
X160710329Y-109809030D01*
X160733429Y-109800765D01*
X160757227Y-109794804D01*
X160781496Y-109791204D01*
X160806000Y-109790000D01*
X161631000Y-109790000D01*
X161655504Y-109791204D01*
G37*
G36*
X159730504Y-109791204D02*
G01*
X159754773Y-109794804D01*
X159778571Y-109800765D01*
X159801671Y-109809030D01*
X159823849Y-109819520D01*
X159844893Y-109832133D01*
X159864598Y-109846747D01*
X159882777Y-109863223D01*
X159899253Y-109881402D01*
X159913867Y-109901107D01*
X159926480Y-109922151D01*
X159936970Y-109944329D01*
X159945235Y-109967429D01*
X159951196Y-109991227D01*
X159954796Y-110015496D01*
X159956000Y-110040000D01*
X159956000Y-110840000D01*
X159954796Y-110864504D01*
X159951196Y-110888773D01*
X159945235Y-110912571D01*
X159936970Y-110935671D01*
X159926480Y-110957849D01*
X159913867Y-110978893D01*
X159899253Y-110998598D01*
X159882777Y-111016777D01*
X159864598Y-111033253D01*
X159844893Y-111047867D01*
X159823849Y-111060480D01*
X159801671Y-111070970D01*
X159778571Y-111079235D01*
X159754773Y-111085196D01*
X159730504Y-111088796D01*
X159706000Y-111090000D01*
X158881000Y-111090000D01*
X158856496Y-111088796D01*
X158832227Y-111085196D01*
X158808429Y-111079235D01*
X158785329Y-111070970D01*
X158763151Y-111060480D01*
X158742107Y-111047867D01*
X158722402Y-111033253D01*
X158704223Y-111016777D01*
X158687747Y-110998598D01*
X158673133Y-110978893D01*
X158660520Y-110957849D01*
X158650030Y-110935671D01*
X158641765Y-110912571D01*
X158635804Y-110888773D01*
X158632204Y-110864504D01*
X158631000Y-110840000D01*
X158631000Y-110040000D01*
X158632204Y-110015496D01*
X158635804Y-109991227D01*
X158641765Y-109967429D01*
X158650030Y-109944329D01*
X158660520Y-109922151D01*
X158673133Y-109901107D01*
X158687747Y-109881402D01*
X158704223Y-109863223D01*
X158722402Y-109846747D01*
X158742107Y-109832133D01*
X158763151Y-109819520D01*
X158785329Y-109809030D01*
X158808429Y-109800765D01*
X158832227Y-109794804D01*
X158856496Y-109791204D01*
X158881000Y-109790000D01*
X159706000Y-109790000D01*
X159730504Y-109791204D01*
G37*
G36*
X112088142Y-49543174D02*
G01*
X112111803Y-49546684D01*
X112135007Y-49552496D01*
X112157529Y-49560554D01*
X112179153Y-49570782D01*
X112199670Y-49583079D01*
X112218883Y-49597329D01*
X112236607Y-49613393D01*
X112252671Y-49631117D01*
X112266921Y-49650330D01*
X112279218Y-49670847D01*
X112289446Y-49692471D01*
X112297504Y-49714993D01*
X112303316Y-49738197D01*
X112306826Y-49761858D01*
X112308000Y-49785750D01*
X112308000Y-50698250D01*
X112306826Y-50722142D01*
X112303316Y-50745803D01*
X112297504Y-50769007D01*
X112289446Y-50791529D01*
X112279218Y-50813153D01*
X112266921Y-50833670D01*
X112252671Y-50852883D01*
X112236607Y-50870607D01*
X112218883Y-50886671D01*
X112199670Y-50900921D01*
X112179153Y-50913218D01*
X112157529Y-50923446D01*
X112135007Y-50931504D01*
X112111803Y-50937316D01*
X112088142Y-50940826D01*
X112064250Y-50942000D01*
X111576750Y-50942000D01*
X111552858Y-50940826D01*
X111529197Y-50937316D01*
X111505993Y-50931504D01*
X111483471Y-50923446D01*
X111461847Y-50913218D01*
X111441330Y-50900921D01*
X111422117Y-50886671D01*
X111404393Y-50870607D01*
X111388329Y-50852883D01*
X111374079Y-50833670D01*
X111361782Y-50813153D01*
X111351554Y-50791529D01*
X111343496Y-50769007D01*
X111337684Y-50745803D01*
X111334174Y-50722142D01*
X111333000Y-50698250D01*
X111333000Y-49785750D01*
X111334174Y-49761858D01*
X111337684Y-49738197D01*
X111343496Y-49714993D01*
X111351554Y-49692471D01*
X111361782Y-49670847D01*
X111374079Y-49650330D01*
X111388329Y-49631117D01*
X111404393Y-49613393D01*
X111422117Y-49597329D01*
X111441330Y-49583079D01*
X111461847Y-49570782D01*
X111483471Y-49560554D01*
X111505993Y-49552496D01*
X111529197Y-49546684D01*
X111552858Y-49543174D01*
X111576750Y-49542000D01*
X112064250Y-49542000D01*
X112088142Y-49543174D01*
G37*
G36*
X113963142Y-49543174D02*
G01*
X113986803Y-49546684D01*
X114010007Y-49552496D01*
X114032529Y-49560554D01*
X114054153Y-49570782D01*
X114074670Y-49583079D01*
X114093883Y-49597329D01*
X114111607Y-49613393D01*
X114127671Y-49631117D01*
X114141921Y-49650330D01*
X114154218Y-49670847D01*
X114164446Y-49692471D01*
X114172504Y-49714993D01*
X114178316Y-49738197D01*
X114181826Y-49761858D01*
X114183000Y-49785750D01*
X114183000Y-50698250D01*
X114181826Y-50722142D01*
X114178316Y-50745803D01*
X114172504Y-50769007D01*
X114164446Y-50791529D01*
X114154218Y-50813153D01*
X114141921Y-50833670D01*
X114127671Y-50852883D01*
X114111607Y-50870607D01*
X114093883Y-50886671D01*
X114074670Y-50900921D01*
X114054153Y-50913218D01*
X114032529Y-50923446D01*
X114010007Y-50931504D01*
X113986803Y-50937316D01*
X113963142Y-50940826D01*
X113939250Y-50942000D01*
X113451750Y-50942000D01*
X113427858Y-50940826D01*
X113404197Y-50937316D01*
X113380993Y-50931504D01*
X113358471Y-50923446D01*
X113336847Y-50913218D01*
X113316330Y-50900921D01*
X113297117Y-50886671D01*
X113279393Y-50870607D01*
X113263329Y-50852883D01*
X113249079Y-50833670D01*
X113236782Y-50813153D01*
X113226554Y-50791529D01*
X113218496Y-50769007D01*
X113212684Y-50745803D01*
X113209174Y-50722142D01*
X113208000Y-50698250D01*
X113208000Y-49785750D01*
X113209174Y-49761858D01*
X113212684Y-49738197D01*
X113218496Y-49714993D01*
X113226554Y-49692471D01*
X113236782Y-49670847D01*
X113249079Y-49650330D01*
X113263329Y-49631117D01*
X113279393Y-49613393D01*
X113297117Y-49597329D01*
X113316330Y-49583079D01*
X113336847Y-49570782D01*
X113358471Y-49560554D01*
X113380993Y-49552496D01*
X113404197Y-49546684D01*
X113427858Y-49543174D01*
X113451750Y-49542000D01*
X113939250Y-49542000D01*
X113963142Y-49543174D01*
G37*
G36*
X112088142Y-44971174D02*
G01*
X112111803Y-44974684D01*
X112135007Y-44980496D01*
X112157529Y-44988554D01*
X112179153Y-44998782D01*
X112199670Y-45011079D01*
X112218883Y-45025329D01*
X112236607Y-45041393D01*
X112252671Y-45059117D01*
X112266921Y-45078330D01*
X112279218Y-45098847D01*
X112289446Y-45120471D01*
X112297504Y-45142993D01*
X112303316Y-45166197D01*
X112306826Y-45189858D01*
X112308000Y-45213750D01*
X112308000Y-46126250D01*
X112306826Y-46150142D01*
X112303316Y-46173803D01*
X112297504Y-46197007D01*
X112289446Y-46219529D01*
X112279218Y-46241153D01*
X112266921Y-46261670D01*
X112252671Y-46280883D01*
X112236607Y-46298607D01*
X112218883Y-46314671D01*
X112199670Y-46328921D01*
X112179153Y-46341218D01*
X112157529Y-46351446D01*
X112135007Y-46359504D01*
X112111803Y-46365316D01*
X112088142Y-46368826D01*
X112064250Y-46370000D01*
X111576750Y-46370000D01*
X111552858Y-46368826D01*
X111529197Y-46365316D01*
X111505993Y-46359504D01*
X111483471Y-46351446D01*
X111461847Y-46341218D01*
X111441330Y-46328921D01*
X111422117Y-46314671D01*
X111404393Y-46298607D01*
X111388329Y-46280883D01*
X111374079Y-46261670D01*
X111361782Y-46241153D01*
X111351554Y-46219529D01*
X111343496Y-46197007D01*
X111337684Y-46173803D01*
X111334174Y-46150142D01*
X111333000Y-46126250D01*
X111333000Y-45213750D01*
X111334174Y-45189858D01*
X111337684Y-45166197D01*
X111343496Y-45142993D01*
X111351554Y-45120471D01*
X111361782Y-45098847D01*
X111374079Y-45078330D01*
X111388329Y-45059117D01*
X111404393Y-45041393D01*
X111422117Y-45025329D01*
X111441330Y-45011079D01*
X111461847Y-44998782D01*
X111483471Y-44988554D01*
X111505993Y-44980496D01*
X111529197Y-44974684D01*
X111552858Y-44971174D01*
X111576750Y-44970000D01*
X112064250Y-44970000D01*
X112088142Y-44971174D01*
G37*
G36*
X113963142Y-44971174D02*
G01*
X113986803Y-44974684D01*
X114010007Y-44980496D01*
X114032529Y-44988554D01*
X114054153Y-44998782D01*
X114074670Y-45011079D01*
X114093883Y-45025329D01*
X114111607Y-45041393D01*
X114127671Y-45059117D01*
X114141921Y-45078330D01*
X114154218Y-45098847D01*
X114164446Y-45120471D01*
X114172504Y-45142993D01*
X114178316Y-45166197D01*
X114181826Y-45189858D01*
X114183000Y-45213750D01*
X114183000Y-46126250D01*
X114181826Y-46150142D01*
X114178316Y-46173803D01*
X114172504Y-46197007D01*
X114164446Y-46219529D01*
X114154218Y-46241153D01*
X114141921Y-46261670D01*
X114127671Y-46280883D01*
X114111607Y-46298607D01*
X114093883Y-46314671D01*
X114074670Y-46328921D01*
X114054153Y-46341218D01*
X114032529Y-46351446D01*
X114010007Y-46359504D01*
X113986803Y-46365316D01*
X113963142Y-46368826D01*
X113939250Y-46370000D01*
X113451750Y-46370000D01*
X113427858Y-46368826D01*
X113404197Y-46365316D01*
X113380993Y-46359504D01*
X113358471Y-46351446D01*
X113336847Y-46341218D01*
X113316330Y-46328921D01*
X113297117Y-46314671D01*
X113279393Y-46298607D01*
X113263329Y-46280883D01*
X113249079Y-46261670D01*
X113236782Y-46241153D01*
X113226554Y-46219529D01*
X113218496Y-46197007D01*
X113212684Y-46173803D01*
X113209174Y-46150142D01*
X113208000Y-46126250D01*
X113208000Y-45213750D01*
X113209174Y-45189858D01*
X113212684Y-45166197D01*
X113218496Y-45142993D01*
X113226554Y-45120471D01*
X113236782Y-45098847D01*
X113249079Y-45078330D01*
X113263329Y-45059117D01*
X113279393Y-45041393D01*
X113297117Y-45025329D01*
X113316330Y-45011079D01*
X113336847Y-44998782D01*
X113358471Y-44988554D01*
X113380993Y-44980496D01*
X113404197Y-44974684D01*
X113427858Y-44971174D01*
X113451750Y-44970000D01*
X113939250Y-44970000D01*
X113963142Y-44971174D01*
G37*
G36*
X116503142Y-54115174D02*
G01*
X116526803Y-54118684D01*
X116550007Y-54124496D01*
X116572529Y-54132554D01*
X116594153Y-54142782D01*
X116614670Y-54155079D01*
X116633883Y-54169329D01*
X116651607Y-54185393D01*
X116667671Y-54203117D01*
X116681921Y-54222330D01*
X116694218Y-54242847D01*
X116704446Y-54264471D01*
X116712504Y-54286993D01*
X116718316Y-54310197D01*
X116721826Y-54333858D01*
X116723000Y-54357750D01*
X116723000Y-55270250D01*
X116721826Y-55294142D01*
X116718316Y-55317803D01*
X116712504Y-55341007D01*
X116704446Y-55363529D01*
X116694218Y-55385153D01*
X116681921Y-55405670D01*
X116667671Y-55424883D01*
X116651607Y-55442607D01*
X116633883Y-55458671D01*
X116614670Y-55472921D01*
X116594153Y-55485218D01*
X116572529Y-55495446D01*
X116550007Y-55503504D01*
X116526803Y-55509316D01*
X116503142Y-55512826D01*
X116479250Y-55514000D01*
X115991750Y-55514000D01*
X115967858Y-55512826D01*
X115944197Y-55509316D01*
X115920993Y-55503504D01*
X115898471Y-55495446D01*
X115876847Y-55485218D01*
X115856330Y-55472921D01*
X115837117Y-55458671D01*
X115819393Y-55442607D01*
X115803329Y-55424883D01*
X115789079Y-55405670D01*
X115776782Y-55385153D01*
X115766554Y-55363529D01*
X115758496Y-55341007D01*
X115752684Y-55317803D01*
X115749174Y-55294142D01*
X115748000Y-55270250D01*
X115748000Y-54357750D01*
X115749174Y-54333858D01*
X115752684Y-54310197D01*
X115758496Y-54286993D01*
X115766554Y-54264471D01*
X115776782Y-54242847D01*
X115789079Y-54222330D01*
X115803329Y-54203117D01*
X115819393Y-54185393D01*
X115837117Y-54169329D01*
X115856330Y-54155079D01*
X115876847Y-54142782D01*
X115898471Y-54132554D01*
X115920993Y-54124496D01*
X115944197Y-54118684D01*
X115967858Y-54115174D01*
X115991750Y-54114000D01*
X116479250Y-54114000D01*
X116503142Y-54115174D01*
G37*
G36*
X114628142Y-54115174D02*
G01*
X114651803Y-54118684D01*
X114675007Y-54124496D01*
X114697529Y-54132554D01*
X114719153Y-54142782D01*
X114739670Y-54155079D01*
X114758883Y-54169329D01*
X114776607Y-54185393D01*
X114792671Y-54203117D01*
X114806921Y-54222330D01*
X114819218Y-54242847D01*
X114829446Y-54264471D01*
X114837504Y-54286993D01*
X114843316Y-54310197D01*
X114846826Y-54333858D01*
X114848000Y-54357750D01*
X114848000Y-55270250D01*
X114846826Y-55294142D01*
X114843316Y-55317803D01*
X114837504Y-55341007D01*
X114829446Y-55363529D01*
X114819218Y-55385153D01*
X114806921Y-55405670D01*
X114792671Y-55424883D01*
X114776607Y-55442607D01*
X114758883Y-55458671D01*
X114739670Y-55472921D01*
X114719153Y-55485218D01*
X114697529Y-55495446D01*
X114675007Y-55503504D01*
X114651803Y-55509316D01*
X114628142Y-55512826D01*
X114604250Y-55514000D01*
X114116750Y-55514000D01*
X114092858Y-55512826D01*
X114069197Y-55509316D01*
X114045993Y-55503504D01*
X114023471Y-55495446D01*
X114001847Y-55485218D01*
X113981330Y-55472921D01*
X113962117Y-55458671D01*
X113944393Y-55442607D01*
X113928329Y-55424883D01*
X113914079Y-55405670D01*
X113901782Y-55385153D01*
X113891554Y-55363529D01*
X113883496Y-55341007D01*
X113877684Y-55317803D01*
X113874174Y-55294142D01*
X113873000Y-55270250D01*
X113873000Y-54357750D01*
X113874174Y-54333858D01*
X113877684Y-54310197D01*
X113883496Y-54286993D01*
X113891554Y-54264471D01*
X113901782Y-54242847D01*
X113914079Y-54222330D01*
X113928329Y-54203117D01*
X113944393Y-54185393D01*
X113962117Y-54169329D01*
X113981330Y-54155079D01*
X114001847Y-54142782D01*
X114023471Y-54132554D01*
X114045993Y-54124496D01*
X114069197Y-54118684D01*
X114092858Y-54115174D01*
X114116750Y-54114000D01*
X114604250Y-54114000D01*
X114628142Y-54115174D01*
G37*
G36*
X114628142Y-40907174D02*
G01*
X114651803Y-40910684D01*
X114675007Y-40916496D01*
X114697529Y-40924554D01*
X114719153Y-40934782D01*
X114739670Y-40947079D01*
X114758883Y-40961329D01*
X114776607Y-40977393D01*
X114792671Y-40995117D01*
X114806921Y-41014330D01*
X114819218Y-41034847D01*
X114829446Y-41056471D01*
X114837504Y-41078993D01*
X114843316Y-41102197D01*
X114846826Y-41125858D01*
X114848000Y-41149750D01*
X114848000Y-42062250D01*
X114846826Y-42086142D01*
X114843316Y-42109803D01*
X114837504Y-42133007D01*
X114829446Y-42155529D01*
X114819218Y-42177153D01*
X114806921Y-42197670D01*
X114792671Y-42216883D01*
X114776607Y-42234607D01*
X114758883Y-42250671D01*
X114739670Y-42264921D01*
X114719153Y-42277218D01*
X114697529Y-42287446D01*
X114675007Y-42295504D01*
X114651803Y-42301316D01*
X114628142Y-42304826D01*
X114604250Y-42306000D01*
X114116750Y-42306000D01*
X114092858Y-42304826D01*
X114069197Y-42301316D01*
X114045993Y-42295504D01*
X114023471Y-42287446D01*
X114001847Y-42277218D01*
X113981330Y-42264921D01*
X113962117Y-42250671D01*
X113944393Y-42234607D01*
X113928329Y-42216883D01*
X113914079Y-42197670D01*
X113901782Y-42177153D01*
X113891554Y-42155529D01*
X113883496Y-42133007D01*
X113877684Y-42109803D01*
X113874174Y-42086142D01*
X113873000Y-42062250D01*
X113873000Y-41149750D01*
X113874174Y-41125858D01*
X113877684Y-41102197D01*
X113883496Y-41078993D01*
X113891554Y-41056471D01*
X113901782Y-41034847D01*
X113914079Y-41014330D01*
X113928329Y-40995117D01*
X113944393Y-40977393D01*
X113962117Y-40961329D01*
X113981330Y-40947079D01*
X114001847Y-40934782D01*
X114023471Y-40924554D01*
X114045993Y-40916496D01*
X114069197Y-40910684D01*
X114092858Y-40907174D01*
X114116750Y-40906000D01*
X114604250Y-40906000D01*
X114628142Y-40907174D01*
G37*
G36*
X116503142Y-40907174D02*
G01*
X116526803Y-40910684D01*
X116550007Y-40916496D01*
X116572529Y-40924554D01*
X116594153Y-40934782D01*
X116614670Y-40947079D01*
X116633883Y-40961329D01*
X116651607Y-40977393D01*
X116667671Y-40995117D01*
X116681921Y-41014330D01*
X116694218Y-41034847D01*
X116704446Y-41056471D01*
X116712504Y-41078993D01*
X116718316Y-41102197D01*
X116721826Y-41125858D01*
X116723000Y-41149750D01*
X116723000Y-42062250D01*
X116721826Y-42086142D01*
X116718316Y-42109803D01*
X116712504Y-42133007D01*
X116704446Y-42155529D01*
X116694218Y-42177153D01*
X116681921Y-42197670D01*
X116667671Y-42216883D01*
X116651607Y-42234607D01*
X116633883Y-42250671D01*
X116614670Y-42264921D01*
X116594153Y-42277218D01*
X116572529Y-42287446D01*
X116550007Y-42295504D01*
X116526803Y-42301316D01*
X116503142Y-42304826D01*
X116479250Y-42306000D01*
X115991750Y-42306000D01*
X115967858Y-42304826D01*
X115944197Y-42301316D01*
X115920993Y-42295504D01*
X115898471Y-42287446D01*
X115876847Y-42277218D01*
X115856330Y-42264921D01*
X115837117Y-42250671D01*
X115819393Y-42234607D01*
X115803329Y-42216883D01*
X115789079Y-42197670D01*
X115776782Y-42177153D01*
X115766554Y-42155529D01*
X115758496Y-42133007D01*
X115752684Y-42109803D01*
X115749174Y-42086142D01*
X115748000Y-42062250D01*
X115748000Y-41149750D01*
X115749174Y-41125858D01*
X115752684Y-41102197D01*
X115758496Y-41078993D01*
X115766554Y-41056471D01*
X115776782Y-41034847D01*
X115789079Y-41014330D01*
X115803329Y-40995117D01*
X115819393Y-40977393D01*
X115837117Y-40961329D01*
X115856330Y-40947079D01*
X115876847Y-40934782D01*
X115898471Y-40924554D01*
X115920993Y-40916496D01*
X115944197Y-40910684D01*
X115967858Y-40907174D01*
X115991750Y-40906000D01*
X116479250Y-40906000D01*
X116503142Y-40907174D01*
G37*
G36*
X109040142Y-54115174D02*
G01*
X109063803Y-54118684D01*
X109087007Y-54124496D01*
X109109529Y-54132554D01*
X109131153Y-54142782D01*
X109151670Y-54155079D01*
X109170883Y-54169329D01*
X109188607Y-54185393D01*
X109204671Y-54203117D01*
X109218921Y-54222330D01*
X109231218Y-54242847D01*
X109241446Y-54264471D01*
X109249504Y-54286993D01*
X109255316Y-54310197D01*
X109258826Y-54333858D01*
X109260000Y-54357750D01*
X109260000Y-55270250D01*
X109258826Y-55294142D01*
X109255316Y-55317803D01*
X109249504Y-55341007D01*
X109241446Y-55363529D01*
X109231218Y-55385153D01*
X109218921Y-55405670D01*
X109204671Y-55424883D01*
X109188607Y-55442607D01*
X109170883Y-55458671D01*
X109151670Y-55472921D01*
X109131153Y-55485218D01*
X109109529Y-55495446D01*
X109087007Y-55503504D01*
X109063803Y-55509316D01*
X109040142Y-55512826D01*
X109016250Y-55514000D01*
X108528750Y-55514000D01*
X108504858Y-55512826D01*
X108481197Y-55509316D01*
X108457993Y-55503504D01*
X108435471Y-55495446D01*
X108413847Y-55485218D01*
X108393330Y-55472921D01*
X108374117Y-55458671D01*
X108356393Y-55442607D01*
X108340329Y-55424883D01*
X108326079Y-55405670D01*
X108313782Y-55385153D01*
X108303554Y-55363529D01*
X108295496Y-55341007D01*
X108289684Y-55317803D01*
X108286174Y-55294142D01*
X108285000Y-55270250D01*
X108285000Y-54357750D01*
X108286174Y-54333858D01*
X108289684Y-54310197D01*
X108295496Y-54286993D01*
X108303554Y-54264471D01*
X108313782Y-54242847D01*
X108326079Y-54222330D01*
X108340329Y-54203117D01*
X108356393Y-54185393D01*
X108374117Y-54169329D01*
X108393330Y-54155079D01*
X108413847Y-54142782D01*
X108435471Y-54132554D01*
X108457993Y-54124496D01*
X108481197Y-54118684D01*
X108504858Y-54115174D01*
X108528750Y-54114000D01*
X109016250Y-54114000D01*
X109040142Y-54115174D01*
G37*
G36*
X110915142Y-54115174D02*
G01*
X110938803Y-54118684D01*
X110962007Y-54124496D01*
X110984529Y-54132554D01*
X111006153Y-54142782D01*
X111026670Y-54155079D01*
X111045883Y-54169329D01*
X111063607Y-54185393D01*
X111079671Y-54203117D01*
X111093921Y-54222330D01*
X111106218Y-54242847D01*
X111116446Y-54264471D01*
X111124504Y-54286993D01*
X111130316Y-54310197D01*
X111133826Y-54333858D01*
X111135000Y-54357750D01*
X111135000Y-55270250D01*
X111133826Y-55294142D01*
X111130316Y-55317803D01*
X111124504Y-55341007D01*
X111116446Y-55363529D01*
X111106218Y-55385153D01*
X111093921Y-55405670D01*
X111079671Y-55424883D01*
X111063607Y-55442607D01*
X111045883Y-55458671D01*
X111026670Y-55472921D01*
X111006153Y-55485218D01*
X110984529Y-55495446D01*
X110962007Y-55503504D01*
X110938803Y-55509316D01*
X110915142Y-55512826D01*
X110891250Y-55514000D01*
X110403750Y-55514000D01*
X110379858Y-55512826D01*
X110356197Y-55509316D01*
X110332993Y-55503504D01*
X110310471Y-55495446D01*
X110288847Y-55485218D01*
X110268330Y-55472921D01*
X110249117Y-55458671D01*
X110231393Y-55442607D01*
X110215329Y-55424883D01*
X110201079Y-55405670D01*
X110188782Y-55385153D01*
X110178554Y-55363529D01*
X110170496Y-55341007D01*
X110164684Y-55317803D01*
X110161174Y-55294142D01*
X110160000Y-55270250D01*
X110160000Y-54357750D01*
X110161174Y-54333858D01*
X110164684Y-54310197D01*
X110170496Y-54286993D01*
X110178554Y-54264471D01*
X110188782Y-54242847D01*
X110201079Y-54222330D01*
X110215329Y-54203117D01*
X110231393Y-54185393D01*
X110249117Y-54169329D01*
X110268330Y-54155079D01*
X110288847Y-54142782D01*
X110310471Y-54132554D01*
X110332993Y-54124496D01*
X110356197Y-54118684D01*
X110379858Y-54115174D01*
X110403750Y-54114000D01*
X110891250Y-54114000D01*
X110915142Y-54115174D01*
G37*
G36*
X110915142Y-40907174D02*
G01*
X110938803Y-40910684D01*
X110962007Y-40916496D01*
X110984529Y-40924554D01*
X111006153Y-40934782D01*
X111026670Y-40947079D01*
X111045883Y-40961329D01*
X111063607Y-40977393D01*
X111079671Y-40995117D01*
X111093921Y-41014330D01*
X111106218Y-41034847D01*
X111116446Y-41056471D01*
X111124504Y-41078993D01*
X111130316Y-41102197D01*
X111133826Y-41125858D01*
X111135000Y-41149750D01*
X111135000Y-42062250D01*
X111133826Y-42086142D01*
X111130316Y-42109803D01*
X111124504Y-42133007D01*
X111116446Y-42155529D01*
X111106218Y-42177153D01*
X111093921Y-42197670D01*
X111079671Y-42216883D01*
X111063607Y-42234607D01*
X111045883Y-42250671D01*
X111026670Y-42264921D01*
X111006153Y-42277218D01*
X110984529Y-42287446D01*
X110962007Y-42295504D01*
X110938803Y-42301316D01*
X110915142Y-42304826D01*
X110891250Y-42306000D01*
X110403750Y-42306000D01*
X110379858Y-42304826D01*
X110356197Y-42301316D01*
X110332993Y-42295504D01*
X110310471Y-42287446D01*
X110288847Y-42277218D01*
X110268330Y-42264921D01*
X110249117Y-42250671D01*
X110231393Y-42234607D01*
X110215329Y-42216883D01*
X110201079Y-42197670D01*
X110188782Y-42177153D01*
X110178554Y-42155529D01*
X110170496Y-42133007D01*
X110164684Y-42109803D01*
X110161174Y-42086142D01*
X110160000Y-42062250D01*
X110160000Y-41149750D01*
X110161174Y-41125858D01*
X110164684Y-41102197D01*
X110170496Y-41078993D01*
X110178554Y-41056471D01*
X110188782Y-41034847D01*
X110201079Y-41014330D01*
X110215329Y-40995117D01*
X110231393Y-40977393D01*
X110249117Y-40961329D01*
X110268330Y-40947079D01*
X110288847Y-40934782D01*
X110310471Y-40924554D01*
X110332993Y-40916496D01*
X110356197Y-40910684D01*
X110379858Y-40907174D01*
X110403750Y-40906000D01*
X110891250Y-40906000D01*
X110915142Y-40907174D01*
G37*
G36*
X109040142Y-40907174D02*
G01*
X109063803Y-40910684D01*
X109087007Y-40916496D01*
X109109529Y-40924554D01*
X109131153Y-40934782D01*
X109151670Y-40947079D01*
X109170883Y-40961329D01*
X109188607Y-40977393D01*
X109204671Y-40995117D01*
X109218921Y-41014330D01*
X109231218Y-41034847D01*
X109241446Y-41056471D01*
X109249504Y-41078993D01*
X109255316Y-41102197D01*
X109258826Y-41125858D01*
X109260000Y-41149750D01*
X109260000Y-42062250D01*
X109258826Y-42086142D01*
X109255316Y-42109803D01*
X109249504Y-42133007D01*
X109241446Y-42155529D01*
X109231218Y-42177153D01*
X109218921Y-42197670D01*
X109204671Y-42216883D01*
X109188607Y-42234607D01*
X109170883Y-42250671D01*
X109151670Y-42264921D01*
X109131153Y-42277218D01*
X109109529Y-42287446D01*
X109087007Y-42295504D01*
X109063803Y-42301316D01*
X109040142Y-42304826D01*
X109016250Y-42306000D01*
X108528750Y-42306000D01*
X108504858Y-42304826D01*
X108481197Y-42301316D01*
X108457993Y-42295504D01*
X108435471Y-42287446D01*
X108413847Y-42277218D01*
X108393330Y-42264921D01*
X108374117Y-42250671D01*
X108356393Y-42234607D01*
X108340329Y-42216883D01*
X108326079Y-42197670D01*
X108313782Y-42177153D01*
X108303554Y-42155529D01*
X108295496Y-42133007D01*
X108289684Y-42109803D01*
X108286174Y-42086142D01*
X108285000Y-42062250D01*
X108285000Y-41149750D01*
X108286174Y-41125858D01*
X108289684Y-41102197D01*
X108295496Y-41078993D01*
X108303554Y-41056471D01*
X108313782Y-41034847D01*
X108326079Y-41014330D01*
X108340329Y-40995117D01*
X108356393Y-40977393D01*
X108374117Y-40961329D01*
X108393330Y-40947079D01*
X108413847Y-40934782D01*
X108435471Y-40924554D01*
X108457993Y-40916496D01*
X108481197Y-40910684D01*
X108504858Y-40907174D01*
X108528750Y-40906000D01*
X109016250Y-40906000D01*
X109040142Y-40907174D01*
G37*
G36*
X114628142Y-58687174D02*
G01*
X114651803Y-58690684D01*
X114675007Y-58696496D01*
X114697529Y-58704554D01*
X114719153Y-58714782D01*
X114739670Y-58727079D01*
X114758883Y-58741329D01*
X114776607Y-58757393D01*
X114792671Y-58775117D01*
X114806921Y-58794330D01*
X114819218Y-58814847D01*
X114829446Y-58836471D01*
X114837504Y-58858993D01*
X114843316Y-58882197D01*
X114846826Y-58905858D01*
X114848000Y-58929750D01*
X114848000Y-59842250D01*
X114846826Y-59866142D01*
X114843316Y-59889803D01*
X114837504Y-59913007D01*
X114829446Y-59935529D01*
X114819218Y-59957153D01*
X114806921Y-59977670D01*
X114792671Y-59996883D01*
X114776607Y-60014607D01*
X114758883Y-60030671D01*
X114739670Y-60044921D01*
X114719153Y-60057218D01*
X114697529Y-60067446D01*
X114675007Y-60075504D01*
X114651803Y-60081316D01*
X114628142Y-60084826D01*
X114604250Y-60086000D01*
X114116750Y-60086000D01*
X114092858Y-60084826D01*
X114069197Y-60081316D01*
X114045993Y-60075504D01*
X114023471Y-60067446D01*
X114001847Y-60057218D01*
X113981330Y-60044921D01*
X113962117Y-60030671D01*
X113944393Y-60014607D01*
X113928329Y-59996883D01*
X113914079Y-59977670D01*
X113901782Y-59957153D01*
X113891554Y-59935529D01*
X113883496Y-59913007D01*
X113877684Y-59889803D01*
X113874174Y-59866142D01*
X113873000Y-59842250D01*
X113873000Y-58929750D01*
X113874174Y-58905858D01*
X113877684Y-58882197D01*
X113883496Y-58858993D01*
X113891554Y-58836471D01*
X113901782Y-58814847D01*
X113914079Y-58794330D01*
X113928329Y-58775117D01*
X113944393Y-58757393D01*
X113962117Y-58741329D01*
X113981330Y-58727079D01*
X114001847Y-58714782D01*
X114023471Y-58704554D01*
X114045993Y-58696496D01*
X114069197Y-58690684D01*
X114092858Y-58687174D01*
X114116750Y-58686000D01*
X114604250Y-58686000D01*
X114628142Y-58687174D01*
G37*
G36*
X116503142Y-58687174D02*
G01*
X116526803Y-58690684D01*
X116550007Y-58696496D01*
X116572529Y-58704554D01*
X116594153Y-58714782D01*
X116614670Y-58727079D01*
X116633883Y-58741329D01*
X116651607Y-58757393D01*
X116667671Y-58775117D01*
X116681921Y-58794330D01*
X116694218Y-58814847D01*
X116704446Y-58836471D01*
X116712504Y-58858993D01*
X116718316Y-58882197D01*
X116721826Y-58905858D01*
X116723000Y-58929750D01*
X116723000Y-59842250D01*
X116721826Y-59866142D01*
X116718316Y-59889803D01*
X116712504Y-59913007D01*
X116704446Y-59935529D01*
X116694218Y-59957153D01*
X116681921Y-59977670D01*
X116667671Y-59996883D01*
X116651607Y-60014607D01*
X116633883Y-60030671D01*
X116614670Y-60044921D01*
X116594153Y-60057218D01*
X116572529Y-60067446D01*
X116550007Y-60075504D01*
X116526803Y-60081316D01*
X116503142Y-60084826D01*
X116479250Y-60086000D01*
X115991750Y-60086000D01*
X115967858Y-60084826D01*
X115944197Y-60081316D01*
X115920993Y-60075504D01*
X115898471Y-60067446D01*
X115876847Y-60057218D01*
X115856330Y-60044921D01*
X115837117Y-60030671D01*
X115819393Y-60014607D01*
X115803329Y-59996883D01*
X115789079Y-59977670D01*
X115776782Y-59957153D01*
X115766554Y-59935529D01*
X115758496Y-59913007D01*
X115752684Y-59889803D01*
X115749174Y-59866142D01*
X115748000Y-59842250D01*
X115748000Y-58929750D01*
X115749174Y-58905858D01*
X115752684Y-58882197D01*
X115758496Y-58858993D01*
X115766554Y-58836471D01*
X115776782Y-58814847D01*
X115789079Y-58794330D01*
X115803329Y-58775117D01*
X115819393Y-58757393D01*
X115837117Y-58741329D01*
X115856330Y-58727079D01*
X115876847Y-58714782D01*
X115898471Y-58704554D01*
X115920993Y-58696496D01*
X115944197Y-58690684D01*
X115967858Y-58687174D01*
X115991750Y-58686000D01*
X116479250Y-58686000D01*
X116503142Y-58687174D01*
G37*
G36*
X116503142Y-36335174D02*
G01*
X116526803Y-36338684D01*
X116550007Y-36344496D01*
X116572529Y-36352554D01*
X116594153Y-36362782D01*
X116614670Y-36375079D01*
X116633883Y-36389329D01*
X116651607Y-36405393D01*
X116667671Y-36423117D01*
X116681921Y-36442330D01*
X116694218Y-36462847D01*
X116704446Y-36484471D01*
X116712504Y-36506993D01*
X116718316Y-36530197D01*
X116721826Y-36553858D01*
X116723000Y-36577750D01*
X116723000Y-37490250D01*
X116721826Y-37514142D01*
X116718316Y-37537803D01*
X116712504Y-37561007D01*
X116704446Y-37583529D01*
X116694218Y-37605153D01*
X116681921Y-37625670D01*
X116667671Y-37644883D01*
X116651607Y-37662607D01*
X116633883Y-37678671D01*
X116614670Y-37692921D01*
X116594153Y-37705218D01*
X116572529Y-37715446D01*
X116550007Y-37723504D01*
X116526803Y-37729316D01*
X116503142Y-37732826D01*
X116479250Y-37734000D01*
X115991750Y-37734000D01*
X115967858Y-37732826D01*
X115944197Y-37729316D01*
X115920993Y-37723504D01*
X115898471Y-37715446D01*
X115876847Y-37705218D01*
X115856330Y-37692921D01*
X115837117Y-37678671D01*
X115819393Y-37662607D01*
X115803329Y-37644883D01*
X115789079Y-37625670D01*
X115776782Y-37605153D01*
X115766554Y-37583529D01*
X115758496Y-37561007D01*
X115752684Y-37537803D01*
X115749174Y-37514142D01*
X115748000Y-37490250D01*
X115748000Y-36577750D01*
X115749174Y-36553858D01*
X115752684Y-36530197D01*
X115758496Y-36506993D01*
X115766554Y-36484471D01*
X115776782Y-36462847D01*
X115789079Y-36442330D01*
X115803329Y-36423117D01*
X115819393Y-36405393D01*
X115837117Y-36389329D01*
X115856330Y-36375079D01*
X115876847Y-36362782D01*
X115898471Y-36352554D01*
X115920993Y-36344496D01*
X115944197Y-36338684D01*
X115967858Y-36335174D01*
X115991750Y-36334000D01*
X116479250Y-36334000D01*
X116503142Y-36335174D01*
G37*
G36*
X114628142Y-36335174D02*
G01*
X114651803Y-36338684D01*
X114675007Y-36344496D01*
X114697529Y-36352554D01*
X114719153Y-36362782D01*
X114739670Y-36375079D01*
X114758883Y-36389329D01*
X114776607Y-36405393D01*
X114792671Y-36423117D01*
X114806921Y-36442330D01*
X114819218Y-36462847D01*
X114829446Y-36484471D01*
X114837504Y-36506993D01*
X114843316Y-36530197D01*
X114846826Y-36553858D01*
X114848000Y-36577750D01*
X114848000Y-37490250D01*
X114846826Y-37514142D01*
X114843316Y-37537803D01*
X114837504Y-37561007D01*
X114829446Y-37583529D01*
X114819218Y-37605153D01*
X114806921Y-37625670D01*
X114792671Y-37644883D01*
X114776607Y-37662607D01*
X114758883Y-37678671D01*
X114739670Y-37692921D01*
X114719153Y-37705218D01*
X114697529Y-37715446D01*
X114675007Y-37723504D01*
X114651803Y-37729316D01*
X114628142Y-37732826D01*
X114604250Y-37734000D01*
X114116750Y-37734000D01*
X114092858Y-37732826D01*
X114069197Y-37729316D01*
X114045993Y-37723504D01*
X114023471Y-37715446D01*
X114001847Y-37705218D01*
X113981330Y-37692921D01*
X113962117Y-37678671D01*
X113944393Y-37662607D01*
X113928329Y-37644883D01*
X113914079Y-37625670D01*
X113901782Y-37605153D01*
X113891554Y-37583529D01*
X113883496Y-37561007D01*
X113877684Y-37537803D01*
X113874174Y-37514142D01*
X113873000Y-37490250D01*
X113873000Y-36577750D01*
X113874174Y-36553858D01*
X113877684Y-36530197D01*
X113883496Y-36506993D01*
X113891554Y-36484471D01*
X113901782Y-36462847D01*
X113914079Y-36442330D01*
X113928329Y-36423117D01*
X113944393Y-36405393D01*
X113962117Y-36389329D01*
X113981330Y-36375079D01*
X114001847Y-36362782D01*
X114023471Y-36352554D01*
X114045993Y-36344496D01*
X114069197Y-36338684D01*
X114092858Y-36335174D01*
X114116750Y-36334000D01*
X114604250Y-36334000D01*
X114628142Y-36335174D01*
G37*
G36*
X148507142Y-84595174D02*
G01*
X148530803Y-84598684D01*
X148554007Y-84604496D01*
X148576529Y-84612554D01*
X148598153Y-84622782D01*
X148618670Y-84635079D01*
X148637883Y-84649329D01*
X148655607Y-84665393D01*
X148671671Y-84683117D01*
X148685921Y-84702330D01*
X148698218Y-84722847D01*
X148708446Y-84744471D01*
X148716504Y-84766993D01*
X148722316Y-84790197D01*
X148725826Y-84813858D01*
X148727000Y-84837750D01*
X148727000Y-85750250D01*
X148725826Y-85774142D01*
X148722316Y-85797803D01*
X148716504Y-85821007D01*
X148708446Y-85843529D01*
X148698218Y-85865153D01*
X148685921Y-85885670D01*
X148671671Y-85904883D01*
X148655607Y-85922607D01*
X148637883Y-85938671D01*
X148618670Y-85952921D01*
X148598153Y-85965218D01*
X148576529Y-85975446D01*
X148554007Y-85983504D01*
X148530803Y-85989316D01*
X148507142Y-85992826D01*
X148483250Y-85994000D01*
X147995750Y-85994000D01*
X147971858Y-85992826D01*
X147948197Y-85989316D01*
X147924993Y-85983504D01*
X147902471Y-85975446D01*
X147880847Y-85965218D01*
X147860330Y-85952921D01*
X147841117Y-85938671D01*
X147823393Y-85922607D01*
X147807329Y-85904883D01*
X147793079Y-85885670D01*
X147780782Y-85865153D01*
X147770554Y-85843529D01*
X147762496Y-85821007D01*
X147756684Y-85797803D01*
X147753174Y-85774142D01*
X147752000Y-85750250D01*
X147752000Y-84837750D01*
X147753174Y-84813858D01*
X147756684Y-84790197D01*
X147762496Y-84766993D01*
X147770554Y-84744471D01*
X147780782Y-84722847D01*
X147793079Y-84702330D01*
X147807329Y-84683117D01*
X147823393Y-84665393D01*
X147841117Y-84649329D01*
X147860330Y-84635079D01*
X147880847Y-84622782D01*
X147902471Y-84612554D01*
X147924993Y-84604496D01*
X147948197Y-84598684D01*
X147971858Y-84595174D01*
X147995750Y-84594000D01*
X148483250Y-84594000D01*
X148507142Y-84595174D01*
G37*
G36*
X146632142Y-84595174D02*
G01*
X146655803Y-84598684D01*
X146679007Y-84604496D01*
X146701529Y-84612554D01*
X146723153Y-84622782D01*
X146743670Y-84635079D01*
X146762883Y-84649329D01*
X146780607Y-84665393D01*
X146796671Y-84683117D01*
X146810921Y-84702330D01*
X146823218Y-84722847D01*
X146833446Y-84744471D01*
X146841504Y-84766993D01*
X146847316Y-84790197D01*
X146850826Y-84813858D01*
X146852000Y-84837750D01*
X146852000Y-85750250D01*
X146850826Y-85774142D01*
X146847316Y-85797803D01*
X146841504Y-85821007D01*
X146833446Y-85843529D01*
X146823218Y-85865153D01*
X146810921Y-85885670D01*
X146796671Y-85904883D01*
X146780607Y-85922607D01*
X146762883Y-85938671D01*
X146743670Y-85952921D01*
X146723153Y-85965218D01*
X146701529Y-85975446D01*
X146679007Y-85983504D01*
X146655803Y-85989316D01*
X146632142Y-85992826D01*
X146608250Y-85994000D01*
X146120750Y-85994000D01*
X146096858Y-85992826D01*
X146073197Y-85989316D01*
X146049993Y-85983504D01*
X146027471Y-85975446D01*
X146005847Y-85965218D01*
X145985330Y-85952921D01*
X145966117Y-85938671D01*
X145948393Y-85922607D01*
X145932329Y-85904883D01*
X145918079Y-85885670D01*
X145905782Y-85865153D01*
X145895554Y-85843529D01*
X145887496Y-85821007D01*
X145881684Y-85797803D01*
X145878174Y-85774142D01*
X145877000Y-85750250D01*
X145877000Y-84837750D01*
X145878174Y-84813858D01*
X145881684Y-84790197D01*
X145887496Y-84766993D01*
X145895554Y-84744471D01*
X145905782Y-84722847D01*
X145918079Y-84702330D01*
X145932329Y-84683117D01*
X145948393Y-84665393D01*
X145966117Y-84649329D01*
X145985330Y-84635079D01*
X146005847Y-84622782D01*
X146027471Y-84612554D01*
X146049993Y-84604496D01*
X146073197Y-84598684D01*
X146096858Y-84595174D01*
X146120750Y-84594000D01*
X146608250Y-84594000D01*
X146632142Y-84595174D01*
G37*
G36*
X151204142Y-84595174D02*
G01*
X151227803Y-84598684D01*
X151251007Y-84604496D01*
X151273529Y-84612554D01*
X151295153Y-84622782D01*
X151315670Y-84635079D01*
X151334883Y-84649329D01*
X151352607Y-84665393D01*
X151368671Y-84683117D01*
X151382921Y-84702330D01*
X151395218Y-84722847D01*
X151405446Y-84744471D01*
X151413504Y-84766993D01*
X151419316Y-84790197D01*
X151422826Y-84813858D01*
X151424000Y-84837750D01*
X151424000Y-85750250D01*
X151422826Y-85774142D01*
X151419316Y-85797803D01*
X151413504Y-85821007D01*
X151405446Y-85843529D01*
X151395218Y-85865153D01*
X151382921Y-85885670D01*
X151368671Y-85904883D01*
X151352607Y-85922607D01*
X151334883Y-85938671D01*
X151315670Y-85952921D01*
X151295153Y-85965218D01*
X151273529Y-85975446D01*
X151251007Y-85983504D01*
X151227803Y-85989316D01*
X151204142Y-85992826D01*
X151180250Y-85994000D01*
X150692750Y-85994000D01*
X150668858Y-85992826D01*
X150645197Y-85989316D01*
X150621993Y-85983504D01*
X150599471Y-85975446D01*
X150577847Y-85965218D01*
X150557330Y-85952921D01*
X150538117Y-85938671D01*
X150520393Y-85922607D01*
X150504329Y-85904883D01*
X150490079Y-85885670D01*
X150477782Y-85865153D01*
X150467554Y-85843529D01*
X150459496Y-85821007D01*
X150453684Y-85797803D01*
X150450174Y-85774142D01*
X150449000Y-85750250D01*
X150449000Y-84837750D01*
X150450174Y-84813858D01*
X150453684Y-84790197D01*
X150459496Y-84766993D01*
X150467554Y-84744471D01*
X150477782Y-84722847D01*
X150490079Y-84702330D01*
X150504329Y-84683117D01*
X150520393Y-84665393D01*
X150538117Y-84649329D01*
X150557330Y-84635079D01*
X150577847Y-84622782D01*
X150599471Y-84612554D01*
X150621993Y-84604496D01*
X150645197Y-84598684D01*
X150668858Y-84595174D01*
X150692750Y-84594000D01*
X151180250Y-84594000D01*
X151204142Y-84595174D01*
G37*
G36*
X153079142Y-84595174D02*
G01*
X153102803Y-84598684D01*
X153126007Y-84604496D01*
X153148529Y-84612554D01*
X153170153Y-84622782D01*
X153190670Y-84635079D01*
X153209883Y-84649329D01*
X153227607Y-84665393D01*
X153243671Y-84683117D01*
X153257921Y-84702330D01*
X153270218Y-84722847D01*
X153280446Y-84744471D01*
X153288504Y-84766993D01*
X153294316Y-84790197D01*
X153297826Y-84813858D01*
X153299000Y-84837750D01*
X153299000Y-85750250D01*
X153297826Y-85774142D01*
X153294316Y-85797803D01*
X153288504Y-85821007D01*
X153280446Y-85843529D01*
X153270218Y-85865153D01*
X153257921Y-85885670D01*
X153243671Y-85904883D01*
X153227607Y-85922607D01*
X153209883Y-85938671D01*
X153190670Y-85952921D01*
X153170153Y-85965218D01*
X153148529Y-85975446D01*
X153126007Y-85983504D01*
X153102803Y-85989316D01*
X153079142Y-85992826D01*
X153055250Y-85994000D01*
X152567750Y-85994000D01*
X152543858Y-85992826D01*
X152520197Y-85989316D01*
X152496993Y-85983504D01*
X152474471Y-85975446D01*
X152452847Y-85965218D01*
X152432330Y-85952921D01*
X152413117Y-85938671D01*
X152395393Y-85922607D01*
X152379329Y-85904883D01*
X152365079Y-85885670D01*
X152352782Y-85865153D01*
X152342554Y-85843529D01*
X152334496Y-85821007D01*
X152328684Y-85797803D01*
X152325174Y-85774142D01*
X152324000Y-85750250D01*
X152324000Y-84837750D01*
X152325174Y-84813858D01*
X152328684Y-84790197D01*
X152334496Y-84766993D01*
X152342554Y-84744471D01*
X152352782Y-84722847D01*
X152365079Y-84702330D01*
X152379329Y-84683117D01*
X152395393Y-84665393D01*
X152413117Y-84649329D01*
X152432330Y-84635079D01*
X152452847Y-84622782D01*
X152474471Y-84612554D01*
X152496993Y-84604496D01*
X152520197Y-84598684D01*
X152543858Y-84595174D01*
X152567750Y-84594000D01*
X153055250Y-84594000D01*
X153079142Y-84595174D01*
G37*
G36*
X143935142Y-84595174D02*
G01*
X143958803Y-84598684D01*
X143982007Y-84604496D01*
X144004529Y-84612554D01*
X144026153Y-84622782D01*
X144046670Y-84635079D01*
X144065883Y-84649329D01*
X144083607Y-84665393D01*
X144099671Y-84683117D01*
X144113921Y-84702330D01*
X144126218Y-84722847D01*
X144136446Y-84744471D01*
X144144504Y-84766993D01*
X144150316Y-84790197D01*
X144153826Y-84813858D01*
X144155000Y-84837750D01*
X144155000Y-85750250D01*
X144153826Y-85774142D01*
X144150316Y-85797803D01*
X144144504Y-85821007D01*
X144136446Y-85843529D01*
X144126218Y-85865153D01*
X144113921Y-85885670D01*
X144099671Y-85904883D01*
X144083607Y-85922607D01*
X144065883Y-85938671D01*
X144046670Y-85952921D01*
X144026153Y-85965218D01*
X144004529Y-85975446D01*
X143982007Y-85983504D01*
X143958803Y-85989316D01*
X143935142Y-85992826D01*
X143911250Y-85994000D01*
X143423750Y-85994000D01*
X143399858Y-85992826D01*
X143376197Y-85989316D01*
X143352993Y-85983504D01*
X143330471Y-85975446D01*
X143308847Y-85965218D01*
X143288330Y-85952921D01*
X143269117Y-85938671D01*
X143251393Y-85922607D01*
X143235329Y-85904883D01*
X143221079Y-85885670D01*
X143208782Y-85865153D01*
X143198554Y-85843529D01*
X143190496Y-85821007D01*
X143184684Y-85797803D01*
X143181174Y-85774142D01*
X143180000Y-85750250D01*
X143180000Y-84837750D01*
X143181174Y-84813858D01*
X143184684Y-84790197D01*
X143190496Y-84766993D01*
X143198554Y-84744471D01*
X143208782Y-84722847D01*
X143221079Y-84702330D01*
X143235329Y-84683117D01*
X143251393Y-84665393D01*
X143269117Y-84649329D01*
X143288330Y-84635079D01*
X143308847Y-84622782D01*
X143330471Y-84612554D01*
X143352993Y-84604496D01*
X143376197Y-84598684D01*
X143399858Y-84595174D01*
X143423750Y-84594000D01*
X143911250Y-84594000D01*
X143935142Y-84595174D01*
G37*
G36*
X142060142Y-84595174D02*
G01*
X142083803Y-84598684D01*
X142107007Y-84604496D01*
X142129529Y-84612554D01*
X142151153Y-84622782D01*
X142171670Y-84635079D01*
X142190883Y-84649329D01*
X142208607Y-84665393D01*
X142224671Y-84683117D01*
X142238921Y-84702330D01*
X142251218Y-84722847D01*
X142261446Y-84744471D01*
X142269504Y-84766993D01*
X142275316Y-84790197D01*
X142278826Y-84813858D01*
X142280000Y-84837750D01*
X142280000Y-85750250D01*
X142278826Y-85774142D01*
X142275316Y-85797803D01*
X142269504Y-85821007D01*
X142261446Y-85843529D01*
X142251218Y-85865153D01*
X142238921Y-85885670D01*
X142224671Y-85904883D01*
X142208607Y-85922607D01*
X142190883Y-85938671D01*
X142171670Y-85952921D01*
X142151153Y-85965218D01*
X142129529Y-85975446D01*
X142107007Y-85983504D01*
X142083803Y-85989316D01*
X142060142Y-85992826D01*
X142036250Y-85994000D01*
X141548750Y-85994000D01*
X141524858Y-85992826D01*
X141501197Y-85989316D01*
X141477993Y-85983504D01*
X141455471Y-85975446D01*
X141433847Y-85965218D01*
X141413330Y-85952921D01*
X141394117Y-85938671D01*
X141376393Y-85922607D01*
X141360329Y-85904883D01*
X141346079Y-85885670D01*
X141333782Y-85865153D01*
X141323554Y-85843529D01*
X141315496Y-85821007D01*
X141309684Y-85797803D01*
X141306174Y-85774142D01*
X141305000Y-85750250D01*
X141305000Y-84837750D01*
X141306174Y-84813858D01*
X141309684Y-84790197D01*
X141315496Y-84766993D01*
X141323554Y-84744471D01*
X141333782Y-84722847D01*
X141346079Y-84702330D01*
X141360329Y-84683117D01*
X141376393Y-84665393D01*
X141394117Y-84649329D01*
X141413330Y-84635079D01*
X141433847Y-84622782D01*
X141455471Y-84612554D01*
X141477993Y-84604496D01*
X141501197Y-84598684D01*
X141524858Y-84595174D01*
X141548750Y-84594000D01*
X142036250Y-84594000D01*
X142060142Y-84595174D01*
G37*
G36*
X119200142Y-38875174D02*
G01*
X119223803Y-38878684D01*
X119247007Y-38884496D01*
X119269529Y-38892554D01*
X119291153Y-38902782D01*
X119311670Y-38915079D01*
X119330883Y-38929329D01*
X119348607Y-38945393D01*
X119364671Y-38963117D01*
X119378921Y-38982330D01*
X119391218Y-39002847D01*
X119401446Y-39024471D01*
X119409504Y-39046993D01*
X119415316Y-39070197D01*
X119418826Y-39093858D01*
X119420000Y-39117750D01*
X119420000Y-40030250D01*
X119418826Y-40054142D01*
X119415316Y-40077803D01*
X119409504Y-40101007D01*
X119401446Y-40123529D01*
X119391218Y-40145153D01*
X119378921Y-40165670D01*
X119364671Y-40184883D01*
X119348607Y-40202607D01*
X119330883Y-40218671D01*
X119311670Y-40232921D01*
X119291153Y-40245218D01*
X119269529Y-40255446D01*
X119247007Y-40263504D01*
X119223803Y-40269316D01*
X119200142Y-40272826D01*
X119176250Y-40274000D01*
X118688750Y-40274000D01*
X118664858Y-40272826D01*
X118641197Y-40269316D01*
X118617993Y-40263504D01*
X118595471Y-40255446D01*
X118573847Y-40245218D01*
X118553330Y-40232921D01*
X118534117Y-40218671D01*
X118516393Y-40202607D01*
X118500329Y-40184883D01*
X118486079Y-40165670D01*
X118473782Y-40145153D01*
X118463554Y-40123529D01*
X118455496Y-40101007D01*
X118449684Y-40077803D01*
X118446174Y-40054142D01*
X118445000Y-40030250D01*
X118445000Y-39117750D01*
X118446174Y-39093858D01*
X118449684Y-39070197D01*
X118455496Y-39046993D01*
X118463554Y-39024471D01*
X118473782Y-39002847D01*
X118486079Y-38982330D01*
X118500329Y-38963117D01*
X118516393Y-38945393D01*
X118534117Y-38929329D01*
X118553330Y-38915079D01*
X118573847Y-38902782D01*
X118595471Y-38892554D01*
X118617993Y-38884496D01*
X118641197Y-38878684D01*
X118664858Y-38875174D01*
X118688750Y-38874000D01*
X119176250Y-38874000D01*
X119200142Y-38875174D01*
G37*
G36*
X121075142Y-38875174D02*
G01*
X121098803Y-38878684D01*
X121122007Y-38884496D01*
X121144529Y-38892554D01*
X121166153Y-38902782D01*
X121186670Y-38915079D01*
X121205883Y-38929329D01*
X121223607Y-38945393D01*
X121239671Y-38963117D01*
X121253921Y-38982330D01*
X121266218Y-39002847D01*
X121276446Y-39024471D01*
X121284504Y-39046993D01*
X121290316Y-39070197D01*
X121293826Y-39093858D01*
X121295000Y-39117750D01*
X121295000Y-40030250D01*
X121293826Y-40054142D01*
X121290316Y-40077803D01*
X121284504Y-40101007D01*
X121276446Y-40123529D01*
X121266218Y-40145153D01*
X121253921Y-40165670D01*
X121239671Y-40184883D01*
X121223607Y-40202607D01*
X121205883Y-40218671D01*
X121186670Y-40232921D01*
X121166153Y-40245218D01*
X121144529Y-40255446D01*
X121122007Y-40263504D01*
X121098803Y-40269316D01*
X121075142Y-40272826D01*
X121051250Y-40274000D01*
X120563750Y-40274000D01*
X120539858Y-40272826D01*
X120516197Y-40269316D01*
X120492993Y-40263504D01*
X120470471Y-40255446D01*
X120448847Y-40245218D01*
X120428330Y-40232921D01*
X120409117Y-40218671D01*
X120391393Y-40202607D01*
X120375329Y-40184883D01*
X120361079Y-40165670D01*
X120348782Y-40145153D01*
X120338554Y-40123529D01*
X120330496Y-40101007D01*
X120324684Y-40077803D01*
X120321174Y-40054142D01*
X120320000Y-40030250D01*
X120320000Y-39117750D01*
X120321174Y-39093858D01*
X120324684Y-39070197D01*
X120330496Y-39046993D01*
X120338554Y-39024471D01*
X120348782Y-39002847D01*
X120361079Y-38982330D01*
X120375329Y-38963117D01*
X120391393Y-38945393D01*
X120409117Y-38929329D01*
X120428330Y-38915079D01*
X120448847Y-38902782D01*
X120470471Y-38892554D01*
X120492993Y-38884496D01*
X120516197Y-38878684D01*
X120539858Y-38875174D01*
X120563750Y-38874000D01*
X121051250Y-38874000D01*
X121075142Y-38875174D01*
G37*
G36*
X121075142Y-56147174D02*
G01*
X121098803Y-56150684D01*
X121122007Y-56156496D01*
X121144529Y-56164554D01*
X121166153Y-56174782D01*
X121186670Y-56187079D01*
X121205883Y-56201329D01*
X121223607Y-56217393D01*
X121239671Y-56235117D01*
X121253921Y-56254330D01*
X121266218Y-56274847D01*
X121276446Y-56296471D01*
X121284504Y-56318993D01*
X121290316Y-56342197D01*
X121293826Y-56365858D01*
X121295000Y-56389750D01*
X121295000Y-57302250D01*
X121293826Y-57326142D01*
X121290316Y-57349803D01*
X121284504Y-57373007D01*
X121276446Y-57395529D01*
X121266218Y-57417153D01*
X121253921Y-57437670D01*
X121239671Y-57456883D01*
X121223607Y-57474607D01*
X121205883Y-57490671D01*
X121186670Y-57504921D01*
X121166153Y-57517218D01*
X121144529Y-57527446D01*
X121122007Y-57535504D01*
X121098803Y-57541316D01*
X121075142Y-57544826D01*
X121051250Y-57546000D01*
X120563750Y-57546000D01*
X120539858Y-57544826D01*
X120516197Y-57541316D01*
X120492993Y-57535504D01*
X120470471Y-57527446D01*
X120448847Y-57517218D01*
X120428330Y-57504921D01*
X120409117Y-57490671D01*
X120391393Y-57474607D01*
X120375329Y-57456883D01*
X120361079Y-57437670D01*
X120348782Y-57417153D01*
X120338554Y-57395529D01*
X120330496Y-57373007D01*
X120324684Y-57349803D01*
X120321174Y-57326142D01*
X120320000Y-57302250D01*
X120320000Y-56389750D01*
X120321174Y-56365858D01*
X120324684Y-56342197D01*
X120330496Y-56318993D01*
X120338554Y-56296471D01*
X120348782Y-56274847D01*
X120361079Y-56254330D01*
X120375329Y-56235117D01*
X120391393Y-56217393D01*
X120409117Y-56201329D01*
X120428330Y-56187079D01*
X120448847Y-56174782D01*
X120470471Y-56164554D01*
X120492993Y-56156496D01*
X120516197Y-56150684D01*
X120539858Y-56147174D01*
X120563750Y-56146000D01*
X121051250Y-56146000D01*
X121075142Y-56147174D01*
G37*
G36*
X119200142Y-56147174D02*
G01*
X119223803Y-56150684D01*
X119247007Y-56156496D01*
X119269529Y-56164554D01*
X119291153Y-56174782D01*
X119311670Y-56187079D01*
X119330883Y-56201329D01*
X119348607Y-56217393D01*
X119364671Y-56235117D01*
X119378921Y-56254330D01*
X119391218Y-56274847D01*
X119401446Y-56296471D01*
X119409504Y-56318993D01*
X119415316Y-56342197D01*
X119418826Y-56365858D01*
X119420000Y-56389750D01*
X119420000Y-57302250D01*
X119418826Y-57326142D01*
X119415316Y-57349803D01*
X119409504Y-57373007D01*
X119401446Y-57395529D01*
X119391218Y-57417153D01*
X119378921Y-57437670D01*
X119364671Y-57456883D01*
X119348607Y-57474607D01*
X119330883Y-57490671D01*
X119311670Y-57504921D01*
X119291153Y-57517218D01*
X119269529Y-57527446D01*
X119247007Y-57535504D01*
X119223803Y-57541316D01*
X119200142Y-57544826D01*
X119176250Y-57546000D01*
X118688750Y-57546000D01*
X118664858Y-57544826D01*
X118641197Y-57541316D01*
X118617993Y-57535504D01*
X118595471Y-57527446D01*
X118573847Y-57517218D01*
X118553330Y-57504921D01*
X118534117Y-57490671D01*
X118516393Y-57474607D01*
X118500329Y-57456883D01*
X118486079Y-57437670D01*
X118473782Y-57417153D01*
X118463554Y-57395529D01*
X118455496Y-57373007D01*
X118449684Y-57349803D01*
X118446174Y-57326142D01*
X118445000Y-57302250D01*
X118445000Y-56389750D01*
X118446174Y-56365858D01*
X118449684Y-56342197D01*
X118455496Y-56318993D01*
X118463554Y-56296471D01*
X118473782Y-56274847D01*
X118486079Y-56254330D01*
X118500329Y-56235117D01*
X118516393Y-56217393D01*
X118534117Y-56201329D01*
X118553330Y-56187079D01*
X118573847Y-56174782D01*
X118595471Y-56164554D01*
X118617993Y-56156496D01*
X118641197Y-56150684D01*
X118664858Y-56147174D01*
X118688750Y-56146000D01*
X119176250Y-56146000D01*
X119200142Y-56147174D01*
G37*
G36*
X163493142Y-103772174D02*
G01*
X163516803Y-103775684D01*
X163540007Y-103781496D01*
X163562529Y-103789554D01*
X163584153Y-103799782D01*
X163604670Y-103812079D01*
X163623883Y-103826329D01*
X163641607Y-103842393D01*
X163657671Y-103860117D01*
X163671921Y-103879330D01*
X163684218Y-103899847D01*
X163694446Y-103921471D01*
X163702504Y-103943993D01*
X163708316Y-103967197D01*
X163711826Y-103990858D01*
X163713000Y-104014750D01*
X163713000Y-104927250D01*
X163711826Y-104951142D01*
X163708316Y-104974803D01*
X163702504Y-104998007D01*
X163694446Y-105020529D01*
X163684218Y-105042153D01*
X163671921Y-105062670D01*
X163657671Y-105081883D01*
X163641607Y-105099607D01*
X163623883Y-105115671D01*
X163604670Y-105129921D01*
X163584153Y-105142218D01*
X163562529Y-105152446D01*
X163540007Y-105160504D01*
X163516803Y-105166316D01*
X163493142Y-105169826D01*
X163469250Y-105171000D01*
X162981750Y-105171000D01*
X162957858Y-105169826D01*
X162934197Y-105166316D01*
X162910993Y-105160504D01*
X162888471Y-105152446D01*
X162866847Y-105142218D01*
X162846330Y-105129921D01*
X162827117Y-105115671D01*
X162809393Y-105099607D01*
X162793329Y-105081883D01*
X162779079Y-105062670D01*
X162766782Y-105042153D01*
X162756554Y-105020529D01*
X162748496Y-104998007D01*
X162742684Y-104974803D01*
X162739174Y-104951142D01*
X162738000Y-104927250D01*
X162738000Y-104014750D01*
X162739174Y-103990858D01*
X162742684Y-103967197D01*
X162748496Y-103943993D01*
X162756554Y-103921471D01*
X162766782Y-103899847D01*
X162779079Y-103879330D01*
X162793329Y-103860117D01*
X162809393Y-103842393D01*
X162827117Y-103826329D01*
X162846330Y-103812079D01*
X162866847Y-103799782D01*
X162888471Y-103789554D01*
X162910993Y-103781496D01*
X162934197Y-103775684D01*
X162957858Y-103772174D01*
X162981750Y-103771000D01*
X163469250Y-103771000D01*
X163493142Y-103772174D01*
G37*
G36*
X161618142Y-103772174D02*
G01*
X161641803Y-103775684D01*
X161665007Y-103781496D01*
X161687529Y-103789554D01*
X161709153Y-103799782D01*
X161729670Y-103812079D01*
X161748883Y-103826329D01*
X161766607Y-103842393D01*
X161782671Y-103860117D01*
X161796921Y-103879330D01*
X161809218Y-103899847D01*
X161819446Y-103921471D01*
X161827504Y-103943993D01*
X161833316Y-103967197D01*
X161836826Y-103990858D01*
X161838000Y-104014750D01*
X161838000Y-104927250D01*
X161836826Y-104951142D01*
X161833316Y-104974803D01*
X161827504Y-104998007D01*
X161819446Y-105020529D01*
X161809218Y-105042153D01*
X161796921Y-105062670D01*
X161782671Y-105081883D01*
X161766607Y-105099607D01*
X161748883Y-105115671D01*
X161729670Y-105129921D01*
X161709153Y-105142218D01*
X161687529Y-105152446D01*
X161665007Y-105160504D01*
X161641803Y-105166316D01*
X161618142Y-105169826D01*
X161594250Y-105171000D01*
X161106750Y-105171000D01*
X161082858Y-105169826D01*
X161059197Y-105166316D01*
X161035993Y-105160504D01*
X161013471Y-105152446D01*
X160991847Y-105142218D01*
X160971330Y-105129921D01*
X160952117Y-105115671D01*
X160934393Y-105099607D01*
X160918329Y-105081883D01*
X160904079Y-105062670D01*
X160891782Y-105042153D01*
X160881554Y-105020529D01*
X160873496Y-104998007D01*
X160867684Y-104974803D01*
X160864174Y-104951142D01*
X160863000Y-104927250D01*
X160863000Y-104014750D01*
X160864174Y-103990858D01*
X160867684Y-103967197D01*
X160873496Y-103943993D01*
X160881554Y-103921471D01*
X160891782Y-103899847D01*
X160904079Y-103879330D01*
X160918329Y-103860117D01*
X160934393Y-103842393D01*
X160952117Y-103826329D01*
X160971330Y-103812079D01*
X160991847Y-103799782D01*
X161013471Y-103789554D01*
X161035993Y-103781496D01*
X161059197Y-103775684D01*
X161082858Y-103772174D01*
X161106750Y-103771000D01*
X161594250Y-103771000D01*
X161618142Y-103772174D01*
G37*
G36*
X132269142Y-95567174D02*
G01*
X132292803Y-95570684D01*
X132316007Y-95576496D01*
X132338529Y-95584554D01*
X132360153Y-95594782D01*
X132380670Y-95607079D01*
X132399883Y-95621329D01*
X132417607Y-95637393D01*
X132433671Y-95655117D01*
X132447921Y-95674330D01*
X132460218Y-95694847D01*
X132470446Y-95716471D01*
X132478504Y-95738993D01*
X132484316Y-95762197D01*
X132487826Y-95785858D01*
X132489000Y-95809750D01*
X132489000Y-96722250D01*
X132487826Y-96746142D01*
X132484316Y-96769803D01*
X132478504Y-96793007D01*
X132470446Y-96815529D01*
X132460218Y-96837153D01*
X132447921Y-96857670D01*
X132433671Y-96876883D01*
X132417607Y-96894607D01*
X132399883Y-96910671D01*
X132380670Y-96924921D01*
X132360153Y-96937218D01*
X132338529Y-96947446D01*
X132316007Y-96955504D01*
X132292803Y-96961316D01*
X132269142Y-96964826D01*
X132245250Y-96966000D01*
X131757750Y-96966000D01*
X131733858Y-96964826D01*
X131710197Y-96961316D01*
X131686993Y-96955504D01*
X131664471Y-96947446D01*
X131642847Y-96937218D01*
X131622330Y-96924921D01*
X131603117Y-96910671D01*
X131585393Y-96894607D01*
X131569329Y-96876883D01*
X131555079Y-96857670D01*
X131542782Y-96837153D01*
X131532554Y-96815529D01*
X131524496Y-96793007D01*
X131518684Y-96769803D01*
X131515174Y-96746142D01*
X131514000Y-96722250D01*
X131514000Y-95809750D01*
X131515174Y-95785858D01*
X131518684Y-95762197D01*
X131524496Y-95738993D01*
X131532554Y-95716471D01*
X131542782Y-95694847D01*
X131555079Y-95674330D01*
X131569329Y-95655117D01*
X131585393Y-95637393D01*
X131603117Y-95621329D01*
X131622330Y-95607079D01*
X131642847Y-95594782D01*
X131664471Y-95584554D01*
X131686993Y-95576496D01*
X131710197Y-95570684D01*
X131733858Y-95567174D01*
X131757750Y-95566000D01*
X132245250Y-95566000D01*
X132269142Y-95567174D01*
G37*
G36*
X130394142Y-95567174D02*
G01*
X130417803Y-95570684D01*
X130441007Y-95576496D01*
X130463529Y-95584554D01*
X130485153Y-95594782D01*
X130505670Y-95607079D01*
X130524883Y-95621329D01*
X130542607Y-95637393D01*
X130558671Y-95655117D01*
X130572921Y-95674330D01*
X130585218Y-95694847D01*
X130595446Y-95716471D01*
X130603504Y-95738993D01*
X130609316Y-95762197D01*
X130612826Y-95785858D01*
X130614000Y-95809750D01*
X130614000Y-96722250D01*
X130612826Y-96746142D01*
X130609316Y-96769803D01*
X130603504Y-96793007D01*
X130595446Y-96815529D01*
X130585218Y-96837153D01*
X130572921Y-96857670D01*
X130558671Y-96876883D01*
X130542607Y-96894607D01*
X130524883Y-96910671D01*
X130505670Y-96924921D01*
X130485153Y-96937218D01*
X130463529Y-96947446D01*
X130441007Y-96955504D01*
X130417803Y-96961316D01*
X130394142Y-96964826D01*
X130370250Y-96966000D01*
X129882750Y-96966000D01*
X129858858Y-96964826D01*
X129835197Y-96961316D01*
X129811993Y-96955504D01*
X129789471Y-96947446D01*
X129767847Y-96937218D01*
X129747330Y-96924921D01*
X129728117Y-96910671D01*
X129710393Y-96894607D01*
X129694329Y-96876883D01*
X129680079Y-96857670D01*
X129667782Y-96837153D01*
X129657554Y-96815529D01*
X129649496Y-96793007D01*
X129643684Y-96769803D01*
X129640174Y-96746142D01*
X129639000Y-96722250D01*
X129639000Y-95809750D01*
X129640174Y-95785858D01*
X129643684Y-95762197D01*
X129649496Y-95738993D01*
X129657554Y-95716471D01*
X129667782Y-95694847D01*
X129680079Y-95674330D01*
X129694329Y-95655117D01*
X129710393Y-95637393D01*
X129728117Y-95621329D01*
X129747330Y-95607079D01*
X129767847Y-95594782D01*
X129789471Y-95584554D01*
X129811993Y-95576496D01*
X129835197Y-95570684D01*
X129858858Y-95567174D01*
X129882750Y-95566000D01*
X130370250Y-95566000D01*
X130394142Y-95567174D01*
G37*
G36*
X119780703Y-49710722D02*
G01*
X119795264Y-49712882D01*
X119809543Y-49716459D01*
X119823403Y-49721418D01*
X119836710Y-49727712D01*
X119849336Y-49735280D01*
X119861159Y-49744048D01*
X119872066Y-49753934D01*
X119881952Y-49764841D01*
X119890720Y-49776664D01*
X119898288Y-49789290D01*
X119904582Y-49802597D01*
X119909541Y-49816457D01*
X119913118Y-49830736D01*
X119915278Y-49845297D01*
X119916000Y-49860000D01*
X119916000Y-51510000D01*
X119915278Y-51524703D01*
X119913118Y-51539264D01*
X119909541Y-51553543D01*
X119904582Y-51567403D01*
X119898288Y-51580710D01*
X119890720Y-51593336D01*
X119881952Y-51605159D01*
X119872066Y-51616066D01*
X119861159Y-51625952D01*
X119849336Y-51634720D01*
X119836710Y-51642288D01*
X119823403Y-51648582D01*
X119809543Y-51653541D01*
X119795264Y-51657118D01*
X119780703Y-51659278D01*
X119766000Y-51660000D01*
X119466000Y-51660000D01*
X119451297Y-51659278D01*
X119436736Y-51657118D01*
X119422457Y-51653541D01*
X119408597Y-51648582D01*
X119395290Y-51642288D01*
X119382664Y-51634720D01*
X119370841Y-51625952D01*
X119359934Y-51616066D01*
X119350048Y-51605159D01*
X119341280Y-51593336D01*
X119333712Y-51580710D01*
X119327418Y-51567403D01*
X119322459Y-51553543D01*
X119318882Y-51539264D01*
X119316722Y-51524703D01*
X119316000Y-51510000D01*
X119316000Y-49860000D01*
X119316722Y-49845297D01*
X119318882Y-49830736D01*
X119322459Y-49816457D01*
X119327418Y-49802597D01*
X119333712Y-49789290D01*
X119341280Y-49776664D01*
X119350048Y-49764841D01*
X119359934Y-49753934D01*
X119370841Y-49744048D01*
X119382664Y-49735280D01*
X119395290Y-49727712D01*
X119408597Y-49721418D01*
X119422457Y-49716459D01*
X119436736Y-49712882D01*
X119451297Y-49710722D01*
X119466000Y-49710000D01*
X119766000Y-49710000D01*
X119780703Y-49710722D01*
G37*
G36*
X121050703Y-49710722D02*
G01*
X121065264Y-49712882D01*
X121079543Y-49716459D01*
X121093403Y-49721418D01*
X121106710Y-49727712D01*
X121119336Y-49735280D01*
X121131159Y-49744048D01*
X121142066Y-49753934D01*
X121151952Y-49764841D01*
X121160720Y-49776664D01*
X121168288Y-49789290D01*
X121174582Y-49802597D01*
X121179541Y-49816457D01*
X121183118Y-49830736D01*
X121185278Y-49845297D01*
X121186000Y-49860000D01*
X121186000Y-51510000D01*
X121185278Y-51524703D01*
X121183118Y-51539264D01*
X121179541Y-51553543D01*
X121174582Y-51567403D01*
X121168288Y-51580710D01*
X121160720Y-51593336D01*
X121151952Y-51605159D01*
X121142066Y-51616066D01*
X121131159Y-51625952D01*
X121119336Y-51634720D01*
X121106710Y-51642288D01*
X121093403Y-51648582D01*
X121079543Y-51653541D01*
X121065264Y-51657118D01*
X121050703Y-51659278D01*
X121036000Y-51660000D01*
X120736000Y-51660000D01*
X120721297Y-51659278D01*
X120706736Y-51657118D01*
X120692457Y-51653541D01*
X120678597Y-51648582D01*
X120665290Y-51642288D01*
X120652664Y-51634720D01*
X120640841Y-51625952D01*
X120629934Y-51616066D01*
X120620048Y-51605159D01*
X120611280Y-51593336D01*
X120603712Y-51580710D01*
X120597418Y-51567403D01*
X120592459Y-51553543D01*
X120588882Y-51539264D01*
X120586722Y-51524703D01*
X120586000Y-51510000D01*
X120586000Y-49860000D01*
X120586722Y-49845297D01*
X120588882Y-49830736D01*
X120592459Y-49816457D01*
X120597418Y-49802597D01*
X120603712Y-49789290D01*
X120611280Y-49776664D01*
X120620048Y-49764841D01*
X120629934Y-49753934D01*
X120640841Y-49744048D01*
X120652664Y-49735280D01*
X120665290Y-49727712D01*
X120678597Y-49721418D01*
X120692457Y-49716459D01*
X120706736Y-49712882D01*
X120721297Y-49710722D01*
X120736000Y-49710000D01*
X121036000Y-49710000D01*
X121050703Y-49710722D01*
G37*
G36*
X122320703Y-49710722D02*
G01*
X122335264Y-49712882D01*
X122349543Y-49716459D01*
X122363403Y-49721418D01*
X122376710Y-49727712D01*
X122389336Y-49735280D01*
X122401159Y-49744048D01*
X122412066Y-49753934D01*
X122421952Y-49764841D01*
X122430720Y-49776664D01*
X122438288Y-49789290D01*
X122444582Y-49802597D01*
X122449541Y-49816457D01*
X122453118Y-49830736D01*
X122455278Y-49845297D01*
X122456000Y-49860000D01*
X122456000Y-51510000D01*
X122455278Y-51524703D01*
X122453118Y-51539264D01*
X122449541Y-51553543D01*
X122444582Y-51567403D01*
X122438288Y-51580710D01*
X122430720Y-51593336D01*
X122421952Y-51605159D01*
X122412066Y-51616066D01*
X122401159Y-51625952D01*
X122389336Y-51634720D01*
X122376710Y-51642288D01*
X122363403Y-51648582D01*
X122349543Y-51653541D01*
X122335264Y-51657118D01*
X122320703Y-51659278D01*
X122306000Y-51660000D01*
X122006000Y-51660000D01*
X121991297Y-51659278D01*
X121976736Y-51657118D01*
X121962457Y-51653541D01*
X121948597Y-51648582D01*
X121935290Y-51642288D01*
X121922664Y-51634720D01*
X121910841Y-51625952D01*
X121899934Y-51616066D01*
X121890048Y-51605159D01*
X121881280Y-51593336D01*
X121873712Y-51580710D01*
X121867418Y-51567403D01*
X121862459Y-51553543D01*
X121858882Y-51539264D01*
X121856722Y-51524703D01*
X121856000Y-51510000D01*
X121856000Y-49860000D01*
X121856722Y-49845297D01*
X121858882Y-49830736D01*
X121862459Y-49816457D01*
X121867418Y-49802597D01*
X121873712Y-49789290D01*
X121881280Y-49776664D01*
X121890048Y-49764841D01*
X121899934Y-49753934D01*
X121910841Y-49744048D01*
X121922664Y-49735280D01*
X121935290Y-49727712D01*
X121948597Y-49721418D01*
X121962457Y-49716459D01*
X121976736Y-49712882D01*
X121991297Y-49710722D01*
X122006000Y-49710000D01*
X122306000Y-49710000D01*
X122320703Y-49710722D01*
G37*
G36*
X123590703Y-49710722D02*
G01*
X123605264Y-49712882D01*
X123619543Y-49716459D01*
X123633403Y-49721418D01*
X123646710Y-49727712D01*
X123659336Y-49735280D01*
X123671159Y-49744048D01*
X123682066Y-49753934D01*
X123691952Y-49764841D01*
X123700720Y-49776664D01*
X123708288Y-49789290D01*
X123714582Y-49802597D01*
X123719541Y-49816457D01*
X123723118Y-49830736D01*
X123725278Y-49845297D01*
X123726000Y-49860000D01*
X123726000Y-51510000D01*
X123725278Y-51524703D01*
X123723118Y-51539264D01*
X123719541Y-51553543D01*
X123714582Y-51567403D01*
X123708288Y-51580710D01*
X123700720Y-51593336D01*
X123691952Y-51605159D01*
X123682066Y-51616066D01*
X123671159Y-51625952D01*
X123659336Y-51634720D01*
X123646710Y-51642288D01*
X123633403Y-51648582D01*
X123619543Y-51653541D01*
X123605264Y-51657118D01*
X123590703Y-51659278D01*
X123576000Y-51660000D01*
X123276000Y-51660000D01*
X123261297Y-51659278D01*
X123246736Y-51657118D01*
X123232457Y-51653541D01*
X123218597Y-51648582D01*
X123205290Y-51642288D01*
X123192664Y-51634720D01*
X123180841Y-51625952D01*
X123169934Y-51616066D01*
X123160048Y-51605159D01*
X123151280Y-51593336D01*
X123143712Y-51580710D01*
X123137418Y-51567403D01*
X123132459Y-51553543D01*
X123128882Y-51539264D01*
X123126722Y-51524703D01*
X123126000Y-51510000D01*
X123126000Y-49860000D01*
X123126722Y-49845297D01*
X123128882Y-49830736D01*
X123132459Y-49816457D01*
X123137418Y-49802597D01*
X123143712Y-49789290D01*
X123151280Y-49776664D01*
X123160048Y-49764841D01*
X123169934Y-49753934D01*
X123180841Y-49744048D01*
X123192664Y-49735280D01*
X123205290Y-49727712D01*
X123218597Y-49721418D01*
X123232457Y-49716459D01*
X123246736Y-49712882D01*
X123261297Y-49710722D01*
X123276000Y-49710000D01*
X123576000Y-49710000D01*
X123590703Y-49710722D01*
G37*
G36*
X124860703Y-49710722D02*
G01*
X124875264Y-49712882D01*
X124889543Y-49716459D01*
X124903403Y-49721418D01*
X124916710Y-49727712D01*
X124929336Y-49735280D01*
X124941159Y-49744048D01*
X124952066Y-49753934D01*
X124961952Y-49764841D01*
X124970720Y-49776664D01*
X124978288Y-49789290D01*
X124984582Y-49802597D01*
X124989541Y-49816457D01*
X124993118Y-49830736D01*
X124995278Y-49845297D01*
X124996000Y-49860000D01*
X124996000Y-51510000D01*
X124995278Y-51524703D01*
X124993118Y-51539264D01*
X124989541Y-51553543D01*
X124984582Y-51567403D01*
X124978288Y-51580710D01*
X124970720Y-51593336D01*
X124961952Y-51605159D01*
X124952066Y-51616066D01*
X124941159Y-51625952D01*
X124929336Y-51634720D01*
X124916710Y-51642288D01*
X124903403Y-51648582D01*
X124889543Y-51653541D01*
X124875264Y-51657118D01*
X124860703Y-51659278D01*
X124846000Y-51660000D01*
X124546000Y-51660000D01*
X124531297Y-51659278D01*
X124516736Y-51657118D01*
X124502457Y-51653541D01*
X124488597Y-51648582D01*
X124475290Y-51642288D01*
X124462664Y-51634720D01*
X124450841Y-51625952D01*
X124439934Y-51616066D01*
X124430048Y-51605159D01*
X124421280Y-51593336D01*
X124413712Y-51580710D01*
X124407418Y-51567403D01*
X124402459Y-51553543D01*
X124398882Y-51539264D01*
X124396722Y-51524703D01*
X124396000Y-51510000D01*
X124396000Y-49860000D01*
X124396722Y-49845297D01*
X124398882Y-49830736D01*
X124402459Y-49816457D01*
X124407418Y-49802597D01*
X124413712Y-49789290D01*
X124421280Y-49776664D01*
X124430048Y-49764841D01*
X124439934Y-49753934D01*
X124450841Y-49744048D01*
X124462664Y-49735280D01*
X124475290Y-49727712D01*
X124488597Y-49721418D01*
X124502457Y-49716459D01*
X124516736Y-49712882D01*
X124531297Y-49710722D01*
X124546000Y-49710000D01*
X124846000Y-49710000D01*
X124860703Y-49710722D01*
G37*
G36*
X126130703Y-49710722D02*
G01*
X126145264Y-49712882D01*
X126159543Y-49716459D01*
X126173403Y-49721418D01*
X126186710Y-49727712D01*
X126199336Y-49735280D01*
X126211159Y-49744048D01*
X126222066Y-49753934D01*
X126231952Y-49764841D01*
X126240720Y-49776664D01*
X126248288Y-49789290D01*
X126254582Y-49802597D01*
X126259541Y-49816457D01*
X126263118Y-49830736D01*
X126265278Y-49845297D01*
X126266000Y-49860000D01*
X126266000Y-51510000D01*
X126265278Y-51524703D01*
X126263118Y-51539264D01*
X126259541Y-51553543D01*
X126254582Y-51567403D01*
X126248288Y-51580710D01*
X126240720Y-51593336D01*
X126231952Y-51605159D01*
X126222066Y-51616066D01*
X126211159Y-51625952D01*
X126199336Y-51634720D01*
X126186710Y-51642288D01*
X126173403Y-51648582D01*
X126159543Y-51653541D01*
X126145264Y-51657118D01*
X126130703Y-51659278D01*
X126116000Y-51660000D01*
X125816000Y-51660000D01*
X125801297Y-51659278D01*
X125786736Y-51657118D01*
X125772457Y-51653541D01*
X125758597Y-51648582D01*
X125745290Y-51642288D01*
X125732664Y-51634720D01*
X125720841Y-51625952D01*
X125709934Y-51616066D01*
X125700048Y-51605159D01*
X125691280Y-51593336D01*
X125683712Y-51580710D01*
X125677418Y-51567403D01*
X125672459Y-51553543D01*
X125668882Y-51539264D01*
X125666722Y-51524703D01*
X125666000Y-51510000D01*
X125666000Y-49860000D01*
X125666722Y-49845297D01*
X125668882Y-49830736D01*
X125672459Y-49816457D01*
X125677418Y-49802597D01*
X125683712Y-49789290D01*
X125691280Y-49776664D01*
X125700048Y-49764841D01*
X125709934Y-49753934D01*
X125720841Y-49744048D01*
X125732664Y-49735280D01*
X125745290Y-49727712D01*
X125758597Y-49721418D01*
X125772457Y-49716459D01*
X125786736Y-49712882D01*
X125801297Y-49710722D01*
X125816000Y-49710000D01*
X126116000Y-49710000D01*
X126130703Y-49710722D01*
G37*
G36*
X127400703Y-49710722D02*
G01*
X127415264Y-49712882D01*
X127429543Y-49716459D01*
X127443403Y-49721418D01*
X127456710Y-49727712D01*
X127469336Y-49735280D01*
X127481159Y-49744048D01*
X127492066Y-49753934D01*
X127501952Y-49764841D01*
X127510720Y-49776664D01*
X127518288Y-49789290D01*
X127524582Y-49802597D01*
X127529541Y-49816457D01*
X127533118Y-49830736D01*
X127535278Y-49845297D01*
X127536000Y-49860000D01*
X127536000Y-51510000D01*
X127535278Y-51524703D01*
X127533118Y-51539264D01*
X127529541Y-51553543D01*
X127524582Y-51567403D01*
X127518288Y-51580710D01*
X127510720Y-51593336D01*
X127501952Y-51605159D01*
X127492066Y-51616066D01*
X127481159Y-51625952D01*
X127469336Y-51634720D01*
X127456710Y-51642288D01*
X127443403Y-51648582D01*
X127429543Y-51653541D01*
X127415264Y-51657118D01*
X127400703Y-51659278D01*
X127386000Y-51660000D01*
X127086000Y-51660000D01*
X127071297Y-51659278D01*
X127056736Y-51657118D01*
X127042457Y-51653541D01*
X127028597Y-51648582D01*
X127015290Y-51642288D01*
X127002664Y-51634720D01*
X126990841Y-51625952D01*
X126979934Y-51616066D01*
X126970048Y-51605159D01*
X126961280Y-51593336D01*
X126953712Y-51580710D01*
X126947418Y-51567403D01*
X126942459Y-51553543D01*
X126938882Y-51539264D01*
X126936722Y-51524703D01*
X126936000Y-51510000D01*
X126936000Y-49860000D01*
X126936722Y-49845297D01*
X126938882Y-49830736D01*
X126942459Y-49816457D01*
X126947418Y-49802597D01*
X126953712Y-49789290D01*
X126961280Y-49776664D01*
X126970048Y-49764841D01*
X126979934Y-49753934D01*
X126990841Y-49744048D01*
X127002664Y-49735280D01*
X127015290Y-49727712D01*
X127028597Y-49721418D01*
X127042457Y-49716459D01*
X127056736Y-49712882D01*
X127071297Y-49710722D01*
X127086000Y-49710000D01*
X127386000Y-49710000D01*
X127400703Y-49710722D01*
G37*
G36*
X127400703Y-44760722D02*
G01*
X127415264Y-44762882D01*
X127429543Y-44766459D01*
X127443403Y-44771418D01*
X127456710Y-44777712D01*
X127469336Y-44785280D01*
X127481159Y-44794048D01*
X127492066Y-44803934D01*
X127501952Y-44814841D01*
X127510720Y-44826664D01*
X127518288Y-44839290D01*
X127524582Y-44852597D01*
X127529541Y-44866457D01*
X127533118Y-44880736D01*
X127535278Y-44895297D01*
X127536000Y-44910000D01*
X127536000Y-46560000D01*
X127535278Y-46574703D01*
X127533118Y-46589264D01*
X127529541Y-46603543D01*
X127524582Y-46617403D01*
X127518288Y-46630710D01*
X127510720Y-46643336D01*
X127501952Y-46655159D01*
X127492066Y-46666066D01*
X127481159Y-46675952D01*
X127469336Y-46684720D01*
X127456710Y-46692288D01*
X127443403Y-46698582D01*
X127429543Y-46703541D01*
X127415264Y-46707118D01*
X127400703Y-46709278D01*
X127386000Y-46710000D01*
X127086000Y-46710000D01*
X127071297Y-46709278D01*
X127056736Y-46707118D01*
X127042457Y-46703541D01*
X127028597Y-46698582D01*
X127015290Y-46692288D01*
X127002664Y-46684720D01*
X126990841Y-46675952D01*
X126979934Y-46666066D01*
X126970048Y-46655159D01*
X126961280Y-46643336D01*
X126953712Y-46630710D01*
X126947418Y-46617403D01*
X126942459Y-46603543D01*
X126938882Y-46589264D01*
X126936722Y-46574703D01*
X126936000Y-46560000D01*
X126936000Y-44910000D01*
X126936722Y-44895297D01*
X126938882Y-44880736D01*
X126942459Y-44866457D01*
X126947418Y-44852597D01*
X126953712Y-44839290D01*
X126961280Y-44826664D01*
X126970048Y-44814841D01*
X126979934Y-44803934D01*
X126990841Y-44794048D01*
X127002664Y-44785280D01*
X127015290Y-44777712D01*
X127028597Y-44771418D01*
X127042457Y-44766459D01*
X127056736Y-44762882D01*
X127071297Y-44760722D01*
X127086000Y-44760000D01*
X127386000Y-44760000D01*
X127400703Y-44760722D01*
G37*
G36*
X126130703Y-44760722D02*
G01*
X126145264Y-44762882D01*
X126159543Y-44766459D01*
X126173403Y-44771418D01*
X126186710Y-44777712D01*
X126199336Y-44785280D01*
X126211159Y-44794048D01*
X126222066Y-44803934D01*
X126231952Y-44814841D01*
X126240720Y-44826664D01*
X126248288Y-44839290D01*
X126254582Y-44852597D01*
X126259541Y-44866457D01*
X126263118Y-44880736D01*
X126265278Y-44895297D01*
X126266000Y-44910000D01*
X126266000Y-46560000D01*
X126265278Y-46574703D01*
X126263118Y-46589264D01*
X126259541Y-46603543D01*
X126254582Y-46617403D01*
X126248288Y-46630710D01*
X126240720Y-46643336D01*
X126231952Y-46655159D01*
X126222066Y-46666066D01*
X126211159Y-46675952D01*
X126199336Y-46684720D01*
X126186710Y-46692288D01*
X126173403Y-46698582D01*
X126159543Y-46703541D01*
X126145264Y-46707118D01*
X126130703Y-46709278D01*
X126116000Y-46710000D01*
X125816000Y-46710000D01*
X125801297Y-46709278D01*
X125786736Y-46707118D01*
X125772457Y-46703541D01*
X125758597Y-46698582D01*
X125745290Y-46692288D01*
X125732664Y-46684720D01*
X125720841Y-46675952D01*
X125709934Y-46666066D01*
X125700048Y-46655159D01*
X125691280Y-46643336D01*
X125683712Y-46630710D01*
X125677418Y-46617403D01*
X125672459Y-46603543D01*
X125668882Y-46589264D01*
X125666722Y-46574703D01*
X125666000Y-46560000D01*
X125666000Y-44910000D01*
X125666722Y-44895297D01*
X125668882Y-44880736D01*
X125672459Y-44866457D01*
X125677418Y-44852597D01*
X125683712Y-44839290D01*
X125691280Y-44826664D01*
X125700048Y-44814841D01*
X125709934Y-44803934D01*
X125720841Y-44794048D01*
X125732664Y-44785280D01*
X125745290Y-44777712D01*
X125758597Y-44771418D01*
X125772457Y-44766459D01*
X125786736Y-44762882D01*
X125801297Y-44760722D01*
X125816000Y-44760000D01*
X126116000Y-44760000D01*
X126130703Y-44760722D01*
G37*
G36*
X124860703Y-44760722D02*
G01*
X124875264Y-44762882D01*
X124889543Y-44766459D01*
X124903403Y-44771418D01*
X124916710Y-44777712D01*
X124929336Y-44785280D01*
X124941159Y-44794048D01*
X124952066Y-44803934D01*
X124961952Y-44814841D01*
X124970720Y-44826664D01*
X124978288Y-44839290D01*
X124984582Y-44852597D01*
X124989541Y-44866457D01*
X124993118Y-44880736D01*
X124995278Y-44895297D01*
X124996000Y-44910000D01*
X124996000Y-46560000D01*
X124995278Y-46574703D01*
X124993118Y-46589264D01*
X124989541Y-46603543D01*
X124984582Y-46617403D01*
X124978288Y-46630710D01*
X124970720Y-46643336D01*
X124961952Y-46655159D01*
X124952066Y-46666066D01*
X124941159Y-46675952D01*
X124929336Y-46684720D01*
X124916710Y-46692288D01*
X124903403Y-46698582D01*
X124889543Y-46703541D01*
X124875264Y-46707118D01*
X124860703Y-46709278D01*
X124846000Y-46710000D01*
X124546000Y-46710000D01*
X124531297Y-46709278D01*
X124516736Y-46707118D01*
X124502457Y-46703541D01*
X124488597Y-46698582D01*
X124475290Y-46692288D01*
X124462664Y-46684720D01*
X124450841Y-46675952D01*
X124439934Y-46666066D01*
X124430048Y-46655159D01*
X124421280Y-46643336D01*
X124413712Y-46630710D01*
X124407418Y-46617403D01*
X124402459Y-46603543D01*
X124398882Y-46589264D01*
X124396722Y-46574703D01*
X124396000Y-46560000D01*
X124396000Y-44910000D01*
X124396722Y-44895297D01*
X124398882Y-44880736D01*
X124402459Y-44866457D01*
X124407418Y-44852597D01*
X124413712Y-44839290D01*
X124421280Y-44826664D01*
X124430048Y-44814841D01*
X124439934Y-44803934D01*
X124450841Y-44794048D01*
X124462664Y-44785280D01*
X124475290Y-44777712D01*
X124488597Y-44771418D01*
X124502457Y-44766459D01*
X124516736Y-44762882D01*
X124531297Y-44760722D01*
X124546000Y-44760000D01*
X124846000Y-44760000D01*
X124860703Y-44760722D01*
G37*
G36*
X123590703Y-44760722D02*
G01*
X123605264Y-44762882D01*
X123619543Y-44766459D01*
X123633403Y-44771418D01*
X123646710Y-44777712D01*
X123659336Y-44785280D01*
X123671159Y-44794048D01*
X123682066Y-44803934D01*
X123691952Y-44814841D01*
X123700720Y-44826664D01*
X123708288Y-44839290D01*
X123714582Y-44852597D01*
X123719541Y-44866457D01*
X123723118Y-44880736D01*
X123725278Y-44895297D01*
X123726000Y-44910000D01*
X123726000Y-46560000D01*
X123725278Y-46574703D01*
X123723118Y-46589264D01*
X123719541Y-46603543D01*
X123714582Y-46617403D01*
X123708288Y-46630710D01*
X123700720Y-46643336D01*
X123691952Y-46655159D01*
X123682066Y-46666066D01*
X123671159Y-46675952D01*
X123659336Y-46684720D01*
X123646710Y-46692288D01*
X123633403Y-46698582D01*
X123619543Y-46703541D01*
X123605264Y-46707118D01*
X123590703Y-46709278D01*
X123576000Y-46710000D01*
X123276000Y-46710000D01*
X123261297Y-46709278D01*
X123246736Y-46707118D01*
X123232457Y-46703541D01*
X123218597Y-46698582D01*
X123205290Y-46692288D01*
X123192664Y-46684720D01*
X123180841Y-46675952D01*
X123169934Y-46666066D01*
X123160048Y-46655159D01*
X123151280Y-46643336D01*
X123143712Y-46630710D01*
X123137418Y-46617403D01*
X123132459Y-46603543D01*
X123128882Y-46589264D01*
X123126722Y-46574703D01*
X123126000Y-46560000D01*
X123126000Y-44910000D01*
X123126722Y-44895297D01*
X123128882Y-44880736D01*
X123132459Y-44866457D01*
X123137418Y-44852597D01*
X123143712Y-44839290D01*
X123151280Y-44826664D01*
X123160048Y-44814841D01*
X123169934Y-44803934D01*
X123180841Y-44794048D01*
X123192664Y-44785280D01*
X123205290Y-44777712D01*
X123218597Y-44771418D01*
X123232457Y-44766459D01*
X123246736Y-44762882D01*
X123261297Y-44760722D01*
X123276000Y-44760000D01*
X123576000Y-44760000D01*
X123590703Y-44760722D01*
G37*
G36*
X122320703Y-44760722D02*
G01*
X122335264Y-44762882D01*
X122349543Y-44766459D01*
X122363403Y-44771418D01*
X122376710Y-44777712D01*
X122389336Y-44785280D01*
X122401159Y-44794048D01*
X122412066Y-44803934D01*
X122421952Y-44814841D01*
X122430720Y-44826664D01*
X122438288Y-44839290D01*
X122444582Y-44852597D01*
X122449541Y-44866457D01*
X122453118Y-44880736D01*
X122455278Y-44895297D01*
X122456000Y-44910000D01*
X122456000Y-46560000D01*
X122455278Y-46574703D01*
X122453118Y-46589264D01*
X122449541Y-46603543D01*
X122444582Y-46617403D01*
X122438288Y-46630710D01*
X122430720Y-46643336D01*
X122421952Y-46655159D01*
X122412066Y-46666066D01*
X122401159Y-46675952D01*
X122389336Y-46684720D01*
X122376710Y-46692288D01*
X122363403Y-46698582D01*
X122349543Y-46703541D01*
X122335264Y-46707118D01*
X122320703Y-46709278D01*
X122306000Y-46710000D01*
X122006000Y-46710000D01*
X121991297Y-46709278D01*
X121976736Y-46707118D01*
X121962457Y-46703541D01*
X121948597Y-46698582D01*
X121935290Y-46692288D01*
X121922664Y-46684720D01*
X121910841Y-46675952D01*
X121899934Y-46666066D01*
X121890048Y-46655159D01*
X121881280Y-46643336D01*
X121873712Y-46630710D01*
X121867418Y-46617403D01*
X121862459Y-46603543D01*
X121858882Y-46589264D01*
X121856722Y-46574703D01*
X121856000Y-46560000D01*
X121856000Y-44910000D01*
X121856722Y-44895297D01*
X121858882Y-44880736D01*
X121862459Y-44866457D01*
X121867418Y-44852597D01*
X121873712Y-44839290D01*
X121881280Y-44826664D01*
X121890048Y-44814841D01*
X121899934Y-44803934D01*
X121910841Y-44794048D01*
X121922664Y-44785280D01*
X121935290Y-44777712D01*
X121948597Y-44771418D01*
X121962457Y-44766459D01*
X121976736Y-44762882D01*
X121991297Y-44760722D01*
X122006000Y-44760000D01*
X122306000Y-44760000D01*
X122320703Y-44760722D01*
G37*
G36*
X121050703Y-44760722D02*
G01*
X121065264Y-44762882D01*
X121079543Y-44766459D01*
X121093403Y-44771418D01*
X121106710Y-44777712D01*
X121119336Y-44785280D01*
X121131159Y-44794048D01*
X121142066Y-44803934D01*
X121151952Y-44814841D01*
X121160720Y-44826664D01*
X121168288Y-44839290D01*
X121174582Y-44852597D01*
X121179541Y-44866457D01*
X121183118Y-44880736D01*
X121185278Y-44895297D01*
X121186000Y-44910000D01*
X121186000Y-46560000D01*
X121185278Y-46574703D01*
X121183118Y-46589264D01*
X121179541Y-46603543D01*
X121174582Y-46617403D01*
X121168288Y-46630710D01*
X121160720Y-46643336D01*
X121151952Y-46655159D01*
X121142066Y-46666066D01*
X121131159Y-46675952D01*
X121119336Y-46684720D01*
X121106710Y-46692288D01*
X121093403Y-46698582D01*
X121079543Y-46703541D01*
X121065264Y-46707118D01*
X121050703Y-46709278D01*
X121036000Y-46710000D01*
X120736000Y-46710000D01*
X120721297Y-46709278D01*
X120706736Y-46707118D01*
X120692457Y-46703541D01*
X120678597Y-46698582D01*
X120665290Y-46692288D01*
X120652664Y-46684720D01*
X120640841Y-46675952D01*
X120629934Y-46666066D01*
X120620048Y-46655159D01*
X120611280Y-46643336D01*
X120603712Y-46630710D01*
X120597418Y-46617403D01*
X120592459Y-46603543D01*
X120588882Y-46589264D01*
X120586722Y-46574703D01*
X120586000Y-46560000D01*
X120586000Y-44910000D01*
X120586722Y-44895297D01*
X120588882Y-44880736D01*
X120592459Y-44866457D01*
X120597418Y-44852597D01*
X120603712Y-44839290D01*
X120611280Y-44826664D01*
X120620048Y-44814841D01*
X120629934Y-44803934D01*
X120640841Y-44794048D01*
X120652664Y-44785280D01*
X120665290Y-44777712D01*
X120678597Y-44771418D01*
X120692457Y-44766459D01*
X120706736Y-44762882D01*
X120721297Y-44760722D01*
X120736000Y-44760000D01*
X121036000Y-44760000D01*
X121050703Y-44760722D01*
G37*
G36*
X119780703Y-44760722D02*
G01*
X119795264Y-44762882D01*
X119809543Y-44766459D01*
X119823403Y-44771418D01*
X119836710Y-44777712D01*
X119849336Y-44785280D01*
X119861159Y-44794048D01*
X119872066Y-44803934D01*
X119881952Y-44814841D01*
X119890720Y-44826664D01*
X119898288Y-44839290D01*
X119904582Y-44852597D01*
X119909541Y-44866457D01*
X119913118Y-44880736D01*
X119915278Y-44895297D01*
X119916000Y-44910000D01*
X119916000Y-46560000D01*
X119915278Y-46574703D01*
X119913118Y-46589264D01*
X119909541Y-46603543D01*
X119904582Y-46617403D01*
X119898288Y-46630710D01*
X119890720Y-46643336D01*
X119881952Y-46655159D01*
X119872066Y-46666066D01*
X119861159Y-46675952D01*
X119849336Y-46684720D01*
X119836710Y-46692288D01*
X119823403Y-46698582D01*
X119809543Y-46703541D01*
X119795264Y-46707118D01*
X119780703Y-46709278D01*
X119766000Y-46710000D01*
X119466000Y-46710000D01*
X119451297Y-46709278D01*
X119436736Y-46707118D01*
X119422457Y-46703541D01*
X119408597Y-46698582D01*
X119395290Y-46692288D01*
X119382664Y-46684720D01*
X119370841Y-46675952D01*
X119359934Y-46666066D01*
X119350048Y-46655159D01*
X119341280Y-46643336D01*
X119333712Y-46630710D01*
X119327418Y-46617403D01*
X119322459Y-46603543D01*
X119318882Y-46589264D01*
X119316722Y-46574703D01*
X119316000Y-46560000D01*
X119316000Y-44910000D01*
X119316722Y-44895297D01*
X119318882Y-44880736D01*
X119322459Y-44866457D01*
X119327418Y-44852597D01*
X119333712Y-44839290D01*
X119341280Y-44826664D01*
X119350048Y-44814841D01*
X119359934Y-44803934D01*
X119370841Y-44794048D01*
X119382664Y-44785280D01*
X119395290Y-44777712D01*
X119408597Y-44771418D01*
X119422457Y-44766459D01*
X119436736Y-44762882D01*
X119451297Y-44760722D01*
X119466000Y-44760000D01*
X119766000Y-44760000D01*
X119780703Y-44760722D01*
G37*
G36*
X110056142Y-58687174D02*
G01*
X110079803Y-58690684D01*
X110103007Y-58696496D01*
X110125529Y-58704554D01*
X110147153Y-58714782D01*
X110167670Y-58727079D01*
X110186883Y-58741329D01*
X110204607Y-58757393D01*
X110220671Y-58775117D01*
X110234921Y-58794330D01*
X110247218Y-58814847D01*
X110257446Y-58836471D01*
X110265504Y-58858993D01*
X110271316Y-58882197D01*
X110274826Y-58905858D01*
X110276000Y-58929750D01*
X110276000Y-59842250D01*
X110274826Y-59866142D01*
X110271316Y-59889803D01*
X110265504Y-59913007D01*
X110257446Y-59935529D01*
X110247218Y-59957153D01*
X110234921Y-59977670D01*
X110220671Y-59996883D01*
X110204607Y-60014607D01*
X110186883Y-60030671D01*
X110167670Y-60044921D01*
X110147153Y-60057218D01*
X110125529Y-60067446D01*
X110103007Y-60075504D01*
X110079803Y-60081316D01*
X110056142Y-60084826D01*
X110032250Y-60086000D01*
X109544750Y-60086000D01*
X109520858Y-60084826D01*
X109497197Y-60081316D01*
X109473993Y-60075504D01*
X109451471Y-60067446D01*
X109429847Y-60057218D01*
X109409330Y-60044921D01*
X109390117Y-60030671D01*
X109372393Y-60014607D01*
X109356329Y-59996883D01*
X109342079Y-59977670D01*
X109329782Y-59957153D01*
X109319554Y-59935529D01*
X109311496Y-59913007D01*
X109305684Y-59889803D01*
X109302174Y-59866142D01*
X109301000Y-59842250D01*
X109301000Y-58929750D01*
X109302174Y-58905858D01*
X109305684Y-58882197D01*
X109311496Y-58858993D01*
X109319554Y-58836471D01*
X109329782Y-58814847D01*
X109342079Y-58794330D01*
X109356329Y-58775117D01*
X109372393Y-58757393D01*
X109390117Y-58741329D01*
X109409330Y-58727079D01*
X109429847Y-58714782D01*
X109451471Y-58704554D01*
X109473993Y-58696496D01*
X109497197Y-58690684D01*
X109520858Y-58687174D01*
X109544750Y-58686000D01*
X110032250Y-58686000D01*
X110056142Y-58687174D01*
G37*
G36*
X111931142Y-58687174D02*
G01*
X111954803Y-58690684D01*
X111978007Y-58696496D01*
X112000529Y-58704554D01*
X112022153Y-58714782D01*
X112042670Y-58727079D01*
X112061883Y-58741329D01*
X112079607Y-58757393D01*
X112095671Y-58775117D01*
X112109921Y-58794330D01*
X112122218Y-58814847D01*
X112132446Y-58836471D01*
X112140504Y-58858993D01*
X112146316Y-58882197D01*
X112149826Y-58905858D01*
X112151000Y-58929750D01*
X112151000Y-59842250D01*
X112149826Y-59866142D01*
X112146316Y-59889803D01*
X112140504Y-59913007D01*
X112132446Y-59935529D01*
X112122218Y-59957153D01*
X112109921Y-59977670D01*
X112095671Y-59996883D01*
X112079607Y-60014607D01*
X112061883Y-60030671D01*
X112042670Y-60044921D01*
X112022153Y-60057218D01*
X112000529Y-60067446D01*
X111978007Y-60075504D01*
X111954803Y-60081316D01*
X111931142Y-60084826D01*
X111907250Y-60086000D01*
X111419750Y-60086000D01*
X111395858Y-60084826D01*
X111372197Y-60081316D01*
X111348993Y-60075504D01*
X111326471Y-60067446D01*
X111304847Y-60057218D01*
X111284330Y-60044921D01*
X111265117Y-60030671D01*
X111247393Y-60014607D01*
X111231329Y-59996883D01*
X111217079Y-59977670D01*
X111204782Y-59957153D01*
X111194554Y-59935529D01*
X111186496Y-59913007D01*
X111180684Y-59889803D01*
X111177174Y-59866142D01*
X111176000Y-59842250D01*
X111176000Y-58929750D01*
X111177174Y-58905858D01*
X111180684Y-58882197D01*
X111186496Y-58858993D01*
X111194554Y-58836471D01*
X111204782Y-58814847D01*
X111217079Y-58794330D01*
X111231329Y-58775117D01*
X111247393Y-58757393D01*
X111265117Y-58741329D01*
X111284330Y-58727079D01*
X111304847Y-58714782D01*
X111326471Y-58704554D01*
X111348993Y-58696496D01*
X111372197Y-58690684D01*
X111395858Y-58687174D01*
X111419750Y-58686000D01*
X111907250Y-58686000D01*
X111931142Y-58687174D01*
G37*
D22*
X106728000Y-51242000D03*
X108628000Y-51242000D03*
X107678000Y-49242000D03*
X107678000Y-44162000D03*
X108628000Y-46162000D03*
X106728000Y-46162000D03*
D23*
X134112000Y-79198000D03*
X130012000Y-79198000D03*
M02*
