G04 #@! TF.GenerationSoftware,KiCad,Pcbnew,(5.1.5-0-10_14)*
G04 #@! TF.CreationDate,2020-02-25T16:39:45+01:00*
G04 #@! TF.ProjectId,ErnoCCC,45726e6f-4343-4432-9e6b-696361645f70,rev?*
G04 #@! TF.SameCoordinates,Original*
G04 #@! TF.FileFunction,Legend,Bot*
G04 #@! TF.FilePolarity,Positive*
%FSLAX46Y46*%
G04 Gerber Fmt 4.6, Leading zero omitted, Abs format (unit mm)*
G04 Created by KiCad (PCBNEW (5.1.5-0-10_14)) date 2020-02-25 16:39:45*
%MOMM*%
%LPD*%
G04 APERTURE LIST*
%ADD10C,0.150000*%
%ADD11C,0.200000*%
%ADD12C,0.100000*%
%ADD13C,0.120000*%
G04 APERTURE END LIST*
D10*
X200372023Y-29106761D02*
X200229166Y-29154380D01*
X199991071Y-29154380D01*
X199895833Y-29106761D01*
X199848214Y-29059142D01*
X199800595Y-28963904D01*
X199800595Y-28868666D01*
X199848214Y-28773428D01*
X199895833Y-28725809D01*
X199991071Y-28678190D01*
X200181547Y-28630571D01*
X200276785Y-28582952D01*
X200324404Y-28535333D01*
X200372023Y-28440095D01*
X200372023Y-28344857D01*
X200324404Y-28249619D01*
X200276785Y-28202000D01*
X200181547Y-28154380D01*
X199943452Y-28154380D01*
X199800595Y-28202000D01*
X199372023Y-29154380D02*
X199372023Y-28154380D01*
X199133928Y-28154380D01*
X198991071Y-28202000D01*
X198895833Y-28297238D01*
X198848214Y-28392476D01*
X198800595Y-28582952D01*
X198800595Y-28725809D01*
X198848214Y-28916285D01*
X198895833Y-29011523D01*
X198991071Y-29106761D01*
X199133928Y-29154380D01*
X199372023Y-29154380D01*
X198419642Y-28868666D02*
X197943452Y-28868666D01*
X198514880Y-29154380D02*
X198181547Y-28154380D01*
X197848214Y-29154380D01*
X203674023Y-29106761D02*
X203531166Y-29154380D01*
X203293071Y-29154380D01*
X203197833Y-29106761D01*
X203150214Y-29059142D01*
X203102595Y-28963904D01*
X203102595Y-28868666D01*
X203150214Y-28773428D01*
X203197833Y-28725809D01*
X203293071Y-28678190D01*
X203483547Y-28630571D01*
X203578785Y-28582952D01*
X203626404Y-28535333D01*
X203674023Y-28440095D01*
X203674023Y-28344857D01*
X203626404Y-28249619D01*
X203578785Y-28202000D01*
X203483547Y-28154380D01*
X203245452Y-28154380D01*
X203102595Y-28202000D01*
X202102595Y-29059142D02*
X202150214Y-29106761D01*
X202293071Y-29154380D01*
X202388309Y-29154380D01*
X202531166Y-29106761D01*
X202626404Y-29011523D01*
X202674023Y-28916285D01*
X202721642Y-28725809D01*
X202721642Y-28582952D01*
X202674023Y-28392476D01*
X202626404Y-28297238D01*
X202531166Y-28202000D01*
X202388309Y-28154380D01*
X202293071Y-28154380D01*
X202150214Y-28202000D01*
X202102595Y-28249619D01*
X201197833Y-29154380D02*
X201674023Y-29154380D01*
X201674023Y-28154380D01*
X207071261Y-28154380D02*
X206737928Y-29154380D01*
X206404595Y-28154380D01*
X205499833Y-29059142D02*
X205547452Y-29106761D01*
X205690309Y-29154380D01*
X205785547Y-29154380D01*
X205928404Y-29106761D01*
X206023642Y-29011523D01*
X206071261Y-28916285D01*
X206118880Y-28725809D01*
X206118880Y-28582952D01*
X206071261Y-28392476D01*
X206023642Y-28297238D01*
X205928404Y-28202000D01*
X205785547Y-28154380D01*
X205690309Y-28154380D01*
X205547452Y-28202000D01*
X205499833Y-28249619D01*
X204499833Y-29059142D02*
X204547452Y-29106761D01*
X204690309Y-29154380D01*
X204785547Y-29154380D01*
X204928404Y-29106761D01*
X205023642Y-29011523D01*
X205071261Y-28916285D01*
X205118880Y-28725809D01*
X205118880Y-28582952D01*
X205071261Y-28392476D01*
X205023642Y-28297238D01*
X204928404Y-28202000D01*
X204785547Y-28154380D01*
X204690309Y-28154380D01*
X204547452Y-28202000D01*
X204499833Y-28249619D01*
X210214595Y-28202000D02*
X210309833Y-28154380D01*
X210452690Y-28154380D01*
X210595547Y-28202000D01*
X210690785Y-28297238D01*
X210738404Y-28392476D01*
X210786023Y-28582952D01*
X210786023Y-28725809D01*
X210738404Y-28916285D01*
X210690785Y-29011523D01*
X210595547Y-29106761D01*
X210452690Y-29154380D01*
X210357452Y-29154380D01*
X210214595Y-29106761D01*
X210166976Y-29059142D01*
X210166976Y-28725809D01*
X210357452Y-28725809D01*
X209738404Y-29154380D02*
X209738404Y-28154380D01*
X209166976Y-29154380D01*
X209166976Y-28154380D01*
X208690785Y-29154380D02*
X208690785Y-28154380D01*
X208452690Y-28154380D01*
X208309833Y-28202000D01*
X208214595Y-28297238D01*
X208166976Y-28392476D01*
X208119357Y-28582952D01*
X208119357Y-28725809D01*
X208166976Y-28916285D01*
X208214595Y-29011523D01*
X208309833Y-29106761D01*
X208452690Y-29154380D01*
X208690785Y-29154380D01*
D11*
X100774476Y-66246380D02*
X100774476Y-66627333D01*
X100679238Y-66627333D02*
X100679238Y-66246380D01*
X100584000Y-66151142D02*
X100584000Y-66722571D01*
X100488761Y-66627333D02*
X100488761Y-66246380D01*
X100393523Y-66246380D02*
X100393523Y-66627333D01*
X100774476Y-66532095D02*
X100584000Y-66722571D01*
X100393523Y-66532095D01*
X100774476Y-66341619D02*
X100584000Y-66151142D01*
X100393523Y-66341619D01*
X100774476Y-66246380D02*
X100584000Y-66151142D01*
X100393523Y-66246380D01*
X100298285Y-66436857D01*
X100393523Y-66627333D01*
X100584000Y-66722571D01*
X100774476Y-66627333D01*
X100869714Y-66436857D01*
X100774476Y-66246380D01*
D10*
X203054976Y-32172142D02*
X203102595Y-32219761D01*
X203245452Y-32267380D01*
X203340690Y-32267380D01*
X203483547Y-32219761D01*
X203578785Y-32124523D01*
X203626404Y-32029285D01*
X203674023Y-31838809D01*
X203674023Y-31695952D01*
X203626404Y-31505476D01*
X203578785Y-31410238D01*
X203483547Y-31315000D01*
X203340690Y-31267380D01*
X203245452Y-31267380D01*
X203102595Y-31315000D01*
X203054976Y-31362619D01*
X202197833Y-31600714D02*
X202197833Y-32267380D01*
X202626404Y-31600714D02*
X202626404Y-32124523D01*
X202578785Y-32219761D01*
X202483547Y-32267380D01*
X202340690Y-32267380D01*
X202245452Y-32219761D01*
X202197833Y-32172142D01*
X201864500Y-31600714D02*
X201483547Y-31600714D01*
X201721642Y-31267380D02*
X201721642Y-32124523D01*
X201674023Y-32219761D01*
X201578785Y-32267380D01*
X201483547Y-32267380D01*
X200435928Y-31219761D02*
X201293071Y-32505476D01*
X200150214Y-32219761D02*
X200007357Y-32267380D01*
X199769261Y-32267380D01*
X199674023Y-32219761D01*
X199626404Y-32172142D01*
X199578785Y-32076904D01*
X199578785Y-31981666D01*
X199626404Y-31886428D01*
X199674023Y-31838809D01*
X199769261Y-31791190D01*
X199959738Y-31743571D01*
X200054976Y-31695952D01*
X200102595Y-31648333D01*
X200150214Y-31553095D01*
X200150214Y-31457857D01*
X200102595Y-31362619D01*
X200054976Y-31315000D01*
X199959738Y-31267380D01*
X199721642Y-31267380D01*
X199578785Y-31315000D01*
X199150214Y-32267380D02*
X199150214Y-31267380D01*
X198721642Y-32267380D02*
X198721642Y-31743571D01*
X198769261Y-31648333D01*
X198864500Y-31600714D01*
X199007357Y-31600714D01*
X199102595Y-31648333D01*
X199150214Y-31695952D01*
X198102595Y-32267380D02*
X198197833Y-32219761D01*
X198245452Y-32172142D01*
X198293071Y-32076904D01*
X198293071Y-31791190D01*
X198245452Y-31695952D01*
X198197833Y-31648333D01*
X198102595Y-31600714D01*
X197959738Y-31600714D01*
X197864500Y-31648333D01*
X197816880Y-31695952D01*
X197769261Y-31791190D01*
X197769261Y-32076904D01*
X197816880Y-32172142D01*
X197864500Y-32219761D01*
X197959738Y-32267380D01*
X198102595Y-32267380D01*
X197340690Y-32267380D02*
X197340690Y-31600714D01*
X197340690Y-31791190D02*
X197293071Y-31695952D01*
X197245452Y-31648333D01*
X197150214Y-31600714D01*
X197054976Y-31600714D01*
X196864500Y-31600714D02*
X196483547Y-31600714D01*
X196721642Y-31267380D02*
X196721642Y-32124523D01*
X196674023Y-32219761D01*
X196578785Y-32267380D01*
X196483547Y-32267380D01*
X195769261Y-32219761D02*
X195864500Y-32267380D01*
X196054976Y-32267380D01*
X196150214Y-32219761D01*
X196197833Y-32124523D01*
X196197833Y-31743571D01*
X196150214Y-31648333D01*
X196054976Y-31600714D01*
X195864500Y-31600714D01*
X195769261Y-31648333D01*
X195721642Y-31743571D01*
X195721642Y-31838809D01*
X196197833Y-31934047D01*
X195293071Y-31600714D02*
X195293071Y-32267380D01*
X195293071Y-31695952D02*
X195245452Y-31648333D01*
X195150214Y-31600714D01*
X195007357Y-31600714D01*
X194912119Y-31648333D01*
X194864500Y-31743571D01*
X194864500Y-32267380D01*
X203626404Y-33917380D02*
X203626404Y-32917380D01*
X203626404Y-33298333D02*
X203531166Y-33250714D01*
X203340690Y-33250714D01*
X203245452Y-33298333D01*
X203197833Y-33345952D01*
X203150214Y-33441190D01*
X203150214Y-33726904D01*
X203197833Y-33822142D01*
X203245452Y-33869761D01*
X203340690Y-33917380D01*
X203531166Y-33917380D01*
X203626404Y-33869761D01*
X202578785Y-33917380D02*
X202674023Y-33869761D01*
X202721642Y-33822142D01*
X202769261Y-33726904D01*
X202769261Y-33441190D01*
X202721642Y-33345952D01*
X202674023Y-33298333D01*
X202578785Y-33250714D01*
X202435928Y-33250714D01*
X202340690Y-33298333D01*
X202293071Y-33345952D01*
X202245452Y-33441190D01*
X202245452Y-33726904D01*
X202293071Y-33822142D01*
X202340690Y-33869761D01*
X202435928Y-33917380D01*
X202578785Y-33917380D01*
X201959738Y-33250714D02*
X201578785Y-33250714D01*
X201816880Y-32917380D02*
X201816880Y-33774523D01*
X201769261Y-33869761D01*
X201674023Y-33917380D01*
X201578785Y-33917380D01*
X201245452Y-33917380D02*
X201245452Y-32917380D01*
X200816880Y-33917380D02*
X200816880Y-33393571D01*
X200864500Y-33298333D01*
X200959738Y-33250714D01*
X201102595Y-33250714D01*
X201197833Y-33298333D01*
X201245452Y-33345952D01*
X199293071Y-32917380D02*
X199293071Y-33631666D01*
X199340690Y-33774523D01*
X199435928Y-33869761D01*
X199578785Y-33917380D01*
X199674023Y-33917380D01*
X198388309Y-33250714D02*
X198388309Y-33917380D01*
X198816880Y-33250714D02*
X198816880Y-33774523D01*
X198769261Y-33869761D01*
X198674023Y-33917380D01*
X198531166Y-33917380D01*
X198435928Y-33869761D01*
X198388309Y-33822142D01*
X197912119Y-33917380D02*
X197912119Y-33250714D01*
X197912119Y-33345952D02*
X197864500Y-33298333D01*
X197769261Y-33250714D01*
X197626404Y-33250714D01*
X197531166Y-33298333D01*
X197483547Y-33393571D01*
X197483547Y-33917380D01*
X197483547Y-33393571D02*
X197435928Y-33298333D01*
X197340690Y-33250714D01*
X197197833Y-33250714D01*
X197102595Y-33298333D01*
X197054976Y-33393571D01*
X197054976Y-33917380D01*
X196578785Y-33250714D02*
X196578785Y-34250714D01*
X196578785Y-33298333D02*
X196483547Y-33250714D01*
X196293071Y-33250714D01*
X196197833Y-33298333D01*
X196150214Y-33345952D01*
X196102595Y-33441190D01*
X196102595Y-33726904D01*
X196150214Y-33822142D01*
X196197833Y-33869761D01*
X196293071Y-33917380D01*
X196483547Y-33917380D01*
X196578785Y-33869761D01*
X195293071Y-33869761D02*
X195388309Y-33917380D01*
X195578785Y-33917380D01*
X195674023Y-33869761D01*
X195721642Y-33774523D01*
X195721642Y-33393571D01*
X195674023Y-33298333D01*
X195578785Y-33250714D01*
X195388309Y-33250714D01*
X195293071Y-33298333D01*
X195245452Y-33393571D01*
X195245452Y-33488809D01*
X195721642Y-33584047D01*
X194816880Y-33917380D02*
X194816880Y-33250714D01*
X194816880Y-33441190D02*
X194769261Y-33345952D01*
X194721642Y-33298333D01*
X194626404Y-33250714D01*
X194531166Y-33250714D01*
X194245452Y-33869761D02*
X194150214Y-33917380D01*
X193959738Y-33917380D01*
X193864500Y-33869761D01*
X193816880Y-33774523D01*
X193816880Y-33726904D01*
X193864500Y-33631666D01*
X193959738Y-33584047D01*
X194102595Y-33584047D01*
X194197833Y-33536428D01*
X194245452Y-33441190D01*
X194245452Y-33393571D01*
X194197833Y-33298333D01*
X194102595Y-33250714D01*
X193959738Y-33250714D01*
X193864500Y-33298333D01*
X203769261Y-34900714D02*
X203388309Y-34900714D01*
X203626404Y-34567380D02*
X203626404Y-35424523D01*
X203578785Y-35519761D01*
X203483547Y-35567380D01*
X203388309Y-35567380D01*
X202912119Y-35567380D02*
X203007357Y-35519761D01*
X203054976Y-35472142D01*
X203102595Y-35376904D01*
X203102595Y-35091190D01*
X203054976Y-34995952D01*
X203007357Y-34948333D01*
X202912119Y-34900714D01*
X202769261Y-34900714D01*
X202674023Y-34948333D01*
X202626404Y-34995952D01*
X202578785Y-35091190D01*
X202578785Y-35376904D01*
X202626404Y-35472142D01*
X202674023Y-35519761D01*
X202769261Y-35567380D01*
X202912119Y-35567380D01*
X201435928Y-35519761D02*
X201340690Y-35567380D01*
X201150214Y-35567380D01*
X201054976Y-35519761D01*
X201007357Y-35424523D01*
X201007357Y-35376904D01*
X201054976Y-35281666D01*
X201150214Y-35234047D01*
X201293071Y-35234047D01*
X201388309Y-35186428D01*
X201435928Y-35091190D01*
X201435928Y-35043571D01*
X201388309Y-34948333D01*
X201293071Y-34900714D01*
X201150214Y-34900714D01*
X201054976Y-34948333D01*
X200674023Y-34900714D02*
X200483547Y-35567380D01*
X200293071Y-35091190D01*
X200102595Y-35567380D01*
X199912119Y-34900714D01*
X199102595Y-35567380D02*
X199102595Y-35043571D01*
X199150214Y-34948333D01*
X199245452Y-34900714D01*
X199435928Y-34900714D01*
X199531166Y-34948333D01*
X199102595Y-35519761D02*
X199197833Y-35567380D01*
X199435928Y-35567380D01*
X199531166Y-35519761D01*
X199578785Y-35424523D01*
X199578785Y-35329285D01*
X199531166Y-35234047D01*
X199435928Y-35186428D01*
X199197833Y-35186428D01*
X199102595Y-35138809D01*
X198626404Y-34900714D02*
X198626404Y-35900714D01*
X198626404Y-34948333D02*
X198531166Y-34900714D01*
X198340690Y-34900714D01*
X198245452Y-34948333D01*
X198197833Y-34995952D01*
X198150214Y-35091190D01*
X198150214Y-35376904D01*
X198197833Y-35472142D01*
X198245452Y-35519761D01*
X198340690Y-35567380D01*
X198531166Y-35567380D01*
X198626404Y-35519761D01*
X196959738Y-35567380D02*
X196959738Y-34567380D01*
X196721642Y-34567380D01*
X196578785Y-34615000D01*
X196483547Y-34710238D01*
X196435928Y-34805476D01*
X196388309Y-34995952D01*
X196388309Y-35138809D01*
X196435928Y-35329285D01*
X196483547Y-35424523D01*
X196578785Y-35519761D01*
X196721642Y-35567380D01*
X196959738Y-35567380D01*
X195959738Y-35567380D02*
X195959738Y-34900714D01*
X195959738Y-34567380D02*
X196007357Y-34615000D01*
X195959738Y-34662619D01*
X195912119Y-34615000D01*
X195959738Y-34567380D01*
X195959738Y-34662619D01*
X195531166Y-35519761D02*
X195435928Y-35567380D01*
X195245452Y-35567380D01*
X195150214Y-35519761D01*
X195102595Y-35424523D01*
X195102595Y-35376904D01*
X195150214Y-35281666D01*
X195245452Y-35234047D01*
X195388309Y-35234047D01*
X195483547Y-35186428D01*
X195531166Y-35091190D01*
X195531166Y-35043571D01*
X195483547Y-34948333D01*
X195388309Y-34900714D01*
X195245452Y-34900714D01*
X195150214Y-34948333D01*
X194674023Y-34900714D02*
X194674023Y-35900714D01*
X194674023Y-34948333D02*
X194578785Y-34900714D01*
X194388309Y-34900714D01*
X194293071Y-34948333D01*
X194245452Y-34995952D01*
X194197833Y-35091190D01*
X194197833Y-35376904D01*
X194245452Y-35472142D01*
X194293071Y-35519761D01*
X194388309Y-35567380D01*
X194578785Y-35567380D01*
X194674023Y-35519761D01*
X193626404Y-35567380D02*
X193721642Y-35519761D01*
X193769261Y-35424523D01*
X193769261Y-34567380D01*
X192816880Y-35567380D02*
X192816880Y-35043571D01*
X192864500Y-34948333D01*
X192959738Y-34900714D01*
X193150214Y-34900714D01*
X193245452Y-34948333D01*
X192816880Y-35519761D02*
X192912119Y-35567380D01*
X193150214Y-35567380D01*
X193245452Y-35519761D01*
X193293071Y-35424523D01*
X193293071Y-35329285D01*
X193245452Y-35234047D01*
X193150214Y-35186428D01*
X192912119Y-35186428D01*
X192816880Y-35138809D01*
X192435928Y-34900714D02*
X192197833Y-35567380D01*
X191959738Y-34900714D02*
X192197833Y-35567380D01*
X192293071Y-35805476D01*
X192340690Y-35853095D01*
X192435928Y-35900714D01*
X203626404Y-36550714D02*
X203626404Y-37550714D01*
X203626404Y-36598333D02*
X203531166Y-36550714D01*
X203340690Y-36550714D01*
X203245452Y-36598333D01*
X203197833Y-36645952D01*
X203150214Y-36741190D01*
X203150214Y-37026904D01*
X203197833Y-37122142D01*
X203245452Y-37169761D01*
X203340690Y-37217380D01*
X203531166Y-37217380D01*
X203626404Y-37169761D01*
X202578785Y-37217380D02*
X202674023Y-37169761D01*
X202721642Y-37122142D01*
X202769261Y-37026904D01*
X202769261Y-36741190D01*
X202721642Y-36645952D01*
X202674023Y-36598333D01*
X202578785Y-36550714D01*
X202435928Y-36550714D01*
X202340690Y-36598333D01*
X202293071Y-36645952D01*
X202245452Y-36741190D01*
X202245452Y-37026904D01*
X202293071Y-37122142D01*
X202340690Y-37169761D01*
X202435928Y-37217380D01*
X202578785Y-37217380D01*
X201674023Y-37217380D02*
X201769261Y-37169761D01*
X201816880Y-37074523D01*
X201816880Y-36217380D01*
X200864500Y-37217380D02*
X200864500Y-36693571D01*
X200912119Y-36598333D01*
X201007357Y-36550714D01*
X201197833Y-36550714D01*
X201293071Y-36598333D01*
X200864500Y-37169761D02*
X200959738Y-37217380D01*
X201197833Y-37217380D01*
X201293071Y-37169761D01*
X201340690Y-37074523D01*
X201340690Y-36979285D01*
X201293071Y-36884047D01*
X201197833Y-36836428D01*
X200959738Y-36836428D01*
X200864500Y-36788809D01*
X200388309Y-37217380D02*
X200388309Y-36550714D01*
X200388309Y-36741190D02*
X200340690Y-36645952D01*
X200293071Y-36598333D01*
X200197833Y-36550714D01*
X200102595Y-36550714D01*
X199769261Y-37217380D02*
X199769261Y-36550714D01*
X199769261Y-36217380D02*
X199816880Y-36265000D01*
X199769261Y-36312619D01*
X199721642Y-36265000D01*
X199769261Y-36217380D01*
X199769261Y-36312619D01*
X199435928Y-36550714D02*
X199054976Y-36550714D01*
X199293071Y-36217380D02*
X199293071Y-37074523D01*
X199245452Y-37169761D01*
X199150214Y-37217380D01*
X199054976Y-37217380D01*
X198816880Y-36550714D02*
X198578785Y-37217380D01*
X198340690Y-36550714D02*
X198578785Y-37217380D01*
X198674023Y-37455476D01*
X198721642Y-37503095D01*
X198816880Y-37550714D01*
X131203238Y-34867904D02*
X131203238Y-35439333D01*
X131241333Y-35553619D01*
X131317523Y-35629809D01*
X131431809Y-35667904D01*
X131508000Y-35667904D01*
X130441333Y-35667904D02*
X130822285Y-35667904D01*
X130822285Y-34867904D01*
X129717523Y-35591714D02*
X129755619Y-35629809D01*
X129869904Y-35667904D01*
X129946095Y-35667904D01*
X130060380Y-35629809D01*
X130136571Y-35553619D01*
X130174666Y-35477428D01*
X130212761Y-35325047D01*
X130212761Y-35210761D01*
X130174666Y-35058380D01*
X130136571Y-34982190D01*
X130060380Y-34906000D01*
X129946095Y-34867904D01*
X129869904Y-34867904D01*
X129755619Y-34906000D01*
X129717523Y-34944095D01*
X129146095Y-34867904D02*
X129146095Y-35439333D01*
X129184190Y-35553619D01*
X129260380Y-35629809D01*
X129374666Y-35667904D01*
X129450857Y-35667904D01*
X128384190Y-35667904D02*
X128765142Y-35667904D01*
X128765142Y-34867904D01*
X127660380Y-35591714D02*
X127698476Y-35629809D01*
X127812761Y-35667904D01*
X127888952Y-35667904D01*
X128003238Y-35629809D01*
X128079428Y-35553619D01*
X128117523Y-35477428D01*
X128155619Y-35325047D01*
X128155619Y-35210761D01*
X128117523Y-35058380D01*
X128079428Y-34982190D01*
X128003238Y-34906000D01*
X127888952Y-34867904D01*
X127812761Y-34867904D01*
X127698476Y-34906000D01*
X127660380Y-34944095D01*
X127088952Y-34867904D02*
X127088952Y-35439333D01*
X127127047Y-35553619D01*
X127203238Y-35629809D01*
X127317523Y-35667904D01*
X127393714Y-35667904D01*
X126327047Y-35667904D02*
X126708000Y-35667904D01*
X126708000Y-34867904D01*
X125603238Y-35591714D02*
X125641333Y-35629809D01*
X125755619Y-35667904D01*
X125831809Y-35667904D01*
X125946095Y-35629809D01*
X126022285Y-35553619D01*
X126060380Y-35477428D01*
X126098476Y-35325047D01*
X126098476Y-35210761D01*
X126060380Y-35058380D01*
X126022285Y-34982190D01*
X125946095Y-34906000D01*
X125831809Y-34867904D01*
X125755619Y-34867904D01*
X125641333Y-34906000D01*
X125603238Y-34944095D01*
X125031809Y-34867904D02*
X125031809Y-35439333D01*
X125069904Y-35553619D01*
X125146095Y-35629809D01*
X125260380Y-35667904D01*
X125336571Y-35667904D01*
X124269904Y-35667904D02*
X124650857Y-35667904D01*
X124650857Y-34867904D01*
X123546095Y-35591714D02*
X123584190Y-35629809D01*
X123698476Y-35667904D01*
X123774666Y-35667904D01*
X123888952Y-35629809D01*
X123965142Y-35553619D01*
X124003238Y-35477428D01*
X124041333Y-35325047D01*
X124041333Y-35210761D01*
X124003238Y-35058380D01*
X123965142Y-34982190D01*
X123888952Y-34906000D01*
X123774666Y-34867904D01*
X123698476Y-34867904D01*
X123584190Y-34906000D01*
X123546095Y-34944095D01*
D12*
G36*
X89034400Y-93066400D02*
G01*
X78595000Y-74803800D01*
X81008000Y-73610000D01*
X83548000Y-72771800D01*
X89034400Y-93066400D01*
G37*
X89034400Y-93066400D02*
X78595000Y-74803800D01*
X81008000Y-73610000D01*
X83548000Y-72771800D01*
X89034400Y-93066400D01*
G36*
X89009000Y-93041000D02*
G01*
X70848000Y-82500000D01*
X72321200Y-80214000D01*
X74150000Y-78182000D01*
X89009000Y-93041000D01*
G37*
X89009000Y-93041000D02*
X70848000Y-82500000D01*
X72321200Y-80214000D01*
X74150000Y-78182000D01*
X89009000Y-93041000D01*
G36*
X89034400Y-93015600D02*
G01*
X67976021Y-93041000D01*
X68104800Y-90335901D01*
X68663600Y-87630800D01*
X89034400Y-93015600D01*
G37*
X89034400Y-93015600D02*
X67976021Y-93041000D01*
X68104800Y-90335901D01*
X68663600Y-87630800D01*
X89034400Y-93015600D01*
G36*
X70721000Y-103455000D02*
G01*
X69527200Y-101042000D01*
X68689000Y-98502000D01*
X88983600Y-93015600D01*
X70721000Y-103455000D01*
G37*
X70721000Y-103455000D02*
X69527200Y-101042000D01*
X68689000Y-98502000D01*
X88983600Y-93015600D01*
X70721000Y-103455000D01*
G36*
X78468000Y-111202000D02*
G01*
X76182000Y-109728800D01*
X74150000Y-107900000D01*
X89009000Y-93041000D01*
X78468000Y-111202000D01*
G37*
X78468000Y-111202000D02*
X76182000Y-109728800D01*
X74150000Y-107900000D01*
X89009000Y-93041000D01*
X78468000Y-111202000D01*
G36*
X99423000Y-111329000D02*
G01*
X97010000Y-112522800D01*
X94470000Y-113361000D01*
X88983600Y-93066400D01*
X99423000Y-111329000D01*
G37*
X99423000Y-111329000D02*
X97010000Y-112522800D01*
X94470000Y-113361000D01*
X88983600Y-93066400D01*
X99423000Y-111329000D01*
G36*
X107170000Y-103582000D02*
G01*
X105696800Y-105868000D01*
X103868000Y-107900000D01*
X89009000Y-93041000D01*
X107170000Y-103582000D01*
G37*
X107170000Y-103582000D02*
X105696800Y-105868000D01*
X103868000Y-107900000D01*
X89009000Y-93041000D01*
X107170000Y-103582000D01*
G36*
X109913200Y-95746099D02*
G01*
X109354400Y-98451200D01*
X88983600Y-93066400D01*
X110041979Y-93041000D01*
X109913200Y-95746099D01*
G37*
X109913200Y-95746099D02*
X109354400Y-98451200D01*
X88983600Y-93066400D01*
X110041979Y-93041000D01*
X109913200Y-95746099D01*
G36*
X108490800Y-85040000D02*
G01*
X109329000Y-87580000D01*
X89034400Y-93066400D01*
X107297000Y-82627000D01*
X108490800Y-85040000D01*
G37*
X108490800Y-85040000D02*
X109329000Y-87580000D01*
X89034400Y-93066400D01*
X107297000Y-82627000D01*
X108490800Y-85040000D01*
G36*
X101836000Y-76353200D02*
G01*
X103868000Y-78182000D01*
X89009000Y-93041000D01*
X99550000Y-74880000D01*
X101836000Y-76353200D01*
G37*
X101836000Y-76353200D02*
X103868000Y-78182000D01*
X89009000Y-93041000D01*
X99550000Y-74880000D01*
X101836000Y-76353200D01*
G36*
X91714099Y-72136800D02*
G01*
X94419200Y-72695600D01*
X89034400Y-93066400D01*
X89009000Y-72008021D01*
X91714099Y-72136800D01*
G37*
X91714099Y-72136800D02*
X94419200Y-72695600D01*
X89034400Y-93066400D01*
X89009000Y-72008021D01*
X91714099Y-72136800D01*
G36*
X89009000Y-114073979D02*
G01*
X86303901Y-113945200D01*
X83598800Y-113386400D01*
X88983600Y-93015600D01*
X89009000Y-114073979D01*
G37*
X89009000Y-114073979D02*
X86303901Y-113945200D01*
X83598800Y-113386400D01*
X88983600Y-93015600D01*
X89009000Y-114073979D01*
D10*
X100815789Y-64471753D02*
X98961421Y-63722540D01*
X100666798Y-65700622D02*
X101734301Y-63062195D01*
X100003915Y-66006580D02*
X100666798Y-65700622D01*
X98016960Y-65203798D02*
X100003915Y-66006580D01*
X99282456Y-62071586D02*
X98016960Y-65203798D01*
X101734301Y-63062195D02*
X99282456Y-62071586D01*
X100479211Y-59861247D02*
X102333579Y-60610460D01*
X100628202Y-58632378D02*
X99560699Y-61270805D01*
X101291085Y-58326420D02*
X100628202Y-58632378D01*
X103278040Y-59129202D02*
X101291085Y-58326420D01*
X102012544Y-62261414D02*
X103278040Y-59129202D01*
X99560699Y-61270805D02*
X102012544Y-62261414D01*
D13*
X209250000Y-30589000D02*
G75*
G03X208550000Y-31289000I0J-700000D01*
G01*
X210550000Y-31289000D02*
G75*
G03X209850000Y-30589000I-700000J0D01*
G01*
X209850000Y-34689000D02*
G75*
G03X210550000Y-33989000I0J700000D01*
G01*
X208550000Y-33989000D02*
G75*
G03X209250000Y-34689000I700000J0D01*
G01*
X208550000Y-31239000D02*
X208550000Y-34039000D01*
X209250000Y-34689000D02*
X209850000Y-34689000D01*
X210550000Y-34039000D02*
X210550000Y-31239000D01*
X209850000Y-30589000D02*
X209250000Y-30589000D01*
X210750000Y-31439000D02*
X211050000Y-31139000D01*
X211050000Y-31139000D02*
X211050000Y-31739000D01*
X210750000Y-31439000D02*
X211050000Y-31739000D01*
X205948000Y-30589000D02*
G75*
G03X205248000Y-31289000I0J-700000D01*
G01*
X207248000Y-31289000D02*
G75*
G03X206548000Y-30589000I-700000J0D01*
G01*
X206548000Y-34689000D02*
G75*
G03X207248000Y-33989000I0J700000D01*
G01*
X205248000Y-33989000D02*
G75*
G03X205948000Y-34689000I700000J0D01*
G01*
X205248000Y-31239000D02*
X205248000Y-34039000D01*
X205948000Y-34689000D02*
X206548000Y-34689000D01*
X207248000Y-34039000D02*
X207248000Y-31239000D01*
X206548000Y-30589000D02*
X205948000Y-30589000D01*
X207448000Y-31439000D02*
X207748000Y-31139000D01*
X207748000Y-31139000D02*
X207748000Y-31739000D01*
X207448000Y-31439000D02*
X207748000Y-31739000D01*
X211727000Y-49230000D02*
G75*
G03X211027000Y-48530000I-700000J0D01*
G01*
X211027000Y-50530000D02*
G75*
G03X211727000Y-49830000I0J700000D01*
G01*
X207627000Y-49830000D02*
G75*
G03X208327000Y-50530000I700000J0D01*
G01*
X208327000Y-48530000D02*
G75*
G03X207627000Y-49230000I0J-700000D01*
G01*
X211077000Y-48530000D02*
X208277000Y-48530000D01*
X207627000Y-49230000D02*
X207627000Y-49830000D01*
X208277000Y-50530000D02*
X211077000Y-50530000D01*
X211727000Y-49830000D02*
X211727000Y-49230000D01*
X210877000Y-50730000D02*
X211177000Y-51030000D01*
X211177000Y-51030000D02*
X210577000Y-51030000D01*
X210877000Y-50730000D02*
X210577000Y-51030000D01*
X211727000Y-52786000D02*
G75*
G03X211027000Y-52086000I-700000J0D01*
G01*
X211027000Y-54086000D02*
G75*
G03X211727000Y-53386000I0J700000D01*
G01*
X207627000Y-53386000D02*
G75*
G03X208327000Y-54086000I700000J0D01*
G01*
X208327000Y-52086000D02*
G75*
G03X207627000Y-52786000I0J-700000D01*
G01*
X211077000Y-52086000D02*
X208277000Y-52086000D01*
X207627000Y-52786000D02*
X207627000Y-53386000D01*
X208277000Y-54086000D02*
X211077000Y-54086000D01*
X211727000Y-53386000D02*
X211727000Y-52786000D01*
X210877000Y-54286000D02*
X211177000Y-54586000D01*
X211177000Y-54586000D02*
X210577000Y-54586000D01*
X210877000Y-54286000D02*
X210577000Y-54586000D01*
X199076000Y-28130000D02*
X199076000Y-25470000D01*
X206756000Y-28130000D02*
X199076000Y-28130000D01*
X206756000Y-25470000D02*
X199076000Y-25470000D01*
X206756000Y-28130000D02*
X206756000Y-25470000D01*
X208026000Y-28130000D02*
X209356000Y-28130000D01*
X209356000Y-28130000D02*
X209356000Y-26800000D01*
X193006000Y-52997000D02*
X197506000Y-52997000D01*
X191756000Y-56997000D02*
X191756000Y-55497000D01*
X197506000Y-59497000D02*
X193006000Y-59497000D01*
X198756000Y-55497000D02*
X198756000Y-56997000D01*
D10*
X104434567Y-65486671D02*
X104131314Y-66237248D01*
X104051486Y-66307713D01*
X103989496Y-66334026D01*
X103883354Y-66342501D01*
X103706748Y-66271147D01*
X103636283Y-66191319D01*
X103609969Y-66129329D01*
X103601495Y-66023187D01*
X103904748Y-65272610D01*
X102602957Y-65825187D02*
X103132777Y-66039248D01*
X102867867Y-65932217D02*
X103242473Y-65005033D01*
X103277261Y-65173165D01*
X103329888Y-65297145D01*
X103400353Y-65376974D01*
X106085567Y-61676671D02*
X105782314Y-62427248D01*
X105702486Y-62497713D01*
X105640496Y-62524026D01*
X105534354Y-62532501D01*
X105357748Y-62461147D01*
X105287283Y-62381319D01*
X105260969Y-62319329D01*
X105252495Y-62213187D01*
X105555748Y-61462610D01*
X105122706Y-61390367D02*
X105096393Y-61328377D01*
X105025928Y-61248549D01*
X104805170Y-61159357D01*
X104699029Y-61167831D01*
X104637039Y-61194145D01*
X104557210Y-61264609D01*
X104521533Y-61352913D01*
X104512170Y-61503206D01*
X104827928Y-62247086D01*
X104253957Y-62015187D01*
X210383333Y-35139380D02*
X210383333Y-35853666D01*
X210430952Y-35996523D01*
X210526190Y-36091761D01*
X210669047Y-36139380D01*
X210764285Y-36139380D01*
X209907142Y-36139380D02*
X209907142Y-35139380D01*
X209526190Y-35139380D01*
X209430952Y-35187000D01*
X209383333Y-35234619D01*
X209335714Y-35329857D01*
X209335714Y-35472714D01*
X209383333Y-35567952D01*
X209430952Y-35615571D01*
X209526190Y-35663190D01*
X209907142Y-35663190D01*
X208478571Y-35139380D02*
X208669047Y-35139380D01*
X208764285Y-35187000D01*
X208811904Y-35234619D01*
X208907142Y-35377476D01*
X208954761Y-35567952D01*
X208954761Y-35948904D01*
X208907142Y-36044142D01*
X208859523Y-36091761D01*
X208764285Y-36139380D01*
X208573809Y-36139380D01*
X208478571Y-36091761D01*
X208430952Y-36044142D01*
X208383333Y-35948904D01*
X208383333Y-35710809D01*
X208430952Y-35615571D01*
X208478571Y-35567952D01*
X208573809Y-35520333D01*
X208764285Y-35520333D01*
X208859523Y-35567952D01*
X208907142Y-35615571D01*
X208954761Y-35710809D01*
X207081333Y-35139380D02*
X207081333Y-35853666D01*
X207128952Y-35996523D01*
X207224190Y-36091761D01*
X207367047Y-36139380D01*
X207462285Y-36139380D01*
X206605142Y-36139380D02*
X206605142Y-35139380D01*
X206224190Y-35139380D01*
X206128952Y-35187000D01*
X206081333Y-35234619D01*
X206033714Y-35329857D01*
X206033714Y-35472714D01*
X206081333Y-35567952D01*
X206128952Y-35615571D01*
X206224190Y-35663190D01*
X206605142Y-35663190D01*
X205128952Y-35139380D02*
X205605142Y-35139380D01*
X205652761Y-35615571D01*
X205605142Y-35567952D01*
X205509904Y-35520333D01*
X205271809Y-35520333D01*
X205176571Y-35567952D01*
X205128952Y-35615571D01*
X205081333Y-35710809D01*
X205081333Y-35948904D01*
X205128952Y-36044142D01*
X205176571Y-36091761D01*
X205271809Y-36139380D01*
X205509904Y-36139380D01*
X205605142Y-36091761D01*
X205652761Y-36044142D01*
X206700333Y-48982380D02*
X206700333Y-49696666D01*
X206747952Y-49839523D01*
X206843190Y-49934761D01*
X206986047Y-49982380D01*
X207081285Y-49982380D01*
X206224142Y-49982380D02*
X206224142Y-48982380D01*
X205843190Y-48982380D01*
X205747952Y-49030000D01*
X205700333Y-49077619D01*
X205652714Y-49172857D01*
X205652714Y-49315714D01*
X205700333Y-49410952D01*
X205747952Y-49458571D01*
X205843190Y-49506190D01*
X206224142Y-49506190D01*
X204795571Y-49315714D02*
X204795571Y-49982380D01*
X205033666Y-48934761D02*
X205271761Y-49649047D01*
X204652714Y-49649047D01*
X206700333Y-52538380D02*
X206700333Y-53252666D01*
X206747952Y-53395523D01*
X206843190Y-53490761D01*
X206986047Y-53538380D01*
X207081285Y-53538380D01*
X206224142Y-53538380D02*
X206224142Y-52538380D01*
X205843190Y-52538380D01*
X205747952Y-52586000D01*
X205700333Y-52633619D01*
X205652714Y-52728857D01*
X205652714Y-52871714D01*
X205700333Y-52966952D01*
X205747952Y-53014571D01*
X205843190Y-53062190D01*
X206224142Y-53062190D01*
X205319380Y-52538380D02*
X204700333Y-52538380D01*
X205033666Y-52919333D01*
X204890809Y-52919333D01*
X204795571Y-52966952D01*
X204747952Y-53014571D01*
X204700333Y-53109809D01*
X204700333Y-53347904D01*
X204747952Y-53443142D01*
X204795571Y-53490761D01*
X204890809Y-53538380D01*
X205176523Y-53538380D01*
X205271761Y-53490761D01*
X205319380Y-53443142D01*
X211094095Y-27252380D02*
X211094095Y-26252380D01*
X210856000Y-26252380D01*
X210713142Y-26300000D01*
X210617904Y-26395238D01*
X210570285Y-26490476D01*
X210522666Y-26680952D01*
X210522666Y-26823809D01*
X210570285Y-27014285D01*
X210617904Y-27109523D01*
X210713142Y-27204761D01*
X210856000Y-27252380D01*
X211094095Y-27252380D01*
X210189333Y-26252380D02*
X209522666Y-26252380D01*
X209951238Y-27252380D01*
X196589333Y-60901761D02*
X196446476Y-60949380D01*
X196208380Y-60949380D01*
X196113142Y-60901761D01*
X196065523Y-60854142D01*
X196017904Y-60758904D01*
X196017904Y-60663666D01*
X196065523Y-60568428D01*
X196113142Y-60520809D01*
X196208380Y-60473190D01*
X196398857Y-60425571D01*
X196494095Y-60377952D01*
X196541714Y-60330333D01*
X196589333Y-60235095D01*
X196589333Y-60139857D01*
X196541714Y-60044619D01*
X196494095Y-59997000D01*
X196398857Y-59949380D01*
X196160761Y-59949380D01*
X196017904Y-59997000D01*
X195684571Y-59949380D02*
X195446476Y-60949380D01*
X195256000Y-60235095D01*
X195065523Y-60949380D01*
X194827428Y-59949380D01*
X193922666Y-60949380D02*
X194494095Y-60949380D01*
X194208380Y-60949380D02*
X194208380Y-59949380D01*
X194303619Y-60092238D01*
X194398857Y-60187476D01*
X194494095Y-60235095D01*
M02*
