G04 #@! TF.GenerationSoftware,KiCad,Pcbnew,(5.1.5-0-10_14)*
G04 #@! TF.CreationDate,2019-12-28T21:45:26+01:00*
G04 #@! TF.ProjectId,ErnoCCC,45726e6f-4343-4432-9e6b-696361645f70,rev?*
G04 #@! TF.SameCoordinates,Original*
G04 #@! TF.FileFunction,Soldermask,Bot*
G04 #@! TF.FilePolarity,Negative*
%FSLAX46Y46*%
G04 Gerber Fmt 4.6, Leading zero omitted, Abs format (unit mm)*
G04 Created by KiCad (PCBNEW (5.1.5-0-10_14)) date 2019-12-28 21:45:26*
%MOMM*%
%LPD*%
G04 APERTURE LIST*
%ADD10C,0.050000*%
G04 APERTURE END LIST*
D10*
G36*
X219976964Y-112013297D02*
G01*
X220144410Y-112046604D01*
X220426674Y-112163521D01*
X220680705Y-112333259D01*
X220896741Y-112549295D01*
X221066479Y-112803326D01*
X221183396Y-113085590D01*
X221189345Y-113115500D01*
X221243000Y-113385239D01*
X221243000Y-113690761D01*
X221228758Y-113762358D01*
X221183396Y-113990410D01*
X221066479Y-114272674D01*
X220896741Y-114526705D01*
X220680705Y-114742741D01*
X220426674Y-114912479D01*
X220144410Y-115029396D01*
X219994585Y-115059198D01*
X219844761Y-115089000D01*
X219539239Y-115089000D01*
X219389415Y-115059198D01*
X219239590Y-115029396D01*
X218957326Y-114912479D01*
X218703295Y-114742741D01*
X218487259Y-114526705D01*
X218317521Y-114272674D01*
X218200604Y-113990410D01*
X218155242Y-113762358D01*
X218141000Y-113690761D01*
X218141000Y-113385239D01*
X218194655Y-113115500D01*
X218200604Y-113085590D01*
X218317521Y-112803326D01*
X218487259Y-112549295D01*
X218703295Y-112333259D01*
X218957326Y-112163521D01*
X219239590Y-112046604D01*
X219407036Y-112013297D01*
X219539239Y-111987000D01*
X219844761Y-111987000D01*
X219976964Y-112013297D01*
G37*
G36*
X216163000Y-115089000D02*
G01*
X213061000Y-115089000D01*
X213061000Y-111987000D01*
X216163000Y-111987000D01*
X216163000Y-115089000D01*
G37*
G36*
X205928497Y-114271067D02*
G01*
X205983275Y-114293757D01*
X205983277Y-114293758D01*
X206032576Y-114326698D01*
X206074502Y-114368624D01*
X206107442Y-114417923D01*
X206107443Y-114417925D01*
X206130133Y-114472703D01*
X206141700Y-114530853D01*
X206141700Y-114590147D01*
X206130133Y-114648297D01*
X206122644Y-114666376D01*
X206107442Y-114703077D01*
X206074502Y-114752376D01*
X206032576Y-114794302D01*
X205983277Y-114827242D01*
X205983276Y-114827243D01*
X205983275Y-114827243D01*
X205928497Y-114849933D01*
X205870347Y-114861500D01*
X205811053Y-114861500D01*
X205752903Y-114849933D01*
X205698125Y-114827243D01*
X205698124Y-114827243D01*
X205698123Y-114827242D01*
X205648824Y-114794302D01*
X205606898Y-114752376D01*
X205573958Y-114703077D01*
X205558756Y-114666376D01*
X205551267Y-114648297D01*
X205539700Y-114590147D01*
X205539700Y-114530853D01*
X205551267Y-114472703D01*
X205573957Y-114417925D01*
X205573958Y-114417923D01*
X205606898Y-114368624D01*
X205648824Y-114326698D01*
X205698123Y-114293758D01*
X205698125Y-114293757D01*
X205752903Y-114271067D01*
X205811053Y-114259500D01*
X205870347Y-114259500D01*
X205928497Y-114271067D01*
G37*
G36*
X159981642Y-113225781D02*
G01*
X160127414Y-113286162D01*
X160127416Y-113286163D01*
X160258608Y-113373822D01*
X160370178Y-113485392D01*
X160457248Y-113615703D01*
X160457838Y-113616586D01*
X160518219Y-113762358D01*
X160549000Y-113917107D01*
X160549000Y-114074893D01*
X160518219Y-114229642D01*
X160460650Y-114368625D01*
X160457837Y-114375416D01*
X160370178Y-114506608D01*
X160258608Y-114618178D01*
X160127416Y-114705837D01*
X160127415Y-114705838D01*
X160127414Y-114705838D01*
X159981642Y-114766219D01*
X159826893Y-114797000D01*
X159669107Y-114797000D01*
X159514358Y-114766219D01*
X159368586Y-114705838D01*
X159368585Y-114705838D01*
X159368584Y-114705837D01*
X159237392Y-114618178D01*
X159125822Y-114506608D01*
X159038163Y-114375416D01*
X159035350Y-114368625D01*
X158977781Y-114229642D01*
X158947000Y-114074893D01*
X158947000Y-113917107D01*
X158977781Y-113762358D01*
X159038162Y-113616586D01*
X159038752Y-113615703D01*
X159125822Y-113485392D01*
X159237392Y-113373822D01*
X159368584Y-113286163D01*
X159368586Y-113286162D01*
X159514358Y-113225781D01*
X159669107Y-113195000D01*
X159826893Y-113195000D01*
X159981642Y-113225781D01*
G37*
G36*
X153377642Y-113225781D02*
G01*
X153523414Y-113286162D01*
X153523416Y-113286163D01*
X153654608Y-113373822D01*
X153766178Y-113485392D01*
X153853248Y-113615703D01*
X153853838Y-113616586D01*
X153914219Y-113762358D01*
X153945000Y-113917107D01*
X153945000Y-114074893D01*
X153914219Y-114229642D01*
X153856650Y-114368625D01*
X153853837Y-114375416D01*
X153766178Y-114506608D01*
X153654608Y-114618178D01*
X153523416Y-114705837D01*
X153523415Y-114705838D01*
X153523414Y-114705838D01*
X153377642Y-114766219D01*
X153222893Y-114797000D01*
X153065107Y-114797000D01*
X152910358Y-114766219D01*
X152764586Y-114705838D01*
X152764585Y-114705838D01*
X152764584Y-114705837D01*
X152633392Y-114618178D01*
X152521822Y-114506608D01*
X152434163Y-114375416D01*
X152431350Y-114368625D01*
X152373781Y-114229642D01*
X152343000Y-114074893D01*
X152343000Y-113917107D01*
X152373781Y-113762358D01*
X152434162Y-113616586D01*
X152434752Y-113615703D01*
X152521822Y-113485392D01*
X152633392Y-113373822D01*
X152764584Y-113286163D01*
X152764586Y-113286162D01*
X152910358Y-113225781D01*
X153065107Y-113195000D01*
X153222893Y-113195000D01*
X153377642Y-113225781D01*
G37*
G36*
X147281642Y-113225781D02*
G01*
X147427414Y-113286162D01*
X147427416Y-113286163D01*
X147558608Y-113373822D01*
X147670178Y-113485392D01*
X147757248Y-113615703D01*
X147757838Y-113616586D01*
X147818219Y-113762358D01*
X147849000Y-113917107D01*
X147849000Y-114074893D01*
X147818219Y-114229642D01*
X147760650Y-114368625D01*
X147757837Y-114375416D01*
X147670178Y-114506608D01*
X147558608Y-114618178D01*
X147427416Y-114705837D01*
X147427415Y-114705838D01*
X147427414Y-114705838D01*
X147281642Y-114766219D01*
X147126893Y-114797000D01*
X146969107Y-114797000D01*
X146814358Y-114766219D01*
X146668586Y-114705838D01*
X146668585Y-114705838D01*
X146668584Y-114705837D01*
X146537392Y-114618178D01*
X146425822Y-114506608D01*
X146338163Y-114375416D01*
X146335350Y-114368625D01*
X146277781Y-114229642D01*
X146247000Y-114074893D01*
X146247000Y-113917107D01*
X146277781Y-113762358D01*
X146338162Y-113616586D01*
X146338752Y-113615703D01*
X146425822Y-113485392D01*
X146537392Y-113373822D01*
X146668584Y-113286163D01*
X146668586Y-113286162D01*
X146814358Y-113225781D01*
X146969107Y-113195000D01*
X147126893Y-113195000D01*
X147281642Y-113225781D01*
G37*
G36*
X140677642Y-113225781D02*
G01*
X140823414Y-113286162D01*
X140823416Y-113286163D01*
X140954608Y-113373822D01*
X141066178Y-113485392D01*
X141153248Y-113615703D01*
X141153838Y-113616586D01*
X141214219Y-113762358D01*
X141245000Y-113917107D01*
X141245000Y-114074893D01*
X141214219Y-114229642D01*
X141156650Y-114368625D01*
X141153837Y-114375416D01*
X141066178Y-114506608D01*
X140954608Y-114618178D01*
X140823416Y-114705837D01*
X140823415Y-114705838D01*
X140823414Y-114705838D01*
X140677642Y-114766219D01*
X140522893Y-114797000D01*
X140365107Y-114797000D01*
X140210358Y-114766219D01*
X140064586Y-114705838D01*
X140064585Y-114705838D01*
X140064584Y-114705837D01*
X139933392Y-114618178D01*
X139821822Y-114506608D01*
X139734163Y-114375416D01*
X139731350Y-114368625D01*
X139673781Y-114229642D01*
X139643000Y-114074893D01*
X139643000Y-113917107D01*
X139673781Y-113762358D01*
X139734162Y-113616586D01*
X139734752Y-113615703D01*
X139821822Y-113485392D01*
X139933392Y-113373822D01*
X140064584Y-113286163D01*
X140064586Y-113286162D01*
X140210358Y-113225781D01*
X140365107Y-113195000D01*
X140522893Y-113195000D01*
X140677642Y-113225781D01*
G37*
G36*
X134581642Y-113225781D02*
G01*
X134727414Y-113286162D01*
X134727416Y-113286163D01*
X134858608Y-113373822D01*
X134970178Y-113485392D01*
X135057248Y-113615703D01*
X135057838Y-113616586D01*
X135118219Y-113762358D01*
X135149000Y-113917107D01*
X135149000Y-114074893D01*
X135118219Y-114229642D01*
X135060650Y-114368625D01*
X135057837Y-114375416D01*
X134970178Y-114506608D01*
X134858608Y-114618178D01*
X134727416Y-114705837D01*
X134727415Y-114705838D01*
X134727414Y-114705838D01*
X134581642Y-114766219D01*
X134426893Y-114797000D01*
X134269107Y-114797000D01*
X134114358Y-114766219D01*
X133968586Y-114705838D01*
X133968585Y-114705838D01*
X133968584Y-114705837D01*
X133837392Y-114618178D01*
X133725822Y-114506608D01*
X133638163Y-114375416D01*
X133635350Y-114368625D01*
X133577781Y-114229642D01*
X133547000Y-114074893D01*
X133547000Y-113917107D01*
X133577781Y-113762358D01*
X133638162Y-113616586D01*
X133638752Y-113615703D01*
X133725822Y-113485392D01*
X133837392Y-113373822D01*
X133968584Y-113286163D01*
X133968586Y-113286162D01*
X134114358Y-113225781D01*
X134269107Y-113195000D01*
X134426893Y-113195000D01*
X134581642Y-113225781D01*
G37*
G36*
X209747097Y-114185067D02*
G01*
X209801875Y-114207757D01*
X209801877Y-114207758D01*
X209851176Y-114240698D01*
X209893102Y-114282624D01*
X209926042Y-114331923D01*
X209926043Y-114331925D01*
X209948733Y-114386703D01*
X209960300Y-114444853D01*
X209960300Y-114504147D01*
X209948733Y-114562297D01*
X209937197Y-114590146D01*
X209926042Y-114617077D01*
X209893102Y-114666376D01*
X209851176Y-114708302D01*
X209801877Y-114741242D01*
X209801876Y-114741243D01*
X209801875Y-114741243D01*
X209747097Y-114763933D01*
X209688947Y-114775500D01*
X209629653Y-114775500D01*
X209571503Y-114763933D01*
X209516725Y-114741243D01*
X209516724Y-114741243D01*
X209516723Y-114741242D01*
X209467424Y-114708302D01*
X209425498Y-114666376D01*
X209392558Y-114617077D01*
X209381403Y-114590146D01*
X209369867Y-114562297D01*
X209358300Y-114504147D01*
X209358300Y-114444853D01*
X209369867Y-114386703D01*
X209392557Y-114331925D01*
X209392558Y-114331923D01*
X209425498Y-114282624D01*
X209467424Y-114240698D01*
X209516723Y-114207758D01*
X209516725Y-114207757D01*
X209571503Y-114185067D01*
X209629653Y-114173500D01*
X209688947Y-114173500D01*
X209747097Y-114185067D01*
G37*
G36*
X205928497Y-113414067D02*
G01*
X205983275Y-113436757D01*
X205983277Y-113436758D01*
X206032576Y-113469698D01*
X206074502Y-113511624D01*
X206104054Y-113555853D01*
X206107443Y-113560925D01*
X206130133Y-113615703D01*
X206141700Y-113673853D01*
X206141700Y-113733147D01*
X206130133Y-113791297D01*
X206107443Y-113846075D01*
X206107442Y-113846077D01*
X206074502Y-113895376D01*
X206032576Y-113937302D01*
X205983277Y-113970242D01*
X205983276Y-113970243D01*
X205983275Y-113970243D01*
X205928497Y-113992933D01*
X205870347Y-114004500D01*
X205811053Y-114004500D01*
X205752903Y-113992933D01*
X205698125Y-113970243D01*
X205698124Y-113970243D01*
X205698123Y-113970242D01*
X205648824Y-113937302D01*
X205606898Y-113895376D01*
X205573958Y-113846077D01*
X205573957Y-113846075D01*
X205551267Y-113791297D01*
X205539700Y-113733147D01*
X205539700Y-113673853D01*
X205551267Y-113615703D01*
X205573957Y-113560925D01*
X205577346Y-113555853D01*
X205606898Y-113511624D01*
X205648824Y-113469698D01*
X205698123Y-113436758D01*
X205698125Y-113436757D01*
X205752903Y-113414067D01*
X205811053Y-113402500D01*
X205870347Y-113402500D01*
X205928497Y-113414067D01*
G37*
G36*
X209747097Y-113296067D02*
G01*
X209801875Y-113318757D01*
X209801877Y-113318758D01*
X209851176Y-113351698D01*
X209893102Y-113393624D01*
X209926042Y-113442923D01*
X209926043Y-113442925D01*
X209948733Y-113497703D01*
X209960300Y-113555853D01*
X209960300Y-113615147D01*
X209948733Y-113673297D01*
X209941499Y-113690761D01*
X209926042Y-113728077D01*
X209893102Y-113777376D01*
X209851176Y-113819302D01*
X209801877Y-113852242D01*
X209801876Y-113852243D01*
X209801875Y-113852243D01*
X209747097Y-113874933D01*
X209688947Y-113886500D01*
X209629653Y-113886500D01*
X209571503Y-113874933D01*
X209516725Y-113852243D01*
X209516724Y-113852243D01*
X209516723Y-113852242D01*
X209467424Y-113819302D01*
X209425498Y-113777376D01*
X209392558Y-113728077D01*
X209377101Y-113690761D01*
X209369867Y-113673297D01*
X209358300Y-113615147D01*
X209358300Y-113555853D01*
X209369867Y-113497703D01*
X209392557Y-113442925D01*
X209392558Y-113442923D01*
X209425498Y-113393624D01*
X209467424Y-113351698D01*
X209516723Y-113318758D01*
X209516725Y-113318757D01*
X209571503Y-113296067D01*
X209629653Y-113284500D01*
X209688947Y-113284500D01*
X209747097Y-113296067D01*
G37*
G36*
X205928497Y-112525067D02*
G01*
X205983275Y-112547757D01*
X205983277Y-112547758D01*
X206032576Y-112580698D01*
X206074502Y-112622624D01*
X206104054Y-112666853D01*
X206107443Y-112671925D01*
X206130133Y-112726703D01*
X206141700Y-112784853D01*
X206141700Y-112844147D01*
X206130133Y-112902297D01*
X206107443Y-112957075D01*
X206107442Y-112957077D01*
X206074502Y-113006376D01*
X206032576Y-113048302D01*
X205983277Y-113081242D01*
X205983276Y-113081243D01*
X205983275Y-113081243D01*
X205928497Y-113103933D01*
X205870347Y-113115500D01*
X205811053Y-113115500D01*
X205752903Y-113103933D01*
X205698125Y-113081243D01*
X205698124Y-113081243D01*
X205698123Y-113081242D01*
X205648824Y-113048302D01*
X205606898Y-113006376D01*
X205573958Y-112957077D01*
X205573957Y-112957075D01*
X205551267Y-112902297D01*
X205539700Y-112844147D01*
X205539700Y-112784853D01*
X205551267Y-112726703D01*
X205573957Y-112671925D01*
X205577346Y-112666853D01*
X205606898Y-112622624D01*
X205648824Y-112580698D01*
X205698123Y-112547758D01*
X205698125Y-112547757D01*
X205752903Y-112525067D01*
X205811053Y-112513500D01*
X205870347Y-112513500D01*
X205928497Y-112525067D01*
G37*
G36*
X209747097Y-112407067D02*
G01*
X209801875Y-112429757D01*
X209801877Y-112429758D01*
X209851176Y-112462698D01*
X209893102Y-112504624D01*
X209922950Y-112549296D01*
X209926043Y-112553925D01*
X209948733Y-112608703D01*
X209960300Y-112666853D01*
X209960300Y-112726147D01*
X209948733Y-112784297D01*
X209940850Y-112803328D01*
X209926042Y-112839077D01*
X209893102Y-112888376D01*
X209851176Y-112930302D01*
X209801877Y-112963242D01*
X209801876Y-112963243D01*
X209801875Y-112963243D01*
X209747097Y-112985933D01*
X209688947Y-112997500D01*
X209629653Y-112997500D01*
X209571503Y-112985933D01*
X209516725Y-112963243D01*
X209516724Y-112963243D01*
X209516723Y-112963242D01*
X209467424Y-112930302D01*
X209425498Y-112888376D01*
X209392558Y-112839077D01*
X209377750Y-112803328D01*
X209369867Y-112784297D01*
X209358300Y-112726147D01*
X209358300Y-112666853D01*
X209369867Y-112608703D01*
X209392557Y-112553925D01*
X209395650Y-112549296D01*
X209425498Y-112504624D01*
X209467424Y-112462698D01*
X209516723Y-112429758D01*
X209516725Y-112429757D01*
X209571503Y-112407067D01*
X209629653Y-112395500D01*
X209688947Y-112395500D01*
X209747097Y-112407067D01*
G37*
G36*
X205928497Y-111636067D02*
G01*
X205983275Y-111658757D01*
X205983277Y-111658758D01*
X206032576Y-111691698D01*
X206074502Y-111733624D01*
X206107442Y-111782923D01*
X206107443Y-111782925D01*
X206130133Y-111837703D01*
X206141700Y-111895853D01*
X206141700Y-111955147D01*
X206130133Y-112013297D01*
X206107443Y-112068075D01*
X206107442Y-112068077D01*
X206074502Y-112117376D01*
X206032576Y-112159302D01*
X205983277Y-112192242D01*
X205983276Y-112192243D01*
X205983275Y-112192243D01*
X205928497Y-112214933D01*
X205870347Y-112226500D01*
X205811053Y-112226500D01*
X205752903Y-112214933D01*
X205698125Y-112192243D01*
X205698124Y-112192243D01*
X205698123Y-112192242D01*
X205648824Y-112159302D01*
X205606898Y-112117376D01*
X205573958Y-112068077D01*
X205573957Y-112068075D01*
X205551267Y-112013297D01*
X205539700Y-111955147D01*
X205539700Y-111895853D01*
X205551267Y-111837703D01*
X205573957Y-111782925D01*
X205573958Y-111782923D01*
X205606898Y-111733624D01*
X205648824Y-111691698D01*
X205698123Y-111658758D01*
X205698125Y-111658757D01*
X205752903Y-111636067D01*
X205811053Y-111624500D01*
X205870347Y-111624500D01*
X205928497Y-111636067D01*
G37*
G36*
X209747097Y-111550067D02*
G01*
X209801875Y-111572757D01*
X209801877Y-111572758D01*
X209851176Y-111605698D01*
X209893102Y-111647624D01*
X209926042Y-111696923D01*
X209926043Y-111696925D01*
X209948733Y-111751703D01*
X209960300Y-111809853D01*
X209960300Y-111869147D01*
X209948733Y-111927297D01*
X209937197Y-111955146D01*
X209926042Y-111982077D01*
X209893102Y-112031376D01*
X209851176Y-112073302D01*
X209801877Y-112106242D01*
X209801876Y-112106243D01*
X209801875Y-112106243D01*
X209747097Y-112128933D01*
X209688947Y-112140500D01*
X209629653Y-112140500D01*
X209571503Y-112128933D01*
X209516725Y-112106243D01*
X209516724Y-112106243D01*
X209516723Y-112106242D01*
X209467424Y-112073302D01*
X209425498Y-112031376D01*
X209392558Y-111982077D01*
X209381403Y-111955146D01*
X209369867Y-111927297D01*
X209358300Y-111869147D01*
X209358300Y-111809853D01*
X209369867Y-111751703D01*
X209392557Y-111696925D01*
X209392558Y-111696923D01*
X209425498Y-111647624D01*
X209467424Y-111605698D01*
X209516723Y-111572758D01*
X209516725Y-111572757D01*
X209571503Y-111550067D01*
X209629653Y-111538500D01*
X209688947Y-111538500D01*
X209747097Y-111550067D01*
G37*
G36*
X164941512Y-110305927D02*
G01*
X165090812Y-110335624D01*
X165254784Y-110403544D01*
X165402354Y-110502147D01*
X165527853Y-110627646D01*
X165626456Y-110775216D01*
X165694376Y-110939188D01*
X165729000Y-111113259D01*
X165729000Y-111290741D01*
X165694376Y-111464812D01*
X165626456Y-111628784D01*
X165527853Y-111776354D01*
X165402354Y-111901853D01*
X165254784Y-112000456D01*
X165090812Y-112068376D01*
X164941512Y-112098073D01*
X164916742Y-112103000D01*
X164739258Y-112103000D01*
X164714488Y-112098073D01*
X164565188Y-112068376D01*
X164401216Y-112000456D01*
X164253646Y-111901853D01*
X164128147Y-111776354D01*
X164029544Y-111628784D01*
X163961624Y-111464812D01*
X163927000Y-111290741D01*
X163927000Y-111113259D01*
X163961624Y-110939188D01*
X164029544Y-110775216D01*
X164128147Y-110627646D01*
X164253646Y-110502147D01*
X164401216Y-110403544D01*
X164565188Y-110335624D01*
X164714488Y-110305927D01*
X164739258Y-110301000D01*
X164916742Y-110301000D01*
X164941512Y-110305927D01*
G37*
G36*
X118989000Y-110508007D02*
G01*
X118991402Y-110532393D01*
X118998515Y-110555842D01*
X119010066Y-110577453D01*
X119025611Y-110596395D01*
X119044553Y-110611940D01*
X119066164Y-110623491D01*
X119089613Y-110630604D01*
X119113999Y-110633006D01*
X119138385Y-110630604D01*
X119161834Y-110623491D01*
X119183445Y-110611940D01*
X119202387Y-110596395D01*
X119217932Y-110577453D01*
X119229483Y-110555842D01*
X119236596Y-110532393D01*
X119271232Y-110358267D01*
X119280611Y-110335625D01*
X119357997Y-110148797D01*
X119483960Y-109960280D01*
X119644280Y-109799960D01*
X119832797Y-109673997D01*
X120042266Y-109587232D01*
X120164089Y-109563000D01*
X120264635Y-109543000D01*
X120491365Y-109543000D01*
X120591911Y-109563000D01*
X120713734Y-109587232D01*
X120923203Y-109673997D01*
X121111720Y-109799960D01*
X121272040Y-109960280D01*
X121398003Y-110148797D01*
X121475390Y-110335625D01*
X121484768Y-110358267D01*
X121525403Y-110562552D01*
X121532516Y-110586001D01*
X121544067Y-110607612D01*
X121559612Y-110626554D01*
X121578554Y-110642099D01*
X121600165Y-110653650D01*
X121623614Y-110660763D01*
X121648000Y-110663165D01*
X121672386Y-110660763D01*
X121695835Y-110653650D01*
X121717446Y-110642099D01*
X121736388Y-110626554D01*
X121751933Y-110607612D01*
X121763484Y-110586001D01*
X121770597Y-110562552D01*
X121811232Y-110358267D01*
X121820611Y-110335625D01*
X121897997Y-110148797D01*
X122023960Y-109960280D01*
X122184280Y-109799960D01*
X122372797Y-109673997D01*
X122582266Y-109587232D01*
X122704089Y-109563000D01*
X122804635Y-109543000D01*
X123031365Y-109543000D01*
X123131911Y-109563000D01*
X123253734Y-109587232D01*
X123463203Y-109673997D01*
X123651720Y-109799960D01*
X123812040Y-109960280D01*
X123938003Y-110148797D01*
X124015390Y-110335625D01*
X124024768Y-110358267D01*
X124065403Y-110562552D01*
X124072516Y-110586001D01*
X124084067Y-110607612D01*
X124099612Y-110626554D01*
X124118554Y-110642099D01*
X124140165Y-110653650D01*
X124163614Y-110660763D01*
X124188000Y-110663165D01*
X124212386Y-110660763D01*
X124235835Y-110653650D01*
X124257446Y-110642099D01*
X124276388Y-110626554D01*
X124291933Y-110607612D01*
X124303484Y-110586001D01*
X124310597Y-110562552D01*
X124351232Y-110358267D01*
X124360611Y-110335625D01*
X124437997Y-110148797D01*
X124563960Y-109960280D01*
X124724280Y-109799960D01*
X124912797Y-109673997D01*
X125122266Y-109587232D01*
X125244089Y-109563000D01*
X125344635Y-109543000D01*
X125571365Y-109543000D01*
X125671911Y-109563000D01*
X125793734Y-109587232D01*
X126003203Y-109673997D01*
X126191720Y-109799960D01*
X126352040Y-109960280D01*
X126478003Y-110148797D01*
X126555390Y-110335625D01*
X126564768Y-110358267D01*
X126605403Y-110562552D01*
X126612516Y-110586001D01*
X126624067Y-110607612D01*
X126639612Y-110626554D01*
X126658554Y-110642099D01*
X126680165Y-110653650D01*
X126703614Y-110660763D01*
X126728000Y-110663165D01*
X126752386Y-110660763D01*
X126775835Y-110653650D01*
X126797446Y-110642099D01*
X126816388Y-110626554D01*
X126831933Y-110607612D01*
X126843484Y-110586001D01*
X126850597Y-110562552D01*
X126891232Y-110358267D01*
X126900611Y-110335625D01*
X126977997Y-110148797D01*
X127103960Y-109960280D01*
X127264280Y-109799960D01*
X127452797Y-109673997D01*
X127662266Y-109587232D01*
X127784089Y-109563000D01*
X127884635Y-109543000D01*
X128111365Y-109543000D01*
X128211911Y-109563000D01*
X128333734Y-109587232D01*
X128543203Y-109673997D01*
X128731720Y-109799960D01*
X128892040Y-109960280D01*
X129018003Y-110148797D01*
X129104768Y-110358266D01*
X129149000Y-110580636D01*
X129149000Y-110807364D01*
X129104768Y-111029734D01*
X129018003Y-111239203D01*
X128892040Y-111427720D01*
X128731720Y-111588040D01*
X128543203Y-111714003D01*
X128333734Y-111800768D01*
X128288060Y-111809853D01*
X128111365Y-111845000D01*
X127884635Y-111845000D01*
X127707940Y-111809853D01*
X127662266Y-111800768D01*
X127452797Y-111714003D01*
X127264280Y-111588040D01*
X127103960Y-111427720D01*
X126977997Y-111239203D01*
X126891232Y-111029734D01*
X126850597Y-110825448D01*
X126843484Y-110801999D01*
X126831933Y-110780388D01*
X126816388Y-110761446D01*
X126797446Y-110745901D01*
X126775835Y-110734350D01*
X126752386Y-110727237D01*
X126728000Y-110724835D01*
X126703614Y-110727237D01*
X126680165Y-110734350D01*
X126658554Y-110745901D01*
X126639612Y-110761446D01*
X126624067Y-110780388D01*
X126612516Y-110801999D01*
X126605403Y-110825448D01*
X126564768Y-111029734D01*
X126478003Y-111239203D01*
X126352040Y-111427720D01*
X126191720Y-111588040D01*
X126003203Y-111714003D01*
X125793734Y-111800768D01*
X125748060Y-111809853D01*
X125571365Y-111845000D01*
X125344635Y-111845000D01*
X125167940Y-111809853D01*
X125122266Y-111800768D01*
X124912797Y-111714003D01*
X124724280Y-111588040D01*
X124563960Y-111427720D01*
X124437997Y-111239203D01*
X124351232Y-111029734D01*
X124310597Y-110825448D01*
X124303484Y-110801999D01*
X124291933Y-110780388D01*
X124276388Y-110761446D01*
X124257446Y-110745901D01*
X124235835Y-110734350D01*
X124212386Y-110727237D01*
X124188000Y-110724835D01*
X124163614Y-110727237D01*
X124140165Y-110734350D01*
X124118554Y-110745901D01*
X124099612Y-110761446D01*
X124084067Y-110780388D01*
X124072516Y-110801999D01*
X124065403Y-110825448D01*
X124024768Y-111029734D01*
X123938003Y-111239203D01*
X123812040Y-111427720D01*
X123651720Y-111588040D01*
X123463203Y-111714003D01*
X123253734Y-111800768D01*
X123208060Y-111809853D01*
X123031365Y-111845000D01*
X122804635Y-111845000D01*
X122627940Y-111809853D01*
X122582266Y-111800768D01*
X122372797Y-111714003D01*
X122184280Y-111588040D01*
X122023960Y-111427720D01*
X121897997Y-111239203D01*
X121811232Y-111029734D01*
X121770597Y-110825448D01*
X121763484Y-110801999D01*
X121751933Y-110780388D01*
X121736388Y-110761446D01*
X121717446Y-110745901D01*
X121695835Y-110734350D01*
X121672386Y-110727237D01*
X121648000Y-110724835D01*
X121623614Y-110727237D01*
X121600165Y-110734350D01*
X121578554Y-110745901D01*
X121559612Y-110761446D01*
X121544067Y-110780388D01*
X121532516Y-110801999D01*
X121525403Y-110825448D01*
X121484768Y-111029734D01*
X121398003Y-111239203D01*
X121272040Y-111427720D01*
X121111720Y-111588040D01*
X120923203Y-111714003D01*
X120713734Y-111800768D01*
X120668060Y-111809853D01*
X120491365Y-111845000D01*
X120264635Y-111845000D01*
X120087940Y-111809853D01*
X120042266Y-111800768D01*
X119832797Y-111714003D01*
X119644280Y-111588040D01*
X119483960Y-111427720D01*
X119357997Y-111239203D01*
X119271232Y-111029734D01*
X119236596Y-110855607D01*
X119229483Y-110832158D01*
X119217932Y-110810547D01*
X119202387Y-110791605D01*
X119183445Y-110776060D01*
X119161834Y-110764509D01*
X119138385Y-110757396D01*
X119113999Y-110754994D01*
X119089613Y-110757396D01*
X119066164Y-110764509D01*
X119044553Y-110776060D01*
X119025611Y-110791605D01*
X119010066Y-110810547D01*
X118998515Y-110832158D01*
X118991402Y-110855607D01*
X118989000Y-110879993D01*
X118989000Y-111845000D01*
X116687000Y-111845000D01*
X116687000Y-109543000D01*
X118989000Y-109543000D01*
X118989000Y-110508007D01*
G37*
G36*
X164941512Y-107765927D02*
G01*
X165090812Y-107795624D01*
X165254784Y-107863544D01*
X165402354Y-107962147D01*
X165527853Y-108087646D01*
X165626456Y-108235216D01*
X165694376Y-108399188D01*
X165729000Y-108573259D01*
X165729000Y-108750741D01*
X165694376Y-108924812D01*
X165626456Y-109088784D01*
X165527853Y-109236354D01*
X165402354Y-109361853D01*
X165254784Y-109460456D01*
X165090812Y-109528376D01*
X164941512Y-109558073D01*
X164916742Y-109563000D01*
X164739258Y-109563000D01*
X164714488Y-109558073D01*
X164565188Y-109528376D01*
X164401216Y-109460456D01*
X164253646Y-109361853D01*
X164128147Y-109236354D01*
X164029544Y-109088784D01*
X163961624Y-108924812D01*
X163927000Y-108750741D01*
X163927000Y-108573259D01*
X163961624Y-108399188D01*
X164029544Y-108235216D01*
X164128147Y-108087646D01*
X164253646Y-107962147D01*
X164401216Y-107863544D01*
X164565188Y-107795624D01*
X164714488Y-107765927D01*
X164739258Y-107761000D01*
X164916742Y-107761000D01*
X164941512Y-107765927D01*
G37*
G36*
X147173589Y-107900876D02*
G01*
X147272893Y-107920629D01*
X147413206Y-107978748D01*
X147539484Y-108063125D01*
X147646875Y-108170516D01*
X147731252Y-108296794D01*
X147789371Y-108437107D01*
X147819000Y-108586063D01*
X147819000Y-108737937D01*
X147789371Y-108886893D01*
X147731252Y-109027206D01*
X147646875Y-109153484D01*
X147539484Y-109260875D01*
X147413206Y-109345252D01*
X147272893Y-109403371D01*
X147173589Y-109423124D01*
X147123938Y-109433000D01*
X146972062Y-109433000D01*
X146922411Y-109423124D01*
X146823107Y-109403371D01*
X146682794Y-109345252D01*
X146556516Y-109260875D01*
X146449125Y-109153484D01*
X146364748Y-109027206D01*
X146306629Y-108886893D01*
X146277000Y-108737937D01*
X146277000Y-108586063D01*
X146306629Y-108437107D01*
X146364748Y-108296794D01*
X146449125Y-108170516D01*
X146556516Y-108063125D01*
X146682794Y-107978748D01*
X146823107Y-107920629D01*
X146922411Y-107900876D01*
X146972062Y-107891000D01*
X147123938Y-107891000D01*
X147173589Y-107900876D01*
G37*
G36*
X140823589Y-107900876D02*
G01*
X140922893Y-107920629D01*
X141063206Y-107978748D01*
X141189484Y-108063125D01*
X141296875Y-108170516D01*
X141381252Y-108296794D01*
X141439371Y-108437107D01*
X141469000Y-108586063D01*
X141469000Y-108737937D01*
X141439371Y-108886893D01*
X141381252Y-109027206D01*
X141296875Y-109153484D01*
X141189484Y-109260875D01*
X141063206Y-109345252D01*
X140922893Y-109403371D01*
X140823589Y-109423124D01*
X140773938Y-109433000D01*
X140622062Y-109433000D01*
X140572411Y-109423124D01*
X140473107Y-109403371D01*
X140332794Y-109345252D01*
X140206516Y-109260875D01*
X140099125Y-109153484D01*
X140014748Y-109027206D01*
X139956629Y-108886893D01*
X139927000Y-108737937D01*
X139927000Y-108586063D01*
X139956629Y-108437107D01*
X140014748Y-108296794D01*
X140099125Y-108170516D01*
X140206516Y-108063125D01*
X140332794Y-107978748D01*
X140473107Y-107920629D01*
X140572411Y-107900876D01*
X140622062Y-107891000D01*
X140773938Y-107891000D01*
X140823589Y-107900876D01*
G37*
G36*
X134473589Y-107900876D02*
G01*
X134572893Y-107920629D01*
X134713206Y-107978748D01*
X134839484Y-108063125D01*
X134946875Y-108170516D01*
X135031252Y-108296794D01*
X135089371Y-108437107D01*
X135119000Y-108586063D01*
X135119000Y-108737937D01*
X135089371Y-108886893D01*
X135031252Y-109027206D01*
X134946875Y-109153484D01*
X134839484Y-109260875D01*
X134713206Y-109345252D01*
X134572893Y-109403371D01*
X134473589Y-109423124D01*
X134423938Y-109433000D01*
X134272062Y-109433000D01*
X134222411Y-109423124D01*
X134123107Y-109403371D01*
X133982794Y-109345252D01*
X133856516Y-109260875D01*
X133749125Y-109153484D01*
X133664748Y-109027206D01*
X133606629Y-108886893D01*
X133577000Y-108737937D01*
X133577000Y-108586063D01*
X133606629Y-108437107D01*
X133664748Y-108296794D01*
X133749125Y-108170516D01*
X133856516Y-108063125D01*
X133982794Y-107978748D01*
X134123107Y-107920629D01*
X134222411Y-107900876D01*
X134272062Y-107891000D01*
X134423938Y-107891000D01*
X134473589Y-107900876D01*
G37*
G36*
X153523589Y-107900876D02*
G01*
X153622893Y-107920629D01*
X153763206Y-107978748D01*
X153889484Y-108063125D01*
X153996875Y-108170516D01*
X154081252Y-108296794D01*
X154139371Y-108437107D01*
X154169000Y-108586063D01*
X154169000Y-108737937D01*
X154139371Y-108886893D01*
X154081252Y-109027206D01*
X153996875Y-109153484D01*
X153889484Y-109260875D01*
X153763206Y-109345252D01*
X153622893Y-109403371D01*
X153523589Y-109423124D01*
X153473938Y-109433000D01*
X153322062Y-109433000D01*
X153272411Y-109423124D01*
X153173107Y-109403371D01*
X153032794Y-109345252D01*
X152906516Y-109260875D01*
X152799125Y-109153484D01*
X152714748Y-109027206D01*
X152656629Y-108886893D01*
X152627000Y-108737937D01*
X152627000Y-108586063D01*
X152656629Y-108437107D01*
X152714748Y-108296794D01*
X152799125Y-108170516D01*
X152906516Y-108063125D01*
X153032794Y-107978748D01*
X153173107Y-107920629D01*
X153272411Y-107900876D01*
X153322062Y-107891000D01*
X153473938Y-107891000D01*
X153523589Y-107900876D01*
G37*
G36*
X159873589Y-107900876D02*
G01*
X159972893Y-107920629D01*
X160113206Y-107978748D01*
X160239484Y-108063125D01*
X160346875Y-108170516D01*
X160431252Y-108296794D01*
X160489371Y-108437107D01*
X160519000Y-108586063D01*
X160519000Y-108737937D01*
X160489371Y-108886893D01*
X160431252Y-109027206D01*
X160346875Y-109153484D01*
X160239484Y-109260875D01*
X160113206Y-109345252D01*
X159972893Y-109403371D01*
X159873589Y-109423124D01*
X159823938Y-109433000D01*
X159672062Y-109433000D01*
X159622411Y-109423124D01*
X159523107Y-109403371D01*
X159382794Y-109345252D01*
X159256516Y-109260875D01*
X159149125Y-109153484D01*
X159064748Y-109027206D01*
X159006629Y-108886893D01*
X158977000Y-108737937D01*
X158977000Y-108586063D01*
X159006629Y-108437107D01*
X159064748Y-108296794D01*
X159149125Y-108170516D01*
X159256516Y-108063125D01*
X159382794Y-107978748D01*
X159523107Y-107920629D01*
X159622411Y-107900876D01*
X159672062Y-107891000D01*
X159823938Y-107891000D01*
X159873589Y-107900876D01*
G37*
G36*
X165729000Y-107023000D02*
G01*
X163927000Y-107023000D01*
X163927000Y-105221000D01*
X165729000Y-105221000D01*
X165729000Y-107023000D01*
G37*
G36*
X159873589Y-105360876D02*
G01*
X159972893Y-105380629D01*
X160113206Y-105438748D01*
X160239484Y-105523125D01*
X160346875Y-105630516D01*
X160431252Y-105756794D01*
X160489371Y-105897107D01*
X160519000Y-106046063D01*
X160519000Y-106197937D01*
X160489371Y-106346893D01*
X160431252Y-106487206D01*
X160346875Y-106613484D01*
X160239484Y-106720875D01*
X160113206Y-106805252D01*
X159972893Y-106863371D01*
X159873589Y-106883124D01*
X159823938Y-106893000D01*
X159672062Y-106893000D01*
X159622411Y-106883124D01*
X159523107Y-106863371D01*
X159382794Y-106805252D01*
X159256516Y-106720875D01*
X159149125Y-106613484D01*
X159064748Y-106487206D01*
X159006629Y-106346893D01*
X158977000Y-106197937D01*
X158977000Y-106046063D01*
X159006629Y-105897107D01*
X159064748Y-105756794D01*
X159149125Y-105630516D01*
X159256516Y-105523125D01*
X159382794Y-105438748D01*
X159523107Y-105380629D01*
X159622411Y-105360876D01*
X159672062Y-105351000D01*
X159823938Y-105351000D01*
X159873589Y-105360876D01*
G37*
G36*
X147173589Y-105360876D02*
G01*
X147272893Y-105380629D01*
X147413206Y-105438748D01*
X147539484Y-105523125D01*
X147646875Y-105630516D01*
X147731252Y-105756794D01*
X147789371Y-105897107D01*
X147819000Y-106046063D01*
X147819000Y-106197937D01*
X147789371Y-106346893D01*
X147731252Y-106487206D01*
X147646875Y-106613484D01*
X147539484Y-106720875D01*
X147413206Y-106805252D01*
X147272893Y-106863371D01*
X147173589Y-106883124D01*
X147123938Y-106893000D01*
X146972062Y-106893000D01*
X146922411Y-106883124D01*
X146823107Y-106863371D01*
X146682794Y-106805252D01*
X146556516Y-106720875D01*
X146449125Y-106613484D01*
X146364748Y-106487206D01*
X146306629Y-106346893D01*
X146277000Y-106197937D01*
X146277000Y-106046063D01*
X146306629Y-105897107D01*
X146364748Y-105756794D01*
X146449125Y-105630516D01*
X146556516Y-105523125D01*
X146682794Y-105438748D01*
X146823107Y-105380629D01*
X146922411Y-105360876D01*
X146972062Y-105351000D01*
X147123938Y-105351000D01*
X147173589Y-105360876D01*
G37*
G36*
X153523589Y-105360876D02*
G01*
X153622893Y-105380629D01*
X153763206Y-105438748D01*
X153889484Y-105523125D01*
X153996875Y-105630516D01*
X154081252Y-105756794D01*
X154139371Y-105897107D01*
X154169000Y-106046063D01*
X154169000Y-106197937D01*
X154139371Y-106346893D01*
X154081252Y-106487206D01*
X153996875Y-106613484D01*
X153889484Y-106720875D01*
X153763206Y-106805252D01*
X153622893Y-106863371D01*
X153523589Y-106883124D01*
X153473938Y-106893000D01*
X153322062Y-106893000D01*
X153272411Y-106883124D01*
X153173107Y-106863371D01*
X153032794Y-106805252D01*
X152906516Y-106720875D01*
X152799125Y-106613484D01*
X152714748Y-106487206D01*
X152656629Y-106346893D01*
X152627000Y-106197937D01*
X152627000Y-106046063D01*
X152656629Y-105897107D01*
X152714748Y-105756794D01*
X152799125Y-105630516D01*
X152906516Y-105523125D01*
X153032794Y-105438748D01*
X153173107Y-105380629D01*
X153272411Y-105360876D01*
X153322062Y-105351000D01*
X153473938Y-105351000D01*
X153523589Y-105360876D01*
G37*
G36*
X140823589Y-105360876D02*
G01*
X140922893Y-105380629D01*
X141063206Y-105438748D01*
X141189484Y-105523125D01*
X141296875Y-105630516D01*
X141381252Y-105756794D01*
X141439371Y-105897107D01*
X141469000Y-106046063D01*
X141469000Y-106197937D01*
X141439371Y-106346893D01*
X141381252Y-106487206D01*
X141296875Y-106613484D01*
X141189484Y-106720875D01*
X141063206Y-106805252D01*
X140922893Y-106863371D01*
X140823589Y-106883124D01*
X140773938Y-106893000D01*
X140622062Y-106893000D01*
X140572411Y-106883124D01*
X140473107Y-106863371D01*
X140332794Y-106805252D01*
X140206516Y-106720875D01*
X140099125Y-106613484D01*
X140014748Y-106487206D01*
X139956629Y-106346893D01*
X139927000Y-106197937D01*
X139927000Y-106046063D01*
X139956629Y-105897107D01*
X140014748Y-105756794D01*
X140099125Y-105630516D01*
X140206516Y-105523125D01*
X140332794Y-105438748D01*
X140473107Y-105380629D01*
X140572411Y-105360876D01*
X140622062Y-105351000D01*
X140773938Y-105351000D01*
X140823589Y-105360876D01*
G37*
G36*
X134473589Y-105360876D02*
G01*
X134572893Y-105380629D01*
X134713206Y-105438748D01*
X134839484Y-105523125D01*
X134946875Y-105630516D01*
X135031252Y-105756794D01*
X135089371Y-105897107D01*
X135119000Y-106046063D01*
X135119000Y-106197937D01*
X135089371Y-106346893D01*
X135031252Y-106487206D01*
X134946875Y-106613484D01*
X134839484Y-106720875D01*
X134713206Y-106805252D01*
X134572893Y-106863371D01*
X134473589Y-106883124D01*
X134423938Y-106893000D01*
X134272062Y-106893000D01*
X134222411Y-106883124D01*
X134123107Y-106863371D01*
X133982794Y-106805252D01*
X133856516Y-106720875D01*
X133749125Y-106613484D01*
X133664748Y-106487206D01*
X133606629Y-106346893D01*
X133577000Y-106197937D01*
X133577000Y-106046063D01*
X133606629Y-105897107D01*
X133664748Y-105756794D01*
X133749125Y-105630516D01*
X133856516Y-105523125D01*
X133982794Y-105438748D01*
X134123107Y-105380629D01*
X134222411Y-105360876D01*
X134272062Y-105351000D01*
X134423938Y-105351000D01*
X134473589Y-105360876D01*
G37*
G36*
X213975256Y-101691298D02*
G01*
X214081579Y-101712447D01*
X214382042Y-101836903D01*
X214652451Y-102017585D01*
X214882415Y-102247549D01*
X215063097Y-102517958D01*
X215177337Y-102793757D01*
X215187553Y-102818422D01*
X215251000Y-103137389D01*
X215251000Y-103462611D01*
X215212147Y-103657937D01*
X215187553Y-103781579D01*
X215063097Y-104082042D01*
X214882415Y-104352451D01*
X214652451Y-104582415D01*
X214382042Y-104763097D01*
X214081579Y-104887553D01*
X213975256Y-104908702D01*
X213762611Y-104951000D01*
X213437389Y-104951000D01*
X213224744Y-104908702D01*
X213118421Y-104887553D01*
X212817958Y-104763097D01*
X212547549Y-104582415D01*
X212317585Y-104352451D01*
X212136903Y-104082042D01*
X212012447Y-103781579D01*
X211987853Y-103657937D01*
X211949000Y-103462611D01*
X211949000Y-103137389D01*
X212012447Y-102818422D01*
X212022664Y-102793757D01*
X212136903Y-102517958D01*
X212317585Y-102247549D01*
X212547549Y-102017585D01*
X212817958Y-101836903D01*
X213118421Y-101712447D01*
X213224744Y-101691298D01*
X213437389Y-101649000D01*
X213762611Y-101649000D01*
X213975256Y-101691298D01*
G37*
G36*
X134461245Y-102818421D02*
G01*
X134572893Y-102840629D01*
X134713206Y-102898748D01*
X134839484Y-102983125D01*
X134946875Y-103090516D01*
X135031252Y-103216794D01*
X135089371Y-103357107D01*
X135119000Y-103506063D01*
X135119000Y-103657937D01*
X135089371Y-103806893D01*
X135031252Y-103947206D01*
X134946875Y-104073484D01*
X134839484Y-104180875D01*
X134713206Y-104265252D01*
X134572893Y-104323371D01*
X134473589Y-104343124D01*
X134423938Y-104353000D01*
X134272062Y-104353000D01*
X134222411Y-104343124D01*
X134123107Y-104323371D01*
X133982794Y-104265252D01*
X133856516Y-104180875D01*
X133749125Y-104073484D01*
X133664748Y-103947206D01*
X133606629Y-103806893D01*
X133577000Y-103657937D01*
X133577000Y-103506063D01*
X133606629Y-103357107D01*
X133664748Y-103216794D01*
X133749125Y-103090516D01*
X133856516Y-102983125D01*
X133982794Y-102898748D01*
X134123107Y-102840629D01*
X134234755Y-102818421D01*
X134272062Y-102811000D01*
X134423938Y-102811000D01*
X134461245Y-102818421D01*
G37*
G36*
X140811245Y-102818421D02*
G01*
X140922893Y-102840629D01*
X141063206Y-102898748D01*
X141189484Y-102983125D01*
X141296875Y-103090516D01*
X141381252Y-103216794D01*
X141439371Y-103357107D01*
X141469000Y-103506063D01*
X141469000Y-103657937D01*
X141439371Y-103806893D01*
X141381252Y-103947206D01*
X141296875Y-104073484D01*
X141189484Y-104180875D01*
X141063206Y-104265252D01*
X140922893Y-104323371D01*
X140823589Y-104343124D01*
X140773938Y-104353000D01*
X140622062Y-104353000D01*
X140572411Y-104343124D01*
X140473107Y-104323371D01*
X140332794Y-104265252D01*
X140206516Y-104180875D01*
X140099125Y-104073484D01*
X140014748Y-103947206D01*
X139956629Y-103806893D01*
X139927000Y-103657937D01*
X139927000Y-103506063D01*
X139956629Y-103357107D01*
X140014748Y-103216794D01*
X140099125Y-103090516D01*
X140206516Y-102983125D01*
X140332794Y-102898748D01*
X140473107Y-102840629D01*
X140584755Y-102818421D01*
X140622062Y-102811000D01*
X140773938Y-102811000D01*
X140811245Y-102818421D01*
G37*
G36*
X147161245Y-102818421D02*
G01*
X147272893Y-102840629D01*
X147413206Y-102898748D01*
X147539484Y-102983125D01*
X147646875Y-103090516D01*
X147731252Y-103216794D01*
X147789371Y-103357107D01*
X147819000Y-103506063D01*
X147819000Y-103657937D01*
X147789371Y-103806893D01*
X147731252Y-103947206D01*
X147646875Y-104073484D01*
X147539484Y-104180875D01*
X147413206Y-104265252D01*
X147272893Y-104323371D01*
X147173589Y-104343124D01*
X147123938Y-104353000D01*
X146972062Y-104353000D01*
X146922411Y-104343124D01*
X146823107Y-104323371D01*
X146682794Y-104265252D01*
X146556516Y-104180875D01*
X146449125Y-104073484D01*
X146364748Y-103947206D01*
X146306629Y-103806893D01*
X146277000Y-103657937D01*
X146277000Y-103506063D01*
X146306629Y-103357107D01*
X146364748Y-103216794D01*
X146449125Y-103090516D01*
X146556516Y-102983125D01*
X146682794Y-102898748D01*
X146823107Y-102840629D01*
X146934755Y-102818421D01*
X146972062Y-102811000D01*
X147123938Y-102811000D01*
X147161245Y-102818421D01*
G37*
G36*
X153511245Y-102818421D02*
G01*
X153622893Y-102840629D01*
X153763206Y-102898748D01*
X153889484Y-102983125D01*
X153996875Y-103090516D01*
X154081252Y-103216794D01*
X154139371Y-103357107D01*
X154169000Y-103506063D01*
X154169000Y-103657937D01*
X154139371Y-103806893D01*
X154081252Y-103947206D01*
X153996875Y-104073484D01*
X153889484Y-104180875D01*
X153763206Y-104265252D01*
X153622893Y-104323371D01*
X153523589Y-104343124D01*
X153473938Y-104353000D01*
X153322062Y-104353000D01*
X153272411Y-104343124D01*
X153173107Y-104323371D01*
X153032794Y-104265252D01*
X152906516Y-104180875D01*
X152799125Y-104073484D01*
X152714748Y-103947206D01*
X152656629Y-103806893D01*
X152627000Y-103657937D01*
X152627000Y-103506063D01*
X152656629Y-103357107D01*
X152714748Y-103216794D01*
X152799125Y-103090516D01*
X152906516Y-102983125D01*
X153032794Y-102898748D01*
X153173107Y-102840629D01*
X153284755Y-102818421D01*
X153322062Y-102811000D01*
X153473938Y-102811000D01*
X153511245Y-102818421D01*
G37*
G36*
X159861245Y-102818421D02*
G01*
X159972893Y-102840629D01*
X160113206Y-102898748D01*
X160239484Y-102983125D01*
X160346875Y-103090516D01*
X160431252Y-103216794D01*
X160489371Y-103357107D01*
X160519000Y-103506063D01*
X160519000Y-103657937D01*
X160489371Y-103806893D01*
X160431252Y-103947206D01*
X160346875Y-104073484D01*
X160239484Y-104180875D01*
X160113206Y-104265252D01*
X159972893Y-104323371D01*
X159873589Y-104343124D01*
X159823938Y-104353000D01*
X159672062Y-104353000D01*
X159622411Y-104343124D01*
X159523107Y-104323371D01*
X159382794Y-104265252D01*
X159256516Y-104180875D01*
X159149125Y-104073484D01*
X159064748Y-103947206D01*
X159006629Y-103806893D01*
X158977000Y-103657937D01*
X158977000Y-103506063D01*
X159006629Y-103357107D01*
X159064748Y-103216794D01*
X159149125Y-103090516D01*
X159256516Y-102983125D01*
X159382794Y-102898748D01*
X159523107Y-102840629D01*
X159634755Y-102818421D01*
X159672062Y-102811000D01*
X159823938Y-102811000D01*
X159861245Y-102818421D01*
G37*
G36*
X168428497Y-102771067D02*
G01*
X168483275Y-102793757D01*
X168483277Y-102793758D01*
X168532576Y-102826698D01*
X168574502Y-102868624D01*
X168607442Y-102917923D01*
X168607443Y-102917925D01*
X168630133Y-102972703D01*
X168641700Y-103030853D01*
X168641700Y-103090147D01*
X168630133Y-103148297D01*
X168622644Y-103166376D01*
X168607442Y-103203077D01*
X168574502Y-103252376D01*
X168532576Y-103294302D01*
X168483277Y-103327242D01*
X168483276Y-103327243D01*
X168483275Y-103327243D01*
X168428497Y-103349933D01*
X168370347Y-103361500D01*
X168311053Y-103361500D01*
X168252903Y-103349933D01*
X168198125Y-103327243D01*
X168198124Y-103327243D01*
X168198123Y-103327242D01*
X168148824Y-103294302D01*
X168106898Y-103252376D01*
X168073958Y-103203077D01*
X168058756Y-103166376D01*
X168051267Y-103148297D01*
X168039700Y-103090147D01*
X168039700Y-103030853D01*
X168051267Y-102972703D01*
X168073957Y-102917925D01*
X168073958Y-102917923D01*
X168106898Y-102868624D01*
X168148824Y-102826698D01*
X168198123Y-102793758D01*
X168198125Y-102793757D01*
X168252903Y-102771067D01*
X168311053Y-102759500D01*
X168370347Y-102759500D01*
X168428497Y-102771067D01*
G37*
G36*
X171947097Y-102685067D02*
G01*
X172001875Y-102707757D01*
X172001877Y-102707758D01*
X172051176Y-102740698D01*
X172093102Y-102782624D01*
X172126042Y-102831923D01*
X172126043Y-102831925D01*
X172148733Y-102886703D01*
X172160300Y-102944853D01*
X172160300Y-103004147D01*
X172148733Y-103062297D01*
X172126043Y-103117075D01*
X172126042Y-103117077D01*
X172093102Y-103166376D01*
X172051176Y-103208302D01*
X172001877Y-103241242D01*
X172001876Y-103241243D01*
X172001875Y-103241243D01*
X171947097Y-103263933D01*
X171888947Y-103275500D01*
X171829653Y-103275500D01*
X171771503Y-103263933D01*
X171716725Y-103241243D01*
X171716724Y-103241243D01*
X171716723Y-103241242D01*
X171667424Y-103208302D01*
X171625498Y-103166376D01*
X171592558Y-103117077D01*
X171592557Y-103117075D01*
X171569867Y-103062297D01*
X171558300Y-103004147D01*
X171558300Y-102944853D01*
X171569867Y-102886703D01*
X171592557Y-102831925D01*
X171592558Y-102831923D01*
X171625498Y-102782624D01*
X171667424Y-102740698D01*
X171716723Y-102707758D01*
X171716725Y-102707757D01*
X171771503Y-102685067D01*
X171829653Y-102673500D01*
X171888947Y-102673500D01*
X171947097Y-102685067D01*
G37*
G36*
X168428497Y-101914067D02*
G01*
X168483275Y-101936757D01*
X168483277Y-101936758D01*
X168532576Y-101969698D01*
X168574502Y-102011624D01*
X168604054Y-102055853D01*
X168607443Y-102060925D01*
X168630133Y-102115703D01*
X168641700Y-102173853D01*
X168641700Y-102233147D01*
X168630133Y-102291297D01*
X168607443Y-102346075D01*
X168607442Y-102346077D01*
X168574502Y-102395376D01*
X168532576Y-102437302D01*
X168483277Y-102470242D01*
X168483276Y-102470243D01*
X168483275Y-102470243D01*
X168428497Y-102492933D01*
X168370347Y-102504500D01*
X168311053Y-102504500D01*
X168252903Y-102492933D01*
X168198125Y-102470243D01*
X168198124Y-102470243D01*
X168198123Y-102470242D01*
X168148824Y-102437302D01*
X168106898Y-102395376D01*
X168073958Y-102346077D01*
X168073957Y-102346075D01*
X168051267Y-102291297D01*
X168039700Y-102233147D01*
X168039700Y-102173853D01*
X168051267Y-102115703D01*
X168073957Y-102060925D01*
X168077346Y-102055853D01*
X168106898Y-102011624D01*
X168148824Y-101969698D01*
X168198123Y-101936758D01*
X168198125Y-101936757D01*
X168252903Y-101914067D01*
X168311053Y-101902500D01*
X168370347Y-101902500D01*
X168428497Y-101914067D01*
G37*
G36*
X171947097Y-101796067D02*
G01*
X172001875Y-101818757D01*
X172001877Y-101818758D01*
X172051176Y-101851698D01*
X172093102Y-101893624D01*
X172126042Y-101942923D01*
X172126043Y-101942925D01*
X172148733Y-101997703D01*
X172160300Y-102055853D01*
X172160300Y-102115147D01*
X172148733Y-102173297D01*
X172148502Y-102173854D01*
X172126042Y-102228077D01*
X172093102Y-102277376D01*
X172051176Y-102319302D01*
X172001877Y-102352242D01*
X172001876Y-102352243D01*
X172001875Y-102352243D01*
X171947097Y-102374933D01*
X171888947Y-102386500D01*
X171829653Y-102386500D01*
X171771503Y-102374933D01*
X171716725Y-102352243D01*
X171716724Y-102352243D01*
X171716723Y-102352242D01*
X171667424Y-102319302D01*
X171625498Y-102277376D01*
X171592558Y-102228077D01*
X171570098Y-102173854D01*
X171569867Y-102173297D01*
X171558300Y-102115147D01*
X171558300Y-102055853D01*
X171569867Y-101997703D01*
X171592557Y-101942925D01*
X171592558Y-101942923D01*
X171625498Y-101893624D01*
X171667424Y-101851698D01*
X171716723Y-101818758D01*
X171716725Y-101818757D01*
X171771503Y-101796067D01*
X171829653Y-101784500D01*
X171888947Y-101784500D01*
X171947097Y-101796067D01*
G37*
G36*
X168428497Y-101025067D02*
G01*
X168483275Y-101047757D01*
X168483277Y-101047758D01*
X168532576Y-101080698D01*
X168574502Y-101122624D01*
X168604054Y-101166853D01*
X168607443Y-101171925D01*
X168630133Y-101226703D01*
X168641700Y-101284853D01*
X168641700Y-101344147D01*
X168630133Y-101402297D01*
X168607443Y-101457075D01*
X168607442Y-101457077D01*
X168574502Y-101506376D01*
X168532576Y-101548302D01*
X168483277Y-101581242D01*
X168483276Y-101581243D01*
X168483275Y-101581243D01*
X168428497Y-101603933D01*
X168370347Y-101615500D01*
X168311053Y-101615500D01*
X168252903Y-101603933D01*
X168198125Y-101581243D01*
X168198124Y-101581243D01*
X168198123Y-101581242D01*
X168148824Y-101548302D01*
X168106898Y-101506376D01*
X168073958Y-101457077D01*
X168073957Y-101457075D01*
X168051267Y-101402297D01*
X168039700Y-101344147D01*
X168039700Y-101284853D01*
X168051267Y-101226703D01*
X168073957Y-101171925D01*
X168077346Y-101166853D01*
X168106898Y-101122624D01*
X168148824Y-101080698D01*
X168198123Y-101047758D01*
X168198125Y-101047757D01*
X168252903Y-101025067D01*
X168311053Y-101013500D01*
X168370347Y-101013500D01*
X168428497Y-101025067D01*
G37*
G36*
X171947097Y-100907067D02*
G01*
X172001875Y-100929757D01*
X172001877Y-100929758D01*
X172051176Y-100962698D01*
X172093102Y-101004624D01*
X172126042Y-101053923D01*
X172126043Y-101053925D01*
X172148733Y-101108703D01*
X172160300Y-101166853D01*
X172160300Y-101226147D01*
X172148733Y-101284297D01*
X172148502Y-101284854D01*
X172126042Y-101339077D01*
X172093102Y-101388376D01*
X172051176Y-101430302D01*
X172001877Y-101463242D01*
X172001876Y-101463243D01*
X172001875Y-101463243D01*
X171947097Y-101485933D01*
X171888947Y-101497500D01*
X171829653Y-101497500D01*
X171771503Y-101485933D01*
X171716725Y-101463243D01*
X171716724Y-101463243D01*
X171716723Y-101463242D01*
X171667424Y-101430302D01*
X171625498Y-101388376D01*
X171592558Y-101339077D01*
X171570098Y-101284854D01*
X171569867Y-101284297D01*
X171558300Y-101226147D01*
X171558300Y-101166853D01*
X171569867Y-101108703D01*
X171592557Y-101053925D01*
X171592558Y-101053923D01*
X171625498Y-101004624D01*
X171667424Y-100962698D01*
X171716723Y-100929758D01*
X171716725Y-100929757D01*
X171771503Y-100907067D01*
X171829653Y-100895500D01*
X171888947Y-100895500D01*
X171947097Y-100907067D01*
G37*
G36*
X168428497Y-100136067D02*
G01*
X168483275Y-100158757D01*
X168483277Y-100158758D01*
X168532576Y-100191698D01*
X168574502Y-100233624D01*
X168607442Y-100282923D01*
X168607443Y-100282925D01*
X168630133Y-100337703D01*
X168641700Y-100395853D01*
X168641700Y-100455147D01*
X168630133Y-100513297D01*
X168622644Y-100531376D01*
X168607442Y-100568077D01*
X168574502Y-100617376D01*
X168532576Y-100659302D01*
X168483277Y-100692242D01*
X168483276Y-100692243D01*
X168483275Y-100692243D01*
X168428497Y-100714933D01*
X168370347Y-100726500D01*
X168311053Y-100726500D01*
X168252903Y-100714933D01*
X168198125Y-100692243D01*
X168198124Y-100692243D01*
X168198123Y-100692242D01*
X168148824Y-100659302D01*
X168106898Y-100617376D01*
X168073958Y-100568077D01*
X168058756Y-100531376D01*
X168051267Y-100513297D01*
X168039700Y-100455147D01*
X168039700Y-100395853D01*
X168051267Y-100337703D01*
X168073957Y-100282925D01*
X168073958Y-100282923D01*
X168106898Y-100233624D01*
X168148824Y-100191698D01*
X168198123Y-100158758D01*
X168198125Y-100158757D01*
X168252903Y-100136067D01*
X168311053Y-100124500D01*
X168370347Y-100124500D01*
X168428497Y-100136067D01*
G37*
G36*
X171947097Y-100050067D02*
G01*
X172001875Y-100072757D01*
X172001877Y-100072758D01*
X172051176Y-100105698D01*
X172093102Y-100147624D01*
X172126042Y-100196923D01*
X172126043Y-100196925D01*
X172148733Y-100251703D01*
X172160300Y-100309853D01*
X172160300Y-100369147D01*
X172148733Y-100427297D01*
X172137197Y-100455146D01*
X172126042Y-100482077D01*
X172093102Y-100531376D01*
X172051176Y-100573302D01*
X172001877Y-100606242D01*
X172001876Y-100606243D01*
X172001875Y-100606243D01*
X171947097Y-100628933D01*
X171888947Y-100640500D01*
X171829653Y-100640500D01*
X171771503Y-100628933D01*
X171716725Y-100606243D01*
X171716724Y-100606243D01*
X171716723Y-100606242D01*
X171667424Y-100573302D01*
X171625498Y-100531376D01*
X171592558Y-100482077D01*
X171581403Y-100455146D01*
X171569867Y-100427297D01*
X171558300Y-100369147D01*
X171558300Y-100309853D01*
X171569867Y-100251703D01*
X171592557Y-100196925D01*
X171592558Y-100196923D01*
X171625498Y-100147624D01*
X171667424Y-100105698D01*
X171716723Y-100072758D01*
X171716725Y-100072757D01*
X171771503Y-100050067D01*
X171829653Y-100038500D01*
X171888947Y-100038500D01*
X171947097Y-100050067D01*
G37*
G36*
X175244599Y-95430302D02*
G01*
X175454501Y-95472054D01*
X175800461Y-95615356D01*
X176111817Y-95823397D01*
X176376603Y-96088183D01*
X176584644Y-96399539D01*
X176727946Y-96745499D01*
X176764473Y-96929133D01*
X176796501Y-97090147D01*
X176801000Y-97112768D01*
X176801000Y-97487232D01*
X176727946Y-97854501D01*
X176584644Y-98200461D01*
X176376603Y-98511817D01*
X176111817Y-98776603D01*
X175800461Y-98984644D01*
X175454501Y-99127946D01*
X175270866Y-99164473D01*
X175087233Y-99201000D01*
X174712767Y-99201000D01*
X174345499Y-99127946D01*
X173999539Y-98984644D01*
X173688183Y-98776603D01*
X173423397Y-98511817D01*
X173215356Y-98200461D01*
X173072054Y-97854501D01*
X172999000Y-97487232D01*
X172999000Y-97112768D01*
X173003500Y-97090147D01*
X173035527Y-96929133D01*
X173072054Y-96745499D01*
X173215356Y-96399539D01*
X173423397Y-96088183D01*
X173688183Y-95823397D01*
X173999539Y-95615356D01*
X174345499Y-95472054D01*
X174555401Y-95430302D01*
X174712767Y-95399000D01*
X175087233Y-95399000D01*
X175244599Y-95430302D01*
G37*
G36*
X205928497Y-96771067D02*
G01*
X205983275Y-96793757D01*
X205983277Y-96793758D01*
X206032576Y-96826698D01*
X206074502Y-96868624D01*
X206107442Y-96917923D01*
X206107443Y-96917925D01*
X206130133Y-96972703D01*
X206141700Y-97030853D01*
X206141700Y-97090147D01*
X206130133Y-97148297D01*
X206122644Y-97166376D01*
X206107442Y-97203077D01*
X206074502Y-97252376D01*
X206032576Y-97294302D01*
X205983277Y-97327242D01*
X205983276Y-97327243D01*
X205983275Y-97327243D01*
X205928497Y-97349933D01*
X205870347Y-97361500D01*
X205811053Y-97361500D01*
X205752903Y-97349933D01*
X205698125Y-97327243D01*
X205698124Y-97327243D01*
X205698123Y-97327242D01*
X205648824Y-97294302D01*
X205606898Y-97252376D01*
X205573958Y-97203077D01*
X205558756Y-97166376D01*
X205551267Y-97148297D01*
X205539700Y-97090147D01*
X205539700Y-97030853D01*
X205551267Y-96972703D01*
X205573957Y-96917925D01*
X205573958Y-96917923D01*
X205606898Y-96868624D01*
X205648824Y-96826698D01*
X205698123Y-96793758D01*
X205698125Y-96793757D01*
X205752903Y-96771067D01*
X205811053Y-96759500D01*
X205870347Y-96759500D01*
X205928497Y-96771067D01*
G37*
G36*
X209747097Y-96685067D02*
G01*
X209801875Y-96707757D01*
X209801877Y-96707758D01*
X209851176Y-96740698D01*
X209893102Y-96782624D01*
X209926042Y-96831923D01*
X209926043Y-96831925D01*
X209948733Y-96886703D01*
X209960300Y-96944853D01*
X209960300Y-97004147D01*
X209948733Y-97062297D01*
X209937197Y-97090146D01*
X209926042Y-97117077D01*
X209893102Y-97166376D01*
X209851176Y-97208302D01*
X209801877Y-97241242D01*
X209801876Y-97241243D01*
X209801875Y-97241243D01*
X209747097Y-97263933D01*
X209688947Y-97275500D01*
X209629653Y-97275500D01*
X209571503Y-97263933D01*
X209516725Y-97241243D01*
X209516724Y-97241243D01*
X209516723Y-97241242D01*
X209467424Y-97208302D01*
X209425498Y-97166376D01*
X209392558Y-97117077D01*
X209381403Y-97090146D01*
X209369867Y-97062297D01*
X209358300Y-97004147D01*
X209358300Y-96944853D01*
X209369867Y-96886703D01*
X209392557Y-96831925D01*
X209392558Y-96831923D01*
X209425498Y-96782624D01*
X209467424Y-96740698D01*
X209516723Y-96707758D01*
X209516725Y-96707757D01*
X209571503Y-96685067D01*
X209629653Y-96673500D01*
X209688947Y-96673500D01*
X209747097Y-96685067D01*
G37*
G36*
X205928497Y-95914067D02*
G01*
X205983275Y-95936757D01*
X205983277Y-95936758D01*
X206032576Y-95969698D01*
X206074502Y-96011624D01*
X206104054Y-96055853D01*
X206107443Y-96060925D01*
X206130133Y-96115703D01*
X206141700Y-96173853D01*
X206141700Y-96233147D01*
X206130133Y-96291297D01*
X206107443Y-96346075D01*
X206107442Y-96346077D01*
X206074502Y-96395376D01*
X206032576Y-96437302D01*
X205983277Y-96470242D01*
X205983276Y-96470243D01*
X205983275Y-96470243D01*
X205928497Y-96492933D01*
X205870347Y-96504500D01*
X205811053Y-96504500D01*
X205752903Y-96492933D01*
X205698125Y-96470243D01*
X205698124Y-96470243D01*
X205698123Y-96470242D01*
X205648824Y-96437302D01*
X205606898Y-96395376D01*
X205573958Y-96346077D01*
X205573957Y-96346075D01*
X205551267Y-96291297D01*
X205539700Y-96233147D01*
X205539700Y-96173853D01*
X205551267Y-96115703D01*
X205573957Y-96060925D01*
X205577346Y-96055853D01*
X205606898Y-96011624D01*
X205648824Y-95969698D01*
X205698123Y-95936758D01*
X205698125Y-95936757D01*
X205752903Y-95914067D01*
X205811053Y-95902500D01*
X205870347Y-95902500D01*
X205928497Y-95914067D01*
G37*
G36*
X209747097Y-95796067D02*
G01*
X209801875Y-95818757D01*
X209801877Y-95818758D01*
X209851176Y-95851698D01*
X209893102Y-95893624D01*
X209926042Y-95942923D01*
X209926043Y-95942925D01*
X209948733Y-95997703D01*
X209960300Y-96055853D01*
X209960300Y-96115147D01*
X209948733Y-96173297D01*
X209948502Y-96173854D01*
X209926042Y-96228077D01*
X209893102Y-96277376D01*
X209851176Y-96319302D01*
X209801877Y-96352242D01*
X209801876Y-96352243D01*
X209801875Y-96352243D01*
X209747097Y-96374933D01*
X209688947Y-96386500D01*
X209629653Y-96386500D01*
X209571503Y-96374933D01*
X209516725Y-96352243D01*
X209516724Y-96352243D01*
X209516723Y-96352242D01*
X209467424Y-96319302D01*
X209425498Y-96277376D01*
X209392558Y-96228077D01*
X209370098Y-96173854D01*
X209369867Y-96173297D01*
X209358300Y-96115147D01*
X209358300Y-96055853D01*
X209369867Y-95997703D01*
X209392557Y-95942925D01*
X209392558Y-95942923D01*
X209425498Y-95893624D01*
X209467424Y-95851698D01*
X209516723Y-95818758D01*
X209516725Y-95818757D01*
X209571503Y-95796067D01*
X209629653Y-95784500D01*
X209688947Y-95784500D01*
X209747097Y-95796067D01*
G37*
G36*
X89643239Y-89852467D02*
G01*
X89957282Y-89914934D01*
X90548926Y-90160001D01*
X91081392Y-90515784D01*
X91534216Y-90968608D01*
X91889999Y-91501074D01*
X92135066Y-92092718D01*
X92135066Y-92092719D01*
X92260000Y-92720803D01*
X92260000Y-93361197D01*
X92206914Y-93628077D01*
X92135066Y-93989282D01*
X91889999Y-94580926D01*
X91642265Y-94951685D01*
X91534217Y-95113391D01*
X91081391Y-95566217D01*
X90975477Y-95636986D01*
X90548926Y-95921999D01*
X89957282Y-96167066D01*
X89923161Y-96173853D01*
X89329197Y-96292000D01*
X88688803Y-96292000D01*
X88094839Y-96173853D01*
X88060718Y-96167066D01*
X87469074Y-95921999D01*
X87042523Y-95636986D01*
X86936609Y-95566217D01*
X86483783Y-95113391D01*
X86375735Y-94951685D01*
X86128001Y-94580926D01*
X85882934Y-93989282D01*
X85811086Y-93628077D01*
X85758000Y-93361197D01*
X85758000Y-92720803D01*
X85882934Y-92092719D01*
X85882934Y-92092718D01*
X86128001Y-91501074D01*
X86483784Y-90968608D01*
X86936608Y-90515784D01*
X87469074Y-90160001D01*
X88060718Y-89914934D01*
X88374761Y-89852467D01*
X88688803Y-89790000D01*
X89329197Y-89790000D01*
X89643239Y-89852467D01*
G37*
G36*
X205928497Y-95025067D02*
G01*
X205983275Y-95047757D01*
X205983277Y-95047758D01*
X206032576Y-95080698D01*
X206074502Y-95122624D01*
X206084593Y-95137727D01*
X206107443Y-95171925D01*
X206130133Y-95226703D01*
X206141700Y-95284853D01*
X206141700Y-95344147D01*
X206130133Y-95402297D01*
X206107443Y-95457075D01*
X206107442Y-95457077D01*
X206074502Y-95506376D01*
X206032576Y-95548302D01*
X205983277Y-95581242D01*
X205983276Y-95581243D01*
X205983275Y-95581243D01*
X205928497Y-95603933D01*
X205870347Y-95615500D01*
X205811053Y-95615500D01*
X205752903Y-95603933D01*
X205698125Y-95581243D01*
X205698124Y-95581243D01*
X205698123Y-95581242D01*
X205648824Y-95548302D01*
X205606898Y-95506376D01*
X205573958Y-95457077D01*
X205573957Y-95457075D01*
X205551267Y-95402297D01*
X205539700Y-95344147D01*
X205539700Y-95284853D01*
X205551267Y-95226703D01*
X205573957Y-95171925D01*
X205596807Y-95137727D01*
X205606898Y-95122624D01*
X205648824Y-95080698D01*
X205698123Y-95047758D01*
X205698125Y-95047757D01*
X205752903Y-95025067D01*
X205811053Y-95013500D01*
X205870347Y-95013500D01*
X205928497Y-95025067D01*
G37*
G36*
X209747097Y-94907067D02*
G01*
X209801875Y-94929757D01*
X209801877Y-94929758D01*
X209851176Y-94962698D01*
X209893102Y-95004624D01*
X209926042Y-95053923D01*
X209926043Y-95053925D01*
X209948733Y-95108703D01*
X209960300Y-95166853D01*
X209960300Y-95226147D01*
X209948733Y-95284297D01*
X209948502Y-95284854D01*
X209926042Y-95339077D01*
X209893102Y-95388376D01*
X209851176Y-95430302D01*
X209801877Y-95463242D01*
X209801876Y-95463243D01*
X209801875Y-95463243D01*
X209747097Y-95485933D01*
X209688947Y-95497500D01*
X209629653Y-95497500D01*
X209571503Y-95485933D01*
X209516725Y-95463243D01*
X209516724Y-95463243D01*
X209516723Y-95463242D01*
X209467424Y-95430302D01*
X209425498Y-95388376D01*
X209392558Y-95339077D01*
X209370098Y-95284854D01*
X209369867Y-95284297D01*
X209358300Y-95226147D01*
X209358300Y-95166853D01*
X209369867Y-95108703D01*
X209392557Y-95053925D01*
X209392558Y-95053923D01*
X209425498Y-95004624D01*
X209467424Y-94962698D01*
X209516723Y-94929758D01*
X209516725Y-94929757D01*
X209571503Y-94907067D01*
X209629653Y-94895500D01*
X209688947Y-94895500D01*
X209747097Y-94907067D01*
G37*
G36*
X205928497Y-94136067D02*
G01*
X205983275Y-94158757D01*
X205983277Y-94158758D01*
X206032576Y-94191698D01*
X206074502Y-94233624D01*
X206088586Y-94254703D01*
X206107443Y-94282925D01*
X206130133Y-94337703D01*
X206141700Y-94395853D01*
X206141700Y-94455147D01*
X206130133Y-94513297D01*
X206108147Y-94566375D01*
X206107442Y-94568077D01*
X206074502Y-94617376D01*
X206032576Y-94659302D01*
X205983277Y-94692242D01*
X205983276Y-94692243D01*
X205983275Y-94692243D01*
X205928497Y-94714933D01*
X205870347Y-94726500D01*
X205811053Y-94726500D01*
X205752903Y-94714933D01*
X205698125Y-94692243D01*
X205698124Y-94692243D01*
X205698123Y-94692242D01*
X205648824Y-94659302D01*
X205606898Y-94617376D01*
X205573958Y-94568077D01*
X205573253Y-94566375D01*
X205551267Y-94513297D01*
X205539700Y-94455147D01*
X205539700Y-94395853D01*
X205551267Y-94337703D01*
X205573957Y-94282925D01*
X205592814Y-94254703D01*
X205606898Y-94233624D01*
X205648824Y-94191698D01*
X205698123Y-94158758D01*
X205698125Y-94158757D01*
X205752903Y-94136067D01*
X205811053Y-94124500D01*
X205870347Y-94124500D01*
X205928497Y-94136067D01*
G37*
G36*
X114547097Y-94085067D02*
G01*
X114596904Y-94105698D01*
X114601877Y-94107758D01*
X114651176Y-94140698D01*
X114693102Y-94182624D01*
X114726042Y-94231923D01*
X114726043Y-94231925D01*
X114748733Y-94286703D01*
X114760300Y-94344853D01*
X114760300Y-94404147D01*
X114748733Y-94462297D01*
X114739298Y-94485075D01*
X114726042Y-94517077D01*
X114693102Y-94566376D01*
X114651176Y-94608302D01*
X114601877Y-94641242D01*
X114601876Y-94641243D01*
X114601875Y-94641243D01*
X114547097Y-94663933D01*
X114488947Y-94675500D01*
X114429653Y-94675500D01*
X114371503Y-94663933D01*
X114316725Y-94641243D01*
X114316724Y-94641243D01*
X114316723Y-94641242D01*
X114267424Y-94608302D01*
X114225498Y-94566376D01*
X114192558Y-94517077D01*
X114179302Y-94485075D01*
X114169867Y-94462297D01*
X114158300Y-94404147D01*
X114158300Y-94344853D01*
X114169867Y-94286703D01*
X114192557Y-94231925D01*
X114192558Y-94231923D01*
X114225498Y-94182624D01*
X114267424Y-94140698D01*
X114316723Y-94107758D01*
X114321696Y-94105698D01*
X114371503Y-94085067D01*
X114429653Y-94073500D01*
X114488947Y-94073500D01*
X114547097Y-94085067D01*
G37*
G36*
X110001497Y-94053067D02*
G01*
X110050826Y-94073500D01*
X110056277Y-94075758D01*
X110105576Y-94108698D01*
X110147502Y-94150624D01*
X110180442Y-94199923D01*
X110180443Y-94199925D01*
X110203133Y-94254703D01*
X110214700Y-94312853D01*
X110214700Y-94372147D01*
X110203133Y-94430297D01*
X110181685Y-94482077D01*
X110180442Y-94485077D01*
X110147502Y-94534376D01*
X110105576Y-94576302D01*
X110056277Y-94609242D01*
X110056276Y-94609243D01*
X110056275Y-94609243D01*
X110001497Y-94631933D01*
X109943347Y-94643500D01*
X109884053Y-94643500D01*
X109825903Y-94631933D01*
X109771125Y-94609243D01*
X109771124Y-94609243D01*
X109771123Y-94609242D01*
X109721824Y-94576302D01*
X109679898Y-94534376D01*
X109646958Y-94485077D01*
X109645715Y-94482077D01*
X109624267Y-94430297D01*
X109612700Y-94372147D01*
X109612700Y-94312853D01*
X109624267Y-94254703D01*
X109646957Y-94199925D01*
X109646958Y-94199923D01*
X109679898Y-94150624D01*
X109721824Y-94108698D01*
X109771123Y-94075758D01*
X109776574Y-94073500D01*
X109825903Y-94053067D01*
X109884053Y-94041500D01*
X109943347Y-94041500D01*
X110001497Y-94053067D01*
G37*
G36*
X209747097Y-94050067D02*
G01*
X209801875Y-94072757D01*
X209801877Y-94072758D01*
X209851176Y-94105698D01*
X209893102Y-94147624D01*
X209926042Y-94196923D01*
X209926043Y-94196925D01*
X209948733Y-94251703D01*
X209960300Y-94309853D01*
X209960300Y-94369147D01*
X209948733Y-94427297D01*
X209939097Y-94450560D01*
X209926042Y-94482077D01*
X209893102Y-94531376D01*
X209851176Y-94573302D01*
X209801877Y-94606242D01*
X209801876Y-94606243D01*
X209801875Y-94606243D01*
X209747097Y-94628933D01*
X209688947Y-94640500D01*
X209629653Y-94640500D01*
X209571503Y-94628933D01*
X209516725Y-94606243D01*
X209516724Y-94606243D01*
X209516723Y-94606242D01*
X209467424Y-94573302D01*
X209425498Y-94531376D01*
X209392558Y-94482077D01*
X209379503Y-94450560D01*
X209369867Y-94427297D01*
X209358300Y-94369147D01*
X209358300Y-94309853D01*
X209369867Y-94251703D01*
X209392557Y-94196925D01*
X209392558Y-94196923D01*
X209425498Y-94147624D01*
X209467424Y-94105698D01*
X209516723Y-94072758D01*
X209516725Y-94072757D01*
X209571503Y-94050067D01*
X209629653Y-94038500D01*
X209688947Y-94038500D01*
X209747097Y-94050067D01*
G37*
G36*
X114547097Y-93196067D02*
G01*
X114601875Y-93218757D01*
X114601877Y-93218758D01*
X114651176Y-93251698D01*
X114693102Y-93293624D01*
X114716402Y-93328496D01*
X114726043Y-93342925D01*
X114748733Y-93397703D01*
X114760300Y-93455853D01*
X114760300Y-93515147D01*
X114748733Y-93573297D01*
X114726043Y-93628075D01*
X114726042Y-93628077D01*
X114693102Y-93677376D01*
X114651176Y-93719302D01*
X114601877Y-93752242D01*
X114601876Y-93752243D01*
X114601875Y-93752243D01*
X114547097Y-93774933D01*
X114488947Y-93786500D01*
X114429653Y-93786500D01*
X114371503Y-93774933D01*
X114316725Y-93752243D01*
X114316724Y-93752243D01*
X114316723Y-93752242D01*
X114267424Y-93719302D01*
X114225498Y-93677376D01*
X114192558Y-93628077D01*
X114192557Y-93628075D01*
X114169867Y-93573297D01*
X114158300Y-93515147D01*
X114158300Y-93455853D01*
X114169867Y-93397703D01*
X114192557Y-93342925D01*
X114202198Y-93328496D01*
X114225498Y-93293624D01*
X114267424Y-93251698D01*
X114316723Y-93218758D01*
X114316725Y-93218757D01*
X114371503Y-93196067D01*
X114429653Y-93184500D01*
X114488947Y-93184500D01*
X114547097Y-93196067D01*
G37*
G36*
X110001497Y-93196067D02*
G01*
X110056275Y-93218757D01*
X110056277Y-93218758D01*
X110105576Y-93251698D01*
X110147502Y-93293624D01*
X110170802Y-93328496D01*
X110180443Y-93342925D01*
X110203133Y-93397703D01*
X110214700Y-93455853D01*
X110214700Y-93515147D01*
X110203133Y-93573297D01*
X110180443Y-93628075D01*
X110180442Y-93628077D01*
X110147502Y-93677376D01*
X110105576Y-93719302D01*
X110056277Y-93752242D01*
X110056276Y-93752243D01*
X110056275Y-93752243D01*
X110001497Y-93774933D01*
X109943347Y-93786500D01*
X109884053Y-93786500D01*
X109825903Y-93774933D01*
X109771125Y-93752243D01*
X109771124Y-93752243D01*
X109771123Y-93752242D01*
X109721824Y-93719302D01*
X109679898Y-93677376D01*
X109646958Y-93628077D01*
X109646957Y-93628075D01*
X109624267Y-93573297D01*
X109612700Y-93515147D01*
X109612700Y-93455853D01*
X109624267Y-93397703D01*
X109646957Y-93342925D01*
X109656598Y-93328496D01*
X109679898Y-93293624D01*
X109721824Y-93251698D01*
X109771123Y-93218758D01*
X109771125Y-93218757D01*
X109825903Y-93196067D01*
X109884053Y-93184500D01*
X109943347Y-93184500D01*
X110001497Y-93196067D01*
G37*
G36*
X114547097Y-92307067D02*
G01*
X114601875Y-92329757D01*
X114601877Y-92329758D01*
X114651176Y-92362698D01*
X114693102Y-92404624D01*
X114726042Y-92453923D01*
X114726043Y-92453925D01*
X114748733Y-92508703D01*
X114760300Y-92566853D01*
X114760300Y-92626147D01*
X114748733Y-92684297D01*
X114733611Y-92720804D01*
X114726042Y-92739077D01*
X114693102Y-92788376D01*
X114651176Y-92830302D01*
X114601877Y-92863242D01*
X114601876Y-92863243D01*
X114601875Y-92863243D01*
X114547097Y-92885933D01*
X114488947Y-92897500D01*
X114429653Y-92897500D01*
X114371503Y-92885933D01*
X114316725Y-92863243D01*
X114316724Y-92863243D01*
X114316723Y-92863242D01*
X114267424Y-92830302D01*
X114225498Y-92788376D01*
X114192558Y-92739077D01*
X114184989Y-92720804D01*
X114169867Y-92684297D01*
X114158300Y-92626147D01*
X114158300Y-92566853D01*
X114169867Y-92508703D01*
X114192557Y-92453925D01*
X114192558Y-92453923D01*
X114225498Y-92404624D01*
X114267424Y-92362698D01*
X114316723Y-92329758D01*
X114316725Y-92329757D01*
X114371503Y-92307067D01*
X114429653Y-92295500D01*
X114488947Y-92295500D01*
X114547097Y-92307067D01*
G37*
G36*
X110001497Y-92307067D02*
G01*
X110056275Y-92329757D01*
X110056277Y-92329758D01*
X110105576Y-92362698D01*
X110147502Y-92404624D01*
X110180442Y-92453923D01*
X110180443Y-92453925D01*
X110203133Y-92508703D01*
X110214700Y-92566853D01*
X110214700Y-92626147D01*
X110203133Y-92684297D01*
X110188011Y-92720804D01*
X110180442Y-92739077D01*
X110147502Y-92788376D01*
X110105576Y-92830302D01*
X110056277Y-92863242D01*
X110056276Y-92863243D01*
X110056275Y-92863243D01*
X110001497Y-92885933D01*
X109943347Y-92897500D01*
X109884053Y-92897500D01*
X109825903Y-92885933D01*
X109771125Y-92863243D01*
X109771124Y-92863243D01*
X109771123Y-92863242D01*
X109721824Y-92830302D01*
X109679898Y-92788376D01*
X109646958Y-92739077D01*
X109639389Y-92720804D01*
X109624267Y-92684297D01*
X109612700Y-92626147D01*
X109612700Y-92566853D01*
X109624267Y-92508703D01*
X109646957Y-92453925D01*
X109646958Y-92453923D01*
X109679898Y-92404624D01*
X109721824Y-92362698D01*
X109771123Y-92329758D01*
X109771125Y-92329757D01*
X109825903Y-92307067D01*
X109884053Y-92295500D01*
X109943347Y-92295500D01*
X110001497Y-92307067D01*
G37*
G36*
X114547097Y-91450067D02*
G01*
X114601875Y-91472757D01*
X114601877Y-91472758D01*
X114651176Y-91505698D01*
X114693102Y-91547624D01*
X114726042Y-91596923D01*
X114726043Y-91596925D01*
X114748733Y-91651703D01*
X114760300Y-91709853D01*
X114760300Y-91769147D01*
X114748733Y-91827297D01*
X114739298Y-91850075D01*
X114726042Y-91882077D01*
X114693102Y-91931376D01*
X114651176Y-91973302D01*
X114601877Y-92006242D01*
X114601876Y-92006243D01*
X114601875Y-92006243D01*
X114547097Y-92028933D01*
X114488947Y-92040500D01*
X114429653Y-92040500D01*
X114371503Y-92028933D01*
X114316725Y-92006243D01*
X114316724Y-92006243D01*
X114316723Y-92006242D01*
X114267424Y-91973302D01*
X114225498Y-91931376D01*
X114192558Y-91882077D01*
X114179302Y-91850075D01*
X114169867Y-91827297D01*
X114158300Y-91769147D01*
X114158300Y-91709853D01*
X114169867Y-91651703D01*
X114192557Y-91596925D01*
X114192558Y-91596923D01*
X114225498Y-91547624D01*
X114267424Y-91505698D01*
X114316723Y-91472758D01*
X114316725Y-91472757D01*
X114371503Y-91450067D01*
X114429653Y-91438500D01*
X114488947Y-91438500D01*
X114547097Y-91450067D01*
G37*
G36*
X110001497Y-91418067D02*
G01*
X110050826Y-91438500D01*
X110056277Y-91440758D01*
X110105576Y-91473698D01*
X110147502Y-91515624D01*
X110168883Y-91547624D01*
X110180443Y-91564925D01*
X110203133Y-91619703D01*
X110214700Y-91677853D01*
X110214700Y-91737147D01*
X110203133Y-91795297D01*
X110180443Y-91850075D01*
X110180442Y-91850077D01*
X110147502Y-91899376D01*
X110105576Y-91941302D01*
X110056277Y-91974242D01*
X110056276Y-91974243D01*
X110056275Y-91974243D01*
X110001497Y-91996933D01*
X109943347Y-92008500D01*
X109884053Y-92008500D01*
X109825903Y-91996933D01*
X109771125Y-91974243D01*
X109771124Y-91974243D01*
X109771123Y-91974242D01*
X109721824Y-91941302D01*
X109679898Y-91899376D01*
X109646958Y-91850077D01*
X109646957Y-91850075D01*
X109624267Y-91795297D01*
X109612700Y-91737147D01*
X109612700Y-91677853D01*
X109624267Y-91619703D01*
X109646957Y-91564925D01*
X109658517Y-91547624D01*
X109679898Y-91515624D01*
X109721824Y-91473698D01*
X109771123Y-91440758D01*
X109776574Y-91438500D01*
X109825903Y-91418067D01*
X109884053Y-91406500D01*
X109943347Y-91406500D01*
X110001497Y-91418067D01*
G37*
G36*
X177690000Y-87615000D02*
G01*
X175588000Y-87615000D01*
X175588000Y-85513000D01*
X177690000Y-85513000D01*
X177690000Y-87615000D01*
G37*
G36*
X182079642Y-85793781D02*
G01*
X182225414Y-85854162D01*
X182225416Y-85854163D01*
X182356608Y-85941822D01*
X182468178Y-86053392D01*
X182555837Y-86184584D01*
X182555838Y-86184586D01*
X182616219Y-86330358D01*
X182647000Y-86485107D01*
X182647000Y-86642893D01*
X182616219Y-86797642D01*
X182555838Y-86943414D01*
X182555837Y-86943416D01*
X182468178Y-87074608D01*
X182356608Y-87186178D01*
X182225416Y-87273837D01*
X182225415Y-87273838D01*
X182225414Y-87273838D01*
X182079642Y-87334219D01*
X181924893Y-87365000D01*
X181767107Y-87365000D01*
X181612358Y-87334219D01*
X181466586Y-87273838D01*
X181466585Y-87273838D01*
X181466584Y-87273837D01*
X181335392Y-87186178D01*
X181223822Y-87074608D01*
X181136163Y-86943416D01*
X181136162Y-86943414D01*
X181075781Y-86797642D01*
X181045000Y-86642893D01*
X181045000Y-86485107D01*
X181075781Y-86330358D01*
X181136162Y-86184586D01*
X181136163Y-86184584D01*
X181223822Y-86053392D01*
X181335392Y-85941822D01*
X181466584Y-85854163D01*
X181466586Y-85854162D01*
X181612358Y-85793781D01*
X181767107Y-85763000D01*
X181924893Y-85763000D01*
X182079642Y-85793781D01*
G37*
G36*
X171919642Y-85793781D02*
G01*
X172065414Y-85854162D01*
X172065416Y-85854163D01*
X172196608Y-85941822D01*
X172308178Y-86053392D01*
X172395837Y-86184584D01*
X172395838Y-86184586D01*
X172456219Y-86330358D01*
X172487000Y-86485107D01*
X172487000Y-86642893D01*
X172456219Y-86797642D01*
X172395838Y-86943414D01*
X172395837Y-86943416D01*
X172308178Y-87074608D01*
X172196608Y-87186178D01*
X172065416Y-87273837D01*
X172065415Y-87273838D01*
X172065414Y-87273838D01*
X171919642Y-87334219D01*
X171764893Y-87365000D01*
X171607107Y-87365000D01*
X171452358Y-87334219D01*
X171306586Y-87273838D01*
X171306585Y-87273838D01*
X171306584Y-87273837D01*
X171175392Y-87186178D01*
X171063822Y-87074608D01*
X170976163Y-86943416D01*
X170976162Y-86943414D01*
X170915781Y-86797642D01*
X170885000Y-86642893D01*
X170885000Y-86485107D01*
X170915781Y-86330358D01*
X170976162Y-86184586D01*
X170976163Y-86184584D01*
X171063822Y-86053392D01*
X171175392Y-85941822D01*
X171306584Y-85854163D01*
X171306586Y-85854162D01*
X171452358Y-85793781D01*
X171607107Y-85763000D01*
X171764893Y-85763000D01*
X171919642Y-85793781D01*
G37*
G36*
X144995642Y-76649781D02*
G01*
X145141414Y-76710162D01*
X145141416Y-76710163D01*
X145272608Y-76797822D01*
X145384178Y-76909392D01*
X145471837Y-77040584D01*
X145471838Y-77040586D01*
X145532219Y-77186358D01*
X145563000Y-77341107D01*
X145563000Y-77498893D01*
X145532219Y-77653642D01*
X145471838Y-77799414D01*
X145471837Y-77799416D01*
X145384178Y-77930608D01*
X145272608Y-78042178D01*
X145141416Y-78129837D01*
X145141415Y-78129838D01*
X145141414Y-78129838D01*
X144995642Y-78190219D01*
X144840893Y-78221000D01*
X144683107Y-78221000D01*
X144528358Y-78190219D01*
X144382586Y-78129838D01*
X144382585Y-78129838D01*
X144382584Y-78129837D01*
X144251392Y-78042178D01*
X144139822Y-77930608D01*
X144052163Y-77799416D01*
X144052162Y-77799414D01*
X143991781Y-77653642D01*
X143961000Y-77498893D01*
X143961000Y-77341107D01*
X143991781Y-77186358D01*
X144052162Y-77040586D01*
X144052163Y-77040584D01*
X144139822Y-76909392D01*
X144251392Y-76797822D01*
X144382584Y-76710163D01*
X144382586Y-76710162D01*
X144528358Y-76649781D01*
X144683107Y-76619000D01*
X144840893Y-76619000D01*
X144995642Y-76649781D01*
G37*
G36*
X139915642Y-76649781D02*
G01*
X140061414Y-76710162D01*
X140061416Y-76710163D01*
X140192608Y-76797822D01*
X140304178Y-76909392D01*
X140391837Y-77040584D01*
X140391838Y-77040586D01*
X140452219Y-77186358D01*
X140483000Y-77341107D01*
X140483000Y-77498893D01*
X140452219Y-77653642D01*
X140391838Y-77799414D01*
X140391837Y-77799416D01*
X140304178Y-77930608D01*
X140192608Y-78042178D01*
X140061416Y-78129837D01*
X140061415Y-78129838D01*
X140061414Y-78129838D01*
X139915642Y-78190219D01*
X139760893Y-78221000D01*
X139603107Y-78221000D01*
X139448358Y-78190219D01*
X139302586Y-78129838D01*
X139302585Y-78129838D01*
X139302584Y-78129837D01*
X139171392Y-78042178D01*
X139059822Y-77930608D01*
X138972163Y-77799416D01*
X138972162Y-77799414D01*
X138911781Y-77653642D01*
X138881000Y-77498893D01*
X138881000Y-77341107D01*
X138911781Y-77186358D01*
X138972162Y-77040586D01*
X138972163Y-77040584D01*
X139059822Y-76909392D01*
X139171392Y-76797822D01*
X139302584Y-76710163D01*
X139302586Y-76710162D01*
X139448358Y-76649781D01*
X139603107Y-76619000D01*
X139760893Y-76619000D01*
X139915642Y-76649781D01*
G37*
G36*
X150075642Y-76649781D02*
G01*
X150221414Y-76710162D01*
X150221416Y-76710163D01*
X150352608Y-76797822D01*
X150464178Y-76909392D01*
X150551837Y-77040584D01*
X150551838Y-77040586D01*
X150612219Y-77186358D01*
X150643000Y-77341107D01*
X150643000Y-77498893D01*
X150612219Y-77653642D01*
X150551838Y-77799414D01*
X150551837Y-77799416D01*
X150464178Y-77930608D01*
X150352608Y-78042178D01*
X150221416Y-78129837D01*
X150221415Y-78129838D01*
X150221414Y-78129838D01*
X150075642Y-78190219D01*
X149920893Y-78221000D01*
X149763107Y-78221000D01*
X149608358Y-78190219D01*
X149462586Y-78129838D01*
X149462585Y-78129838D01*
X149462584Y-78129837D01*
X149331392Y-78042178D01*
X149219822Y-77930608D01*
X149132163Y-77799416D01*
X149132162Y-77799414D01*
X149071781Y-77653642D01*
X149041000Y-77498893D01*
X149041000Y-77341107D01*
X149071781Y-77186358D01*
X149132162Y-77040586D01*
X149132163Y-77040584D01*
X149219822Y-76909392D01*
X149331392Y-76797822D01*
X149462584Y-76710163D01*
X149462586Y-76710162D01*
X149608358Y-76649781D01*
X149763107Y-76619000D01*
X149920893Y-76619000D01*
X150075642Y-76649781D01*
G37*
G36*
X155155642Y-76649781D02*
G01*
X155301414Y-76710162D01*
X155301416Y-76710163D01*
X155432608Y-76797822D01*
X155544178Y-76909392D01*
X155631837Y-77040584D01*
X155631838Y-77040586D01*
X155692219Y-77186358D01*
X155723000Y-77341107D01*
X155723000Y-77498893D01*
X155692219Y-77653642D01*
X155631838Y-77799414D01*
X155631837Y-77799416D01*
X155544178Y-77930608D01*
X155432608Y-78042178D01*
X155301416Y-78129837D01*
X155301415Y-78129838D01*
X155301414Y-78129838D01*
X155155642Y-78190219D01*
X155000893Y-78221000D01*
X154843107Y-78221000D01*
X154688358Y-78190219D01*
X154542586Y-78129838D01*
X154542585Y-78129838D01*
X154542584Y-78129837D01*
X154411392Y-78042178D01*
X154299822Y-77930608D01*
X154212163Y-77799416D01*
X154212162Y-77799414D01*
X154151781Y-77653642D01*
X154121000Y-77498893D01*
X154121000Y-77341107D01*
X154151781Y-77186358D01*
X154212162Y-77040586D01*
X154212163Y-77040584D01*
X154299822Y-76909392D01*
X154411392Y-76797822D01*
X154542584Y-76710163D01*
X154542586Y-76710162D01*
X154688358Y-76649781D01*
X154843107Y-76619000D01*
X155000893Y-76619000D01*
X155155642Y-76649781D01*
G37*
G36*
X165315642Y-76649781D02*
G01*
X165461414Y-76710162D01*
X165461416Y-76710163D01*
X165592608Y-76797822D01*
X165704178Y-76909392D01*
X165791837Y-77040584D01*
X165791838Y-77040586D01*
X165852219Y-77186358D01*
X165883000Y-77341107D01*
X165883000Y-77498893D01*
X165852219Y-77653642D01*
X165791838Y-77799414D01*
X165791837Y-77799416D01*
X165704178Y-77930608D01*
X165592608Y-78042178D01*
X165461416Y-78129837D01*
X165461415Y-78129838D01*
X165461414Y-78129838D01*
X165315642Y-78190219D01*
X165160893Y-78221000D01*
X165003107Y-78221000D01*
X164848358Y-78190219D01*
X164702586Y-78129838D01*
X164702585Y-78129838D01*
X164702584Y-78129837D01*
X164571392Y-78042178D01*
X164459822Y-77930608D01*
X164372163Y-77799416D01*
X164372162Y-77799414D01*
X164311781Y-77653642D01*
X164281000Y-77498893D01*
X164281000Y-77341107D01*
X164311781Y-77186358D01*
X164372162Y-77040586D01*
X164372163Y-77040584D01*
X164459822Y-76909392D01*
X164571392Y-76797822D01*
X164702584Y-76710163D01*
X164702586Y-76710162D01*
X164848358Y-76649781D01*
X165003107Y-76619000D01*
X165160893Y-76619000D01*
X165315642Y-76649781D01*
G37*
G36*
X160235642Y-76649781D02*
G01*
X160381414Y-76710162D01*
X160381416Y-76710163D01*
X160512608Y-76797822D01*
X160624178Y-76909392D01*
X160711837Y-77040584D01*
X160711838Y-77040586D01*
X160772219Y-77186358D01*
X160803000Y-77341107D01*
X160803000Y-77498893D01*
X160772219Y-77653642D01*
X160711838Y-77799414D01*
X160711837Y-77799416D01*
X160624178Y-77930608D01*
X160512608Y-78042178D01*
X160381416Y-78129837D01*
X160381415Y-78129838D01*
X160381414Y-78129838D01*
X160235642Y-78190219D01*
X160080893Y-78221000D01*
X159923107Y-78221000D01*
X159768358Y-78190219D01*
X159622586Y-78129838D01*
X159622585Y-78129838D01*
X159622584Y-78129837D01*
X159491392Y-78042178D01*
X159379822Y-77930608D01*
X159292163Y-77799416D01*
X159292162Y-77799414D01*
X159231781Y-77653642D01*
X159201000Y-77498893D01*
X159201000Y-77341107D01*
X159231781Y-77186358D01*
X159292162Y-77040586D01*
X159292163Y-77040584D01*
X159379822Y-76909392D01*
X159491392Y-76797822D01*
X159622584Y-76710163D01*
X159622586Y-76710162D01*
X159768358Y-76649781D01*
X159923107Y-76619000D01*
X160080893Y-76619000D01*
X160235642Y-76649781D01*
G37*
G36*
X90525297Y-71765867D02*
G01*
X90580075Y-71788557D01*
X90580077Y-71788558D01*
X90629376Y-71821498D01*
X90671302Y-71863424D01*
X90704242Y-71912723D01*
X90704243Y-71912725D01*
X90726933Y-71967503D01*
X90738500Y-72025653D01*
X90738500Y-72084947D01*
X90726933Y-72143097D01*
X90704243Y-72197875D01*
X90704242Y-72197877D01*
X90671302Y-72247176D01*
X90629376Y-72289102D01*
X90580077Y-72322042D01*
X90580076Y-72322043D01*
X90580075Y-72322043D01*
X90525297Y-72344733D01*
X90467147Y-72356300D01*
X90407853Y-72356300D01*
X90349703Y-72344733D01*
X90294925Y-72322043D01*
X90294924Y-72322043D01*
X90294923Y-72322042D01*
X90245624Y-72289102D01*
X90203698Y-72247176D01*
X90170758Y-72197877D01*
X90170757Y-72197875D01*
X90148067Y-72143097D01*
X90136500Y-72084947D01*
X90136500Y-72025653D01*
X90148067Y-71967503D01*
X90170757Y-71912725D01*
X90170758Y-71912723D01*
X90203698Y-71863424D01*
X90245624Y-71821498D01*
X90294923Y-71788558D01*
X90294925Y-71788557D01*
X90349703Y-71765867D01*
X90407853Y-71754300D01*
X90467147Y-71754300D01*
X90525297Y-71765867D01*
G37*
G36*
X88779297Y-71765867D02*
G01*
X88834075Y-71788557D01*
X88834077Y-71788558D01*
X88883376Y-71821498D01*
X88925302Y-71863424D01*
X88958242Y-71912723D01*
X88958243Y-71912725D01*
X88980933Y-71967503D01*
X88992500Y-72025653D01*
X88992500Y-72084947D01*
X88980933Y-72143097D01*
X88958243Y-72197875D01*
X88958242Y-72197877D01*
X88925302Y-72247176D01*
X88883376Y-72289102D01*
X88834077Y-72322042D01*
X88834076Y-72322043D01*
X88834075Y-72322043D01*
X88779297Y-72344733D01*
X88721147Y-72356300D01*
X88661853Y-72356300D01*
X88603703Y-72344733D01*
X88548925Y-72322043D01*
X88548924Y-72322043D01*
X88548923Y-72322042D01*
X88499624Y-72289102D01*
X88457698Y-72247176D01*
X88424758Y-72197877D01*
X88424757Y-72197875D01*
X88402067Y-72143097D01*
X88390500Y-72084947D01*
X88390500Y-72025653D01*
X88402067Y-71967503D01*
X88424757Y-71912725D01*
X88424758Y-71912723D01*
X88457698Y-71863424D01*
X88499624Y-71821498D01*
X88548923Y-71788558D01*
X88548925Y-71788557D01*
X88603703Y-71765867D01*
X88661853Y-71754300D01*
X88721147Y-71754300D01*
X88779297Y-71765867D01*
G37*
G36*
X87890297Y-71765867D02*
G01*
X87945075Y-71788557D01*
X87945077Y-71788558D01*
X87994376Y-71821498D01*
X88036302Y-71863424D01*
X88069242Y-71912723D01*
X88069243Y-71912725D01*
X88091933Y-71967503D01*
X88103500Y-72025653D01*
X88103500Y-72084947D01*
X88091933Y-72143097D01*
X88069243Y-72197875D01*
X88069242Y-72197877D01*
X88036302Y-72247176D01*
X87994376Y-72289102D01*
X87945077Y-72322042D01*
X87945076Y-72322043D01*
X87945075Y-72322043D01*
X87890297Y-72344733D01*
X87832147Y-72356300D01*
X87772853Y-72356300D01*
X87714703Y-72344733D01*
X87659925Y-72322043D01*
X87659924Y-72322043D01*
X87659923Y-72322042D01*
X87610624Y-72289102D01*
X87568698Y-72247176D01*
X87535758Y-72197877D01*
X87535757Y-72197875D01*
X87513067Y-72143097D01*
X87501500Y-72084947D01*
X87501500Y-72025653D01*
X87513067Y-71967503D01*
X87535757Y-71912725D01*
X87535758Y-71912723D01*
X87568698Y-71863424D01*
X87610624Y-71821498D01*
X87659923Y-71788558D01*
X87659925Y-71788557D01*
X87714703Y-71765867D01*
X87772853Y-71754300D01*
X87832147Y-71754300D01*
X87890297Y-71765867D01*
G37*
G36*
X89668297Y-71765867D02*
G01*
X89723075Y-71788557D01*
X89723077Y-71788558D01*
X89772376Y-71821498D01*
X89814302Y-71863424D01*
X89847242Y-71912723D01*
X89847243Y-71912725D01*
X89869933Y-71967503D01*
X89881500Y-72025653D01*
X89881500Y-72084947D01*
X89869933Y-72143097D01*
X89847243Y-72197875D01*
X89847242Y-72197877D01*
X89814302Y-72247176D01*
X89772376Y-72289102D01*
X89723077Y-72322042D01*
X89723076Y-72322043D01*
X89723075Y-72322043D01*
X89668297Y-72344733D01*
X89610147Y-72356300D01*
X89550853Y-72356300D01*
X89492703Y-72344733D01*
X89437925Y-72322043D01*
X89437924Y-72322043D01*
X89437923Y-72322042D01*
X89388624Y-72289102D01*
X89346698Y-72247176D01*
X89313758Y-72197877D01*
X89313757Y-72197875D01*
X89291067Y-72143097D01*
X89279500Y-72084947D01*
X89279500Y-72025653D01*
X89291067Y-71967503D01*
X89313757Y-71912725D01*
X89313758Y-71912723D01*
X89346698Y-71863424D01*
X89388624Y-71821498D01*
X89437923Y-71788558D01*
X89437925Y-71788557D01*
X89492703Y-71765867D01*
X89550853Y-71754300D01*
X89610147Y-71754300D01*
X89668297Y-71765867D01*
G37*
G36*
X202193000Y-71351000D02*
G01*
X199091000Y-71351000D01*
X199091000Y-68249000D01*
X202193000Y-68249000D01*
X202193000Y-71351000D01*
G37*
G36*
X130423000Y-67907000D02*
G01*
X128621000Y-67907000D01*
X128621000Y-66105000D01*
X130423000Y-66105000D01*
X130423000Y-67907000D01*
G37*
G36*
X134715512Y-66109927D02*
G01*
X134864812Y-66139624D01*
X135028784Y-66207544D01*
X135176354Y-66306147D01*
X135301853Y-66431646D01*
X135400456Y-66579216D01*
X135468376Y-66743188D01*
X135503000Y-66917259D01*
X135503000Y-67094741D01*
X135468376Y-67268812D01*
X135400456Y-67432784D01*
X135301853Y-67580354D01*
X135176354Y-67705853D01*
X135028784Y-67804456D01*
X134864812Y-67872376D01*
X134715512Y-67902073D01*
X134690742Y-67907000D01*
X134513258Y-67907000D01*
X134488488Y-67902073D01*
X134339188Y-67872376D01*
X134175216Y-67804456D01*
X134027646Y-67705853D01*
X133902147Y-67580354D01*
X133803544Y-67432784D01*
X133735624Y-67268812D01*
X133701000Y-67094741D01*
X133701000Y-66917259D01*
X133735624Y-66743188D01*
X133803544Y-66579216D01*
X133902147Y-66431646D01*
X134027646Y-66306147D01*
X134175216Y-66207544D01*
X134339188Y-66139624D01*
X134488488Y-66109927D01*
X134513258Y-66105000D01*
X134690742Y-66105000D01*
X134715512Y-66109927D01*
G37*
G36*
X132175512Y-66109927D02*
G01*
X132324812Y-66139624D01*
X132488784Y-66207544D01*
X132636354Y-66306147D01*
X132761853Y-66431646D01*
X132860456Y-66579216D01*
X132928376Y-66743188D01*
X132963000Y-66917259D01*
X132963000Y-67094741D01*
X132928376Y-67268812D01*
X132860456Y-67432784D01*
X132761853Y-67580354D01*
X132636354Y-67705853D01*
X132488784Y-67804456D01*
X132324812Y-67872376D01*
X132175512Y-67902073D01*
X132150742Y-67907000D01*
X131973258Y-67907000D01*
X131948488Y-67902073D01*
X131799188Y-67872376D01*
X131635216Y-67804456D01*
X131487646Y-67705853D01*
X131362147Y-67580354D01*
X131263544Y-67432784D01*
X131195624Y-67268812D01*
X131161000Y-67094741D01*
X131161000Y-66917259D01*
X131195624Y-66743188D01*
X131263544Y-66579216D01*
X131362147Y-66431646D01*
X131487646Y-66306147D01*
X131635216Y-66207544D01*
X131799188Y-66139624D01*
X131948488Y-66109927D01*
X131973258Y-66105000D01*
X132150742Y-66105000D01*
X132175512Y-66109927D01*
G37*
G36*
X90471297Y-66955267D02*
G01*
X90526075Y-66977957D01*
X90526077Y-66977958D01*
X90575376Y-67010898D01*
X90617302Y-67052824D01*
X90645310Y-67094742D01*
X90650243Y-67102125D01*
X90672933Y-67156903D01*
X90684500Y-67215053D01*
X90684500Y-67274347D01*
X90672933Y-67332497D01*
X90650243Y-67387275D01*
X90650242Y-67387277D01*
X90617302Y-67436576D01*
X90575376Y-67478502D01*
X90526077Y-67511442D01*
X90526076Y-67511443D01*
X90526075Y-67511443D01*
X90471297Y-67534133D01*
X90413147Y-67545700D01*
X90353853Y-67545700D01*
X90295703Y-67534133D01*
X90240925Y-67511443D01*
X90240924Y-67511443D01*
X90240923Y-67511442D01*
X90191624Y-67478502D01*
X90149698Y-67436576D01*
X90116758Y-67387277D01*
X90116757Y-67387275D01*
X90094067Y-67332497D01*
X90082500Y-67274347D01*
X90082500Y-67215053D01*
X90094067Y-67156903D01*
X90116757Y-67102125D01*
X90121690Y-67094742D01*
X90149698Y-67052824D01*
X90191624Y-67010898D01*
X90240923Y-66977958D01*
X90240925Y-66977957D01*
X90295703Y-66955267D01*
X90353853Y-66943700D01*
X90413147Y-66943700D01*
X90471297Y-66955267D01*
G37*
G36*
X89582297Y-66955267D02*
G01*
X89637075Y-66977957D01*
X89637077Y-66977958D01*
X89686376Y-67010898D01*
X89728302Y-67052824D01*
X89756310Y-67094742D01*
X89761243Y-67102125D01*
X89783933Y-67156903D01*
X89795500Y-67215053D01*
X89795500Y-67274347D01*
X89783933Y-67332497D01*
X89761243Y-67387275D01*
X89761242Y-67387277D01*
X89728302Y-67436576D01*
X89686376Y-67478502D01*
X89637077Y-67511442D01*
X89637076Y-67511443D01*
X89637075Y-67511443D01*
X89582297Y-67534133D01*
X89524147Y-67545700D01*
X89464853Y-67545700D01*
X89406703Y-67534133D01*
X89351925Y-67511443D01*
X89351924Y-67511443D01*
X89351923Y-67511442D01*
X89302624Y-67478502D01*
X89260698Y-67436576D01*
X89227758Y-67387277D01*
X89227757Y-67387275D01*
X89205067Y-67332497D01*
X89193500Y-67274347D01*
X89193500Y-67215053D01*
X89205067Y-67156903D01*
X89227757Y-67102125D01*
X89232690Y-67094742D01*
X89260698Y-67052824D01*
X89302624Y-67010898D01*
X89351923Y-66977958D01*
X89351925Y-66977957D01*
X89406703Y-66955267D01*
X89464853Y-66943700D01*
X89524147Y-66943700D01*
X89582297Y-66955267D01*
G37*
G36*
X88693297Y-66955267D02*
G01*
X88748075Y-66977957D01*
X88748077Y-66977958D01*
X88797376Y-67010898D01*
X88839302Y-67052824D01*
X88867310Y-67094742D01*
X88872243Y-67102125D01*
X88894933Y-67156903D01*
X88906500Y-67215053D01*
X88906500Y-67274347D01*
X88894933Y-67332497D01*
X88872243Y-67387275D01*
X88872242Y-67387277D01*
X88839302Y-67436576D01*
X88797376Y-67478502D01*
X88748077Y-67511442D01*
X88748076Y-67511443D01*
X88748075Y-67511443D01*
X88693297Y-67534133D01*
X88635147Y-67545700D01*
X88575853Y-67545700D01*
X88517703Y-67534133D01*
X88462925Y-67511443D01*
X88462924Y-67511443D01*
X88462923Y-67511442D01*
X88413624Y-67478502D01*
X88371698Y-67436576D01*
X88338758Y-67387277D01*
X88338757Y-67387275D01*
X88316067Y-67332497D01*
X88304500Y-67274347D01*
X88304500Y-67215053D01*
X88316067Y-67156903D01*
X88338757Y-67102125D01*
X88343690Y-67094742D01*
X88371698Y-67052824D01*
X88413624Y-67010898D01*
X88462923Y-66977958D01*
X88462925Y-66977957D01*
X88517703Y-66955267D01*
X88575853Y-66943700D01*
X88635147Y-66943700D01*
X88693297Y-66955267D01*
G37*
G36*
X87836297Y-66955267D02*
G01*
X87891075Y-66977957D01*
X87891077Y-66977958D01*
X87940376Y-67010898D01*
X87982302Y-67052824D01*
X88010310Y-67094742D01*
X88015243Y-67102125D01*
X88037933Y-67156903D01*
X88049500Y-67215053D01*
X88049500Y-67274347D01*
X88037933Y-67332497D01*
X88015243Y-67387275D01*
X88015242Y-67387277D01*
X87982302Y-67436576D01*
X87940376Y-67478502D01*
X87891077Y-67511442D01*
X87891076Y-67511443D01*
X87891075Y-67511443D01*
X87836297Y-67534133D01*
X87778147Y-67545700D01*
X87718853Y-67545700D01*
X87660703Y-67534133D01*
X87605925Y-67511443D01*
X87605924Y-67511443D01*
X87605923Y-67511442D01*
X87556624Y-67478502D01*
X87514698Y-67436576D01*
X87481758Y-67387277D01*
X87481757Y-67387275D01*
X87459067Y-67332497D01*
X87447500Y-67274347D01*
X87447500Y-67215053D01*
X87459067Y-67156903D01*
X87481757Y-67102125D01*
X87486690Y-67094742D01*
X87514698Y-67052824D01*
X87556624Y-67010898D01*
X87605923Y-66977958D01*
X87605925Y-66977957D01*
X87660703Y-66955267D01*
X87718853Y-66943700D01*
X87778147Y-66943700D01*
X87836297Y-66955267D01*
G37*
G36*
X101363941Y-65040354D02*
G01*
X102397305Y-65457860D01*
X101909567Y-66665054D01*
X101909566Y-66665054D01*
X101021243Y-66306148D01*
X100424217Y-66064934D01*
X100911955Y-64857740D01*
X100911956Y-64857740D01*
X101363941Y-65040354D01*
G37*
G36*
X200944585Y-63198802D02*
G01*
X201094410Y-63228604D01*
X201376674Y-63345521D01*
X201630705Y-63515259D01*
X201846741Y-63731295D01*
X202016479Y-63985326D01*
X202106720Y-64203189D01*
X202133396Y-64267591D01*
X202193000Y-64567239D01*
X202193000Y-64872761D01*
X202163198Y-65022585D01*
X202133396Y-65172410D01*
X202016479Y-65454674D01*
X201846741Y-65708705D01*
X201630705Y-65924741D01*
X201376674Y-66094479D01*
X201094410Y-66211396D01*
X200944585Y-66241198D01*
X200794761Y-66271000D01*
X200489239Y-66271000D01*
X200339415Y-66241198D01*
X200189590Y-66211396D01*
X199907326Y-66094479D01*
X199653295Y-65924741D01*
X199437259Y-65708705D01*
X199267521Y-65454674D01*
X199150604Y-65172410D01*
X199120802Y-65022585D01*
X199091000Y-64872761D01*
X199091000Y-64567239D01*
X199150604Y-64267591D01*
X199177280Y-64203189D01*
X199267521Y-63985326D01*
X199437259Y-63731295D01*
X199653295Y-63515259D01*
X199907326Y-63345521D01*
X200189590Y-63228604D01*
X200339415Y-63198802D01*
X200489239Y-63169000D01*
X200794761Y-63169000D01*
X200944585Y-63198802D01*
G37*
G36*
X129635512Y-63569927D02*
G01*
X129784812Y-63599624D01*
X129948784Y-63667544D01*
X130096354Y-63766147D01*
X130221853Y-63891646D01*
X130320456Y-64039216D01*
X130388376Y-64203188D01*
X130401186Y-64267591D01*
X130423000Y-64377258D01*
X130423000Y-64554742D01*
X130420514Y-64567239D01*
X130388376Y-64728812D01*
X130320456Y-64892784D01*
X130221853Y-65040354D01*
X130096354Y-65165853D01*
X129948784Y-65264456D01*
X129784812Y-65332376D01*
X129635512Y-65362073D01*
X129610742Y-65367000D01*
X129433258Y-65367000D01*
X129408488Y-65362073D01*
X129259188Y-65332376D01*
X129095216Y-65264456D01*
X128947646Y-65165853D01*
X128822147Y-65040354D01*
X128723544Y-64892784D01*
X128655624Y-64728812D01*
X128623486Y-64567239D01*
X128621000Y-64554742D01*
X128621000Y-64377258D01*
X128642814Y-64267591D01*
X128655624Y-64203188D01*
X128723544Y-64039216D01*
X128822147Y-63891646D01*
X128947646Y-63766147D01*
X129095216Y-63667544D01*
X129259188Y-63599624D01*
X129408488Y-63569927D01*
X129433258Y-63565000D01*
X129610742Y-63565000D01*
X129635512Y-63569927D01*
G37*
G36*
X132175512Y-63569927D02*
G01*
X132324812Y-63599624D01*
X132488784Y-63667544D01*
X132636354Y-63766147D01*
X132761853Y-63891646D01*
X132860456Y-64039216D01*
X132928376Y-64203188D01*
X132941186Y-64267591D01*
X132963000Y-64377258D01*
X132963000Y-64554742D01*
X132960514Y-64567239D01*
X132928376Y-64728812D01*
X132860456Y-64892784D01*
X132761853Y-65040354D01*
X132636354Y-65165853D01*
X132488784Y-65264456D01*
X132324812Y-65332376D01*
X132175512Y-65362073D01*
X132150742Y-65367000D01*
X131973258Y-65367000D01*
X131948488Y-65362073D01*
X131799188Y-65332376D01*
X131635216Y-65264456D01*
X131487646Y-65165853D01*
X131362147Y-65040354D01*
X131263544Y-64892784D01*
X131195624Y-64728812D01*
X131163486Y-64567239D01*
X131161000Y-64554742D01*
X131161000Y-64377258D01*
X131182814Y-64267591D01*
X131195624Y-64203188D01*
X131263544Y-64039216D01*
X131362147Y-63891646D01*
X131487646Y-63766147D01*
X131635216Y-63667544D01*
X131799188Y-63599624D01*
X131948488Y-63569927D01*
X131973258Y-63565000D01*
X132150742Y-63565000D01*
X132175512Y-63569927D01*
G37*
G36*
X134715512Y-63569927D02*
G01*
X134864812Y-63599624D01*
X135028784Y-63667544D01*
X135176354Y-63766147D01*
X135301853Y-63891646D01*
X135400456Y-64039216D01*
X135468376Y-64203188D01*
X135481186Y-64267591D01*
X135503000Y-64377258D01*
X135503000Y-64554742D01*
X135500514Y-64567239D01*
X135468376Y-64728812D01*
X135400456Y-64892784D01*
X135301853Y-65040354D01*
X135176354Y-65165853D01*
X135028784Y-65264456D01*
X134864812Y-65332376D01*
X134715512Y-65362073D01*
X134690742Y-65367000D01*
X134513258Y-65367000D01*
X134488488Y-65362073D01*
X134339188Y-65332376D01*
X134175216Y-65264456D01*
X134027646Y-65165853D01*
X133902147Y-65040354D01*
X133803544Y-64892784D01*
X133735624Y-64728812D01*
X133703486Y-64567239D01*
X133701000Y-64554742D01*
X133701000Y-64377258D01*
X133722814Y-64267591D01*
X133735624Y-64203188D01*
X133803544Y-64039216D01*
X133902147Y-63891646D01*
X134027646Y-63766147D01*
X134175216Y-63667544D01*
X134339188Y-63599624D01*
X134488488Y-63569927D01*
X134513258Y-63565000D01*
X134690742Y-63565000D01*
X134715512Y-63569927D01*
G37*
G36*
X97798011Y-63599625D02*
G01*
X98688570Y-63959434D01*
X98200832Y-65166628D01*
X98200831Y-65166628D01*
X97117199Y-64728812D01*
X96715482Y-64566508D01*
X97203220Y-63359314D01*
X97203221Y-63359314D01*
X97798011Y-63599625D01*
G37*
G36*
X74561000Y-64909000D02*
G01*
X72759000Y-64909000D01*
X72759000Y-63107000D01*
X74561000Y-63107000D01*
X74561000Y-64909000D01*
G37*
G36*
X102071112Y-63169000D02*
G01*
X103146518Y-63603492D01*
X102658780Y-64810686D01*
X102658779Y-64810686D01*
X101586010Y-64377259D01*
X101173430Y-64210566D01*
X101661168Y-63003372D01*
X101661169Y-63003372D01*
X102071112Y-63169000D01*
G37*
G36*
X98646960Y-61785553D02*
G01*
X99437783Y-62105066D01*
X98950045Y-63312260D01*
X98950044Y-63312260D01*
X98185520Y-63003372D01*
X97464695Y-62712140D01*
X97952433Y-61504946D01*
X97952434Y-61504946D01*
X98646960Y-61785553D01*
G37*
G36*
X132409768Y-61283819D02*
G01*
X132445008Y-61297083D01*
X132476990Y-61316970D01*
X132504473Y-61342711D01*
X132530003Y-61378338D01*
X132693254Y-61661098D01*
X133009276Y-62208464D01*
X133009279Y-62208471D01*
X133044662Y-62269756D01*
X133062754Y-62309684D01*
X133071305Y-62346358D01*
X133072537Y-62383993D01*
X133066404Y-62421143D01*
X133053140Y-62456383D01*
X133033253Y-62488365D01*
X133007512Y-62515848D01*
X132971888Y-62541376D01*
X132102115Y-63043540D01*
X132062191Y-63061629D01*
X132025517Y-63070180D01*
X131987882Y-63071412D01*
X131950732Y-63065279D01*
X131915492Y-63052015D01*
X131883510Y-63032128D01*
X131856027Y-63006387D01*
X131830497Y-62970760D01*
X131614412Y-62596489D01*
X131351224Y-62140634D01*
X131351221Y-62140627D01*
X131315838Y-62079342D01*
X131297746Y-62039414D01*
X131289195Y-62002740D01*
X131287963Y-61965105D01*
X131294096Y-61927955D01*
X131307360Y-61892715D01*
X131327247Y-61860733D01*
X131352988Y-61833250D01*
X131388612Y-61807722D01*
X132258385Y-61305558D01*
X132298309Y-61287469D01*
X132334983Y-61278918D01*
X132372618Y-61277686D01*
X132409768Y-61283819D01*
G37*
G36*
X102582733Y-60980042D02*
G01*
X103921305Y-61520860D01*
X103433567Y-62728054D01*
X103433566Y-62728054D01*
X102459177Y-62334375D01*
X101948217Y-62127934D01*
X102435955Y-60920740D01*
X102435956Y-60920740D01*
X102582733Y-60980042D01*
G37*
G36*
X73773512Y-60571927D02*
G01*
X73922812Y-60601624D01*
X74086784Y-60669544D01*
X74234354Y-60768147D01*
X74359853Y-60893646D01*
X74458456Y-61041216D01*
X74526376Y-61205188D01*
X74549503Y-61321459D01*
X74560127Y-61374867D01*
X74561000Y-61379259D01*
X74561000Y-61556741D01*
X74526376Y-61730812D01*
X74458456Y-61894784D01*
X74359853Y-62042354D01*
X74234354Y-62167853D01*
X74086784Y-62266456D01*
X73922812Y-62334376D01*
X73789433Y-62360906D01*
X73748742Y-62369000D01*
X73571258Y-62369000D01*
X73530567Y-62360906D01*
X73397188Y-62334376D01*
X73233216Y-62266456D01*
X73085646Y-62167853D01*
X72960147Y-62042354D01*
X72861544Y-61894784D01*
X72793624Y-61730812D01*
X72759000Y-61556741D01*
X72759000Y-61379259D01*
X72759874Y-61374867D01*
X72770497Y-61321459D01*
X72793624Y-61205188D01*
X72861544Y-61041216D01*
X72960147Y-60893646D01*
X73085646Y-60768147D01*
X73233216Y-60669544D01*
X73397188Y-60601624D01*
X73546488Y-60571927D01*
X73571258Y-60567000D01*
X73748742Y-60567000D01*
X73773512Y-60571927D01*
G37*
G36*
X134487256Y-58589298D02*
G01*
X134593579Y-58610447D01*
X134894042Y-58734903D01*
X135164451Y-58915585D01*
X135394415Y-59145549D01*
X135547903Y-59375260D01*
X135575098Y-59415960D01*
X135610883Y-59502353D01*
X135682650Y-59675613D01*
X135699553Y-59716422D01*
X135763000Y-60035389D01*
X135763000Y-60360611D01*
X135727045Y-60541366D01*
X135699553Y-60679579D01*
X135575097Y-60980042D01*
X135394415Y-61250451D01*
X135164451Y-61480415D01*
X134894042Y-61661097D01*
X134593579Y-61785553D01*
X134487256Y-61806702D01*
X134274611Y-61849000D01*
X133949389Y-61849000D01*
X133736744Y-61806702D01*
X133630421Y-61785553D01*
X133329958Y-61661097D01*
X133059549Y-61480415D01*
X132829585Y-61250451D01*
X132648903Y-60980042D01*
X132524447Y-60679579D01*
X132496955Y-60541366D01*
X132461000Y-60360611D01*
X132461000Y-60035389D01*
X132524447Y-59716422D01*
X132541351Y-59675613D01*
X132613117Y-59502353D01*
X132648902Y-59415960D01*
X132676097Y-59375260D01*
X132829585Y-59145549D01*
X133059549Y-58915585D01*
X133329958Y-58734903D01*
X133630421Y-58610447D01*
X133736744Y-58589298D01*
X133949389Y-58547000D01*
X134274611Y-58547000D01*
X134487256Y-58589298D01*
G37*
G36*
X131447268Y-59616721D02*
G01*
X131482508Y-59629985D01*
X131514490Y-59649872D01*
X131541973Y-59675613D01*
X131567503Y-59711240D01*
X131747170Y-60022434D01*
X132046776Y-60541366D01*
X132046779Y-60541373D01*
X132082162Y-60602658D01*
X132100254Y-60642586D01*
X132108805Y-60679260D01*
X132110037Y-60716895D01*
X132103904Y-60754045D01*
X132090640Y-60789285D01*
X132070753Y-60821267D01*
X132045012Y-60848750D01*
X132009388Y-60874278D01*
X131139615Y-61376442D01*
X131099691Y-61394531D01*
X131063017Y-61403082D01*
X131025382Y-61404314D01*
X130988232Y-61398181D01*
X130952992Y-61384917D01*
X130921010Y-61365030D01*
X130893527Y-61339289D01*
X130867997Y-61303662D01*
X130646917Y-60920740D01*
X130388724Y-60473536D01*
X130388721Y-60473529D01*
X130353338Y-60412244D01*
X130335246Y-60372316D01*
X130326695Y-60335642D01*
X130325463Y-60298007D01*
X130331596Y-60260857D01*
X130344860Y-60225617D01*
X130364747Y-60193635D01*
X130390488Y-60166152D01*
X130426112Y-60140624D01*
X131295885Y-59638460D01*
X131335809Y-59620371D01*
X131372483Y-59611820D01*
X131410118Y-59610588D01*
X131447268Y-59616721D01*
G37*
G36*
X99398288Y-59693443D02*
G01*
X100212570Y-60022434D01*
X99724832Y-61229628D01*
X99724831Y-61229628D01*
X98856702Y-60878881D01*
X98239482Y-60629508D01*
X98727220Y-59422314D01*
X98727221Y-59422314D01*
X99398288Y-59693443D01*
G37*
G36*
X103899008Y-59354782D02*
G01*
X104670518Y-59666492D01*
X104182780Y-60873686D01*
X104182779Y-60873686D01*
X103360259Y-60541366D01*
X102697430Y-60273566D01*
X103185168Y-59066372D01*
X103185169Y-59066372D01*
X103899008Y-59354782D01*
G37*
G36*
X73773512Y-58031927D02*
G01*
X73922812Y-58061624D01*
X74086784Y-58129544D01*
X74234354Y-58228147D01*
X74359853Y-58353646D01*
X74458456Y-58501216D01*
X74526376Y-58665188D01*
X74561000Y-58839259D01*
X74561000Y-59016741D01*
X74526376Y-59190812D01*
X74458456Y-59354784D01*
X74359853Y-59502354D01*
X74234354Y-59627853D01*
X74086784Y-59726456D01*
X73922812Y-59794376D01*
X73773512Y-59824073D01*
X73748742Y-59829000D01*
X73571258Y-59829000D01*
X73546488Y-59824073D01*
X73397188Y-59794376D01*
X73233216Y-59726456D01*
X73085646Y-59627853D01*
X72960147Y-59502354D01*
X72861544Y-59354784D01*
X72793624Y-59190812D01*
X72759000Y-59016741D01*
X72759000Y-58839259D01*
X72793624Y-58665188D01*
X72861544Y-58501216D01*
X72960147Y-58353646D01*
X73085646Y-58228147D01*
X73233216Y-58129544D01*
X73397188Y-58061624D01*
X73546488Y-58031927D01*
X73571258Y-58027000D01*
X73748742Y-58027000D01*
X73773512Y-58031927D01*
G37*
G36*
X198812564Y-57486389D02*
G01*
X199003833Y-57565615D01*
X199003835Y-57565616D01*
X199007322Y-57567946D01*
X199175973Y-57680635D01*
X199322365Y-57827027D01*
X199437385Y-57999167D01*
X199516611Y-58190436D01*
X199557000Y-58393484D01*
X199557000Y-58600516D01*
X199516611Y-58803564D01*
X199437385Y-58994833D01*
X199437384Y-58994835D01*
X199322365Y-59166973D01*
X199175973Y-59313365D01*
X199003835Y-59428384D01*
X199003834Y-59428385D01*
X199003833Y-59428385D01*
X198812564Y-59507611D01*
X198609516Y-59548000D01*
X198402484Y-59548000D01*
X198199436Y-59507611D01*
X198008167Y-59428385D01*
X198008166Y-59428385D01*
X198008165Y-59428384D01*
X197836027Y-59313365D01*
X197689635Y-59166973D01*
X197574616Y-58994835D01*
X197574615Y-58994833D01*
X197495389Y-58803564D01*
X197455000Y-58600516D01*
X197455000Y-58393484D01*
X197495389Y-58190436D01*
X197574615Y-57999167D01*
X197689635Y-57827027D01*
X197836027Y-57680635D01*
X198004678Y-57567946D01*
X198008165Y-57565616D01*
X198008167Y-57565615D01*
X198199436Y-57486389D01*
X198402484Y-57446000D01*
X198609516Y-57446000D01*
X198812564Y-57486389D01*
G37*
G36*
X192312564Y-57486389D02*
G01*
X192503833Y-57565615D01*
X192503835Y-57565616D01*
X192507322Y-57567946D01*
X192675973Y-57680635D01*
X192822365Y-57827027D01*
X192937385Y-57999167D01*
X193016611Y-58190436D01*
X193057000Y-58393484D01*
X193057000Y-58600516D01*
X193016611Y-58803564D01*
X192937385Y-58994833D01*
X192937384Y-58994835D01*
X192822365Y-59166973D01*
X192675973Y-59313365D01*
X192503835Y-59428384D01*
X192503834Y-59428385D01*
X192503833Y-59428385D01*
X192312564Y-59507611D01*
X192109516Y-59548000D01*
X191902484Y-59548000D01*
X191699436Y-59507611D01*
X191508167Y-59428385D01*
X191508166Y-59428385D01*
X191508165Y-59428384D01*
X191336027Y-59313365D01*
X191189635Y-59166973D01*
X191074616Y-58994835D01*
X191074615Y-58994833D01*
X190995389Y-58803564D01*
X190955000Y-58600516D01*
X190955000Y-58393484D01*
X190995389Y-58190436D01*
X191074615Y-57999167D01*
X191189635Y-57827027D01*
X191336027Y-57680635D01*
X191504678Y-57567946D01*
X191508165Y-57565616D01*
X191508167Y-57565615D01*
X191699436Y-57486389D01*
X191902484Y-57446000D01*
X192109516Y-57446000D01*
X192312564Y-57486389D01*
G37*
G36*
X100117681Y-57827027D02*
G01*
X100961783Y-58168066D01*
X100474045Y-59375260D01*
X100474044Y-59375260D01*
X99336309Y-58915585D01*
X98988695Y-58775140D01*
X99476433Y-57567946D01*
X99476434Y-57567946D01*
X100117681Y-57827027D01*
G37*
G36*
X214090512Y-57092927D02*
G01*
X214239812Y-57122624D01*
X214403784Y-57190544D01*
X214551354Y-57289147D01*
X214676853Y-57414646D01*
X214775456Y-57562216D01*
X214843376Y-57726188D01*
X214878000Y-57900259D01*
X214878000Y-58077741D01*
X214843376Y-58251812D01*
X214775456Y-58415784D01*
X214676853Y-58563354D01*
X214551354Y-58688853D01*
X214403784Y-58787456D01*
X214239812Y-58855376D01*
X214090512Y-58885073D01*
X214065742Y-58890000D01*
X213888258Y-58890000D01*
X213863488Y-58885073D01*
X213714188Y-58855376D01*
X213550216Y-58787456D01*
X213402646Y-58688853D01*
X213277147Y-58563354D01*
X213178544Y-58415784D01*
X213110624Y-58251812D01*
X213076000Y-58077741D01*
X213076000Y-57900259D01*
X213110624Y-57726188D01*
X213178544Y-57562216D01*
X213277147Y-57414646D01*
X213402646Y-57289147D01*
X213550216Y-57190544D01*
X213714188Y-57122624D01*
X213863488Y-57092927D01*
X213888258Y-57088000D01*
X214065742Y-57088000D01*
X214090512Y-57092927D01*
G37*
G36*
X102488239Y-51167467D02*
G01*
X102802282Y-51229934D01*
X103393926Y-51475001D01*
X103926392Y-51830784D01*
X104379216Y-52283608D01*
X104734999Y-52816074D01*
X104980066Y-53407718D01*
X104980066Y-53407719D01*
X105105000Y-54035803D01*
X105105000Y-54676197D01*
X105065526Y-54874646D01*
X104980066Y-55304282D01*
X104734999Y-55895926D01*
X104379216Y-56428392D01*
X103926392Y-56881216D01*
X103393926Y-57236999D01*
X102802282Y-57482066D01*
X102488239Y-57544533D01*
X102174197Y-57607000D01*
X101533803Y-57607000D01*
X101219761Y-57544533D01*
X100905718Y-57482066D01*
X100314074Y-57236999D01*
X99781608Y-56881216D01*
X99328784Y-56428392D01*
X98973001Y-55895926D01*
X98727934Y-55304282D01*
X98642474Y-54874646D01*
X98603000Y-54676197D01*
X98603000Y-54035803D01*
X98727934Y-53407719D01*
X98727934Y-53407718D01*
X98973001Y-52816074D01*
X99328784Y-52283608D01*
X99781608Y-51830784D01*
X100314074Y-51475001D01*
X100905718Y-51229934D01*
X101219761Y-51167467D01*
X101533803Y-51105000D01*
X102174197Y-51105000D01*
X102488239Y-51167467D01*
G37*
G36*
X184022239Y-51167467D02*
G01*
X184336282Y-51229934D01*
X184927926Y-51475001D01*
X185460392Y-51830784D01*
X185913216Y-52283608D01*
X186268999Y-52816074D01*
X186514066Y-53407718D01*
X186514066Y-53407719D01*
X186639000Y-54035803D01*
X186639000Y-54676197D01*
X186599526Y-54874646D01*
X186514066Y-55304282D01*
X186268999Y-55895926D01*
X185913216Y-56428392D01*
X185460392Y-56881216D01*
X184927926Y-57236999D01*
X184336282Y-57482066D01*
X184022239Y-57544533D01*
X183708197Y-57607000D01*
X183067803Y-57607000D01*
X182753761Y-57544533D01*
X182439718Y-57482066D01*
X181848074Y-57236999D01*
X181315608Y-56881216D01*
X180862784Y-56428392D01*
X180507001Y-55895926D01*
X180261934Y-55304282D01*
X180176474Y-54874646D01*
X180137000Y-54676197D01*
X180137000Y-54035803D01*
X180261934Y-53407719D01*
X180261934Y-53407718D01*
X180507001Y-52816074D01*
X180862784Y-52283608D01*
X181315608Y-51830784D01*
X181848074Y-51475001D01*
X182439718Y-51229934D01*
X182753761Y-51167467D01*
X183067803Y-51105000D01*
X183708197Y-51105000D01*
X184022239Y-51167467D01*
G37*
G36*
X73773512Y-55491927D02*
G01*
X73922812Y-55521624D01*
X74086784Y-55589544D01*
X74234354Y-55688147D01*
X74359853Y-55813646D01*
X74458456Y-55961216D01*
X74526376Y-56125188D01*
X74561000Y-56299259D01*
X74561000Y-56476741D01*
X74526376Y-56650812D01*
X74458456Y-56814784D01*
X74359853Y-56962354D01*
X74234354Y-57087853D01*
X74086784Y-57186456D01*
X73922812Y-57254376D01*
X73773512Y-57284073D01*
X73748742Y-57289000D01*
X73571258Y-57289000D01*
X73546488Y-57284073D01*
X73397188Y-57254376D01*
X73233216Y-57186456D01*
X73085646Y-57087853D01*
X72960147Y-56962354D01*
X72861544Y-56814784D01*
X72793624Y-56650812D01*
X72759000Y-56476741D01*
X72759000Y-56299259D01*
X72793624Y-56125188D01*
X72861544Y-55961216D01*
X72960147Y-55813646D01*
X73085646Y-55688147D01*
X73233216Y-55589544D01*
X73397188Y-55521624D01*
X73546488Y-55491927D01*
X73571258Y-55487000D01*
X73748742Y-55487000D01*
X73773512Y-55491927D01*
G37*
G36*
X214090512Y-54552927D02*
G01*
X214239812Y-54582624D01*
X214403784Y-54650544D01*
X214551354Y-54749147D01*
X214676853Y-54874646D01*
X214775456Y-55022216D01*
X214843376Y-55186188D01*
X214878000Y-55360259D01*
X214878000Y-55537741D01*
X214843376Y-55711812D01*
X214775456Y-55875784D01*
X214676853Y-56023354D01*
X214551354Y-56148853D01*
X214403784Y-56247456D01*
X214239812Y-56315376D01*
X214090512Y-56345073D01*
X214065742Y-56350000D01*
X213888258Y-56350000D01*
X213863488Y-56345073D01*
X213714188Y-56315376D01*
X213550216Y-56247456D01*
X213402646Y-56148853D01*
X213277147Y-56023354D01*
X213178544Y-55875784D01*
X213110624Y-55711812D01*
X213076000Y-55537741D01*
X213076000Y-55360259D01*
X213110624Y-55186188D01*
X213178544Y-55022216D01*
X213277147Y-54874646D01*
X213402646Y-54749147D01*
X213550216Y-54650544D01*
X213714188Y-54582624D01*
X213863488Y-54552927D01*
X213888258Y-54548000D01*
X214065742Y-54548000D01*
X214090512Y-54552927D01*
G37*
G36*
X198812564Y-52986389D02*
G01*
X198986933Y-53058615D01*
X199003835Y-53065616D01*
X199175973Y-53180635D01*
X199322365Y-53327027D01*
X199426819Y-53483353D01*
X199437385Y-53499167D01*
X199516611Y-53690436D01*
X199557000Y-53893484D01*
X199557000Y-54100516D01*
X199516611Y-54303564D01*
X199440401Y-54487552D01*
X199437384Y-54494835D01*
X199322365Y-54666973D01*
X199175973Y-54813365D01*
X199003835Y-54928384D01*
X199003834Y-54928385D01*
X199003833Y-54928385D01*
X198812564Y-55007611D01*
X198609516Y-55048000D01*
X198402484Y-55048000D01*
X198199436Y-55007611D01*
X198008167Y-54928385D01*
X198008166Y-54928385D01*
X198008165Y-54928384D01*
X197836027Y-54813365D01*
X197689635Y-54666973D01*
X197574616Y-54494835D01*
X197571599Y-54487552D01*
X197495389Y-54303564D01*
X197455000Y-54100516D01*
X197455000Y-53893484D01*
X197495389Y-53690436D01*
X197574615Y-53499167D01*
X197585182Y-53483353D01*
X197689635Y-53327027D01*
X197836027Y-53180635D01*
X198008165Y-53065616D01*
X198025067Y-53058615D01*
X198199436Y-52986389D01*
X198402484Y-52946000D01*
X198609516Y-52946000D01*
X198812564Y-52986389D01*
G37*
G36*
X192312564Y-52986389D02*
G01*
X192486933Y-53058615D01*
X192503835Y-53065616D01*
X192675973Y-53180635D01*
X192822365Y-53327027D01*
X192926819Y-53483353D01*
X192937385Y-53499167D01*
X193016611Y-53690436D01*
X193057000Y-53893484D01*
X193057000Y-54100516D01*
X193016611Y-54303564D01*
X192940401Y-54487552D01*
X192937384Y-54494835D01*
X192822365Y-54666973D01*
X192675973Y-54813365D01*
X192503835Y-54928384D01*
X192503834Y-54928385D01*
X192503833Y-54928385D01*
X192312564Y-55007611D01*
X192109516Y-55048000D01*
X191902484Y-55048000D01*
X191699436Y-55007611D01*
X191508167Y-54928385D01*
X191508166Y-54928385D01*
X191508165Y-54928384D01*
X191336027Y-54813365D01*
X191189635Y-54666973D01*
X191074616Y-54494835D01*
X191071599Y-54487552D01*
X190995389Y-54303564D01*
X190955000Y-54100516D01*
X190955000Y-53893484D01*
X190995389Y-53690436D01*
X191074615Y-53499167D01*
X191085182Y-53483353D01*
X191189635Y-53327027D01*
X191336027Y-53180635D01*
X191508165Y-53065616D01*
X191525067Y-53058615D01*
X191699436Y-52986389D01*
X191902484Y-52946000D01*
X192109516Y-52946000D01*
X192312564Y-52986389D01*
G37*
G36*
X73773512Y-52951927D02*
G01*
X73922812Y-52981624D01*
X74086784Y-53049544D01*
X74234354Y-53148147D01*
X74359853Y-53273646D01*
X74458456Y-53421216D01*
X74526376Y-53585188D01*
X74561000Y-53759259D01*
X74561000Y-53936741D01*
X74526376Y-54110812D01*
X74458456Y-54274784D01*
X74359853Y-54422354D01*
X74234354Y-54547853D01*
X74086784Y-54646456D01*
X73922812Y-54714376D01*
X73773512Y-54744073D01*
X73748742Y-54749000D01*
X73571258Y-54749000D01*
X73546488Y-54744073D01*
X73397188Y-54714376D01*
X73233216Y-54646456D01*
X73085646Y-54547853D01*
X72960147Y-54422354D01*
X72861544Y-54274784D01*
X72793624Y-54110812D01*
X72759000Y-53936741D01*
X72759000Y-53759259D01*
X72793624Y-53585188D01*
X72861544Y-53421216D01*
X72960147Y-53273646D01*
X73085646Y-53148147D01*
X73233216Y-53049544D01*
X73397188Y-52981624D01*
X73546488Y-52951927D01*
X73571258Y-52947000D01*
X73748742Y-52947000D01*
X73773512Y-52951927D01*
G37*
G36*
X214090512Y-52012927D02*
G01*
X214239812Y-52042624D01*
X214403784Y-52110544D01*
X214551354Y-52209147D01*
X214676853Y-52334646D01*
X214775456Y-52482216D01*
X214843376Y-52646188D01*
X214878000Y-52820259D01*
X214878000Y-52997741D01*
X214843376Y-53171812D01*
X214775456Y-53335784D01*
X214676853Y-53483354D01*
X214551354Y-53608853D01*
X214403784Y-53707456D01*
X214239812Y-53775376D01*
X214090512Y-53805073D01*
X214065742Y-53810000D01*
X213888258Y-53810000D01*
X213863488Y-53805073D01*
X213714188Y-53775376D01*
X213550216Y-53707456D01*
X213402646Y-53608853D01*
X213277147Y-53483354D01*
X213178544Y-53335784D01*
X213110624Y-53171812D01*
X213076000Y-52997741D01*
X213076000Y-52820259D01*
X213110624Y-52646188D01*
X213178544Y-52482216D01*
X213277147Y-52334646D01*
X213402646Y-52209147D01*
X213550216Y-52110544D01*
X213714188Y-52042624D01*
X213863488Y-52012927D01*
X213888258Y-52008000D01*
X214065742Y-52008000D01*
X214090512Y-52012927D01*
G37*
G36*
X73773512Y-50411927D02*
G01*
X73922812Y-50441624D01*
X74086784Y-50509544D01*
X74234354Y-50608147D01*
X74359853Y-50733646D01*
X74458456Y-50881216D01*
X74526376Y-51045188D01*
X74561000Y-51219259D01*
X74561000Y-51396741D01*
X74526376Y-51570812D01*
X74458456Y-51734784D01*
X74359853Y-51882354D01*
X74234354Y-52007853D01*
X74086784Y-52106456D01*
X73922812Y-52174376D01*
X73773512Y-52204073D01*
X73748742Y-52209000D01*
X73571258Y-52209000D01*
X73546488Y-52204073D01*
X73397188Y-52174376D01*
X73233216Y-52106456D01*
X73085646Y-52007853D01*
X72960147Y-51882354D01*
X72861544Y-51734784D01*
X72793624Y-51570812D01*
X72759000Y-51396741D01*
X72759000Y-51219259D01*
X72793624Y-51045188D01*
X72861544Y-50881216D01*
X72960147Y-50733646D01*
X73085646Y-50608147D01*
X73233216Y-50509544D01*
X73397188Y-50441624D01*
X73546488Y-50411927D01*
X73571258Y-50407000D01*
X73748742Y-50407000D01*
X73773512Y-50411927D01*
G37*
G36*
X214878000Y-51270000D02*
G01*
X213076000Y-51270000D01*
X213076000Y-49468000D01*
X214878000Y-49468000D01*
X214878000Y-51270000D01*
G37*
G36*
X197388585Y-47450802D02*
G01*
X197538410Y-47480604D01*
X197820674Y-47597521D01*
X198074705Y-47767259D01*
X198290741Y-47983295D01*
X198460479Y-48237326D01*
X198577396Y-48519590D01*
X198637000Y-48819240D01*
X198637000Y-49124760D01*
X198577396Y-49424410D01*
X198460479Y-49706674D01*
X198290741Y-49960705D01*
X198074705Y-50176741D01*
X197820674Y-50346479D01*
X197538410Y-50463396D01*
X197388585Y-50493198D01*
X197238761Y-50523000D01*
X196933239Y-50523000D01*
X196783415Y-50493198D01*
X196633590Y-50463396D01*
X196351326Y-50346479D01*
X196097295Y-50176741D01*
X195881259Y-49960705D01*
X195711521Y-49706674D01*
X195594604Y-49424410D01*
X195535000Y-49124760D01*
X195535000Y-48819240D01*
X195594604Y-48519590D01*
X195711521Y-48237326D01*
X195881259Y-47983295D01*
X196097295Y-47767259D01*
X196351326Y-47597521D01*
X196633590Y-47480604D01*
X196783415Y-47450802D01*
X196933239Y-47421000D01*
X197238761Y-47421000D01*
X197388585Y-47450802D01*
G37*
G36*
X198637000Y-45443000D02*
G01*
X195535000Y-45443000D01*
X195535000Y-42341000D01*
X198637000Y-42341000D01*
X198637000Y-45443000D01*
G37*
G36*
X203803512Y-26739927D02*
G01*
X203952812Y-26769624D01*
X204116784Y-26837544D01*
X204264354Y-26936147D01*
X204389853Y-27061646D01*
X204488456Y-27209216D01*
X204556376Y-27373188D01*
X204591000Y-27547259D01*
X204591000Y-27724741D01*
X204556376Y-27898812D01*
X204488456Y-28062784D01*
X204389853Y-28210354D01*
X204264354Y-28335853D01*
X204116784Y-28434456D01*
X203952812Y-28502376D01*
X203803512Y-28532073D01*
X203778742Y-28537000D01*
X203601258Y-28537000D01*
X203576488Y-28532073D01*
X203427188Y-28502376D01*
X203263216Y-28434456D01*
X203115646Y-28335853D01*
X202990147Y-28210354D01*
X202891544Y-28062784D01*
X202823624Y-27898812D01*
X202789000Y-27724741D01*
X202789000Y-27547259D01*
X202823624Y-27373188D01*
X202891544Y-27209216D01*
X202990147Y-27061646D01*
X203115646Y-26936147D01*
X203263216Y-26837544D01*
X203427188Y-26769624D01*
X203576488Y-26739927D01*
X203601258Y-26735000D01*
X203778742Y-26735000D01*
X203803512Y-26739927D01*
G37*
G36*
X206343512Y-26739927D02*
G01*
X206492812Y-26769624D01*
X206656784Y-26837544D01*
X206804354Y-26936147D01*
X206929853Y-27061646D01*
X207028456Y-27209216D01*
X207096376Y-27373188D01*
X207131000Y-27547259D01*
X207131000Y-27724741D01*
X207096376Y-27898812D01*
X207028456Y-28062784D01*
X206929853Y-28210354D01*
X206804354Y-28335853D01*
X206656784Y-28434456D01*
X206492812Y-28502376D01*
X206343512Y-28532073D01*
X206318742Y-28537000D01*
X206141258Y-28537000D01*
X206116488Y-28532073D01*
X205967188Y-28502376D01*
X205803216Y-28434456D01*
X205655646Y-28335853D01*
X205530147Y-28210354D01*
X205431544Y-28062784D01*
X205363624Y-27898812D01*
X205329000Y-27724741D01*
X205329000Y-27547259D01*
X205363624Y-27373188D01*
X205431544Y-27209216D01*
X205530147Y-27061646D01*
X205655646Y-26936147D01*
X205803216Y-26837544D01*
X205967188Y-26769624D01*
X206116488Y-26739927D01*
X206141258Y-26735000D01*
X206318742Y-26735000D01*
X206343512Y-26739927D01*
G37*
G36*
X209671000Y-28537000D02*
G01*
X207869000Y-28537000D01*
X207869000Y-26735000D01*
X209671000Y-26735000D01*
X209671000Y-28537000D01*
G37*
G36*
X201263512Y-26739927D02*
G01*
X201412812Y-26769624D01*
X201576784Y-26837544D01*
X201724354Y-26936147D01*
X201849853Y-27061646D01*
X201948456Y-27209216D01*
X202016376Y-27373188D01*
X202051000Y-27547259D01*
X202051000Y-27724741D01*
X202016376Y-27898812D01*
X201948456Y-28062784D01*
X201849853Y-28210354D01*
X201724354Y-28335853D01*
X201576784Y-28434456D01*
X201412812Y-28502376D01*
X201263512Y-28532073D01*
X201238742Y-28537000D01*
X201061258Y-28537000D01*
X201036488Y-28532073D01*
X200887188Y-28502376D01*
X200723216Y-28434456D01*
X200575646Y-28335853D01*
X200450147Y-28210354D01*
X200351544Y-28062784D01*
X200283624Y-27898812D01*
X200249000Y-27724741D01*
X200249000Y-27547259D01*
X200283624Y-27373188D01*
X200351544Y-27209216D01*
X200450147Y-27061646D01*
X200575646Y-26936147D01*
X200723216Y-26837544D01*
X200887188Y-26769624D01*
X201036488Y-26739927D01*
X201061258Y-26735000D01*
X201238742Y-26735000D01*
X201263512Y-26739927D01*
G37*
M02*
