G04 #@! TF.GenerationSoftware,KiCad,Pcbnew,(5.1.5-0-10_14)*
G04 #@! TF.CreationDate,2020-01-01T17:52:45+01:00*
G04 #@! TF.ProjectId,ErnoCCC,45726e6f-4343-4432-9e6b-696361645f70,rev?*
G04 #@! TF.SameCoordinates,Original*
G04 #@! TF.FileFunction,Soldermask,Bot*
G04 #@! TF.FilePolarity,Negative*
%FSLAX46Y46*%
G04 Gerber Fmt 4.6, Leading zero omitted, Abs format (unit mm)*
G04 Created by KiCad (PCBNEW (5.1.5-0-10_14)) date 2020-01-01 17:52:45*
%MOMM*%
%LPD*%
G04 APERTURE LIST*
%ADD10C,0.050000*%
G04 APERTURE END LIST*
D10*
G36*
X219994585Y-112016802D02*
G01*
X220144410Y-112046604D01*
X220426674Y-112163521D01*
X220680705Y-112333259D01*
X220896741Y-112549295D01*
X221066479Y-112803326D01*
X221183396Y-113085590D01*
X221183396Y-113085591D01*
X221243000Y-113385239D01*
X221243000Y-113690761D01*
X221228758Y-113762358D01*
X221183396Y-113990410D01*
X221066479Y-114272674D01*
X220896741Y-114526705D01*
X220680705Y-114742741D01*
X220426674Y-114912479D01*
X220144410Y-115029396D01*
X219994585Y-115059198D01*
X219844761Y-115089000D01*
X219539239Y-115089000D01*
X219389415Y-115059198D01*
X219239590Y-115029396D01*
X218957326Y-114912479D01*
X218703295Y-114742741D01*
X218487259Y-114526705D01*
X218317521Y-114272674D01*
X218200604Y-113990410D01*
X218155242Y-113762358D01*
X218141000Y-113690761D01*
X218141000Y-113385239D01*
X218200604Y-113085591D01*
X218200604Y-113085590D01*
X218317521Y-112803326D01*
X218487259Y-112549295D01*
X218703295Y-112333259D01*
X218957326Y-112163521D01*
X219239590Y-112046604D01*
X219389415Y-112016802D01*
X219539239Y-111987000D01*
X219844761Y-111987000D01*
X219994585Y-112016802D01*
G37*
G36*
X216163000Y-115089000D02*
G01*
X213061000Y-115089000D01*
X213061000Y-111987000D01*
X216163000Y-111987000D01*
X216163000Y-115089000D01*
G37*
G36*
X159981642Y-113225781D02*
G01*
X160127414Y-113286162D01*
X160127416Y-113286163D01*
X160258608Y-113373822D01*
X160370178Y-113485392D01*
X160457837Y-113616584D01*
X160457838Y-113616586D01*
X160518219Y-113762358D01*
X160549000Y-113917107D01*
X160549000Y-114074893D01*
X160518219Y-114229642D01*
X160500395Y-114272672D01*
X160457837Y-114375416D01*
X160370178Y-114506608D01*
X160258608Y-114618178D01*
X160127416Y-114705837D01*
X160127415Y-114705838D01*
X160127414Y-114705838D01*
X159981642Y-114766219D01*
X159826893Y-114797000D01*
X159669107Y-114797000D01*
X159514358Y-114766219D01*
X159368586Y-114705838D01*
X159368585Y-114705838D01*
X159368584Y-114705837D01*
X159237392Y-114618178D01*
X159125822Y-114506608D01*
X159038163Y-114375416D01*
X158995605Y-114272672D01*
X158977781Y-114229642D01*
X158947000Y-114074893D01*
X158947000Y-113917107D01*
X158977781Y-113762358D01*
X159038162Y-113616586D01*
X159038163Y-113616584D01*
X159125822Y-113485392D01*
X159237392Y-113373822D01*
X159368584Y-113286163D01*
X159368586Y-113286162D01*
X159514358Y-113225781D01*
X159669107Y-113195000D01*
X159826893Y-113195000D01*
X159981642Y-113225781D01*
G37*
G36*
X153377642Y-113225781D02*
G01*
X153523414Y-113286162D01*
X153523416Y-113286163D01*
X153654608Y-113373822D01*
X153766178Y-113485392D01*
X153853837Y-113616584D01*
X153853838Y-113616586D01*
X153914219Y-113762358D01*
X153945000Y-113917107D01*
X153945000Y-114074893D01*
X153914219Y-114229642D01*
X153896395Y-114272672D01*
X153853837Y-114375416D01*
X153766178Y-114506608D01*
X153654608Y-114618178D01*
X153523416Y-114705837D01*
X153523415Y-114705838D01*
X153523414Y-114705838D01*
X153377642Y-114766219D01*
X153222893Y-114797000D01*
X153065107Y-114797000D01*
X152910358Y-114766219D01*
X152764586Y-114705838D01*
X152764585Y-114705838D01*
X152764584Y-114705837D01*
X152633392Y-114618178D01*
X152521822Y-114506608D01*
X152434163Y-114375416D01*
X152391605Y-114272672D01*
X152373781Y-114229642D01*
X152343000Y-114074893D01*
X152343000Y-113917107D01*
X152373781Y-113762358D01*
X152434162Y-113616586D01*
X152434163Y-113616584D01*
X152521822Y-113485392D01*
X152633392Y-113373822D01*
X152764584Y-113286163D01*
X152764586Y-113286162D01*
X152910358Y-113225781D01*
X153065107Y-113195000D01*
X153222893Y-113195000D01*
X153377642Y-113225781D01*
G37*
G36*
X147281642Y-113225781D02*
G01*
X147427414Y-113286162D01*
X147427416Y-113286163D01*
X147558608Y-113373822D01*
X147670178Y-113485392D01*
X147757837Y-113616584D01*
X147757838Y-113616586D01*
X147818219Y-113762358D01*
X147849000Y-113917107D01*
X147849000Y-114074893D01*
X147818219Y-114229642D01*
X147800395Y-114272672D01*
X147757837Y-114375416D01*
X147670178Y-114506608D01*
X147558608Y-114618178D01*
X147427416Y-114705837D01*
X147427415Y-114705838D01*
X147427414Y-114705838D01*
X147281642Y-114766219D01*
X147126893Y-114797000D01*
X146969107Y-114797000D01*
X146814358Y-114766219D01*
X146668586Y-114705838D01*
X146668585Y-114705838D01*
X146668584Y-114705837D01*
X146537392Y-114618178D01*
X146425822Y-114506608D01*
X146338163Y-114375416D01*
X146295605Y-114272672D01*
X146277781Y-114229642D01*
X146247000Y-114074893D01*
X146247000Y-113917107D01*
X146277781Y-113762358D01*
X146338162Y-113616586D01*
X146338163Y-113616584D01*
X146425822Y-113485392D01*
X146537392Y-113373822D01*
X146668584Y-113286163D01*
X146668586Y-113286162D01*
X146814358Y-113225781D01*
X146969107Y-113195000D01*
X147126893Y-113195000D01*
X147281642Y-113225781D01*
G37*
G36*
X140677642Y-113225781D02*
G01*
X140823414Y-113286162D01*
X140823416Y-113286163D01*
X140954608Y-113373822D01*
X141066178Y-113485392D01*
X141153837Y-113616584D01*
X141153838Y-113616586D01*
X141214219Y-113762358D01*
X141245000Y-113917107D01*
X141245000Y-114074893D01*
X141214219Y-114229642D01*
X141196395Y-114272672D01*
X141153837Y-114375416D01*
X141066178Y-114506608D01*
X140954608Y-114618178D01*
X140823416Y-114705837D01*
X140823415Y-114705838D01*
X140823414Y-114705838D01*
X140677642Y-114766219D01*
X140522893Y-114797000D01*
X140365107Y-114797000D01*
X140210358Y-114766219D01*
X140064586Y-114705838D01*
X140064585Y-114705838D01*
X140064584Y-114705837D01*
X139933392Y-114618178D01*
X139821822Y-114506608D01*
X139734163Y-114375416D01*
X139691605Y-114272672D01*
X139673781Y-114229642D01*
X139643000Y-114074893D01*
X139643000Y-113917107D01*
X139673781Y-113762358D01*
X139734162Y-113616586D01*
X139734163Y-113616584D01*
X139821822Y-113485392D01*
X139933392Y-113373822D01*
X140064584Y-113286163D01*
X140064586Y-113286162D01*
X140210358Y-113225781D01*
X140365107Y-113195000D01*
X140522893Y-113195000D01*
X140677642Y-113225781D01*
G37*
G36*
X134581642Y-113225781D02*
G01*
X134727414Y-113286162D01*
X134727416Y-113286163D01*
X134858608Y-113373822D01*
X134970178Y-113485392D01*
X135057837Y-113616584D01*
X135057838Y-113616586D01*
X135118219Y-113762358D01*
X135149000Y-113917107D01*
X135149000Y-114074893D01*
X135118219Y-114229642D01*
X135100395Y-114272672D01*
X135057837Y-114375416D01*
X134970178Y-114506608D01*
X134858608Y-114618178D01*
X134727416Y-114705837D01*
X134727415Y-114705838D01*
X134727414Y-114705838D01*
X134581642Y-114766219D01*
X134426893Y-114797000D01*
X134269107Y-114797000D01*
X134114358Y-114766219D01*
X133968586Y-114705838D01*
X133968585Y-114705838D01*
X133968584Y-114705837D01*
X133837392Y-114618178D01*
X133725822Y-114506608D01*
X133638163Y-114375416D01*
X133595605Y-114272672D01*
X133577781Y-114229642D01*
X133547000Y-114074893D01*
X133547000Y-113917107D01*
X133577781Y-113762358D01*
X133638162Y-113616586D01*
X133638163Y-113616584D01*
X133725822Y-113485392D01*
X133837392Y-113373822D01*
X133968584Y-113286163D01*
X133968586Y-113286162D01*
X134114358Y-113225781D01*
X134269107Y-113195000D01*
X134426893Y-113195000D01*
X134581642Y-113225781D01*
G37*
G36*
X164941512Y-110305927D02*
G01*
X165090812Y-110335624D01*
X165254784Y-110403544D01*
X165402354Y-110502147D01*
X165527853Y-110627646D01*
X165626456Y-110775216D01*
X165694376Y-110939188D01*
X165729000Y-111113259D01*
X165729000Y-111290741D01*
X165694376Y-111464812D01*
X165626456Y-111628784D01*
X165527853Y-111776354D01*
X165402354Y-111901853D01*
X165254784Y-112000456D01*
X165090812Y-112068376D01*
X164941512Y-112098073D01*
X164916742Y-112103000D01*
X164739258Y-112103000D01*
X164714488Y-112098073D01*
X164565188Y-112068376D01*
X164401216Y-112000456D01*
X164253646Y-111901853D01*
X164128147Y-111776354D01*
X164029544Y-111628784D01*
X163961624Y-111464812D01*
X163927000Y-111290741D01*
X163927000Y-111113259D01*
X163961624Y-110939188D01*
X164029544Y-110775216D01*
X164128147Y-110627646D01*
X164253646Y-110502147D01*
X164401216Y-110403544D01*
X164565188Y-110335624D01*
X164714488Y-110305927D01*
X164739258Y-110301000D01*
X164916742Y-110301000D01*
X164941512Y-110305927D01*
G37*
G36*
X118989000Y-110508007D02*
G01*
X118991402Y-110532393D01*
X118998515Y-110555842D01*
X119010066Y-110577453D01*
X119025611Y-110596395D01*
X119044553Y-110611940D01*
X119066164Y-110623491D01*
X119089613Y-110630604D01*
X119113999Y-110633006D01*
X119138385Y-110630604D01*
X119161834Y-110623491D01*
X119183445Y-110611940D01*
X119202387Y-110596395D01*
X119217932Y-110577453D01*
X119229483Y-110555842D01*
X119236596Y-110532393D01*
X119271232Y-110358267D01*
X119280611Y-110335625D01*
X119357997Y-110148797D01*
X119483960Y-109960280D01*
X119644280Y-109799960D01*
X119832797Y-109673997D01*
X120042266Y-109587232D01*
X120164089Y-109563000D01*
X120264635Y-109543000D01*
X120491365Y-109543000D01*
X120591911Y-109563000D01*
X120713734Y-109587232D01*
X120923203Y-109673997D01*
X121111720Y-109799960D01*
X121272040Y-109960280D01*
X121398003Y-110148797D01*
X121475390Y-110335625D01*
X121484768Y-110358267D01*
X121525403Y-110562552D01*
X121532516Y-110586001D01*
X121544067Y-110607612D01*
X121559612Y-110626554D01*
X121578554Y-110642099D01*
X121600165Y-110653650D01*
X121623614Y-110660763D01*
X121648000Y-110663165D01*
X121672386Y-110660763D01*
X121695835Y-110653650D01*
X121717446Y-110642099D01*
X121736388Y-110626554D01*
X121751933Y-110607612D01*
X121763484Y-110586001D01*
X121770597Y-110562552D01*
X121811232Y-110358267D01*
X121820611Y-110335625D01*
X121897997Y-110148797D01*
X122023960Y-109960280D01*
X122184280Y-109799960D01*
X122372797Y-109673997D01*
X122582266Y-109587232D01*
X122704089Y-109563000D01*
X122804635Y-109543000D01*
X123031365Y-109543000D01*
X123131911Y-109563000D01*
X123253734Y-109587232D01*
X123463203Y-109673997D01*
X123651720Y-109799960D01*
X123812040Y-109960280D01*
X123938003Y-110148797D01*
X124015390Y-110335625D01*
X124024768Y-110358267D01*
X124065403Y-110562552D01*
X124072516Y-110586001D01*
X124084067Y-110607612D01*
X124099612Y-110626554D01*
X124118554Y-110642099D01*
X124140165Y-110653650D01*
X124163614Y-110660763D01*
X124188000Y-110663165D01*
X124212386Y-110660763D01*
X124235835Y-110653650D01*
X124257446Y-110642099D01*
X124276388Y-110626554D01*
X124291933Y-110607612D01*
X124303484Y-110586001D01*
X124310597Y-110562552D01*
X124351232Y-110358267D01*
X124360611Y-110335625D01*
X124437997Y-110148797D01*
X124563960Y-109960280D01*
X124724280Y-109799960D01*
X124912797Y-109673997D01*
X125122266Y-109587232D01*
X125244089Y-109563000D01*
X125344635Y-109543000D01*
X125571365Y-109543000D01*
X125671911Y-109563000D01*
X125793734Y-109587232D01*
X126003203Y-109673997D01*
X126191720Y-109799960D01*
X126352040Y-109960280D01*
X126478003Y-110148797D01*
X126555390Y-110335625D01*
X126564768Y-110358267D01*
X126605403Y-110562552D01*
X126612516Y-110586001D01*
X126624067Y-110607612D01*
X126639612Y-110626554D01*
X126658554Y-110642099D01*
X126680165Y-110653650D01*
X126703614Y-110660763D01*
X126728000Y-110663165D01*
X126752386Y-110660763D01*
X126775835Y-110653650D01*
X126797446Y-110642099D01*
X126816388Y-110626554D01*
X126831933Y-110607612D01*
X126843484Y-110586001D01*
X126850597Y-110562552D01*
X126891232Y-110358267D01*
X126900611Y-110335625D01*
X126977997Y-110148797D01*
X127103960Y-109960280D01*
X127264280Y-109799960D01*
X127452797Y-109673997D01*
X127662266Y-109587232D01*
X127784089Y-109563000D01*
X127884635Y-109543000D01*
X128111365Y-109543000D01*
X128211911Y-109563000D01*
X128333734Y-109587232D01*
X128543203Y-109673997D01*
X128731720Y-109799960D01*
X128892040Y-109960280D01*
X129018003Y-110148797D01*
X129104768Y-110358266D01*
X129149000Y-110580636D01*
X129149000Y-110807364D01*
X129104768Y-111029734D01*
X129018003Y-111239203D01*
X128892040Y-111427720D01*
X128731720Y-111588040D01*
X128543203Y-111714003D01*
X128333734Y-111800768D01*
X128222549Y-111822884D01*
X128111365Y-111845000D01*
X127884635Y-111845000D01*
X127773451Y-111822884D01*
X127662266Y-111800768D01*
X127452797Y-111714003D01*
X127264280Y-111588040D01*
X127103960Y-111427720D01*
X126977997Y-111239203D01*
X126891232Y-111029734D01*
X126850597Y-110825448D01*
X126843484Y-110801999D01*
X126831933Y-110780388D01*
X126816388Y-110761446D01*
X126797446Y-110745901D01*
X126775835Y-110734350D01*
X126752386Y-110727237D01*
X126728000Y-110724835D01*
X126703614Y-110727237D01*
X126680165Y-110734350D01*
X126658554Y-110745901D01*
X126639612Y-110761446D01*
X126624067Y-110780388D01*
X126612516Y-110801999D01*
X126605403Y-110825448D01*
X126564768Y-111029734D01*
X126478003Y-111239203D01*
X126352040Y-111427720D01*
X126191720Y-111588040D01*
X126003203Y-111714003D01*
X125793734Y-111800768D01*
X125682549Y-111822884D01*
X125571365Y-111845000D01*
X125344635Y-111845000D01*
X125233451Y-111822884D01*
X125122266Y-111800768D01*
X124912797Y-111714003D01*
X124724280Y-111588040D01*
X124563960Y-111427720D01*
X124437997Y-111239203D01*
X124351232Y-111029734D01*
X124310597Y-110825448D01*
X124303484Y-110801999D01*
X124291933Y-110780388D01*
X124276388Y-110761446D01*
X124257446Y-110745901D01*
X124235835Y-110734350D01*
X124212386Y-110727237D01*
X124188000Y-110724835D01*
X124163614Y-110727237D01*
X124140165Y-110734350D01*
X124118554Y-110745901D01*
X124099612Y-110761446D01*
X124084067Y-110780388D01*
X124072516Y-110801999D01*
X124065403Y-110825448D01*
X124024768Y-111029734D01*
X123938003Y-111239203D01*
X123812040Y-111427720D01*
X123651720Y-111588040D01*
X123463203Y-111714003D01*
X123253734Y-111800768D01*
X123142549Y-111822884D01*
X123031365Y-111845000D01*
X122804635Y-111845000D01*
X122693451Y-111822884D01*
X122582266Y-111800768D01*
X122372797Y-111714003D01*
X122184280Y-111588040D01*
X122023960Y-111427720D01*
X121897997Y-111239203D01*
X121811232Y-111029734D01*
X121770597Y-110825448D01*
X121763484Y-110801999D01*
X121751933Y-110780388D01*
X121736388Y-110761446D01*
X121717446Y-110745901D01*
X121695835Y-110734350D01*
X121672386Y-110727237D01*
X121648000Y-110724835D01*
X121623614Y-110727237D01*
X121600165Y-110734350D01*
X121578554Y-110745901D01*
X121559612Y-110761446D01*
X121544067Y-110780388D01*
X121532516Y-110801999D01*
X121525403Y-110825448D01*
X121484768Y-111029734D01*
X121398003Y-111239203D01*
X121272040Y-111427720D01*
X121111720Y-111588040D01*
X120923203Y-111714003D01*
X120713734Y-111800768D01*
X120602549Y-111822884D01*
X120491365Y-111845000D01*
X120264635Y-111845000D01*
X120153451Y-111822884D01*
X120042266Y-111800768D01*
X119832797Y-111714003D01*
X119644280Y-111588040D01*
X119483960Y-111427720D01*
X119357997Y-111239203D01*
X119271232Y-111029734D01*
X119236596Y-110855607D01*
X119229483Y-110832158D01*
X119217932Y-110810547D01*
X119202387Y-110791605D01*
X119183445Y-110776060D01*
X119161834Y-110764509D01*
X119138385Y-110757396D01*
X119113999Y-110754994D01*
X119089613Y-110757396D01*
X119066164Y-110764509D01*
X119044553Y-110776060D01*
X119025611Y-110791605D01*
X119010066Y-110810547D01*
X118998515Y-110832158D01*
X118991402Y-110855607D01*
X118989000Y-110879993D01*
X118989000Y-111845000D01*
X116687000Y-111845000D01*
X116687000Y-109543000D01*
X118989000Y-109543000D01*
X118989000Y-110508007D01*
G37*
G36*
X164941512Y-107765927D02*
G01*
X165090812Y-107795624D01*
X165254784Y-107863544D01*
X165402354Y-107962147D01*
X165527853Y-108087646D01*
X165626456Y-108235216D01*
X165694376Y-108399188D01*
X165729000Y-108573259D01*
X165729000Y-108750741D01*
X165694376Y-108924812D01*
X165626456Y-109088784D01*
X165527853Y-109236354D01*
X165402354Y-109361853D01*
X165254784Y-109460456D01*
X165090812Y-109528376D01*
X164941512Y-109558073D01*
X164916742Y-109563000D01*
X164739258Y-109563000D01*
X164714488Y-109558073D01*
X164565188Y-109528376D01*
X164401216Y-109460456D01*
X164253646Y-109361853D01*
X164128147Y-109236354D01*
X164029544Y-109088784D01*
X163961624Y-108924812D01*
X163927000Y-108750741D01*
X163927000Y-108573259D01*
X163961624Y-108399188D01*
X164029544Y-108235216D01*
X164128147Y-108087646D01*
X164253646Y-107962147D01*
X164401216Y-107863544D01*
X164565188Y-107795624D01*
X164714488Y-107765927D01*
X164739258Y-107761000D01*
X164916742Y-107761000D01*
X164941512Y-107765927D01*
G37*
G36*
X159873589Y-107900876D02*
G01*
X159972893Y-107920629D01*
X160113206Y-107978748D01*
X160239484Y-108063125D01*
X160346875Y-108170516D01*
X160431252Y-108296794D01*
X160489371Y-108437107D01*
X160519000Y-108586063D01*
X160519000Y-108737937D01*
X160489371Y-108886893D01*
X160431252Y-109027206D01*
X160346875Y-109153484D01*
X160239484Y-109260875D01*
X160113206Y-109345252D01*
X159972893Y-109403371D01*
X159873589Y-109423124D01*
X159823938Y-109433000D01*
X159672062Y-109433000D01*
X159622411Y-109423124D01*
X159523107Y-109403371D01*
X159382794Y-109345252D01*
X159256516Y-109260875D01*
X159149125Y-109153484D01*
X159064748Y-109027206D01*
X159006629Y-108886893D01*
X158977000Y-108737937D01*
X158977000Y-108586063D01*
X159006629Y-108437107D01*
X159064748Y-108296794D01*
X159149125Y-108170516D01*
X159256516Y-108063125D01*
X159382794Y-107978748D01*
X159523107Y-107920629D01*
X159622411Y-107900876D01*
X159672062Y-107891000D01*
X159823938Y-107891000D01*
X159873589Y-107900876D01*
G37*
G36*
X153523589Y-107900876D02*
G01*
X153622893Y-107920629D01*
X153763206Y-107978748D01*
X153889484Y-108063125D01*
X153996875Y-108170516D01*
X154081252Y-108296794D01*
X154139371Y-108437107D01*
X154169000Y-108586063D01*
X154169000Y-108737937D01*
X154139371Y-108886893D01*
X154081252Y-109027206D01*
X153996875Y-109153484D01*
X153889484Y-109260875D01*
X153763206Y-109345252D01*
X153622893Y-109403371D01*
X153523589Y-109423124D01*
X153473938Y-109433000D01*
X153322062Y-109433000D01*
X153272411Y-109423124D01*
X153173107Y-109403371D01*
X153032794Y-109345252D01*
X152906516Y-109260875D01*
X152799125Y-109153484D01*
X152714748Y-109027206D01*
X152656629Y-108886893D01*
X152627000Y-108737937D01*
X152627000Y-108586063D01*
X152656629Y-108437107D01*
X152714748Y-108296794D01*
X152799125Y-108170516D01*
X152906516Y-108063125D01*
X153032794Y-107978748D01*
X153173107Y-107920629D01*
X153272411Y-107900876D01*
X153322062Y-107891000D01*
X153473938Y-107891000D01*
X153523589Y-107900876D01*
G37*
G36*
X134473589Y-107900876D02*
G01*
X134572893Y-107920629D01*
X134713206Y-107978748D01*
X134839484Y-108063125D01*
X134946875Y-108170516D01*
X135031252Y-108296794D01*
X135089371Y-108437107D01*
X135119000Y-108586063D01*
X135119000Y-108737937D01*
X135089371Y-108886893D01*
X135031252Y-109027206D01*
X134946875Y-109153484D01*
X134839484Y-109260875D01*
X134713206Y-109345252D01*
X134572893Y-109403371D01*
X134473589Y-109423124D01*
X134423938Y-109433000D01*
X134272062Y-109433000D01*
X134222411Y-109423124D01*
X134123107Y-109403371D01*
X133982794Y-109345252D01*
X133856516Y-109260875D01*
X133749125Y-109153484D01*
X133664748Y-109027206D01*
X133606629Y-108886893D01*
X133577000Y-108737937D01*
X133577000Y-108586063D01*
X133606629Y-108437107D01*
X133664748Y-108296794D01*
X133749125Y-108170516D01*
X133856516Y-108063125D01*
X133982794Y-107978748D01*
X134123107Y-107920629D01*
X134222411Y-107900876D01*
X134272062Y-107891000D01*
X134423938Y-107891000D01*
X134473589Y-107900876D01*
G37*
G36*
X140823589Y-107900876D02*
G01*
X140922893Y-107920629D01*
X141063206Y-107978748D01*
X141189484Y-108063125D01*
X141296875Y-108170516D01*
X141381252Y-108296794D01*
X141439371Y-108437107D01*
X141469000Y-108586063D01*
X141469000Y-108737937D01*
X141439371Y-108886893D01*
X141381252Y-109027206D01*
X141296875Y-109153484D01*
X141189484Y-109260875D01*
X141063206Y-109345252D01*
X140922893Y-109403371D01*
X140823589Y-109423124D01*
X140773938Y-109433000D01*
X140622062Y-109433000D01*
X140572411Y-109423124D01*
X140473107Y-109403371D01*
X140332794Y-109345252D01*
X140206516Y-109260875D01*
X140099125Y-109153484D01*
X140014748Y-109027206D01*
X139956629Y-108886893D01*
X139927000Y-108737937D01*
X139927000Y-108586063D01*
X139956629Y-108437107D01*
X140014748Y-108296794D01*
X140099125Y-108170516D01*
X140206516Y-108063125D01*
X140332794Y-107978748D01*
X140473107Y-107920629D01*
X140572411Y-107900876D01*
X140622062Y-107891000D01*
X140773938Y-107891000D01*
X140823589Y-107900876D01*
G37*
G36*
X147173589Y-107900876D02*
G01*
X147272893Y-107920629D01*
X147413206Y-107978748D01*
X147539484Y-108063125D01*
X147646875Y-108170516D01*
X147731252Y-108296794D01*
X147789371Y-108437107D01*
X147819000Y-108586063D01*
X147819000Y-108737937D01*
X147789371Y-108886893D01*
X147731252Y-109027206D01*
X147646875Y-109153484D01*
X147539484Y-109260875D01*
X147413206Y-109345252D01*
X147272893Y-109403371D01*
X147173589Y-109423124D01*
X147123938Y-109433000D01*
X146972062Y-109433000D01*
X146922411Y-109423124D01*
X146823107Y-109403371D01*
X146682794Y-109345252D01*
X146556516Y-109260875D01*
X146449125Y-109153484D01*
X146364748Y-109027206D01*
X146306629Y-108886893D01*
X146277000Y-108737937D01*
X146277000Y-108586063D01*
X146306629Y-108437107D01*
X146364748Y-108296794D01*
X146449125Y-108170516D01*
X146556516Y-108063125D01*
X146682794Y-107978748D01*
X146823107Y-107920629D01*
X146922411Y-107900876D01*
X146972062Y-107891000D01*
X147123938Y-107891000D01*
X147173589Y-107900876D01*
G37*
G36*
X165729000Y-107023000D02*
G01*
X163927000Y-107023000D01*
X163927000Y-105221000D01*
X165729000Y-105221000D01*
X165729000Y-107023000D01*
G37*
G36*
X134473589Y-105360876D02*
G01*
X134572893Y-105380629D01*
X134713206Y-105438748D01*
X134839484Y-105523125D01*
X134946875Y-105630516D01*
X135031252Y-105756794D01*
X135089371Y-105897107D01*
X135119000Y-106046063D01*
X135119000Y-106197937D01*
X135089371Y-106346893D01*
X135031252Y-106487206D01*
X134946875Y-106613484D01*
X134839484Y-106720875D01*
X134713206Y-106805252D01*
X134572893Y-106863371D01*
X134473589Y-106883124D01*
X134423938Y-106893000D01*
X134272062Y-106893000D01*
X134222411Y-106883124D01*
X134123107Y-106863371D01*
X133982794Y-106805252D01*
X133856516Y-106720875D01*
X133749125Y-106613484D01*
X133664748Y-106487206D01*
X133606629Y-106346893D01*
X133577000Y-106197937D01*
X133577000Y-106046063D01*
X133606629Y-105897107D01*
X133664748Y-105756794D01*
X133749125Y-105630516D01*
X133856516Y-105523125D01*
X133982794Y-105438748D01*
X134123107Y-105380629D01*
X134222411Y-105360876D01*
X134272062Y-105351000D01*
X134423938Y-105351000D01*
X134473589Y-105360876D01*
G37*
G36*
X140823589Y-105360876D02*
G01*
X140922893Y-105380629D01*
X141063206Y-105438748D01*
X141189484Y-105523125D01*
X141296875Y-105630516D01*
X141381252Y-105756794D01*
X141439371Y-105897107D01*
X141469000Y-106046063D01*
X141469000Y-106197937D01*
X141439371Y-106346893D01*
X141381252Y-106487206D01*
X141296875Y-106613484D01*
X141189484Y-106720875D01*
X141063206Y-106805252D01*
X140922893Y-106863371D01*
X140823589Y-106883124D01*
X140773938Y-106893000D01*
X140622062Y-106893000D01*
X140572411Y-106883124D01*
X140473107Y-106863371D01*
X140332794Y-106805252D01*
X140206516Y-106720875D01*
X140099125Y-106613484D01*
X140014748Y-106487206D01*
X139956629Y-106346893D01*
X139927000Y-106197937D01*
X139927000Y-106046063D01*
X139956629Y-105897107D01*
X140014748Y-105756794D01*
X140099125Y-105630516D01*
X140206516Y-105523125D01*
X140332794Y-105438748D01*
X140473107Y-105380629D01*
X140572411Y-105360876D01*
X140622062Y-105351000D01*
X140773938Y-105351000D01*
X140823589Y-105360876D01*
G37*
G36*
X147173589Y-105360876D02*
G01*
X147272893Y-105380629D01*
X147413206Y-105438748D01*
X147539484Y-105523125D01*
X147646875Y-105630516D01*
X147731252Y-105756794D01*
X147789371Y-105897107D01*
X147819000Y-106046063D01*
X147819000Y-106197937D01*
X147789371Y-106346893D01*
X147731252Y-106487206D01*
X147646875Y-106613484D01*
X147539484Y-106720875D01*
X147413206Y-106805252D01*
X147272893Y-106863371D01*
X147173589Y-106883124D01*
X147123938Y-106893000D01*
X146972062Y-106893000D01*
X146922411Y-106883124D01*
X146823107Y-106863371D01*
X146682794Y-106805252D01*
X146556516Y-106720875D01*
X146449125Y-106613484D01*
X146364748Y-106487206D01*
X146306629Y-106346893D01*
X146277000Y-106197937D01*
X146277000Y-106046063D01*
X146306629Y-105897107D01*
X146364748Y-105756794D01*
X146449125Y-105630516D01*
X146556516Y-105523125D01*
X146682794Y-105438748D01*
X146823107Y-105380629D01*
X146922411Y-105360876D01*
X146972062Y-105351000D01*
X147123938Y-105351000D01*
X147173589Y-105360876D01*
G37*
G36*
X153523589Y-105360876D02*
G01*
X153622893Y-105380629D01*
X153763206Y-105438748D01*
X153889484Y-105523125D01*
X153996875Y-105630516D01*
X154081252Y-105756794D01*
X154139371Y-105897107D01*
X154169000Y-106046063D01*
X154169000Y-106197937D01*
X154139371Y-106346893D01*
X154081252Y-106487206D01*
X153996875Y-106613484D01*
X153889484Y-106720875D01*
X153763206Y-106805252D01*
X153622893Y-106863371D01*
X153523589Y-106883124D01*
X153473938Y-106893000D01*
X153322062Y-106893000D01*
X153272411Y-106883124D01*
X153173107Y-106863371D01*
X153032794Y-106805252D01*
X152906516Y-106720875D01*
X152799125Y-106613484D01*
X152714748Y-106487206D01*
X152656629Y-106346893D01*
X152627000Y-106197937D01*
X152627000Y-106046063D01*
X152656629Y-105897107D01*
X152714748Y-105756794D01*
X152799125Y-105630516D01*
X152906516Y-105523125D01*
X153032794Y-105438748D01*
X153173107Y-105380629D01*
X153272411Y-105360876D01*
X153322062Y-105351000D01*
X153473938Y-105351000D01*
X153523589Y-105360876D01*
G37*
G36*
X159873589Y-105360876D02*
G01*
X159972893Y-105380629D01*
X160113206Y-105438748D01*
X160239484Y-105523125D01*
X160346875Y-105630516D01*
X160431252Y-105756794D01*
X160489371Y-105897107D01*
X160519000Y-106046063D01*
X160519000Y-106197937D01*
X160489371Y-106346893D01*
X160431252Y-106487206D01*
X160346875Y-106613484D01*
X160239484Y-106720875D01*
X160113206Y-106805252D01*
X159972893Y-106863371D01*
X159873589Y-106883124D01*
X159823938Y-106893000D01*
X159672062Y-106893000D01*
X159622411Y-106883124D01*
X159523107Y-106863371D01*
X159382794Y-106805252D01*
X159256516Y-106720875D01*
X159149125Y-106613484D01*
X159064748Y-106487206D01*
X159006629Y-106346893D01*
X158977000Y-106197937D01*
X158977000Y-106046063D01*
X159006629Y-105897107D01*
X159064748Y-105756794D01*
X159149125Y-105630516D01*
X159256516Y-105523125D01*
X159382794Y-105438748D01*
X159523107Y-105380629D01*
X159622411Y-105360876D01*
X159672062Y-105351000D01*
X159823938Y-105351000D01*
X159873589Y-105360876D01*
G37*
G36*
X213975256Y-101691298D02*
G01*
X214081579Y-101712447D01*
X214382042Y-101836903D01*
X214652451Y-102017585D01*
X214882415Y-102247549D01*
X215062642Y-102517277D01*
X215063098Y-102517960D01*
X215187553Y-102818422D01*
X215251000Y-103137389D01*
X215251000Y-103462611D01*
X215237058Y-103532700D01*
X215187553Y-103781579D01*
X215063097Y-104082042D01*
X214882415Y-104352451D01*
X214652451Y-104582415D01*
X214382042Y-104763097D01*
X214081579Y-104887553D01*
X213975256Y-104908702D01*
X213762611Y-104951000D01*
X213437389Y-104951000D01*
X213224744Y-104908702D01*
X213118421Y-104887553D01*
X212817958Y-104763097D01*
X212547549Y-104582415D01*
X212317585Y-104352451D01*
X212136903Y-104082042D01*
X212012447Y-103781579D01*
X211962942Y-103532700D01*
X211949000Y-103462611D01*
X211949000Y-103137389D01*
X212012447Y-102818422D01*
X212136902Y-102517960D01*
X212137358Y-102517277D01*
X212317585Y-102247549D01*
X212547549Y-102017585D01*
X212817958Y-101836903D01*
X213118421Y-101712447D01*
X213224744Y-101691298D01*
X213437389Y-101649000D01*
X213762611Y-101649000D01*
X213975256Y-101691298D01*
G37*
G36*
X153511245Y-102818421D02*
G01*
X153622893Y-102840629D01*
X153763206Y-102898748D01*
X153889484Y-102983125D01*
X153996875Y-103090516D01*
X154081252Y-103216794D01*
X154139371Y-103357107D01*
X154169000Y-103506063D01*
X154169000Y-103657937D01*
X154139371Y-103806893D01*
X154081252Y-103947206D01*
X153996875Y-104073484D01*
X153889484Y-104180875D01*
X153763206Y-104265252D01*
X153622893Y-104323371D01*
X153523589Y-104343124D01*
X153473938Y-104353000D01*
X153322062Y-104353000D01*
X153272411Y-104343124D01*
X153173107Y-104323371D01*
X153032794Y-104265252D01*
X152906516Y-104180875D01*
X152799125Y-104073484D01*
X152714748Y-103947206D01*
X152656629Y-103806893D01*
X152627000Y-103657937D01*
X152627000Y-103506063D01*
X152656629Y-103357107D01*
X152714748Y-103216794D01*
X152799125Y-103090516D01*
X152906516Y-102983125D01*
X153032794Y-102898748D01*
X153173107Y-102840629D01*
X153284755Y-102818421D01*
X153322062Y-102811000D01*
X153473938Y-102811000D01*
X153511245Y-102818421D01*
G37*
G36*
X147161245Y-102818421D02*
G01*
X147272893Y-102840629D01*
X147413206Y-102898748D01*
X147539484Y-102983125D01*
X147646875Y-103090516D01*
X147731252Y-103216794D01*
X147789371Y-103357107D01*
X147819000Y-103506063D01*
X147819000Y-103657937D01*
X147789371Y-103806893D01*
X147731252Y-103947206D01*
X147646875Y-104073484D01*
X147539484Y-104180875D01*
X147413206Y-104265252D01*
X147272893Y-104323371D01*
X147173589Y-104343124D01*
X147123938Y-104353000D01*
X146972062Y-104353000D01*
X146922411Y-104343124D01*
X146823107Y-104323371D01*
X146682794Y-104265252D01*
X146556516Y-104180875D01*
X146449125Y-104073484D01*
X146364748Y-103947206D01*
X146306629Y-103806893D01*
X146277000Y-103657937D01*
X146277000Y-103506063D01*
X146306629Y-103357107D01*
X146364748Y-103216794D01*
X146449125Y-103090516D01*
X146556516Y-102983125D01*
X146682794Y-102898748D01*
X146823107Y-102840629D01*
X146934755Y-102818421D01*
X146972062Y-102811000D01*
X147123938Y-102811000D01*
X147161245Y-102818421D01*
G37*
G36*
X140811245Y-102818421D02*
G01*
X140922893Y-102840629D01*
X141063206Y-102898748D01*
X141189484Y-102983125D01*
X141296875Y-103090516D01*
X141381252Y-103216794D01*
X141439371Y-103357107D01*
X141469000Y-103506063D01*
X141469000Y-103657937D01*
X141439371Y-103806893D01*
X141381252Y-103947206D01*
X141296875Y-104073484D01*
X141189484Y-104180875D01*
X141063206Y-104265252D01*
X140922893Y-104323371D01*
X140823589Y-104343124D01*
X140773938Y-104353000D01*
X140622062Y-104353000D01*
X140572411Y-104343124D01*
X140473107Y-104323371D01*
X140332794Y-104265252D01*
X140206516Y-104180875D01*
X140099125Y-104073484D01*
X140014748Y-103947206D01*
X139956629Y-103806893D01*
X139927000Y-103657937D01*
X139927000Y-103506063D01*
X139956629Y-103357107D01*
X140014748Y-103216794D01*
X140099125Y-103090516D01*
X140206516Y-102983125D01*
X140332794Y-102898748D01*
X140473107Y-102840629D01*
X140584755Y-102818421D01*
X140622062Y-102811000D01*
X140773938Y-102811000D01*
X140811245Y-102818421D01*
G37*
G36*
X134461245Y-102818421D02*
G01*
X134572893Y-102840629D01*
X134713206Y-102898748D01*
X134839484Y-102983125D01*
X134946875Y-103090516D01*
X135031252Y-103216794D01*
X135089371Y-103357107D01*
X135119000Y-103506063D01*
X135119000Y-103657937D01*
X135089371Y-103806893D01*
X135031252Y-103947206D01*
X134946875Y-104073484D01*
X134839484Y-104180875D01*
X134713206Y-104265252D01*
X134572893Y-104323371D01*
X134473589Y-104343124D01*
X134423938Y-104353000D01*
X134272062Y-104353000D01*
X134222411Y-104343124D01*
X134123107Y-104323371D01*
X133982794Y-104265252D01*
X133856516Y-104180875D01*
X133749125Y-104073484D01*
X133664748Y-103947206D01*
X133606629Y-103806893D01*
X133577000Y-103657937D01*
X133577000Y-103506063D01*
X133606629Y-103357107D01*
X133664748Y-103216794D01*
X133749125Y-103090516D01*
X133856516Y-102983125D01*
X133982794Y-102898748D01*
X134123107Y-102840629D01*
X134234755Y-102818421D01*
X134272062Y-102811000D01*
X134423938Y-102811000D01*
X134461245Y-102818421D01*
G37*
G36*
X159861245Y-102818421D02*
G01*
X159972893Y-102840629D01*
X160113206Y-102898748D01*
X160239484Y-102983125D01*
X160346875Y-103090516D01*
X160431252Y-103216794D01*
X160489371Y-103357107D01*
X160519000Y-103506063D01*
X160519000Y-103657937D01*
X160489371Y-103806893D01*
X160431252Y-103947206D01*
X160346875Y-104073484D01*
X160239484Y-104180875D01*
X160113206Y-104265252D01*
X159972893Y-104323371D01*
X159873589Y-104343124D01*
X159823938Y-104353000D01*
X159672062Y-104353000D01*
X159622411Y-104343124D01*
X159523107Y-104323371D01*
X159382794Y-104265252D01*
X159256516Y-104180875D01*
X159149125Y-104073484D01*
X159064748Y-103947206D01*
X159006629Y-103806893D01*
X158977000Y-103657937D01*
X158977000Y-103506063D01*
X159006629Y-103357107D01*
X159064748Y-103216794D01*
X159149125Y-103090516D01*
X159256516Y-102983125D01*
X159382794Y-102898748D01*
X159523107Y-102840629D01*
X159634755Y-102818421D01*
X159672062Y-102811000D01*
X159823938Y-102811000D01*
X159861245Y-102818421D01*
G37*
G36*
X168287097Y-102942267D02*
G01*
X168341875Y-102964957D01*
X168341877Y-102964958D01*
X168391176Y-102997898D01*
X168433102Y-103039824D01*
X168466042Y-103089123D01*
X168466043Y-103089125D01*
X168488733Y-103143903D01*
X168500300Y-103202053D01*
X168500300Y-103261347D01*
X168488733Y-103319497D01*
X168473154Y-103357107D01*
X168466042Y-103374277D01*
X168433102Y-103423576D01*
X168391176Y-103465502D01*
X168341877Y-103498442D01*
X168341876Y-103498443D01*
X168341875Y-103498443D01*
X168287097Y-103521133D01*
X168228947Y-103532700D01*
X168169653Y-103532700D01*
X168111503Y-103521133D01*
X168056725Y-103498443D01*
X168056724Y-103498443D01*
X168056723Y-103498442D01*
X168007424Y-103465502D01*
X167965498Y-103423576D01*
X167932558Y-103374277D01*
X167925446Y-103357107D01*
X167909867Y-103319497D01*
X167898300Y-103261347D01*
X167898300Y-103202053D01*
X167909867Y-103143903D01*
X167932557Y-103089125D01*
X167932558Y-103089123D01*
X167965498Y-103039824D01*
X168007424Y-102997898D01*
X168056723Y-102964958D01*
X168056725Y-102964957D01*
X168111503Y-102942267D01*
X168169653Y-102930700D01*
X168228947Y-102930700D01*
X168287097Y-102942267D01*
G37*
G36*
X170902297Y-102936167D02*
G01*
X170957075Y-102958857D01*
X170957077Y-102958858D01*
X171006376Y-102991798D01*
X171048302Y-103033724D01*
X171052378Y-103039825D01*
X171081243Y-103083025D01*
X171103933Y-103137803D01*
X171115500Y-103195953D01*
X171115500Y-103255247D01*
X171103933Y-103313397D01*
X171081243Y-103368175D01*
X171081242Y-103368177D01*
X171048302Y-103417476D01*
X171006376Y-103459402D01*
X170957077Y-103492342D01*
X170957076Y-103492343D01*
X170957075Y-103492343D01*
X170902297Y-103515033D01*
X170844147Y-103526600D01*
X170784853Y-103526600D01*
X170726703Y-103515033D01*
X170671925Y-103492343D01*
X170671924Y-103492343D01*
X170671923Y-103492342D01*
X170622624Y-103459402D01*
X170580698Y-103417476D01*
X170547758Y-103368177D01*
X170547757Y-103368175D01*
X170525067Y-103313397D01*
X170513500Y-103255247D01*
X170513500Y-103195953D01*
X170525067Y-103137803D01*
X170547757Y-103083025D01*
X170576622Y-103039825D01*
X170580698Y-103033724D01*
X170622624Y-102991798D01*
X170671923Y-102958858D01*
X170671925Y-102958857D01*
X170726703Y-102936167D01*
X170784853Y-102924600D01*
X170844147Y-102924600D01*
X170902297Y-102936167D01*
G37*
G36*
X168287097Y-102085267D02*
G01*
X168341875Y-102107957D01*
X168341877Y-102107958D01*
X168391176Y-102140898D01*
X168433102Y-102182824D01*
X168466042Y-102232123D01*
X168466043Y-102232125D01*
X168488733Y-102286903D01*
X168500300Y-102345053D01*
X168500300Y-102404347D01*
X168488733Y-102462497D01*
X168487085Y-102466475D01*
X168466042Y-102517277D01*
X168433102Y-102566576D01*
X168391176Y-102608502D01*
X168341877Y-102641442D01*
X168341876Y-102641443D01*
X168341875Y-102641443D01*
X168287097Y-102664133D01*
X168228947Y-102675700D01*
X168169653Y-102675700D01*
X168111503Y-102664133D01*
X168056725Y-102641443D01*
X168056724Y-102641443D01*
X168056723Y-102641442D01*
X168007424Y-102608502D01*
X167965498Y-102566576D01*
X167932558Y-102517277D01*
X167911515Y-102466475D01*
X167909867Y-102462497D01*
X167898300Y-102404347D01*
X167898300Y-102345053D01*
X167909867Y-102286903D01*
X167932557Y-102232125D01*
X167932558Y-102232123D01*
X167965498Y-102182824D01*
X168007424Y-102140898D01*
X168056723Y-102107958D01*
X168056725Y-102107957D01*
X168111503Y-102085267D01*
X168169653Y-102073700D01*
X168228947Y-102073700D01*
X168287097Y-102085267D01*
G37*
G36*
X170902297Y-102034467D02*
G01*
X170957075Y-102057157D01*
X170957077Y-102057158D01*
X171006376Y-102090098D01*
X171048302Y-102132024D01*
X171054231Y-102140898D01*
X171081243Y-102181325D01*
X171103933Y-102236103D01*
X171115500Y-102294253D01*
X171115500Y-102353547D01*
X171103933Y-102411697D01*
X171082891Y-102462497D01*
X171081242Y-102466477D01*
X171048302Y-102515776D01*
X171006376Y-102557702D01*
X170957077Y-102590642D01*
X170957076Y-102590643D01*
X170957075Y-102590643D01*
X170902297Y-102613333D01*
X170844147Y-102624900D01*
X170784853Y-102624900D01*
X170726703Y-102613333D01*
X170671925Y-102590643D01*
X170671924Y-102590643D01*
X170671923Y-102590642D01*
X170622624Y-102557702D01*
X170580698Y-102515776D01*
X170547758Y-102466477D01*
X170546109Y-102462497D01*
X170525067Y-102411697D01*
X170513500Y-102353547D01*
X170513500Y-102294253D01*
X170525067Y-102236103D01*
X170547757Y-102181325D01*
X170574769Y-102140898D01*
X170580698Y-102132024D01*
X170622624Y-102090098D01*
X170671923Y-102057158D01*
X170671925Y-102057157D01*
X170726703Y-102034467D01*
X170784853Y-102022900D01*
X170844147Y-102022900D01*
X170902297Y-102034467D01*
G37*
G36*
X168287097Y-101196267D02*
G01*
X168341875Y-101218957D01*
X168341877Y-101218958D01*
X168391176Y-101251898D01*
X168433102Y-101293824D01*
X168466042Y-101343123D01*
X168466043Y-101343125D01*
X168488733Y-101397903D01*
X168500300Y-101456053D01*
X168500300Y-101515347D01*
X168488733Y-101573497D01*
X168487085Y-101577475D01*
X168466042Y-101628277D01*
X168433102Y-101677576D01*
X168391176Y-101719502D01*
X168341877Y-101752442D01*
X168341876Y-101752443D01*
X168341875Y-101752443D01*
X168287097Y-101775133D01*
X168228947Y-101786700D01*
X168169653Y-101786700D01*
X168111503Y-101775133D01*
X168056725Y-101752443D01*
X168056724Y-101752443D01*
X168056723Y-101752442D01*
X168007424Y-101719502D01*
X167965498Y-101677576D01*
X167932558Y-101628277D01*
X167911515Y-101577475D01*
X167909867Y-101573497D01*
X167898300Y-101515347D01*
X167898300Y-101456053D01*
X167909867Y-101397903D01*
X167932557Y-101343125D01*
X167932558Y-101343123D01*
X167965498Y-101293824D01*
X168007424Y-101251898D01*
X168056723Y-101218958D01*
X168056725Y-101218957D01*
X168111503Y-101196267D01*
X168169653Y-101184700D01*
X168228947Y-101184700D01*
X168287097Y-101196267D01*
G37*
G36*
X170902297Y-101145467D02*
G01*
X170957075Y-101168157D01*
X170957077Y-101168158D01*
X171006376Y-101201098D01*
X171048302Y-101243024D01*
X171054231Y-101251898D01*
X171081243Y-101292325D01*
X171103933Y-101347103D01*
X171115500Y-101405253D01*
X171115500Y-101464547D01*
X171103933Y-101522697D01*
X171082891Y-101573497D01*
X171081242Y-101577477D01*
X171048302Y-101626776D01*
X171006376Y-101668702D01*
X170957077Y-101701642D01*
X170957076Y-101701643D01*
X170957075Y-101701643D01*
X170902297Y-101724333D01*
X170844147Y-101735900D01*
X170784853Y-101735900D01*
X170726703Y-101724333D01*
X170671925Y-101701643D01*
X170671924Y-101701643D01*
X170671923Y-101701642D01*
X170622624Y-101668702D01*
X170580698Y-101626776D01*
X170547758Y-101577477D01*
X170546109Y-101573497D01*
X170525067Y-101522697D01*
X170513500Y-101464547D01*
X170513500Y-101405253D01*
X170525067Y-101347103D01*
X170547757Y-101292325D01*
X170574769Y-101251898D01*
X170580698Y-101243024D01*
X170622624Y-101201098D01*
X170671923Y-101168158D01*
X170671925Y-101168157D01*
X170726703Y-101145467D01*
X170784853Y-101133900D01*
X170844147Y-101133900D01*
X170902297Y-101145467D01*
G37*
G36*
X168287097Y-100307267D02*
G01*
X168341875Y-100329957D01*
X168341877Y-100329958D01*
X168391176Y-100362898D01*
X168433102Y-100404824D01*
X168466042Y-100454123D01*
X168466043Y-100454125D01*
X168488733Y-100508903D01*
X168500300Y-100567053D01*
X168500300Y-100626347D01*
X168488733Y-100684497D01*
X168487085Y-100688475D01*
X168466042Y-100739277D01*
X168433102Y-100788576D01*
X168391176Y-100830502D01*
X168341877Y-100863442D01*
X168341876Y-100863443D01*
X168341875Y-100863443D01*
X168287097Y-100886133D01*
X168228947Y-100897700D01*
X168169653Y-100897700D01*
X168111503Y-100886133D01*
X168056725Y-100863443D01*
X168056724Y-100863443D01*
X168056723Y-100863442D01*
X168007424Y-100830502D01*
X167965498Y-100788576D01*
X167932558Y-100739277D01*
X167911515Y-100688475D01*
X167909867Y-100684497D01*
X167898300Y-100626347D01*
X167898300Y-100567053D01*
X167909867Y-100508903D01*
X167932557Y-100454125D01*
X167932558Y-100454123D01*
X167965498Y-100404824D01*
X168007424Y-100362898D01*
X168056723Y-100329958D01*
X168056725Y-100329957D01*
X168111503Y-100307267D01*
X168169653Y-100295700D01*
X168228947Y-100295700D01*
X168287097Y-100307267D01*
G37*
G36*
X170902297Y-100256467D02*
G01*
X170957075Y-100279157D01*
X170957077Y-100279158D01*
X171006376Y-100312098D01*
X171048302Y-100354024D01*
X171054231Y-100362898D01*
X171081243Y-100403325D01*
X171103933Y-100458103D01*
X171115500Y-100516253D01*
X171115500Y-100575547D01*
X171103933Y-100633697D01*
X171082891Y-100684497D01*
X171081242Y-100688477D01*
X171048302Y-100737776D01*
X171006376Y-100779702D01*
X170957077Y-100812642D01*
X170957076Y-100812643D01*
X170957075Y-100812643D01*
X170902297Y-100835333D01*
X170844147Y-100846900D01*
X170784853Y-100846900D01*
X170726703Y-100835333D01*
X170671925Y-100812643D01*
X170671924Y-100812643D01*
X170671923Y-100812642D01*
X170622624Y-100779702D01*
X170580698Y-100737776D01*
X170547758Y-100688477D01*
X170546109Y-100684497D01*
X170525067Y-100633697D01*
X170513500Y-100575547D01*
X170513500Y-100516253D01*
X170525067Y-100458103D01*
X170547757Y-100403325D01*
X170574769Y-100362898D01*
X170580698Y-100354024D01*
X170622624Y-100312098D01*
X170671923Y-100279158D01*
X170671925Y-100279157D01*
X170726703Y-100256467D01*
X170784853Y-100244900D01*
X170844147Y-100244900D01*
X170902297Y-100256467D01*
G37*
G36*
X168287097Y-99405567D02*
G01*
X168341875Y-99428257D01*
X168341877Y-99428258D01*
X168391176Y-99461198D01*
X168433102Y-99503124D01*
X168466042Y-99552423D01*
X168466043Y-99552425D01*
X168488733Y-99607203D01*
X168500300Y-99665353D01*
X168500300Y-99724647D01*
X168488733Y-99782797D01*
X168468570Y-99831475D01*
X168466042Y-99837577D01*
X168433102Y-99886876D01*
X168391176Y-99928802D01*
X168341877Y-99961742D01*
X168341876Y-99961743D01*
X168341875Y-99961743D01*
X168287097Y-99984433D01*
X168228947Y-99996000D01*
X168169653Y-99996000D01*
X168111503Y-99984433D01*
X168056725Y-99961743D01*
X168056724Y-99961743D01*
X168056723Y-99961742D01*
X168007424Y-99928802D01*
X167965498Y-99886876D01*
X167932558Y-99837577D01*
X167930030Y-99831475D01*
X167909867Y-99782797D01*
X167898300Y-99724647D01*
X167898300Y-99665353D01*
X167909867Y-99607203D01*
X167932557Y-99552425D01*
X167932558Y-99552423D01*
X167965498Y-99503124D01*
X168007424Y-99461198D01*
X168056723Y-99428258D01*
X168056725Y-99428257D01*
X168111503Y-99405567D01*
X168169653Y-99394000D01*
X168228947Y-99394000D01*
X168287097Y-99405567D01*
G37*
G36*
X170902297Y-99399467D02*
G01*
X170957075Y-99422157D01*
X170957077Y-99422158D01*
X171006376Y-99455098D01*
X171048302Y-99497024D01*
X171052378Y-99503125D01*
X171081243Y-99546325D01*
X171103933Y-99601103D01*
X171115500Y-99659253D01*
X171115500Y-99718547D01*
X171103933Y-99776697D01*
X171081243Y-99831475D01*
X171081242Y-99831477D01*
X171048302Y-99880776D01*
X171006376Y-99922702D01*
X170957077Y-99955642D01*
X170957076Y-99955643D01*
X170957075Y-99955643D01*
X170902297Y-99978333D01*
X170844147Y-99989900D01*
X170784853Y-99989900D01*
X170726703Y-99978333D01*
X170671925Y-99955643D01*
X170671924Y-99955643D01*
X170671923Y-99955642D01*
X170622624Y-99922702D01*
X170580698Y-99880776D01*
X170547758Y-99831477D01*
X170547757Y-99831475D01*
X170525067Y-99776697D01*
X170513500Y-99718547D01*
X170513500Y-99659253D01*
X170525067Y-99601103D01*
X170547757Y-99546325D01*
X170576622Y-99503125D01*
X170580698Y-99497024D01*
X170622624Y-99455098D01*
X170671923Y-99422158D01*
X170671925Y-99422157D01*
X170726703Y-99399467D01*
X170784853Y-99387900D01*
X170844147Y-99387900D01*
X170902297Y-99399467D01*
G37*
G36*
X175270866Y-95435527D02*
G01*
X175454501Y-95472054D01*
X175800461Y-95615356D01*
X176111817Y-95823397D01*
X176376603Y-96088183D01*
X176584644Y-96399539D01*
X176727946Y-96745499D01*
X176733984Y-96775853D01*
X176797453Y-97094933D01*
X176801000Y-97112768D01*
X176801000Y-97487232D01*
X176727946Y-97854501D01*
X176584644Y-98200461D01*
X176376603Y-98511817D01*
X176111817Y-98776603D01*
X175800461Y-98984644D01*
X175454501Y-99127946D01*
X175270866Y-99164473D01*
X175087233Y-99201000D01*
X174712767Y-99201000D01*
X174345499Y-99127946D01*
X173999539Y-98984644D01*
X173688183Y-98776603D01*
X173423397Y-98511817D01*
X173215356Y-98200461D01*
X173072054Y-97854501D01*
X172999000Y-97487232D01*
X172999000Y-97112768D01*
X173002548Y-97094933D01*
X173066016Y-96775853D01*
X173072054Y-96745499D01*
X173215356Y-96399539D01*
X173423397Y-96088183D01*
X173688183Y-95823397D01*
X173999539Y-95615356D01*
X174345499Y-95472054D01*
X174529134Y-95435527D01*
X174712767Y-95399000D01*
X175087233Y-95399000D01*
X175270866Y-95435527D01*
G37*
G36*
X213981512Y-95623927D02*
G01*
X214130812Y-95653624D01*
X214294784Y-95721544D01*
X214442354Y-95820147D01*
X214567853Y-95945646D01*
X214666456Y-96093216D01*
X214734376Y-96257188D01*
X214769000Y-96431259D01*
X214769000Y-96608741D01*
X214734376Y-96782812D01*
X214666456Y-96946784D01*
X214567853Y-97094354D01*
X214442354Y-97219853D01*
X214294784Y-97318456D01*
X214130812Y-97386376D01*
X213981512Y-97416073D01*
X213956742Y-97421000D01*
X213779258Y-97421000D01*
X213754488Y-97416073D01*
X213605188Y-97386376D01*
X213441216Y-97318456D01*
X213293646Y-97219853D01*
X213168147Y-97094354D01*
X213069544Y-96946784D01*
X213001624Y-96782812D01*
X212967000Y-96608741D01*
X212967000Y-96431259D01*
X213001624Y-96257188D01*
X213069544Y-96093216D01*
X213168147Y-95945646D01*
X213293646Y-95820147D01*
X213441216Y-95721544D01*
X213605188Y-95653624D01*
X213754488Y-95623927D01*
X213779258Y-95619000D01*
X213956742Y-95619000D01*
X213981512Y-95623927D01*
G37*
G36*
X205752097Y-96516067D02*
G01*
X205806875Y-96538757D01*
X205806877Y-96538758D01*
X205856176Y-96571698D01*
X205898102Y-96613624D01*
X205931042Y-96662923D01*
X205931043Y-96662925D01*
X205953733Y-96717703D01*
X205965300Y-96775853D01*
X205965300Y-96835147D01*
X205953733Y-96893297D01*
X205931578Y-96946784D01*
X205931042Y-96948077D01*
X205898102Y-96997376D01*
X205856176Y-97039302D01*
X205806877Y-97072242D01*
X205806876Y-97072243D01*
X205806875Y-97072243D01*
X205752097Y-97094933D01*
X205693947Y-97106500D01*
X205634653Y-97106500D01*
X205576503Y-97094933D01*
X205521725Y-97072243D01*
X205521724Y-97072243D01*
X205521723Y-97072242D01*
X205472424Y-97039302D01*
X205430498Y-96997376D01*
X205397558Y-96948077D01*
X205397022Y-96946784D01*
X205374867Y-96893297D01*
X205363300Y-96835147D01*
X205363300Y-96775853D01*
X205374867Y-96717703D01*
X205397557Y-96662925D01*
X205397558Y-96662923D01*
X205430498Y-96613624D01*
X205472424Y-96571698D01*
X205521723Y-96538758D01*
X205521725Y-96538757D01*
X205576503Y-96516067D01*
X205634653Y-96504500D01*
X205693947Y-96504500D01*
X205752097Y-96516067D01*
G37*
G36*
X209891297Y-96509967D02*
G01*
X209946075Y-96532657D01*
X209946077Y-96532658D01*
X209995376Y-96565598D01*
X210037302Y-96607524D01*
X210041378Y-96613625D01*
X210070243Y-96656825D01*
X210092933Y-96711603D01*
X210104500Y-96769753D01*
X210104500Y-96829047D01*
X210092933Y-96887197D01*
X210070243Y-96941975D01*
X210070242Y-96941977D01*
X210037302Y-96991276D01*
X209995376Y-97033202D01*
X209946077Y-97066142D01*
X209946076Y-97066143D01*
X209946075Y-97066143D01*
X209891297Y-97088833D01*
X209833147Y-97100400D01*
X209773853Y-97100400D01*
X209715703Y-97088833D01*
X209660925Y-97066143D01*
X209660924Y-97066143D01*
X209660923Y-97066142D01*
X209611624Y-97033202D01*
X209569698Y-96991276D01*
X209536758Y-96941977D01*
X209536757Y-96941975D01*
X209514067Y-96887197D01*
X209502500Y-96829047D01*
X209502500Y-96769753D01*
X209514067Y-96711603D01*
X209536757Y-96656825D01*
X209565622Y-96613625D01*
X209569698Y-96607524D01*
X209611624Y-96565598D01*
X209660923Y-96532658D01*
X209660925Y-96532657D01*
X209715703Y-96509967D01*
X209773853Y-96498400D01*
X209833147Y-96498400D01*
X209891297Y-96509967D01*
G37*
G36*
X89643239Y-89852467D02*
G01*
X89957282Y-89914934D01*
X90548926Y-90160001D01*
X90838523Y-90353504D01*
X91081391Y-90515783D01*
X91534217Y-90968609D01*
X91586100Y-91046258D01*
X91889999Y-91501074D01*
X92135066Y-92092718D01*
X92172533Y-92281077D01*
X92260000Y-92720803D01*
X92260000Y-93361197D01*
X92200075Y-93662458D01*
X92135066Y-93989282D01*
X91889999Y-94580926D01*
X91636190Y-94960777D01*
X91534217Y-95113391D01*
X91081391Y-95566217D01*
X91007849Y-95615356D01*
X90548926Y-95921999D01*
X89957282Y-96167066D01*
X89643239Y-96229533D01*
X89329197Y-96292000D01*
X88688803Y-96292000D01*
X88374761Y-96229533D01*
X88060718Y-96167066D01*
X87469074Y-95921999D01*
X87010151Y-95615356D01*
X86936609Y-95566217D01*
X86483783Y-95113391D01*
X86381810Y-94960777D01*
X86128001Y-94580926D01*
X85882934Y-93989282D01*
X85817925Y-93662458D01*
X85758000Y-93361197D01*
X85758000Y-92720803D01*
X85845467Y-92281077D01*
X85882934Y-92092718D01*
X86128001Y-91501074D01*
X86431900Y-91046258D01*
X86483783Y-90968609D01*
X86936609Y-90515783D01*
X87179477Y-90353504D01*
X87469074Y-90160001D01*
X88060718Y-89914934D01*
X88374761Y-89852467D01*
X88688803Y-89790000D01*
X89329197Y-89790000D01*
X89643239Y-89852467D01*
G37*
G36*
X205752097Y-95659067D02*
G01*
X205806875Y-95681757D01*
X205806877Y-95681758D01*
X205856176Y-95714698D01*
X205898102Y-95756624D01*
X205931042Y-95805923D01*
X205931043Y-95805925D01*
X205953733Y-95860703D01*
X205965300Y-95918853D01*
X205965300Y-95978147D01*
X205953733Y-96036297D01*
X205931664Y-96089575D01*
X205931042Y-96091077D01*
X205898102Y-96140376D01*
X205856176Y-96182302D01*
X205806877Y-96215242D01*
X205806876Y-96215243D01*
X205806875Y-96215243D01*
X205752097Y-96237933D01*
X205693947Y-96249500D01*
X205634653Y-96249500D01*
X205576503Y-96237933D01*
X205521725Y-96215243D01*
X205521724Y-96215243D01*
X205521723Y-96215242D01*
X205472424Y-96182302D01*
X205430498Y-96140376D01*
X205397558Y-96091077D01*
X205396936Y-96089575D01*
X205374867Y-96036297D01*
X205363300Y-95978147D01*
X205363300Y-95918853D01*
X205374867Y-95860703D01*
X205397557Y-95805925D01*
X205397558Y-95805923D01*
X205430498Y-95756624D01*
X205472424Y-95714698D01*
X205521723Y-95681758D01*
X205521725Y-95681757D01*
X205576503Y-95659067D01*
X205634653Y-95647500D01*
X205693947Y-95647500D01*
X205752097Y-95659067D01*
G37*
G36*
X209891297Y-95608267D02*
G01*
X209946075Y-95630957D01*
X209946077Y-95630958D01*
X209995376Y-95663898D01*
X210037302Y-95705824D01*
X210070242Y-95755123D01*
X210070243Y-95755125D01*
X210092933Y-95809903D01*
X210104500Y-95868053D01*
X210104500Y-95927347D01*
X210092933Y-95985497D01*
X210071891Y-96036297D01*
X210070242Y-96040277D01*
X210037302Y-96089576D01*
X209995376Y-96131502D01*
X209946077Y-96164442D01*
X209946076Y-96164443D01*
X209946075Y-96164443D01*
X209891297Y-96187133D01*
X209833147Y-96198700D01*
X209773853Y-96198700D01*
X209715703Y-96187133D01*
X209660925Y-96164443D01*
X209660924Y-96164443D01*
X209660923Y-96164442D01*
X209611624Y-96131502D01*
X209569698Y-96089576D01*
X209536758Y-96040277D01*
X209535109Y-96036297D01*
X209514067Y-95985497D01*
X209502500Y-95927347D01*
X209502500Y-95868053D01*
X209514067Y-95809903D01*
X209536757Y-95755125D01*
X209536758Y-95755123D01*
X209569698Y-95705824D01*
X209611624Y-95663898D01*
X209660923Y-95630958D01*
X209660925Y-95630957D01*
X209715703Y-95608267D01*
X209773853Y-95596700D01*
X209833147Y-95596700D01*
X209891297Y-95608267D01*
G37*
G36*
X205752097Y-94770067D02*
G01*
X205796728Y-94788554D01*
X205806877Y-94792758D01*
X205856176Y-94825698D01*
X205898102Y-94867624D01*
X205923742Y-94905998D01*
X205931043Y-94916925D01*
X205953733Y-94971703D01*
X205965300Y-95029853D01*
X205965300Y-95089147D01*
X205953733Y-95147297D01*
X205931664Y-95200575D01*
X205931042Y-95202077D01*
X205898102Y-95251376D01*
X205856176Y-95293302D01*
X205806877Y-95326242D01*
X205806876Y-95326243D01*
X205806875Y-95326243D01*
X205752097Y-95348933D01*
X205693947Y-95360500D01*
X205634653Y-95360500D01*
X205576503Y-95348933D01*
X205521725Y-95326243D01*
X205521724Y-95326243D01*
X205521723Y-95326242D01*
X205472424Y-95293302D01*
X205430498Y-95251376D01*
X205397558Y-95202077D01*
X205396936Y-95200575D01*
X205374867Y-95147297D01*
X205363300Y-95089147D01*
X205363300Y-95029853D01*
X205374867Y-94971703D01*
X205397557Y-94916925D01*
X205404858Y-94905998D01*
X205430498Y-94867624D01*
X205472424Y-94825698D01*
X205521723Y-94792758D01*
X205531872Y-94788554D01*
X205576503Y-94770067D01*
X205634653Y-94758500D01*
X205693947Y-94758500D01*
X205752097Y-94770067D01*
G37*
G36*
X209891297Y-94719267D02*
G01*
X209918181Y-94730403D01*
X209946077Y-94741958D01*
X209995376Y-94774898D01*
X210037302Y-94816824D01*
X210070242Y-94866123D01*
X210070243Y-94866125D01*
X210092933Y-94920903D01*
X210104500Y-94979053D01*
X210104500Y-95038347D01*
X210092933Y-95096497D01*
X210083529Y-95119200D01*
X210070242Y-95151277D01*
X210037302Y-95200576D01*
X209995376Y-95242502D01*
X209946077Y-95275442D01*
X209946076Y-95275443D01*
X209946075Y-95275443D01*
X209891297Y-95298133D01*
X209833147Y-95309700D01*
X209773853Y-95309700D01*
X209715703Y-95298133D01*
X209660925Y-95275443D01*
X209660924Y-95275443D01*
X209660923Y-95275442D01*
X209611624Y-95242502D01*
X209569698Y-95200576D01*
X209536758Y-95151277D01*
X209523471Y-95119200D01*
X209514067Y-95096497D01*
X209502500Y-95038347D01*
X209502500Y-94979053D01*
X209514067Y-94920903D01*
X209536757Y-94866125D01*
X209536758Y-94866123D01*
X209569698Y-94816824D01*
X209611624Y-94774898D01*
X209660923Y-94741958D01*
X209688819Y-94730403D01*
X209715703Y-94719267D01*
X209773853Y-94707700D01*
X209833147Y-94707700D01*
X209891297Y-94719267D01*
G37*
G36*
X114565097Y-94528767D02*
G01*
X114616659Y-94550125D01*
X114619877Y-94551458D01*
X114669176Y-94584398D01*
X114711102Y-94626324D01*
X114744042Y-94675623D01*
X114744043Y-94675625D01*
X114766733Y-94730403D01*
X114778300Y-94788553D01*
X114778300Y-94847847D01*
X114766733Y-94905997D01*
X114755185Y-94933875D01*
X114744042Y-94960777D01*
X114711102Y-95010076D01*
X114669176Y-95052002D01*
X114619877Y-95084942D01*
X114619876Y-95084943D01*
X114619875Y-95084943D01*
X114565097Y-95107633D01*
X114506947Y-95119200D01*
X114447653Y-95119200D01*
X114389503Y-95107633D01*
X114334725Y-95084943D01*
X114334724Y-95084943D01*
X114334723Y-95084942D01*
X114285424Y-95052002D01*
X114243498Y-95010076D01*
X114210558Y-94960777D01*
X114199415Y-94933875D01*
X114187867Y-94905997D01*
X114176300Y-94847847D01*
X114176300Y-94788553D01*
X114187867Y-94730403D01*
X114210557Y-94675625D01*
X114210558Y-94675623D01*
X114243498Y-94626324D01*
X114285424Y-94584398D01*
X114334723Y-94551458D01*
X114337941Y-94550125D01*
X114389503Y-94528767D01*
X114447653Y-94517200D01*
X114506947Y-94517200D01*
X114565097Y-94528767D01*
G37*
G36*
X110069797Y-93639767D02*
G01*
X110124575Y-93662457D01*
X110124577Y-93662458D01*
X110173876Y-93695398D01*
X110215802Y-93737324D01*
X110248742Y-93786623D01*
X110248743Y-93786625D01*
X110271433Y-93841403D01*
X110283000Y-93899553D01*
X110283000Y-93958847D01*
X110271433Y-94016997D01*
X110250000Y-94068741D01*
X110248742Y-94071777D01*
X110215802Y-94121076D01*
X110173876Y-94163002D01*
X110124577Y-94195942D01*
X110124576Y-94195943D01*
X110124575Y-94195943D01*
X110069797Y-94218633D01*
X110058084Y-94220963D01*
X110034635Y-94228076D01*
X110013024Y-94239627D01*
X109994082Y-94255172D01*
X109978536Y-94274114D01*
X109966985Y-94295724D01*
X109959872Y-94319173D01*
X109957470Y-94343559D01*
X109959872Y-94367945D01*
X109966985Y-94391394D01*
X109978536Y-94413005D01*
X109994081Y-94431947D01*
X110013023Y-94447493D01*
X110034634Y-94459044D01*
X110073775Y-94475257D01*
X110073777Y-94475258D01*
X110123076Y-94508198D01*
X110165002Y-94550124D01*
X110197942Y-94599423D01*
X110197943Y-94599425D01*
X110220633Y-94654203D01*
X110232200Y-94712353D01*
X110232200Y-94771647D01*
X110220633Y-94829797D01*
X110199424Y-94881000D01*
X110197942Y-94884577D01*
X110165002Y-94933876D01*
X110123076Y-94975802D01*
X110073777Y-95008742D01*
X110073776Y-95008743D01*
X110073775Y-95008743D01*
X110018997Y-95031433D01*
X109960847Y-95043000D01*
X109901553Y-95043000D01*
X109843403Y-95031433D01*
X109788625Y-95008743D01*
X109788624Y-95008743D01*
X109788623Y-95008742D01*
X109739324Y-94975802D01*
X109697398Y-94933876D01*
X109664458Y-94884577D01*
X109662976Y-94881000D01*
X109641767Y-94829797D01*
X109630200Y-94771647D01*
X109630200Y-94712353D01*
X109641767Y-94654203D01*
X109664457Y-94599425D01*
X109664458Y-94599423D01*
X109697398Y-94550124D01*
X109739324Y-94508198D01*
X109788623Y-94475258D01*
X109788625Y-94475257D01*
X109843403Y-94452567D01*
X109855116Y-94450237D01*
X109878565Y-94443124D01*
X109900176Y-94431573D01*
X109919118Y-94416028D01*
X109934664Y-94397086D01*
X109946215Y-94375476D01*
X109953328Y-94352027D01*
X109955730Y-94327641D01*
X109953328Y-94303255D01*
X109946215Y-94279806D01*
X109934664Y-94258195D01*
X109919119Y-94239253D01*
X109900177Y-94223707D01*
X109878566Y-94212156D01*
X109839425Y-94195943D01*
X109839424Y-94195943D01*
X109839423Y-94195942D01*
X109790124Y-94163002D01*
X109748198Y-94121076D01*
X109715258Y-94071777D01*
X109714000Y-94068741D01*
X109692567Y-94016997D01*
X109681000Y-93958847D01*
X109681000Y-93899553D01*
X109692567Y-93841403D01*
X109715257Y-93786625D01*
X109715258Y-93786623D01*
X109748198Y-93737324D01*
X109790124Y-93695398D01*
X109839423Y-93662458D01*
X109839425Y-93662457D01*
X109894203Y-93639767D01*
X109952353Y-93628200D01*
X110011647Y-93628200D01*
X110069797Y-93639767D01*
G37*
G36*
X213981512Y-93083927D02*
G01*
X214130812Y-93113624D01*
X214294784Y-93181544D01*
X214442354Y-93280147D01*
X214567853Y-93405646D01*
X214666456Y-93553216D01*
X214734376Y-93717188D01*
X214769000Y-93891259D01*
X214769000Y-94068741D01*
X214734376Y-94242812D01*
X214666456Y-94406784D01*
X214567853Y-94554354D01*
X214442354Y-94679853D01*
X214294784Y-94778456D01*
X214130812Y-94846376D01*
X213981512Y-94876073D01*
X213956742Y-94881000D01*
X213779258Y-94881000D01*
X213754488Y-94876073D01*
X213605188Y-94846376D01*
X213441216Y-94778456D01*
X213293646Y-94679853D01*
X213168147Y-94554354D01*
X213069544Y-94406784D01*
X213001624Y-94242812D01*
X212967000Y-94068741D01*
X212967000Y-93891259D01*
X213001624Y-93717188D01*
X213069544Y-93553216D01*
X213168147Y-93405646D01*
X213293646Y-93280147D01*
X213441216Y-93181544D01*
X213605188Y-93113624D01*
X213754488Y-93083927D01*
X213779258Y-93079000D01*
X213956742Y-93079000D01*
X213981512Y-93083927D01*
G37*
G36*
X205752097Y-93881067D02*
G01*
X205796728Y-93899554D01*
X205806877Y-93903758D01*
X205856176Y-93936698D01*
X205898102Y-93978624D01*
X205923742Y-94016998D01*
X205931043Y-94027925D01*
X205953733Y-94082703D01*
X205965300Y-94140853D01*
X205965300Y-94200147D01*
X205953733Y-94258297D01*
X205934641Y-94304388D01*
X205931042Y-94313077D01*
X205898102Y-94362376D01*
X205856176Y-94404302D01*
X205806877Y-94437242D01*
X205806876Y-94437243D01*
X205806875Y-94437243D01*
X205752097Y-94459933D01*
X205693947Y-94471500D01*
X205634653Y-94471500D01*
X205576503Y-94459933D01*
X205521725Y-94437243D01*
X205521724Y-94437243D01*
X205521723Y-94437242D01*
X205472424Y-94404302D01*
X205430498Y-94362376D01*
X205397558Y-94313077D01*
X205393959Y-94304388D01*
X205374867Y-94258297D01*
X205363300Y-94200147D01*
X205363300Y-94140853D01*
X205374867Y-94082703D01*
X205397557Y-94027925D01*
X205404858Y-94016998D01*
X205430498Y-93978624D01*
X205472424Y-93936698D01*
X205521723Y-93903758D01*
X205531872Y-93899554D01*
X205576503Y-93881067D01*
X205634653Y-93869500D01*
X205693947Y-93869500D01*
X205752097Y-93881067D01*
G37*
G36*
X209891297Y-93830267D02*
G01*
X209918181Y-93841403D01*
X209946077Y-93852958D01*
X209995376Y-93885898D01*
X210037302Y-93927824D01*
X210070242Y-93977123D01*
X210070243Y-93977125D01*
X210092933Y-94031903D01*
X210104500Y-94090053D01*
X210104500Y-94149347D01*
X210092933Y-94207497D01*
X210083529Y-94230200D01*
X210070242Y-94262277D01*
X210037302Y-94311576D01*
X209995376Y-94353502D01*
X209946077Y-94386442D01*
X209946076Y-94386443D01*
X209946075Y-94386443D01*
X209891297Y-94409133D01*
X209833147Y-94420700D01*
X209773853Y-94420700D01*
X209715703Y-94409133D01*
X209660925Y-94386443D01*
X209660924Y-94386443D01*
X209660923Y-94386442D01*
X209611624Y-94353502D01*
X209569698Y-94311576D01*
X209536758Y-94262277D01*
X209523471Y-94230200D01*
X209514067Y-94207497D01*
X209502500Y-94149347D01*
X209502500Y-94090053D01*
X209514067Y-94031903D01*
X209536757Y-93977125D01*
X209536758Y-93977123D01*
X209569698Y-93927824D01*
X209611624Y-93885898D01*
X209660923Y-93852958D01*
X209688819Y-93841403D01*
X209715703Y-93830267D01*
X209773853Y-93818700D01*
X209833147Y-93818700D01*
X209891297Y-93830267D01*
G37*
G36*
X114565097Y-93627067D02*
G01*
X114619875Y-93649757D01*
X114619877Y-93649758D01*
X114669176Y-93682698D01*
X114711102Y-93724624D01*
X114719588Y-93737325D01*
X114744043Y-93773925D01*
X114766733Y-93828703D01*
X114778300Y-93886853D01*
X114778300Y-93946147D01*
X114766733Y-94004297D01*
X114755298Y-94031903D01*
X114744042Y-94059077D01*
X114711102Y-94108376D01*
X114669176Y-94150302D01*
X114619877Y-94183242D01*
X114619876Y-94183243D01*
X114619875Y-94183243D01*
X114565097Y-94205933D01*
X114506947Y-94217500D01*
X114447653Y-94217500D01*
X114389503Y-94205933D01*
X114334725Y-94183243D01*
X114334724Y-94183243D01*
X114334723Y-94183242D01*
X114285424Y-94150302D01*
X114243498Y-94108376D01*
X114210558Y-94059077D01*
X114199302Y-94031903D01*
X114187867Y-94004297D01*
X114176300Y-93946147D01*
X114176300Y-93886853D01*
X114187867Y-93828703D01*
X114210557Y-93773925D01*
X114235012Y-93737325D01*
X114243498Y-93724624D01*
X114285424Y-93682698D01*
X114334723Y-93649758D01*
X114334725Y-93649757D01*
X114389503Y-93627067D01*
X114447653Y-93615500D01*
X114506947Y-93615500D01*
X114565097Y-93627067D01*
G37*
G36*
X205752097Y-92979367D02*
G01*
X205796728Y-92997854D01*
X205806877Y-93002058D01*
X205856176Y-93034998D01*
X205898102Y-93076924D01*
X205931042Y-93126223D01*
X205931043Y-93126225D01*
X205953733Y-93181003D01*
X205965300Y-93239153D01*
X205965300Y-93298447D01*
X205953733Y-93356597D01*
X205931043Y-93411375D01*
X205931042Y-93411377D01*
X205898102Y-93460676D01*
X205856176Y-93502602D01*
X205806877Y-93535542D01*
X205806876Y-93535543D01*
X205806875Y-93535543D01*
X205752097Y-93558233D01*
X205693947Y-93569800D01*
X205634653Y-93569800D01*
X205576503Y-93558233D01*
X205521725Y-93535543D01*
X205521724Y-93535543D01*
X205521723Y-93535542D01*
X205472424Y-93502602D01*
X205430498Y-93460676D01*
X205397558Y-93411377D01*
X205397557Y-93411375D01*
X205374867Y-93356597D01*
X205363300Y-93298447D01*
X205363300Y-93239153D01*
X205374867Y-93181003D01*
X205397557Y-93126225D01*
X205397558Y-93126223D01*
X205430498Y-93076924D01*
X205472424Y-93034998D01*
X205521723Y-93002058D01*
X205531872Y-92997854D01*
X205576503Y-92979367D01*
X205634653Y-92967800D01*
X205693947Y-92967800D01*
X205752097Y-92979367D01*
G37*
G36*
X209891297Y-92973267D02*
G01*
X209946075Y-92995957D01*
X209946077Y-92995958D01*
X209995376Y-93028898D01*
X210037302Y-93070824D01*
X210065900Y-93113625D01*
X210070243Y-93120125D01*
X210092933Y-93174903D01*
X210104500Y-93233053D01*
X210104500Y-93292347D01*
X210092933Y-93350497D01*
X210076026Y-93391314D01*
X210070242Y-93405277D01*
X210037302Y-93454576D01*
X209995376Y-93496502D01*
X209946077Y-93529442D01*
X209946076Y-93529443D01*
X209946075Y-93529443D01*
X209891297Y-93552133D01*
X209833147Y-93563700D01*
X209773853Y-93563700D01*
X209715703Y-93552133D01*
X209660925Y-93529443D01*
X209660924Y-93529443D01*
X209660923Y-93529442D01*
X209611624Y-93496502D01*
X209569698Y-93454576D01*
X209536758Y-93405277D01*
X209530974Y-93391314D01*
X209514067Y-93350497D01*
X209502500Y-93292347D01*
X209502500Y-93233053D01*
X209514067Y-93174903D01*
X209536757Y-93120125D01*
X209541100Y-93113625D01*
X209569698Y-93070824D01*
X209611624Y-93028898D01*
X209660923Y-92995958D01*
X209660925Y-92995957D01*
X209715703Y-92973267D01*
X209773853Y-92961700D01*
X209833147Y-92961700D01*
X209891297Y-92973267D01*
G37*
G36*
X110005091Y-92749498D02*
G01*
X110029477Y-92751900D01*
X110037047Y-92751900D01*
X110095197Y-92763467D01*
X110149975Y-92786157D01*
X110149977Y-92786158D01*
X110199276Y-92819098D01*
X110241202Y-92861024D01*
X110273557Y-92909448D01*
X110274143Y-92910325D01*
X110296833Y-92965103D01*
X110308400Y-93023253D01*
X110308400Y-93082547D01*
X110296833Y-93140697D01*
X110279913Y-93181544D01*
X110274142Y-93195477D01*
X110241202Y-93244776D01*
X110199276Y-93286702D01*
X110149977Y-93319642D01*
X110149976Y-93319643D01*
X110149975Y-93319643D01*
X110095197Y-93342333D01*
X110037047Y-93353900D01*
X109977753Y-93353900D01*
X109919603Y-93342333D01*
X109864825Y-93319643D01*
X109864824Y-93319643D01*
X109864823Y-93319642D01*
X109815524Y-93286702D01*
X109773598Y-93244776D01*
X109740658Y-93195477D01*
X109734887Y-93181544D01*
X109717967Y-93140697D01*
X109706400Y-93082547D01*
X109706400Y-93023253D01*
X109717967Y-92965103D01*
X109740657Y-92910325D01*
X109741243Y-92909448D01*
X109773598Y-92861024D01*
X109815524Y-92819098D01*
X109864823Y-92786158D01*
X109864825Y-92786157D01*
X109919603Y-92763467D01*
X109984309Y-92750596D01*
X109996510Y-92746895D01*
X110005091Y-92749498D01*
G37*
G36*
X114565097Y-92738067D02*
G01*
X114619875Y-92760757D01*
X114619877Y-92760758D01*
X114669176Y-92793698D01*
X114711102Y-92835624D01*
X114728073Y-92861024D01*
X114744043Y-92884925D01*
X114766733Y-92939703D01*
X114778300Y-92997853D01*
X114778300Y-93057147D01*
X114766733Y-93115297D01*
X114756211Y-93140698D01*
X114744042Y-93170077D01*
X114711102Y-93219376D01*
X114669176Y-93261302D01*
X114619877Y-93294242D01*
X114619876Y-93294243D01*
X114619875Y-93294243D01*
X114565097Y-93316933D01*
X114506947Y-93328500D01*
X114447653Y-93328500D01*
X114389503Y-93316933D01*
X114334725Y-93294243D01*
X114334724Y-93294243D01*
X114334723Y-93294242D01*
X114285424Y-93261302D01*
X114243498Y-93219376D01*
X114210558Y-93170077D01*
X114198389Y-93140698D01*
X114187867Y-93115297D01*
X114176300Y-93057147D01*
X114176300Y-92997853D01*
X114187867Y-92939703D01*
X114210557Y-92884925D01*
X114226527Y-92861024D01*
X114243498Y-92835624D01*
X114285424Y-92793698D01*
X114334723Y-92760758D01*
X114334725Y-92760757D01*
X114389503Y-92738067D01*
X114447653Y-92726500D01*
X114506947Y-92726500D01*
X114565097Y-92738067D01*
G37*
G36*
X110069797Y-91912567D02*
G01*
X110124575Y-91935257D01*
X110124577Y-91935258D01*
X110173876Y-91968198D01*
X110215802Y-92010124D01*
X110248742Y-92059423D01*
X110248743Y-92059425D01*
X110271433Y-92114203D01*
X110283000Y-92172353D01*
X110283000Y-92231647D01*
X110271433Y-92289797D01*
X110254625Y-92330375D01*
X110248742Y-92344577D01*
X110215802Y-92393876D01*
X110173876Y-92435802D01*
X110124577Y-92468742D01*
X110124576Y-92468743D01*
X110124575Y-92468743D01*
X110069797Y-92491433D01*
X110005091Y-92504304D01*
X109992890Y-92508005D01*
X109984309Y-92505402D01*
X109959923Y-92503000D01*
X109952353Y-92503000D01*
X109894203Y-92491433D01*
X109839425Y-92468743D01*
X109839424Y-92468743D01*
X109839423Y-92468742D01*
X109790124Y-92435802D01*
X109748198Y-92393876D01*
X109715258Y-92344577D01*
X109709375Y-92330375D01*
X109692567Y-92289797D01*
X109681000Y-92231647D01*
X109681000Y-92172353D01*
X109692567Y-92114203D01*
X109715257Y-92059425D01*
X109715258Y-92059423D01*
X109748198Y-92010124D01*
X109790124Y-91968198D01*
X109839423Y-91935258D01*
X109839425Y-91935257D01*
X109894203Y-91912567D01*
X109952353Y-91901000D01*
X110011647Y-91901000D01*
X110069797Y-91912567D01*
G37*
G36*
X114565097Y-91849067D02*
G01*
X114607864Y-91866782D01*
X114619877Y-91871758D01*
X114669176Y-91904698D01*
X114711102Y-91946624D01*
X114725517Y-91968198D01*
X114744043Y-91995925D01*
X114766733Y-92050703D01*
X114778300Y-92108853D01*
X114778300Y-92168147D01*
X114766733Y-92226297D01*
X114744043Y-92281075D01*
X114744042Y-92281077D01*
X114711102Y-92330376D01*
X114669176Y-92372302D01*
X114619877Y-92405242D01*
X114619876Y-92405243D01*
X114619875Y-92405243D01*
X114565097Y-92427933D01*
X114506947Y-92439500D01*
X114447653Y-92439500D01*
X114389503Y-92427933D01*
X114334725Y-92405243D01*
X114334724Y-92405243D01*
X114334723Y-92405242D01*
X114285424Y-92372302D01*
X114243498Y-92330376D01*
X114210558Y-92281077D01*
X114210557Y-92281075D01*
X114187867Y-92226297D01*
X114176300Y-92168147D01*
X114176300Y-92108853D01*
X114187867Y-92050703D01*
X114210557Y-91995925D01*
X114229083Y-91968198D01*
X114243498Y-91946624D01*
X114285424Y-91904698D01*
X114334723Y-91871758D01*
X114346736Y-91866782D01*
X114389503Y-91849067D01*
X114447653Y-91837500D01*
X114506947Y-91837500D01*
X114565097Y-91849067D01*
G37*
G36*
X213981512Y-90543927D02*
G01*
X214130812Y-90573624D01*
X214294784Y-90641544D01*
X214442354Y-90740147D01*
X214567853Y-90865646D01*
X214666456Y-91013216D01*
X214734376Y-91177188D01*
X214769000Y-91351259D01*
X214769000Y-91528741D01*
X214734376Y-91702812D01*
X214666456Y-91866784D01*
X214567853Y-92014354D01*
X214442354Y-92139853D01*
X214294784Y-92238456D01*
X214130812Y-92306376D01*
X213981512Y-92336073D01*
X213956742Y-92341000D01*
X213779258Y-92341000D01*
X213754488Y-92336073D01*
X213605188Y-92306376D01*
X213441216Y-92238456D01*
X213293646Y-92139853D01*
X213168147Y-92014354D01*
X213069544Y-91866784D01*
X213001624Y-91702812D01*
X212967000Y-91528741D01*
X212967000Y-91351259D01*
X213001624Y-91177188D01*
X213069544Y-91013216D01*
X213168147Y-90865646D01*
X213293646Y-90740147D01*
X213441216Y-90641544D01*
X213605188Y-90573624D01*
X213754488Y-90543927D01*
X213779258Y-90539000D01*
X213956742Y-90539000D01*
X213981512Y-90543927D01*
G37*
G36*
X110018997Y-91023567D02*
G01*
X110060289Y-91040671D01*
X110073777Y-91046258D01*
X110123076Y-91079198D01*
X110165002Y-91121124D01*
X110176896Y-91138925D01*
X110197943Y-91170425D01*
X110220633Y-91225203D01*
X110232200Y-91283353D01*
X110232200Y-91342647D01*
X110220633Y-91400797D01*
X110210990Y-91424077D01*
X110197942Y-91455577D01*
X110165002Y-91504876D01*
X110123076Y-91546802D01*
X110073777Y-91579742D01*
X110073776Y-91579743D01*
X110073775Y-91579743D01*
X110018997Y-91602433D01*
X109960847Y-91614000D01*
X109901553Y-91614000D01*
X109843403Y-91602433D01*
X109788625Y-91579743D01*
X109788624Y-91579743D01*
X109788623Y-91579742D01*
X109739324Y-91546802D01*
X109697398Y-91504876D01*
X109664458Y-91455577D01*
X109651410Y-91424077D01*
X109641767Y-91400797D01*
X109630200Y-91342647D01*
X109630200Y-91283353D01*
X109641767Y-91225203D01*
X109664457Y-91170425D01*
X109685504Y-91138925D01*
X109697398Y-91121124D01*
X109739324Y-91079198D01*
X109788623Y-91046258D01*
X109802111Y-91040671D01*
X109843403Y-91023567D01*
X109901553Y-91012000D01*
X109960847Y-91012000D01*
X110018997Y-91023567D01*
G37*
G36*
X114565097Y-90992067D02*
G01*
X114619875Y-91014757D01*
X114619877Y-91014758D01*
X114669176Y-91047698D01*
X114711102Y-91089624D01*
X114738290Y-91130315D01*
X114744043Y-91138925D01*
X114766733Y-91193703D01*
X114778300Y-91251853D01*
X114778300Y-91311147D01*
X114766733Y-91369297D01*
X114744043Y-91424075D01*
X114744042Y-91424077D01*
X114711102Y-91473376D01*
X114669176Y-91515302D01*
X114619877Y-91548242D01*
X114619876Y-91548243D01*
X114619875Y-91548243D01*
X114565097Y-91570933D01*
X114506947Y-91582500D01*
X114447653Y-91582500D01*
X114389503Y-91570933D01*
X114334725Y-91548243D01*
X114334724Y-91548243D01*
X114334723Y-91548242D01*
X114285424Y-91515302D01*
X114243498Y-91473376D01*
X114210558Y-91424077D01*
X114210557Y-91424075D01*
X114187867Y-91369297D01*
X114176300Y-91311147D01*
X114176300Y-91251853D01*
X114187867Y-91193703D01*
X114210557Y-91138925D01*
X114216310Y-91130315D01*
X114243498Y-91089624D01*
X114285424Y-91047698D01*
X114334723Y-91014758D01*
X114334725Y-91014757D01*
X114389503Y-90992067D01*
X114447653Y-90980500D01*
X114506947Y-90980500D01*
X114565097Y-90992067D01*
G37*
G36*
X213981512Y-88003927D02*
G01*
X214130812Y-88033624D01*
X214294784Y-88101544D01*
X214442354Y-88200147D01*
X214567853Y-88325646D01*
X214666456Y-88473216D01*
X214734376Y-88637188D01*
X214769000Y-88811259D01*
X214769000Y-88988741D01*
X214734376Y-89162812D01*
X214666456Y-89326784D01*
X214567853Y-89474354D01*
X214442354Y-89599853D01*
X214294784Y-89698456D01*
X214130812Y-89766376D01*
X213981512Y-89796073D01*
X213956742Y-89801000D01*
X213779258Y-89801000D01*
X213754488Y-89796073D01*
X213605188Y-89766376D01*
X213441216Y-89698456D01*
X213293646Y-89599853D01*
X213168147Y-89474354D01*
X213069544Y-89326784D01*
X213001624Y-89162812D01*
X212967000Y-88988741D01*
X212967000Y-88811259D01*
X213001624Y-88637188D01*
X213069544Y-88473216D01*
X213168147Y-88325646D01*
X213293646Y-88200147D01*
X213441216Y-88101544D01*
X213605188Y-88033624D01*
X213754488Y-88003927D01*
X213779258Y-87999000D01*
X213956742Y-87999000D01*
X213981512Y-88003927D01*
G37*
G36*
X177690000Y-87615000D02*
G01*
X175588000Y-87615000D01*
X175588000Y-85513000D01*
X177690000Y-85513000D01*
X177690000Y-87615000D01*
G37*
G36*
X182079642Y-85793781D02*
G01*
X182225414Y-85854162D01*
X182225416Y-85854163D01*
X182356608Y-85941822D01*
X182468178Y-86053392D01*
X182555837Y-86184584D01*
X182555838Y-86184586D01*
X182616219Y-86330358D01*
X182647000Y-86485107D01*
X182647000Y-86642893D01*
X182616219Y-86797642D01*
X182559591Y-86934353D01*
X182555837Y-86943416D01*
X182468178Y-87074608D01*
X182356608Y-87186178D01*
X182225416Y-87273837D01*
X182225415Y-87273838D01*
X182225414Y-87273838D01*
X182079642Y-87334219D01*
X181924893Y-87365000D01*
X181767107Y-87365000D01*
X181612358Y-87334219D01*
X181466586Y-87273838D01*
X181466585Y-87273838D01*
X181466584Y-87273837D01*
X181335392Y-87186178D01*
X181223822Y-87074608D01*
X181136163Y-86943416D01*
X181132409Y-86934353D01*
X181075781Y-86797642D01*
X181045000Y-86642893D01*
X181045000Y-86485107D01*
X181075781Y-86330358D01*
X181136162Y-86184586D01*
X181136163Y-86184584D01*
X181223822Y-86053392D01*
X181335392Y-85941822D01*
X181466584Y-85854163D01*
X181466586Y-85854162D01*
X181612358Y-85793781D01*
X181767107Y-85763000D01*
X181924893Y-85763000D01*
X182079642Y-85793781D01*
G37*
G36*
X171919642Y-85793781D02*
G01*
X172065414Y-85854162D01*
X172065416Y-85854163D01*
X172196608Y-85941822D01*
X172308178Y-86053392D01*
X172395837Y-86184584D01*
X172395838Y-86184586D01*
X172456219Y-86330358D01*
X172487000Y-86485107D01*
X172487000Y-86642893D01*
X172456219Y-86797642D01*
X172399591Y-86934353D01*
X172395837Y-86943416D01*
X172308178Y-87074608D01*
X172196608Y-87186178D01*
X172065416Y-87273837D01*
X172065415Y-87273838D01*
X172065414Y-87273838D01*
X171919642Y-87334219D01*
X171764893Y-87365000D01*
X171607107Y-87365000D01*
X171452358Y-87334219D01*
X171306586Y-87273838D01*
X171306585Y-87273838D01*
X171306584Y-87273837D01*
X171175392Y-87186178D01*
X171063822Y-87074608D01*
X170976163Y-86943416D01*
X170972409Y-86934353D01*
X170915781Y-86797642D01*
X170885000Y-86642893D01*
X170885000Y-86485107D01*
X170915781Y-86330358D01*
X170976162Y-86184586D01*
X170976163Y-86184584D01*
X171063822Y-86053392D01*
X171175392Y-85941822D01*
X171306584Y-85854163D01*
X171306586Y-85854162D01*
X171452358Y-85793781D01*
X171607107Y-85763000D01*
X171764893Y-85763000D01*
X171919642Y-85793781D01*
G37*
G36*
X213981512Y-85463927D02*
G01*
X214130812Y-85493624D01*
X214294784Y-85561544D01*
X214442354Y-85660147D01*
X214567853Y-85785646D01*
X214666456Y-85933216D01*
X214734376Y-86097188D01*
X214769000Y-86271259D01*
X214769000Y-86448741D01*
X214734376Y-86622812D01*
X214666456Y-86786784D01*
X214567853Y-86934354D01*
X214442354Y-87059853D01*
X214294784Y-87158456D01*
X214130812Y-87226376D01*
X213981512Y-87256073D01*
X213956742Y-87261000D01*
X213779258Y-87261000D01*
X213754488Y-87256073D01*
X213605188Y-87226376D01*
X213441216Y-87158456D01*
X213293646Y-87059853D01*
X213168147Y-86934354D01*
X213069544Y-86786784D01*
X213001624Y-86622812D01*
X212967000Y-86448741D01*
X212967000Y-86271259D01*
X213001624Y-86097188D01*
X213069544Y-85933216D01*
X213168147Y-85785646D01*
X213293646Y-85660147D01*
X213441216Y-85561544D01*
X213605188Y-85493624D01*
X213754488Y-85463927D01*
X213779258Y-85459000D01*
X213956742Y-85459000D01*
X213981512Y-85463927D01*
G37*
G36*
X213981512Y-82923927D02*
G01*
X214130812Y-82953624D01*
X214294784Y-83021544D01*
X214442354Y-83120147D01*
X214567853Y-83245646D01*
X214666456Y-83393216D01*
X214734376Y-83557188D01*
X214769000Y-83731259D01*
X214769000Y-83908741D01*
X214734376Y-84082812D01*
X214666456Y-84246784D01*
X214567853Y-84394354D01*
X214442354Y-84519853D01*
X214294784Y-84618456D01*
X214130812Y-84686376D01*
X213981512Y-84716073D01*
X213956742Y-84721000D01*
X213779258Y-84721000D01*
X213754488Y-84716073D01*
X213605188Y-84686376D01*
X213441216Y-84618456D01*
X213293646Y-84519853D01*
X213168147Y-84394354D01*
X213069544Y-84246784D01*
X213001624Y-84082812D01*
X212967000Y-83908741D01*
X212967000Y-83731259D01*
X213001624Y-83557188D01*
X213069544Y-83393216D01*
X213168147Y-83245646D01*
X213293646Y-83120147D01*
X213441216Y-83021544D01*
X213605188Y-82953624D01*
X213754488Y-82923927D01*
X213779258Y-82919000D01*
X213956742Y-82919000D01*
X213981512Y-82923927D01*
G37*
G36*
X214769000Y-82181000D02*
G01*
X212967000Y-82181000D01*
X212967000Y-80379000D01*
X214769000Y-80379000D01*
X214769000Y-82181000D01*
G37*
G36*
X144995642Y-76649781D02*
G01*
X145133353Y-76706823D01*
X145141416Y-76710163D01*
X145272608Y-76797822D01*
X145384178Y-76909392D01*
X145471837Y-77040584D01*
X145471838Y-77040586D01*
X145532219Y-77186358D01*
X145563000Y-77341107D01*
X145563000Y-77498893D01*
X145532219Y-77653642D01*
X145471838Y-77799414D01*
X145471837Y-77799416D01*
X145384178Y-77930608D01*
X145272608Y-78042178D01*
X145141416Y-78129837D01*
X145141415Y-78129838D01*
X145141414Y-78129838D01*
X144995642Y-78190219D01*
X144840893Y-78221000D01*
X144683107Y-78221000D01*
X144528358Y-78190219D01*
X144382586Y-78129838D01*
X144382585Y-78129838D01*
X144382584Y-78129837D01*
X144251392Y-78042178D01*
X144139822Y-77930608D01*
X144052163Y-77799416D01*
X144052162Y-77799414D01*
X143991781Y-77653642D01*
X143961000Y-77498893D01*
X143961000Y-77341107D01*
X143991781Y-77186358D01*
X144052162Y-77040586D01*
X144052163Y-77040584D01*
X144139822Y-76909392D01*
X144251392Y-76797822D01*
X144382584Y-76710163D01*
X144390647Y-76706823D01*
X144528358Y-76649781D01*
X144683107Y-76619000D01*
X144840893Y-76619000D01*
X144995642Y-76649781D01*
G37*
G36*
X160235642Y-76649781D02*
G01*
X160373353Y-76706823D01*
X160381416Y-76710163D01*
X160512608Y-76797822D01*
X160624178Y-76909392D01*
X160711837Y-77040584D01*
X160711838Y-77040586D01*
X160772219Y-77186358D01*
X160803000Y-77341107D01*
X160803000Y-77498893D01*
X160772219Y-77653642D01*
X160711838Y-77799414D01*
X160711837Y-77799416D01*
X160624178Y-77930608D01*
X160512608Y-78042178D01*
X160381416Y-78129837D01*
X160381415Y-78129838D01*
X160381414Y-78129838D01*
X160235642Y-78190219D01*
X160080893Y-78221000D01*
X159923107Y-78221000D01*
X159768358Y-78190219D01*
X159622586Y-78129838D01*
X159622585Y-78129838D01*
X159622584Y-78129837D01*
X159491392Y-78042178D01*
X159379822Y-77930608D01*
X159292163Y-77799416D01*
X159292162Y-77799414D01*
X159231781Y-77653642D01*
X159201000Y-77498893D01*
X159201000Y-77341107D01*
X159231781Y-77186358D01*
X159292162Y-77040586D01*
X159292163Y-77040584D01*
X159379822Y-76909392D01*
X159491392Y-76797822D01*
X159622584Y-76710163D01*
X159630647Y-76706823D01*
X159768358Y-76649781D01*
X159923107Y-76619000D01*
X160080893Y-76619000D01*
X160235642Y-76649781D01*
G37*
G36*
X150075642Y-76649781D02*
G01*
X150213353Y-76706823D01*
X150221416Y-76710163D01*
X150352608Y-76797822D01*
X150464178Y-76909392D01*
X150551837Y-77040584D01*
X150551838Y-77040586D01*
X150612219Y-77186358D01*
X150643000Y-77341107D01*
X150643000Y-77498893D01*
X150612219Y-77653642D01*
X150551838Y-77799414D01*
X150551837Y-77799416D01*
X150464178Y-77930608D01*
X150352608Y-78042178D01*
X150221416Y-78129837D01*
X150221415Y-78129838D01*
X150221414Y-78129838D01*
X150075642Y-78190219D01*
X149920893Y-78221000D01*
X149763107Y-78221000D01*
X149608358Y-78190219D01*
X149462586Y-78129838D01*
X149462585Y-78129838D01*
X149462584Y-78129837D01*
X149331392Y-78042178D01*
X149219822Y-77930608D01*
X149132163Y-77799416D01*
X149132162Y-77799414D01*
X149071781Y-77653642D01*
X149041000Y-77498893D01*
X149041000Y-77341107D01*
X149071781Y-77186358D01*
X149132162Y-77040586D01*
X149132163Y-77040584D01*
X149219822Y-76909392D01*
X149331392Y-76797822D01*
X149462584Y-76710163D01*
X149470647Y-76706823D01*
X149608358Y-76649781D01*
X149763107Y-76619000D01*
X149920893Y-76619000D01*
X150075642Y-76649781D01*
G37*
G36*
X139915642Y-76649781D02*
G01*
X140053353Y-76706823D01*
X140061416Y-76710163D01*
X140192608Y-76797822D01*
X140304178Y-76909392D01*
X140391837Y-77040584D01*
X140391838Y-77040586D01*
X140452219Y-77186358D01*
X140483000Y-77341107D01*
X140483000Y-77498893D01*
X140452219Y-77653642D01*
X140391838Y-77799414D01*
X140391837Y-77799416D01*
X140304178Y-77930608D01*
X140192608Y-78042178D01*
X140061416Y-78129837D01*
X140061415Y-78129838D01*
X140061414Y-78129838D01*
X139915642Y-78190219D01*
X139760893Y-78221000D01*
X139603107Y-78221000D01*
X139448358Y-78190219D01*
X139302586Y-78129838D01*
X139302585Y-78129838D01*
X139302584Y-78129837D01*
X139171392Y-78042178D01*
X139059822Y-77930608D01*
X138972163Y-77799416D01*
X138972162Y-77799414D01*
X138911781Y-77653642D01*
X138881000Y-77498893D01*
X138881000Y-77341107D01*
X138911781Y-77186358D01*
X138972162Y-77040586D01*
X138972163Y-77040584D01*
X139059822Y-76909392D01*
X139171392Y-76797822D01*
X139302584Y-76710163D01*
X139310647Y-76706823D01*
X139448358Y-76649781D01*
X139603107Y-76619000D01*
X139760893Y-76619000D01*
X139915642Y-76649781D01*
G37*
G36*
X165315642Y-76649781D02*
G01*
X165453353Y-76706823D01*
X165461416Y-76710163D01*
X165592608Y-76797822D01*
X165704178Y-76909392D01*
X165791837Y-77040584D01*
X165791838Y-77040586D01*
X165852219Y-77186358D01*
X165883000Y-77341107D01*
X165883000Y-77498893D01*
X165852219Y-77653642D01*
X165791838Y-77799414D01*
X165791837Y-77799416D01*
X165704178Y-77930608D01*
X165592608Y-78042178D01*
X165461416Y-78129837D01*
X165461415Y-78129838D01*
X165461414Y-78129838D01*
X165315642Y-78190219D01*
X165160893Y-78221000D01*
X165003107Y-78221000D01*
X164848358Y-78190219D01*
X164702586Y-78129838D01*
X164702585Y-78129838D01*
X164702584Y-78129837D01*
X164571392Y-78042178D01*
X164459822Y-77930608D01*
X164372163Y-77799416D01*
X164372162Y-77799414D01*
X164311781Y-77653642D01*
X164281000Y-77498893D01*
X164281000Y-77341107D01*
X164311781Y-77186358D01*
X164372162Y-77040586D01*
X164372163Y-77040584D01*
X164459822Y-76909392D01*
X164571392Y-76797822D01*
X164702584Y-76710163D01*
X164710647Y-76706823D01*
X164848358Y-76649781D01*
X165003107Y-76619000D01*
X165160893Y-76619000D01*
X165315642Y-76649781D01*
G37*
G36*
X155155642Y-76649781D02*
G01*
X155293353Y-76706823D01*
X155301416Y-76710163D01*
X155432608Y-76797822D01*
X155544178Y-76909392D01*
X155631837Y-77040584D01*
X155631838Y-77040586D01*
X155692219Y-77186358D01*
X155723000Y-77341107D01*
X155723000Y-77498893D01*
X155692219Y-77653642D01*
X155631838Y-77799414D01*
X155631837Y-77799416D01*
X155544178Y-77930608D01*
X155432608Y-78042178D01*
X155301416Y-78129837D01*
X155301415Y-78129838D01*
X155301414Y-78129838D01*
X155155642Y-78190219D01*
X155000893Y-78221000D01*
X154843107Y-78221000D01*
X154688358Y-78190219D01*
X154542586Y-78129838D01*
X154542585Y-78129838D01*
X154542584Y-78129837D01*
X154411392Y-78042178D01*
X154299822Y-77930608D01*
X154212163Y-77799416D01*
X154212162Y-77799414D01*
X154151781Y-77653642D01*
X154121000Y-77498893D01*
X154121000Y-77341107D01*
X154151781Y-77186358D01*
X154212162Y-77040586D01*
X154212163Y-77040584D01*
X154299822Y-76909392D01*
X154411392Y-76797822D01*
X154542584Y-76710163D01*
X154550647Y-76706823D01*
X154688358Y-76649781D01*
X154843107Y-76619000D01*
X155000893Y-76619000D01*
X155155642Y-76649781D01*
G37*
G36*
X170400942Y-76646441D02*
G01*
X170546714Y-76706822D01*
X170546716Y-76706823D01*
X170677908Y-76794482D01*
X170789478Y-76906052D01*
X170791710Y-76909393D01*
X170877138Y-77037246D01*
X170937519Y-77183018D01*
X170968300Y-77337767D01*
X170968300Y-77495553D01*
X170937519Y-77650302D01*
X170936135Y-77653643D01*
X170877137Y-77796076D01*
X170789478Y-77927268D01*
X170677908Y-78038838D01*
X170546716Y-78126497D01*
X170546715Y-78126498D01*
X170546714Y-78126498D01*
X170400942Y-78186879D01*
X170246193Y-78217660D01*
X170088407Y-78217660D01*
X169933658Y-78186879D01*
X169787886Y-78126498D01*
X169787885Y-78126498D01*
X169787884Y-78126497D01*
X169656692Y-78038838D01*
X169545122Y-77927268D01*
X169457463Y-77796076D01*
X169398465Y-77653643D01*
X169397081Y-77650302D01*
X169366300Y-77495553D01*
X169366300Y-77337767D01*
X169397081Y-77183018D01*
X169457462Y-77037246D01*
X169542890Y-76909393D01*
X169545122Y-76906052D01*
X169656692Y-76794482D01*
X169787884Y-76706823D01*
X169787886Y-76706822D01*
X169933658Y-76646441D01*
X170088407Y-76615660D01*
X170246193Y-76615660D01*
X170400942Y-76646441D01*
G37*
G36*
X90079997Y-71821167D02*
G01*
X90134775Y-71843857D01*
X90134777Y-71843858D01*
X90184076Y-71876798D01*
X90226002Y-71918724D01*
X90258942Y-71968023D01*
X90258943Y-71968025D01*
X90281633Y-72022803D01*
X90283963Y-72034516D01*
X90291076Y-72057965D01*
X90302627Y-72079576D01*
X90318172Y-72098518D01*
X90337114Y-72114064D01*
X90358724Y-72125615D01*
X90382173Y-72132728D01*
X90406559Y-72135130D01*
X90430945Y-72132728D01*
X90454394Y-72125615D01*
X90476005Y-72114064D01*
X90494947Y-72098519D01*
X90510493Y-72079577D01*
X90522044Y-72057966D01*
X90538257Y-72018825D01*
X90538258Y-72018823D01*
X90571198Y-71969524D01*
X90613124Y-71927598D01*
X90662423Y-71894658D01*
X90665641Y-71893325D01*
X90717203Y-71871967D01*
X90775353Y-71860400D01*
X90834647Y-71860400D01*
X90892797Y-71871967D01*
X90944359Y-71893325D01*
X90947577Y-71894658D01*
X90996876Y-71927598D01*
X91038802Y-71969524D01*
X91071742Y-72018823D01*
X91071743Y-72018825D01*
X91094433Y-72073603D01*
X91106000Y-72131753D01*
X91106000Y-72191047D01*
X91094433Y-72249197D01*
X91092785Y-72253175D01*
X91071742Y-72303977D01*
X91038802Y-72353276D01*
X90996876Y-72395202D01*
X90947577Y-72428142D01*
X90947576Y-72428143D01*
X90947575Y-72428143D01*
X90892797Y-72450833D01*
X90834647Y-72462400D01*
X90775353Y-72462400D01*
X90717203Y-72450833D01*
X90662425Y-72428143D01*
X90662424Y-72428143D01*
X90662423Y-72428142D01*
X90613124Y-72395202D01*
X90571198Y-72353276D01*
X90538258Y-72303977D01*
X90517215Y-72253175D01*
X90515567Y-72249197D01*
X90513237Y-72237484D01*
X90506124Y-72214035D01*
X90494573Y-72192424D01*
X90479028Y-72173482D01*
X90460086Y-72157936D01*
X90438476Y-72146385D01*
X90415027Y-72139272D01*
X90390641Y-72136870D01*
X90366255Y-72139272D01*
X90342806Y-72146385D01*
X90321195Y-72157936D01*
X90302253Y-72173481D01*
X90286707Y-72192423D01*
X90275156Y-72214034D01*
X90260591Y-72249197D01*
X90258942Y-72253177D01*
X90226002Y-72302476D01*
X90184076Y-72344402D01*
X90134777Y-72377342D01*
X90134776Y-72377343D01*
X90134775Y-72377343D01*
X90079997Y-72400033D01*
X90021847Y-72411600D01*
X89962553Y-72411600D01*
X89904403Y-72400033D01*
X89849625Y-72377343D01*
X89849624Y-72377343D01*
X89849623Y-72377342D01*
X89800324Y-72344402D01*
X89758398Y-72302476D01*
X89725458Y-72253177D01*
X89709245Y-72214035D01*
X89702767Y-72198397D01*
X89691200Y-72140247D01*
X89691200Y-72080953D01*
X89702767Y-72022803D01*
X89725457Y-71968025D01*
X89725458Y-71968023D01*
X89758398Y-71918724D01*
X89800324Y-71876798D01*
X89849623Y-71843858D01*
X89849625Y-71843857D01*
X89904403Y-71821167D01*
X89962553Y-71809600D01*
X90021847Y-71809600D01*
X90079997Y-71821167D01*
G37*
G36*
X87463797Y-71871967D02*
G01*
X87515359Y-71893325D01*
X87518577Y-71894658D01*
X87567876Y-71927598D01*
X87609802Y-71969524D01*
X87642742Y-72018823D01*
X87642743Y-72018825D01*
X87665433Y-72073603D01*
X87677000Y-72131753D01*
X87677000Y-72191047D01*
X87665433Y-72249197D01*
X87663785Y-72253175D01*
X87642742Y-72303977D01*
X87609802Y-72353276D01*
X87567876Y-72395202D01*
X87518577Y-72428142D01*
X87518576Y-72428143D01*
X87518575Y-72428143D01*
X87463797Y-72450833D01*
X87405647Y-72462400D01*
X87346353Y-72462400D01*
X87288203Y-72450833D01*
X87233425Y-72428143D01*
X87233424Y-72428143D01*
X87233423Y-72428142D01*
X87184124Y-72395202D01*
X87142198Y-72353276D01*
X87109258Y-72303977D01*
X87088215Y-72253175D01*
X87086567Y-72249197D01*
X87075000Y-72191047D01*
X87075000Y-72131753D01*
X87086567Y-72073603D01*
X87109257Y-72018825D01*
X87109258Y-72018823D01*
X87142198Y-71969524D01*
X87184124Y-71927598D01*
X87233423Y-71894658D01*
X87236641Y-71893325D01*
X87288203Y-71871967D01*
X87346353Y-71860400D01*
X87405647Y-71860400D01*
X87463797Y-71871967D01*
G37*
G36*
X88352797Y-71821167D02*
G01*
X88407575Y-71843857D01*
X88407577Y-71843858D01*
X88456876Y-71876798D01*
X88498802Y-71918724D01*
X88531742Y-71968023D01*
X88531743Y-71968025D01*
X88554433Y-72022803D01*
X88567304Y-72087509D01*
X88571005Y-72099710D01*
X88568402Y-72108291D01*
X88566000Y-72132677D01*
X88566000Y-72140247D01*
X88554433Y-72198397D01*
X88547955Y-72214035D01*
X88531742Y-72253177D01*
X88498802Y-72302476D01*
X88456876Y-72344402D01*
X88407577Y-72377342D01*
X88407576Y-72377343D01*
X88407575Y-72377343D01*
X88352797Y-72400033D01*
X88294647Y-72411600D01*
X88235353Y-72411600D01*
X88177203Y-72400033D01*
X88122425Y-72377343D01*
X88122424Y-72377343D01*
X88122423Y-72377342D01*
X88073124Y-72344402D01*
X88031198Y-72302476D01*
X87998258Y-72253177D01*
X87982045Y-72214035D01*
X87975567Y-72198397D01*
X87964000Y-72140247D01*
X87964000Y-72080953D01*
X87975567Y-72022803D01*
X87998257Y-71968025D01*
X87998258Y-71968023D01*
X88031198Y-71918724D01*
X88073124Y-71876798D01*
X88122423Y-71843858D01*
X88122425Y-71843857D01*
X88177203Y-71821167D01*
X88235353Y-71809600D01*
X88294647Y-71809600D01*
X88352797Y-71821167D01*
G37*
G36*
X89203697Y-71795767D02*
G01*
X89258475Y-71818457D01*
X89258477Y-71818458D01*
X89307776Y-71851398D01*
X89349702Y-71893324D01*
X89382642Y-71942623D01*
X89382643Y-71942625D01*
X89405333Y-71997403D01*
X89416900Y-72055553D01*
X89416900Y-72114847D01*
X89405333Y-72172997D01*
X89388334Y-72214035D01*
X89382642Y-72227777D01*
X89349702Y-72277076D01*
X89307776Y-72319002D01*
X89258477Y-72351942D01*
X89258476Y-72351943D01*
X89258475Y-72351943D01*
X89203697Y-72374633D01*
X89145547Y-72386200D01*
X89086253Y-72386200D01*
X89028103Y-72374633D01*
X88973325Y-72351943D01*
X88973324Y-72351943D01*
X88973323Y-72351942D01*
X88924024Y-72319002D01*
X88882098Y-72277076D01*
X88849158Y-72227777D01*
X88843466Y-72214035D01*
X88826467Y-72172997D01*
X88813596Y-72108291D01*
X88809895Y-72096090D01*
X88812498Y-72087509D01*
X88814900Y-72063123D01*
X88814900Y-72055553D01*
X88826467Y-71997403D01*
X88849157Y-71942625D01*
X88849158Y-71942623D01*
X88882098Y-71893324D01*
X88924024Y-71851398D01*
X88973323Y-71818458D01*
X88973325Y-71818457D01*
X89028103Y-71795767D01*
X89086253Y-71784200D01*
X89145547Y-71784200D01*
X89203697Y-71795767D01*
G37*
G36*
X202193000Y-71351000D02*
G01*
X199091000Y-71351000D01*
X199091000Y-68249000D01*
X202193000Y-68249000D01*
X202193000Y-71351000D01*
G37*
G36*
X130423000Y-67907000D02*
G01*
X128621000Y-67907000D01*
X128621000Y-66105000D01*
X130423000Y-66105000D01*
X130423000Y-67907000D01*
G37*
G36*
X134715512Y-66109927D02*
G01*
X134864812Y-66139624D01*
X135028784Y-66207544D01*
X135176354Y-66306147D01*
X135301853Y-66431646D01*
X135400456Y-66579216D01*
X135468376Y-66743188D01*
X135503000Y-66917259D01*
X135503000Y-67094741D01*
X135468376Y-67268812D01*
X135400456Y-67432784D01*
X135301853Y-67580354D01*
X135176354Y-67705853D01*
X135028784Y-67804456D01*
X134864812Y-67872376D01*
X134715512Y-67902073D01*
X134690742Y-67907000D01*
X134513258Y-67907000D01*
X134488488Y-67902073D01*
X134339188Y-67872376D01*
X134175216Y-67804456D01*
X134027646Y-67705853D01*
X133902147Y-67580354D01*
X133803544Y-67432784D01*
X133735624Y-67268812D01*
X133701000Y-67094741D01*
X133701000Y-66917259D01*
X133735624Y-66743188D01*
X133803544Y-66579216D01*
X133902147Y-66431646D01*
X134027646Y-66306147D01*
X134175216Y-66207544D01*
X134339188Y-66139624D01*
X134488488Y-66109927D01*
X134513258Y-66105000D01*
X134690742Y-66105000D01*
X134715512Y-66109927D01*
G37*
G36*
X132175512Y-66109927D02*
G01*
X132324812Y-66139624D01*
X132488784Y-66207544D01*
X132636354Y-66306147D01*
X132761853Y-66431646D01*
X132860456Y-66579216D01*
X132928376Y-66743188D01*
X132963000Y-66917259D01*
X132963000Y-67094741D01*
X132928376Y-67268812D01*
X132860456Y-67432784D01*
X132761853Y-67580354D01*
X132636354Y-67705853D01*
X132488784Y-67804456D01*
X132324812Y-67872376D01*
X132175512Y-67902073D01*
X132150742Y-67907000D01*
X131973258Y-67907000D01*
X131948488Y-67902073D01*
X131799188Y-67872376D01*
X131635216Y-67804456D01*
X131487646Y-67705853D01*
X131362147Y-67580354D01*
X131263544Y-67432784D01*
X131195624Y-67268812D01*
X131161000Y-67094741D01*
X131161000Y-66917259D01*
X131195624Y-66743188D01*
X131263544Y-66579216D01*
X131362147Y-66431646D01*
X131487646Y-66306147D01*
X131635216Y-66207544D01*
X131799188Y-66139624D01*
X131948488Y-66109927D01*
X131973258Y-66105000D01*
X132150742Y-66105000D01*
X132175512Y-66109927D01*
G37*
G36*
X87432297Y-66741667D02*
G01*
X87487075Y-66764357D01*
X87487077Y-66764358D01*
X87536376Y-66797298D01*
X87578302Y-66839224D01*
X87611242Y-66888523D01*
X87611243Y-66888525D01*
X87633933Y-66943303D01*
X87645500Y-67001453D01*
X87645500Y-67060747D01*
X87633933Y-67118897D01*
X87611243Y-67173675D01*
X87611242Y-67173677D01*
X87578302Y-67222976D01*
X87536376Y-67264902D01*
X87487077Y-67297842D01*
X87487076Y-67297843D01*
X87487075Y-67297843D01*
X87432297Y-67320533D01*
X87374147Y-67332100D01*
X87314853Y-67332100D01*
X87256703Y-67320533D01*
X87201925Y-67297843D01*
X87201924Y-67297843D01*
X87201923Y-67297842D01*
X87152624Y-67264902D01*
X87110698Y-67222976D01*
X87077758Y-67173677D01*
X87077757Y-67173675D01*
X87055067Y-67118897D01*
X87043500Y-67060747D01*
X87043500Y-67001453D01*
X87055067Y-66943303D01*
X87077757Y-66888525D01*
X87077758Y-66888523D01*
X87110698Y-66839224D01*
X87152624Y-66797298D01*
X87201923Y-66764358D01*
X87201925Y-66764357D01*
X87256703Y-66741667D01*
X87314853Y-66730100D01*
X87374147Y-66730100D01*
X87432297Y-66741667D01*
G37*
G36*
X88289297Y-66741667D02*
G01*
X88344075Y-66764357D01*
X88344077Y-66764358D01*
X88393376Y-66797298D01*
X88435302Y-66839224D01*
X88468242Y-66888523D01*
X88468243Y-66888525D01*
X88490933Y-66943303D01*
X88502500Y-67001453D01*
X88502500Y-67060747D01*
X88490933Y-67118897D01*
X88468243Y-67173675D01*
X88468242Y-67173677D01*
X88435302Y-67222976D01*
X88393376Y-67264902D01*
X88344077Y-67297842D01*
X88344076Y-67297843D01*
X88344075Y-67297843D01*
X88289297Y-67320533D01*
X88231147Y-67332100D01*
X88171853Y-67332100D01*
X88113703Y-67320533D01*
X88058925Y-67297843D01*
X88058924Y-67297843D01*
X88058923Y-67297842D01*
X88009624Y-67264902D01*
X87967698Y-67222976D01*
X87934758Y-67173677D01*
X87934757Y-67173675D01*
X87912067Y-67118897D01*
X87900500Y-67060747D01*
X87900500Y-67001453D01*
X87912067Y-66943303D01*
X87934757Y-66888525D01*
X87934758Y-66888523D01*
X87967698Y-66839224D01*
X88009624Y-66797298D01*
X88058923Y-66764358D01*
X88058925Y-66764357D01*
X88113703Y-66741667D01*
X88171853Y-66730100D01*
X88231147Y-66730100D01*
X88289297Y-66741667D01*
G37*
G36*
X89178297Y-66741667D02*
G01*
X89233075Y-66764357D01*
X89233077Y-66764358D01*
X89282376Y-66797298D01*
X89324302Y-66839224D01*
X89357242Y-66888523D01*
X89357243Y-66888525D01*
X89379933Y-66943303D01*
X89391500Y-67001453D01*
X89391500Y-67060747D01*
X89379933Y-67118897D01*
X89357243Y-67173675D01*
X89357242Y-67173677D01*
X89324302Y-67222976D01*
X89282376Y-67264902D01*
X89233077Y-67297842D01*
X89233076Y-67297843D01*
X89233075Y-67297843D01*
X89178297Y-67320533D01*
X89120147Y-67332100D01*
X89060853Y-67332100D01*
X89002703Y-67320533D01*
X88947925Y-67297843D01*
X88947924Y-67297843D01*
X88947923Y-67297842D01*
X88898624Y-67264902D01*
X88856698Y-67222976D01*
X88823758Y-67173677D01*
X88823757Y-67173675D01*
X88801067Y-67118897D01*
X88789500Y-67060747D01*
X88789500Y-67001453D01*
X88801067Y-66943303D01*
X88823757Y-66888525D01*
X88823758Y-66888523D01*
X88856698Y-66839224D01*
X88898624Y-66797298D01*
X88947923Y-66764358D01*
X88947925Y-66764357D01*
X89002703Y-66741667D01*
X89060853Y-66730100D01*
X89120147Y-66730100D01*
X89178297Y-66741667D01*
G37*
G36*
X90067297Y-66741667D02*
G01*
X90122075Y-66764357D01*
X90122077Y-66764358D01*
X90171376Y-66797298D01*
X90213302Y-66839224D01*
X90246242Y-66888523D01*
X90246243Y-66888525D01*
X90268933Y-66943303D01*
X90280500Y-67001453D01*
X90280500Y-67060747D01*
X90268933Y-67118897D01*
X90246243Y-67173675D01*
X90246242Y-67173677D01*
X90213302Y-67222976D01*
X90171376Y-67264902D01*
X90122077Y-67297842D01*
X90122076Y-67297843D01*
X90122075Y-67297843D01*
X90067297Y-67320533D01*
X90009147Y-67332100D01*
X89949853Y-67332100D01*
X89891703Y-67320533D01*
X89836925Y-67297843D01*
X89836924Y-67297843D01*
X89836923Y-67297842D01*
X89787624Y-67264902D01*
X89745698Y-67222976D01*
X89712758Y-67173677D01*
X89712757Y-67173675D01*
X89690067Y-67118897D01*
X89678500Y-67060747D01*
X89678500Y-67001453D01*
X89690067Y-66943303D01*
X89712757Y-66888525D01*
X89712758Y-66888523D01*
X89745698Y-66839224D01*
X89787624Y-66797298D01*
X89836923Y-66764358D01*
X89836925Y-66764357D01*
X89891703Y-66741667D01*
X89949853Y-66730100D01*
X90009147Y-66730100D01*
X90067297Y-66741667D01*
G37*
G36*
X90968997Y-66741667D02*
G01*
X91023775Y-66764357D01*
X91023777Y-66764358D01*
X91073076Y-66797298D01*
X91115002Y-66839224D01*
X91147942Y-66888523D01*
X91147943Y-66888525D01*
X91170633Y-66943303D01*
X91182200Y-67001453D01*
X91182200Y-67060747D01*
X91170633Y-67118897D01*
X91147943Y-67173675D01*
X91147942Y-67173677D01*
X91115002Y-67222976D01*
X91073076Y-67264902D01*
X91023777Y-67297842D01*
X91023776Y-67297843D01*
X91023775Y-67297843D01*
X90968997Y-67320533D01*
X90910847Y-67332100D01*
X90851553Y-67332100D01*
X90793403Y-67320533D01*
X90738625Y-67297843D01*
X90738624Y-67297843D01*
X90738623Y-67297842D01*
X90689324Y-67264902D01*
X90647398Y-67222976D01*
X90614458Y-67173677D01*
X90614457Y-67173675D01*
X90591767Y-67118897D01*
X90580200Y-67060747D01*
X90580200Y-67001453D01*
X90591767Y-66943303D01*
X90614457Y-66888525D01*
X90614458Y-66888523D01*
X90647398Y-66839224D01*
X90689324Y-66797298D01*
X90738623Y-66764358D01*
X90738625Y-66764357D01*
X90793403Y-66741667D01*
X90851553Y-66730100D01*
X90910847Y-66730100D01*
X90968997Y-66741667D01*
G37*
G36*
X101363941Y-65040354D02*
G01*
X102397305Y-65457860D01*
X101909567Y-66665054D01*
X101909566Y-66665054D01*
X101021243Y-66306148D01*
X100424217Y-66064934D01*
X100911955Y-64857740D01*
X100911956Y-64857740D01*
X101363941Y-65040354D01*
G37*
G36*
X200944585Y-63198802D02*
G01*
X201094410Y-63228604D01*
X201376674Y-63345521D01*
X201630705Y-63515259D01*
X201846741Y-63731295D01*
X202016479Y-63985326D01*
X202106720Y-64203189D01*
X202133396Y-64267591D01*
X202193000Y-64567239D01*
X202193000Y-64872761D01*
X202163198Y-65022585D01*
X202133396Y-65172410D01*
X202016479Y-65454674D01*
X201846741Y-65708705D01*
X201630705Y-65924741D01*
X201376674Y-66094479D01*
X201094410Y-66211396D01*
X200944585Y-66241198D01*
X200794761Y-66271000D01*
X200489239Y-66271000D01*
X200339415Y-66241198D01*
X200189590Y-66211396D01*
X199907326Y-66094479D01*
X199653295Y-65924741D01*
X199437259Y-65708705D01*
X199267521Y-65454674D01*
X199150604Y-65172410D01*
X199120802Y-65022585D01*
X199091000Y-64872761D01*
X199091000Y-64567239D01*
X199150604Y-64267591D01*
X199177280Y-64203189D01*
X199267521Y-63985326D01*
X199437259Y-63731295D01*
X199653295Y-63515259D01*
X199907326Y-63345521D01*
X200189590Y-63228604D01*
X200339415Y-63198802D01*
X200489239Y-63169000D01*
X200794761Y-63169000D01*
X200944585Y-63198802D01*
G37*
G36*
X132175512Y-63569927D02*
G01*
X132324812Y-63599624D01*
X132488784Y-63667544D01*
X132636354Y-63766147D01*
X132761853Y-63891646D01*
X132860456Y-64039216D01*
X132928376Y-64203188D01*
X132941186Y-64267591D01*
X132963000Y-64377258D01*
X132963000Y-64554742D01*
X132960514Y-64567239D01*
X132928376Y-64728812D01*
X132860456Y-64892784D01*
X132761853Y-65040354D01*
X132636354Y-65165853D01*
X132488784Y-65264456D01*
X132324812Y-65332376D01*
X132175512Y-65362073D01*
X132150742Y-65367000D01*
X131973258Y-65367000D01*
X131948488Y-65362073D01*
X131799188Y-65332376D01*
X131635216Y-65264456D01*
X131487646Y-65165853D01*
X131362147Y-65040354D01*
X131263544Y-64892784D01*
X131195624Y-64728812D01*
X131163486Y-64567239D01*
X131161000Y-64554742D01*
X131161000Y-64377258D01*
X131182814Y-64267591D01*
X131195624Y-64203188D01*
X131263544Y-64039216D01*
X131362147Y-63891646D01*
X131487646Y-63766147D01*
X131635216Y-63667544D01*
X131799188Y-63599624D01*
X131948488Y-63569927D01*
X131973258Y-63565000D01*
X132150742Y-63565000D01*
X132175512Y-63569927D01*
G37*
G36*
X134715512Y-63569927D02*
G01*
X134864812Y-63599624D01*
X135028784Y-63667544D01*
X135176354Y-63766147D01*
X135301853Y-63891646D01*
X135400456Y-64039216D01*
X135468376Y-64203188D01*
X135481186Y-64267591D01*
X135503000Y-64377258D01*
X135503000Y-64554742D01*
X135500514Y-64567239D01*
X135468376Y-64728812D01*
X135400456Y-64892784D01*
X135301853Y-65040354D01*
X135176354Y-65165853D01*
X135028784Y-65264456D01*
X134864812Y-65332376D01*
X134715512Y-65362073D01*
X134690742Y-65367000D01*
X134513258Y-65367000D01*
X134488488Y-65362073D01*
X134339188Y-65332376D01*
X134175216Y-65264456D01*
X134027646Y-65165853D01*
X133902147Y-65040354D01*
X133803544Y-64892784D01*
X133735624Y-64728812D01*
X133703486Y-64567239D01*
X133701000Y-64554742D01*
X133701000Y-64377258D01*
X133722814Y-64267591D01*
X133735624Y-64203188D01*
X133803544Y-64039216D01*
X133902147Y-63891646D01*
X134027646Y-63766147D01*
X134175216Y-63667544D01*
X134339188Y-63599624D01*
X134488488Y-63569927D01*
X134513258Y-63565000D01*
X134690742Y-63565000D01*
X134715512Y-63569927D01*
G37*
G36*
X129635512Y-63569927D02*
G01*
X129784812Y-63599624D01*
X129948784Y-63667544D01*
X130096354Y-63766147D01*
X130221853Y-63891646D01*
X130320456Y-64039216D01*
X130388376Y-64203188D01*
X130401186Y-64267591D01*
X130423000Y-64377258D01*
X130423000Y-64554742D01*
X130420514Y-64567239D01*
X130388376Y-64728812D01*
X130320456Y-64892784D01*
X130221853Y-65040354D01*
X130096354Y-65165853D01*
X129948784Y-65264456D01*
X129784812Y-65332376D01*
X129635512Y-65362073D01*
X129610742Y-65367000D01*
X129433258Y-65367000D01*
X129408488Y-65362073D01*
X129259188Y-65332376D01*
X129095216Y-65264456D01*
X128947646Y-65165853D01*
X128822147Y-65040354D01*
X128723544Y-64892784D01*
X128655624Y-64728812D01*
X128623486Y-64567239D01*
X128621000Y-64554742D01*
X128621000Y-64377258D01*
X128642814Y-64267591D01*
X128655624Y-64203188D01*
X128723544Y-64039216D01*
X128822147Y-63891646D01*
X128947646Y-63766147D01*
X129095216Y-63667544D01*
X129259188Y-63599624D01*
X129408488Y-63569927D01*
X129433258Y-63565000D01*
X129610742Y-63565000D01*
X129635512Y-63569927D01*
G37*
G36*
X97798011Y-63599625D02*
G01*
X98688570Y-63959434D01*
X98200832Y-65166628D01*
X98200831Y-65166628D01*
X97117199Y-64728812D01*
X96715482Y-64566508D01*
X97203220Y-63359314D01*
X97203221Y-63359314D01*
X97798011Y-63599625D01*
G37*
G36*
X74561000Y-64909000D02*
G01*
X72759000Y-64909000D01*
X72759000Y-63107000D01*
X74561000Y-63107000D01*
X74561000Y-64909000D01*
G37*
G36*
X102071112Y-63169000D02*
G01*
X103146518Y-63603492D01*
X102658780Y-64810686D01*
X102658779Y-64810686D01*
X101586010Y-64377259D01*
X101173430Y-64210566D01*
X101661168Y-63003372D01*
X101661169Y-63003372D01*
X102071112Y-63169000D01*
G37*
G36*
X98646960Y-61785553D02*
G01*
X99437783Y-62105066D01*
X98950045Y-63312260D01*
X98950044Y-63312260D01*
X98185520Y-63003372D01*
X97464695Y-62712140D01*
X97952433Y-61504946D01*
X97952434Y-61504946D01*
X98646960Y-61785553D01*
G37*
G36*
X132409768Y-61283819D02*
G01*
X132445008Y-61297083D01*
X132476990Y-61316970D01*
X132504473Y-61342711D01*
X132530003Y-61378338D01*
X132693254Y-61661098D01*
X133009276Y-62208464D01*
X133009279Y-62208471D01*
X133044662Y-62269756D01*
X133062754Y-62309684D01*
X133071305Y-62346358D01*
X133072537Y-62383993D01*
X133066404Y-62421143D01*
X133053140Y-62456383D01*
X133033253Y-62488365D01*
X133007512Y-62515848D01*
X132971888Y-62541376D01*
X132102115Y-63043540D01*
X132062191Y-63061629D01*
X132025517Y-63070180D01*
X131987882Y-63071412D01*
X131950732Y-63065279D01*
X131915492Y-63052015D01*
X131883510Y-63032128D01*
X131856027Y-63006387D01*
X131830497Y-62970760D01*
X131614412Y-62596489D01*
X131351224Y-62140634D01*
X131351221Y-62140627D01*
X131315838Y-62079342D01*
X131297746Y-62039414D01*
X131289195Y-62002740D01*
X131287963Y-61965105D01*
X131294096Y-61927955D01*
X131307360Y-61892715D01*
X131327247Y-61860733D01*
X131352988Y-61833250D01*
X131388612Y-61807722D01*
X132258385Y-61305558D01*
X132298309Y-61287469D01*
X132334983Y-61278918D01*
X132372618Y-61277686D01*
X132409768Y-61283819D01*
G37*
G36*
X102582733Y-60980042D02*
G01*
X103921305Y-61520860D01*
X103433567Y-62728054D01*
X103433566Y-62728054D01*
X102459177Y-62334375D01*
X101948217Y-62127934D01*
X102435955Y-60920740D01*
X102435956Y-60920740D01*
X102582733Y-60980042D01*
G37*
G36*
X73773512Y-60571927D02*
G01*
X73922812Y-60601624D01*
X74086784Y-60669544D01*
X74234354Y-60768147D01*
X74359853Y-60893646D01*
X74458456Y-61041216D01*
X74526376Y-61205188D01*
X74549503Y-61321459D01*
X74560127Y-61374867D01*
X74561000Y-61379259D01*
X74561000Y-61556741D01*
X74526376Y-61730812D01*
X74458456Y-61894784D01*
X74359853Y-62042354D01*
X74234354Y-62167853D01*
X74086784Y-62266456D01*
X73922812Y-62334376D01*
X73789433Y-62360906D01*
X73748742Y-62369000D01*
X73571258Y-62369000D01*
X73530567Y-62360906D01*
X73397188Y-62334376D01*
X73233216Y-62266456D01*
X73085646Y-62167853D01*
X72960147Y-62042354D01*
X72861544Y-61894784D01*
X72793624Y-61730812D01*
X72759000Y-61556741D01*
X72759000Y-61379259D01*
X72759874Y-61374867D01*
X72770497Y-61321459D01*
X72793624Y-61205188D01*
X72861544Y-61041216D01*
X72960147Y-60893646D01*
X73085646Y-60768147D01*
X73233216Y-60669544D01*
X73397188Y-60601624D01*
X73546488Y-60571927D01*
X73571258Y-60567000D01*
X73748742Y-60567000D01*
X73773512Y-60571927D01*
G37*
G36*
X134487256Y-58589298D02*
G01*
X134593579Y-58610447D01*
X134894042Y-58734903D01*
X135164451Y-58915585D01*
X135394415Y-59145549D01*
X135547903Y-59375260D01*
X135575098Y-59415960D01*
X135610883Y-59502353D01*
X135682650Y-59675613D01*
X135699553Y-59716422D01*
X135763000Y-60035389D01*
X135763000Y-60360611D01*
X135727045Y-60541366D01*
X135699553Y-60679579D01*
X135575097Y-60980042D01*
X135394415Y-61250451D01*
X135164451Y-61480415D01*
X134894042Y-61661097D01*
X134593579Y-61785553D01*
X134487256Y-61806702D01*
X134274611Y-61849000D01*
X133949389Y-61849000D01*
X133736744Y-61806702D01*
X133630421Y-61785553D01*
X133329958Y-61661097D01*
X133059549Y-61480415D01*
X132829585Y-61250451D01*
X132648903Y-60980042D01*
X132524447Y-60679579D01*
X132496955Y-60541366D01*
X132461000Y-60360611D01*
X132461000Y-60035389D01*
X132524447Y-59716422D01*
X132541351Y-59675613D01*
X132613117Y-59502353D01*
X132648902Y-59415960D01*
X132676097Y-59375260D01*
X132829585Y-59145549D01*
X133059549Y-58915585D01*
X133329958Y-58734903D01*
X133630421Y-58610447D01*
X133736744Y-58589298D01*
X133949389Y-58547000D01*
X134274611Y-58547000D01*
X134487256Y-58589298D01*
G37*
G36*
X131447268Y-59616721D02*
G01*
X131482508Y-59629985D01*
X131514490Y-59649872D01*
X131541973Y-59675613D01*
X131567503Y-59711240D01*
X131747170Y-60022434D01*
X132046776Y-60541366D01*
X132046779Y-60541373D01*
X132082162Y-60602658D01*
X132100254Y-60642586D01*
X132108805Y-60679260D01*
X132110037Y-60716895D01*
X132103904Y-60754045D01*
X132090640Y-60789285D01*
X132070753Y-60821267D01*
X132045012Y-60848750D01*
X132009388Y-60874278D01*
X131139615Y-61376442D01*
X131099691Y-61394531D01*
X131063017Y-61403082D01*
X131025382Y-61404314D01*
X130988232Y-61398181D01*
X130952992Y-61384917D01*
X130921010Y-61365030D01*
X130893527Y-61339289D01*
X130867997Y-61303662D01*
X130646917Y-60920740D01*
X130388724Y-60473536D01*
X130388721Y-60473529D01*
X130353338Y-60412244D01*
X130335246Y-60372316D01*
X130326695Y-60335642D01*
X130325463Y-60298007D01*
X130331596Y-60260857D01*
X130344860Y-60225617D01*
X130364747Y-60193635D01*
X130390488Y-60166152D01*
X130426112Y-60140624D01*
X131295885Y-59638460D01*
X131335809Y-59620371D01*
X131372483Y-59611820D01*
X131410118Y-59610588D01*
X131447268Y-59616721D01*
G37*
G36*
X99398288Y-59693443D02*
G01*
X100212570Y-60022434D01*
X99724832Y-61229628D01*
X99724831Y-61229628D01*
X98856702Y-60878881D01*
X98239482Y-60629508D01*
X98727220Y-59422314D01*
X98727221Y-59422314D01*
X99398288Y-59693443D01*
G37*
G36*
X103899008Y-59354782D02*
G01*
X104670518Y-59666492D01*
X104182780Y-60873686D01*
X104182779Y-60873686D01*
X103360259Y-60541366D01*
X102697430Y-60273566D01*
X103185168Y-59066372D01*
X103185169Y-59066372D01*
X103899008Y-59354782D01*
G37*
G36*
X73773512Y-58031927D02*
G01*
X73922812Y-58061624D01*
X74086784Y-58129544D01*
X74234354Y-58228147D01*
X74359853Y-58353646D01*
X74458456Y-58501216D01*
X74526376Y-58665188D01*
X74561000Y-58839259D01*
X74561000Y-59016741D01*
X74526376Y-59190812D01*
X74458456Y-59354784D01*
X74359853Y-59502354D01*
X74234354Y-59627853D01*
X74086784Y-59726456D01*
X73922812Y-59794376D01*
X73773512Y-59824073D01*
X73748742Y-59829000D01*
X73571258Y-59829000D01*
X73546488Y-59824073D01*
X73397188Y-59794376D01*
X73233216Y-59726456D01*
X73085646Y-59627853D01*
X72960147Y-59502354D01*
X72861544Y-59354784D01*
X72793624Y-59190812D01*
X72759000Y-59016741D01*
X72759000Y-58839259D01*
X72793624Y-58665188D01*
X72861544Y-58501216D01*
X72960147Y-58353646D01*
X73085646Y-58228147D01*
X73233216Y-58129544D01*
X73397188Y-58061624D01*
X73546488Y-58031927D01*
X73571258Y-58027000D01*
X73748742Y-58027000D01*
X73773512Y-58031927D01*
G37*
G36*
X198812564Y-57486389D02*
G01*
X199003833Y-57565615D01*
X199003835Y-57565616D01*
X199007322Y-57567946D01*
X199175973Y-57680635D01*
X199322365Y-57827027D01*
X199437385Y-57999167D01*
X199516611Y-58190436D01*
X199557000Y-58393484D01*
X199557000Y-58600516D01*
X199516611Y-58803564D01*
X199437385Y-58994833D01*
X199437384Y-58994835D01*
X199322365Y-59166973D01*
X199175973Y-59313365D01*
X199003835Y-59428384D01*
X199003834Y-59428385D01*
X199003833Y-59428385D01*
X198812564Y-59507611D01*
X198609516Y-59548000D01*
X198402484Y-59548000D01*
X198199436Y-59507611D01*
X198008167Y-59428385D01*
X198008166Y-59428385D01*
X198008165Y-59428384D01*
X197836027Y-59313365D01*
X197689635Y-59166973D01*
X197574616Y-58994835D01*
X197574615Y-58994833D01*
X197495389Y-58803564D01*
X197455000Y-58600516D01*
X197455000Y-58393484D01*
X197495389Y-58190436D01*
X197574615Y-57999167D01*
X197689635Y-57827027D01*
X197836027Y-57680635D01*
X198004678Y-57567946D01*
X198008165Y-57565616D01*
X198008167Y-57565615D01*
X198199436Y-57486389D01*
X198402484Y-57446000D01*
X198609516Y-57446000D01*
X198812564Y-57486389D01*
G37*
G36*
X192312564Y-57486389D02*
G01*
X192503833Y-57565615D01*
X192503835Y-57565616D01*
X192507322Y-57567946D01*
X192675973Y-57680635D01*
X192822365Y-57827027D01*
X192937385Y-57999167D01*
X193016611Y-58190436D01*
X193057000Y-58393484D01*
X193057000Y-58600516D01*
X193016611Y-58803564D01*
X192937385Y-58994833D01*
X192937384Y-58994835D01*
X192822365Y-59166973D01*
X192675973Y-59313365D01*
X192503835Y-59428384D01*
X192503834Y-59428385D01*
X192503833Y-59428385D01*
X192312564Y-59507611D01*
X192109516Y-59548000D01*
X191902484Y-59548000D01*
X191699436Y-59507611D01*
X191508167Y-59428385D01*
X191508166Y-59428385D01*
X191508165Y-59428384D01*
X191336027Y-59313365D01*
X191189635Y-59166973D01*
X191074616Y-58994835D01*
X191074615Y-58994833D01*
X190995389Y-58803564D01*
X190955000Y-58600516D01*
X190955000Y-58393484D01*
X190995389Y-58190436D01*
X191074615Y-57999167D01*
X191189635Y-57827027D01*
X191336027Y-57680635D01*
X191504678Y-57567946D01*
X191508165Y-57565616D01*
X191508167Y-57565615D01*
X191699436Y-57486389D01*
X191902484Y-57446000D01*
X192109516Y-57446000D01*
X192312564Y-57486389D01*
G37*
G36*
X100117681Y-57827027D02*
G01*
X100961783Y-58168066D01*
X100474045Y-59375260D01*
X100474044Y-59375260D01*
X99336309Y-58915585D01*
X98988695Y-58775140D01*
X99476433Y-57567946D01*
X99476434Y-57567946D01*
X100117681Y-57827027D01*
G37*
G36*
X214090512Y-57092927D02*
G01*
X214239812Y-57122624D01*
X214403784Y-57190544D01*
X214551354Y-57289147D01*
X214676853Y-57414646D01*
X214775456Y-57562216D01*
X214843376Y-57726188D01*
X214878000Y-57900259D01*
X214878000Y-58077741D01*
X214843376Y-58251812D01*
X214775456Y-58415784D01*
X214676853Y-58563354D01*
X214551354Y-58688853D01*
X214403784Y-58787456D01*
X214239812Y-58855376D01*
X214090512Y-58885073D01*
X214065742Y-58890000D01*
X213888258Y-58890000D01*
X213863488Y-58885073D01*
X213714188Y-58855376D01*
X213550216Y-58787456D01*
X213402646Y-58688853D01*
X213277147Y-58563354D01*
X213178544Y-58415784D01*
X213110624Y-58251812D01*
X213076000Y-58077741D01*
X213076000Y-57900259D01*
X213110624Y-57726188D01*
X213178544Y-57562216D01*
X213277147Y-57414646D01*
X213402646Y-57289147D01*
X213550216Y-57190544D01*
X213714188Y-57122624D01*
X213863488Y-57092927D01*
X213888258Y-57088000D01*
X214065742Y-57088000D01*
X214090512Y-57092927D01*
G37*
G36*
X184022239Y-51167467D02*
G01*
X184336282Y-51229934D01*
X184927926Y-51475001D01*
X185217523Y-51668504D01*
X185460391Y-51830783D01*
X185913217Y-52283609D01*
X185927828Y-52305476D01*
X186268999Y-52816074D01*
X186508801Y-53395007D01*
X186514066Y-53407719D01*
X186639000Y-54035803D01*
X186639000Y-54676197D01*
X186599526Y-54874646D01*
X186514066Y-55304282D01*
X186268999Y-55895926D01*
X185913216Y-56428392D01*
X185460392Y-56881216D01*
X184927926Y-57236999D01*
X184336282Y-57482066D01*
X184022239Y-57544533D01*
X183708197Y-57607000D01*
X183067803Y-57607000D01*
X182753761Y-57544533D01*
X182439718Y-57482066D01*
X181848074Y-57236999D01*
X181315608Y-56881216D01*
X180862784Y-56428392D01*
X180507001Y-55895926D01*
X180261934Y-55304282D01*
X180176474Y-54874646D01*
X180137000Y-54676197D01*
X180137000Y-54035803D01*
X180261934Y-53407719D01*
X180267199Y-53395007D01*
X180507001Y-52816074D01*
X180848172Y-52305476D01*
X180862783Y-52283609D01*
X181315609Y-51830783D01*
X181558477Y-51668504D01*
X181848074Y-51475001D01*
X182439718Y-51229934D01*
X182753761Y-51167467D01*
X183067803Y-51105000D01*
X183708197Y-51105000D01*
X184022239Y-51167467D01*
G37*
G36*
X102488239Y-51167467D02*
G01*
X102802282Y-51229934D01*
X103393926Y-51475001D01*
X103683523Y-51668504D01*
X103926391Y-51830783D01*
X104379217Y-52283609D01*
X104393828Y-52305476D01*
X104734999Y-52816074D01*
X104974801Y-53395007D01*
X104980066Y-53407719D01*
X105105000Y-54035803D01*
X105105000Y-54676197D01*
X105065526Y-54874646D01*
X104980066Y-55304282D01*
X104734999Y-55895926D01*
X104379216Y-56428392D01*
X103926392Y-56881216D01*
X103393926Y-57236999D01*
X102802282Y-57482066D01*
X102488239Y-57544533D01*
X102174197Y-57607000D01*
X101533803Y-57607000D01*
X101219761Y-57544533D01*
X100905718Y-57482066D01*
X100314074Y-57236999D01*
X99781608Y-56881216D01*
X99328784Y-56428392D01*
X98973001Y-55895926D01*
X98727934Y-55304282D01*
X98642474Y-54874646D01*
X98603000Y-54676197D01*
X98603000Y-54035803D01*
X98727934Y-53407719D01*
X98733199Y-53395007D01*
X98973001Y-52816074D01*
X99314172Y-52305476D01*
X99328783Y-52283609D01*
X99781609Y-51830783D01*
X100024477Y-51668504D01*
X100314074Y-51475001D01*
X100905718Y-51229934D01*
X101219761Y-51167467D01*
X101533803Y-51105000D01*
X102174197Y-51105000D01*
X102488239Y-51167467D01*
G37*
G36*
X73773512Y-55491927D02*
G01*
X73922812Y-55521624D01*
X74086784Y-55589544D01*
X74234354Y-55688147D01*
X74359853Y-55813646D01*
X74458456Y-55961216D01*
X74526376Y-56125188D01*
X74561000Y-56299259D01*
X74561000Y-56476741D01*
X74526376Y-56650812D01*
X74458456Y-56814784D01*
X74359853Y-56962354D01*
X74234354Y-57087853D01*
X74086784Y-57186456D01*
X73922812Y-57254376D01*
X73773512Y-57284073D01*
X73748742Y-57289000D01*
X73571258Y-57289000D01*
X73546488Y-57284073D01*
X73397188Y-57254376D01*
X73233216Y-57186456D01*
X73085646Y-57087853D01*
X72960147Y-56962354D01*
X72861544Y-56814784D01*
X72793624Y-56650812D01*
X72759000Y-56476741D01*
X72759000Y-56299259D01*
X72793624Y-56125188D01*
X72861544Y-55961216D01*
X72960147Y-55813646D01*
X73085646Y-55688147D01*
X73233216Y-55589544D01*
X73397188Y-55521624D01*
X73546488Y-55491927D01*
X73571258Y-55487000D01*
X73748742Y-55487000D01*
X73773512Y-55491927D01*
G37*
G36*
X214090512Y-54552927D02*
G01*
X214239812Y-54582624D01*
X214403784Y-54650544D01*
X214551354Y-54749147D01*
X214676853Y-54874646D01*
X214775456Y-55022216D01*
X214843376Y-55186188D01*
X214878000Y-55360259D01*
X214878000Y-55537741D01*
X214843376Y-55711812D01*
X214775456Y-55875784D01*
X214676853Y-56023354D01*
X214551354Y-56148853D01*
X214403784Y-56247456D01*
X214239812Y-56315376D01*
X214090512Y-56345073D01*
X214065742Y-56350000D01*
X213888258Y-56350000D01*
X213863488Y-56345073D01*
X213714188Y-56315376D01*
X213550216Y-56247456D01*
X213402646Y-56148853D01*
X213277147Y-56023354D01*
X213178544Y-55875784D01*
X213110624Y-55711812D01*
X213076000Y-55537741D01*
X213076000Y-55360259D01*
X213110624Y-55186188D01*
X213178544Y-55022216D01*
X213277147Y-54874646D01*
X213402646Y-54749147D01*
X213550216Y-54650544D01*
X213714188Y-54582624D01*
X213863488Y-54552927D01*
X213888258Y-54548000D01*
X214065742Y-54548000D01*
X214090512Y-54552927D01*
G37*
G36*
X198812564Y-52986389D02*
G01*
X198986933Y-53058615D01*
X199003835Y-53065616D01*
X199175973Y-53180635D01*
X199322365Y-53327027D01*
X199426819Y-53483353D01*
X199437385Y-53499167D01*
X199516611Y-53690436D01*
X199557000Y-53893484D01*
X199557000Y-54100516D01*
X199516611Y-54303564D01*
X199440401Y-54487552D01*
X199437384Y-54494835D01*
X199322365Y-54666973D01*
X199175973Y-54813365D01*
X199003835Y-54928384D01*
X199003834Y-54928385D01*
X199003833Y-54928385D01*
X198812564Y-55007611D01*
X198609516Y-55048000D01*
X198402484Y-55048000D01*
X198199436Y-55007611D01*
X198008167Y-54928385D01*
X198008166Y-54928385D01*
X198008165Y-54928384D01*
X197836027Y-54813365D01*
X197689635Y-54666973D01*
X197574616Y-54494835D01*
X197571599Y-54487552D01*
X197495389Y-54303564D01*
X197455000Y-54100516D01*
X197455000Y-53893484D01*
X197495389Y-53690436D01*
X197574615Y-53499167D01*
X197585182Y-53483353D01*
X197689635Y-53327027D01*
X197836027Y-53180635D01*
X198008165Y-53065616D01*
X198025067Y-53058615D01*
X198199436Y-52986389D01*
X198402484Y-52946000D01*
X198609516Y-52946000D01*
X198812564Y-52986389D01*
G37*
G36*
X192312564Y-52986389D02*
G01*
X192486933Y-53058615D01*
X192503835Y-53065616D01*
X192675973Y-53180635D01*
X192822365Y-53327027D01*
X192926819Y-53483353D01*
X192937385Y-53499167D01*
X193016611Y-53690436D01*
X193057000Y-53893484D01*
X193057000Y-54100516D01*
X193016611Y-54303564D01*
X192940401Y-54487552D01*
X192937384Y-54494835D01*
X192822365Y-54666973D01*
X192675973Y-54813365D01*
X192503835Y-54928384D01*
X192503834Y-54928385D01*
X192503833Y-54928385D01*
X192312564Y-55007611D01*
X192109516Y-55048000D01*
X191902484Y-55048000D01*
X191699436Y-55007611D01*
X191508167Y-54928385D01*
X191508166Y-54928385D01*
X191508165Y-54928384D01*
X191336027Y-54813365D01*
X191189635Y-54666973D01*
X191074616Y-54494835D01*
X191071599Y-54487552D01*
X190995389Y-54303564D01*
X190955000Y-54100516D01*
X190955000Y-53893484D01*
X190995389Y-53690436D01*
X191074615Y-53499167D01*
X191085182Y-53483353D01*
X191189635Y-53327027D01*
X191336027Y-53180635D01*
X191508165Y-53065616D01*
X191525067Y-53058615D01*
X191699436Y-52986389D01*
X191902484Y-52946000D01*
X192109516Y-52946000D01*
X192312564Y-52986389D01*
G37*
G36*
X73773512Y-52951927D02*
G01*
X73922812Y-52981624D01*
X74086784Y-53049544D01*
X74234354Y-53148147D01*
X74359853Y-53273646D01*
X74458456Y-53421216D01*
X74526376Y-53585188D01*
X74561000Y-53759259D01*
X74561000Y-53936741D01*
X74526376Y-54110812D01*
X74458456Y-54274784D01*
X74359853Y-54422354D01*
X74234354Y-54547853D01*
X74086784Y-54646456D01*
X73922812Y-54714376D01*
X73773512Y-54744073D01*
X73748742Y-54749000D01*
X73571258Y-54749000D01*
X73546488Y-54744073D01*
X73397188Y-54714376D01*
X73233216Y-54646456D01*
X73085646Y-54547853D01*
X72960147Y-54422354D01*
X72861544Y-54274784D01*
X72793624Y-54110812D01*
X72759000Y-53936741D01*
X72759000Y-53759259D01*
X72793624Y-53585188D01*
X72861544Y-53421216D01*
X72960147Y-53273646D01*
X73085646Y-53148147D01*
X73233216Y-53049544D01*
X73397188Y-52981624D01*
X73546488Y-52951927D01*
X73571258Y-52947000D01*
X73748742Y-52947000D01*
X73773512Y-52951927D01*
G37*
G36*
X208936999Y-52285737D02*
G01*
X208951528Y-52290145D01*
X208964711Y-52295606D01*
X208988745Y-52300388D01*
X209013249Y-52300389D01*
X209037282Y-52295609D01*
X209059921Y-52286232D01*
X209061765Y-52285000D01*
X210293050Y-52285000D01*
X210305164Y-52291475D01*
X210328613Y-52298588D01*
X210352999Y-52300990D01*
X210377385Y-52298588D01*
X210400834Y-52291475D01*
X210405746Y-52289152D01*
X210417001Y-52285737D01*
X210433140Y-52284148D01*
X210970861Y-52284148D01*
X210989199Y-52285954D01*
X211001450Y-52286556D01*
X211019869Y-52286556D01*
X211042149Y-52288750D01*
X211126233Y-52305476D01*
X211147660Y-52311976D01*
X211226858Y-52344780D01*
X211232303Y-52347691D01*
X211232309Y-52347693D01*
X211241169Y-52352429D01*
X211241173Y-52352432D01*
X211246614Y-52355340D01*
X211317899Y-52402971D01*
X211335204Y-52417172D01*
X211395828Y-52477796D01*
X211410029Y-52495101D01*
X211457660Y-52566386D01*
X211460568Y-52571827D01*
X211460571Y-52571831D01*
X211465307Y-52580691D01*
X211465309Y-52580697D01*
X211468220Y-52586142D01*
X211501024Y-52665340D01*
X211507524Y-52686767D01*
X211524250Y-52770851D01*
X211526444Y-52793131D01*
X211526444Y-52811550D01*
X211527046Y-52823801D01*
X211528852Y-52842139D01*
X211528852Y-53329862D01*
X211527046Y-53348199D01*
X211526444Y-53360450D01*
X211526444Y-53378869D01*
X211524250Y-53401149D01*
X211507524Y-53485233D01*
X211501024Y-53506660D01*
X211468220Y-53585858D01*
X211465309Y-53591303D01*
X211465307Y-53591309D01*
X211460571Y-53600169D01*
X211460568Y-53600173D01*
X211457660Y-53605614D01*
X211410029Y-53676899D01*
X211395828Y-53694204D01*
X211335204Y-53754828D01*
X211317899Y-53769029D01*
X211246614Y-53816660D01*
X211241173Y-53819568D01*
X211241169Y-53819571D01*
X211232309Y-53824307D01*
X211232303Y-53824309D01*
X211226858Y-53827220D01*
X211147660Y-53860024D01*
X211126233Y-53866524D01*
X211042149Y-53883250D01*
X211019869Y-53885444D01*
X211001450Y-53885444D01*
X210989199Y-53886046D01*
X210970862Y-53887852D01*
X210433140Y-53887852D01*
X210417001Y-53886263D01*
X210402472Y-53881855D01*
X210389289Y-53876394D01*
X210365255Y-53871612D01*
X210340751Y-53871611D01*
X210316718Y-53876391D01*
X210294079Y-53885768D01*
X210292235Y-53887000D01*
X209060950Y-53887000D01*
X209048836Y-53880525D01*
X209025387Y-53873412D01*
X209001001Y-53871010D01*
X208976615Y-53873412D01*
X208953166Y-53880525D01*
X208948254Y-53882848D01*
X208936999Y-53886263D01*
X208920860Y-53887852D01*
X208383138Y-53887852D01*
X208364801Y-53886046D01*
X208352550Y-53885444D01*
X208334131Y-53885444D01*
X208311851Y-53883250D01*
X208227767Y-53866524D01*
X208206340Y-53860024D01*
X208127142Y-53827220D01*
X208121697Y-53824309D01*
X208121691Y-53824307D01*
X208112831Y-53819571D01*
X208112827Y-53819568D01*
X208107386Y-53816660D01*
X208036101Y-53769029D01*
X208018796Y-53754828D01*
X207958172Y-53694204D01*
X207943971Y-53676899D01*
X207896340Y-53605614D01*
X207893432Y-53600173D01*
X207893429Y-53600169D01*
X207888693Y-53591309D01*
X207888691Y-53591303D01*
X207885780Y-53585858D01*
X207852976Y-53506660D01*
X207846476Y-53485233D01*
X207829750Y-53401149D01*
X207827556Y-53378869D01*
X207827556Y-53360450D01*
X207826954Y-53348199D01*
X207825148Y-53329862D01*
X207825148Y-52842139D01*
X207826954Y-52823801D01*
X207827556Y-52811550D01*
X207827556Y-52793131D01*
X207829750Y-52770851D01*
X207846476Y-52686767D01*
X207852976Y-52665340D01*
X207885780Y-52586142D01*
X207888691Y-52580697D01*
X207888693Y-52580691D01*
X207893429Y-52571831D01*
X207893432Y-52571827D01*
X207896340Y-52566386D01*
X207943971Y-52495101D01*
X207958172Y-52477796D01*
X208018796Y-52417172D01*
X208036101Y-52402971D01*
X208107386Y-52355340D01*
X208112827Y-52352432D01*
X208112831Y-52352429D01*
X208121691Y-52347693D01*
X208121697Y-52347691D01*
X208127142Y-52344780D01*
X208206340Y-52311976D01*
X208227767Y-52305476D01*
X208311851Y-52288750D01*
X208334131Y-52286556D01*
X208352550Y-52286556D01*
X208364801Y-52285954D01*
X208383139Y-52284148D01*
X208920860Y-52284148D01*
X208936999Y-52285737D01*
G37*
G36*
X214090512Y-52012927D02*
G01*
X214239812Y-52042624D01*
X214403784Y-52110544D01*
X214551354Y-52209147D01*
X214676853Y-52334646D01*
X214775456Y-52482216D01*
X214843376Y-52646188D01*
X214878000Y-52820259D01*
X214878000Y-52997741D01*
X214843376Y-53171812D01*
X214775456Y-53335784D01*
X214676853Y-53483354D01*
X214551354Y-53608853D01*
X214403784Y-53707456D01*
X214239812Y-53775376D01*
X214090512Y-53805073D01*
X214065742Y-53810000D01*
X213888258Y-53810000D01*
X213863488Y-53805073D01*
X213714188Y-53775376D01*
X213550216Y-53707456D01*
X213402646Y-53608853D01*
X213277147Y-53483354D01*
X213178544Y-53335784D01*
X213110624Y-53171812D01*
X213076000Y-52997741D01*
X213076000Y-52820259D01*
X213110624Y-52646188D01*
X213178544Y-52482216D01*
X213277147Y-52334646D01*
X213402646Y-52209147D01*
X213550216Y-52110544D01*
X213714188Y-52042624D01*
X213863488Y-52012927D01*
X213888258Y-52008000D01*
X214065742Y-52008000D01*
X214090512Y-52012927D01*
G37*
G36*
X73773512Y-50411927D02*
G01*
X73922812Y-50441624D01*
X74086784Y-50509544D01*
X74234354Y-50608147D01*
X74359853Y-50733646D01*
X74458456Y-50881216D01*
X74526376Y-51045188D01*
X74561000Y-51219259D01*
X74561000Y-51396741D01*
X74526376Y-51570812D01*
X74458456Y-51734784D01*
X74359853Y-51882354D01*
X74234354Y-52007853D01*
X74086784Y-52106456D01*
X73922812Y-52174376D01*
X73773512Y-52204073D01*
X73748742Y-52209000D01*
X73571258Y-52209000D01*
X73546488Y-52204073D01*
X73397188Y-52174376D01*
X73233216Y-52106456D01*
X73085646Y-52007853D01*
X72960147Y-51882354D01*
X72861544Y-51734784D01*
X72793624Y-51570812D01*
X72759000Y-51396741D01*
X72759000Y-51219259D01*
X72793624Y-51045188D01*
X72861544Y-50881216D01*
X72960147Y-50733646D01*
X73085646Y-50608147D01*
X73233216Y-50509544D01*
X73397188Y-50441624D01*
X73546488Y-50411927D01*
X73571258Y-50407000D01*
X73748742Y-50407000D01*
X73773512Y-50411927D01*
G37*
G36*
X214878000Y-51270000D02*
G01*
X213076000Y-51270000D01*
X213076000Y-49468000D01*
X214878000Y-49468000D01*
X214878000Y-51270000D01*
G37*
G36*
X197388585Y-47450802D02*
G01*
X197538410Y-47480604D01*
X197820674Y-47597521D01*
X198074705Y-47767259D01*
X198290741Y-47983295D01*
X198460479Y-48237326D01*
X198577396Y-48519590D01*
X198577396Y-48519591D01*
X198623532Y-48751529D01*
X198637000Y-48819240D01*
X198637000Y-49124760D01*
X198577396Y-49424410D01*
X198460479Y-49706674D01*
X198290741Y-49960705D01*
X198074705Y-50176741D01*
X197820674Y-50346479D01*
X197538410Y-50463396D01*
X197388585Y-50493198D01*
X197238761Y-50523000D01*
X196933239Y-50523000D01*
X196783415Y-50493198D01*
X196633590Y-50463396D01*
X196351326Y-50346479D01*
X196097295Y-50176741D01*
X195881259Y-49960705D01*
X195711521Y-49706674D01*
X195594604Y-49424410D01*
X195535000Y-49124760D01*
X195535000Y-48819240D01*
X195548469Y-48751529D01*
X195594604Y-48519591D01*
X195594604Y-48519590D01*
X195711521Y-48237326D01*
X195881259Y-47983295D01*
X196097295Y-47767259D01*
X196351326Y-47597521D01*
X196633590Y-47480604D01*
X196783415Y-47450802D01*
X196933239Y-47421000D01*
X197238761Y-47421000D01*
X197388585Y-47450802D01*
G37*
G36*
X208936999Y-48729737D02*
G01*
X208951528Y-48734145D01*
X208964711Y-48739606D01*
X208988745Y-48744388D01*
X209013249Y-48744389D01*
X209037282Y-48739609D01*
X209059921Y-48730232D01*
X209061765Y-48729000D01*
X210293050Y-48729000D01*
X210305164Y-48735475D01*
X210328613Y-48742588D01*
X210352999Y-48744990D01*
X210377385Y-48742588D01*
X210400834Y-48735475D01*
X210405746Y-48733152D01*
X210417001Y-48729737D01*
X210433140Y-48728148D01*
X210970861Y-48728148D01*
X210989199Y-48729954D01*
X211001450Y-48730556D01*
X211019869Y-48730556D01*
X211042149Y-48732750D01*
X211126233Y-48749476D01*
X211147660Y-48755976D01*
X211226858Y-48788780D01*
X211232303Y-48791691D01*
X211232309Y-48791693D01*
X211241169Y-48796429D01*
X211241173Y-48796432D01*
X211246614Y-48799340D01*
X211317899Y-48846971D01*
X211335204Y-48861172D01*
X211395828Y-48921796D01*
X211410029Y-48939101D01*
X211457660Y-49010386D01*
X211460568Y-49015827D01*
X211460571Y-49015831D01*
X211465307Y-49024691D01*
X211465309Y-49024697D01*
X211468220Y-49030142D01*
X211501024Y-49109340D01*
X211507524Y-49130767D01*
X211524250Y-49214851D01*
X211526444Y-49237131D01*
X211526444Y-49255550D01*
X211527046Y-49267801D01*
X211528852Y-49286139D01*
X211528852Y-49773862D01*
X211527046Y-49792199D01*
X211526444Y-49804450D01*
X211526444Y-49822869D01*
X211524250Y-49845149D01*
X211507524Y-49929233D01*
X211501024Y-49950660D01*
X211468220Y-50029858D01*
X211465309Y-50035303D01*
X211465307Y-50035309D01*
X211460571Y-50044169D01*
X211460568Y-50044173D01*
X211457660Y-50049614D01*
X211410029Y-50120899D01*
X211395828Y-50138204D01*
X211335204Y-50198828D01*
X211317899Y-50213029D01*
X211246614Y-50260660D01*
X211241173Y-50263568D01*
X211241169Y-50263571D01*
X211232309Y-50268307D01*
X211232303Y-50268309D01*
X211226858Y-50271220D01*
X211147660Y-50304024D01*
X211126233Y-50310524D01*
X211042149Y-50327250D01*
X211019869Y-50329444D01*
X211001450Y-50329444D01*
X210989199Y-50330046D01*
X210970862Y-50331852D01*
X210433140Y-50331852D01*
X210417001Y-50330263D01*
X210402472Y-50325855D01*
X210389289Y-50320394D01*
X210365255Y-50315612D01*
X210340751Y-50315611D01*
X210316718Y-50320391D01*
X210294079Y-50329768D01*
X210292235Y-50331000D01*
X209060950Y-50331000D01*
X209048836Y-50324525D01*
X209025387Y-50317412D01*
X209001001Y-50315010D01*
X208976615Y-50317412D01*
X208953166Y-50324525D01*
X208948254Y-50326848D01*
X208936999Y-50330263D01*
X208920860Y-50331852D01*
X208383138Y-50331852D01*
X208364801Y-50330046D01*
X208352550Y-50329444D01*
X208334131Y-50329444D01*
X208311851Y-50327250D01*
X208227767Y-50310524D01*
X208206340Y-50304024D01*
X208127142Y-50271220D01*
X208121697Y-50268309D01*
X208121691Y-50268307D01*
X208112831Y-50263571D01*
X208112827Y-50263568D01*
X208107386Y-50260660D01*
X208036101Y-50213029D01*
X208018796Y-50198828D01*
X207958172Y-50138204D01*
X207943971Y-50120899D01*
X207896340Y-50049614D01*
X207893432Y-50044173D01*
X207893429Y-50044169D01*
X207888693Y-50035309D01*
X207888691Y-50035303D01*
X207885780Y-50029858D01*
X207852976Y-49950660D01*
X207846476Y-49929233D01*
X207829750Y-49845149D01*
X207827556Y-49822869D01*
X207827556Y-49804450D01*
X207826954Y-49792199D01*
X207825148Y-49773862D01*
X207825148Y-49286139D01*
X207826954Y-49267801D01*
X207827556Y-49255550D01*
X207827556Y-49237131D01*
X207829750Y-49214851D01*
X207846476Y-49130767D01*
X207852976Y-49109340D01*
X207885780Y-49030142D01*
X207888691Y-49024697D01*
X207888693Y-49024691D01*
X207893429Y-49015831D01*
X207893432Y-49015827D01*
X207896340Y-49010386D01*
X207943971Y-48939101D01*
X207958172Y-48921796D01*
X208018796Y-48861172D01*
X208036101Y-48846971D01*
X208107386Y-48799340D01*
X208112827Y-48796432D01*
X208112831Y-48796429D01*
X208121691Y-48791693D01*
X208121697Y-48791691D01*
X208127142Y-48788780D01*
X208206340Y-48755976D01*
X208227767Y-48749476D01*
X208311851Y-48732750D01*
X208334131Y-48730556D01*
X208352550Y-48730556D01*
X208364801Y-48729954D01*
X208383139Y-48728148D01*
X208920860Y-48728148D01*
X208936999Y-48729737D01*
G37*
G36*
X198637000Y-45443000D02*
G01*
X195535000Y-45443000D01*
X195535000Y-42341000D01*
X198637000Y-42341000D01*
X198637000Y-45443000D01*
G37*
G36*
X209812199Y-30788954D02*
G01*
X209824450Y-30789556D01*
X209842869Y-30789556D01*
X209865149Y-30791750D01*
X209949233Y-30808476D01*
X209970660Y-30814976D01*
X210049858Y-30847780D01*
X210055303Y-30850691D01*
X210055309Y-30850693D01*
X210064169Y-30855429D01*
X210064173Y-30855432D01*
X210069614Y-30858340D01*
X210140899Y-30905971D01*
X210158204Y-30920172D01*
X210218828Y-30980796D01*
X210233029Y-30998101D01*
X210280660Y-31069386D01*
X210283568Y-31074827D01*
X210283571Y-31074831D01*
X210288307Y-31083691D01*
X210288309Y-31083697D01*
X210291220Y-31089142D01*
X210324024Y-31168340D01*
X210330524Y-31189767D01*
X210347250Y-31273851D01*
X210349444Y-31296131D01*
X210349444Y-31314550D01*
X210350046Y-31326801D01*
X210351852Y-31345139D01*
X210351852Y-31882860D01*
X210350263Y-31898999D01*
X210345855Y-31913528D01*
X210340394Y-31926711D01*
X210335612Y-31950745D01*
X210335611Y-31975249D01*
X210340391Y-31999282D01*
X210349768Y-32021921D01*
X210351000Y-32023765D01*
X210351000Y-33255050D01*
X210344525Y-33267164D01*
X210337412Y-33290613D01*
X210335010Y-33314999D01*
X210337412Y-33339385D01*
X210344525Y-33362834D01*
X210346848Y-33367746D01*
X210350263Y-33379001D01*
X210351852Y-33395140D01*
X210351852Y-33932861D01*
X210350046Y-33951199D01*
X210349444Y-33963450D01*
X210349444Y-33981869D01*
X210347250Y-34004149D01*
X210330524Y-34088233D01*
X210324024Y-34109660D01*
X210291220Y-34188858D01*
X210288309Y-34194303D01*
X210288307Y-34194309D01*
X210283571Y-34203169D01*
X210283568Y-34203173D01*
X210280660Y-34208614D01*
X210233029Y-34279899D01*
X210218828Y-34297204D01*
X210158204Y-34357828D01*
X210140899Y-34372029D01*
X210069614Y-34419660D01*
X210064173Y-34422568D01*
X210064169Y-34422571D01*
X210055309Y-34427307D01*
X210055303Y-34427309D01*
X210049858Y-34430220D01*
X209970660Y-34463024D01*
X209949233Y-34469524D01*
X209865149Y-34486250D01*
X209842869Y-34488444D01*
X209824450Y-34488444D01*
X209812199Y-34489046D01*
X209793862Y-34490852D01*
X209306138Y-34490852D01*
X209287801Y-34489046D01*
X209275550Y-34488444D01*
X209257131Y-34488444D01*
X209234851Y-34486250D01*
X209150767Y-34469524D01*
X209129340Y-34463024D01*
X209050142Y-34430220D01*
X209044697Y-34427309D01*
X209044691Y-34427307D01*
X209035831Y-34422571D01*
X209035827Y-34422568D01*
X209030386Y-34419660D01*
X208959101Y-34372029D01*
X208941796Y-34357828D01*
X208881172Y-34297204D01*
X208866971Y-34279899D01*
X208819340Y-34208614D01*
X208816432Y-34203173D01*
X208816429Y-34203169D01*
X208811693Y-34194309D01*
X208811691Y-34194303D01*
X208808780Y-34188858D01*
X208775976Y-34109660D01*
X208769476Y-34088233D01*
X208752750Y-34004149D01*
X208750556Y-33981869D01*
X208750556Y-33963450D01*
X208749954Y-33951199D01*
X208748148Y-33932862D01*
X208748148Y-33395140D01*
X208749737Y-33379001D01*
X208754145Y-33364472D01*
X208759606Y-33351289D01*
X208764388Y-33327255D01*
X208764389Y-33302751D01*
X208759609Y-33278718D01*
X208750232Y-33256079D01*
X208749000Y-33254235D01*
X208749000Y-32022950D01*
X208755475Y-32010836D01*
X208762588Y-31987387D01*
X208764990Y-31963001D01*
X208762588Y-31938615D01*
X208755475Y-31915166D01*
X208753152Y-31910254D01*
X208749737Y-31898999D01*
X208748148Y-31882860D01*
X208748148Y-31345139D01*
X208749954Y-31326801D01*
X208750556Y-31314550D01*
X208750556Y-31296131D01*
X208752750Y-31273851D01*
X208769476Y-31189767D01*
X208775976Y-31168340D01*
X208808780Y-31089142D01*
X208811691Y-31083697D01*
X208811693Y-31083691D01*
X208816429Y-31074831D01*
X208816432Y-31074827D01*
X208819340Y-31069386D01*
X208866971Y-30998101D01*
X208881172Y-30980796D01*
X208941796Y-30920172D01*
X208959101Y-30905971D01*
X209030386Y-30858340D01*
X209035827Y-30855432D01*
X209035831Y-30855429D01*
X209044691Y-30850693D01*
X209044697Y-30850691D01*
X209050142Y-30847780D01*
X209129340Y-30814976D01*
X209150767Y-30808476D01*
X209234851Y-30791750D01*
X209257131Y-30789556D01*
X209275550Y-30789556D01*
X209287801Y-30788954D01*
X209306139Y-30787148D01*
X209793861Y-30787148D01*
X209812199Y-30788954D01*
G37*
G36*
X206510199Y-30788954D02*
G01*
X206522450Y-30789556D01*
X206540869Y-30789556D01*
X206563149Y-30791750D01*
X206647233Y-30808476D01*
X206668660Y-30814976D01*
X206747858Y-30847780D01*
X206753303Y-30850691D01*
X206753309Y-30850693D01*
X206762169Y-30855429D01*
X206762173Y-30855432D01*
X206767614Y-30858340D01*
X206838899Y-30905971D01*
X206856204Y-30920172D01*
X206916828Y-30980796D01*
X206931029Y-30998101D01*
X206978660Y-31069386D01*
X206981568Y-31074827D01*
X206981571Y-31074831D01*
X206986307Y-31083691D01*
X206986309Y-31083697D01*
X206989220Y-31089142D01*
X207022024Y-31168340D01*
X207028524Y-31189767D01*
X207045250Y-31273851D01*
X207047444Y-31296131D01*
X207047444Y-31314550D01*
X207048046Y-31326801D01*
X207049852Y-31345139D01*
X207049852Y-31882860D01*
X207048263Y-31898999D01*
X207043855Y-31913528D01*
X207038394Y-31926711D01*
X207033612Y-31950745D01*
X207033611Y-31975249D01*
X207038391Y-31999282D01*
X207047768Y-32021921D01*
X207049000Y-32023765D01*
X207049000Y-33255050D01*
X207042525Y-33267164D01*
X207035412Y-33290613D01*
X207033010Y-33314999D01*
X207035412Y-33339385D01*
X207042525Y-33362834D01*
X207044848Y-33367746D01*
X207048263Y-33379001D01*
X207049852Y-33395140D01*
X207049852Y-33932862D01*
X207048046Y-33951199D01*
X207047444Y-33963450D01*
X207047444Y-33981869D01*
X207045250Y-34004149D01*
X207028524Y-34088233D01*
X207022024Y-34109660D01*
X206989220Y-34188858D01*
X206986309Y-34194303D01*
X206986307Y-34194309D01*
X206981571Y-34203169D01*
X206981568Y-34203173D01*
X206978660Y-34208614D01*
X206931029Y-34279899D01*
X206916828Y-34297204D01*
X206856204Y-34357828D01*
X206838899Y-34372029D01*
X206767614Y-34419660D01*
X206762173Y-34422568D01*
X206762169Y-34422571D01*
X206753309Y-34427307D01*
X206753303Y-34427309D01*
X206747858Y-34430220D01*
X206668660Y-34463024D01*
X206647233Y-34469524D01*
X206563149Y-34486250D01*
X206540869Y-34488444D01*
X206522450Y-34488444D01*
X206510199Y-34489046D01*
X206491862Y-34490852D01*
X206004138Y-34490852D01*
X205985801Y-34489046D01*
X205973550Y-34488444D01*
X205955131Y-34488444D01*
X205932851Y-34486250D01*
X205848767Y-34469524D01*
X205827340Y-34463024D01*
X205748142Y-34430220D01*
X205742697Y-34427309D01*
X205742691Y-34427307D01*
X205733831Y-34422571D01*
X205733827Y-34422568D01*
X205728386Y-34419660D01*
X205657101Y-34372029D01*
X205639796Y-34357828D01*
X205579172Y-34297204D01*
X205564971Y-34279899D01*
X205517340Y-34208614D01*
X205514432Y-34203173D01*
X205514429Y-34203169D01*
X205509693Y-34194309D01*
X205509691Y-34194303D01*
X205506780Y-34188858D01*
X205473976Y-34109660D01*
X205467476Y-34088233D01*
X205450750Y-34004149D01*
X205448556Y-33981869D01*
X205448556Y-33963450D01*
X205447954Y-33951199D01*
X205446148Y-33932862D01*
X205446148Y-33395140D01*
X205447737Y-33379001D01*
X205452145Y-33364472D01*
X205457606Y-33351289D01*
X205462388Y-33327255D01*
X205462389Y-33302751D01*
X205457609Y-33278718D01*
X205448232Y-33256079D01*
X205447000Y-33254235D01*
X205447000Y-32022950D01*
X205453475Y-32010836D01*
X205460588Y-31987387D01*
X205462990Y-31963001D01*
X205460588Y-31938615D01*
X205453475Y-31915166D01*
X205451152Y-31910254D01*
X205447737Y-31898999D01*
X205446148Y-31882860D01*
X205446148Y-31345139D01*
X205447954Y-31326801D01*
X205448556Y-31314550D01*
X205448556Y-31296131D01*
X205450750Y-31273851D01*
X205467476Y-31189767D01*
X205473976Y-31168340D01*
X205506780Y-31089142D01*
X205509691Y-31083697D01*
X205509693Y-31083691D01*
X205514429Y-31074831D01*
X205514432Y-31074827D01*
X205517340Y-31069386D01*
X205564971Y-30998101D01*
X205579172Y-30980796D01*
X205639796Y-30920172D01*
X205657101Y-30905971D01*
X205728386Y-30858340D01*
X205733827Y-30855432D01*
X205733831Y-30855429D01*
X205742691Y-30850693D01*
X205742697Y-30850691D01*
X205748142Y-30847780D01*
X205827340Y-30814976D01*
X205848767Y-30808476D01*
X205932851Y-30791750D01*
X205955131Y-30789556D01*
X205973550Y-30789556D01*
X205985801Y-30788954D01*
X206004139Y-30787148D01*
X206491861Y-30787148D01*
X206510199Y-30788954D01*
G37*
G36*
X209671000Y-28537000D02*
G01*
X207869000Y-28537000D01*
X207869000Y-26735000D01*
X209671000Y-26735000D01*
X209671000Y-28537000D01*
G37*
G36*
X206343512Y-26739927D02*
G01*
X206492812Y-26769624D01*
X206656784Y-26837544D01*
X206804354Y-26936147D01*
X206929853Y-27061646D01*
X207028456Y-27209216D01*
X207096376Y-27373188D01*
X207131000Y-27547259D01*
X207131000Y-27724741D01*
X207096376Y-27898812D01*
X207028456Y-28062784D01*
X206929853Y-28210354D01*
X206804354Y-28335853D01*
X206656784Y-28434456D01*
X206492812Y-28502376D01*
X206343512Y-28532073D01*
X206318742Y-28537000D01*
X206141258Y-28537000D01*
X206116488Y-28532073D01*
X205967188Y-28502376D01*
X205803216Y-28434456D01*
X205655646Y-28335853D01*
X205530147Y-28210354D01*
X205431544Y-28062784D01*
X205363624Y-27898812D01*
X205329000Y-27724741D01*
X205329000Y-27547259D01*
X205363624Y-27373188D01*
X205431544Y-27209216D01*
X205530147Y-27061646D01*
X205655646Y-26936147D01*
X205803216Y-26837544D01*
X205967188Y-26769624D01*
X206116488Y-26739927D01*
X206141258Y-26735000D01*
X206318742Y-26735000D01*
X206343512Y-26739927D01*
G37*
G36*
X203803512Y-26739927D02*
G01*
X203952812Y-26769624D01*
X204116784Y-26837544D01*
X204264354Y-26936147D01*
X204389853Y-27061646D01*
X204488456Y-27209216D01*
X204556376Y-27373188D01*
X204591000Y-27547259D01*
X204591000Y-27724741D01*
X204556376Y-27898812D01*
X204488456Y-28062784D01*
X204389853Y-28210354D01*
X204264354Y-28335853D01*
X204116784Y-28434456D01*
X203952812Y-28502376D01*
X203803512Y-28532073D01*
X203778742Y-28537000D01*
X203601258Y-28537000D01*
X203576488Y-28532073D01*
X203427188Y-28502376D01*
X203263216Y-28434456D01*
X203115646Y-28335853D01*
X202990147Y-28210354D01*
X202891544Y-28062784D01*
X202823624Y-27898812D01*
X202789000Y-27724741D01*
X202789000Y-27547259D01*
X202823624Y-27373188D01*
X202891544Y-27209216D01*
X202990147Y-27061646D01*
X203115646Y-26936147D01*
X203263216Y-26837544D01*
X203427188Y-26769624D01*
X203576488Y-26739927D01*
X203601258Y-26735000D01*
X203778742Y-26735000D01*
X203803512Y-26739927D01*
G37*
G36*
X201263512Y-26739927D02*
G01*
X201412812Y-26769624D01*
X201576784Y-26837544D01*
X201724354Y-26936147D01*
X201849853Y-27061646D01*
X201948456Y-27209216D01*
X202016376Y-27373188D01*
X202051000Y-27547259D01*
X202051000Y-27724741D01*
X202016376Y-27898812D01*
X201948456Y-28062784D01*
X201849853Y-28210354D01*
X201724354Y-28335853D01*
X201576784Y-28434456D01*
X201412812Y-28502376D01*
X201263512Y-28532073D01*
X201238742Y-28537000D01*
X201061258Y-28537000D01*
X201036488Y-28532073D01*
X200887188Y-28502376D01*
X200723216Y-28434456D01*
X200575646Y-28335853D01*
X200450147Y-28210354D01*
X200351544Y-28062784D01*
X200283624Y-27898812D01*
X200249000Y-27724741D01*
X200249000Y-27547259D01*
X200283624Y-27373188D01*
X200351544Y-27209216D01*
X200450147Y-27061646D01*
X200575646Y-26936147D01*
X200723216Y-26837544D01*
X200887188Y-26769624D01*
X201036488Y-26739927D01*
X201061258Y-26735000D01*
X201238742Y-26735000D01*
X201263512Y-26739927D01*
G37*
M02*
