M48
INCH,TZ
T1C0.0079
T2C0.0157
T3C0.0197
T4C0.0276
T5C0.0315
T6C0.0394
T7C0.0433
T8C0.0598
T9C0.1260
T10C0.0197
T11C0.1260
T12C0.1457
%
G90
G05
T1
X61792Y-24555
X61792Y-25106
X62343Y-24555
X62343Y-25106
X62894Y-24555
X62894Y-25106
T2
X37800Y-25200
X37800Y-25600
X40200Y-23000
X40400Y-26600
X40993Y-18980
X41095Y-25282
X41993Y-18580
X43193Y-20380
X43993Y-20380
X44593Y-17291
X45193Y-19780
X45193Y-29580
X45200Y-18400
X45600Y-42380
X46000Y-36600
X46104Y-38692
X46161Y-34182
X46193Y-15000
X46193Y-21580
X46193Y-23380
X46400Y-38200
X46593Y-17780
X46793Y-17291
X46993Y-29380
X47193Y-31580
X47193Y-35380
X47193Y-36980
X47791Y-30782
X47993Y-34180
X48000Y-39200
X48000Y-42800
X48193Y-30780
X48193Y-33580
X48372Y-29793
X48432Y-32324
X48530Y-31694
X48593Y-20780
X48593Y-33380
X49100Y-41300
X49193Y-18915
X49406Y-35129
X49516Y-34540
X49593Y-32580
X49730Y-34870
X49999Y-35180
X50000Y-19200
X50000Y-40300
X50393Y-35180
X50393Y-39180
X50500Y-27200
X50593Y-17980
X50593Y-37180
X50900Y-27400
X51193Y-32580
X51200Y-39700
X51530Y-38207
X51717Y-34517
X51769Y-33677
X51793Y-37005
X52106Y-34579
X52265Y-35892
X52322Y-37353
X52367Y-35512
X52580Y-34193
X52707Y-33740
X52861Y-35844
X52893Y-45780
X52993Y-39380
X53057Y-43981
X53343Y-37030
X53393Y-37780
X53560Y-32148
X53580Y-33794
X53593Y-28580
X53593Y-32580
X53793Y-34495
X53800Y-35100
X53800Y-35750
X53824Y-44773
X53950Y-26400
X54243Y-38680
X54284Y-30380
X54376Y-29780
X54453Y-27733
X54493Y-44480
X54687Y-28100
X54793Y-38580
X54988Y-33934
X55107Y-29961
X55393Y-33380
X55393Y-33380
X55393Y-37580
X55396Y-34352
X55400Y-35100
X55904Y-34092
X55993Y-32580
X56093Y-44480
X56793Y-32780
X57167Y-33689
X57193Y-34780
X57193Y-35380
X57193Y-37380
X57209Y-32489
X57593Y-33915
X57860Y-32373
X58693Y-44480
X58907Y-37731
X59193Y-35780
X59293Y-42680
X59693Y-43366
X60243Y-26380
X61000Y-33713
X61193Y-35380
X62093Y-42280
X62193Y-26630
X62593Y-38780
X63193Y-35380
X64386Y-34446
X65115Y-35174
X65550Y-38000
X65702Y-32700
X66350Y-34600
X66732Y-34269
X67900Y-33200
X68699Y-30105
X69500Y-32200
X69900Y-30300
X69900Y-30800
X69942Y-31258
X71600Y-23200
X72250Y-23800
X79830Y-22030
X80250Y-21500
X82000Y-32300
X35268Y-28368
T3
X71255Y-21400
X71532Y-20732
X71532Y-22068
X72200Y-20455
X72200Y-22345
X72868Y-20732
X72868Y-22068
X73145Y-21400
X34098Y-36630
X34375Y-35962
X34375Y-37298
X35043Y-35685
X35043Y-37575
X35711Y-35962
X35711Y-37298
X35988Y-36630
X39155Y-21400
X39432Y-20732
X39432Y-22068
X40100Y-20455
X40100Y-22345
X40768Y-20732
X40768Y-22068
X41045Y-21400
T4
X57893Y-44880
X60293Y-44880
X55293Y-44880
X62893Y-44880
X60993Y-30480
X52893Y-44880
X54993Y-30480
X56993Y-30480
X71593Y-34080
X62993Y-30480
X67593Y-34080
X64993Y-30480
X58993Y-30480
X66995Y-30479
T5
X57893Y-40780
X57893Y-41780
X57893Y-42780
X52893Y-40780
X52893Y-41780
X52893Y-42780
X62893Y-40780
X62893Y-41780
X62893Y-42780
X55393Y-40780
X55393Y-41780
X55393Y-42780
X60393Y-40780
X60393Y-41780
X60393Y-42780
T6
X57402Y-23110
X62843Y-23080
X63713Y-22201
X64543Y-21380
X69254Y-27241
X70150Y-29406
X70304Y-26191
X70643Y-25380
X71143Y-28880
X72493Y-28880
X76743Y-33080
X79193Y-10880
X80193Y-10880
X81193Y-10880
X82193Y-10880
X84200Y-32000
X84200Y-33000
X84200Y-34000
X84200Y-35000
X84200Y-36000
X84200Y-37000
X84200Y-38000
X64893Y-41780
X64893Y-42780
X64893Y-43780
X50993Y-25380
X50993Y-26380
X51993Y-25380
X51993Y-26380
X52993Y-25380
X52993Y-26380
X69543Y-34080
X29000Y-20200
X29000Y-21200
X29000Y-22200
X29000Y-23200
X29000Y-24200
X29000Y-25200
X84243Y-19830
X84243Y-20830
X84243Y-21830
X84243Y-22830
T7
X46393Y-43580
X47393Y-43580
X48393Y-43580
X49393Y-43580
X50393Y-43580
X75593Y-21259
X75593Y-23030
X78152Y-21259
X78152Y-23030
T8
X78993Y-25480
X78993Y-27480
X77593Y-17280
X77593Y-19280
X84493Y-44700
X86493Y-44700
T9
X72200Y-21400
X35043Y-36630
X40100Y-21400
T10
X82543Y-44031
X82543Y-44369
X82543Y-44719
X82543Y-45069
X82543Y-37142
X82543Y-37479
X82543Y-37829
X82543Y-38179
X81040Y-37175
X81040Y-37525
X81040Y-37875
X81040Y-38213
X66276Y-39538
X66276Y-39888
X66276Y-40238
X66276Y-40575
X81040Y-44065
X81040Y-44415
X81040Y-44765
X81040Y-45103
X43273Y-36105
X43273Y-36455
X43273Y-36805
X43273Y-37143
X67661Y-39504
X67661Y-39841
X67661Y-40191
X67661Y-40541
X34547Y-26474
X34884Y-26474
X35234Y-26474
X35584Y-26474
X45063Y-36118
X45063Y-36455
X45063Y-36805
X45063Y-37155
X34568Y-28368
X34918Y-28368
X35605Y-28368
T11
X52800Y-23700
X84094Y-40669
T12
X68858Y-38307
T0
M30
