G04 #@! TF.GenerationSoftware,KiCad,Pcbnew,(5.1.5-0-10_14)*
G04 #@! TF.CreationDate,2019-12-30T19:25:45+01:00*
G04 #@! TF.ProjectId,ErnoCCC,45726e6f-4343-4432-9e6b-696361645f70,rev?*
G04 #@! TF.SameCoordinates,Original*
G04 #@! TF.FileFunction,Paste,Top*
G04 #@! TF.FilePolarity,Positive*
%FSLAX46Y46*%
G04 Gerber Fmt 4.6, Leading zero omitted, Abs format (unit mm)*
G04 Created by KiCad (PCBNEW (5.1.5-0-10_14)) date 2019-12-30 19:25:45*
%MOMM*%
%LPD*%
G04 APERTURE LIST*
%ADD10C,0.050000*%
%ADD11R,0.550000X1.600000*%
%ADD12R,1.600000X0.550000*%
%ADD13R,1.200000X2.200000*%
%ADD14R,2.750000X3.050000*%
%ADD15R,2.500000X2.300000*%
%ADD16R,1.000000X1.500000*%
%ADD17R,3.600000X2.700000*%
%ADD18R,0.600000X2.000000*%
%ADD19R,0.800000X0.900000*%
%ADD20R,0.900000X0.800000*%
%ADD21R,1.900000X2.400000*%
G04 APERTURE END LIST*
D10*
G36*
X208579504Y-57240204D02*
G01*
X208603773Y-57243804D01*
X208627571Y-57249765D01*
X208650671Y-57258030D01*
X208672849Y-57268520D01*
X208693893Y-57281133D01*
X208713598Y-57295747D01*
X208731777Y-57312223D01*
X208748253Y-57330402D01*
X208762867Y-57350107D01*
X208775480Y-57371151D01*
X208785970Y-57393329D01*
X208794235Y-57416429D01*
X208800196Y-57440227D01*
X208803796Y-57464496D01*
X208805000Y-57489000D01*
X208805000Y-58589000D01*
X208803796Y-58613504D01*
X208800196Y-58637773D01*
X208794235Y-58661571D01*
X208785970Y-58684671D01*
X208775480Y-58706849D01*
X208762867Y-58727893D01*
X208748253Y-58747598D01*
X208731777Y-58765777D01*
X208713598Y-58782253D01*
X208693893Y-58796867D01*
X208672849Y-58809480D01*
X208650671Y-58819970D01*
X208627571Y-58828235D01*
X208603773Y-58834196D01*
X208579504Y-58837796D01*
X208555000Y-58839000D01*
X206055000Y-58839000D01*
X206030496Y-58837796D01*
X206006227Y-58834196D01*
X205982429Y-58828235D01*
X205959329Y-58819970D01*
X205937151Y-58809480D01*
X205916107Y-58796867D01*
X205896402Y-58782253D01*
X205878223Y-58765777D01*
X205861747Y-58747598D01*
X205847133Y-58727893D01*
X205834520Y-58706849D01*
X205824030Y-58684671D01*
X205815765Y-58661571D01*
X205809804Y-58637773D01*
X205806204Y-58613504D01*
X205805000Y-58589000D01*
X205805000Y-57489000D01*
X205806204Y-57464496D01*
X205809804Y-57440227D01*
X205815765Y-57416429D01*
X205824030Y-57393329D01*
X205834520Y-57371151D01*
X205847133Y-57350107D01*
X205861747Y-57330402D01*
X205878223Y-57312223D01*
X205896402Y-57295747D01*
X205916107Y-57281133D01*
X205937151Y-57268520D01*
X205959329Y-57258030D01*
X205982429Y-57249765D01*
X206006227Y-57243804D01*
X206030496Y-57240204D01*
X206055000Y-57239000D01*
X208555000Y-57239000D01*
X208579504Y-57240204D01*
G37*
G36*
X204179504Y-57240204D02*
G01*
X204203773Y-57243804D01*
X204227571Y-57249765D01*
X204250671Y-57258030D01*
X204272849Y-57268520D01*
X204293893Y-57281133D01*
X204313598Y-57295747D01*
X204331777Y-57312223D01*
X204348253Y-57330402D01*
X204362867Y-57350107D01*
X204375480Y-57371151D01*
X204385970Y-57393329D01*
X204394235Y-57416429D01*
X204400196Y-57440227D01*
X204403796Y-57464496D01*
X204405000Y-57489000D01*
X204405000Y-58589000D01*
X204403796Y-58613504D01*
X204400196Y-58637773D01*
X204394235Y-58661571D01*
X204385970Y-58684671D01*
X204375480Y-58706849D01*
X204362867Y-58727893D01*
X204348253Y-58747598D01*
X204331777Y-58765777D01*
X204313598Y-58782253D01*
X204293893Y-58796867D01*
X204272849Y-58809480D01*
X204250671Y-58819970D01*
X204227571Y-58828235D01*
X204203773Y-58834196D01*
X204179504Y-58837796D01*
X204155000Y-58839000D01*
X201655000Y-58839000D01*
X201630496Y-58837796D01*
X201606227Y-58834196D01*
X201582429Y-58828235D01*
X201559329Y-58819970D01*
X201537151Y-58809480D01*
X201516107Y-58796867D01*
X201496402Y-58782253D01*
X201478223Y-58765777D01*
X201461747Y-58747598D01*
X201447133Y-58727893D01*
X201434520Y-58706849D01*
X201424030Y-58684671D01*
X201415765Y-58661571D01*
X201409804Y-58637773D01*
X201406204Y-58613504D01*
X201405000Y-58589000D01*
X201405000Y-57489000D01*
X201406204Y-57464496D01*
X201409804Y-57440227D01*
X201415765Y-57416429D01*
X201424030Y-57393329D01*
X201434520Y-57371151D01*
X201447133Y-57350107D01*
X201461747Y-57330402D01*
X201478223Y-57312223D01*
X201496402Y-57295747D01*
X201516107Y-57281133D01*
X201537151Y-57268520D01*
X201559329Y-57258030D01*
X201582429Y-57249765D01*
X201606227Y-57243804D01*
X201630496Y-57240204D01*
X201655000Y-57239000D01*
X204155000Y-57239000D01*
X204179504Y-57240204D01*
G37*
G36*
X184576504Y-80989204D02*
G01*
X184600773Y-80992804D01*
X184624571Y-80998765D01*
X184647671Y-81007030D01*
X184669849Y-81017520D01*
X184690893Y-81030133D01*
X184710598Y-81044747D01*
X184728777Y-81061223D01*
X184745253Y-81079402D01*
X184759867Y-81099107D01*
X184772480Y-81120151D01*
X184782970Y-81142329D01*
X184791235Y-81165429D01*
X184797196Y-81189227D01*
X184800796Y-81213496D01*
X184802000Y-81238000D01*
X184802000Y-82338000D01*
X184800796Y-82362504D01*
X184797196Y-82386773D01*
X184791235Y-82410571D01*
X184782970Y-82433671D01*
X184772480Y-82455849D01*
X184759867Y-82476893D01*
X184745253Y-82496598D01*
X184728777Y-82514777D01*
X184710598Y-82531253D01*
X184690893Y-82545867D01*
X184669849Y-82558480D01*
X184647671Y-82568970D01*
X184624571Y-82577235D01*
X184600773Y-82583196D01*
X184576504Y-82586796D01*
X184552000Y-82588000D01*
X182052000Y-82588000D01*
X182027496Y-82586796D01*
X182003227Y-82583196D01*
X181979429Y-82577235D01*
X181956329Y-82568970D01*
X181934151Y-82558480D01*
X181913107Y-82545867D01*
X181893402Y-82531253D01*
X181875223Y-82514777D01*
X181858747Y-82496598D01*
X181844133Y-82476893D01*
X181831520Y-82455849D01*
X181821030Y-82433671D01*
X181812765Y-82410571D01*
X181806804Y-82386773D01*
X181803204Y-82362504D01*
X181802000Y-82338000D01*
X181802000Y-81238000D01*
X181803204Y-81213496D01*
X181806804Y-81189227D01*
X181812765Y-81165429D01*
X181821030Y-81142329D01*
X181831520Y-81120151D01*
X181844133Y-81099107D01*
X181858747Y-81079402D01*
X181875223Y-81061223D01*
X181893402Y-81044747D01*
X181913107Y-81030133D01*
X181934151Y-81017520D01*
X181956329Y-81007030D01*
X181979429Y-80998765D01*
X182003227Y-80992804D01*
X182027496Y-80989204D01*
X182052000Y-80988000D01*
X184552000Y-80988000D01*
X184576504Y-80989204D01*
G37*
G36*
X180176504Y-80989204D02*
G01*
X180200773Y-80992804D01*
X180224571Y-80998765D01*
X180247671Y-81007030D01*
X180269849Y-81017520D01*
X180290893Y-81030133D01*
X180310598Y-81044747D01*
X180328777Y-81061223D01*
X180345253Y-81079402D01*
X180359867Y-81099107D01*
X180372480Y-81120151D01*
X180382970Y-81142329D01*
X180391235Y-81165429D01*
X180397196Y-81189227D01*
X180400796Y-81213496D01*
X180402000Y-81238000D01*
X180402000Y-82338000D01*
X180400796Y-82362504D01*
X180397196Y-82386773D01*
X180391235Y-82410571D01*
X180382970Y-82433671D01*
X180372480Y-82455849D01*
X180359867Y-82476893D01*
X180345253Y-82496598D01*
X180328777Y-82514777D01*
X180310598Y-82531253D01*
X180290893Y-82545867D01*
X180269849Y-82558480D01*
X180247671Y-82568970D01*
X180224571Y-82577235D01*
X180200773Y-82583196D01*
X180176504Y-82586796D01*
X180152000Y-82588000D01*
X177652000Y-82588000D01*
X177627496Y-82586796D01*
X177603227Y-82583196D01*
X177579429Y-82577235D01*
X177556329Y-82568970D01*
X177534151Y-82558480D01*
X177513107Y-82545867D01*
X177493402Y-82531253D01*
X177475223Y-82514777D01*
X177458747Y-82496598D01*
X177444133Y-82476893D01*
X177431520Y-82455849D01*
X177421030Y-82433671D01*
X177412765Y-82410571D01*
X177406804Y-82386773D01*
X177403204Y-82362504D01*
X177402000Y-82338000D01*
X177402000Y-81238000D01*
X177403204Y-81213496D01*
X177406804Y-81189227D01*
X177412765Y-81165429D01*
X177421030Y-81142329D01*
X177431520Y-81120151D01*
X177444133Y-81099107D01*
X177458747Y-81079402D01*
X177475223Y-81061223D01*
X177493402Y-81044747D01*
X177513107Y-81030133D01*
X177534151Y-81017520D01*
X177556329Y-81007030D01*
X177579429Y-80998765D01*
X177603227Y-80992804D01*
X177627496Y-80989204D01*
X177652000Y-80988000D01*
X180152000Y-80988000D01*
X180176504Y-80989204D01*
G37*
D11*
X136894000Y-84092000D03*
X136094000Y-84092000D03*
X135294000Y-84092000D03*
X134494000Y-84092000D03*
X133694000Y-84092000D03*
X132894000Y-84092000D03*
X132094000Y-84092000D03*
X131294000Y-84092000D03*
D12*
X129844000Y-85542000D03*
X129844000Y-86342000D03*
X129844000Y-87142000D03*
X129844000Y-87942000D03*
X129844000Y-88742000D03*
X129844000Y-89542000D03*
X129844000Y-90342000D03*
X129844000Y-91142000D03*
D11*
X131294000Y-92592000D03*
X132094000Y-92592000D03*
X132894000Y-92592000D03*
X133694000Y-92592000D03*
X134494000Y-92592000D03*
X135294000Y-92592000D03*
X136094000Y-92592000D03*
X136894000Y-92592000D03*
D12*
X138344000Y-91142000D03*
X138344000Y-90342000D03*
X138344000Y-89542000D03*
X138344000Y-88742000D03*
X138344000Y-87942000D03*
X138344000Y-87142000D03*
X138344000Y-86342000D03*
X138344000Y-85542000D03*
D13*
X192272000Y-79112000D03*
X187712000Y-79112000D03*
D14*
X188467000Y-87087000D03*
X191517000Y-83737000D03*
X191517000Y-87087000D03*
X188467000Y-83737000D03*
D10*
G36*
X195648504Y-66011204D02*
G01*
X195672773Y-66014804D01*
X195696571Y-66020765D01*
X195719671Y-66029030D01*
X195741849Y-66039520D01*
X195762893Y-66052133D01*
X195782598Y-66066747D01*
X195800777Y-66083223D01*
X195817253Y-66101402D01*
X195831867Y-66121107D01*
X195844480Y-66142151D01*
X195854970Y-66164329D01*
X195863235Y-66187429D01*
X195869196Y-66211227D01*
X195872796Y-66235496D01*
X195874000Y-66260000D01*
X195874000Y-68260000D01*
X195872796Y-68284504D01*
X195869196Y-68308773D01*
X195863235Y-68332571D01*
X195854970Y-68355671D01*
X195844480Y-68377849D01*
X195831867Y-68398893D01*
X195817253Y-68418598D01*
X195800777Y-68436777D01*
X195782598Y-68453253D01*
X195762893Y-68467867D01*
X195741849Y-68480480D01*
X195719671Y-68490970D01*
X195696571Y-68499235D01*
X195672773Y-68505196D01*
X195648504Y-68508796D01*
X195624000Y-68510000D01*
X191724000Y-68510000D01*
X191699496Y-68508796D01*
X191675227Y-68505196D01*
X191651429Y-68499235D01*
X191628329Y-68490970D01*
X191606151Y-68480480D01*
X191585107Y-68467867D01*
X191565402Y-68453253D01*
X191547223Y-68436777D01*
X191530747Y-68418598D01*
X191516133Y-68398893D01*
X191503520Y-68377849D01*
X191493030Y-68355671D01*
X191484765Y-68332571D01*
X191478804Y-68308773D01*
X191475204Y-68284504D01*
X191474000Y-68260000D01*
X191474000Y-66260000D01*
X191475204Y-66235496D01*
X191478804Y-66211227D01*
X191484765Y-66187429D01*
X191493030Y-66164329D01*
X191503520Y-66142151D01*
X191516133Y-66121107D01*
X191530747Y-66101402D01*
X191547223Y-66083223D01*
X191565402Y-66066747D01*
X191585107Y-66052133D01*
X191606151Y-66039520D01*
X191628329Y-66029030D01*
X191651429Y-66020765D01*
X191675227Y-66014804D01*
X191699496Y-66011204D01*
X191724000Y-66010000D01*
X195624000Y-66010000D01*
X195648504Y-66011204D01*
G37*
G36*
X188248504Y-66011204D02*
G01*
X188272773Y-66014804D01*
X188296571Y-66020765D01*
X188319671Y-66029030D01*
X188341849Y-66039520D01*
X188362893Y-66052133D01*
X188382598Y-66066747D01*
X188400777Y-66083223D01*
X188417253Y-66101402D01*
X188431867Y-66121107D01*
X188444480Y-66142151D01*
X188454970Y-66164329D01*
X188463235Y-66187429D01*
X188469196Y-66211227D01*
X188472796Y-66235496D01*
X188474000Y-66260000D01*
X188474000Y-68260000D01*
X188472796Y-68284504D01*
X188469196Y-68308773D01*
X188463235Y-68332571D01*
X188454970Y-68355671D01*
X188444480Y-68377849D01*
X188431867Y-68398893D01*
X188417253Y-68418598D01*
X188400777Y-68436777D01*
X188382598Y-68453253D01*
X188362893Y-68467867D01*
X188341849Y-68480480D01*
X188319671Y-68490970D01*
X188296571Y-68499235D01*
X188272773Y-68505196D01*
X188248504Y-68508796D01*
X188224000Y-68510000D01*
X184324000Y-68510000D01*
X184299496Y-68508796D01*
X184275227Y-68505196D01*
X184251429Y-68499235D01*
X184228329Y-68490970D01*
X184206151Y-68480480D01*
X184185107Y-68467867D01*
X184165402Y-68453253D01*
X184147223Y-68436777D01*
X184130747Y-68418598D01*
X184116133Y-68398893D01*
X184103520Y-68377849D01*
X184093030Y-68355671D01*
X184084765Y-68332571D01*
X184078804Y-68308773D01*
X184075204Y-68284504D01*
X184074000Y-68260000D01*
X184074000Y-66260000D01*
X184075204Y-66235496D01*
X184078804Y-66211227D01*
X184084765Y-66187429D01*
X184093030Y-66164329D01*
X184103520Y-66142151D01*
X184116133Y-66121107D01*
X184130747Y-66101402D01*
X184147223Y-66083223D01*
X184165402Y-66066747D01*
X184185107Y-66052133D01*
X184206151Y-66039520D01*
X184228329Y-66029030D01*
X184251429Y-66020765D01*
X184275227Y-66014804D01*
X184299496Y-66011204D01*
X184324000Y-66010000D01*
X188224000Y-66010000D01*
X188248504Y-66011204D01*
G37*
G36*
X207940504Y-78203204D02*
G01*
X207964773Y-78206804D01*
X207988571Y-78212765D01*
X208011671Y-78221030D01*
X208033849Y-78231520D01*
X208054893Y-78244133D01*
X208074598Y-78258747D01*
X208092777Y-78275223D01*
X208109253Y-78293402D01*
X208123867Y-78313107D01*
X208136480Y-78334151D01*
X208146970Y-78356329D01*
X208155235Y-78379429D01*
X208161196Y-78403227D01*
X208164796Y-78427496D01*
X208166000Y-78452000D01*
X208166000Y-80452000D01*
X208164796Y-80476504D01*
X208161196Y-80500773D01*
X208155235Y-80524571D01*
X208146970Y-80547671D01*
X208136480Y-80569849D01*
X208123867Y-80590893D01*
X208109253Y-80610598D01*
X208092777Y-80628777D01*
X208074598Y-80645253D01*
X208054893Y-80659867D01*
X208033849Y-80672480D01*
X208011671Y-80682970D01*
X207988571Y-80691235D01*
X207964773Y-80697196D01*
X207940504Y-80700796D01*
X207916000Y-80702000D01*
X204416000Y-80702000D01*
X204391496Y-80700796D01*
X204367227Y-80697196D01*
X204343429Y-80691235D01*
X204320329Y-80682970D01*
X204298151Y-80672480D01*
X204277107Y-80659867D01*
X204257402Y-80645253D01*
X204239223Y-80628777D01*
X204222747Y-80610598D01*
X204208133Y-80590893D01*
X204195520Y-80569849D01*
X204185030Y-80547671D01*
X204176765Y-80524571D01*
X204170804Y-80500773D01*
X204167204Y-80476504D01*
X204166000Y-80452000D01*
X204166000Y-78452000D01*
X204167204Y-78427496D01*
X204170804Y-78403227D01*
X204176765Y-78379429D01*
X204185030Y-78356329D01*
X204195520Y-78334151D01*
X204208133Y-78313107D01*
X204222747Y-78293402D01*
X204239223Y-78275223D01*
X204257402Y-78258747D01*
X204277107Y-78244133D01*
X204298151Y-78231520D01*
X204320329Y-78221030D01*
X204343429Y-78212765D01*
X204367227Y-78206804D01*
X204391496Y-78203204D01*
X204416000Y-78202000D01*
X207916000Y-78202000D01*
X207940504Y-78203204D01*
G37*
G36*
X199940504Y-78203204D02*
G01*
X199964773Y-78206804D01*
X199988571Y-78212765D01*
X200011671Y-78221030D01*
X200033849Y-78231520D01*
X200054893Y-78244133D01*
X200074598Y-78258747D01*
X200092777Y-78275223D01*
X200109253Y-78293402D01*
X200123867Y-78313107D01*
X200136480Y-78334151D01*
X200146970Y-78356329D01*
X200155235Y-78379429D01*
X200161196Y-78403227D01*
X200164796Y-78427496D01*
X200166000Y-78452000D01*
X200166000Y-80452000D01*
X200164796Y-80476504D01*
X200161196Y-80500773D01*
X200155235Y-80524571D01*
X200146970Y-80547671D01*
X200136480Y-80569849D01*
X200123867Y-80590893D01*
X200109253Y-80610598D01*
X200092777Y-80628777D01*
X200074598Y-80645253D01*
X200054893Y-80659867D01*
X200033849Y-80672480D01*
X200011671Y-80682970D01*
X199988571Y-80691235D01*
X199964773Y-80697196D01*
X199940504Y-80700796D01*
X199916000Y-80702000D01*
X196416000Y-80702000D01*
X196391496Y-80700796D01*
X196367227Y-80697196D01*
X196343429Y-80691235D01*
X196320329Y-80682970D01*
X196298151Y-80672480D01*
X196277107Y-80659867D01*
X196257402Y-80645253D01*
X196239223Y-80628777D01*
X196222747Y-80610598D01*
X196208133Y-80590893D01*
X196195520Y-80569849D01*
X196185030Y-80547671D01*
X196176765Y-80524571D01*
X196170804Y-80500773D01*
X196167204Y-80476504D01*
X196166000Y-80452000D01*
X196166000Y-78452000D01*
X196167204Y-78427496D01*
X196170804Y-78403227D01*
X196176765Y-78379429D01*
X196185030Y-78356329D01*
X196195520Y-78334151D01*
X196208133Y-78313107D01*
X196222747Y-78293402D01*
X196239223Y-78275223D01*
X196257402Y-78258747D01*
X196277107Y-78244133D01*
X196298151Y-78231520D01*
X196320329Y-78221030D01*
X196343429Y-78212765D01*
X196367227Y-78206804D01*
X196391496Y-78203204D01*
X196416000Y-78202000D01*
X199916000Y-78202000D01*
X199940504Y-78203204D01*
G37*
D15*
X169282000Y-52147000D03*
X173582000Y-52147000D03*
D16*
X220218000Y-100566001D03*
X220218000Y-106189999D03*
X222758000Y-100566001D03*
X222758000Y-106189999D03*
D10*
G36*
X157970504Y-63165204D02*
G01*
X157994773Y-63168804D01*
X158018571Y-63174765D01*
X158041671Y-63183030D01*
X158063849Y-63193520D01*
X158084893Y-63206133D01*
X158104598Y-63220747D01*
X158122777Y-63237223D01*
X158139253Y-63255402D01*
X158153867Y-63275107D01*
X158166480Y-63296151D01*
X158176970Y-63318329D01*
X158185235Y-63341429D01*
X158191196Y-63365227D01*
X158194796Y-63389496D01*
X158196000Y-63414000D01*
X158196000Y-63924000D01*
X158194796Y-63948504D01*
X158191196Y-63972773D01*
X158185235Y-63996571D01*
X158176970Y-64019671D01*
X158166480Y-64041849D01*
X158153867Y-64062893D01*
X158139253Y-64082598D01*
X158122777Y-64100777D01*
X158104598Y-64117253D01*
X158084893Y-64131867D01*
X158063849Y-64144480D01*
X158041671Y-64154970D01*
X158018571Y-64163235D01*
X157994773Y-64169196D01*
X157970504Y-64172796D01*
X157946000Y-64174000D01*
X156856000Y-64174000D01*
X156831496Y-64172796D01*
X156807227Y-64169196D01*
X156783429Y-64163235D01*
X156760329Y-64154970D01*
X156738151Y-64144480D01*
X156717107Y-64131867D01*
X156697402Y-64117253D01*
X156679223Y-64100777D01*
X156662747Y-64082598D01*
X156648133Y-64062893D01*
X156635520Y-64041849D01*
X156625030Y-64019671D01*
X156616765Y-63996571D01*
X156610804Y-63972773D01*
X156607204Y-63948504D01*
X156606000Y-63924000D01*
X156606000Y-63414000D01*
X156607204Y-63389496D01*
X156610804Y-63365227D01*
X156616765Y-63341429D01*
X156625030Y-63318329D01*
X156635520Y-63296151D01*
X156648133Y-63275107D01*
X156662747Y-63255402D01*
X156679223Y-63237223D01*
X156697402Y-63220747D01*
X156717107Y-63206133D01*
X156738151Y-63193520D01*
X156760329Y-63183030D01*
X156783429Y-63174765D01*
X156807227Y-63168804D01*
X156831496Y-63165204D01*
X156856000Y-63164000D01*
X157946000Y-63164000D01*
X157970504Y-63165204D01*
G37*
G36*
X159870504Y-63165204D02*
G01*
X159894773Y-63168804D01*
X159918571Y-63174765D01*
X159941671Y-63183030D01*
X159963849Y-63193520D01*
X159984893Y-63206133D01*
X160004598Y-63220747D01*
X160022777Y-63237223D01*
X160039253Y-63255402D01*
X160053867Y-63275107D01*
X160066480Y-63296151D01*
X160076970Y-63318329D01*
X160085235Y-63341429D01*
X160091196Y-63365227D01*
X160094796Y-63389496D01*
X160096000Y-63414000D01*
X160096000Y-63924000D01*
X160094796Y-63948504D01*
X160091196Y-63972773D01*
X160085235Y-63996571D01*
X160076970Y-64019671D01*
X160066480Y-64041849D01*
X160053867Y-64062893D01*
X160039253Y-64082598D01*
X160022777Y-64100777D01*
X160004598Y-64117253D01*
X159984893Y-64131867D01*
X159963849Y-64144480D01*
X159941671Y-64154970D01*
X159918571Y-64163235D01*
X159894773Y-64169196D01*
X159870504Y-64172796D01*
X159846000Y-64174000D01*
X158756000Y-64174000D01*
X158731496Y-64172796D01*
X158707227Y-64169196D01*
X158683429Y-64163235D01*
X158660329Y-64154970D01*
X158638151Y-64144480D01*
X158617107Y-64131867D01*
X158597402Y-64117253D01*
X158579223Y-64100777D01*
X158562747Y-64082598D01*
X158548133Y-64062893D01*
X158535520Y-64041849D01*
X158525030Y-64019671D01*
X158516765Y-63996571D01*
X158510804Y-63972773D01*
X158507204Y-63948504D01*
X158506000Y-63924000D01*
X158506000Y-63414000D01*
X158507204Y-63389496D01*
X158510804Y-63365227D01*
X158516765Y-63341429D01*
X158525030Y-63318329D01*
X158535520Y-63296151D01*
X158548133Y-63275107D01*
X158562747Y-63255402D01*
X158579223Y-63237223D01*
X158597402Y-63220747D01*
X158617107Y-63206133D01*
X158638151Y-63193520D01*
X158660329Y-63183030D01*
X158683429Y-63174765D01*
X158707227Y-63168804D01*
X158731496Y-63165204D01*
X158756000Y-63164000D01*
X159846000Y-63164000D01*
X159870504Y-63165204D01*
G37*
G36*
X157970504Y-61965204D02*
G01*
X157994773Y-61968804D01*
X158018571Y-61974765D01*
X158041671Y-61983030D01*
X158063849Y-61993520D01*
X158084893Y-62006133D01*
X158104598Y-62020747D01*
X158122777Y-62037223D01*
X158139253Y-62055402D01*
X158153867Y-62075107D01*
X158166480Y-62096151D01*
X158176970Y-62118329D01*
X158185235Y-62141429D01*
X158191196Y-62165227D01*
X158194796Y-62189496D01*
X158196000Y-62214000D01*
X158196000Y-62724000D01*
X158194796Y-62748504D01*
X158191196Y-62772773D01*
X158185235Y-62796571D01*
X158176970Y-62819671D01*
X158166480Y-62841849D01*
X158153867Y-62862893D01*
X158139253Y-62882598D01*
X158122777Y-62900777D01*
X158104598Y-62917253D01*
X158084893Y-62931867D01*
X158063849Y-62944480D01*
X158041671Y-62954970D01*
X158018571Y-62963235D01*
X157994773Y-62969196D01*
X157970504Y-62972796D01*
X157946000Y-62974000D01*
X156856000Y-62974000D01*
X156831496Y-62972796D01*
X156807227Y-62969196D01*
X156783429Y-62963235D01*
X156760329Y-62954970D01*
X156738151Y-62944480D01*
X156717107Y-62931867D01*
X156697402Y-62917253D01*
X156679223Y-62900777D01*
X156662747Y-62882598D01*
X156648133Y-62862893D01*
X156635520Y-62841849D01*
X156625030Y-62819671D01*
X156616765Y-62796571D01*
X156610804Y-62772773D01*
X156607204Y-62748504D01*
X156606000Y-62724000D01*
X156606000Y-62214000D01*
X156607204Y-62189496D01*
X156610804Y-62165227D01*
X156616765Y-62141429D01*
X156625030Y-62118329D01*
X156635520Y-62096151D01*
X156648133Y-62075107D01*
X156662747Y-62055402D01*
X156679223Y-62037223D01*
X156697402Y-62020747D01*
X156717107Y-62006133D01*
X156738151Y-61993520D01*
X156760329Y-61983030D01*
X156783429Y-61974765D01*
X156807227Y-61968804D01*
X156831496Y-61965204D01*
X156856000Y-61964000D01*
X157946000Y-61964000D01*
X157970504Y-61965204D01*
G37*
G36*
X159870504Y-61965204D02*
G01*
X159894773Y-61968804D01*
X159918571Y-61974765D01*
X159941671Y-61983030D01*
X159963849Y-61993520D01*
X159984893Y-62006133D01*
X160004598Y-62020747D01*
X160022777Y-62037223D01*
X160039253Y-62055402D01*
X160053867Y-62075107D01*
X160066480Y-62096151D01*
X160076970Y-62118329D01*
X160085235Y-62141429D01*
X160091196Y-62165227D01*
X160094796Y-62189496D01*
X160096000Y-62214000D01*
X160096000Y-62724000D01*
X160094796Y-62748504D01*
X160091196Y-62772773D01*
X160085235Y-62796571D01*
X160076970Y-62819671D01*
X160066480Y-62841849D01*
X160053867Y-62862893D01*
X160039253Y-62882598D01*
X160022777Y-62900777D01*
X160004598Y-62917253D01*
X159984893Y-62931867D01*
X159963849Y-62944480D01*
X159941671Y-62954970D01*
X159918571Y-62963235D01*
X159894773Y-62969196D01*
X159870504Y-62972796D01*
X159846000Y-62974000D01*
X158756000Y-62974000D01*
X158731496Y-62972796D01*
X158707227Y-62969196D01*
X158683429Y-62963235D01*
X158660329Y-62954970D01*
X158638151Y-62944480D01*
X158617107Y-62931867D01*
X158597402Y-62917253D01*
X158579223Y-62900777D01*
X158562747Y-62882598D01*
X158548133Y-62862893D01*
X158535520Y-62841849D01*
X158525030Y-62819671D01*
X158516765Y-62796571D01*
X158510804Y-62772773D01*
X158507204Y-62748504D01*
X158506000Y-62724000D01*
X158506000Y-62214000D01*
X158507204Y-62189496D01*
X158510804Y-62165227D01*
X158516765Y-62141429D01*
X158525030Y-62118329D01*
X158535520Y-62096151D01*
X158548133Y-62075107D01*
X158562747Y-62055402D01*
X158579223Y-62037223D01*
X158597402Y-62020747D01*
X158617107Y-62006133D01*
X158638151Y-61993520D01*
X158660329Y-61983030D01*
X158683429Y-61974765D01*
X158707227Y-61968804D01*
X158731496Y-61965204D01*
X158756000Y-61964000D01*
X159846000Y-61964000D01*
X159870504Y-61965204D01*
G37*
G36*
X156610703Y-64569722D02*
G01*
X156625264Y-64571882D01*
X156639543Y-64575459D01*
X156653403Y-64580418D01*
X156666710Y-64586712D01*
X156679336Y-64594280D01*
X156691159Y-64603048D01*
X156702066Y-64612934D01*
X156711952Y-64623841D01*
X156720720Y-64635664D01*
X156728288Y-64648290D01*
X156734582Y-64661597D01*
X156739541Y-64675457D01*
X156743118Y-64689736D01*
X156745278Y-64704297D01*
X156746000Y-64719000D01*
X156746000Y-66369000D01*
X156745278Y-66383703D01*
X156743118Y-66398264D01*
X156739541Y-66412543D01*
X156734582Y-66426403D01*
X156728288Y-66439710D01*
X156720720Y-66452336D01*
X156711952Y-66464159D01*
X156702066Y-66475066D01*
X156691159Y-66484952D01*
X156679336Y-66493720D01*
X156666710Y-66501288D01*
X156653403Y-66507582D01*
X156639543Y-66512541D01*
X156625264Y-66516118D01*
X156610703Y-66518278D01*
X156596000Y-66519000D01*
X156296000Y-66519000D01*
X156281297Y-66518278D01*
X156266736Y-66516118D01*
X156252457Y-66512541D01*
X156238597Y-66507582D01*
X156225290Y-66501288D01*
X156212664Y-66493720D01*
X156200841Y-66484952D01*
X156189934Y-66475066D01*
X156180048Y-66464159D01*
X156171280Y-66452336D01*
X156163712Y-66439710D01*
X156157418Y-66426403D01*
X156152459Y-66412543D01*
X156148882Y-66398264D01*
X156146722Y-66383703D01*
X156146000Y-66369000D01*
X156146000Y-64719000D01*
X156146722Y-64704297D01*
X156148882Y-64689736D01*
X156152459Y-64675457D01*
X156157418Y-64661597D01*
X156163712Y-64648290D01*
X156171280Y-64635664D01*
X156180048Y-64623841D01*
X156189934Y-64612934D01*
X156200841Y-64603048D01*
X156212664Y-64594280D01*
X156225290Y-64586712D01*
X156238597Y-64580418D01*
X156252457Y-64575459D01*
X156266736Y-64571882D01*
X156281297Y-64569722D01*
X156296000Y-64569000D01*
X156596000Y-64569000D01*
X156610703Y-64569722D01*
G37*
G36*
X157880703Y-64569722D02*
G01*
X157895264Y-64571882D01*
X157909543Y-64575459D01*
X157923403Y-64580418D01*
X157936710Y-64586712D01*
X157949336Y-64594280D01*
X157961159Y-64603048D01*
X157972066Y-64612934D01*
X157981952Y-64623841D01*
X157990720Y-64635664D01*
X157998288Y-64648290D01*
X158004582Y-64661597D01*
X158009541Y-64675457D01*
X158013118Y-64689736D01*
X158015278Y-64704297D01*
X158016000Y-64719000D01*
X158016000Y-66369000D01*
X158015278Y-66383703D01*
X158013118Y-66398264D01*
X158009541Y-66412543D01*
X158004582Y-66426403D01*
X157998288Y-66439710D01*
X157990720Y-66452336D01*
X157981952Y-66464159D01*
X157972066Y-66475066D01*
X157961159Y-66484952D01*
X157949336Y-66493720D01*
X157936710Y-66501288D01*
X157923403Y-66507582D01*
X157909543Y-66512541D01*
X157895264Y-66516118D01*
X157880703Y-66518278D01*
X157866000Y-66519000D01*
X157566000Y-66519000D01*
X157551297Y-66518278D01*
X157536736Y-66516118D01*
X157522457Y-66512541D01*
X157508597Y-66507582D01*
X157495290Y-66501288D01*
X157482664Y-66493720D01*
X157470841Y-66484952D01*
X157459934Y-66475066D01*
X157450048Y-66464159D01*
X157441280Y-66452336D01*
X157433712Y-66439710D01*
X157427418Y-66426403D01*
X157422459Y-66412543D01*
X157418882Y-66398264D01*
X157416722Y-66383703D01*
X157416000Y-66369000D01*
X157416000Y-64719000D01*
X157416722Y-64704297D01*
X157418882Y-64689736D01*
X157422459Y-64675457D01*
X157427418Y-64661597D01*
X157433712Y-64648290D01*
X157441280Y-64635664D01*
X157450048Y-64623841D01*
X157459934Y-64612934D01*
X157470841Y-64603048D01*
X157482664Y-64594280D01*
X157495290Y-64586712D01*
X157508597Y-64580418D01*
X157522457Y-64575459D01*
X157536736Y-64571882D01*
X157551297Y-64569722D01*
X157566000Y-64569000D01*
X157866000Y-64569000D01*
X157880703Y-64569722D01*
G37*
G36*
X159150703Y-64569722D02*
G01*
X159165264Y-64571882D01*
X159179543Y-64575459D01*
X159193403Y-64580418D01*
X159206710Y-64586712D01*
X159219336Y-64594280D01*
X159231159Y-64603048D01*
X159242066Y-64612934D01*
X159251952Y-64623841D01*
X159260720Y-64635664D01*
X159268288Y-64648290D01*
X159274582Y-64661597D01*
X159279541Y-64675457D01*
X159283118Y-64689736D01*
X159285278Y-64704297D01*
X159286000Y-64719000D01*
X159286000Y-66369000D01*
X159285278Y-66383703D01*
X159283118Y-66398264D01*
X159279541Y-66412543D01*
X159274582Y-66426403D01*
X159268288Y-66439710D01*
X159260720Y-66452336D01*
X159251952Y-66464159D01*
X159242066Y-66475066D01*
X159231159Y-66484952D01*
X159219336Y-66493720D01*
X159206710Y-66501288D01*
X159193403Y-66507582D01*
X159179543Y-66512541D01*
X159165264Y-66516118D01*
X159150703Y-66518278D01*
X159136000Y-66519000D01*
X158836000Y-66519000D01*
X158821297Y-66518278D01*
X158806736Y-66516118D01*
X158792457Y-66512541D01*
X158778597Y-66507582D01*
X158765290Y-66501288D01*
X158752664Y-66493720D01*
X158740841Y-66484952D01*
X158729934Y-66475066D01*
X158720048Y-66464159D01*
X158711280Y-66452336D01*
X158703712Y-66439710D01*
X158697418Y-66426403D01*
X158692459Y-66412543D01*
X158688882Y-66398264D01*
X158686722Y-66383703D01*
X158686000Y-66369000D01*
X158686000Y-64719000D01*
X158686722Y-64704297D01*
X158688882Y-64689736D01*
X158692459Y-64675457D01*
X158697418Y-64661597D01*
X158703712Y-64648290D01*
X158711280Y-64635664D01*
X158720048Y-64623841D01*
X158729934Y-64612934D01*
X158740841Y-64603048D01*
X158752664Y-64594280D01*
X158765290Y-64586712D01*
X158778597Y-64580418D01*
X158792457Y-64575459D01*
X158806736Y-64571882D01*
X158821297Y-64569722D01*
X158836000Y-64569000D01*
X159136000Y-64569000D01*
X159150703Y-64569722D01*
G37*
G36*
X160420703Y-64569722D02*
G01*
X160435264Y-64571882D01*
X160449543Y-64575459D01*
X160463403Y-64580418D01*
X160476710Y-64586712D01*
X160489336Y-64594280D01*
X160501159Y-64603048D01*
X160512066Y-64612934D01*
X160521952Y-64623841D01*
X160530720Y-64635664D01*
X160538288Y-64648290D01*
X160544582Y-64661597D01*
X160549541Y-64675457D01*
X160553118Y-64689736D01*
X160555278Y-64704297D01*
X160556000Y-64719000D01*
X160556000Y-66369000D01*
X160555278Y-66383703D01*
X160553118Y-66398264D01*
X160549541Y-66412543D01*
X160544582Y-66426403D01*
X160538288Y-66439710D01*
X160530720Y-66452336D01*
X160521952Y-66464159D01*
X160512066Y-66475066D01*
X160501159Y-66484952D01*
X160489336Y-66493720D01*
X160476710Y-66501288D01*
X160463403Y-66507582D01*
X160449543Y-66512541D01*
X160435264Y-66516118D01*
X160420703Y-66518278D01*
X160406000Y-66519000D01*
X160106000Y-66519000D01*
X160091297Y-66518278D01*
X160076736Y-66516118D01*
X160062457Y-66512541D01*
X160048597Y-66507582D01*
X160035290Y-66501288D01*
X160022664Y-66493720D01*
X160010841Y-66484952D01*
X159999934Y-66475066D01*
X159990048Y-66464159D01*
X159981280Y-66452336D01*
X159973712Y-66439710D01*
X159967418Y-66426403D01*
X159962459Y-66412543D01*
X159958882Y-66398264D01*
X159956722Y-66383703D01*
X159956000Y-66369000D01*
X159956000Y-64719000D01*
X159956722Y-64704297D01*
X159958882Y-64689736D01*
X159962459Y-64675457D01*
X159967418Y-64661597D01*
X159973712Y-64648290D01*
X159981280Y-64635664D01*
X159990048Y-64623841D01*
X159999934Y-64612934D01*
X160010841Y-64603048D01*
X160022664Y-64594280D01*
X160035290Y-64586712D01*
X160048597Y-64580418D01*
X160062457Y-64575459D01*
X160076736Y-64571882D01*
X160091297Y-64569722D01*
X160106000Y-64569000D01*
X160406000Y-64569000D01*
X160420703Y-64569722D01*
G37*
G36*
X160420703Y-59619722D02*
G01*
X160435264Y-59621882D01*
X160449543Y-59625459D01*
X160463403Y-59630418D01*
X160476710Y-59636712D01*
X160489336Y-59644280D01*
X160501159Y-59653048D01*
X160512066Y-59662934D01*
X160521952Y-59673841D01*
X160530720Y-59685664D01*
X160538288Y-59698290D01*
X160544582Y-59711597D01*
X160549541Y-59725457D01*
X160553118Y-59739736D01*
X160555278Y-59754297D01*
X160556000Y-59769000D01*
X160556000Y-61419000D01*
X160555278Y-61433703D01*
X160553118Y-61448264D01*
X160549541Y-61462543D01*
X160544582Y-61476403D01*
X160538288Y-61489710D01*
X160530720Y-61502336D01*
X160521952Y-61514159D01*
X160512066Y-61525066D01*
X160501159Y-61534952D01*
X160489336Y-61543720D01*
X160476710Y-61551288D01*
X160463403Y-61557582D01*
X160449543Y-61562541D01*
X160435264Y-61566118D01*
X160420703Y-61568278D01*
X160406000Y-61569000D01*
X160106000Y-61569000D01*
X160091297Y-61568278D01*
X160076736Y-61566118D01*
X160062457Y-61562541D01*
X160048597Y-61557582D01*
X160035290Y-61551288D01*
X160022664Y-61543720D01*
X160010841Y-61534952D01*
X159999934Y-61525066D01*
X159990048Y-61514159D01*
X159981280Y-61502336D01*
X159973712Y-61489710D01*
X159967418Y-61476403D01*
X159962459Y-61462543D01*
X159958882Y-61448264D01*
X159956722Y-61433703D01*
X159956000Y-61419000D01*
X159956000Y-59769000D01*
X159956722Y-59754297D01*
X159958882Y-59739736D01*
X159962459Y-59725457D01*
X159967418Y-59711597D01*
X159973712Y-59698290D01*
X159981280Y-59685664D01*
X159990048Y-59673841D01*
X159999934Y-59662934D01*
X160010841Y-59653048D01*
X160022664Y-59644280D01*
X160035290Y-59636712D01*
X160048597Y-59630418D01*
X160062457Y-59625459D01*
X160076736Y-59621882D01*
X160091297Y-59619722D01*
X160106000Y-59619000D01*
X160406000Y-59619000D01*
X160420703Y-59619722D01*
G37*
G36*
X159150703Y-59619722D02*
G01*
X159165264Y-59621882D01*
X159179543Y-59625459D01*
X159193403Y-59630418D01*
X159206710Y-59636712D01*
X159219336Y-59644280D01*
X159231159Y-59653048D01*
X159242066Y-59662934D01*
X159251952Y-59673841D01*
X159260720Y-59685664D01*
X159268288Y-59698290D01*
X159274582Y-59711597D01*
X159279541Y-59725457D01*
X159283118Y-59739736D01*
X159285278Y-59754297D01*
X159286000Y-59769000D01*
X159286000Y-61419000D01*
X159285278Y-61433703D01*
X159283118Y-61448264D01*
X159279541Y-61462543D01*
X159274582Y-61476403D01*
X159268288Y-61489710D01*
X159260720Y-61502336D01*
X159251952Y-61514159D01*
X159242066Y-61525066D01*
X159231159Y-61534952D01*
X159219336Y-61543720D01*
X159206710Y-61551288D01*
X159193403Y-61557582D01*
X159179543Y-61562541D01*
X159165264Y-61566118D01*
X159150703Y-61568278D01*
X159136000Y-61569000D01*
X158836000Y-61569000D01*
X158821297Y-61568278D01*
X158806736Y-61566118D01*
X158792457Y-61562541D01*
X158778597Y-61557582D01*
X158765290Y-61551288D01*
X158752664Y-61543720D01*
X158740841Y-61534952D01*
X158729934Y-61525066D01*
X158720048Y-61514159D01*
X158711280Y-61502336D01*
X158703712Y-61489710D01*
X158697418Y-61476403D01*
X158692459Y-61462543D01*
X158688882Y-61448264D01*
X158686722Y-61433703D01*
X158686000Y-61419000D01*
X158686000Y-59769000D01*
X158686722Y-59754297D01*
X158688882Y-59739736D01*
X158692459Y-59725457D01*
X158697418Y-59711597D01*
X158703712Y-59698290D01*
X158711280Y-59685664D01*
X158720048Y-59673841D01*
X158729934Y-59662934D01*
X158740841Y-59653048D01*
X158752664Y-59644280D01*
X158765290Y-59636712D01*
X158778597Y-59630418D01*
X158792457Y-59625459D01*
X158806736Y-59621882D01*
X158821297Y-59619722D01*
X158836000Y-59619000D01*
X159136000Y-59619000D01*
X159150703Y-59619722D01*
G37*
G36*
X157880703Y-59619722D02*
G01*
X157895264Y-59621882D01*
X157909543Y-59625459D01*
X157923403Y-59630418D01*
X157936710Y-59636712D01*
X157949336Y-59644280D01*
X157961159Y-59653048D01*
X157972066Y-59662934D01*
X157981952Y-59673841D01*
X157990720Y-59685664D01*
X157998288Y-59698290D01*
X158004582Y-59711597D01*
X158009541Y-59725457D01*
X158013118Y-59739736D01*
X158015278Y-59754297D01*
X158016000Y-59769000D01*
X158016000Y-61419000D01*
X158015278Y-61433703D01*
X158013118Y-61448264D01*
X158009541Y-61462543D01*
X158004582Y-61476403D01*
X157998288Y-61489710D01*
X157990720Y-61502336D01*
X157981952Y-61514159D01*
X157972066Y-61525066D01*
X157961159Y-61534952D01*
X157949336Y-61543720D01*
X157936710Y-61551288D01*
X157923403Y-61557582D01*
X157909543Y-61562541D01*
X157895264Y-61566118D01*
X157880703Y-61568278D01*
X157866000Y-61569000D01*
X157566000Y-61569000D01*
X157551297Y-61568278D01*
X157536736Y-61566118D01*
X157522457Y-61562541D01*
X157508597Y-61557582D01*
X157495290Y-61551288D01*
X157482664Y-61543720D01*
X157470841Y-61534952D01*
X157459934Y-61525066D01*
X157450048Y-61514159D01*
X157441280Y-61502336D01*
X157433712Y-61489710D01*
X157427418Y-61476403D01*
X157422459Y-61462543D01*
X157418882Y-61448264D01*
X157416722Y-61433703D01*
X157416000Y-61419000D01*
X157416000Y-59769000D01*
X157416722Y-59754297D01*
X157418882Y-59739736D01*
X157422459Y-59725457D01*
X157427418Y-59711597D01*
X157433712Y-59698290D01*
X157441280Y-59685664D01*
X157450048Y-59673841D01*
X157459934Y-59662934D01*
X157470841Y-59653048D01*
X157482664Y-59644280D01*
X157495290Y-59636712D01*
X157508597Y-59630418D01*
X157522457Y-59625459D01*
X157536736Y-59621882D01*
X157551297Y-59619722D01*
X157566000Y-59619000D01*
X157866000Y-59619000D01*
X157880703Y-59619722D01*
G37*
G36*
X156610703Y-59619722D02*
G01*
X156625264Y-59621882D01*
X156639543Y-59625459D01*
X156653403Y-59630418D01*
X156666710Y-59636712D01*
X156679336Y-59644280D01*
X156691159Y-59653048D01*
X156702066Y-59662934D01*
X156711952Y-59673841D01*
X156720720Y-59685664D01*
X156728288Y-59698290D01*
X156734582Y-59711597D01*
X156739541Y-59725457D01*
X156743118Y-59739736D01*
X156745278Y-59754297D01*
X156746000Y-59769000D01*
X156746000Y-61419000D01*
X156745278Y-61433703D01*
X156743118Y-61448264D01*
X156739541Y-61462543D01*
X156734582Y-61476403D01*
X156728288Y-61489710D01*
X156720720Y-61502336D01*
X156711952Y-61514159D01*
X156702066Y-61525066D01*
X156691159Y-61534952D01*
X156679336Y-61543720D01*
X156666710Y-61551288D01*
X156653403Y-61557582D01*
X156639543Y-61562541D01*
X156625264Y-61566118D01*
X156610703Y-61568278D01*
X156596000Y-61569000D01*
X156296000Y-61569000D01*
X156281297Y-61568278D01*
X156266736Y-61566118D01*
X156252457Y-61562541D01*
X156238597Y-61557582D01*
X156225290Y-61551288D01*
X156212664Y-61543720D01*
X156200841Y-61534952D01*
X156189934Y-61525066D01*
X156180048Y-61514159D01*
X156171280Y-61502336D01*
X156163712Y-61489710D01*
X156157418Y-61476403D01*
X156152459Y-61462543D01*
X156148882Y-61448264D01*
X156146722Y-61433703D01*
X156146000Y-61419000D01*
X156146000Y-59769000D01*
X156146722Y-59754297D01*
X156148882Y-59739736D01*
X156152459Y-59725457D01*
X156157418Y-59711597D01*
X156163712Y-59698290D01*
X156171280Y-59685664D01*
X156180048Y-59673841D01*
X156189934Y-59662934D01*
X156200841Y-59653048D01*
X156212664Y-59644280D01*
X156225290Y-59636712D01*
X156238597Y-59630418D01*
X156252457Y-59625459D01*
X156266736Y-59621882D01*
X156281297Y-59619722D01*
X156296000Y-59619000D01*
X156596000Y-59619000D01*
X156610703Y-59619722D01*
G37*
G36*
X175071504Y-59775204D02*
G01*
X175095773Y-59778804D01*
X175119571Y-59784765D01*
X175142671Y-59793030D01*
X175164849Y-59803520D01*
X175185893Y-59816133D01*
X175205598Y-59830747D01*
X175223777Y-59847223D01*
X175240253Y-59865402D01*
X175254867Y-59885107D01*
X175267480Y-59906151D01*
X175277970Y-59928329D01*
X175286235Y-59951429D01*
X175292196Y-59975227D01*
X175295796Y-59999496D01*
X175297000Y-60024000D01*
X175297000Y-60774000D01*
X175295796Y-60798504D01*
X175292196Y-60822773D01*
X175286235Y-60846571D01*
X175277970Y-60869671D01*
X175267480Y-60891849D01*
X175254867Y-60912893D01*
X175240253Y-60932598D01*
X175223777Y-60950777D01*
X175205598Y-60967253D01*
X175185893Y-60981867D01*
X175164849Y-60994480D01*
X175142671Y-61004970D01*
X175119571Y-61013235D01*
X175095773Y-61019196D01*
X175071504Y-61022796D01*
X175047000Y-61024000D01*
X172897000Y-61024000D01*
X172872496Y-61022796D01*
X172848227Y-61019196D01*
X172824429Y-61013235D01*
X172801329Y-61004970D01*
X172779151Y-60994480D01*
X172758107Y-60981867D01*
X172738402Y-60967253D01*
X172720223Y-60950777D01*
X172703747Y-60932598D01*
X172689133Y-60912893D01*
X172676520Y-60891849D01*
X172666030Y-60869671D01*
X172657765Y-60846571D01*
X172651804Y-60822773D01*
X172648204Y-60798504D01*
X172647000Y-60774000D01*
X172647000Y-60024000D01*
X172648204Y-59999496D01*
X172651804Y-59975227D01*
X172657765Y-59951429D01*
X172666030Y-59928329D01*
X172676520Y-59906151D01*
X172689133Y-59885107D01*
X172703747Y-59865402D01*
X172720223Y-59847223D01*
X172738402Y-59830747D01*
X172758107Y-59816133D01*
X172779151Y-59803520D01*
X172801329Y-59793030D01*
X172824429Y-59784765D01*
X172848227Y-59778804D01*
X172872496Y-59775204D01*
X172897000Y-59774000D01*
X175047000Y-59774000D01*
X175071504Y-59775204D01*
G37*
G36*
X175071504Y-62575204D02*
G01*
X175095773Y-62578804D01*
X175119571Y-62584765D01*
X175142671Y-62593030D01*
X175164849Y-62603520D01*
X175185893Y-62616133D01*
X175205598Y-62630747D01*
X175223777Y-62647223D01*
X175240253Y-62665402D01*
X175254867Y-62685107D01*
X175267480Y-62706151D01*
X175277970Y-62728329D01*
X175286235Y-62751429D01*
X175292196Y-62775227D01*
X175295796Y-62799496D01*
X175297000Y-62824000D01*
X175297000Y-63574000D01*
X175295796Y-63598504D01*
X175292196Y-63622773D01*
X175286235Y-63646571D01*
X175277970Y-63669671D01*
X175267480Y-63691849D01*
X175254867Y-63712893D01*
X175240253Y-63732598D01*
X175223777Y-63750777D01*
X175205598Y-63767253D01*
X175185893Y-63781867D01*
X175164849Y-63794480D01*
X175142671Y-63804970D01*
X175119571Y-63813235D01*
X175095773Y-63819196D01*
X175071504Y-63822796D01*
X175047000Y-63824000D01*
X172897000Y-63824000D01*
X172872496Y-63822796D01*
X172848227Y-63819196D01*
X172824429Y-63813235D01*
X172801329Y-63804970D01*
X172779151Y-63794480D01*
X172758107Y-63781867D01*
X172738402Y-63767253D01*
X172720223Y-63750777D01*
X172703747Y-63732598D01*
X172689133Y-63712893D01*
X172676520Y-63691849D01*
X172666030Y-63669671D01*
X172657765Y-63646571D01*
X172651804Y-63622773D01*
X172648204Y-63598504D01*
X172647000Y-63574000D01*
X172647000Y-62824000D01*
X172648204Y-62799496D01*
X172651804Y-62775227D01*
X172657765Y-62751429D01*
X172666030Y-62728329D01*
X172676520Y-62706151D01*
X172689133Y-62685107D01*
X172703747Y-62665402D01*
X172720223Y-62647223D01*
X172738402Y-62630747D01*
X172758107Y-62616133D01*
X172779151Y-62603520D01*
X172801329Y-62593030D01*
X172824429Y-62584765D01*
X172848227Y-62578804D01*
X172872496Y-62575204D01*
X172897000Y-62574000D01*
X175047000Y-62574000D01*
X175071504Y-62575204D01*
G37*
G36*
X168721504Y-59775204D02*
G01*
X168745773Y-59778804D01*
X168769571Y-59784765D01*
X168792671Y-59793030D01*
X168814849Y-59803520D01*
X168835893Y-59816133D01*
X168855598Y-59830747D01*
X168873777Y-59847223D01*
X168890253Y-59865402D01*
X168904867Y-59885107D01*
X168917480Y-59906151D01*
X168927970Y-59928329D01*
X168936235Y-59951429D01*
X168942196Y-59975227D01*
X168945796Y-59999496D01*
X168947000Y-60024000D01*
X168947000Y-60774000D01*
X168945796Y-60798504D01*
X168942196Y-60822773D01*
X168936235Y-60846571D01*
X168927970Y-60869671D01*
X168917480Y-60891849D01*
X168904867Y-60912893D01*
X168890253Y-60932598D01*
X168873777Y-60950777D01*
X168855598Y-60967253D01*
X168835893Y-60981867D01*
X168814849Y-60994480D01*
X168792671Y-61004970D01*
X168769571Y-61013235D01*
X168745773Y-61019196D01*
X168721504Y-61022796D01*
X168697000Y-61024000D01*
X166547000Y-61024000D01*
X166522496Y-61022796D01*
X166498227Y-61019196D01*
X166474429Y-61013235D01*
X166451329Y-61004970D01*
X166429151Y-60994480D01*
X166408107Y-60981867D01*
X166388402Y-60967253D01*
X166370223Y-60950777D01*
X166353747Y-60932598D01*
X166339133Y-60912893D01*
X166326520Y-60891849D01*
X166316030Y-60869671D01*
X166307765Y-60846571D01*
X166301804Y-60822773D01*
X166298204Y-60798504D01*
X166297000Y-60774000D01*
X166297000Y-60024000D01*
X166298204Y-59999496D01*
X166301804Y-59975227D01*
X166307765Y-59951429D01*
X166316030Y-59928329D01*
X166326520Y-59906151D01*
X166339133Y-59885107D01*
X166353747Y-59865402D01*
X166370223Y-59847223D01*
X166388402Y-59830747D01*
X166408107Y-59816133D01*
X166429151Y-59803520D01*
X166451329Y-59793030D01*
X166474429Y-59784765D01*
X166498227Y-59778804D01*
X166522496Y-59775204D01*
X166547000Y-59774000D01*
X168697000Y-59774000D01*
X168721504Y-59775204D01*
G37*
G36*
X168721504Y-62575204D02*
G01*
X168745773Y-62578804D01*
X168769571Y-62584765D01*
X168792671Y-62593030D01*
X168814849Y-62603520D01*
X168835893Y-62616133D01*
X168855598Y-62630747D01*
X168873777Y-62647223D01*
X168890253Y-62665402D01*
X168904867Y-62685107D01*
X168917480Y-62706151D01*
X168927970Y-62728329D01*
X168936235Y-62751429D01*
X168942196Y-62775227D01*
X168945796Y-62799496D01*
X168947000Y-62824000D01*
X168947000Y-63574000D01*
X168945796Y-63598504D01*
X168942196Y-63622773D01*
X168936235Y-63646571D01*
X168927970Y-63669671D01*
X168917480Y-63691849D01*
X168904867Y-63712893D01*
X168890253Y-63732598D01*
X168873777Y-63750777D01*
X168855598Y-63767253D01*
X168835893Y-63781867D01*
X168814849Y-63794480D01*
X168792671Y-63804970D01*
X168769571Y-63813235D01*
X168745773Y-63819196D01*
X168721504Y-63822796D01*
X168697000Y-63824000D01*
X166547000Y-63824000D01*
X166522496Y-63822796D01*
X166498227Y-63819196D01*
X166474429Y-63813235D01*
X166451329Y-63804970D01*
X166429151Y-63794480D01*
X166408107Y-63781867D01*
X166388402Y-63767253D01*
X166370223Y-63750777D01*
X166353747Y-63732598D01*
X166339133Y-63712893D01*
X166326520Y-63691849D01*
X166316030Y-63669671D01*
X166307765Y-63646571D01*
X166301804Y-63622773D01*
X166298204Y-63598504D01*
X166297000Y-63574000D01*
X166297000Y-62824000D01*
X166298204Y-62799496D01*
X166301804Y-62775227D01*
X166307765Y-62751429D01*
X166316030Y-62728329D01*
X166326520Y-62706151D01*
X166339133Y-62685107D01*
X166353747Y-62665402D01*
X166370223Y-62647223D01*
X166388402Y-62630747D01*
X166408107Y-62616133D01*
X166429151Y-62603520D01*
X166451329Y-62593030D01*
X166474429Y-62584765D01*
X166498227Y-62578804D01*
X166522496Y-62575204D01*
X166547000Y-62574000D01*
X168697000Y-62574000D01*
X168721504Y-62575204D01*
G37*
D17*
X145270000Y-70140000D03*
X145270000Y-61840000D03*
D10*
G36*
X158540142Y-50940174D02*
G01*
X158563803Y-50943684D01*
X158587007Y-50949496D01*
X158609529Y-50957554D01*
X158631153Y-50967782D01*
X158651670Y-50980079D01*
X158670883Y-50994329D01*
X158688607Y-51010393D01*
X158704671Y-51028117D01*
X158718921Y-51047330D01*
X158731218Y-51067847D01*
X158741446Y-51089471D01*
X158749504Y-51111993D01*
X158755316Y-51135197D01*
X158758826Y-51158858D01*
X158760000Y-51182750D01*
X158760000Y-52095250D01*
X158758826Y-52119142D01*
X158755316Y-52142803D01*
X158749504Y-52166007D01*
X158741446Y-52188529D01*
X158731218Y-52210153D01*
X158718921Y-52230670D01*
X158704671Y-52249883D01*
X158688607Y-52267607D01*
X158670883Y-52283671D01*
X158651670Y-52297921D01*
X158631153Y-52310218D01*
X158609529Y-52320446D01*
X158587007Y-52328504D01*
X158563803Y-52334316D01*
X158540142Y-52337826D01*
X158516250Y-52339000D01*
X158028750Y-52339000D01*
X158004858Y-52337826D01*
X157981197Y-52334316D01*
X157957993Y-52328504D01*
X157935471Y-52320446D01*
X157913847Y-52310218D01*
X157893330Y-52297921D01*
X157874117Y-52283671D01*
X157856393Y-52267607D01*
X157840329Y-52249883D01*
X157826079Y-52230670D01*
X157813782Y-52210153D01*
X157803554Y-52188529D01*
X157795496Y-52166007D01*
X157789684Y-52142803D01*
X157786174Y-52119142D01*
X157785000Y-52095250D01*
X157785000Y-51182750D01*
X157786174Y-51158858D01*
X157789684Y-51135197D01*
X157795496Y-51111993D01*
X157803554Y-51089471D01*
X157813782Y-51067847D01*
X157826079Y-51047330D01*
X157840329Y-51028117D01*
X157856393Y-51010393D01*
X157874117Y-50994329D01*
X157893330Y-50980079D01*
X157913847Y-50967782D01*
X157935471Y-50957554D01*
X157957993Y-50949496D01*
X157981197Y-50943684D01*
X158004858Y-50940174D01*
X158028750Y-50939000D01*
X158516250Y-50939000D01*
X158540142Y-50940174D01*
G37*
G36*
X156665142Y-50940174D02*
G01*
X156688803Y-50943684D01*
X156712007Y-50949496D01*
X156734529Y-50957554D01*
X156756153Y-50967782D01*
X156776670Y-50980079D01*
X156795883Y-50994329D01*
X156813607Y-51010393D01*
X156829671Y-51028117D01*
X156843921Y-51047330D01*
X156856218Y-51067847D01*
X156866446Y-51089471D01*
X156874504Y-51111993D01*
X156880316Y-51135197D01*
X156883826Y-51158858D01*
X156885000Y-51182750D01*
X156885000Y-52095250D01*
X156883826Y-52119142D01*
X156880316Y-52142803D01*
X156874504Y-52166007D01*
X156866446Y-52188529D01*
X156856218Y-52210153D01*
X156843921Y-52230670D01*
X156829671Y-52249883D01*
X156813607Y-52267607D01*
X156795883Y-52283671D01*
X156776670Y-52297921D01*
X156756153Y-52310218D01*
X156734529Y-52320446D01*
X156712007Y-52328504D01*
X156688803Y-52334316D01*
X156665142Y-52337826D01*
X156641250Y-52339000D01*
X156153750Y-52339000D01*
X156129858Y-52337826D01*
X156106197Y-52334316D01*
X156082993Y-52328504D01*
X156060471Y-52320446D01*
X156038847Y-52310218D01*
X156018330Y-52297921D01*
X155999117Y-52283671D01*
X155981393Y-52267607D01*
X155965329Y-52249883D01*
X155951079Y-52230670D01*
X155938782Y-52210153D01*
X155928554Y-52188529D01*
X155920496Y-52166007D01*
X155914684Y-52142803D01*
X155911174Y-52119142D01*
X155910000Y-52095250D01*
X155910000Y-51182750D01*
X155911174Y-51158858D01*
X155914684Y-51135197D01*
X155920496Y-51111993D01*
X155928554Y-51089471D01*
X155938782Y-51067847D01*
X155951079Y-51047330D01*
X155965329Y-51028117D01*
X155981393Y-51010393D01*
X155999117Y-50994329D01*
X156018330Y-50980079D01*
X156038847Y-50967782D01*
X156060471Y-50957554D01*
X156082993Y-50949496D01*
X156106197Y-50943684D01*
X156129858Y-50940174D01*
X156153750Y-50939000D01*
X156641250Y-50939000D01*
X156665142Y-50940174D01*
G37*
D18*
X156700000Y-89606000D03*
X156700000Y-95206000D03*
X159240000Y-89606000D03*
X159240000Y-95206000D03*
X161780000Y-89606000D03*
X161780000Y-95206000D03*
X164320000Y-89606000D03*
X164320000Y-95206000D03*
X144000000Y-89606000D03*
X144000000Y-95206000D03*
X146540000Y-89606000D03*
X146540000Y-95206000D03*
X149080000Y-89606000D03*
X149080000Y-95206000D03*
X151620000Y-89606000D03*
X151620000Y-95206000D03*
X123680000Y-79966000D03*
X123680000Y-74366000D03*
X121140000Y-79966000D03*
X121140000Y-74366000D03*
X118600000Y-79966000D03*
X118600000Y-74366000D03*
X116060000Y-79966000D03*
X116060000Y-74366000D03*
X116060000Y-98750000D03*
X116060000Y-104350000D03*
X118600000Y-98750000D03*
X118600000Y-104350000D03*
X121140000Y-98750000D03*
X121140000Y-104350000D03*
X123680000Y-98750000D03*
X123680000Y-104350000D03*
X123680000Y-92158000D03*
X123680000Y-86558000D03*
X121140000Y-92158000D03*
X121140000Y-86558000D03*
X118600000Y-92158000D03*
X118600000Y-86558000D03*
X116060000Y-92158000D03*
X116060000Y-86558000D03*
D10*
G36*
X136315142Y-96787174D02*
G01*
X136338803Y-96790684D01*
X136362007Y-96796496D01*
X136384529Y-96804554D01*
X136406153Y-96814782D01*
X136426670Y-96827079D01*
X136445883Y-96841329D01*
X136463607Y-96857393D01*
X136479671Y-96875117D01*
X136493921Y-96894330D01*
X136506218Y-96914847D01*
X136516446Y-96936471D01*
X136524504Y-96958993D01*
X136530316Y-96982197D01*
X136533826Y-97005858D01*
X136535000Y-97029750D01*
X136535000Y-97942250D01*
X136533826Y-97966142D01*
X136530316Y-97989803D01*
X136524504Y-98013007D01*
X136516446Y-98035529D01*
X136506218Y-98057153D01*
X136493921Y-98077670D01*
X136479671Y-98096883D01*
X136463607Y-98114607D01*
X136445883Y-98130671D01*
X136426670Y-98144921D01*
X136406153Y-98157218D01*
X136384529Y-98167446D01*
X136362007Y-98175504D01*
X136338803Y-98181316D01*
X136315142Y-98184826D01*
X136291250Y-98186000D01*
X135803750Y-98186000D01*
X135779858Y-98184826D01*
X135756197Y-98181316D01*
X135732993Y-98175504D01*
X135710471Y-98167446D01*
X135688847Y-98157218D01*
X135668330Y-98144921D01*
X135649117Y-98130671D01*
X135631393Y-98114607D01*
X135615329Y-98096883D01*
X135601079Y-98077670D01*
X135588782Y-98057153D01*
X135578554Y-98035529D01*
X135570496Y-98013007D01*
X135564684Y-97989803D01*
X135561174Y-97966142D01*
X135560000Y-97942250D01*
X135560000Y-97029750D01*
X135561174Y-97005858D01*
X135564684Y-96982197D01*
X135570496Y-96958993D01*
X135578554Y-96936471D01*
X135588782Y-96914847D01*
X135601079Y-96894330D01*
X135615329Y-96875117D01*
X135631393Y-96857393D01*
X135649117Y-96841329D01*
X135668330Y-96827079D01*
X135688847Y-96814782D01*
X135710471Y-96804554D01*
X135732993Y-96796496D01*
X135756197Y-96790684D01*
X135779858Y-96787174D01*
X135803750Y-96786000D01*
X136291250Y-96786000D01*
X136315142Y-96787174D01*
G37*
G36*
X134440142Y-96787174D02*
G01*
X134463803Y-96790684D01*
X134487007Y-96796496D01*
X134509529Y-96804554D01*
X134531153Y-96814782D01*
X134551670Y-96827079D01*
X134570883Y-96841329D01*
X134588607Y-96857393D01*
X134604671Y-96875117D01*
X134618921Y-96894330D01*
X134631218Y-96914847D01*
X134641446Y-96936471D01*
X134649504Y-96958993D01*
X134655316Y-96982197D01*
X134658826Y-97005858D01*
X134660000Y-97029750D01*
X134660000Y-97942250D01*
X134658826Y-97966142D01*
X134655316Y-97989803D01*
X134649504Y-98013007D01*
X134641446Y-98035529D01*
X134631218Y-98057153D01*
X134618921Y-98077670D01*
X134604671Y-98096883D01*
X134588607Y-98114607D01*
X134570883Y-98130671D01*
X134551670Y-98144921D01*
X134531153Y-98157218D01*
X134509529Y-98167446D01*
X134487007Y-98175504D01*
X134463803Y-98181316D01*
X134440142Y-98184826D01*
X134416250Y-98186000D01*
X133928750Y-98186000D01*
X133904858Y-98184826D01*
X133881197Y-98181316D01*
X133857993Y-98175504D01*
X133835471Y-98167446D01*
X133813847Y-98157218D01*
X133793330Y-98144921D01*
X133774117Y-98130671D01*
X133756393Y-98114607D01*
X133740329Y-98096883D01*
X133726079Y-98077670D01*
X133713782Y-98057153D01*
X133703554Y-98035529D01*
X133695496Y-98013007D01*
X133689684Y-97989803D01*
X133686174Y-97966142D01*
X133685000Y-97942250D01*
X133685000Y-97029750D01*
X133686174Y-97005858D01*
X133689684Y-96982197D01*
X133695496Y-96958993D01*
X133703554Y-96936471D01*
X133713782Y-96914847D01*
X133726079Y-96894330D01*
X133740329Y-96875117D01*
X133756393Y-96857393D01*
X133774117Y-96841329D01*
X133793330Y-96827079D01*
X133813847Y-96814782D01*
X133835471Y-96804554D01*
X133857993Y-96796496D01*
X133881197Y-96790684D01*
X133904858Y-96787174D01*
X133928750Y-96786000D01*
X134416250Y-96786000D01*
X134440142Y-96787174D01*
G37*
G36*
X115644142Y-47511174D02*
G01*
X115667803Y-47514684D01*
X115691007Y-47520496D01*
X115713529Y-47528554D01*
X115735153Y-47538782D01*
X115755670Y-47551079D01*
X115774883Y-47565329D01*
X115792607Y-47581393D01*
X115808671Y-47599117D01*
X115822921Y-47618330D01*
X115835218Y-47638847D01*
X115845446Y-47660471D01*
X115853504Y-47682993D01*
X115859316Y-47706197D01*
X115862826Y-47729858D01*
X115864000Y-47753750D01*
X115864000Y-48666250D01*
X115862826Y-48690142D01*
X115859316Y-48713803D01*
X115853504Y-48737007D01*
X115845446Y-48759529D01*
X115835218Y-48781153D01*
X115822921Y-48801670D01*
X115808671Y-48820883D01*
X115792607Y-48838607D01*
X115774883Y-48854671D01*
X115755670Y-48868921D01*
X115735153Y-48881218D01*
X115713529Y-48891446D01*
X115691007Y-48899504D01*
X115667803Y-48905316D01*
X115644142Y-48908826D01*
X115620250Y-48910000D01*
X115132750Y-48910000D01*
X115108858Y-48908826D01*
X115085197Y-48905316D01*
X115061993Y-48899504D01*
X115039471Y-48891446D01*
X115017847Y-48881218D01*
X114997330Y-48868921D01*
X114978117Y-48854671D01*
X114960393Y-48838607D01*
X114944329Y-48820883D01*
X114930079Y-48801670D01*
X114917782Y-48781153D01*
X114907554Y-48759529D01*
X114899496Y-48737007D01*
X114893684Y-48713803D01*
X114890174Y-48690142D01*
X114889000Y-48666250D01*
X114889000Y-47753750D01*
X114890174Y-47729858D01*
X114893684Y-47706197D01*
X114899496Y-47682993D01*
X114907554Y-47660471D01*
X114917782Y-47638847D01*
X114930079Y-47618330D01*
X114944329Y-47599117D01*
X114960393Y-47581393D01*
X114978117Y-47565329D01*
X114997330Y-47551079D01*
X115017847Y-47538782D01*
X115039471Y-47528554D01*
X115061993Y-47520496D01*
X115085197Y-47514684D01*
X115108858Y-47511174D01*
X115132750Y-47510000D01*
X115620250Y-47510000D01*
X115644142Y-47511174D01*
G37*
G36*
X117519142Y-47511174D02*
G01*
X117542803Y-47514684D01*
X117566007Y-47520496D01*
X117588529Y-47528554D01*
X117610153Y-47538782D01*
X117630670Y-47551079D01*
X117649883Y-47565329D01*
X117667607Y-47581393D01*
X117683671Y-47599117D01*
X117697921Y-47618330D01*
X117710218Y-47638847D01*
X117720446Y-47660471D01*
X117728504Y-47682993D01*
X117734316Y-47706197D01*
X117737826Y-47729858D01*
X117739000Y-47753750D01*
X117739000Y-48666250D01*
X117737826Y-48690142D01*
X117734316Y-48713803D01*
X117728504Y-48737007D01*
X117720446Y-48759529D01*
X117710218Y-48781153D01*
X117697921Y-48801670D01*
X117683671Y-48820883D01*
X117667607Y-48838607D01*
X117649883Y-48854671D01*
X117630670Y-48868921D01*
X117610153Y-48881218D01*
X117588529Y-48891446D01*
X117566007Y-48899504D01*
X117542803Y-48905316D01*
X117519142Y-48908826D01*
X117495250Y-48910000D01*
X117007750Y-48910000D01*
X116983858Y-48908826D01*
X116960197Y-48905316D01*
X116936993Y-48899504D01*
X116914471Y-48891446D01*
X116892847Y-48881218D01*
X116872330Y-48868921D01*
X116853117Y-48854671D01*
X116835393Y-48838607D01*
X116819329Y-48820883D01*
X116805079Y-48801670D01*
X116792782Y-48781153D01*
X116782554Y-48759529D01*
X116774496Y-48737007D01*
X116768684Y-48713803D01*
X116765174Y-48690142D01*
X116764000Y-48666250D01*
X116764000Y-47753750D01*
X116765174Y-47729858D01*
X116768684Y-47706197D01*
X116774496Y-47682993D01*
X116782554Y-47660471D01*
X116792782Y-47638847D01*
X116805079Y-47618330D01*
X116819329Y-47599117D01*
X116835393Y-47581393D01*
X116853117Y-47565329D01*
X116872330Y-47551079D01*
X116892847Y-47538782D01*
X116914471Y-47528554D01*
X116936993Y-47520496D01*
X116960197Y-47514684D01*
X116983858Y-47511174D01*
X117007750Y-47510000D01*
X117495250Y-47510000D01*
X117519142Y-47511174D01*
G37*
G36*
X212182142Y-43624174D02*
G01*
X212205803Y-43627684D01*
X212229007Y-43633496D01*
X212251529Y-43641554D01*
X212273153Y-43651782D01*
X212293670Y-43664079D01*
X212312883Y-43678329D01*
X212330607Y-43694393D01*
X212346671Y-43712117D01*
X212360921Y-43731330D01*
X212373218Y-43751847D01*
X212383446Y-43773471D01*
X212391504Y-43795993D01*
X212397316Y-43819197D01*
X212400826Y-43842858D01*
X212402000Y-43866750D01*
X212402000Y-44779250D01*
X212400826Y-44803142D01*
X212397316Y-44826803D01*
X212391504Y-44850007D01*
X212383446Y-44872529D01*
X212373218Y-44894153D01*
X212360921Y-44914670D01*
X212346671Y-44933883D01*
X212330607Y-44951607D01*
X212312883Y-44967671D01*
X212293670Y-44981921D01*
X212273153Y-44994218D01*
X212251529Y-45004446D01*
X212229007Y-45012504D01*
X212205803Y-45018316D01*
X212182142Y-45021826D01*
X212158250Y-45023000D01*
X211670750Y-45023000D01*
X211646858Y-45021826D01*
X211623197Y-45018316D01*
X211599993Y-45012504D01*
X211577471Y-45004446D01*
X211555847Y-44994218D01*
X211535330Y-44981921D01*
X211516117Y-44967671D01*
X211498393Y-44951607D01*
X211482329Y-44933883D01*
X211468079Y-44914670D01*
X211455782Y-44894153D01*
X211445554Y-44872529D01*
X211437496Y-44850007D01*
X211431684Y-44826803D01*
X211428174Y-44803142D01*
X211427000Y-44779250D01*
X211427000Y-43866750D01*
X211428174Y-43842858D01*
X211431684Y-43819197D01*
X211437496Y-43795993D01*
X211445554Y-43773471D01*
X211455782Y-43751847D01*
X211468079Y-43731330D01*
X211482329Y-43712117D01*
X211498393Y-43694393D01*
X211516117Y-43678329D01*
X211535330Y-43664079D01*
X211555847Y-43651782D01*
X211577471Y-43641554D01*
X211599993Y-43633496D01*
X211623197Y-43627684D01*
X211646858Y-43624174D01*
X211670750Y-43623000D01*
X212158250Y-43623000D01*
X212182142Y-43624174D01*
G37*
G36*
X214057142Y-43624174D02*
G01*
X214080803Y-43627684D01*
X214104007Y-43633496D01*
X214126529Y-43641554D01*
X214148153Y-43651782D01*
X214168670Y-43664079D01*
X214187883Y-43678329D01*
X214205607Y-43694393D01*
X214221671Y-43712117D01*
X214235921Y-43731330D01*
X214248218Y-43751847D01*
X214258446Y-43773471D01*
X214266504Y-43795993D01*
X214272316Y-43819197D01*
X214275826Y-43842858D01*
X214277000Y-43866750D01*
X214277000Y-44779250D01*
X214275826Y-44803142D01*
X214272316Y-44826803D01*
X214266504Y-44850007D01*
X214258446Y-44872529D01*
X214248218Y-44894153D01*
X214235921Y-44914670D01*
X214221671Y-44933883D01*
X214205607Y-44951607D01*
X214187883Y-44967671D01*
X214168670Y-44981921D01*
X214148153Y-44994218D01*
X214126529Y-45004446D01*
X214104007Y-45012504D01*
X214080803Y-45018316D01*
X214057142Y-45021826D01*
X214033250Y-45023000D01*
X213545750Y-45023000D01*
X213521858Y-45021826D01*
X213498197Y-45018316D01*
X213474993Y-45012504D01*
X213452471Y-45004446D01*
X213430847Y-44994218D01*
X213410330Y-44981921D01*
X213391117Y-44967671D01*
X213373393Y-44951607D01*
X213357329Y-44933883D01*
X213343079Y-44914670D01*
X213330782Y-44894153D01*
X213320554Y-44872529D01*
X213312496Y-44850007D01*
X213306684Y-44826803D01*
X213303174Y-44803142D01*
X213302000Y-44779250D01*
X213302000Y-43866750D01*
X213303174Y-43842858D01*
X213306684Y-43819197D01*
X213312496Y-43795993D01*
X213320554Y-43773471D01*
X213330782Y-43751847D01*
X213343079Y-43731330D01*
X213357329Y-43712117D01*
X213373393Y-43694393D01*
X213391117Y-43678329D01*
X213410330Y-43664079D01*
X213430847Y-43651782D01*
X213452471Y-43641554D01*
X213474993Y-43633496D01*
X213498197Y-43627684D01*
X213521858Y-43624174D01*
X213545750Y-43623000D01*
X214033250Y-43623000D01*
X214057142Y-43624174D01*
G37*
G36*
X208118142Y-30797174D02*
G01*
X208141803Y-30800684D01*
X208165007Y-30806496D01*
X208187529Y-30814554D01*
X208209153Y-30824782D01*
X208229670Y-30837079D01*
X208248883Y-30851329D01*
X208266607Y-30867393D01*
X208282671Y-30885117D01*
X208296921Y-30904330D01*
X208309218Y-30924847D01*
X208319446Y-30946471D01*
X208327504Y-30968993D01*
X208333316Y-30992197D01*
X208336826Y-31015858D01*
X208338000Y-31039750D01*
X208338000Y-31952250D01*
X208336826Y-31976142D01*
X208333316Y-31999803D01*
X208327504Y-32023007D01*
X208319446Y-32045529D01*
X208309218Y-32067153D01*
X208296921Y-32087670D01*
X208282671Y-32106883D01*
X208266607Y-32124607D01*
X208248883Y-32140671D01*
X208229670Y-32154921D01*
X208209153Y-32167218D01*
X208187529Y-32177446D01*
X208165007Y-32185504D01*
X208141803Y-32191316D01*
X208118142Y-32194826D01*
X208094250Y-32196000D01*
X207606750Y-32196000D01*
X207582858Y-32194826D01*
X207559197Y-32191316D01*
X207535993Y-32185504D01*
X207513471Y-32177446D01*
X207491847Y-32167218D01*
X207471330Y-32154921D01*
X207452117Y-32140671D01*
X207434393Y-32124607D01*
X207418329Y-32106883D01*
X207404079Y-32087670D01*
X207391782Y-32067153D01*
X207381554Y-32045529D01*
X207373496Y-32023007D01*
X207367684Y-31999803D01*
X207364174Y-31976142D01*
X207363000Y-31952250D01*
X207363000Y-31039750D01*
X207364174Y-31015858D01*
X207367684Y-30992197D01*
X207373496Y-30968993D01*
X207381554Y-30946471D01*
X207391782Y-30924847D01*
X207404079Y-30904330D01*
X207418329Y-30885117D01*
X207434393Y-30867393D01*
X207452117Y-30851329D01*
X207471330Y-30837079D01*
X207491847Y-30824782D01*
X207513471Y-30814554D01*
X207535993Y-30806496D01*
X207559197Y-30800684D01*
X207582858Y-30797174D01*
X207606750Y-30796000D01*
X208094250Y-30796000D01*
X208118142Y-30797174D01*
G37*
G36*
X209993142Y-30797174D02*
G01*
X210016803Y-30800684D01*
X210040007Y-30806496D01*
X210062529Y-30814554D01*
X210084153Y-30824782D01*
X210104670Y-30837079D01*
X210123883Y-30851329D01*
X210141607Y-30867393D01*
X210157671Y-30885117D01*
X210171921Y-30904330D01*
X210184218Y-30924847D01*
X210194446Y-30946471D01*
X210202504Y-30968993D01*
X210208316Y-30992197D01*
X210211826Y-31015858D01*
X210213000Y-31039750D01*
X210213000Y-31952250D01*
X210211826Y-31976142D01*
X210208316Y-31999803D01*
X210202504Y-32023007D01*
X210194446Y-32045529D01*
X210184218Y-32067153D01*
X210171921Y-32087670D01*
X210157671Y-32106883D01*
X210141607Y-32124607D01*
X210123883Y-32140671D01*
X210104670Y-32154921D01*
X210084153Y-32167218D01*
X210062529Y-32177446D01*
X210040007Y-32185504D01*
X210016803Y-32191316D01*
X209993142Y-32194826D01*
X209969250Y-32196000D01*
X209481750Y-32196000D01*
X209457858Y-32194826D01*
X209434197Y-32191316D01*
X209410993Y-32185504D01*
X209388471Y-32177446D01*
X209366847Y-32167218D01*
X209346330Y-32154921D01*
X209327117Y-32140671D01*
X209309393Y-32124607D01*
X209293329Y-32106883D01*
X209279079Y-32087670D01*
X209266782Y-32067153D01*
X209256554Y-32045529D01*
X209248496Y-32023007D01*
X209242684Y-31999803D01*
X209239174Y-31976142D01*
X209238000Y-31952250D01*
X209238000Y-31039750D01*
X209239174Y-31015858D01*
X209242684Y-30992197D01*
X209248496Y-30968993D01*
X209256554Y-30946471D01*
X209266782Y-30924847D01*
X209279079Y-30904330D01*
X209293329Y-30885117D01*
X209309393Y-30867393D01*
X209327117Y-30851329D01*
X209346330Y-30837079D01*
X209366847Y-30824782D01*
X209388471Y-30814554D01*
X209410993Y-30806496D01*
X209434197Y-30800684D01*
X209457858Y-30797174D01*
X209481750Y-30796000D01*
X209969250Y-30796000D01*
X209993142Y-30797174D01*
G37*
G36*
X189322142Y-73977174D02*
G01*
X189345803Y-73980684D01*
X189369007Y-73986496D01*
X189391529Y-73994554D01*
X189413153Y-74004782D01*
X189433670Y-74017079D01*
X189452883Y-74031329D01*
X189470607Y-74047393D01*
X189486671Y-74065117D01*
X189500921Y-74084330D01*
X189513218Y-74104847D01*
X189523446Y-74126471D01*
X189531504Y-74148993D01*
X189537316Y-74172197D01*
X189540826Y-74195858D01*
X189542000Y-74219750D01*
X189542000Y-75132250D01*
X189540826Y-75156142D01*
X189537316Y-75179803D01*
X189531504Y-75203007D01*
X189523446Y-75225529D01*
X189513218Y-75247153D01*
X189500921Y-75267670D01*
X189486671Y-75286883D01*
X189470607Y-75304607D01*
X189452883Y-75320671D01*
X189433670Y-75334921D01*
X189413153Y-75347218D01*
X189391529Y-75357446D01*
X189369007Y-75365504D01*
X189345803Y-75371316D01*
X189322142Y-75374826D01*
X189298250Y-75376000D01*
X188810750Y-75376000D01*
X188786858Y-75374826D01*
X188763197Y-75371316D01*
X188739993Y-75365504D01*
X188717471Y-75357446D01*
X188695847Y-75347218D01*
X188675330Y-75334921D01*
X188656117Y-75320671D01*
X188638393Y-75304607D01*
X188622329Y-75286883D01*
X188608079Y-75267670D01*
X188595782Y-75247153D01*
X188585554Y-75225529D01*
X188577496Y-75203007D01*
X188571684Y-75179803D01*
X188568174Y-75156142D01*
X188567000Y-75132250D01*
X188567000Y-74219750D01*
X188568174Y-74195858D01*
X188571684Y-74172197D01*
X188577496Y-74148993D01*
X188585554Y-74126471D01*
X188595782Y-74104847D01*
X188608079Y-74084330D01*
X188622329Y-74065117D01*
X188638393Y-74047393D01*
X188656117Y-74031329D01*
X188675330Y-74017079D01*
X188695847Y-74004782D01*
X188717471Y-73994554D01*
X188739993Y-73986496D01*
X188763197Y-73980684D01*
X188786858Y-73977174D01*
X188810750Y-73976000D01*
X189298250Y-73976000D01*
X189322142Y-73977174D01*
G37*
G36*
X191197142Y-73977174D02*
G01*
X191220803Y-73980684D01*
X191244007Y-73986496D01*
X191266529Y-73994554D01*
X191288153Y-74004782D01*
X191308670Y-74017079D01*
X191327883Y-74031329D01*
X191345607Y-74047393D01*
X191361671Y-74065117D01*
X191375921Y-74084330D01*
X191388218Y-74104847D01*
X191398446Y-74126471D01*
X191406504Y-74148993D01*
X191412316Y-74172197D01*
X191415826Y-74195858D01*
X191417000Y-74219750D01*
X191417000Y-75132250D01*
X191415826Y-75156142D01*
X191412316Y-75179803D01*
X191406504Y-75203007D01*
X191398446Y-75225529D01*
X191388218Y-75247153D01*
X191375921Y-75267670D01*
X191361671Y-75286883D01*
X191345607Y-75304607D01*
X191327883Y-75320671D01*
X191308670Y-75334921D01*
X191288153Y-75347218D01*
X191266529Y-75357446D01*
X191244007Y-75365504D01*
X191220803Y-75371316D01*
X191197142Y-75374826D01*
X191173250Y-75376000D01*
X190685750Y-75376000D01*
X190661858Y-75374826D01*
X190638197Y-75371316D01*
X190614993Y-75365504D01*
X190592471Y-75357446D01*
X190570847Y-75347218D01*
X190550330Y-75334921D01*
X190531117Y-75320671D01*
X190513393Y-75304607D01*
X190497329Y-75286883D01*
X190483079Y-75267670D01*
X190470782Y-75247153D01*
X190460554Y-75225529D01*
X190452496Y-75203007D01*
X190446684Y-75179803D01*
X190443174Y-75156142D01*
X190442000Y-75132250D01*
X190442000Y-74219750D01*
X190443174Y-74195858D01*
X190446684Y-74172197D01*
X190452496Y-74148993D01*
X190460554Y-74126471D01*
X190470782Y-74104847D01*
X190483079Y-74084330D01*
X190497329Y-74065117D01*
X190513393Y-74047393D01*
X190531117Y-74031329D01*
X190550330Y-74017079D01*
X190570847Y-74004782D01*
X190592471Y-73994554D01*
X190614993Y-73986496D01*
X190638197Y-73980684D01*
X190661858Y-73977174D01*
X190685750Y-73976000D01*
X191173250Y-73976000D01*
X191197142Y-73977174D01*
G37*
G36*
X133424142Y-72911174D02*
G01*
X133447803Y-72914684D01*
X133471007Y-72920496D01*
X133493529Y-72928554D01*
X133515153Y-72938782D01*
X133535670Y-72951079D01*
X133554883Y-72965329D01*
X133572607Y-72981393D01*
X133588671Y-72999117D01*
X133602921Y-73018330D01*
X133615218Y-73038847D01*
X133625446Y-73060471D01*
X133633504Y-73082993D01*
X133639316Y-73106197D01*
X133642826Y-73129858D01*
X133644000Y-73153750D01*
X133644000Y-74066250D01*
X133642826Y-74090142D01*
X133639316Y-74113803D01*
X133633504Y-74137007D01*
X133625446Y-74159529D01*
X133615218Y-74181153D01*
X133602921Y-74201670D01*
X133588671Y-74220883D01*
X133572607Y-74238607D01*
X133554883Y-74254671D01*
X133535670Y-74268921D01*
X133515153Y-74281218D01*
X133493529Y-74291446D01*
X133471007Y-74299504D01*
X133447803Y-74305316D01*
X133424142Y-74308826D01*
X133400250Y-74310000D01*
X132912750Y-74310000D01*
X132888858Y-74308826D01*
X132865197Y-74305316D01*
X132841993Y-74299504D01*
X132819471Y-74291446D01*
X132797847Y-74281218D01*
X132777330Y-74268921D01*
X132758117Y-74254671D01*
X132740393Y-74238607D01*
X132724329Y-74220883D01*
X132710079Y-74201670D01*
X132697782Y-74181153D01*
X132687554Y-74159529D01*
X132679496Y-74137007D01*
X132673684Y-74113803D01*
X132670174Y-74090142D01*
X132669000Y-74066250D01*
X132669000Y-73153750D01*
X132670174Y-73129858D01*
X132673684Y-73106197D01*
X132679496Y-73082993D01*
X132687554Y-73060471D01*
X132697782Y-73038847D01*
X132710079Y-73018330D01*
X132724329Y-72999117D01*
X132740393Y-72981393D01*
X132758117Y-72965329D01*
X132777330Y-72951079D01*
X132797847Y-72938782D01*
X132819471Y-72928554D01*
X132841993Y-72920496D01*
X132865197Y-72914684D01*
X132888858Y-72911174D01*
X132912750Y-72910000D01*
X133400250Y-72910000D01*
X133424142Y-72911174D01*
G37*
G36*
X135299142Y-72911174D02*
G01*
X135322803Y-72914684D01*
X135346007Y-72920496D01*
X135368529Y-72928554D01*
X135390153Y-72938782D01*
X135410670Y-72951079D01*
X135429883Y-72965329D01*
X135447607Y-72981393D01*
X135463671Y-72999117D01*
X135477921Y-73018330D01*
X135490218Y-73038847D01*
X135500446Y-73060471D01*
X135508504Y-73082993D01*
X135514316Y-73106197D01*
X135517826Y-73129858D01*
X135519000Y-73153750D01*
X135519000Y-74066250D01*
X135517826Y-74090142D01*
X135514316Y-74113803D01*
X135508504Y-74137007D01*
X135500446Y-74159529D01*
X135490218Y-74181153D01*
X135477921Y-74201670D01*
X135463671Y-74220883D01*
X135447607Y-74238607D01*
X135429883Y-74254671D01*
X135410670Y-74268921D01*
X135390153Y-74281218D01*
X135368529Y-74291446D01*
X135346007Y-74299504D01*
X135322803Y-74305316D01*
X135299142Y-74308826D01*
X135275250Y-74310000D01*
X134787750Y-74310000D01*
X134763858Y-74308826D01*
X134740197Y-74305316D01*
X134716993Y-74299504D01*
X134694471Y-74291446D01*
X134672847Y-74281218D01*
X134652330Y-74268921D01*
X134633117Y-74254671D01*
X134615393Y-74238607D01*
X134599329Y-74220883D01*
X134585079Y-74201670D01*
X134572782Y-74181153D01*
X134562554Y-74159529D01*
X134554496Y-74137007D01*
X134548684Y-74113803D01*
X134545174Y-74090142D01*
X134544000Y-74066250D01*
X134544000Y-73153750D01*
X134545174Y-73129858D01*
X134548684Y-73106197D01*
X134554496Y-73082993D01*
X134562554Y-73060471D01*
X134572782Y-73038847D01*
X134585079Y-73018330D01*
X134599329Y-72999117D01*
X134615393Y-72981393D01*
X134633117Y-72965329D01*
X134652330Y-72951079D01*
X134672847Y-72938782D01*
X134694471Y-72928554D01*
X134716993Y-72920496D01*
X134740197Y-72914684D01*
X134763858Y-72911174D01*
X134787750Y-72910000D01*
X135275250Y-72910000D01*
X135299142Y-72911174D01*
G37*
G36*
X129360142Y-72911174D02*
G01*
X129383803Y-72914684D01*
X129407007Y-72920496D01*
X129429529Y-72928554D01*
X129451153Y-72938782D01*
X129471670Y-72951079D01*
X129490883Y-72965329D01*
X129508607Y-72981393D01*
X129524671Y-72999117D01*
X129538921Y-73018330D01*
X129551218Y-73038847D01*
X129561446Y-73060471D01*
X129569504Y-73082993D01*
X129575316Y-73106197D01*
X129578826Y-73129858D01*
X129580000Y-73153750D01*
X129580000Y-74066250D01*
X129578826Y-74090142D01*
X129575316Y-74113803D01*
X129569504Y-74137007D01*
X129561446Y-74159529D01*
X129551218Y-74181153D01*
X129538921Y-74201670D01*
X129524671Y-74220883D01*
X129508607Y-74238607D01*
X129490883Y-74254671D01*
X129471670Y-74268921D01*
X129451153Y-74281218D01*
X129429529Y-74291446D01*
X129407007Y-74299504D01*
X129383803Y-74305316D01*
X129360142Y-74308826D01*
X129336250Y-74310000D01*
X128848750Y-74310000D01*
X128824858Y-74308826D01*
X128801197Y-74305316D01*
X128777993Y-74299504D01*
X128755471Y-74291446D01*
X128733847Y-74281218D01*
X128713330Y-74268921D01*
X128694117Y-74254671D01*
X128676393Y-74238607D01*
X128660329Y-74220883D01*
X128646079Y-74201670D01*
X128633782Y-74181153D01*
X128623554Y-74159529D01*
X128615496Y-74137007D01*
X128609684Y-74113803D01*
X128606174Y-74090142D01*
X128605000Y-74066250D01*
X128605000Y-73153750D01*
X128606174Y-73129858D01*
X128609684Y-73106197D01*
X128615496Y-73082993D01*
X128623554Y-73060471D01*
X128633782Y-73038847D01*
X128646079Y-73018330D01*
X128660329Y-72999117D01*
X128676393Y-72981393D01*
X128694117Y-72965329D01*
X128713330Y-72951079D01*
X128733847Y-72938782D01*
X128755471Y-72928554D01*
X128777993Y-72920496D01*
X128801197Y-72914684D01*
X128824858Y-72911174D01*
X128848750Y-72910000D01*
X129336250Y-72910000D01*
X129360142Y-72911174D01*
G37*
G36*
X131235142Y-72911174D02*
G01*
X131258803Y-72914684D01*
X131282007Y-72920496D01*
X131304529Y-72928554D01*
X131326153Y-72938782D01*
X131346670Y-72951079D01*
X131365883Y-72965329D01*
X131383607Y-72981393D01*
X131399671Y-72999117D01*
X131413921Y-73018330D01*
X131426218Y-73038847D01*
X131436446Y-73060471D01*
X131444504Y-73082993D01*
X131450316Y-73106197D01*
X131453826Y-73129858D01*
X131455000Y-73153750D01*
X131455000Y-74066250D01*
X131453826Y-74090142D01*
X131450316Y-74113803D01*
X131444504Y-74137007D01*
X131436446Y-74159529D01*
X131426218Y-74181153D01*
X131413921Y-74201670D01*
X131399671Y-74220883D01*
X131383607Y-74238607D01*
X131365883Y-74254671D01*
X131346670Y-74268921D01*
X131326153Y-74281218D01*
X131304529Y-74291446D01*
X131282007Y-74299504D01*
X131258803Y-74305316D01*
X131235142Y-74308826D01*
X131211250Y-74310000D01*
X130723750Y-74310000D01*
X130699858Y-74308826D01*
X130676197Y-74305316D01*
X130652993Y-74299504D01*
X130630471Y-74291446D01*
X130608847Y-74281218D01*
X130588330Y-74268921D01*
X130569117Y-74254671D01*
X130551393Y-74238607D01*
X130535329Y-74220883D01*
X130521079Y-74201670D01*
X130508782Y-74181153D01*
X130498554Y-74159529D01*
X130490496Y-74137007D01*
X130484684Y-74113803D01*
X130481174Y-74090142D01*
X130480000Y-74066250D01*
X130480000Y-73153750D01*
X130481174Y-73129858D01*
X130484684Y-73106197D01*
X130490496Y-73082993D01*
X130498554Y-73060471D01*
X130508782Y-73038847D01*
X130521079Y-73018330D01*
X130535329Y-72999117D01*
X130551393Y-72981393D01*
X130569117Y-72965329D01*
X130588330Y-72951079D01*
X130608847Y-72938782D01*
X130630471Y-72928554D01*
X130652993Y-72920496D01*
X130676197Y-72914684D01*
X130699858Y-72911174D01*
X130723750Y-72910000D01*
X131211250Y-72910000D01*
X131235142Y-72911174D01*
G37*
G36*
X125296142Y-40907174D02*
G01*
X125319803Y-40910684D01*
X125343007Y-40916496D01*
X125365529Y-40924554D01*
X125387153Y-40934782D01*
X125407670Y-40947079D01*
X125426883Y-40961329D01*
X125444607Y-40977393D01*
X125460671Y-40995117D01*
X125474921Y-41014330D01*
X125487218Y-41034847D01*
X125497446Y-41056471D01*
X125505504Y-41078993D01*
X125511316Y-41102197D01*
X125514826Y-41125858D01*
X125516000Y-41149750D01*
X125516000Y-42062250D01*
X125514826Y-42086142D01*
X125511316Y-42109803D01*
X125505504Y-42133007D01*
X125497446Y-42155529D01*
X125487218Y-42177153D01*
X125474921Y-42197670D01*
X125460671Y-42216883D01*
X125444607Y-42234607D01*
X125426883Y-42250671D01*
X125407670Y-42264921D01*
X125387153Y-42277218D01*
X125365529Y-42287446D01*
X125343007Y-42295504D01*
X125319803Y-42301316D01*
X125296142Y-42304826D01*
X125272250Y-42306000D01*
X124784750Y-42306000D01*
X124760858Y-42304826D01*
X124737197Y-42301316D01*
X124713993Y-42295504D01*
X124691471Y-42287446D01*
X124669847Y-42277218D01*
X124649330Y-42264921D01*
X124630117Y-42250671D01*
X124612393Y-42234607D01*
X124596329Y-42216883D01*
X124582079Y-42197670D01*
X124569782Y-42177153D01*
X124559554Y-42155529D01*
X124551496Y-42133007D01*
X124545684Y-42109803D01*
X124542174Y-42086142D01*
X124541000Y-42062250D01*
X124541000Y-41149750D01*
X124542174Y-41125858D01*
X124545684Y-41102197D01*
X124551496Y-41078993D01*
X124559554Y-41056471D01*
X124569782Y-41034847D01*
X124582079Y-41014330D01*
X124596329Y-40995117D01*
X124612393Y-40977393D01*
X124630117Y-40961329D01*
X124649330Y-40947079D01*
X124669847Y-40934782D01*
X124691471Y-40924554D01*
X124713993Y-40916496D01*
X124737197Y-40910684D01*
X124760858Y-40907174D01*
X124784750Y-40906000D01*
X125272250Y-40906000D01*
X125296142Y-40907174D01*
G37*
G36*
X127171142Y-40907174D02*
G01*
X127194803Y-40910684D01*
X127218007Y-40916496D01*
X127240529Y-40924554D01*
X127262153Y-40934782D01*
X127282670Y-40947079D01*
X127301883Y-40961329D01*
X127319607Y-40977393D01*
X127335671Y-40995117D01*
X127349921Y-41014330D01*
X127362218Y-41034847D01*
X127372446Y-41056471D01*
X127380504Y-41078993D01*
X127386316Y-41102197D01*
X127389826Y-41125858D01*
X127391000Y-41149750D01*
X127391000Y-42062250D01*
X127389826Y-42086142D01*
X127386316Y-42109803D01*
X127380504Y-42133007D01*
X127372446Y-42155529D01*
X127362218Y-42177153D01*
X127349921Y-42197670D01*
X127335671Y-42216883D01*
X127319607Y-42234607D01*
X127301883Y-42250671D01*
X127282670Y-42264921D01*
X127262153Y-42277218D01*
X127240529Y-42287446D01*
X127218007Y-42295504D01*
X127194803Y-42301316D01*
X127171142Y-42304826D01*
X127147250Y-42306000D01*
X126659750Y-42306000D01*
X126635858Y-42304826D01*
X126612197Y-42301316D01*
X126588993Y-42295504D01*
X126566471Y-42287446D01*
X126544847Y-42277218D01*
X126524330Y-42264921D01*
X126505117Y-42250671D01*
X126487393Y-42234607D01*
X126471329Y-42216883D01*
X126457079Y-42197670D01*
X126444782Y-42177153D01*
X126434554Y-42155529D01*
X126426496Y-42133007D01*
X126420684Y-42109803D01*
X126417174Y-42086142D01*
X126416000Y-42062250D01*
X126416000Y-41149750D01*
X126417174Y-41125858D01*
X126420684Y-41102197D01*
X126426496Y-41078993D01*
X126434554Y-41056471D01*
X126444782Y-41034847D01*
X126457079Y-41014330D01*
X126471329Y-40995117D01*
X126487393Y-40977393D01*
X126505117Y-40961329D01*
X126524330Y-40947079D01*
X126544847Y-40934782D01*
X126566471Y-40924554D01*
X126588993Y-40916496D01*
X126612197Y-40910684D01*
X126635858Y-40907174D01*
X126659750Y-40906000D01*
X127147250Y-40906000D01*
X127171142Y-40907174D01*
G37*
G36*
X124788142Y-54623174D02*
G01*
X124811803Y-54626684D01*
X124835007Y-54632496D01*
X124857529Y-54640554D01*
X124879153Y-54650782D01*
X124899670Y-54663079D01*
X124918883Y-54677329D01*
X124936607Y-54693393D01*
X124952671Y-54711117D01*
X124966921Y-54730330D01*
X124979218Y-54750847D01*
X124989446Y-54772471D01*
X124997504Y-54794993D01*
X125003316Y-54818197D01*
X125006826Y-54841858D01*
X125008000Y-54865750D01*
X125008000Y-55778250D01*
X125006826Y-55802142D01*
X125003316Y-55825803D01*
X124997504Y-55849007D01*
X124989446Y-55871529D01*
X124979218Y-55893153D01*
X124966921Y-55913670D01*
X124952671Y-55932883D01*
X124936607Y-55950607D01*
X124918883Y-55966671D01*
X124899670Y-55980921D01*
X124879153Y-55993218D01*
X124857529Y-56003446D01*
X124835007Y-56011504D01*
X124811803Y-56017316D01*
X124788142Y-56020826D01*
X124764250Y-56022000D01*
X124276750Y-56022000D01*
X124252858Y-56020826D01*
X124229197Y-56017316D01*
X124205993Y-56011504D01*
X124183471Y-56003446D01*
X124161847Y-55993218D01*
X124141330Y-55980921D01*
X124122117Y-55966671D01*
X124104393Y-55950607D01*
X124088329Y-55932883D01*
X124074079Y-55913670D01*
X124061782Y-55893153D01*
X124051554Y-55871529D01*
X124043496Y-55849007D01*
X124037684Y-55825803D01*
X124034174Y-55802142D01*
X124033000Y-55778250D01*
X124033000Y-54865750D01*
X124034174Y-54841858D01*
X124037684Y-54818197D01*
X124043496Y-54794993D01*
X124051554Y-54772471D01*
X124061782Y-54750847D01*
X124074079Y-54730330D01*
X124088329Y-54711117D01*
X124104393Y-54693393D01*
X124122117Y-54677329D01*
X124141330Y-54663079D01*
X124161847Y-54650782D01*
X124183471Y-54640554D01*
X124205993Y-54632496D01*
X124229197Y-54626684D01*
X124252858Y-54623174D01*
X124276750Y-54622000D01*
X124764250Y-54622000D01*
X124788142Y-54623174D01*
G37*
G36*
X126663142Y-54623174D02*
G01*
X126686803Y-54626684D01*
X126710007Y-54632496D01*
X126732529Y-54640554D01*
X126754153Y-54650782D01*
X126774670Y-54663079D01*
X126793883Y-54677329D01*
X126811607Y-54693393D01*
X126827671Y-54711117D01*
X126841921Y-54730330D01*
X126854218Y-54750847D01*
X126864446Y-54772471D01*
X126872504Y-54794993D01*
X126878316Y-54818197D01*
X126881826Y-54841858D01*
X126883000Y-54865750D01*
X126883000Y-55778250D01*
X126881826Y-55802142D01*
X126878316Y-55825803D01*
X126872504Y-55849007D01*
X126864446Y-55871529D01*
X126854218Y-55893153D01*
X126841921Y-55913670D01*
X126827671Y-55932883D01*
X126811607Y-55950607D01*
X126793883Y-55966671D01*
X126774670Y-55980921D01*
X126754153Y-55993218D01*
X126732529Y-56003446D01*
X126710007Y-56011504D01*
X126686803Y-56017316D01*
X126663142Y-56020826D01*
X126639250Y-56022000D01*
X126151750Y-56022000D01*
X126127858Y-56020826D01*
X126104197Y-56017316D01*
X126080993Y-56011504D01*
X126058471Y-56003446D01*
X126036847Y-55993218D01*
X126016330Y-55980921D01*
X125997117Y-55966671D01*
X125979393Y-55950607D01*
X125963329Y-55932883D01*
X125949079Y-55913670D01*
X125936782Y-55893153D01*
X125926554Y-55871529D01*
X125918496Y-55849007D01*
X125912684Y-55825803D01*
X125909174Y-55802142D01*
X125908000Y-55778250D01*
X125908000Y-54865750D01*
X125909174Y-54841858D01*
X125912684Y-54818197D01*
X125918496Y-54794993D01*
X125926554Y-54772471D01*
X125936782Y-54750847D01*
X125949079Y-54730330D01*
X125963329Y-54711117D01*
X125979393Y-54693393D01*
X125997117Y-54677329D01*
X126016330Y-54663079D01*
X126036847Y-54650782D01*
X126058471Y-54640554D01*
X126080993Y-54632496D01*
X126104197Y-54626684D01*
X126127858Y-54623174D01*
X126151750Y-54622000D01*
X126639250Y-54622000D01*
X126663142Y-54623174D01*
G37*
G36*
X135747504Y-116903204D02*
G01*
X135771773Y-116906804D01*
X135795571Y-116912765D01*
X135818671Y-116921030D01*
X135840849Y-116931520D01*
X135861893Y-116944133D01*
X135881598Y-116958747D01*
X135899777Y-116975223D01*
X135916253Y-116993402D01*
X135930867Y-117013107D01*
X135943480Y-117034151D01*
X135953970Y-117056329D01*
X135962235Y-117079429D01*
X135968196Y-117103227D01*
X135971796Y-117127496D01*
X135973000Y-117152000D01*
X135973000Y-117952000D01*
X135971796Y-117976504D01*
X135968196Y-118000773D01*
X135962235Y-118024571D01*
X135953970Y-118047671D01*
X135943480Y-118069849D01*
X135930867Y-118090893D01*
X135916253Y-118110598D01*
X135899777Y-118128777D01*
X135881598Y-118145253D01*
X135861893Y-118159867D01*
X135840849Y-118172480D01*
X135818671Y-118182970D01*
X135795571Y-118191235D01*
X135771773Y-118197196D01*
X135747504Y-118200796D01*
X135723000Y-118202000D01*
X134898000Y-118202000D01*
X134873496Y-118200796D01*
X134849227Y-118197196D01*
X134825429Y-118191235D01*
X134802329Y-118182970D01*
X134780151Y-118172480D01*
X134759107Y-118159867D01*
X134739402Y-118145253D01*
X134721223Y-118128777D01*
X134704747Y-118110598D01*
X134690133Y-118090893D01*
X134677520Y-118069849D01*
X134667030Y-118047671D01*
X134658765Y-118024571D01*
X134652804Y-118000773D01*
X134649204Y-117976504D01*
X134648000Y-117952000D01*
X134648000Y-117152000D01*
X134649204Y-117127496D01*
X134652804Y-117103227D01*
X134658765Y-117079429D01*
X134667030Y-117056329D01*
X134677520Y-117034151D01*
X134690133Y-117013107D01*
X134704747Y-116993402D01*
X134721223Y-116975223D01*
X134739402Y-116958747D01*
X134759107Y-116944133D01*
X134780151Y-116931520D01*
X134802329Y-116921030D01*
X134825429Y-116912765D01*
X134849227Y-116906804D01*
X134873496Y-116903204D01*
X134898000Y-116902000D01*
X135723000Y-116902000D01*
X135747504Y-116903204D01*
G37*
G36*
X133822504Y-116903204D02*
G01*
X133846773Y-116906804D01*
X133870571Y-116912765D01*
X133893671Y-116921030D01*
X133915849Y-116931520D01*
X133936893Y-116944133D01*
X133956598Y-116958747D01*
X133974777Y-116975223D01*
X133991253Y-116993402D01*
X134005867Y-117013107D01*
X134018480Y-117034151D01*
X134028970Y-117056329D01*
X134037235Y-117079429D01*
X134043196Y-117103227D01*
X134046796Y-117127496D01*
X134048000Y-117152000D01*
X134048000Y-117952000D01*
X134046796Y-117976504D01*
X134043196Y-118000773D01*
X134037235Y-118024571D01*
X134028970Y-118047671D01*
X134018480Y-118069849D01*
X134005867Y-118090893D01*
X133991253Y-118110598D01*
X133974777Y-118128777D01*
X133956598Y-118145253D01*
X133936893Y-118159867D01*
X133915849Y-118172480D01*
X133893671Y-118182970D01*
X133870571Y-118191235D01*
X133846773Y-118197196D01*
X133822504Y-118200796D01*
X133798000Y-118202000D01*
X132973000Y-118202000D01*
X132948496Y-118200796D01*
X132924227Y-118197196D01*
X132900429Y-118191235D01*
X132877329Y-118182970D01*
X132855151Y-118172480D01*
X132834107Y-118159867D01*
X132814402Y-118145253D01*
X132796223Y-118128777D01*
X132779747Y-118110598D01*
X132765133Y-118090893D01*
X132752520Y-118069849D01*
X132742030Y-118047671D01*
X132733765Y-118024571D01*
X132727804Y-118000773D01*
X132724204Y-117976504D01*
X132723000Y-117952000D01*
X132723000Y-117152000D01*
X132724204Y-117127496D01*
X132727804Y-117103227D01*
X132733765Y-117079429D01*
X132742030Y-117056329D01*
X132752520Y-117034151D01*
X132765133Y-117013107D01*
X132779747Y-116993402D01*
X132796223Y-116975223D01*
X132814402Y-116958747D01*
X132834107Y-116944133D01*
X132855151Y-116931520D01*
X132877329Y-116921030D01*
X132900429Y-116912765D01*
X132924227Y-116906804D01*
X132948496Y-116903204D01*
X132973000Y-116902000D01*
X133798000Y-116902000D01*
X133822504Y-116903204D01*
G37*
G36*
X139918504Y-116903204D02*
G01*
X139942773Y-116906804D01*
X139966571Y-116912765D01*
X139989671Y-116921030D01*
X140011849Y-116931520D01*
X140032893Y-116944133D01*
X140052598Y-116958747D01*
X140070777Y-116975223D01*
X140087253Y-116993402D01*
X140101867Y-117013107D01*
X140114480Y-117034151D01*
X140124970Y-117056329D01*
X140133235Y-117079429D01*
X140139196Y-117103227D01*
X140142796Y-117127496D01*
X140144000Y-117152000D01*
X140144000Y-117952000D01*
X140142796Y-117976504D01*
X140139196Y-118000773D01*
X140133235Y-118024571D01*
X140124970Y-118047671D01*
X140114480Y-118069849D01*
X140101867Y-118090893D01*
X140087253Y-118110598D01*
X140070777Y-118128777D01*
X140052598Y-118145253D01*
X140032893Y-118159867D01*
X140011849Y-118172480D01*
X139989671Y-118182970D01*
X139966571Y-118191235D01*
X139942773Y-118197196D01*
X139918504Y-118200796D01*
X139894000Y-118202000D01*
X139069000Y-118202000D01*
X139044496Y-118200796D01*
X139020227Y-118197196D01*
X138996429Y-118191235D01*
X138973329Y-118182970D01*
X138951151Y-118172480D01*
X138930107Y-118159867D01*
X138910402Y-118145253D01*
X138892223Y-118128777D01*
X138875747Y-118110598D01*
X138861133Y-118090893D01*
X138848520Y-118069849D01*
X138838030Y-118047671D01*
X138829765Y-118024571D01*
X138823804Y-118000773D01*
X138820204Y-117976504D01*
X138819000Y-117952000D01*
X138819000Y-117152000D01*
X138820204Y-117127496D01*
X138823804Y-117103227D01*
X138829765Y-117079429D01*
X138838030Y-117056329D01*
X138848520Y-117034151D01*
X138861133Y-117013107D01*
X138875747Y-116993402D01*
X138892223Y-116975223D01*
X138910402Y-116958747D01*
X138930107Y-116944133D01*
X138951151Y-116931520D01*
X138973329Y-116921030D01*
X138996429Y-116912765D01*
X139020227Y-116906804D01*
X139044496Y-116903204D01*
X139069000Y-116902000D01*
X139894000Y-116902000D01*
X139918504Y-116903204D01*
G37*
G36*
X141843504Y-116903204D02*
G01*
X141867773Y-116906804D01*
X141891571Y-116912765D01*
X141914671Y-116921030D01*
X141936849Y-116931520D01*
X141957893Y-116944133D01*
X141977598Y-116958747D01*
X141995777Y-116975223D01*
X142012253Y-116993402D01*
X142026867Y-117013107D01*
X142039480Y-117034151D01*
X142049970Y-117056329D01*
X142058235Y-117079429D01*
X142064196Y-117103227D01*
X142067796Y-117127496D01*
X142069000Y-117152000D01*
X142069000Y-117952000D01*
X142067796Y-117976504D01*
X142064196Y-118000773D01*
X142058235Y-118024571D01*
X142049970Y-118047671D01*
X142039480Y-118069849D01*
X142026867Y-118090893D01*
X142012253Y-118110598D01*
X141995777Y-118128777D01*
X141977598Y-118145253D01*
X141957893Y-118159867D01*
X141936849Y-118172480D01*
X141914671Y-118182970D01*
X141891571Y-118191235D01*
X141867773Y-118197196D01*
X141843504Y-118200796D01*
X141819000Y-118202000D01*
X140994000Y-118202000D01*
X140969496Y-118200796D01*
X140945227Y-118197196D01*
X140921429Y-118191235D01*
X140898329Y-118182970D01*
X140876151Y-118172480D01*
X140855107Y-118159867D01*
X140835402Y-118145253D01*
X140817223Y-118128777D01*
X140800747Y-118110598D01*
X140786133Y-118090893D01*
X140773520Y-118069849D01*
X140763030Y-118047671D01*
X140754765Y-118024571D01*
X140748804Y-118000773D01*
X140745204Y-117976504D01*
X140744000Y-117952000D01*
X140744000Y-117152000D01*
X140745204Y-117127496D01*
X140748804Y-117103227D01*
X140754765Y-117079429D01*
X140763030Y-117056329D01*
X140773520Y-117034151D01*
X140786133Y-117013107D01*
X140800747Y-116993402D01*
X140817223Y-116975223D01*
X140835402Y-116958747D01*
X140855107Y-116944133D01*
X140876151Y-116931520D01*
X140898329Y-116921030D01*
X140921429Y-116912765D01*
X140945227Y-116906804D01*
X140969496Y-116903204D01*
X140994000Y-116902000D01*
X141819000Y-116902000D01*
X141843504Y-116903204D01*
G37*
G36*
X148447504Y-116903204D02*
G01*
X148471773Y-116906804D01*
X148495571Y-116912765D01*
X148518671Y-116921030D01*
X148540849Y-116931520D01*
X148561893Y-116944133D01*
X148581598Y-116958747D01*
X148599777Y-116975223D01*
X148616253Y-116993402D01*
X148630867Y-117013107D01*
X148643480Y-117034151D01*
X148653970Y-117056329D01*
X148662235Y-117079429D01*
X148668196Y-117103227D01*
X148671796Y-117127496D01*
X148673000Y-117152000D01*
X148673000Y-117952000D01*
X148671796Y-117976504D01*
X148668196Y-118000773D01*
X148662235Y-118024571D01*
X148653970Y-118047671D01*
X148643480Y-118069849D01*
X148630867Y-118090893D01*
X148616253Y-118110598D01*
X148599777Y-118128777D01*
X148581598Y-118145253D01*
X148561893Y-118159867D01*
X148540849Y-118172480D01*
X148518671Y-118182970D01*
X148495571Y-118191235D01*
X148471773Y-118197196D01*
X148447504Y-118200796D01*
X148423000Y-118202000D01*
X147598000Y-118202000D01*
X147573496Y-118200796D01*
X147549227Y-118197196D01*
X147525429Y-118191235D01*
X147502329Y-118182970D01*
X147480151Y-118172480D01*
X147459107Y-118159867D01*
X147439402Y-118145253D01*
X147421223Y-118128777D01*
X147404747Y-118110598D01*
X147390133Y-118090893D01*
X147377520Y-118069849D01*
X147367030Y-118047671D01*
X147358765Y-118024571D01*
X147352804Y-118000773D01*
X147349204Y-117976504D01*
X147348000Y-117952000D01*
X147348000Y-117152000D01*
X147349204Y-117127496D01*
X147352804Y-117103227D01*
X147358765Y-117079429D01*
X147367030Y-117056329D01*
X147377520Y-117034151D01*
X147390133Y-117013107D01*
X147404747Y-116993402D01*
X147421223Y-116975223D01*
X147439402Y-116958747D01*
X147459107Y-116944133D01*
X147480151Y-116931520D01*
X147502329Y-116921030D01*
X147525429Y-116912765D01*
X147549227Y-116906804D01*
X147573496Y-116903204D01*
X147598000Y-116902000D01*
X148423000Y-116902000D01*
X148447504Y-116903204D01*
G37*
G36*
X146522504Y-116903204D02*
G01*
X146546773Y-116906804D01*
X146570571Y-116912765D01*
X146593671Y-116921030D01*
X146615849Y-116931520D01*
X146636893Y-116944133D01*
X146656598Y-116958747D01*
X146674777Y-116975223D01*
X146691253Y-116993402D01*
X146705867Y-117013107D01*
X146718480Y-117034151D01*
X146728970Y-117056329D01*
X146737235Y-117079429D01*
X146743196Y-117103227D01*
X146746796Y-117127496D01*
X146748000Y-117152000D01*
X146748000Y-117952000D01*
X146746796Y-117976504D01*
X146743196Y-118000773D01*
X146737235Y-118024571D01*
X146728970Y-118047671D01*
X146718480Y-118069849D01*
X146705867Y-118090893D01*
X146691253Y-118110598D01*
X146674777Y-118128777D01*
X146656598Y-118145253D01*
X146636893Y-118159867D01*
X146615849Y-118172480D01*
X146593671Y-118182970D01*
X146570571Y-118191235D01*
X146546773Y-118197196D01*
X146522504Y-118200796D01*
X146498000Y-118202000D01*
X145673000Y-118202000D01*
X145648496Y-118200796D01*
X145624227Y-118197196D01*
X145600429Y-118191235D01*
X145577329Y-118182970D01*
X145555151Y-118172480D01*
X145534107Y-118159867D01*
X145514402Y-118145253D01*
X145496223Y-118128777D01*
X145479747Y-118110598D01*
X145465133Y-118090893D01*
X145452520Y-118069849D01*
X145442030Y-118047671D01*
X145433765Y-118024571D01*
X145427804Y-118000773D01*
X145424204Y-117976504D01*
X145423000Y-117952000D01*
X145423000Y-117152000D01*
X145424204Y-117127496D01*
X145427804Y-117103227D01*
X145433765Y-117079429D01*
X145442030Y-117056329D01*
X145452520Y-117034151D01*
X145465133Y-117013107D01*
X145479747Y-116993402D01*
X145496223Y-116975223D01*
X145514402Y-116958747D01*
X145534107Y-116944133D01*
X145555151Y-116931520D01*
X145577329Y-116921030D01*
X145600429Y-116912765D01*
X145624227Y-116906804D01*
X145648496Y-116903204D01*
X145673000Y-116902000D01*
X146498000Y-116902000D01*
X146522504Y-116903204D01*
G37*
G36*
X152618504Y-116903204D02*
G01*
X152642773Y-116906804D01*
X152666571Y-116912765D01*
X152689671Y-116921030D01*
X152711849Y-116931520D01*
X152732893Y-116944133D01*
X152752598Y-116958747D01*
X152770777Y-116975223D01*
X152787253Y-116993402D01*
X152801867Y-117013107D01*
X152814480Y-117034151D01*
X152824970Y-117056329D01*
X152833235Y-117079429D01*
X152839196Y-117103227D01*
X152842796Y-117127496D01*
X152844000Y-117152000D01*
X152844000Y-117952000D01*
X152842796Y-117976504D01*
X152839196Y-118000773D01*
X152833235Y-118024571D01*
X152824970Y-118047671D01*
X152814480Y-118069849D01*
X152801867Y-118090893D01*
X152787253Y-118110598D01*
X152770777Y-118128777D01*
X152752598Y-118145253D01*
X152732893Y-118159867D01*
X152711849Y-118172480D01*
X152689671Y-118182970D01*
X152666571Y-118191235D01*
X152642773Y-118197196D01*
X152618504Y-118200796D01*
X152594000Y-118202000D01*
X151769000Y-118202000D01*
X151744496Y-118200796D01*
X151720227Y-118197196D01*
X151696429Y-118191235D01*
X151673329Y-118182970D01*
X151651151Y-118172480D01*
X151630107Y-118159867D01*
X151610402Y-118145253D01*
X151592223Y-118128777D01*
X151575747Y-118110598D01*
X151561133Y-118090893D01*
X151548520Y-118069849D01*
X151538030Y-118047671D01*
X151529765Y-118024571D01*
X151523804Y-118000773D01*
X151520204Y-117976504D01*
X151519000Y-117952000D01*
X151519000Y-117152000D01*
X151520204Y-117127496D01*
X151523804Y-117103227D01*
X151529765Y-117079429D01*
X151538030Y-117056329D01*
X151548520Y-117034151D01*
X151561133Y-117013107D01*
X151575747Y-116993402D01*
X151592223Y-116975223D01*
X151610402Y-116958747D01*
X151630107Y-116944133D01*
X151651151Y-116931520D01*
X151673329Y-116921030D01*
X151696429Y-116912765D01*
X151720227Y-116906804D01*
X151744496Y-116903204D01*
X151769000Y-116902000D01*
X152594000Y-116902000D01*
X152618504Y-116903204D01*
G37*
G36*
X154543504Y-116903204D02*
G01*
X154567773Y-116906804D01*
X154591571Y-116912765D01*
X154614671Y-116921030D01*
X154636849Y-116931520D01*
X154657893Y-116944133D01*
X154677598Y-116958747D01*
X154695777Y-116975223D01*
X154712253Y-116993402D01*
X154726867Y-117013107D01*
X154739480Y-117034151D01*
X154749970Y-117056329D01*
X154758235Y-117079429D01*
X154764196Y-117103227D01*
X154767796Y-117127496D01*
X154769000Y-117152000D01*
X154769000Y-117952000D01*
X154767796Y-117976504D01*
X154764196Y-118000773D01*
X154758235Y-118024571D01*
X154749970Y-118047671D01*
X154739480Y-118069849D01*
X154726867Y-118090893D01*
X154712253Y-118110598D01*
X154695777Y-118128777D01*
X154677598Y-118145253D01*
X154657893Y-118159867D01*
X154636849Y-118172480D01*
X154614671Y-118182970D01*
X154591571Y-118191235D01*
X154567773Y-118197196D01*
X154543504Y-118200796D01*
X154519000Y-118202000D01*
X153694000Y-118202000D01*
X153669496Y-118200796D01*
X153645227Y-118197196D01*
X153621429Y-118191235D01*
X153598329Y-118182970D01*
X153576151Y-118172480D01*
X153555107Y-118159867D01*
X153535402Y-118145253D01*
X153517223Y-118128777D01*
X153500747Y-118110598D01*
X153486133Y-118090893D01*
X153473520Y-118069849D01*
X153463030Y-118047671D01*
X153454765Y-118024571D01*
X153448804Y-118000773D01*
X153445204Y-117976504D01*
X153444000Y-117952000D01*
X153444000Y-117152000D01*
X153445204Y-117127496D01*
X153448804Y-117103227D01*
X153454765Y-117079429D01*
X153463030Y-117056329D01*
X153473520Y-117034151D01*
X153486133Y-117013107D01*
X153500747Y-116993402D01*
X153517223Y-116975223D01*
X153535402Y-116958747D01*
X153555107Y-116944133D01*
X153576151Y-116931520D01*
X153598329Y-116921030D01*
X153621429Y-116912765D01*
X153645227Y-116906804D01*
X153669496Y-116903204D01*
X153694000Y-116902000D01*
X154519000Y-116902000D01*
X154543504Y-116903204D01*
G37*
G36*
X161147504Y-116903204D02*
G01*
X161171773Y-116906804D01*
X161195571Y-116912765D01*
X161218671Y-116921030D01*
X161240849Y-116931520D01*
X161261893Y-116944133D01*
X161281598Y-116958747D01*
X161299777Y-116975223D01*
X161316253Y-116993402D01*
X161330867Y-117013107D01*
X161343480Y-117034151D01*
X161353970Y-117056329D01*
X161362235Y-117079429D01*
X161368196Y-117103227D01*
X161371796Y-117127496D01*
X161373000Y-117152000D01*
X161373000Y-117952000D01*
X161371796Y-117976504D01*
X161368196Y-118000773D01*
X161362235Y-118024571D01*
X161353970Y-118047671D01*
X161343480Y-118069849D01*
X161330867Y-118090893D01*
X161316253Y-118110598D01*
X161299777Y-118128777D01*
X161281598Y-118145253D01*
X161261893Y-118159867D01*
X161240849Y-118172480D01*
X161218671Y-118182970D01*
X161195571Y-118191235D01*
X161171773Y-118197196D01*
X161147504Y-118200796D01*
X161123000Y-118202000D01*
X160298000Y-118202000D01*
X160273496Y-118200796D01*
X160249227Y-118197196D01*
X160225429Y-118191235D01*
X160202329Y-118182970D01*
X160180151Y-118172480D01*
X160159107Y-118159867D01*
X160139402Y-118145253D01*
X160121223Y-118128777D01*
X160104747Y-118110598D01*
X160090133Y-118090893D01*
X160077520Y-118069849D01*
X160067030Y-118047671D01*
X160058765Y-118024571D01*
X160052804Y-118000773D01*
X160049204Y-117976504D01*
X160048000Y-117952000D01*
X160048000Y-117152000D01*
X160049204Y-117127496D01*
X160052804Y-117103227D01*
X160058765Y-117079429D01*
X160067030Y-117056329D01*
X160077520Y-117034151D01*
X160090133Y-117013107D01*
X160104747Y-116993402D01*
X160121223Y-116975223D01*
X160139402Y-116958747D01*
X160159107Y-116944133D01*
X160180151Y-116931520D01*
X160202329Y-116921030D01*
X160225429Y-116912765D01*
X160249227Y-116906804D01*
X160273496Y-116903204D01*
X160298000Y-116902000D01*
X161123000Y-116902000D01*
X161147504Y-116903204D01*
G37*
G36*
X159222504Y-116903204D02*
G01*
X159246773Y-116906804D01*
X159270571Y-116912765D01*
X159293671Y-116921030D01*
X159315849Y-116931520D01*
X159336893Y-116944133D01*
X159356598Y-116958747D01*
X159374777Y-116975223D01*
X159391253Y-116993402D01*
X159405867Y-117013107D01*
X159418480Y-117034151D01*
X159428970Y-117056329D01*
X159437235Y-117079429D01*
X159443196Y-117103227D01*
X159446796Y-117127496D01*
X159448000Y-117152000D01*
X159448000Y-117952000D01*
X159446796Y-117976504D01*
X159443196Y-118000773D01*
X159437235Y-118024571D01*
X159428970Y-118047671D01*
X159418480Y-118069849D01*
X159405867Y-118090893D01*
X159391253Y-118110598D01*
X159374777Y-118128777D01*
X159356598Y-118145253D01*
X159336893Y-118159867D01*
X159315849Y-118172480D01*
X159293671Y-118182970D01*
X159270571Y-118191235D01*
X159246773Y-118197196D01*
X159222504Y-118200796D01*
X159198000Y-118202000D01*
X158373000Y-118202000D01*
X158348496Y-118200796D01*
X158324227Y-118197196D01*
X158300429Y-118191235D01*
X158277329Y-118182970D01*
X158255151Y-118172480D01*
X158234107Y-118159867D01*
X158214402Y-118145253D01*
X158196223Y-118128777D01*
X158179747Y-118110598D01*
X158165133Y-118090893D01*
X158152520Y-118069849D01*
X158142030Y-118047671D01*
X158133765Y-118024571D01*
X158127804Y-118000773D01*
X158124204Y-117976504D01*
X158123000Y-117952000D01*
X158123000Y-117152000D01*
X158124204Y-117127496D01*
X158127804Y-117103227D01*
X158133765Y-117079429D01*
X158142030Y-117056329D01*
X158152520Y-117034151D01*
X158165133Y-117013107D01*
X158179747Y-116993402D01*
X158196223Y-116975223D01*
X158214402Y-116958747D01*
X158234107Y-116944133D01*
X158255151Y-116931520D01*
X158277329Y-116921030D01*
X158300429Y-116912765D01*
X158324227Y-116906804D01*
X158348496Y-116903204D01*
X158373000Y-116902000D01*
X159198000Y-116902000D01*
X159222504Y-116903204D01*
G37*
G36*
X112088142Y-49543174D02*
G01*
X112111803Y-49546684D01*
X112135007Y-49552496D01*
X112157529Y-49560554D01*
X112179153Y-49570782D01*
X112199670Y-49583079D01*
X112218883Y-49597329D01*
X112236607Y-49613393D01*
X112252671Y-49631117D01*
X112266921Y-49650330D01*
X112279218Y-49670847D01*
X112289446Y-49692471D01*
X112297504Y-49714993D01*
X112303316Y-49738197D01*
X112306826Y-49761858D01*
X112308000Y-49785750D01*
X112308000Y-50698250D01*
X112306826Y-50722142D01*
X112303316Y-50745803D01*
X112297504Y-50769007D01*
X112289446Y-50791529D01*
X112279218Y-50813153D01*
X112266921Y-50833670D01*
X112252671Y-50852883D01*
X112236607Y-50870607D01*
X112218883Y-50886671D01*
X112199670Y-50900921D01*
X112179153Y-50913218D01*
X112157529Y-50923446D01*
X112135007Y-50931504D01*
X112111803Y-50937316D01*
X112088142Y-50940826D01*
X112064250Y-50942000D01*
X111576750Y-50942000D01*
X111552858Y-50940826D01*
X111529197Y-50937316D01*
X111505993Y-50931504D01*
X111483471Y-50923446D01*
X111461847Y-50913218D01*
X111441330Y-50900921D01*
X111422117Y-50886671D01*
X111404393Y-50870607D01*
X111388329Y-50852883D01*
X111374079Y-50833670D01*
X111361782Y-50813153D01*
X111351554Y-50791529D01*
X111343496Y-50769007D01*
X111337684Y-50745803D01*
X111334174Y-50722142D01*
X111333000Y-50698250D01*
X111333000Y-49785750D01*
X111334174Y-49761858D01*
X111337684Y-49738197D01*
X111343496Y-49714993D01*
X111351554Y-49692471D01*
X111361782Y-49670847D01*
X111374079Y-49650330D01*
X111388329Y-49631117D01*
X111404393Y-49613393D01*
X111422117Y-49597329D01*
X111441330Y-49583079D01*
X111461847Y-49570782D01*
X111483471Y-49560554D01*
X111505993Y-49552496D01*
X111529197Y-49546684D01*
X111552858Y-49543174D01*
X111576750Y-49542000D01*
X112064250Y-49542000D01*
X112088142Y-49543174D01*
G37*
G36*
X113963142Y-49543174D02*
G01*
X113986803Y-49546684D01*
X114010007Y-49552496D01*
X114032529Y-49560554D01*
X114054153Y-49570782D01*
X114074670Y-49583079D01*
X114093883Y-49597329D01*
X114111607Y-49613393D01*
X114127671Y-49631117D01*
X114141921Y-49650330D01*
X114154218Y-49670847D01*
X114164446Y-49692471D01*
X114172504Y-49714993D01*
X114178316Y-49738197D01*
X114181826Y-49761858D01*
X114183000Y-49785750D01*
X114183000Y-50698250D01*
X114181826Y-50722142D01*
X114178316Y-50745803D01*
X114172504Y-50769007D01*
X114164446Y-50791529D01*
X114154218Y-50813153D01*
X114141921Y-50833670D01*
X114127671Y-50852883D01*
X114111607Y-50870607D01*
X114093883Y-50886671D01*
X114074670Y-50900921D01*
X114054153Y-50913218D01*
X114032529Y-50923446D01*
X114010007Y-50931504D01*
X113986803Y-50937316D01*
X113963142Y-50940826D01*
X113939250Y-50942000D01*
X113451750Y-50942000D01*
X113427858Y-50940826D01*
X113404197Y-50937316D01*
X113380993Y-50931504D01*
X113358471Y-50923446D01*
X113336847Y-50913218D01*
X113316330Y-50900921D01*
X113297117Y-50886671D01*
X113279393Y-50870607D01*
X113263329Y-50852883D01*
X113249079Y-50833670D01*
X113236782Y-50813153D01*
X113226554Y-50791529D01*
X113218496Y-50769007D01*
X113212684Y-50745803D01*
X113209174Y-50722142D01*
X113208000Y-50698250D01*
X113208000Y-49785750D01*
X113209174Y-49761858D01*
X113212684Y-49738197D01*
X113218496Y-49714993D01*
X113226554Y-49692471D01*
X113236782Y-49670847D01*
X113249079Y-49650330D01*
X113263329Y-49631117D01*
X113279393Y-49613393D01*
X113297117Y-49597329D01*
X113316330Y-49583079D01*
X113336847Y-49570782D01*
X113358471Y-49560554D01*
X113380993Y-49552496D01*
X113404197Y-49546684D01*
X113427858Y-49543174D01*
X113451750Y-49542000D01*
X113939250Y-49542000D01*
X113963142Y-49543174D01*
G37*
G36*
X112088142Y-44971174D02*
G01*
X112111803Y-44974684D01*
X112135007Y-44980496D01*
X112157529Y-44988554D01*
X112179153Y-44998782D01*
X112199670Y-45011079D01*
X112218883Y-45025329D01*
X112236607Y-45041393D01*
X112252671Y-45059117D01*
X112266921Y-45078330D01*
X112279218Y-45098847D01*
X112289446Y-45120471D01*
X112297504Y-45142993D01*
X112303316Y-45166197D01*
X112306826Y-45189858D01*
X112308000Y-45213750D01*
X112308000Y-46126250D01*
X112306826Y-46150142D01*
X112303316Y-46173803D01*
X112297504Y-46197007D01*
X112289446Y-46219529D01*
X112279218Y-46241153D01*
X112266921Y-46261670D01*
X112252671Y-46280883D01*
X112236607Y-46298607D01*
X112218883Y-46314671D01*
X112199670Y-46328921D01*
X112179153Y-46341218D01*
X112157529Y-46351446D01*
X112135007Y-46359504D01*
X112111803Y-46365316D01*
X112088142Y-46368826D01*
X112064250Y-46370000D01*
X111576750Y-46370000D01*
X111552858Y-46368826D01*
X111529197Y-46365316D01*
X111505993Y-46359504D01*
X111483471Y-46351446D01*
X111461847Y-46341218D01*
X111441330Y-46328921D01*
X111422117Y-46314671D01*
X111404393Y-46298607D01*
X111388329Y-46280883D01*
X111374079Y-46261670D01*
X111361782Y-46241153D01*
X111351554Y-46219529D01*
X111343496Y-46197007D01*
X111337684Y-46173803D01*
X111334174Y-46150142D01*
X111333000Y-46126250D01*
X111333000Y-45213750D01*
X111334174Y-45189858D01*
X111337684Y-45166197D01*
X111343496Y-45142993D01*
X111351554Y-45120471D01*
X111361782Y-45098847D01*
X111374079Y-45078330D01*
X111388329Y-45059117D01*
X111404393Y-45041393D01*
X111422117Y-45025329D01*
X111441330Y-45011079D01*
X111461847Y-44998782D01*
X111483471Y-44988554D01*
X111505993Y-44980496D01*
X111529197Y-44974684D01*
X111552858Y-44971174D01*
X111576750Y-44970000D01*
X112064250Y-44970000D01*
X112088142Y-44971174D01*
G37*
G36*
X113963142Y-44971174D02*
G01*
X113986803Y-44974684D01*
X114010007Y-44980496D01*
X114032529Y-44988554D01*
X114054153Y-44998782D01*
X114074670Y-45011079D01*
X114093883Y-45025329D01*
X114111607Y-45041393D01*
X114127671Y-45059117D01*
X114141921Y-45078330D01*
X114154218Y-45098847D01*
X114164446Y-45120471D01*
X114172504Y-45142993D01*
X114178316Y-45166197D01*
X114181826Y-45189858D01*
X114183000Y-45213750D01*
X114183000Y-46126250D01*
X114181826Y-46150142D01*
X114178316Y-46173803D01*
X114172504Y-46197007D01*
X114164446Y-46219529D01*
X114154218Y-46241153D01*
X114141921Y-46261670D01*
X114127671Y-46280883D01*
X114111607Y-46298607D01*
X114093883Y-46314671D01*
X114074670Y-46328921D01*
X114054153Y-46341218D01*
X114032529Y-46351446D01*
X114010007Y-46359504D01*
X113986803Y-46365316D01*
X113963142Y-46368826D01*
X113939250Y-46370000D01*
X113451750Y-46370000D01*
X113427858Y-46368826D01*
X113404197Y-46365316D01*
X113380993Y-46359504D01*
X113358471Y-46351446D01*
X113336847Y-46341218D01*
X113316330Y-46328921D01*
X113297117Y-46314671D01*
X113279393Y-46298607D01*
X113263329Y-46280883D01*
X113249079Y-46261670D01*
X113236782Y-46241153D01*
X113226554Y-46219529D01*
X113218496Y-46197007D01*
X113212684Y-46173803D01*
X113209174Y-46150142D01*
X113208000Y-46126250D01*
X113208000Y-45213750D01*
X113209174Y-45189858D01*
X113212684Y-45166197D01*
X113218496Y-45142993D01*
X113226554Y-45120471D01*
X113236782Y-45098847D01*
X113249079Y-45078330D01*
X113263329Y-45059117D01*
X113279393Y-45041393D01*
X113297117Y-45025329D01*
X113316330Y-45011079D01*
X113336847Y-44998782D01*
X113358471Y-44988554D01*
X113380993Y-44980496D01*
X113404197Y-44974684D01*
X113427858Y-44971174D01*
X113451750Y-44970000D01*
X113939250Y-44970000D01*
X113963142Y-44971174D01*
G37*
G36*
X116503142Y-54115174D02*
G01*
X116526803Y-54118684D01*
X116550007Y-54124496D01*
X116572529Y-54132554D01*
X116594153Y-54142782D01*
X116614670Y-54155079D01*
X116633883Y-54169329D01*
X116651607Y-54185393D01*
X116667671Y-54203117D01*
X116681921Y-54222330D01*
X116694218Y-54242847D01*
X116704446Y-54264471D01*
X116712504Y-54286993D01*
X116718316Y-54310197D01*
X116721826Y-54333858D01*
X116723000Y-54357750D01*
X116723000Y-55270250D01*
X116721826Y-55294142D01*
X116718316Y-55317803D01*
X116712504Y-55341007D01*
X116704446Y-55363529D01*
X116694218Y-55385153D01*
X116681921Y-55405670D01*
X116667671Y-55424883D01*
X116651607Y-55442607D01*
X116633883Y-55458671D01*
X116614670Y-55472921D01*
X116594153Y-55485218D01*
X116572529Y-55495446D01*
X116550007Y-55503504D01*
X116526803Y-55509316D01*
X116503142Y-55512826D01*
X116479250Y-55514000D01*
X115991750Y-55514000D01*
X115967858Y-55512826D01*
X115944197Y-55509316D01*
X115920993Y-55503504D01*
X115898471Y-55495446D01*
X115876847Y-55485218D01*
X115856330Y-55472921D01*
X115837117Y-55458671D01*
X115819393Y-55442607D01*
X115803329Y-55424883D01*
X115789079Y-55405670D01*
X115776782Y-55385153D01*
X115766554Y-55363529D01*
X115758496Y-55341007D01*
X115752684Y-55317803D01*
X115749174Y-55294142D01*
X115748000Y-55270250D01*
X115748000Y-54357750D01*
X115749174Y-54333858D01*
X115752684Y-54310197D01*
X115758496Y-54286993D01*
X115766554Y-54264471D01*
X115776782Y-54242847D01*
X115789079Y-54222330D01*
X115803329Y-54203117D01*
X115819393Y-54185393D01*
X115837117Y-54169329D01*
X115856330Y-54155079D01*
X115876847Y-54142782D01*
X115898471Y-54132554D01*
X115920993Y-54124496D01*
X115944197Y-54118684D01*
X115967858Y-54115174D01*
X115991750Y-54114000D01*
X116479250Y-54114000D01*
X116503142Y-54115174D01*
G37*
G36*
X114628142Y-54115174D02*
G01*
X114651803Y-54118684D01*
X114675007Y-54124496D01*
X114697529Y-54132554D01*
X114719153Y-54142782D01*
X114739670Y-54155079D01*
X114758883Y-54169329D01*
X114776607Y-54185393D01*
X114792671Y-54203117D01*
X114806921Y-54222330D01*
X114819218Y-54242847D01*
X114829446Y-54264471D01*
X114837504Y-54286993D01*
X114843316Y-54310197D01*
X114846826Y-54333858D01*
X114848000Y-54357750D01*
X114848000Y-55270250D01*
X114846826Y-55294142D01*
X114843316Y-55317803D01*
X114837504Y-55341007D01*
X114829446Y-55363529D01*
X114819218Y-55385153D01*
X114806921Y-55405670D01*
X114792671Y-55424883D01*
X114776607Y-55442607D01*
X114758883Y-55458671D01*
X114739670Y-55472921D01*
X114719153Y-55485218D01*
X114697529Y-55495446D01*
X114675007Y-55503504D01*
X114651803Y-55509316D01*
X114628142Y-55512826D01*
X114604250Y-55514000D01*
X114116750Y-55514000D01*
X114092858Y-55512826D01*
X114069197Y-55509316D01*
X114045993Y-55503504D01*
X114023471Y-55495446D01*
X114001847Y-55485218D01*
X113981330Y-55472921D01*
X113962117Y-55458671D01*
X113944393Y-55442607D01*
X113928329Y-55424883D01*
X113914079Y-55405670D01*
X113901782Y-55385153D01*
X113891554Y-55363529D01*
X113883496Y-55341007D01*
X113877684Y-55317803D01*
X113874174Y-55294142D01*
X113873000Y-55270250D01*
X113873000Y-54357750D01*
X113874174Y-54333858D01*
X113877684Y-54310197D01*
X113883496Y-54286993D01*
X113891554Y-54264471D01*
X113901782Y-54242847D01*
X113914079Y-54222330D01*
X113928329Y-54203117D01*
X113944393Y-54185393D01*
X113962117Y-54169329D01*
X113981330Y-54155079D01*
X114001847Y-54142782D01*
X114023471Y-54132554D01*
X114045993Y-54124496D01*
X114069197Y-54118684D01*
X114092858Y-54115174D01*
X114116750Y-54114000D01*
X114604250Y-54114000D01*
X114628142Y-54115174D01*
G37*
G36*
X114628142Y-40907174D02*
G01*
X114651803Y-40910684D01*
X114675007Y-40916496D01*
X114697529Y-40924554D01*
X114719153Y-40934782D01*
X114739670Y-40947079D01*
X114758883Y-40961329D01*
X114776607Y-40977393D01*
X114792671Y-40995117D01*
X114806921Y-41014330D01*
X114819218Y-41034847D01*
X114829446Y-41056471D01*
X114837504Y-41078993D01*
X114843316Y-41102197D01*
X114846826Y-41125858D01*
X114848000Y-41149750D01*
X114848000Y-42062250D01*
X114846826Y-42086142D01*
X114843316Y-42109803D01*
X114837504Y-42133007D01*
X114829446Y-42155529D01*
X114819218Y-42177153D01*
X114806921Y-42197670D01*
X114792671Y-42216883D01*
X114776607Y-42234607D01*
X114758883Y-42250671D01*
X114739670Y-42264921D01*
X114719153Y-42277218D01*
X114697529Y-42287446D01*
X114675007Y-42295504D01*
X114651803Y-42301316D01*
X114628142Y-42304826D01*
X114604250Y-42306000D01*
X114116750Y-42306000D01*
X114092858Y-42304826D01*
X114069197Y-42301316D01*
X114045993Y-42295504D01*
X114023471Y-42287446D01*
X114001847Y-42277218D01*
X113981330Y-42264921D01*
X113962117Y-42250671D01*
X113944393Y-42234607D01*
X113928329Y-42216883D01*
X113914079Y-42197670D01*
X113901782Y-42177153D01*
X113891554Y-42155529D01*
X113883496Y-42133007D01*
X113877684Y-42109803D01*
X113874174Y-42086142D01*
X113873000Y-42062250D01*
X113873000Y-41149750D01*
X113874174Y-41125858D01*
X113877684Y-41102197D01*
X113883496Y-41078993D01*
X113891554Y-41056471D01*
X113901782Y-41034847D01*
X113914079Y-41014330D01*
X113928329Y-40995117D01*
X113944393Y-40977393D01*
X113962117Y-40961329D01*
X113981330Y-40947079D01*
X114001847Y-40934782D01*
X114023471Y-40924554D01*
X114045993Y-40916496D01*
X114069197Y-40910684D01*
X114092858Y-40907174D01*
X114116750Y-40906000D01*
X114604250Y-40906000D01*
X114628142Y-40907174D01*
G37*
G36*
X116503142Y-40907174D02*
G01*
X116526803Y-40910684D01*
X116550007Y-40916496D01*
X116572529Y-40924554D01*
X116594153Y-40934782D01*
X116614670Y-40947079D01*
X116633883Y-40961329D01*
X116651607Y-40977393D01*
X116667671Y-40995117D01*
X116681921Y-41014330D01*
X116694218Y-41034847D01*
X116704446Y-41056471D01*
X116712504Y-41078993D01*
X116718316Y-41102197D01*
X116721826Y-41125858D01*
X116723000Y-41149750D01*
X116723000Y-42062250D01*
X116721826Y-42086142D01*
X116718316Y-42109803D01*
X116712504Y-42133007D01*
X116704446Y-42155529D01*
X116694218Y-42177153D01*
X116681921Y-42197670D01*
X116667671Y-42216883D01*
X116651607Y-42234607D01*
X116633883Y-42250671D01*
X116614670Y-42264921D01*
X116594153Y-42277218D01*
X116572529Y-42287446D01*
X116550007Y-42295504D01*
X116526803Y-42301316D01*
X116503142Y-42304826D01*
X116479250Y-42306000D01*
X115991750Y-42306000D01*
X115967858Y-42304826D01*
X115944197Y-42301316D01*
X115920993Y-42295504D01*
X115898471Y-42287446D01*
X115876847Y-42277218D01*
X115856330Y-42264921D01*
X115837117Y-42250671D01*
X115819393Y-42234607D01*
X115803329Y-42216883D01*
X115789079Y-42197670D01*
X115776782Y-42177153D01*
X115766554Y-42155529D01*
X115758496Y-42133007D01*
X115752684Y-42109803D01*
X115749174Y-42086142D01*
X115748000Y-42062250D01*
X115748000Y-41149750D01*
X115749174Y-41125858D01*
X115752684Y-41102197D01*
X115758496Y-41078993D01*
X115766554Y-41056471D01*
X115776782Y-41034847D01*
X115789079Y-41014330D01*
X115803329Y-40995117D01*
X115819393Y-40977393D01*
X115837117Y-40961329D01*
X115856330Y-40947079D01*
X115876847Y-40934782D01*
X115898471Y-40924554D01*
X115920993Y-40916496D01*
X115944197Y-40910684D01*
X115967858Y-40907174D01*
X115991750Y-40906000D01*
X116479250Y-40906000D01*
X116503142Y-40907174D01*
G37*
G36*
X109040142Y-54115174D02*
G01*
X109063803Y-54118684D01*
X109087007Y-54124496D01*
X109109529Y-54132554D01*
X109131153Y-54142782D01*
X109151670Y-54155079D01*
X109170883Y-54169329D01*
X109188607Y-54185393D01*
X109204671Y-54203117D01*
X109218921Y-54222330D01*
X109231218Y-54242847D01*
X109241446Y-54264471D01*
X109249504Y-54286993D01*
X109255316Y-54310197D01*
X109258826Y-54333858D01*
X109260000Y-54357750D01*
X109260000Y-55270250D01*
X109258826Y-55294142D01*
X109255316Y-55317803D01*
X109249504Y-55341007D01*
X109241446Y-55363529D01*
X109231218Y-55385153D01*
X109218921Y-55405670D01*
X109204671Y-55424883D01*
X109188607Y-55442607D01*
X109170883Y-55458671D01*
X109151670Y-55472921D01*
X109131153Y-55485218D01*
X109109529Y-55495446D01*
X109087007Y-55503504D01*
X109063803Y-55509316D01*
X109040142Y-55512826D01*
X109016250Y-55514000D01*
X108528750Y-55514000D01*
X108504858Y-55512826D01*
X108481197Y-55509316D01*
X108457993Y-55503504D01*
X108435471Y-55495446D01*
X108413847Y-55485218D01*
X108393330Y-55472921D01*
X108374117Y-55458671D01*
X108356393Y-55442607D01*
X108340329Y-55424883D01*
X108326079Y-55405670D01*
X108313782Y-55385153D01*
X108303554Y-55363529D01*
X108295496Y-55341007D01*
X108289684Y-55317803D01*
X108286174Y-55294142D01*
X108285000Y-55270250D01*
X108285000Y-54357750D01*
X108286174Y-54333858D01*
X108289684Y-54310197D01*
X108295496Y-54286993D01*
X108303554Y-54264471D01*
X108313782Y-54242847D01*
X108326079Y-54222330D01*
X108340329Y-54203117D01*
X108356393Y-54185393D01*
X108374117Y-54169329D01*
X108393330Y-54155079D01*
X108413847Y-54142782D01*
X108435471Y-54132554D01*
X108457993Y-54124496D01*
X108481197Y-54118684D01*
X108504858Y-54115174D01*
X108528750Y-54114000D01*
X109016250Y-54114000D01*
X109040142Y-54115174D01*
G37*
G36*
X110915142Y-54115174D02*
G01*
X110938803Y-54118684D01*
X110962007Y-54124496D01*
X110984529Y-54132554D01*
X111006153Y-54142782D01*
X111026670Y-54155079D01*
X111045883Y-54169329D01*
X111063607Y-54185393D01*
X111079671Y-54203117D01*
X111093921Y-54222330D01*
X111106218Y-54242847D01*
X111116446Y-54264471D01*
X111124504Y-54286993D01*
X111130316Y-54310197D01*
X111133826Y-54333858D01*
X111135000Y-54357750D01*
X111135000Y-55270250D01*
X111133826Y-55294142D01*
X111130316Y-55317803D01*
X111124504Y-55341007D01*
X111116446Y-55363529D01*
X111106218Y-55385153D01*
X111093921Y-55405670D01*
X111079671Y-55424883D01*
X111063607Y-55442607D01*
X111045883Y-55458671D01*
X111026670Y-55472921D01*
X111006153Y-55485218D01*
X110984529Y-55495446D01*
X110962007Y-55503504D01*
X110938803Y-55509316D01*
X110915142Y-55512826D01*
X110891250Y-55514000D01*
X110403750Y-55514000D01*
X110379858Y-55512826D01*
X110356197Y-55509316D01*
X110332993Y-55503504D01*
X110310471Y-55495446D01*
X110288847Y-55485218D01*
X110268330Y-55472921D01*
X110249117Y-55458671D01*
X110231393Y-55442607D01*
X110215329Y-55424883D01*
X110201079Y-55405670D01*
X110188782Y-55385153D01*
X110178554Y-55363529D01*
X110170496Y-55341007D01*
X110164684Y-55317803D01*
X110161174Y-55294142D01*
X110160000Y-55270250D01*
X110160000Y-54357750D01*
X110161174Y-54333858D01*
X110164684Y-54310197D01*
X110170496Y-54286993D01*
X110178554Y-54264471D01*
X110188782Y-54242847D01*
X110201079Y-54222330D01*
X110215329Y-54203117D01*
X110231393Y-54185393D01*
X110249117Y-54169329D01*
X110268330Y-54155079D01*
X110288847Y-54142782D01*
X110310471Y-54132554D01*
X110332993Y-54124496D01*
X110356197Y-54118684D01*
X110379858Y-54115174D01*
X110403750Y-54114000D01*
X110891250Y-54114000D01*
X110915142Y-54115174D01*
G37*
G36*
X110915142Y-40907174D02*
G01*
X110938803Y-40910684D01*
X110962007Y-40916496D01*
X110984529Y-40924554D01*
X111006153Y-40934782D01*
X111026670Y-40947079D01*
X111045883Y-40961329D01*
X111063607Y-40977393D01*
X111079671Y-40995117D01*
X111093921Y-41014330D01*
X111106218Y-41034847D01*
X111116446Y-41056471D01*
X111124504Y-41078993D01*
X111130316Y-41102197D01*
X111133826Y-41125858D01*
X111135000Y-41149750D01*
X111135000Y-42062250D01*
X111133826Y-42086142D01*
X111130316Y-42109803D01*
X111124504Y-42133007D01*
X111116446Y-42155529D01*
X111106218Y-42177153D01*
X111093921Y-42197670D01*
X111079671Y-42216883D01*
X111063607Y-42234607D01*
X111045883Y-42250671D01*
X111026670Y-42264921D01*
X111006153Y-42277218D01*
X110984529Y-42287446D01*
X110962007Y-42295504D01*
X110938803Y-42301316D01*
X110915142Y-42304826D01*
X110891250Y-42306000D01*
X110403750Y-42306000D01*
X110379858Y-42304826D01*
X110356197Y-42301316D01*
X110332993Y-42295504D01*
X110310471Y-42287446D01*
X110288847Y-42277218D01*
X110268330Y-42264921D01*
X110249117Y-42250671D01*
X110231393Y-42234607D01*
X110215329Y-42216883D01*
X110201079Y-42197670D01*
X110188782Y-42177153D01*
X110178554Y-42155529D01*
X110170496Y-42133007D01*
X110164684Y-42109803D01*
X110161174Y-42086142D01*
X110160000Y-42062250D01*
X110160000Y-41149750D01*
X110161174Y-41125858D01*
X110164684Y-41102197D01*
X110170496Y-41078993D01*
X110178554Y-41056471D01*
X110188782Y-41034847D01*
X110201079Y-41014330D01*
X110215329Y-40995117D01*
X110231393Y-40977393D01*
X110249117Y-40961329D01*
X110268330Y-40947079D01*
X110288847Y-40934782D01*
X110310471Y-40924554D01*
X110332993Y-40916496D01*
X110356197Y-40910684D01*
X110379858Y-40907174D01*
X110403750Y-40906000D01*
X110891250Y-40906000D01*
X110915142Y-40907174D01*
G37*
G36*
X109040142Y-40907174D02*
G01*
X109063803Y-40910684D01*
X109087007Y-40916496D01*
X109109529Y-40924554D01*
X109131153Y-40934782D01*
X109151670Y-40947079D01*
X109170883Y-40961329D01*
X109188607Y-40977393D01*
X109204671Y-40995117D01*
X109218921Y-41014330D01*
X109231218Y-41034847D01*
X109241446Y-41056471D01*
X109249504Y-41078993D01*
X109255316Y-41102197D01*
X109258826Y-41125858D01*
X109260000Y-41149750D01*
X109260000Y-42062250D01*
X109258826Y-42086142D01*
X109255316Y-42109803D01*
X109249504Y-42133007D01*
X109241446Y-42155529D01*
X109231218Y-42177153D01*
X109218921Y-42197670D01*
X109204671Y-42216883D01*
X109188607Y-42234607D01*
X109170883Y-42250671D01*
X109151670Y-42264921D01*
X109131153Y-42277218D01*
X109109529Y-42287446D01*
X109087007Y-42295504D01*
X109063803Y-42301316D01*
X109040142Y-42304826D01*
X109016250Y-42306000D01*
X108528750Y-42306000D01*
X108504858Y-42304826D01*
X108481197Y-42301316D01*
X108457993Y-42295504D01*
X108435471Y-42287446D01*
X108413847Y-42277218D01*
X108393330Y-42264921D01*
X108374117Y-42250671D01*
X108356393Y-42234607D01*
X108340329Y-42216883D01*
X108326079Y-42197670D01*
X108313782Y-42177153D01*
X108303554Y-42155529D01*
X108295496Y-42133007D01*
X108289684Y-42109803D01*
X108286174Y-42086142D01*
X108285000Y-42062250D01*
X108285000Y-41149750D01*
X108286174Y-41125858D01*
X108289684Y-41102197D01*
X108295496Y-41078993D01*
X108303554Y-41056471D01*
X108313782Y-41034847D01*
X108326079Y-41014330D01*
X108340329Y-40995117D01*
X108356393Y-40977393D01*
X108374117Y-40961329D01*
X108393330Y-40947079D01*
X108413847Y-40934782D01*
X108435471Y-40924554D01*
X108457993Y-40916496D01*
X108481197Y-40910684D01*
X108504858Y-40907174D01*
X108528750Y-40906000D01*
X109016250Y-40906000D01*
X109040142Y-40907174D01*
G37*
G36*
X114628142Y-58687174D02*
G01*
X114651803Y-58690684D01*
X114675007Y-58696496D01*
X114697529Y-58704554D01*
X114719153Y-58714782D01*
X114739670Y-58727079D01*
X114758883Y-58741329D01*
X114776607Y-58757393D01*
X114792671Y-58775117D01*
X114806921Y-58794330D01*
X114819218Y-58814847D01*
X114829446Y-58836471D01*
X114837504Y-58858993D01*
X114843316Y-58882197D01*
X114846826Y-58905858D01*
X114848000Y-58929750D01*
X114848000Y-59842250D01*
X114846826Y-59866142D01*
X114843316Y-59889803D01*
X114837504Y-59913007D01*
X114829446Y-59935529D01*
X114819218Y-59957153D01*
X114806921Y-59977670D01*
X114792671Y-59996883D01*
X114776607Y-60014607D01*
X114758883Y-60030671D01*
X114739670Y-60044921D01*
X114719153Y-60057218D01*
X114697529Y-60067446D01*
X114675007Y-60075504D01*
X114651803Y-60081316D01*
X114628142Y-60084826D01*
X114604250Y-60086000D01*
X114116750Y-60086000D01*
X114092858Y-60084826D01*
X114069197Y-60081316D01*
X114045993Y-60075504D01*
X114023471Y-60067446D01*
X114001847Y-60057218D01*
X113981330Y-60044921D01*
X113962117Y-60030671D01*
X113944393Y-60014607D01*
X113928329Y-59996883D01*
X113914079Y-59977670D01*
X113901782Y-59957153D01*
X113891554Y-59935529D01*
X113883496Y-59913007D01*
X113877684Y-59889803D01*
X113874174Y-59866142D01*
X113873000Y-59842250D01*
X113873000Y-58929750D01*
X113874174Y-58905858D01*
X113877684Y-58882197D01*
X113883496Y-58858993D01*
X113891554Y-58836471D01*
X113901782Y-58814847D01*
X113914079Y-58794330D01*
X113928329Y-58775117D01*
X113944393Y-58757393D01*
X113962117Y-58741329D01*
X113981330Y-58727079D01*
X114001847Y-58714782D01*
X114023471Y-58704554D01*
X114045993Y-58696496D01*
X114069197Y-58690684D01*
X114092858Y-58687174D01*
X114116750Y-58686000D01*
X114604250Y-58686000D01*
X114628142Y-58687174D01*
G37*
G36*
X116503142Y-58687174D02*
G01*
X116526803Y-58690684D01*
X116550007Y-58696496D01*
X116572529Y-58704554D01*
X116594153Y-58714782D01*
X116614670Y-58727079D01*
X116633883Y-58741329D01*
X116651607Y-58757393D01*
X116667671Y-58775117D01*
X116681921Y-58794330D01*
X116694218Y-58814847D01*
X116704446Y-58836471D01*
X116712504Y-58858993D01*
X116718316Y-58882197D01*
X116721826Y-58905858D01*
X116723000Y-58929750D01*
X116723000Y-59842250D01*
X116721826Y-59866142D01*
X116718316Y-59889803D01*
X116712504Y-59913007D01*
X116704446Y-59935529D01*
X116694218Y-59957153D01*
X116681921Y-59977670D01*
X116667671Y-59996883D01*
X116651607Y-60014607D01*
X116633883Y-60030671D01*
X116614670Y-60044921D01*
X116594153Y-60057218D01*
X116572529Y-60067446D01*
X116550007Y-60075504D01*
X116526803Y-60081316D01*
X116503142Y-60084826D01*
X116479250Y-60086000D01*
X115991750Y-60086000D01*
X115967858Y-60084826D01*
X115944197Y-60081316D01*
X115920993Y-60075504D01*
X115898471Y-60067446D01*
X115876847Y-60057218D01*
X115856330Y-60044921D01*
X115837117Y-60030671D01*
X115819393Y-60014607D01*
X115803329Y-59996883D01*
X115789079Y-59977670D01*
X115776782Y-59957153D01*
X115766554Y-59935529D01*
X115758496Y-59913007D01*
X115752684Y-59889803D01*
X115749174Y-59866142D01*
X115748000Y-59842250D01*
X115748000Y-58929750D01*
X115749174Y-58905858D01*
X115752684Y-58882197D01*
X115758496Y-58858993D01*
X115766554Y-58836471D01*
X115776782Y-58814847D01*
X115789079Y-58794330D01*
X115803329Y-58775117D01*
X115819393Y-58757393D01*
X115837117Y-58741329D01*
X115856330Y-58727079D01*
X115876847Y-58714782D01*
X115898471Y-58704554D01*
X115920993Y-58696496D01*
X115944197Y-58690684D01*
X115967858Y-58687174D01*
X115991750Y-58686000D01*
X116479250Y-58686000D01*
X116503142Y-58687174D01*
G37*
G36*
X116503142Y-36335174D02*
G01*
X116526803Y-36338684D01*
X116550007Y-36344496D01*
X116572529Y-36352554D01*
X116594153Y-36362782D01*
X116614670Y-36375079D01*
X116633883Y-36389329D01*
X116651607Y-36405393D01*
X116667671Y-36423117D01*
X116681921Y-36442330D01*
X116694218Y-36462847D01*
X116704446Y-36484471D01*
X116712504Y-36506993D01*
X116718316Y-36530197D01*
X116721826Y-36553858D01*
X116723000Y-36577750D01*
X116723000Y-37490250D01*
X116721826Y-37514142D01*
X116718316Y-37537803D01*
X116712504Y-37561007D01*
X116704446Y-37583529D01*
X116694218Y-37605153D01*
X116681921Y-37625670D01*
X116667671Y-37644883D01*
X116651607Y-37662607D01*
X116633883Y-37678671D01*
X116614670Y-37692921D01*
X116594153Y-37705218D01*
X116572529Y-37715446D01*
X116550007Y-37723504D01*
X116526803Y-37729316D01*
X116503142Y-37732826D01*
X116479250Y-37734000D01*
X115991750Y-37734000D01*
X115967858Y-37732826D01*
X115944197Y-37729316D01*
X115920993Y-37723504D01*
X115898471Y-37715446D01*
X115876847Y-37705218D01*
X115856330Y-37692921D01*
X115837117Y-37678671D01*
X115819393Y-37662607D01*
X115803329Y-37644883D01*
X115789079Y-37625670D01*
X115776782Y-37605153D01*
X115766554Y-37583529D01*
X115758496Y-37561007D01*
X115752684Y-37537803D01*
X115749174Y-37514142D01*
X115748000Y-37490250D01*
X115748000Y-36577750D01*
X115749174Y-36553858D01*
X115752684Y-36530197D01*
X115758496Y-36506993D01*
X115766554Y-36484471D01*
X115776782Y-36462847D01*
X115789079Y-36442330D01*
X115803329Y-36423117D01*
X115819393Y-36405393D01*
X115837117Y-36389329D01*
X115856330Y-36375079D01*
X115876847Y-36362782D01*
X115898471Y-36352554D01*
X115920993Y-36344496D01*
X115944197Y-36338684D01*
X115967858Y-36335174D01*
X115991750Y-36334000D01*
X116479250Y-36334000D01*
X116503142Y-36335174D01*
G37*
G36*
X114628142Y-36335174D02*
G01*
X114651803Y-36338684D01*
X114675007Y-36344496D01*
X114697529Y-36352554D01*
X114719153Y-36362782D01*
X114739670Y-36375079D01*
X114758883Y-36389329D01*
X114776607Y-36405393D01*
X114792671Y-36423117D01*
X114806921Y-36442330D01*
X114819218Y-36462847D01*
X114829446Y-36484471D01*
X114837504Y-36506993D01*
X114843316Y-36530197D01*
X114846826Y-36553858D01*
X114848000Y-36577750D01*
X114848000Y-37490250D01*
X114846826Y-37514142D01*
X114843316Y-37537803D01*
X114837504Y-37561007D01*
X114829446Y-37583529D01*
X114819218Y-37605153D01*
X114806921Y-37625670D01*
X114792671Y-37644883D01*
X114776607Y-37662607D01*
X114758883Y-37678671D01*
X114739670Y-37692921D01*
X114719153Y-37705218D01*
X114697529Y-37715446D01*
X114675007Y-37723504D01*
X114651803Y-37729316D01*
X114628142Y-37732826D01*
X114604250Y-37734000D01*
X114116750Y-37734000D01*
X114092858Y-37732826D01*
X114069197Y-37729316D01*
X114045993Y-37723504D01*
X114023471Y-37715446D01*
X114001847Y-37705218D01*
X113981330Y-37692921D01*
X113962117Y-37678671D01*
X113944393Y-37662607D01*
X113928329Y-37644883D01*
X113914079Y-37625670D01*
X113901782Y-37605153D01*
X113891554Y-37583529D01*
X113883496Y-37561007D01*
X113877684Y-37537803D01*
X113874174Y-37514142D01*
X113873000Y-37490250D01*
X113873000Y-36577750D01*
X113874174Y-36553858D01*
X113877684Y-36530197D01*
X113883496Y-36506993D01*
X113891554Y-36484471D01*
X113901782Y-36462847D01*
X113914079Y-36442330D01*
X113928329Y-36423117D01*
X113944393Y-36405393D01*
X113962117Y-36389329D01*
X113981330Y-36375079D01*
X114001847Y-36362782D01*
X114023471Y-36352554D01*
X114045993Y-36344496D01*
X114069197Y-36338684D01*
X114092858Y-36335174D01*
X114116750Y-36334000D01*
X114604250Y-36334000D01*
X114628142Y-36335174D01*
G37*
G36*
X148507142Y-84595174D02*
G01*
X148530803Y-84598684D01*
X148554007Y-84604496D01*
X148576529Y-84612554D01*
X148598153Y-84622782D01*
X148618670Y-84635079D01*
X148637883Y-84649329D01*
X148655607Y-84665393D01*
X148671671Y-84683117D01*
X148685921Y-84702330D01*
X148698218Y-84722847D01*
X148708446Y-84744471D01*
X148716504Y-84766993D01*
X148722316Y-84790197D01*
X148725826Y-84813858D01*
X148727000Y-84837750D01*
X148727000Y-85750250D01*
X148725826Y-85774142D01*
X148722316Y-85797803D01*
X148716504Y-85821007D01*
X148708446Y-85843529D01*
X148698218Y-85865153D01*
X148685921Y-85885670D01*
X148671671Y-85904883D01*
X148655607Y-85922607D01*
X148637883Y-85938671D01*
X148618670Y-85952921D01*
X148598153Y-85965218D01*
X148576529Y-85975446D01*
X148554007Y-85983504D01*
X148530803Y-85989316D01*
X148507142Y-85992826D01*
X148483250Y-85994000D01*
X147995750Y-85994000D01*
X147971858Y-85992826D01*
X147948197Y-85989316D01*
X147924993Y-85983504D01*
X147902471Y-85975446D01*
X147880847Y-85965218D01*
X147860330Y-85952921D01*
X147841117Y-85938671D01*
X147823393Y-85922607D01*
X147807329Y-85904883D01*
X147793079Y-85885670D01*
X147780782Y-85865153D01*
X147770554Y-85843529D01*
X147762496Y-85821007D01*
X147756684Y-85797803D01*
X147753174Y-85774142D01*
X147752000Y-85750250D01*
X147752000Y-84837750D01*
X147753174Y-84813858D01*
X147756684Y-84790197D01*
X147762496Y-84766993D01*
X147770554Y-84744471D01*
X147780782Y-84722847D01*
X147793079Y-84702330D01*
X147807329Y-84683117D01*
X147823393Y-84665393D01*
X147841117Y-84649329D01*
X147860330Y-84635079D01*
X147880847Y-84622782D01*
X147902471Y-84612554D01*
X147924993Y-84604496D01*
X147948197Y-84598684D01*
X147971858Y-84595174D01*
X147995750Y-84594000D01*
X148483250Y-84594000D01*
X148507142Y-84595174D01*
G37*
G36*
X146632142Y-84595174D02*
G01*
X146655803Y-84598684D01*
X146679007Y-84604496D01*
X146701529Y-84612554D01*
X146723153Y-84622782D01*
X146743670Y-84635079D01*
X146762883Y-84649329D01*
X146780607Y-84665393D01*
X146796671Y-84683117D01*
X146810921Y-84702330D01*
X146823218Y-84722847D01*
X146833446Y-84744471D01*
X146841504Y-84766993D01*
X146847316Y-84790197D01*
X146850826Y-84813858D01*
X146852000Y-84837750D01*
X146852000Y-85750250D01*
X146850826Y-85774142D01*
X146847316Y-85797803D01*
X146841504Y-85821007D01*
X146833446Y-85843529D01*
X146823218Y-85865153D01*
X146810921Y-85885670D01*
X146796671Y-85904883D01*
X146780607Y-85922607D01*
X146762883Y-85938671D01*
X146743670Y-85952921D01*
X146723153Y-85965218D01*
X146701529Y-85975446D01*
X146679007Y-85983504D01*
X146655803Y-85989316D01*
X146632142Y-85992826D01*
X146608250Y-85994000D01*
X146120750Y-85994000D01*
X146096858Y-85992826D01*
X146073197Y-85989316D01*
X146049993Y-85983504D01*
X146027471Y-85975446D01*
X146005847Y-85965218D01*
X145985330Y-85952921D01*
X145966117Y-85938671D01*
X145948393Y-85922607D01*
X145932329Y-85904883D01*
X145918079Y-85885670D01*
X145905782Y-85865153D01*
X145895554Y-85843529D01*
X145887496Y-85821007D01*
X145881684Y-85797803D01*
X145878174Y-85774142D01*
X145877000Y-85750250D01*
X145877000Y-84837750D01*
X145878174Y-84813858D01*
X145881684Y-84790197D01*
X145887496Y-84766993D01*
X145895554Y-84744471D01*
X145905782Y-84722847D01*
X145918079Y-84702330D01*
X145932329Y-84683117D01*
X145948393Y-84665393D01*
X145966117Y-84649329D01*
X145985330Y-84635079D01*
X146005847Y-84622782D01*
X146027471Y-84612554D01*
X146049993Y-84604496D01*
X146073197Y-84598684D01*
X146096858Y-84595174D01*
X146120750Y-84594000D01*
X146608250Y-84594000D01*
X146632142Y-84595174D01*
G37*
G36*
X151204142Y-84595174D02*
G01*
X151227803Y-84598684D01*
X151251007Y-84604496D01*
X151273529Y-84612554D01*
X151295153Y-84622782D01*
X151315670Y-84635079D01*
X151334883Y-84649329D01*
X151352607Y-84665393D01*
X151368671Y-84683117D01*
X151382921Y-84702330D01*
X151395218Y-84722847D01*
X151405446Y-84744471D01*
X151413504Y-84766993D01*
X151419316Y-84790197D01*
X151422826Y-84813858D01*
X151424000Y-84837750D01*
X151424000Y-85750250D01*
X151422826Y-85774142D01*
X151419316Y-85797803D01*
X151413504Y-85821007D01*
X151405446Y-85843529D01*
X151395218Y-85865153D01*
X151382921Y-85885670D01*
X151368671Y-85904883D01*
X151352607Y-85922607D01*
X151334883Y-85938671D01*
X151315670Y-85952921D01*
X151295153Y-85965218D01*
X151273529Y-85975446D01*
X151251007Y-85983504D01*
X151227803Y-85989316D01*
X151204142Y-85992826D01*
X151180250Y-85994000D01*
X150692750Y-85994000D01*
X150668858Y-85992826D01*
X150645197Y-85989316D01*
X150621993Y-85983504D01*
X150599471Y-85975446D01*
X150577847Y-85965218D01*
X150557330Y-85952921D01*
X150538117Y-85938671D01*
X150520393Y-85922607D01*
X150504329Y-85904883D01*
X150490079Y-85885670D01*
X150477782Y-85865153D01*
X150467554Y-85843529D01*
X150459496Y-85821007D01*
X150453684Y-85797803D01*
X150450174Y-85774142D01*
X150449000Y-85750250D01*
X150449000Y-84837750D01*
X150450174Y-84813858D01*
X150453684Y-84790197D01*
X150459496Y-84766993D01*
X150467554Y-84744471D01*
X150477782Y-84722847D01*
X150490079Y-84702330D01*
X150504329Y-84683117D01*
X150520393Y-84665393D01*
X150538117Y-84649329D01*
X150557330Y-84635079D01*
X150577847Y-84622782D01*
X150599471Y-84612554D01*
X150621993Y-84604496D01*
X150645197Y-84598684D01*
X150668858Y-84595174D01*
X150692750Y-84594000D01*
X151180250Y-84594000D01*
X151204142Y-84595174D01*
G37*
G36*
X153079142Y-84595174D02*
G01*
X153102803Y-84598684D01*
X153126007Y-84604496D01*
X153148529Y-84612554D01*
X153170153Y-84622782D01*
X153190670Y-84635079D01*
X153209883Y-84649329D01*
X153227607Y-84665393D01*
X153243671Y-84683117D01*
X153257921Y-84702330D01*
X153270218Y-84722847D01*
X153280446Y-84744471D01*
X153288504Y-84766993D01*
X153294316Y-84790197D01*
X153297826Y-84813858D01*
X153299000Y-84837750D01*
X153299000Y-85750250D01*
X153297826Y-85774142D01*
X153294316Y-85797803D01*
X153288504Y-85821007D01*
X153280446Y-85843529D01*
X153270218Y-85865153D01*
X153257921Y-85885670D01*
X153243671Y-85904883D01*
X153227607Y-85922607D01*
X153209883Y-85938671D01*
X153190670Y-85952921D01*
X153170153Y-85965218D01*
X153148529Y-85975446D01*
X153126007Y-85983504D01*
X153102803Y-85989316D01*
X153079142Y-85992826D01*
X153055250Y-85994000D01*
X152567750Y-85994000D01*
X152543858Y-85992826D01*
X152520197Y-85989316D01*
X152496993Y-85983504D01*
X152474471Y-85975446D01*
X152452847Y-85965218D01*
X152432330Y-85952921D01*
X152413117Y-85938671D01*
X152395393Y-85922607D01*
X152379329Y-85904883D01*
X152365079Y-85885670D01*
X152352782Y-85865153D01*
X152342554Y-85843529D01*
X152334496Y-85821007D01*
X152328684Y-85797803D01*
X152325174Y-85774142D01*
X152324000Y-85750250D01*
X152324000Y-84837750D01*
X152325174Y-84813858D01*
X152328684Y-84790197D01*
X152334496Y-84766993D01*
X152342554Y-84744471D01*
X152352782Y-84722847D01*
X152365079Y-84702330D01*
X152379329Y-84683117D01*
X152395393Y-84665393D01*
X152413117Y-84649329D01*
X152432330Y-84635079D01*
X152452847Y-84622782D01*
X152474471Y-84612554D01*
X152496993Y-84604496D01*
X152520197Y-84598684D01*
X152543858Y-84595174D01*
X152567750Y-84594000D01*
X153055250Y-84594000D01*
X153079142Y-84595174D01*
G37*
G36*
X143935142Y-84595174D02*
G01*
X143958803Y-84598684D01*
X143982007Y-84604496D01*
X144004529Y-84612554D01*
X144026153Y-84622782D01*
X144046670Y-84635079D01*
X144065883Y-84649329D01*
X144083607Y-84665393D01*
X144099671Y-84683117D01*
X144113921Y-84702330D01*
X144126218Y-84722847D01*
X144136446Y-84744471D01*
X144144504Y-84766993D01*
X144150316Y-84790197D01*
X144153826Y-84813858D01*
X144155000Y-84837750D01*
X144155000Y-85750250D01*
X144153826Y-85774142D01*
X144150316Y-85797803D01*
X144144504Y-85821007D01*
X144136446Y-85843529D01*
X144126218Y-85865153D01*
X144113921Y-85885670D01*
X144099671Y-85904883D01*
X144083607Y-85922607D01*
X144065883Y-85938671D01*
X144046670Y-85952921D01*
X144026153Y-85965218D01*
X144004529Y-85975446D01*
X143982007Y-85983504D01*
X143958803Y-85989316D01*
X143935142Y-85992826D01*
X143911250Y-85994000D01*
X143423750Y-85994000D01*
X143399858Y-85992826D01*
X143376197Y-85989316D01*
X143352993Y-85983504D01*
X143330471Y-85975446D01*
X143308847Y-85965218D01*
X143288330Y-85952921D01*
X143269117Y-85938671D01*
X143251393Y-85922607D01*
X143235329Y-85904883D01*
X143221079Y-85885670D01*
X143208782Y-85865153D01*
X143198554Y-85843529D01*
X143190496Y-85821007D01*
X143184684Y-85797803D01*
X143181174Y-85774142D01*
X143180000Y-85750250D01*
X143180000Y-84837750D01*
X143181174Y-84813858D01*
X143184684Y-84790197D01*
X143190496Y-84766993D01*
X143198554Y-84744471D01*
X143208782Y-84722847D01*
X143221079Y-84702330D01*
X143235329Y-84683117D01*
X143251393Y-84665393D01*
X143269117Y-84649329D01*
X143288330Y-84635079D01*
X143308847Y-84622782D01*
X143330471Y-84612554D01*
X143352993Y-84604496D01*
X143376197Y-84598684D01*
X143399858Y-84595174D01*
X143423750Y-84594000D01*
X143911250Y-84594000D01*
X143935142Y-84595174D01*
G37*
G36*
X142060142Y-84595174D02*
G01*
X142083803Y-84598684D01*
X142107007Y-84604496D01*
X142129529Y-84612554D01*
X142151153Y-84622782D01*
X142171670Y-84635079D01*
X142190883Y-84649329D01*
X142208607Y-84665393D01*
X142224671Y-84683117D01*
X142238921Y-84702330D01*
X142251218Y-84722847D01*
X142261446Y-84744471D01*
X142269504Y-84766993D01*
X142275316Y-84790197D01*
X142278826Y-84813858D01*
X142280000Y-84837750D01*
X142280000Y-85750250D01*
X142278826Y-85774142D01*
X142275316Y-85797803D01*
X142269504Y-85821007D01*
X142261446Y-85843529D01*
X142251218Y-85865153D01*
X142238921Y-85885670D01*
X142224671Y-85904883D01*
X142208607Y-85922607D01*
X142190883Y-85938671D01*
X142171670Y-85952921D01*
X142151153Y-85965218D01*
X142129529Y-85975446D01*
X142107007Y-85983504D01*
X142083803Y-85989316D01*
X142060142Y-85992826D01*
X142036250Y-85994000D01*
X141548750Y-85994000D01*
X141524858Y-85992826D01*
X141501197Y-85989316D01*
X141477993Y-85983504D01*
X141455471Y-85975446D01*
X141433847Y-85965218D01*
X141413330Y-85952921D01*
X141394117Y-85938671D01*
X141376393Y-85922607D01*
X141360329Y-85904883D01*
X141346079Y-85885670D01*
X141333782Y-85865153D01*
X141323554Y-85843529D01*
X141315496Y-85821007D01*
X141309684Y-85797803D01*
X141306174Y-85774142D01*
X141305000Y-85750250D01*
X141305000Y-84837750D01*
X141306174Y-84813858D01*
X141309684Y-84790197D01*
X141315496Y-84766993D01*
X141323554Y-84744471D01*
X141333782Y-84722847D01*
X141346079Y-84702330D01*
X141360329Y-84683117D01*
X141376393Y-84665393D01*
X141394117Y-84649329D01*
X141413330Y-84635079D01*
X141433847Y-84622782D01*
X141455471Y-84612554D01*
X141477993Y-84604496D01*
X141501197Y-84598684D01*
X141524858Y-84595174D01*
X141548750Y-84594000D01*
X142036250Y-84594000D01*
X142060142Y-84595174D01*
G37*
G36*
X119200142Y-38875174D02*
G01*
X119223803Y-38878684D01*
X119247007Y-38884496D01*
X119269529Y-38892554D01*
X119291153Y-38902782D01*
X119311670Y-38915079D01*
X119330883Y-38929329D01*
X119348607Y-38945393D01*
X119364671Y-38963117D01*
X119378921Y-38982330D01*
X119391218Y-39002847D01*
X119401446Y-39024471D01*
X119409504Y-39046993D01*
X119415316Y-39070197D01*
X119418826Y-39093858D01*
X119420000Y-39117750D01*
X119420000Y-40030250D01*
X119418826Y-40054142D01*
X119415316Y-40077803D01*
X119409504Y-40101007D01*
X119401446Y-40123529D01*
X119391218Y-40145153D01*
X119378921Y-40165670D01*
X119364671Y-40184883D01*
X119348607Y-40202607D01*
X119330883Y-40218671D01*
X119311670Y-40232921D01*
X119291153Y-40245218D01*
X119269529Y-40255446D01*
X119247007Y-40263504D01*
X119223803Y-40269316D01*
X119200142Y-40272826D01*
X119176250Y-40274000D01*
X118688750Y-40274000D01*
X118664858Y-40272826D01*
X118641197Y-40269316D01*
X118617993Y-40263504D01*
X118595471Y-40255446D01*
X118573847Y-40245218D01*
X118553330Y-40232921D01*
X118534117Y-40218671D01*
X118516393Y-40202607D01*
X118500329Y-40184883D01*
X118486079Y-40165670D01*
X118473782Y-40145153D01*
X118463554Y-40123529D01*
X118455496Y-40101007D01*
X118449684Y-40077803D01*
X118446174Y-40054142D01*
X118445000Y-40030250D01*
X118445000Y-39117750D01*
X118446174Y-39093858D01*
X118449684Y-39070197D01*
X118455496Y-39046993D01*
X118463554Y-39024471D01*
X118473782Y-39002847D01*
X118486079Y-38982330D01*
X118500329Y-38963117D01*
X118516393Y-38945393D01*
X118534117Y-38929329D01*
X118553330Y-38915079D01*
X118573847Y-38902782D01*
X118595471Y-38892554D01*
X118617993Y-38884496D01*
X118641197Y-38878684D01*
X118664858Y-38875174D01*
X118688750Y-38874000D01*
X119176250Y-38874000D01*
X119200142Y-38875174D01*
G37*
G36*
X121075142Y-38875174D02*
G01*
X121098803Y-38878684D01*
X121122007Y-38884496D01*
X121144529Y-38892554D01*
X121166153Y-38902782D01*
X121186670Y-38915079D01*
X121205883Y-38929329D01*
X121223607Y-38945393D01*
X121239671Y-38963117D01*
X121253921Y-38982330D01*
X121266218Y-39002847D01*
X121276446Y-39024471D01*
X121284504Y-39046993D01*
X121290316Y-39070197D01*
X121293826Y-39093858D01*
X121295000Y-39117750D01*
X121295000Y-40030250D01*
X121293826Y-40054142D01*
X121290316Y-40077803D01*
X121284504Y-40101007D01*
X121276446Y-40123529D01*
X121266218Y-40145153D01*
X121253921Y-40165670D01*
X121239671Y-40184883D01*
X121223607Y-40202607D01*
X121205883Y-40218671D01*
X121186670Y-40232921D01*
X121166153Y-40245218D01*
X121144529Y-40255446D01*
X121122007Y-40263504D01*
X121098803Y-40269316D01*
X121075142Y-40272826D01*
X121051250Y-40274000D01*
X120563750Y-40274000D01*
X120539858Y-40272826D01*
X120516197Y-40269316D01*
X120492993Y-40263504D01*
X120470471Y-40255446D01*
X120448847Y-40245218D01*
X120428330Y-40232921D01*
X120409117Y-40218671D01*
X120391393Y-40202607D01*
X120375329Y-40184883D01*
X120361079Y-40165670D01*
X120348782Y-40145153D01*
X120338554Y-40123529D01*
X120330496Y-40101007D01*
X120324684Y-40077803D01*
X120321174Y-40054142D01*
X120320000Y-40030250D01*
X120320000Y-39117750D01*
X120321174Y-39093858D01*
X120324684Y-39070197D01*
X120330496Y-39046993D01*
X120338554Y-39024471D01*
X120348782Y-39002847D01*
X120361079Y-38982330D01*
X120375329Y-38963117D01*
X120391393Y-38945393D01*
X120409117Y-38929329D01*
X120428330Y-38915079D01*
X120448847Y-38902782D01*
X120470471Y-38892554D01*
X120492993Y-38884496D01*
X120516197Y-38878684D01*
X120539858Y-38875174D01*
X120563750Y-38874000D01*
X121051250Y-38874000D01*
X121075142Y-38875174D01*
G37*
G36*
X121075142Y-56147174D02*
G01*
X121098803Y-56150684D01*
X121122007Y-56156496D01*
X121144529Y-56164554D01*
X121166153Y-56174782D01*
X121186670Y-56187079D01*
X121205883Y-56201329D01*
X121223607Y-56217393D01*
X121239671Y-56235117D01*
X121253921Y-56254330D01*
X121266218Y-56274847D01*
X121276446Y-56296471D01*
X121284504Y-56318993D01*
X121290316Y-56342197D01*
X121293826Y-56365858D01*
X121295000Y-56389750D01*
X121295000Y-57302250D01*
X121293826Y-57326142D01*
X121290316Y-57349803D01*
X121284504Y-57373007D01*
X121276446Y-57395529D01*
X121266218Y-57417153D01*
X121253921Y-57437670D01*
X121239671Y-57456883D01*
X121223607Y-57474607D01*
X121205883Y-57490671D01*
X121186670Y-57504921D01*
X121166153Y-57517218D01*
X121144529Y-57527446D01*
X121122007Y-57535504D01*
X121098803Y-57541316D01*
X121075142Y-57544826D01*
X121051250Y-57546000D01*
X120563750Y-57546000D01*
X120539858Y-57544826D01*
X120516197Y-57541316D01*
X120492993Y-57535504D01*
X120470471Y-57527446D01*
X120448847Y-57517218D01*
X120428330Y-57504921D01*
X120409117Y-57490671D01*
X120391393Y-57474607D01*
X120375329Y-57456883D01*
X120361079Y-57437670D01*
X120348782Y-57417153D01*
X120338554Y-57395529D01*
X120330496Y-57373007D01*
X120324684Y-57349803D01*
X120321174Y-57326142D01*
X120320000Y-57302250D01*
X120320000Y-56389750D01*
X120321174Y-56365858D01*
X120324684Y-56342197D01*
X120330496Y-56318993D01*
X120338554Y-56296471D01*
X120348782Y-56274847D01*
X120361079Y-56254330D01*
X120375329Y-56235117D01*
X120391393Y-56217393D01*
X120409117Y-56201329D01*
X120428330Y-56187079D01*
X120448847Y-56174782D01*
X120470471Y-56164554D01*
X120492993Y-56156496D01*
X120516197Y-56150684D01*
X120539858Y-56147174D01*
X120563750Y-56146000D01*
X121051250Y-56146000D01*
X121075142Y-56147174D01*
G37*
G36*
X119200142Y-56147174D02*
G01*
X119223803Y-56150684D01*
X119247007Y-56156496D01*
X119269529Y-56164554D01*
X119291153Y-56174782D01*
X119311670Y-56187079D01*
X119330883Y-56201329D01*
X119348607Y-56217393D01*
X119364671Y-56235117D01*
X119378921Y-56254330D01*
X119391218Y-56274847D01*
X119401446Y-56296471D01*
X119409504Y-56318993D01*
X119415316Y-56342197D01*
X119418826Y-56365858D01*
X119420000Y-56389750D01*
X119420000Y-57302250D01*
X119418826Y-57326142D01*
X119415316Y-57349803D01*
X119409504Y-57373007D01*
X119401446Y-57395529D01*
X119391218Y-57417153D01*
X119378921Y-57437670D01*
X119364671Y-57456883D01*
X119348607Y-57474607D01*
X119330883Y-57490671D01*
X119311670Y-57504921D01*
X119291153Y-57517218D01*
X119269529Y-57527446D01*
X119247007Y-57535504D01*
X119223803Y-57541316D01*
X119200142Y-57544826D01*
X119176250Y-57546000D01*
X118688750Y-57546000D01*
X118664858Y-57544826D01*
X118641197Y-57541316D01*
X118617993Y-57535504D01*
X118595471Y-57527446D01*
X118573847Y-57517218D01*
X118553330Y-57504921D01*
X118534117Y-57490671D01*
X118516393Y-57474607D01*
X118500329Y-57456883D01*
X118486079Y-57437670D01*
X118473782Y-57417153D01*
X118463554Y-57395529D01*
X118455496Y-57373007D01*
X118449684Y-57349803D01*
X118446174Y-57326142D01*
X118445000Y-57302250D01*
X118445000Y-56389750D01*
X118446174Y-56365858D01*
X118449684Y-56342197D01*
X118455496Y-56318993D01*
X118463554Y-56296471D01*
X118473782Y-56274847D01*
X118486079Y-56254330D01*
X118500329Y-56235117D01*
X118516393Y-56217393D01*
X118534117Y-56201329D01*
X118553330Y-56187079D01*
X118573847Y-56174782D01*
X118595471Y-56164554D01*
X118617993Y-56156496D01*
X118641197Y-56150684D01*
X118664858Y-56147174D01*
X118688750Y-56146000D01*
X119176250Y-56146000D01*
X119200142Y-56147174D01*
G37*
G36*
X166033142Y-113932174D02*
G01*
X166056803Y-113935684D01*
X166080007Y-113941496D01*
X166102529Y-113949554D01*
X166124153Y-113959782D01*
X166144670Y-113972079D01*
X166163883Y-113986329D01*
X166181607Y-114002393D01*
X166197671Y-114020117D01*
X166211921Y-114039330D01*
X166224218Y-114059847D01*
X166234446Y-114081471D01*
X166242504Y-114103993D01*
X166248316Y-114127197D01*
X166251826Y-114150858D01*
X166253000Y-114174750D01*
X166253000Y-115087250D01*
X166251826Y-115111142D01*
X166248316Y-115134803D01*
X166242504Y-115158007D01*
X166234446Y-115180529D01*
X166224218Y-115202153D01*
X166211921Y-115222670D01*
X166197671Y-115241883D01*
X166181607Y-115259607D01*
X166163883Y-115275671D01*
X166144670Y-115289921D01*
X166124153Y-115302218D01*
X166102529Y-115312446D01*
X166080007Y-115320504D01*
X166056803Y-115326316D01*
X166033142Y-115329826D01*
X166009250Y-115331000D01*
X165521750Y-115331000D01*
X165497858Y-115329826D01*
X165474197Y-115326316D01*
X165450993Y-115320504D01*
X165428471Y-115312446D01*
X165406847Y-115302218D01*
X165386330Y-115289921D01*
X165367117Y-115275671D01*
X165349393Y-115259607D01*
X165333329Y-115241883D01*
X165319079Y-115222670D01*
X165306782Y-115202153D01*
X165296554Y-115180529D01*
X165288496Y-115158007D01*
X165282684Y-115134803D01*
X165279174Y-115111142D01*
X165278000Y-115087250D01*
X165278000Y-114174750D01*
X165279174Y-114150858D01*
X165282684Y-114127197D01*
X165288496Y-114103993D01*
X165296554Y-114081471D01*
X165306782Y-114059847D01*
X165319079Y-114039330D01*
X165333329Y-114020117D01*
X165349393Y-114002393D01*
X165367117Y-113986329D01*
X165386330Y-113972079D01*
X165406847Y-113959782D01*
X165428471Y-113949554D01*
X165450993Y-113941496D01*
X165474197Y-113935684D01*
X165497858Y-113932174D01*
X165521750Y-113931000D01*
X166009250Y-113931000D01*
X166033142Y-113932174D01*
G37*
G36*
X164158142Y-113932174D02*
G01*
X164181803Y-113935684D01*
X164205007Y-113941496D01*
X164227529Y-113949554D01*
X164249153Y-113959782D01*
X164269670Y-113972079D01*
X164288883Y-113986329D01*
X164306607Y-114002393D01*
X164322671Y-114020117D01*
X164336921Y-114039330D01*
X164349218Y-114059847D01*
X164359446Y-114081471D01*
X164367504Y-114103993D01*
X164373316Y-114127197D01*
X164376826Y-114150858D01*
X164378000Y-114174750D01*
X164378000Y-115087250D01*
X164376826Y-115111142D01*
X164373316Y-115134803D01*
X164367504Y-115158007D01*
X164359446Y-115180529D01*
X164349218Y-115202153D01*
X164336921Y-115222670D01*
X164322671Y-115241883D01*
X164306607Y-115259607D01*
X164288883Y-115275671D01*
X164269670Y-115289921D01*
X164249153Y-115302218D01*
X164227529Y-115312446D01*
X164205007Y-115320504D01*
X164181803Y-115326316D01*
X164158142Y-115329826D01*
X164134250Y-115331000D01*
X163646750Y-115331000D01*
X163622858Y-115329826D01*
X163599197Y-115326316D01*
X163575993Y-115320504D01*
X163553471Y-115312446D01*
X163531847Y-115302218D01*
X163511330Y-115289921D01*
X163492117Y-115275671D01*
X163474393Y-115259607D01*
X163458329Y-115241883D01*
X163444079Y-115222670D01*
X163431782Y-115202153D01*
X163421554Y-115180529D01*
X163413496Y-115158007D01*
X163407684Y-115134803D01*
X163404174Y-115111142D01*
X163403000Y-115087250D01*
X163403000Y-114174750D01*
X163404174Y-114150858D01*
X163407684Y-114127197D01*
X163413496Y-114103993D01*
X163421554Y-114081471D01*
X163431782Y-114059847D01*
X163444079Y-114039330D01*
X163458329Y-114020117D01*
X163474393Y-114002393D01*
X163492117Y-113986329D01*
X163511330Y-113972079D01*
X163531847Y-113959782D01*
X163553471Y-113949554D01*
X163575993Y-113941496D01*
X163599197Y-113935684D01*
X163622858Y-113932174D01*
X163646750Y-113931000D01*
X164134250Y-113931000D01*
X164158142Y-113932174D01*
G37*
G36*
X164430142Y-98869174D02*
G01*
X164453803Y-98872684D01*
X164477007Y-98878496D01*
X164499529Y-98886554D01*
X164521153Y-98896782D01*
X164541670Y-98909079D01*
X164560883Y-98923329D01*
X164578607Y-98939393D01*
X164594671Y-98957117D01*
X164608921Y-98976330D01*
X164621218Y-98996847D01*
X164631446Y-99018471D01*
X164639504Y-99040993D01*
X164645316Y-99064197D01*
X164648826Y-99087858D01*
X164650000Y-99111750D01*
X164650000Y-100024250D01*
X164648826Y-100048142D01*
X164645316Y-100071803D01*
X164639504Y-100095007D01*
X164631446Y-100117529D01*
X164621218Y-100139153D01*
X164608921Y-100159670D01*
X164594671Y-100178883D01*
X164578607Y-100196607D01*
X164560883Y-100212671D01*
X164541670Y-100226921D01*
X164521153Y-100239218D01*
X164499529Y-100249446D01*
X164477007Y-100257504D01*
X164453803Y-100263316D01*
X164430142Y-100266826D01*
X164406250Y-100268000D01*
X163918750Y-100268000D01*
X163894858Y-100266826D01*
X163871197Y-100263316D01*
X163847993Y-100257504D01*
X163825471Y-100249446D01*
X163803847Y-100239218D01*
X163783330Y-100226921D01*
X163764117Y-100212671D01*
X163746393Y-100196607D01*
X163730329Y-100178883D01*
X163716079Y-100159670D01*
X163703782Y-100139153D01*
X163693554Y-100117529D01*
X163685496Y-100095007D01*
X163679684Y-100071803D01*
X163676174Y-100048142D01*
X163675000Y-100024250D01*
X163675000Y-99111750D01*
X163676174Y-99087858D01*
X163679684Y-99064197D01*
X163685496Y-99040993D01*
X163693554Y-99018471D01*
X163703782Y-98996847D01*
X163716079Y-98976330D01*
X163730329Y-98957117D01*
X163746393Y-98939393D01*
X163764117Y-98923329D01*
X163783330Y-98909079D01*
X163803847Y-98896782D01*
X163825471Y-98886554D01*
X163847993Y-98878496D01*
X163871197Y-98872684D01*
X163894858Y-98869174D01*
X163918750Y-98868000D01*
X164406250Y-98868000D01*
X164430142Y-98869174D01*
G37*
G36*
X166305142Y-98869174D02*
G01*
X166328803Y-98872684D01*
X166352007Y-98878496D01*
X166374529Y-98886554D01*
X166396153Y-98896782D01*
X166416670Y-98909079D01*
X166435883Y-98923329D01*
X166453607Y-98939393D01*
X166469671Y-98957117D01*
X166483921Y-98976330D01*
X166496218Y-98996847D01*
X166506446Y-99018471D01*
X166514504Y-99040993D01*
X166520316Y-99064197D01*
X166523826Y-99087858D01*
X166525000Y-99111750D01*
X166525000Y-100024250D01*
X166523826Y-100048142D01*
X166520316Y-100071803D01*
X166514504Y-100095007D01*
X166506446Y-100117529D01*
X166496218Y-100139153D01*
X166483921Y-100159670D01*
X166469671Y-100178883D01*
X166453607Y-100196607D01*
X166435883Y-100212671D01*
X166416670Y-100226921D01*
X166396153Y-100239218D01*
X166374529Y-100249446D01*
X166352007Y-100257504D01*
X166328803Y-100263316D01*
X166305142Y-100266826D01*
X166281250Y-100268000D01*
X165793750Y-100268000D01*
X165769858Y-100266826D01*
X165746197Y-100263316D01*
X165722993Y-100257504D01*
X165700471Y-100249446D01*
X165678847Y-100239218D01*
X165658330Y-100226921D01*
X165639117Y-100212671D01*
X165621393Y-100196607D01*
X165605329Y-100178883D01*
X165591079Y-100159670D01*
X165578782Y-100139153D01*
X165568554Y-100117529D01*
X165560496Y-100095007D01*
X165554684Y-100071803D01*
X165551174Y-100048142D01*
X165550000Y-100024250D01*
X165550000Y-99111750D01*
X165551174Y-99087858D01*
X165554684Y-99064197D01*
X165560496Y-99040993D01*
X165568554Y-99018471D01*
X165578782Y-98996847D01*
X165591079Y-98976330D01*
X165605329Y-98957117D01*
X165621393Y-98939393D01*
X165639117Y-98923329D01*
X165658330Y-98909079D01*
X165678847Y-98896782D01*
X165700471Y-98886554D01*
X165722993Y-98878496D01*
X165746197Y-98872684D01*
X165769858Y-98869174D01*
X165793750Y-98868000D01*
X166281250Y-98868000D01*
X166305142Y-98869174D01*
G37*
G36*
X119629642Y-94755174D02*
G01*
X119653303Y-94758684D01*
X119676507Y-94764496D01*
X119699029Y-94772554D01*
X119720653Y-94782782D01*
X119741170Y-94795079D01*
X119760383Y-94809329D01*
X119778107Y-94825393D01*
X119794171Y-94843117D01*
X119808421Y-94862330D01*
X119820718Y-94882847D01*
X119830946Y-94904471D01*
X119839004Y-94926993D01*
X119844816Y-94950197D01*
X119848326Y-94973858D01*
X119849500Y-94997750D01*
X119849500Y-95910250D01*
X119848326Y-95934142D01*
X119844816Y-95957803D01*
X119839004Y-95981007D01*
X119830946Y-96003529D01*
X119820718Y-96025153D01*
X119808421Y-96045670D01*
X119794171Y-96064883D01*
X119778107Y-96082607D01*
X119760383Y-96098671D01*
X119741170Y-96112921D01*
X119720653Y-96125218D01*
X119699029Y-96135446D01*
X119676507Y-96143504D01*
X119653303Y-96149316D01*
X119629642Y-96152826D01*
X119605750Y-96154000D01*
X119118250Y-96154000D01*
X119094358Y-96152826D01*
X119070697Y-96149316D01*
X119047493Y-96143504D01*
X119024971Y-96135446D01*
X119003347Y-96125218D01*
X118982830Y-96112921D01*
X118963617Y-96098671D01*
X118945893Y-96082607D01*
X118929829Y-96064883D01*
X118915579Y-96045670D01*
X118903282Y-96025153D01*
X118893054Y-96003529D01*
X118884996Y-95981007D01*
X118879184Y-95957803D01*
X118875674Y-95934142D01*
X118874500Y-95910250D01*
X118874500Y-94997750D01*
X118875674Y-94973858D01*
X118879184Y-94950197D01*
X118884996Y-94926993D01*
X118893054Y-94904471D01*
X118903282Y-94882847D01*
X118915579Y-94862330D01*
X118929829Y-94843117D01*
X118945893Y-94825393D01*
X118963617Y-94809329D01*
X118982830Y-94795079D01*
X119003347Y-94782782D01*
X119024971Y-94772554D01*
X119047493Y-94764496D01*
X119070697Y-94758684D01*
X119094358Y-94755174D01*
X119118250Y-94754000D01*
X119605750Y-94754000D01*
X119629642Y-94755174D01*
G37*
G36*
X121504642Y-94755174D02*
G01*
X121528303Y-94758684D01*
X121551507Y-94764496D01*
X121574029Y-94772554D01*
X121595653Y-94782782D01*
X121616170Y-94795079D01*
X121635383Y-94809329D01*
X121653107Y-94825393D01*
X121669171Y-94843117D01*
X121683421Y-94862330D01*
X121695718Y-94882847D01*
X121705946Y-94904471D01*
X121714004Y-94926993D01*
X121719816Y-94950197D01*
X121723326Y-94973858D01*
X121724500Y-94997750D01*
X121724500Y-95910250D01*
X121723326Y-95934142D01*
X121719816Y-95957803D01*
X121714004Y-95981007D01*
X121705946Y-96003529D01*
X121695718Y-96025153D01*
X121683421Y-96045670D01*
X121669171Y-96064883D01*
X121653107Y-96082607D01*
X121635383Y-96098671D01*
X121616170Y-96112921D01*
X121595653Y-96125218D01*
X121574029Y-96135446D01*
X121551507Y-96143504D01*
X121528303Y-96149316D01*
X121504642Y-96152826D01*
X121480750Y-96154000D01*
X120993250Y-96154000D01*
X120969358Y-96152826D01*
X120945697Y-96149316D01*
X120922493Y-96143504D01*
X120899971Y-96135446D01*
X120878347Y-96125218D01*
X120857830Y-96112921D01*
X120838617Y-96098671D01*
X120820893Y-96082607D01*
X120804829Y-96064883D01*
X120790579Y-96045670D01*
X120778282Y-96025153D01*
X120768054Y-96003529D01*
X120759996Y-95981007D01*
X120754184Y-95957803D01*
X120750674Y-95934142D01*
X120749500Y-95910250D01*
X120749500Y-94997750D01*
X120750674Y-94973858D01*
X120754184Y-94950197D01*
X120759996Y-94926993D01*
X120768054Y-94904471D01*
X120778282Y-94882847D01*
X120790579Y-94862330D01*
X120804829Y-94843117D01*
X120820893Y-94825393D01*
X120838617Y-94809329D01*
X120857830Y-94795079D01*
X120878347Y-94782782D01*
X120899971Y-94772554D01*
X120922493Y-94764496D01*
X120945697Y-94758684D01*
X120969358Y-94755174D01*
X120993250Y-94754000D01*
X121480750Y-94754000D01*
X121504642Y-94755174D01*
G37*
G36*
X119708142Y-82563174D02*
G01*
X119731803Y-82566684D01*
X119755007Y-82572496D01*
X119777529Y-82580554D01*
X119799153Y-82590782D01*
X119819670Y-82603079D01*
X119838883Y-82617329D01*
X119856607Y-82633393D01*
X119872671Y-82651117D01*
X119886921Y-82670330D01*
X119899218Y-82690847D01*
X119909446Y-82712471D01*
X119917504Y-82734993D01*
X119923316Y-82758197D01*
X119926826Y-82781858D01*
X119928000Y-82805750D01*
X119928000Y-83718250D01*
X119926826Y-83742142D01*
X119923316Y-83765803D01*
X119917504Y-83789007D01*
X119909446Y-83811529D01*
X119899218Y-83833153D01*
X119886921Y-83853670D01*
X119872671Y-83872883D01*
X119856607Y-83890607D01*
X119838883Y-83906671D01*
X119819670Y-83920921D01*
X119799153Y-83933218D01*
X119777529Y-83943446D01*
X119755007Y-83951504D01*
X119731803Y-83957316D01*
X119708142Y-83960826D01*
X119684250Y-83962000D01*
X119196750Y-83962000D01*
X119172858Y-83960826D01*
X119149197Y-83957316D01*
X119125993Y-83951504D01*
X119103471Y-83943446D01*
X119081847Y-83933218D01*
X119061330Y-83920921D01*
X119042117Y-83906671D01*
X119024393Y-83890607D01*
X119008329Y-83872883D01*
X118994079Y-83853670D01*
X118981782Y-83833153D01*
X118971554Y-83811529D01*
X118963496Y-83789007D01*
X118957684Y-83765803D01*
X118954174Y-83742142D01*
X118953000Y-83718250D01*
X118953000Y-82805750D01*
X118954174Y-82781858D01*
X118957684Y-82758197D01*
X118963496Y-82734993D01*
X118971554Y-82712471D01*
X118981782Y-82690847D01*
X118994079Y-82670330D01*
X119008329Y-82651117D01*
X119024393Y-82633393D01*
X119042117Y-82617329D01*
X119061330Y-82603079D01*
X119081847Y-82590782D01*
X119103471Y-82580554D01*
X119125993Y-82572496D01*
X119149197Y-82566684D01*
X119172858Y-82563174D01*
X119196750Y-82562000D01*
X119684250Y-82562000D01*
X119708142Y-82563174D01*
G37*
G36*
X121583142Y-82563174D02*
G01*
X121606803Y-82566684D01*
X121630007Y-82572496D01*
X121652529Y-82580554D01*
X121674153Y-82590782D01*
X121694670Y-82603079D01*
X121713883Y-82617329D01*
X121731607Y-82633393D01*
X121747671Y-82651117D01*
X121761921Y-82670330D01*
X121774218Y-82690847D01*
X121784446Y-82712471D01*
X121792504Y-82734993D01*
X121798316Y-82758197D01*
X121801826Y-82781858D01*
X121803000Y-82805750D01*
X121803000Y-83718250D01*
X121801826Y-83742142D01*
X121798316Y-83765803D01*
X121792504Y-83789007D01*
X121784446Y-83811529D01*
X121774218Y-83833153D01*
X121761921Y-83853670D01*
X121747671Y-83872883D01*
X121731607Y-83890607D01*
X121713883Y-83906671D01*
X121694670Y-83920921D01*
X121674153Y-83933218D01*
X121652529Y-83943446D01*
X121630007Y-83951504D01*
X121606803Y-83957316D01*
X121583142Y-83960826D01*
X121559250Y-83962000D01*
X121071750Y-83962000D01*
X121047858Y-83960826D01*
X121024197Y-83957316D01*
X121000993Y-83951504D01*
X120978471Y-83943446D01*
X120956847Y-83933218D01*
X120936330Y-83920921D01*
X120917117Y-83906671D01*
X120899393Y-83890607D01*
X120883329Y-83872883D01*
X120869079Y-83853670D01*
X120856782Y-83833153D01*
X120846554Y-83811529D01*
X120838496Y-83789007D01*
X120832684Y-83765803D01*
X120829174Y-83742142D01*
X120828000Y-83718250D01*
X120828000Y-82805750D01*
X120829174Y-82781858D01*
X120832684Y-82758197D01*
X120838496Y-82734993D01*
X120846554Y-82712471D01*
X120856782Y-82690847D01*
X120869079Y-82670330D01*
X120883329Y-82651117D01*
X120899393Y-82633393D01*
X120917117Y-82617329D01*
X120936330Y-82603079D01*
X120956847Y-82590782D01*
X120978471Y-82580554D01*
X121000993Y-82572496D01*
X121024197Y-82566684D01*
X121047858Y-82563174D01*
X121071750Y-82562000D01*
X121559250Y-82562000D01*
X121583142Y-82563174D01*
G37*
G36*
X129360142Y-98819174D02*
G01*
X129383803Y-98822684D01*
X129407007Y-98828496D01*
X129429529Y-98836554D01*
X129451153Y-98846782D01*
X129471670Y-98859079D01*
X129490883Y-98873329D01*
X129508607Y-98889393D01*
X129524671Y-98907117D01*
X129538921Y-98926330D01*
X129551218Y-98946847D01*
X129561446Y-98968471D01*
X129569504Y-98990993D01*
X129575316Y-99014197D01*
X129578826Y-99037858D01*
X129580000Y-99061750D01*
X129580000Y-99974250D01*
X129578826Y-99998142D01*
X129575316Y-100021803D01*
X129569504Y-100045007D01*
X129561446Y-100067529D01*
X129551218Y-100089153D01*
X129538921Y-100109670D01*
X129524671Y-100128883D01*
X129508607Y-100146607D01*
X129490883Y-100162671D01*
X129471670Y-100176921D01*
X129451153Y-100189218D01*
X129429529Y-100199446D01*
X129407007Y-100207504D01*
X129383803Y-100213316D01*
X129360142Y-100216826D01*
X129336250Y-100218000D01*
X128848750Y-100218000D01*
X128824858Y-100216826D01*
X128801197Y-100213316D01*
X128777993Y-100207504D01*
X128755471Y-100199446D01*
X128733847Y-100189218D01*
X128713330Y-100176921D01*
X128694117Y-100162671D01*
X128676393Y-100146607D01*
X128660329Y-100128883D01*
X128646079Y-100109670D01*
X128633782Y-100089153D01*
X128623554Y-100067529D01*
X128615496Y-100045007D01*
X128609684Y-100021803D01*
X128606174Y-99998142D01*
X128605000Y-99974250D01*
X128605000Y-99061750D01*
X128606174Y-99037858D01*
X128609684Y-99014197D01*
X128615496Y-98990993D01*
X128623554Y-98968471D01*
X128633782Y-98946847D01*
X128646079Y-98926330D01*
X128660329Y-98907117D01*
X128676393Y-98889393D01*
X128694117Y-98873329D01*
X128713330Y-98859079D01*
X128733847Y-98846782D01*
X128755471Y-98836554D01*
X128777993Y-98828496D01*
X128801197Y-98822684D01*
X128824858Y-98819174D01*
X128848750Y-98818000D01*
X129336250Y-98818000D01*
X129360142Y-98819174D01*
G37*
G36*
X131235142Y-98819174D02*
G01*
X131258803Y-98822684D01*
X131282007Y-98828496D01*
X131304529Y-98836554D01*
X131326153Y-98846782D01*
X131346670Y-98859079D01*
X131365883Y-98873329D01*
X131383607Y-98889393D01*
X131399671Y-98907117D01*
X131413921Y-98926330D01*
X131426218Y-98946847D01*
X131436446Y-98968471D01*
X131444504Y-98990993D01*
X131450316Y-99014197D01*
X131453826Y-99037858D01*
X131455000Y-99061750D01*
X131455000Y-99974250D01*
X131453826Y-99998142D01*
X131450316Y-100021803D01*
X131444504Y-100045007D01*
X131436446Y-100067529D01*
X131426218Y-100089153D01*
X131413921Y-100109670D01*
X131399671Y-100128883D01*
X131383607Y-100146607D01*
X131365883Y-100162671D01*
X131346670Y-100176921D01*
X131326153Y-100189218D01*
X131304529Y-100199446D01*
X131282007Y-100207504D01*
X131258803Y-100213316D01*
X131235142Y-100216826D01*
X131211250Y-100218000D01*
X130723750Y-100218000D01*
X130699858Y-100216826D01*
X130676197Y-100213316D01*
X130652993Y-100207504D01*
X130630471Y-100199446D01*
X130608847Y-100189218D01*
X130588330Y-100176921D01*
X130569117Y-100162671D01*
X130551393Y-100146607D01*
X130535329Y-100128883D01*
X130521079Y-100109670D01*
X130508782Y-100089153D01*
X130498554Y-100067529D01*
X130490496Y-100045007D01*
X130484684Y-100021803D01*
X130481174Y-99998142D01*
X130480000Y-99974250D01*
X130480000Y-99061750D01*
X130481174Y-99037858D01*
X130484684Y-99014197D01*
X130490496Y-98990993D01*
X130498554Y-98968471D01*
X130508782Y-98946847D01*
X130521079Y-98926330D01*
X130535329Y-98907117D01*
X130551393Y-98889393D01*
X130569117Y-98873329D01*
X130588330Y-98859079D01*
X130608847Y-98846782D01*
X130630471Y-98836554D01*
X130652993Y-98828496D01*
X130676197Y-98822684D01*
X130699858Y-98819174D01*
X130723750Y-98818000D01*
X131211250Y-98818000D01*
X131235142Y-98819174D01*
G37*
G36*
X119780703Y-44760722D02*
G01*
X119795264Y-44762882D01*
X119809543Y-44766459D01*
X119823403Y-44771418D01*
X119836710Y-44777712D01*
X119849336Y-44785280D01*
X119861159Y-44794048D01*
X119872066Y-44803934D01*
X119881952Y-44814841D01*
X119890720Y-44826664D01*
X119898288Y-44839290D01*
X119904582Y-44852597D01*
X119909541Y-44866457D01*
X119913118Y-44880736D01*
X119915278Y-44895297D01*
X119916000Y-44910000D01*
X119916000Y-46560000D01*
X119915278Y-46574703D01*
X119913118Y-46589264D01*
X119909541Y-46603543D01*
X119904582Y-46617403D01*
X119898288Y-46630710D01*
X119890720Y-46643336D01*
X119881952Y-46655159D01*
X119872066Y-46666066D01*
X119861159Y-46675952D01*
X119849336Y-46684720D01*
X119836710Y-46692288D01*
X119823403Y-46698582D01*
X119809543Y-46703541D01*
X119795264Y-46707118D01*
X119780703Y-46709278D01*
X119766000Y-46710000D01*
X119466000Y-46710000D01*
X119451297Y-46709278D01*
X119436736Y-46707118D01*
X119422457Y-46703541D01*
X119408597Y-46698582D01*
X119395290Y-46692288D01*
X119382664Y-46684720D01*
X119370841Y-46675952D01*
X119359934Y-46666066D01*
X119350048Y-46655159D01*
X119341280Y-46643336D01*
X119333712Y-46630710D01*
X119327418Y-46617403D01*
X119322459Y-46603543D01*
X119318882Y-46589264D01*
X119316722Y-46574703D01*
X119316000Y-46560000D01*
X119316000Y-44910000D01*
X119316722Y-44895297D01*
X119318882Y-44880736D01*
X119322459Y-44866457D01*
X119327418Y-44852597D01*
X119333712Y-44839290D01*
X119341280Y-44826664D01*
X119350048Y-44814841D01*
X119359934Y-44803934D01*
X119370841Y-44794048D01*
X119382664Y-44785280D01*
X119395290Y-44777712D01*
X119408597Y-44771418D01*
X119422457Y-44766459D01*
X119436736Y-44762882D01*
X119451297Y-44760722D01*
X119466000Y-44760000D01*
X119766000Y-44760000D01*
X119780703Y-44760722D01*
G37*
G36*
X121050703Y-44760722D02*
G01*
X121065264Y-44762882D01*
X121079543Y-44766459D01*
X121093403Y-44771418D01*
X121106710Y-44777712D01*
X121119336Y-44785280D01*
X121131159Y-44794048D01*
X121142066Y-44803934D01*
X121151952Y-44814841D01*
X121160720Y-44826664D01*
X121168288Y-44839290D01*
X121174582Y-44852597D01*
X121179541Y-44866457D01*
X121183118Y-44880736D01*
X121185278Y-44895297D01*
X121186000Y-44910000D01*
X121186000Y-46560000D01*
X121185278Y-46574703D01*
X121183118Y-46589264D01*
X121179541Y-46603543D01*
X121174582Y-46617403D01*
X121168288Y-46630710D01*
X121160720Y-46643336D01*
X121151952Y-46655159D01*
X121142066Y-46666066D01*
X121131159Y-46675952D01*
X121119336Y-46684720D01*
X121106710Y-46692288D01*
X121093403Y-46698582D01*
X121079543Y-46703541D01*
X121065264Y-46707118D01*
X121050703Y-46709278D01*
X121036000Y-46710000D01*
X120736000Y-46710000D01*
X120721297Y-46709278D01*
X120706736Y-46707118D01*
X120692457Y-46703541D01*
X120678597Y-46698582D01*
X120665290Y-46692288D01*
X120652664Y-46684720D01*
X120640841Y-46675952D01*
X120629934Y-46666066D01*
X120620048Y-46655159D01*
X120611280Y-46643336D01*
X120603712Y-46630710D01*
X120597418Y-46617403D01*
X120592459Y-46603543D01*
X120588882Y-46589264D01*
X120586722Y-46574703D01*
X120586000Y-46560000D01*
X120586000Y-44910000D01*
X120586722Y-44895297D01*
X120588882Y-44880736D01*
X120592459Y-44866457D01*
X120597418Y-44852597D01*
X120603712Y-44839290D01*
X120611280Y-44826664D01*
X120620048Y-44814841D01*
X120629934Y-44803934D01*
X120640841Y-44794048D01*
X120652664Y-44785280D01*
X120665290Y-44777712D01*
X120678597Y-44771418D01*
X120692457Y-44766459D01*
X120706736Y-44762882D01*
X120721297Y-44760722D01*
X120736000Y-44760000D01*
X121036000Y-44760000D01*
X121050703Y-44760722D01*
G37*
G36*
X122320703Y-44760722D02*
G01*
X122335264Y-44762882D01*
X122349543Y-44766459D01*
X122363403Y-44771418D01*
X122376710Y-44777712D01*
X122389336Y-44785280D01*
X122401159Y-44794048D01*
X122412066Y-44803934D01*
X122421952Y-44814841D01*
X122430720Y-44826664D01*
X122438288Y-44839290D01*
X122444582Y-44852597D01*
X122449541Y-44866457D01*
X122453118Y-44880736D01*
X122455278Y-44895297D01*
X122456000Y-44910000D01*
X122456000Y-46560000D01*
X122455278Y-46574703D01*
X122453118Y-46589264D01*
X122449541Y-46603543D01*
X122444582Y-46617403D01*
X122438288Y-46630710D01*
X122430720Y-46643336D01*
X122421952Y-46655159D01*
X122412066Y-46666066D01*
X122401159Y-46675952D01*
X122389336Y-46684720D01*
X122376710Y-46692288D01*
X122363403Y-46698582D01*
X122349543Y-46703541D01*
X122335264Y-46707118D01*
X122320703Y-46709278D01*
X122306000Y-46710000D01*
X122006000Y-46710000D01*
X121991297Y-46709278D01*
X121976736Y-46707118D01*
X121962457Y-46703541D01*
X121948597Y-46698582D01*
X121935290Y-46692288D01*
X121922664Y-46684720D01*
X121910841Y-46675952D01*
X121899934Y-46666066D01*
X121890048Y-46655159D01*
X121881280Y-46643336D01*
X121873712Y-46630710D01*
X121867418Y-46617403D01*
X121862459Y-46603543D01*
X121858882Y-46589264D01*
X121856722Y-46574703D01*
X121856000Y-46560000D01*
X121856000Y-44910000D01*
X121856722Y-44895297D01*
X121858882Y-44880736D01*
X121862459Y-44866457D01*
X121867418Y-44852597D01*
X121873712Y-44839290D01*
X121881280Y-44826664D01*
X121890048Y-44814841D01*
X121899934Y-44803934D01*
X121910841Y-44794048D01*
X121922664Y-44785280D01*
X121935290Y-44777712D01*
X121948597Y-44771418D01*
X121962457Y-44766459D01*
X121976736Y-44762882D01*
X121991297Y-44760722D01*
X122006000Y-44760000D01*
X122306000Y-44760000D01*
X122320703Y-44760722D01*
G37*
G36*
X123590703Y-44760722D02*
G01*
X123605264Y-44762882D01*
X123619543Y-44766459D01*
X123633403Y-44771418D01*
X123646710Y-44777712D01*
X123659336Y-44785280D01*
X123671159Y-44794048D01*
X123682066Y-44803934D01*
X123691952Y-44814841D01*
X123700720Y-44826664D01*
X123708288Y-44839290D01*
X123714582Y-44852597D01*
X123719541Y-44866457D01*
X123723118Y-44880736D01*
X123725278Y-44895297D01*
X123726000Y-44910000D01*
X123726000Y-46560000D01*
X123725278Y-46574703D01*
X123723118Y-46589264D01*
X123719541Y-46603543D01*
X123714582Y-46617403D01*
X123708288Y-46630710D01*
X123700720Y-46643336D01*
X123691952Y-46655159D01*
X123682066Y-46666066D01*
X123671159Y-46675952D01*
X123659336Y-46684720D01*
X123646710Y-46692288D01*
X123633403Y-46698582D01*
X123619543Y-46703541D01*
X123605264Y-46707118D01*
X123590703Y-46709278D01*
X123576000Y-46710000D01*
X123276000Y-46710000D01*
X123261297Y-46709278D01*
X123246736Y-46707118D01*
X123232457Y-46703541D01*
X123218597Y-46698582D01*
X123205290Y-46692288D01*
X123192664Y-46684720D01*
X123180841Y-46675952D01*
X123169934Y-46666066D01*
X123160048Y-46655159D01*
X123151280Y-46643336D01*
X123143712Y-46630710D01*
X123137418Y-46617403D01*
X123132459Y-46603543D01*
X123128882Y-46589264D01*
X123126722Y-46574703D01*
X123126000Y-46560000D01*
X123126000Y-44910000D01*
X123126722Y-44895297D01*
X123128882Y-44880736D01*
X123132459Y-44866457D01*
X123137418Y-44852597D01*
X123143712Y-44839290D01*
X123151280Y-44826664D01*
X123160048Y-44814841D01*
X123169934Y-44803934D01*
X123180841Y-44794048D01*
X123192664Y-44785280D01*
X123205290Y-44777712D01*
X123218597Y-44771418D01*
X123232457Y-44766459D01*
X123246736Y-44762882D01*
X123261297Y-44760722D01*
X123276000Y-44760000D01*
X123576000Y-44760000D01*
X123590703Y-44760722D01*
G37*
G36*
X124860703Y-44760722D02*
G01*
X124875264Y-44762882D01*
X124889543Y-44766459D01*
X124903403Y-44771418D01*
X124916710Y-44777712D01*
X124929336Y-44785280D01*
X124941159Y-44794048D01*
X124952066Y-44803934D01*
X124961952Y-44814841D01*
X124970720Y-44826664D01*
X124978288Y-44839290D01*
X124984582Y-44852597D01*
X124989541Y-44866457D01*
X124993118Y-44880736D01*
X124995278Y-44895297D01*
X124996000Y-44910000D01*
X124996000Y-46560000D01*
X124995278Y-46574703D01*
X124993118Y-46589264D01*
X124989541Y-46603543D01*
X124984582Y-46617403D01*
X124978288Y-46630710D01*
X124970720Y-46643336D01*
X124961952Y-46655159D01*
X124952066Y-46666066D01*
X124941159Y-46675952D01*
X124929336Y-46684720D01*
X124916710Y-46692288D01*
X124903403Y-46698582D01*
X124889543Y-46703541D01*
X124875264Y-46707118D01*
X124860703Y-46709278D01*
X124846000Y-46710000D01*
X124546000Y-46710000D01*
X124531297Y-46709278D01*
X124516736Y-46707118D01*
X124502457Y-46703541D01*
X124488597Y-46698582D01*
X124475290Y-46692288D01*
X124462664Y-46684720D01*
X124450841Y-46675952D01*
X124439934Y-46666066D01*
X124430048Y-46655159D01*
X124421280Y-46643336D01*
X124413712Y-46630710D01*
X124407418Y-46617403D01*
X124402459Y-46603543D01*
X124398882Y-46589264D01*
X124396722Y-46574703D01*
X124396000Y-46560000D01*
X124396000Y-44910000D01*
X124396722Y-44895297D01*
X124398882Y-44880736D01*
X124402459Y-44866457D01*
X124407418Y-44852597D01*
X124413712Y-44839290D01*
X124421280Y-44826664D01*
X124430048Y-44814841D01*
X124439934Y-44803934D01*
X124450841Y-44794048D01*
X124462664Y-44785280D01*
X124475290Y-44777712D01*
X124488597Y-44771418D01*
X124502457Y-44766459D01*
X124516736Y-44762882D01*
X124531297Y-44760722D01*
X124546000Y-44760000D01*
X124846000Y-44760000D01*
X124860703Y-44760722D01*
G37*
G36*
X126130703Y-44760722D02*
G01*
X126145264Y-44762882D01*
X126159543Y-44766459D01*
X126173403Y-44771418D01*
X126186710Y-44777712D01*
X126199336Y-44785280D01*
X126211159Y-44794048D01*
X126222066Y-44803934D01*
X126231952Y-44814841D01*
X126240720Y-44826664D01*
X126248288Y-44839290D01*
X126254582Y-44852597D01*
X126259541Y-44866457D01*
X126263118Y-44880736D01*
X126265278Y-44895297D01*
X126266000Y-44910000D01*
X126266000Y-46560000D01*
X126265278Y-46574703D01*
X126263118Y-46589264D01*
X126259541Y-46603543D01*
X126254582Y-46617403D01*
X126248288Y-46630710D01*
X126240720Y-46643336D01*
X126231952Y-46655159D01*
X126222066Y-46666066D01*
X126211159Y-46675952D01*
X126199336Y-46684720D01*
X126186710Y-46692288D01*
X126173403Y-46698582D01*
X126159543Y-46703541D01*
X126145264Y-46707118D01*
X126130703Y-46709278D01*
X126116000Y-46710000D01*
X125816000Y-46710000D01*
X125801297Y-46709278D01*
X125786736Y-46707118D01*
X125772457Y-46703541D01*
X125758597Y-46698582D01*
X125745290Y-46692288D01*
X125732664Y-46684720D01*
X125720841Y-46675952D01*
X125709934Y-46666066D01*
X125700048Y-46655159D01*
X125691280Y-46643336D01*
X125683712Y-46630710D01*
X125677418Y-46617403D01*
X125672459Y-46603543D01*
X125668882Y-46589264D01*
X125666722Y-46574703D01*
X125666000Y-46560000D01*
X125666000Y-44910000D01*
X125666722Y-44895297D01*
X125668882Y-44880736D01*
X125672459Y-44866457D01*
X125677418Y-44852597D01*
X125683712Y-44839290D01*
X125691280Y-44826664D01*
X125700048Y-44814841D01*
X125709934Y-44803934D01*
X125720841Y-44794048D01*
X125732664Y-44785280D01*
X125745290Y-44777712D01*
X125758597Y-44771418D01*
X125772457Y-44766459D01*
X125786736Y-44762882D01*
X125801297Y-44760722D01*
X125816000Y-44760000D01*
X126116000Y-44760000D01*
X126130703Y-44760722D01*
G37*
G36*
X127400703Y-44760722D02*
G01*
X127415264Y-44762882D01*
X127429543Y-44766459D01*
X127443403Y-44771418D01*
X127456710Y-44777712D01*
X127469336Y-44785280D01*
X127481159Y-44794048D01*
X127492066Y-44803934D01*
X127501952Y-44814841D01*
X127510720Y-44826664D01*
X127518288Y-44839290D01*
X127524582Y-44852597D01*
X127529541Y-44866457D01*
X127533118Y-44880736D01*
X127535278Y-44895297D01*
X127536000Y-44910000D01*
X127536000Y-46560000D01*
X127535278Y-46574703D01*
X127533118Y-46589264D01*
X127529541Y-46603543D01*
X127524582Y-46617403D01*
X127518288Y-46630710D01*
X127510720Y-46643336D01*
X127501952Y-46655159D01*
X127492066Y-46666066D01*
X127481159Y-46675952D01*
X127469336Y-46684720D01*
X127456710Y-46692288D01*
X127443403Y-46698582D01*
X127429543Y-46703541D01*
X127415264Y-46707118D01*
X127400703Y-46709278D01*
X127386000Y-46710000D01*
X127086000Y-46710000D01*
X127071297Y-46709278D01*
X127056736Y-46707118D01*
X127042457Y-46703541D01*
X127028597Y-46698582D01*
X127015290Y-46692288D01*
X127002664Y-46684720D01*
X126990841Y-46675952D01*
X126979934Y-46666066D01*
X126970048Y-46655159D01*
X126961280Y-46643336D01*
X126953712Y-46630710D01*
X126947418Y-46617403D01*
X126942459Y-46603543D01*
X126938882Y-46589264D01*
X126936722Y-46574703D01*
X126936000Y-46560000D01*
X126936000Y-44910000D01*
X126936722Y-44895297D01*
X126938882Y-44880736D01*
X126942459Y-44866457D01*
X126947418Y-44852597D01*
X126953712Y-44839290D01*
X126961280Y-44826664D01*
X126970048Y-44814841D01*
X126979934Y-44803934D01*
X126990841Y-44794048D01*
X127002664Y-44785280D01*
X127015290Y-44777712D01*
X127028597Y-44771418D01*
X127042457Y-44766459D01*
X127056736Y-44762882D01*
X127071297Y-44760722D01*
X127086000Y-44760000D01*
X127386000Y-44760000D01*
X127400703Y-44760722D01*
G37*
G36*
X127400703Y-49710722D02*
G01*
X127415264Y-49712882D01*
X127429543Y-49716459D01*
X127443403Y-49721418D01*
X127456710Y-49727712D01*
X127469336Y-49735280D01*
X127481159Y-49744048D01*
X127492066Y-49753934D01*
X127501952Y-49764841D01*
X127510720Y-49776664D01*
X127518288Y-49789290D01*
X127524582Y-49802597D01*
X127529541Y-49816457D01*
X127533118Y-49830736D01*
X127535278Y-49845297D01*
X127536000Y-49860000D01*
X127536000Y-51510000D01*
X127535278Y-51524703D01*
X127533118Y-51539264D01*
X127529541Y-51553543D01*
X127524582Y-51567403D01*
X127518288Y-51580710D01*
X127510720Y-51593336D01*
X127501952Y-51605159D01*
X127492066Y-51616066D01*
X127481159Y-51625952D01*
X127469336Y-51634720D01*
X127456710Y-51642288D01*
X127443403Y-51648582D01*
X127429543Y-51653541D01*
X127415264Y-51657118D01*
X127400703Y-51659278D01*
X127386000Y-51660000D01*
X127086000Y-51660000D01*
X127071297Y-51659278D01*
X127056736Y-51657118D01*
X127042457Y-51653541D01*
X127028597Y-51648582D01*
X127015290Y-51642288D01*
X127002664Y-51634720D01*
X126990841Y-51625952D01*
X126979934Y-51616066D01*
X126970048Y-51605159D01*
X126961280Y-51593336D01*
X126953712Y-51580710D01*
X126947418Y-51567403D01*
X126942459Y-51553543D01*
X126938882Y-51539264D01*
X126936722Y-51524703D01*
X126936000Y-51510000D01*
X126936000Y-49860000D01*
X126936722Y-49845297D01*
X126938882Y-49830736D01*
X126942459Y-49816457D01*
X126947418Y-49802597D01*
X126953712Y-49789290D01*
X126961280Y-49776664D01*
X126970048Y-49764841D01*
X126979934Y-49753934D01*
X126990841Y-49744048D01*
X127002664Y-49735280D01*
X127015290Y-49727712D01*
X127028597Y-49721418D01*
X127042457Y-49716459D01*
X127056736Y-49712882D01*
X127071297Y-49710722D01*
X127086000Y-49710000D01*
X127386000Y-49710000D01*
X127400703Y-49710722D01*
G37*
G36*
X126130703Y-49710722D02*
G01*
X126145264Y-49712882D01*
X126159543Y-49716459D01*
X126173403Y-49721418D01*
X126186710Y-49727712D01*
X126199336Y-49735280D01*
X126211159Y-49744048D01*
X126222066Y-49753934D01*
X126231952Y-49764841D01*
X126240720Y-49776664D01*
X126248288Y-49789290D01*
X126254582Y-49802597D01*
X126259541Y-49816457D01*
X126263118Y-49830736D01*
X126265278Y-49845297D01*
X126266000Y-49860000D01*
X126266000Y-51510000D01*
X126265278Y-51524703D01*
X126263118Y-51539264D01*
X126259541Y-51553543D01*
X126254582Y-51567403D01*
X126248288Y-51580710D01*
X126240720Y-51593336D01*
X126231952Y-51605159D01*
X126222066Y-51616066D01*
X126211159Y-51625952D01*
X126199336Y-51634720D01*
X126186710Y-51642288D01*
X126173403Y-51648582D01*
X126159543Y-51653541D01*
X126145264Y-51657118D01*
X126130703Y-51659278D01*
X126116000Y-51660000D01*
X125816000Y-51660000D01*
X125801297Y-51659278D01*
X125786736Y-51657118D01*
X125772457Y-51653541D01*
X125758597Y-51648582D01*
X125745290Y-51642288D01*
X125732664Y-51634720D01*
X125720841Y-51625952D01*
X125709934Y-51616066D01*
X125700048Y-51605159D01*
X125691280Y-51593336D01*
X125683712Y-51580710D01*
X125677418Y-51567403D01*
X125672459Y-51553543D01*
X125668882Y-51539264D01*
X125666722Y-51524703D01*
X125666000Y-51510000D01*
X125666000Y-49860000D01*
X125666722Y-49845297D01*
X125668882Y-49830736D01*
X125672459Y-49816457D01*
X125677418Y-49802597D01*
X125683712Y-49789290D01*
X125691280Y-49776664D01*
X125700048Y-49764841D01*
X125709934Y-49753934D01*
X125720841Y-49744048D01*
X125732664Y-49735280D01*
X125745290Y-49727712D01*
X125758597Y-49721418D01*
X125772457Y-49716459D01*
X125786736Y-49712882D01*
X125801297Y-49710722D01*
X125816000Y-49710000D01*
X126116000Y-49710000D01*
X126130703Y-49710722D01*
G37*
G36*
X124860703Y-49710722D02*
G01*
X124875264Y-49712882D01*
X124889543Y-49716459D01*
X124903403Y-49721418D01*
X124916710Y-49727712D01*
X124929336Y-49735280D01*
X124941159Y-49744048D01*
X124952066Y-49753934D01*
X124961952Y-49764841D01*
X124970720Y-49776664D01*
X124978288Y-49789290D01*
X124984582Y-49802597D01*
X124989541Y-49816457D01*
X124993118Y-49830736D01*
X124995278Y-49845297D01*
X124996000Y-49860000D01*
X124996000Y-51510000D01*
X124995278Y-51524703D01*
X124993118Y-51539264D01*
X124989541Y-51553543D01*
X124984582Y-51567403D01*
X124978288Y-51580710D01*
X124970720Y-51593336D01*
X124961952Y-51605159D01*
X124952066Y-51616066D01*
X124941159Y-51625952D01*
X124929336Y-51634720D01*
X124916710Y-51642288D01*
X124903403Y-51648582D01*
X124889543Y-51653541D01*
X124875264Y-51657118D01*
X124860703Y-51659278D01*
X124846000Y-51660000D01*
X124546000Y-51660000D01*
X124531297Y-51659278D01*
X124516736Y-51657118D01*
X124502457Y-51653541D01*
X124488597Y-51648582D01*
X124475290Y-51642288D01*
X124462664Y-51634720D01*
X124450841Y-51625952D01*
X124439934Y-51616066D01*
X124430048Y-51605159D01*
X124421280Y-51593336D01*
X124413712Y-51580710D01*
X124407418Y-51567403D01*
X124402459Y-51553543D01*
X124398882Y-51539264D01*
X124396722Y-51524703D01*
X124396000Y-51510000D01*
X124396000Y-49860000D01*
X124396722Y-49845297D01*
X124398882Y-49830736D01*
X124402459Y-49816457D01*
X124407418Y-49802597D01*
X124413712Y-49789290D01*
X124421280Y-49776664D01*
X124430048Y-49764841D01*
X124439934Y-49753934D01*
X124450841Y-49744048D01*
X124462664Y-49735280D01*
X124475290Y-49727712D01*
X124488597Y-49721418D01*
X124502457Y-49716459D01*
X124516736Y-49712882D01*
X124531297Y-49710722D01*
X124546000Y-49710000D01*
X124846000Y-49710000D01*
X124860703Y-49710722D01*
G37*
G36*
X123590703Y-49710722D02*
G01*
X123605264Y-49712882D01*
X123619543Y-49716459D01*
X123633403Y-49721418D01*
X123646710Y-49727712D01*
X123659336Y-49735280D01*
X123671159Y-49744048D01*
X123682066Y-49753934D01*
X123691952Y-49764841D01*
X123700720Y-49776664D01*
X123708288Y-49789290D01*
X123714582Y-49802597D01*
X123719541Y-49816457D01*
X123723118Y-49830736D01*
X123725278Y-49845297D01*
X123726000Y-49860000D01*
X123726000Y-51510000D01*
X123725278Y-51524703D01*
X123723118Y-51539264D01*
X123719541Y-51553543D01*
X123714582Y-51567403D01*
X123708288Y-51580710D01*
X123700720Y-51593336D01*
X123691952Y-51605159D01*
X123682066Y-51616066D01*
X123671159Y-51625952D01*
X123659336Y-51634720D01*
X123646710Y-51642288D01*
X123633403Y-51648582D01*
X123619543Y-51653541D01*
X123605264Y-51657118D01*
X123590703Y-51659278D01*
X123576000Y-51660000D01*
X123276000Y-51660000D01*
X123261297Y-51659278D01*
X123246736Y-51657118D01*
X123232457Y-51653541D01*
X123218597Y-51648582D01*
X123205290Y-51642288D01*
X123192664Y-51634720D01*
X123180841Y-51625952D01*
X123169934Y-51616066D01*
X123160048Y-51605159D01*
X123151280Y-51593336D01*
X123143712Y-51580710D01*
X123137418Y-51567403D01*
X123132459Y-51553543D01*
X123128882Y-51539264D01*
X123126722Y-51524703D01*
X123126000Y-51510000D01*
X123126000Y-49860000D01*
X123126722Y-49845297D01*
X123128882Y-49830736D01*
X123132459Y-49816457D01*
X123137418Y-49802597D01*
X123143712Y-49789290D01*
X123151280Y-49776664D01*
X123160048Y-49764841D01*
X123169934Y-49753934D01*
X123180841Y-49744048D01*
X123192664Y-49735280D01*
X123205290Y-49727712D01*
X123218597Y-49721418D01*
X123232457Y-49716459D01*
X123246736Y-49712882D01*
X123261297Y-49710722D01*
X123276000Y-49710000D01*
X123576000Y-49710000D01*
X123590703Y-49710722D01*
G37*
G36*
X122320703Y-49710722D02*
G01*
X122335264Y-49712882D01*
X122349543Y-49716459D01*
X122363403Y-49721418D01*
X122376710Y-49727712D01*
X122389336Y-49735280D01*
X122401159Y-49744048D01*
X122412066Y-49753934D01*
X122421952Y-49764841D01*
X122430720Y-49776664D01*
X122438288Y-49789290D01*
X122444582Y-49802597D01*
X122449541Y-49816457D01*
X122453118Y-49830736D01*
X122455278Y-49845297D01*
X122456000Y-49860000D01*
X122456000Y-51510000D01*
X122455278Y-51524703D01*
X122453118Y-51539264D01*
X122449541Y-51553543D01*
X122444582Y-51567403D01*
X122438288Y-51580710D01*
X122430720Y-51593336D01*
X122421952Y-51605159D01*
X122412066Y-51616066D01*
X122401159Y-51625952D01*
X122389336Y-51634720D01*
X122376710Y-51642288D01*
X122363403Y-51648582D01*
X122349543Y-51653541D01*
X122335264Y-51657118D01*
X122320703Y-51659278D01*
X122306000Y-51660000D01*
X122006000Y-51660000D01*
X121991297Y-51659278D01*
X121976736Y-51657118D01*
X121962457Y-51653541D01*
X121948597Y-51648582D01*
X121935290Y-51642288D01*
X121922664Y-51634720D01*
X121910841Y-51625952D01*
X121899934Y-51616066D01*
X121890048Y-51605159D01*
X121881280Y-51593336D01*
X121873712Y-51580710D01*
X121867418Y-51567403D01*
X121862459Y-51553543D01*
X121858882Y-51539264D01*
X121856722Y-51524703D01*
X121856000Y-51510000D01*
X121856000Y-49860000D01*
X121856722Y-49845297D01*
X121858882Y-49830736D01*
X121862459Y-49816457D01*
X121867418Y-49802597D01*
X121873712Y-49789290D01*
X121881280Y-49776664D01*
X121890048Y-49764841D01*
X121899934Y-49753934D01*
X121910841Y-49744048D01*
X121922664Y-49735280D01*
X121935290Y-49727712D01*
X121948597Y-49721418D01*
X121962457Y-49716459D01*
X121976736Y-49712882D01*
X121991297Y-49710722D01*
X122006000Y-49710000D01*
X122306000Y-49710000D01*
X122320703Y-49710722D01*
G37*
G36*
X121050703Y-49710722D02*
G01*
X121065264Y-49712882D01*
X121079543Y-49716459D01*
X121093403Y-49721418D01*
X121106710Y-49727712D01*
X121119336Y-49735280D01*
X121131159Y-49744048D01*
X121142066Y-49753934D01*
X121151952Y-49764841D01*
X121160720Y-49776664D01*
X121168288Y-49789290D01*
X121174582Y-49802597D01*
X121179541Y-49816457D01*
X121183118Y-49830736D01*
X121185278Y-49845297D01*
X121186000Y-49860000D01*
X121186000Y-51510000D01*
X121185278Y-51524703D01*
X121183118Y-51539264D01*
X121179541Y-51553543D01*
X121174582Y-51567403D01*
X121168288Y-51580710D01*
X121160720Y-51593336D01*
X121151952Y-51605159D01*
X121142066Y-51616066D01*
X121131159Y-51625952D01*
X121119336Y-51634720D01*
X121106710Y-51642288D01*
X121093403Y-51648582D01*
X121079543Y-51653541D01*
X121065264Y-51657118D01*
X121050703Y-51659278D01*
X121036000Y-51660000D01*
X120736000Y-51660000D01*
X120721297Y-51659278D01*
X120706736Y-51657118D01*
X120692457Y-51653541D01*
X120678597Y-51648582D01*
X120665290Y-51642288D01*
X120652664Y-51634720D01*
X120640841Y-51625952D01*
X120629934Y-51616066D01*
X120620048Y-51605159D01*
X120611280Y-51593336D01*
X120603712Y-51580710D01*
X120597418Y-51567403D01*
X120592459Y-51553543D01*
X120588882Y-51539264D01*
X120586722Y-51524703D01*
X120586000Y-51510000D01*
X120586000Y-49860000D01*
X120586722Y-49845297D01*
X120588882Y-49830736D01*
X120592459Y-49816457D01*
X120597418Y-49802597D01*
X120603712Y-49789290D01*
X120611280Y-49776664D01*
X120620048Y-49764841D01*
X120629934Y-49753934D01*
X120640841Y-49744048D01*
X120652664Y-49735280D01*
X120665290Y-49727712D01*
X120678597Y-49721418D01*
X120692457Y-49716459D01*
X120706736Y-49712882D01*
X120721297Y-49710722D01*
X120736000Y-49710000D01*
X121036000Y-49710000D01*
X121050703Y-49710722D01*
G37*
G36*
X119780703Y-49710722D02*
G01*
X119795264Y-49712882D01*
X119809543Y-49716459D01*
X119823403Y-49721418D01*
X119836710Y-49727712D01*
X119849336Y-49735280D01*
X119861159Y-49744048D01*
X119872066Y-49753934D01*
X119881952Y-49764841D01*
X119890720Y-49776664D01*
X119898288Y-49789290D01*
X119904582Y-49802597D01*
X119909541Y-49816457D01*
X119913118Y-49830736D01*
X119915278Y-49845297D01*
X119916000Y-49860000D01*
X119916000Y-51510000D01*
X119915278Y-51524703D01*
X119913118Y-51539264D01*
X119909541Y-51553543D01*
X119904582Y-51567403D01*
X119898288Y-51580710D01*
X119890720Y-51593336D01*
X119881952Y-51605159D01*
X119872066Y-51616066D01*
X119861159Y-51625952D01*
X119849336Y-51634720D01*
X119836710Y-51642288D01*
X119823403Y-51648582D01*
X119809543Y-51653541D01*
X119795264Y-51657118D01*
X119780703Y-51659278D01*
X119766000Y-51660000D01*
X119466000Y-51660000D01*
X119451297Y-51659278D01*
X119436736Y-51657118D01*
X119422457Y-51653541D01*
X119408597Y-51648582D01*
X119395290Y-51642288D01*
X119382664Y-51634720D01*
X119370841Y-51625952D01*
X119359934Y-51616066D01*
X119350048Y-51605159D01*
X119341280Y-51593336D01*
X119333712Y-51580710D01*
X119327418Y-51567403D01*
X119322459Y-51553543D01*
X119318882Y-51539264D01*
X119316722Y-51524703D01*
X119316000Y-51510000D01*
X119316000Y-49860000D01*
X119316722Y-49845297D01*
X119318882Y-49830736D01*
X119322459Y-49816457D01*
X119327418Y-49802597D01*
X119333712Y-49789290D01*
X119341280Y-49776664D01*
X119350048Y-49764841D01*
X119359934Y-49753934D01*
X119370841Y-49744048D01*
X119382664Y-49735280D01*
X119395290Y-49727712D01*
X119408597Y-49721418D01*
X119422457Y-49716459D01*
X119436736Y-49712882D01*
X119451297Y-49710722D01*
X119466000Y-49710000D01*
X119766000Y-49710000D01*
X119780703Y-49710722D01*
G37*
G36*
X110056142Y-58687174D02*
G01*
X110079803Y-58690684D01*
X110103007Y-58696496D01*
X110125529Y-58704554D01*
X110147153Y-58714782D01*
X110167670Y-58727079D01*
X110186883Y-58741329D01*
X110204607Y-58757393D01*
X110220671Y-58775117D01*
X110234921Y-58794330D01*
X110247218Y-58814847D01*
X110257446Y-58836471D01*
X110265504Y-58858993D01*
X110271316Y-58882197D01*
X110274826Y-58905858D01*
X110276000Y-58929750D01*
X110276000Y-59842250D01*
X110274826Y-59866142D01*
X110271316Y-59889803D01*
X110265504Y-59913007D01*
X110257446Y-59935529D01*
X110247218Y-59957153D01*
X110234921Y-59977670D01*
X110220671Y-59996883D01*
X110204607Y-60014607D01*
X110186883Y-60030671D01*
X110167670Y-60044921D01*
X110147153Y-60057218D01*
X110125529Y-60067446D01*
X110103007Y-60075504D01*
X110079803Y-60081316D01*
X110056142Y-60084826D01*
X110032250Y-60086000D01*
X109544750Y-60086000D01*
X109520858Y-60084826D01*
X109497197Y-60081316D01*
X109473993Y-60075504D01*
X109451471Y-60067446D01*
X109429847Y-60057218D01*
X109409330Y-60044921D01*
X109390117Y-60030671D01*
X109372393Y-60014607D01*
X109356329Y-59996883D01*
X109342079Y-59977670D01*
X109329782Y-59957153D01*
X109319554Y-59935529D01*
X109311496Y-59913007D01*
X109305684Y-59889803D01*
X109302174Y-59866142D01*
X109301000Y-59842250D01*
X109301000Y-58929750D01*
X109302174Y-58905858D01*
X109305684Y-58882197D01*
X109311496Y-58858993D01*
X109319554Y-58836471D01*
X109329782Y-58814847D01*
X109342079Y-58794330D01*
X109356329Y-58775117D01*
X109372393Y-58757393D01*
X109390117Y-58741329D01*
X109409330Y-58727079D01*
X109429847Y-58714782D01*
X109451471Y-58704554D01*
X109473993Y-58696496D01*
X109497197Y-58690684D01*
X109520858Y-58687174D01*
X109544750Y-58686000D01*
X110032250Y-58686000D01*
X110056142Y-58687174D01*
G37*
G36*
X111931142Y-58687174D02*
G01*
X111954803Y-58690684D01*
X111978007Y-58696496D01*
X112000529Y-58704554D01*
X112022153Y-58714782D01*
X112042670Y-58727079D01*
X112061883Y-58741329D01*
X112079607Y-58757393D01*
X112095671Y-58775117D01*
X112109921Y-58794330D01*
X112122218Y-58814847D01*
X112132446Y-58836471D01*
X112140504Y-58858993D01*
X112146316Y-58882197D01*
X112149826Y-58905858D01*
X112151000Y-58929750D01*
X112151000Y-59842250D01*
X112149826Y-59866142D01*
X112146316Y-59889803D01*
X112140504Y-59913007D01*
X112132446Y-59935529D01*
X112122218Y-59957153D01*
X112109921Y-59977670D01*
X112095671Y-59996883D01*
X112079607Y-60014607D01*
X112061883Y-60030671D01*
X112042670Y-60044921D01*
X112022153Y-60057218D01*
X112000529Y-60067446D01*
X111978007Y-60075504D01*
X111954803Y-60081316D01*
X111931142Y-60084826D01*
X111907250Y-60086000D01*
X111419750Y-60086000D01*
X111395858Y-60084826D01*
X111372197Y-60081316D01*
X111348993Y-60075504D01*
X111326471Y-60067446D01*
X111304847Y-60057218D01*
X111284330Y-60044921D01*
X111265117Y-60030671D01*
X111247393Y-60014607D01*
X111231329Y-59996883D01*
X111217079Y-59977670D01*
X111204782Y-59957153D01*
X111194554Y-59935529D01*
X111186496Y-59913007D01*
X111180684Y-59889803D01*
X111177174Y-59866142D01*
X111176000Y-59842250D01*
X111176000Y-58929750D01*
X111177174Y-58905858D01*
X111180684Y-58882197D01*
X111186496Y-58858993D01*
X111194554Y-58836471D01*
X111204782Y-58814847D01*
X111217079Y-58794330D01*
X111231329Y-58775117D01*
X111247393Y-58757393D01*
X111265117Y-58741329D01*
X111284330Y-58727079D01*
X111304847Y-58714782D01*
X111326471Y-58704554D01*
X111348993Y-58696496D01*
X111372197Y-58690684D01*
X111395858Y-58687174D01*
X111419750Y-58686000D01*
X111907250Y-58686000D01*
X111931142Y-58687174D01*
G37*
D19*
X106728000Y-51242000D03*
X108628000Y-51242000D03*
X107678000Y-49242000D03*
X107678000Y-44162000D03*
X108628000Y-46162000D03*
X106728000Y-46162000D03*
D20*
X126998000Y-103648000D03*
X126998000Y-105548000D03*
X128998000Y-104598000D03*
D21*
X134112000Y-79198000D03*
X130012000Y-79198000D03*
M02*
