G04 #@! TF.GenerationSoftware,KiCad,Pcbnew,(5.1.5-0-10_14)*
G04 #@! TF.CreationDate,2020-01-19T15:53:38+01:00*
G04 #@! TF.ProjectId,PCB-Negative,5043422d-4e65-4676-9174-6976652e6b69,rev?*
G04 #@! TF.SameCoordinates,Original*
G04 #@! TF.FileFunction,Soldermask,Bot*
G04 #@! TF.FilePolarity,Negative*
%FSLAX46Y46*%
G04 Gerber Fmt 4.6, Leading zero omitted, Abs format (unit mm)*
G04 Created by KiCad (PCBNEW (5.1.5-0-10_14)) date 2020-01-19 15:53:38*
%MOMM*%
%LPD*%
G04 APERTURE LIST*
%ADD10C,0.500000*%
G04 APERTURE END LIST*
D10*
X155714285Y-148785714D02*
X155285714Y-148928571D01*
X155142857Y-149071428D01*
X155000000Y-149357142D01*
X155000000Y-149785714D01*
X155142857Y-150071428D01*
X155285714Y-150214285D01*
X155571428Y-150357142D01*
X156714285Y-150357142D01*
X156714285Y-147357142D01*
X155714285Y-147357142D01*
X155428571Y-147500000D01*
X155285714Y-147642857D01*
X155142857Y-147928571D01*
X155142857Y-148214285D01*
X155285714Y-148500000D01*
X155428571Y-148642857D01*
X155714285Y-148785714D01*
X156714285Y-148785714D01*
X153285714Y-150357142D02*
X153571428Y-150214285D01*
X153714285Y-150071428D01*
X153857142Y-149785714D01*
X153857142Y-148928571D01*
X153714285Y-148642857D01*
X153571428Y-148500000D01*
X153285714Y-148357142D01*
X152857142Y-148357142D01*
X152571428Y-148500000D01*
X152428571Y-148642857D01*
X152285714Y-148928571D01*
X152285714Y-149785714D01*
X152428571Y-150071428D01*
X152571428Y-150214285D01*
X152857142Y-150357142D01*
X153285714Y-150357142D01*
X151428571Y-148357142D02*
X150285714Y-148357142D01*
X151000000Y-147357142D02*
X151000000Y-149928571D01*
X150857142Y-150214285D01*
X150571428Y-150357142D01*
X150285714Y-150357142D01*
X149714285Y-148357142D02*
X148571428Y-148357142D01*
X149285714Y-147357142D02*
X149285714Y-149928571D01*
X149142857Y-150214285D01*
X148857142Y-150357142D01*
X148571428Y-150357142D01*
X147142857Y-150357142D02*
X147428571Y-150214285D01*
X147571428Y-150071428D01*
X147714285Y-149785714D01*
X147714285Y-148928571D01*
X147571428Y-148642857D01*
X147428571Y-148500000D01*
X147142857Y-148357142D01*
X146714285Y-148357142D01*
X146428571Y-148500000D01*
X146285714Y-148642857D01*
X146142857Y-148928571D01*
X146142857Y-149785714D01*
X146285714Y-150071428D01*
X146428571Y-150214285D01*
X146714285Y-150357142D01*
X147142857Y-150357142D01*
X144857142Y-150357142D02*
X144857142Y-148357142D01*
X144857142Y-148642857D02*
X144714285Y-148500000D01*
X144428571Y-148357142D01*
X144000000Y-148357142D01*
X143714285Y-148500000D01*
X143571428Y-148785714D01*
X143571428Y-150357142D01*
X143571428Y-148785714D02*
X143428571Y-148500000D01*
X143142857Y-148357142D01*
X142714285Y-148357142D01*
X142428571Y-148500000D01*
X142285714Y-148785714D01*
X142285714Y-150357142D01*
M02*
