G04 #@! TF.GenerationSoftware,KiCad,Pcbnew,(5.1.5-0-10_14)*
G04 #@! TF.CreationDate,2020-01-19T15:53:38+01:00*
G04 #@! TF.ProjectId,PCB-Negative,5043422d-4e65-4676-9174-6976652e6b69,rev?*
G04 #@! TF.SameCoordinates,Original*
G04 #@! TF.FileFunction,Soldermask,Top*
G04 #@! TF.FilePolarity,Negative*
%FSLAX46Y46*%
G04 Gerber Fmt 4.6, Leading zero omitted, Abs format (unit mm)*
G04 Created by KiCad (PCBNEW (5.1.5-0-10_14)) date 2020-01-19 15:53:38*
%MOMM*%
%LPD*%
G04 APERTURE LIST*
%ADD10C,0.600000*%
G04 APERTURE END LIST*
D10*
X82714285Y-145435714D02*
X83714285Y-145435714D01*
X84142857Y-147007142D02*
X82714285Y-147007142D01*
X82714285Y-144007142D01*
X84142857Y-144007142D01*
X85428571Y-147007142D02*
X85428571Y-145007142D01*
X85428571Y-145578571D02*
X85571428Y-145292857D01*
X85714285Y-145150000D01*
X86000000Y-145007142D01*
X86285714Y-145007142D01*
X87285714Y-145007142D02*
X87285714Y-147007142D01*
X87285714Y-145292857D02*
X87428571Y-145150000D01*
X87714285Y-145007142D01*
X88142857Y-145007142D01*
X88428571Y-145150000D01*
X88571428Y-145435714D01*
X88571428Y-147007142D01*
X90428571Y-147007142D02*
X90142857Y-146864285D01*
X90000000Y-146721428D01*
X89857142Y-146435714D01*
X89857142Y-145578571D01*
X90000000Y-145292857D01*
X90142857Y-145150000D01*
X90428571Y-145007142D01*
X90857142Y-145007142D01*
X91142857Y-145150000D01*
X91285714Y-145292857D01*
X91428571Y-145578571D01*
X91428571Y-146435714D01*
X91285714Y-146721428D01*
X91142857Y-146864285D01*
X90857142Y-147007142D01*
X90428571Y-147007142D01*
X59571428Y-151821428D02*
X59428571Y-151964285D01*
X58999999Y-152107142D01*
X58714285Y-152107142D01*
X58285714Y-151964285D01*
X57999999Y-151678571D01*
X57857142Y-151392857D01*
X57714285Y-150821428D01*
X57714285Y-150392857D01*
X57857142Y-149821428D01*
X57999999Y-149535714D01*
X58285714Y-149250000D01*
X58714285Y-149107142D01*
X58999999Y-149107142D01*
X59428571Y-149250000D01*
X59571428Y-149392857D01*
X60857142Y-152107142D02*
X60857142Y-150107142D01*
X60857142Y-150678571D02*
X60999999Y-150392857D01*
X61142857Y-150250000D01*
X61428571Y-150107142D01*
X61714285Y-150107142D01*
X62428571Y-150107142D02*
X63142857Y-152107142D01*
X63857142Y-150107142D02*
X63142857Y-152107142D01*
X62857142Y-152821428D01*
X62714285Y-152964285D01*
X62428571Y-153107142D01*
X64857142Y-151964285D02*
X65142857Y-152107142D01*
X65714285Y-152107142D01*
X65999999Y-151964285D01*
X66142857Y-151678571D01*
X66142857Y-151535714D01*
X65999999Y-151250000D01*
X65714285Y-151107142D01*
X65285714Y-151107142D01*
X64999999Y-150964285D01*
X64857142Y-150678571D01*
X64857142Y-150535714D01*
X64999999Y-150250000D01*
X65285714Y-150107142D01*
X65714285Y-150107142D01*
X65999999Y-150250000D01*
X66999999Y-150107142D02*
X68142857Y-150107142D01*
X67428571Y-149107142D02*
X67428571Y-151678571D01*
X67571428Y-151964285D01*
X67857142Y-152107142D01*
X68142857Y-152107142D01*
X70428571Y-152107142D02*
X70428571Y-150535714D01*
X70285714Y-150250000D01*
X69999999Y-150107142D01*
X69428571Y-150107142D01*
X69142857Y-150250000D01*
X70428571Y-151964285D02*
X70142857Y-152107142D01*
X69428571Y-152107142D01*
X69142857Y-151964285D01*
X68999999Y-151678571D01*
X68999999Y-151392857D01*
X69142857Y-151107142D01*
X69428571Y-150964285D01*
X70142857Y-150964285D01*
X70428571Y-150821428D01*
X72285714Y-152107142D02*
X71999999Y-151964285D01*
X71857142Y-151678571D01*
X71857142Y-149107142D01*
X77428571Y-151821428D02*
X77285714Y-151964285D01*
X76857142Y-152107142D01*
X76571428Y-152107142D01*
X76142857Y-151964285D01*
X75857142Y-151678571D01*
X75714285Y-151392857D01*
X75571428Y-150821428D01*
X75571428Y-150392857D01*
X75714285Y-149821428D01*
X75857142Y-149535714D01*
X76142857Y-149250000D01*
X76571428Y-149107142D01*
X76857142Y-149107142D01*
X77285714Y-149250000D01*
X77428571Y-149392857D01*
X79142857Y-152107142D02*
X78857142Y-151964285D01*
X78714285Y-151821428D01*
X78571428Y-151535714D01*
X78571428Y-150678571D01*
X78714285Y-150392857D01*
X78857142Y-150250000D01*
X79142857Y-150107142D01*
X79571428Y-150107142D01*
X79857142Y-150250000D01*
X80000000Y-150392857D01*
X80142857Y-150678571D01*
X80142857Y-151535714D01*
X80000000Y-151821428D01*
X79857142Y-151964285D01*
X79571428Y-152107142D01*
X79142857Y-152107142D01*
X82714285Y-150107142D02*
X82714285Y-152107142D01*
X81428571Y-150107142D02*
X81428571Y-151678571D01*
X81571428Y-151964285D01*
X81857142Y-152107142D01*
X82285714Y-152107142D01*
X82571428Y-151964285D01*
X82714285Y-151821428D01*
X84142857Y-150107142D02*
X84142857Y-152107142D01*
X84142857Y-150392857D02*
X84285714Y-150250000D01*
X84571428Y-150107142D01*
X84999999Y-150107142D01*
X85285714Y-150250000D01*
X85428571Y-150535714D01*
X85428571Y-152107142D01*
X86428571Y-150107142D02*
X87571428Y-150107142D01*
X86857142Y-149107142D02*
X86857142Y-151678571D01*
X86999999Y-151964285D01*
X87285714Y-152107142D01*
X87571428Y-152107142D01*
X89714285Y-151964285D02*
X89428571Y-152107142D01*
X88857142Y-152107142D01*
X88571428Y-151964285D01*
X88428571Y-151678571D01*
X88428571Y-150535714D01*
X88571428Y-150250000D01*
X88857142Y-150107142D01*
X89428571Y-150107142D01*
X89714285Y-150250000D01*
X89857142Y-150535714D01*
X89857142Y-150821428D01*
X88428571Y-151107142D01*
X91142857Y-152107142D02*
X91142857Y-150107142D01*
X91142857Y-150678571D02*
X91285714Y-150392857D01*
X91428571Y-150250000D01*
X91714285Y-150107142D01*
X91999999Y-150107142D01*
X96999999Y-151821428D02*
X96857142Y-151964285D01*
X96428571Y-152107142D01*
X96142857Y-152107142D01*
X95714285Y-151964285D01*
X95428571Y-151678571D01*
X95285714Y-151392857D01*
X95142857Y-150821428D01*
X95142857Y-150392857D01*
X95285714Y-149821428D01*
X95428571Y-149535714D01*
X95714285Y-149250000D01*
X96142857Y-149107142D01*
X96428571Y-149107142D01*
X96857142Y-149250000D01*
X96999999Y-149392857D01*
X98714285Y-152107142D02*
X98428571Y-151964285D01*
X98285714Y-151821428D01*
X98142857Y-151535714D01*
X98142857Y-150678571D01*
X98285714Y-150392857D01*
X98428571Y-150250000D01*
X98714285Y-150107142D01*
X99142857Y-150107142D01*
X99428571Y-150250000D01*
X99571428Y-150392857D01*
X99714285Y-150678571D01*
X99714285Y-151535714D01*
X99571428Y-151821428D01*
X99428571Y-151964285D01*
X99142857Y-152107142D01*
X98714285Y-152107142D01*
X100999999Y-150107142D02*
X100999999Y-152107142D01*
X100999999Y-150392857D02*
X101142857Y-150250000D01*
X101428571Y-150107142D01*
X101857142Y-150107142D01*
X102142857Y-150250000D01*
X102285714Y-150535714D01*
X102285714Y-152107142D01*
X103285714Y-150107142D02*
X104428571Y-150107142D01*
X103714285Y-149107142D02*
X103714285Y-151678571D01*
X103857142Y-151964285D01*
X104142857Y-152107142D01*
X104428571Y-152107142D01*
X105428571Y-152107142D02*
X105428571Y-150107142D01*
X105428571Y-150678571D02*
X105571428Y-150392857D01*
X105714285Y-150250000D01*
X105999999Y-150107142D01*
X106285714Y-150107142D01*
X107714285Y-152107142D02*
X107428571Y-151964285D01*
X107285714Y-151821428D01*
X107142857Y-151535714D01*
X107142857Y-150678571D01*
X107285714Y-150392857D01*
X107428571Y-150250000D01*
X107714285Y-150107142D01*
X108142857Y-150107142D01*
X108428571Y-150250000D01*
X108571428Y-150392857D01*
X108714285Y-150678571D01*
X108714285Y-151535714D01*
X108571428Y-151821428D01*
X108428571Y-151964285D01*
X108142857Y-152107142D01*
X107714285Y-152107142D01*
X110428571Y-152107142D02*
X110142857Y-151964285D01*
X110000000Y-151678571D01*
X110000000Y-149107142D01*
X112000000Y-152107142D02*
X111714285Y-151964285D01*
X111571428Y-151678571D01*
X111571428Y-149107142D01*
X114285714Y-151964285D02*
X114000000Y-152107142D01*
X113428571Y-152107142D01*
X113142857Y-151964285D01*
X113000000Y-151678571D01*
X113000000Y-150535714D01*
X113142857Y-150250000D01*
X113428571Y-150107142D01*
X114000000Y-150107142D01*
X114285714Y-150250000D01*
X114428571Y-150535714D01*
X114428571Y-150821428D01*
X113000000Y-151107142D01*
X115714285Y-152107142D02*
X115714285Y-150107142D01*
X115714285Y-150678571D02*
X115857142Y-150392857D01*
X116000000Y-150250000D01*
X116285714Y-150107142D01*
X116571428Y-150107142D01*
M02*
