G04 #@! TF.GenerationSoftware,KiCad,Pcbnew,(5.1.5-0-10_14)*
G04 #@! TF.CreationDate,2020-01-18T13:46:22+01:00*
G04 #@! TF.ProjectId,PCB-Negative,5043422d-4e65-4676-9174-6976652e6b69,rev?*
G04 #@! TF.SameCoordinates,Original*
G04 #@! TF.FileFunction,Profile,NP*
%FSLAX46Y46*%
G04 Gerber Fmt 4.6, Leading zero omitted, Abs format (unit mm)*
G04 Created by KiCad (PCBNEW (5.1.5-0-10_14)) date 2020-01-18 13:46:22*
%MOMM*%
%LPD*%
G04 APERTURE LIST*
%ADD10C,0.050000*%
%ADD11C,0.010000*%
G04 APERTURE END LIST*
D10*
X214043947Y-100631391D02*
G75*
G02X215500000Y-101000000I656053J-468609D01*
G01*
X226200000Y-55000000D02*
G75*
G02X225200000Y-54000000I0J1000000D01*
G01*
X196700000Y-49700000D02*
G75*
G02X195700000Y-50700000I-1000000J0D01*
G01*
X103000000Y-50700000D02*
G75*
G02X102000000Y-49700000I0J1000000D01*
G01*
D11*
X240700000Y-88100000D02*
G75*
G03X240700000Y-88100000I-3000000J0D01*
G01*
X61200000Y-138100000D02*
G75*
G03X61200000Y-138100000I-3000000J0D01*
G01*
X61200000Y-42200000D02*
G75*
G03X61200000Y-42200000I-3000000J0D01*
G01*
D10*
X48000000Y-22000000D02*
X69000000Y-22000000D01*
X48000000Y-159000000D02*
X48000000Y-22000000D01*
X245000000Y-159000000D02*
X48000000Y-159000000D01*
X245000000Y-22000000D02*
X245000000Y-159000000D01*
X69000000Y-22000000D02*
X245000000Y-22000000D01*
X118800000Y-98300000D02*
X120200000Y-99600000D01*
X118800000Y-98300000D02*
G75*
G02X106853332Y-86247142I-5946669J6052859D01*
G01*
X128100000Y-50700000D02*
X138500000Y-50700000D01*
X110900000Y-50700000D02*
G75*
G02X128100000Y-50700000I8600000J0D01*
G01*
X190300000Y-50700000D02*
X195700000Y-50700000D01*
X173100000Y-50700000D02*
G75*
G02X190300000Y-50700000I8600000J0D01*
G01*
X178000000Y-107700000D02*
X175400000Y-107700000D01*
X198000000Y-107700000D02*
G75*
G02X178000000Y-107700000I-10000000J0D01*
G01*
X161000000Y-58100000D02*
X161000000Y-60800000D01*
X149700000Y-72000000D02*
X149800000Y-72000000D01*
X161000000Y-60800000D02*
G75*
G02X149800000Y-72000000I-11200000J0D01*
G01*
X149700000Y-72000000D02*
G75*
G02X138500000Y-60800000I0J11200000D01*
G01*
X161000000Y-50700000D02*
X161000000Y-58100000D01*
X173100000Y-50700000D02*
X161000000Y-50700000D01*
X196700000Y-42100000D02*
X196700000Y-49700000D01*
X225200000Y-42100000D02*
X196700000Y-42100000D01*
X225200000Y-54000000D02*
X225200000Y-42100000D01*
X230700000Y-55000000D02*
X226200000Y-55000000D01*
X230700000Y-65400000D02*
X230700000Y-55000000D01*
X230700000Y-138200000D02*
X230700000Y-65400000D01*
X215500000Y-138200000D02*
X230700000Y-138200000D01*
X215500000Y-101000000D02*
X215500000Y-138200000D01*
X209400000Y-107700000D02*
X214043947Y-100631391D01*
X198000000Y-107700000D02*
X209400000Y-107700000D01*
X174500000Y-132100000D02*
X174500000Y-108600000D01*
X168400000Y-138200000D02*
X174500000Y-132100000D01*
X120200000Y-138200000D02*
X168400000Y-138200000D01*
X120200000Y-107800000D02*
X120200000Y-138200000D01*
X120200000Y-99600000D02*
X120200000Y-107800000D01*
X105000000Y-84400000D02*
X106853332Y-86247142D01*
X104900000Y-84400000D02*
X105000000Y-84400000D01*
X69100000Y-84400000D02*
X104900000Y-84400000D01*
X69100000Y-64800000D02*
X69100000Y-84400000D01*
X69100000Y-42100000D02*
X69100000Y-64800000D01*
X138500000Y-50700000D02*
X138500000Y-60800000D01*
X103000000Y-50700000D02*
X110900000Y-50700000D01*
X102000000Y-42100000D02*
X102000000Y-49700000D01*
X69100000Y-42100000D02*
X102000000Y-42100000D01*
X174500000Y-108600000D02*
G75*
G02X175400000Y-107700000I900000J0D01*
G01*
M02*
